<?xml version="1.0" encoding="utf-8" standalone="no"?>
<!DOCTYPE svg PUBLIC "-//W3C//DTD SVG 1.1//EN"
  "http://www.w3.org/Graphics/SVG/1.1/DTD/svg11.dtd">
<!-- Created with matplotlib (https://matplotlib.org/) -->
<svg height="394.98525pt" version="1.1" viewBox="0 0 505.209606 394.98525" width="505.209606pt" xmlns="http://www.w3.org/2000/svg" xmlns:xlink="http://www.w3.org/1999/xlink">
 <metadata>
  <rdf:RDF xmlns:cc="http://creativecommons.org/ns#" xmlns:dc="http://purl.org/dc/elements/1.1/" xmlns:rdf="http://www.w3.org/1999/02/22-rdf-syntax-ns#">
   <cc:Work>
    <dc:type rdf:resource="http://purl.org/dc/dcmitype/StillImage"/>
    <dc:date>2023-09-27T10:28:09.454876</dc:date>
    <dc:format>image/svg+xml</dc:format>
    <dc:creator>
     <cc:Agent>
      <dc:title>Matplotlib v3.3.4, https://matplotlib.org/</dc:title>
     </cc:Agent>
    </dc:creator>
   </cc:Work>
  </rdf:RDF>
 </metadata>
 <defs>
  <style type="text/css">*{stroke-linecap:butt;stroke-linejoin:round;}</style>
 </defs>
 <g id="figure_1">
  <g id="patch_1">
   <path d="M 0 394.98525 
L 505.209606 394.98525 
L 505.209606 0 
L 0 0 
z
" style="fill:#ffffff;"/>
  </g>
  <g id="axes_1">
   <g id="patch_2">
    <path d="M 43.465625 311.904 
L 400.585625 311.904 
L 400.585625 45.792 
L 43.465625 45.792 
z
" style="fill:#e6e6e6;"/>
   </g>
   <g id="matplotlib.axis_1">
    <g id="xtick_1">
     <g id="line2d_1"/>
     <g id="text_1">
      <!-- BBRn-fq -->
      <g transform="translate(58.129 355.888375)rotate(-90)scale(0.1 -0.1)">
       <defs>
        <path d="M 19.671875 34.8125 
L 19.671875 8.109375 
L 35.5 8.109375 
Q 43.453125 8.109375 47.28125 11.40625 
Q 51.125 14.703125 51.125 21.484375 
Q 51.125 28.328125 47.28125 31.5625 
Q 43.453125 34.8125 35.5 34.8125 
z
M 19.671875 64.796875 
L 19.671875 42.828125 
L 34.28125 42.828125 
Q 41.5 42.828125 45.03125 45.53125 
Q 48.578125 48.25 48.578125 53.8125 
Q 48.578125 59.328125 45.03125 62.0625 
Q 41.5 64.796875 34.28125 64.796875 
z
M 9.8125 72.90625 
L 35.015625 72.90625 
Q 46.296875 72.90625 52.390625 68.21875 
Q 58.5 63.53125 58.5 54.890625 
Q 58.5 48.1875 55.375 44.234375 
Q 52.25 40.28125 46.1875 39.3125 
Q 53.46875 37.75 57.5 32.78125 
Q 61.53125 27.828125 61.53125 20.40625 
Q 61.53125 10.640625 54.890625 5.3125 
Q 48.25 0 35.984375 0 
L 9.8125 0 
z
" id="DejaVuSans-66"/>
        <path d="M 44.390625 34.1875 
Q 47.5625 33.109375 50.5625 29.59375 
Q 53.5625 26.078125 56.59375 19.921875 
L 66.609375 0 
L 56 0 
L 46.6875 18.703125 
Q 43.0625 26.03125 39.671875 28.421875 
Q 36.28125 30.8125 30.421875 30.8125 
L 19.671875 30.8125 
L 19.671875 0 
L 9.8125 0 
L 9.8125 72.90625 
L 32.078125 72.90625 
Q 44.578125 72.90625 50.734375 67.671875 
Q 56.890625 62.453125 56.890625 51.90625 
Q 56.890625 45.015625 53.6875 40.46875 
Q 50.484375 35.9375 44.390625 34.1875 
z
M 19.671875 64.796875 
L 19.671875 38.921875 
L 32.078125 38.921875 
Q 39.203125 38.921875 42.84375 42.21875 
Q 46.484375 45.515625 46.484375 51.90625 
Q 46.484375 58.296875 42.84375 61.546875 
Q 39.203125 64.796875 32.078125 64.796875 
z
" id="DejaVuSans-82"/>
        <path d="M 54.890625 33.015625 
L 54.890625 0 
L 45.90625 0 
L 45.90625 32.71875 
Q 45.90625 40.484375 42.875 44.328125 
Q 39.84375 48.1875 33.796875 48.1875 
Q 26.515625 48.1875 22.3125 43.546875 
Q 18.109375 38.921875 18.109375 30.90625 
L 18.109375 0 
L 9.078125 0 
L 9.078125 54.6875 
L 18.109375 54.6875 
L 18.109375 46.1875 
Q 21.34375 51.125 25.703125 53.5625 
Q 30.078125 56 35.796875 56 
Q 45.21875 56 50.046875 50.171875 
Q 54.890625 44.34375 54.890625 33.015625 
z
" id="DejaVuSans-110"/>
        <path d="M 4.890625 31.390625 
L 31.203125 31.390625 
L 31.203125 23.390625 
L 4.890625 23.390625 
z
" id="DejaVuSans-45"/>
        <path d="M 37.109375 75.984375 
L 37.109375 68.5 
L 28.515625 68.5 
Q 23.6875 68.5 21.796875 66.546875 
Q 19.921875 64.59375 19.921875 59.515625 
L 19.921875 54.6875 
L 34.71875 54.6875 
L 34.71875 47.703125 
L 19.921875 47.703125 
L 19.921875 0 
L 10.890625 0 
L 10.890625 47.703125 
L 2.296875 47.703125 
L 2.296875 54.6875 
L 10.890625 54.6875 
L 10.890625 58.5 
Q 10.890625 67.625 15.140625 71.796875 
Q 19.390625 75.984375 28.609375 75.984375 
z
" id="DejaVuSans-102"/>
        <path d="M 14.796875 27.296875 
Q 14.796875 17.390625 18.875 11.75 
Q 22.953125 6.109375 30.078125 6.109375 
Q 37.203125 6.109375 41.296875 11.75 
Q 45.40625 17.390625 45.40625 27.296875 
Q 45.40625 37.203125 41.296875 42.84375 
Q 37.203125 48.484375 30.078125 48.484375 
Q 22.953125 48.484375 18.875 42.84375 
Q 14.796875 37.203125 14.796875 27.296875 
z
M 45.40625 8.203125 
Q 42.578125 3.328125 38.25 0.953125 
Q 33.9375 -1.421875 27.875 -1.421875 
Q 17.96875 -1.421875 11.734375 6.484375 
Q 5.515625 14.40625 5.515625 27.296875 
Q 5.515625 40.1875 11.734375 48.09375 
Q 17.96875 56 27.875 56 
Q 33.9375 56 38.25 53.625 
Q 42.578125 51.265625 45.40625 46.390625 
L 45.40625 54.6875 
L 54.390625 54.6875 
L 54.390625 -20.796875 
L 45.40625 -20.796875 
z
" id="DejaVuSans-113"/>
       </defs>
       <use xlink:href="#DejaVuSans-66"/>
       <use x="68.603516" xlink:href="#DejaVuSans-66"/>
       <use x="137.207031" xlink:href="#DejaVuSans-82"/>
       <use x="206.689453" xlink:href="#DejaVuSans-110"/>
       <use x="270.068359" xlink:href="#DejaVuSans-45"/>
       <use x="306.152344" xlink:href="#DejaVuSans-102"/>
       <use x="341.357422" xlink:href="#DejaVuSans-113"/>
      </g>
     </g>
    </g>
    <g id="xtick_2">
     <g id="line2d_2"/>
     <g id="text_2">
      <!-- BBRn-codel -->
      <g transform="translate(70.033 372.9165)rotate(-90)scale(0.1 -0.1)">
       <defs>
        <path d="M 48.78125 52.59375 
L 48.78125 44.1875 
Q 44.96875 46.296875 41.140625 47.34375 
Q 37.3125 48.390625 33.40625 48.390625 
Q 24.65625 48.390625 19.8125 42.84375 
Q 14.984375 37.3125 14.984375 27.296875 
Q 14.984375 17.28125 19.8125 11.734375 
Q 24.65625 6.203125 33.40625 6.203125 
Q 37.3125 6.203125 41.140625 7.25 
Q 44.96875 8.296875 48.78125 10.40625 
L 48.78125 2.09375 
Q 45.015625 0.34375 40.984375 -0.53125 
Q 36.96875 -1.421875 32.421875 -1.421875 
Q 20.0625 -1.421875 12.78125 6.34375 
Q 5.515625 14.109375 5.515625 27.296875 
Q 5.515625 40.671875 12.859375 48.328125 
Q 20.21875 56 33.015625 56 
Q 37.15625 56 41.109375 55.140625 
Q 45.0625 54.296875 48.78125 52.59375 
z
" id="DejaVuSans-99"/>
        <path d="M 30.609375 48.390625 
Q 23.390625 48.390625 19.1875 42.75 
Q 14.984375 37.109375 14.984375 27.296875 
Q 14.984375 17.484375 19.15625 11.84375 
Q 23.34375 6.203125 30.609375 6.203125 
Q 37.796875 6.203125 41.984375 11.859375 
Q 46.1875 17.53125 46.1875 27.296875 
Q 46.1875 37.015625 41.984375 42.703125 
Q 37.796875 48.390625 30.609375 48.390625 
z
M 30.609375 56 
Q 42.328125 56 49.015625 48.375 
Q 55.71875 40.765625 55.71875 27.296875 
Q 55.71875 13.875 49.015625 6.21875 
Q 42.328125 -1.421875 30.609375 -1.421875 
Q 18.84375 -1.421875 12.171875 6.21875 
Q 5.515625 13.875 5.515625 27.296875 
Q 5.515625 40.765625 12.171875 48.375 
Q 18.84375 56 30.609375 56 
z
" id="DejaVuSans-111"/>
        <path d="M 45.40625 46.390625 
L 45.40625 75.984375 
L 54.390625 75.984375 
L 54.390625 0 
L 45.40625 0 
L 45.40625 8.203125 
Q 42.578125 3.328125 38.25 0.953125 
Q 33.9375 -1.421875 27.875 -1.421875 
Q 17.96875 -1.421875 11.734375 6.484375 
Q 5.515625 14.40625 5.515625 27.296875 
Q 5.515625 40.1875 11.734375 48.09375 
Q 17.96875 56 27.875 56 
Q 33.9375 56 38.25 53.625 
Q 42.578125 51.265625 45.40625 46.390625 
z
M 14.796875 27.296875 
Q 14.796875 17.390625 18.875 11.75 
Q 22.953125 6.109375 30.078125 6.109375 
Q 37.203125 6.109375 41.296875 11.75 
Q 45.40625 17.390625 45.40625 27.296875 
Q 45.40625 37.203125 41.296875 42.84375 
Q 37.203125 48.484375 30.078125 48.484375 
Q 22.953125 48.484375 18.875 42.84375 
Q 14.796875 37.203125 14.796875 27.296875 
z
" id="DejaVuSans-100"/>
        <path d="M 56.203125 29.59375 
L 56.203125 25.203125 
L 14.890625 25.203125 
Q 15.484375 15.921875 20.484375 11.0625 
Q 25.484375 6.203125 34.421875 6.203125 
Q 39.59375 6.203125 44.453125 7.46875 
Q 49.3125 8.734375 54.109375 11.28125 
L 54.109375 2.78125 
Q 49.265625 0.734375 44.1875 -0.34375 
Q 39.109375 -1.421875 33.890625 -1.421875 
Q 20.796875 -1.421875 13.15625 6.1875 
Q 5.515625 13.8125 5.515625 26.8125 
Q 5.515625 40.234375 12.765625 48.109375 
Q 20.015625 56 32.328125 56 
Q 43.359375 56 49.78125 48.890625 
Q 56.203125 41.796875 56.203125 29.59375 
z
M 47.21875 32.234375 
Q 47.125 39.59375 43.09375 43.984375 
Q 39.0625 48.390625 32.421875 48.390625 
Q 24.90625 48.390625 20.390625 44.140625 
Q 15.875 39.890625 15.1875 32.171875 
z
" id="DejaVuSans-101"/>
        <path d="M 9.421875 75.984375 
L 18.40625 75.984375 
L 18.40625 0 
L 9.421875 0 
z
" id="DejaVuSans-108"/>
       </defs>
       <use xlink:href="#DejaVuSans-66"/>
       <use x="68.603516" xlink:href="#DejaVuSans-66"/>
       <use x="137.207031" xlink:href="#DejaVuSans-82"/>
       <use x="206.689453" xlink:href="#DejaVuSans-110"/>
       <use x="270.068359" xlink:href="#DejaVuSans-45"/>
       <use x="306.152344" xlink:href="#DejaVuSans-99"/>
       <use x="361.132812" xlink:href="#DejaVuSans-111"/>
       <use x="422.314453" xlink:href="#DejaVuSans-100"/>
       <use x="485.791016" xlink:href="#DejaVuSans-101"/>
       <use x="547.314453" xlink:href="#DejaVuSans-108"/>
      </g>
     </g>
    </g>
    <g id="xtick_3">
     <g id="line2d_3"/>
     <g id="text_3">
      <!-- BBRn-cake -->
      <g transform="translate(81.937 369.227437)rotate(-90)scale(0.1 -0.1)">
       <defs>
        <path d="M 34.28125 27.484375 
Q 23.390625 27.484375 19.1875 25 
Q 14.984375 22.515625 14.984375 16.5 
Q 14.984375 11.71875 18.140625 8.90625 
Q 21.296875 6.109375 26.703125 6.109375 
Q 34.1875 6.109375 38.703125 11.40625 
Q 43.21875 16.703125 43.21875 25.484375 
L 43.21875 27.484375 
z
M 52.203125 31.203125 
L 52.203125 0 
L 43.21875 0 
L 43.21875 8.296875 
Q 40.140625 3.328125 35.546875 0.953125 
Q 30.953125 -1.421875 24.3125 -1.421875 
Q 15.921875 -1.421875 10.953125 3.296875 
Q 6 8.015625 6 15.921875 
Q 6 25.140625 12.171875 29.828125 
Q 18.359375 34.515625 30.609375 34.515625 
L 43.21875 34.515625 
L 43.21875 35.40625 
Q 43.21875 41.609375 39.140625 45 
Q 35.0625 48.390625 27.6875 48.390625 
Q 23 48.390625 18.546875 47.265625 
Q 14.109375 46.140625 10.015625 43.890625 
L 10.015625 52.203125 
Q 14.9375 54.109375 19.578125 55.046875 
Q 24.21875 56 28.609375 56 
Q 40.484375 56 46.34375 49.84375 
Q 52.203125 43.703125 52.203125 31.203125 
z
" id="DejaVuSans-97"/>
        <path d="M 9.078125 75.984375 
L 18.109375 75.984375 
L 18.109375 31.109375 
L 44.921875 54.6875 
L 56.390625 54.6875 
L 27.390625 29.109375 
L 57.625 0 
L 45.90625 0 
L 18.109375 26.703125 
L 18.109375 0 
L 9.078125 0 
z
" id="DejaVuSans-107"/>
       </defs>
       <use xlink:href="#DejaVuSans-66"/>
       <use x="68.603516" xlink:href="#DejaVuSans-66"/>
       <use x="137.207031" xlink:href="#DejaVuSans-82"/>
       <use x="206.689453" xlink:href="#DejaVuSans-110"/>
       <use x="270.068359" xlink:href="#DejaVuSans-45"/>
       <use x="306.152344" xlink:href="#DejaVuSans-99"/>
       <use x="361.132812" xlink:href="#DejaVuSans-97"/>
       <use x="422.412109" xlink:href="#DejaVuSans-107"/>
       <use x="476.697266" xlink:href="#DejaVuSans-101"/>
      </g>
     </g>
    </g>
    <g id="xtick_4">
     <g id="line2d_4"/>
     <g id="text_4">
      <!-- BBRn-pie -->
      <g transform="translate(93.841 361.299312)rotate(-90)scale(0.1 -0.1)">
       <defs>
        <path d="M 18.109375 8.203125 
L 18.109375 -20.796875 
L 9.078125 -20.796875 
L 9.078125 54.6875 
L 18.109375 54.6875 
L 18.109375 46.390625 
Q 20.953125 51.265625 25.265625 53.625 
Q 29.59375 56 35.59375 56 
Q 45.5625 56 51.78125 48.09375 
Q 58.015625 40.1875 58.015625 27.296875 
Q 58.015625 14.40625 51.78125 6.484375 
Q 45.5625 -1.421875 35.59375 -1.421875 
Q 29.59375 -1.421875 25.265625 0.953125 
Q 20.953125 3.328125 18.109375 8.203125 
z
M 48.6875 27.296875 
Q 48.6875 37.203125 44.609375 42.84375 
Q 40.53125 48.484375 33.40625 48.484375 
Q 26.265625 48.484375 22.1875 42.84375 
Q 18.109375 37.203125 18.109375 27.296875 
Q 18.109375 17.390625 22.1875 11.75 
Q 26.265625 6.109375 33.40625 6.109375 
Q 40.53125 6.109375 44.609375 11.75 
Q 48.6875 17.390625 48.6875 27.296875 
z
" id="DejaVuSans-112"/>
        <path d="M 9.421875 54.6875 
L 18.40625 54.6875 
L 18.40625 0 
L 9.421875 0 
z
M 9.421875 75.984375 
L 18.40625 75.984375 
L 18.40625 64.59375 
L 9.421875 64.59375 
z
" id="DejaVuSans-105"/>
       </defs>
       <use xlink:href="#DejaVuSans-66"/>
       <use x="68.603516" xlink:href="#DejaVuSans-66"/>
       <use x="137.207031" xlink:href="#DejaVuSans-82"/>
       <use x="206.689453" xlink:href="#DejaVuSans-110"/>
       <use x="270.068359" xlink:href="#DejaVuSans-45"/>
       <use x="306.152344" xlink:href="#DejaVuSans-112"/>
       <use x="369.628906" xlink:href="#DejaVuSans-105"/>
       <use x="397.412109" xlink:href="#DejaVuSans-101"/>
      </g>
     </g>
    </g>
    <g id="xtick_5">
     <g id="line2d_5"/>
     <g id="text_5">
      <!-- BBRn-fq_codel -->
      <g transform="translate(105.605938 387.78525)rotate(-90)scale(0.1 -0.1)">
       <defs>
        <path d="M 50.984375 -16.609375 
L 50.984375 -23.578125 
L -0.984375 -23.578125 
L -0.984375 -16.609375 
z
" id="DejaVuSans-95"/>
       </defs>
       <use xlink:href="#DejaVuSans-66"/>
       <use x="68.603516" xlink:href="#DejaVuSans-66"/>
       <use x="137.207031" xlink:href="#DejaVuSans-82"/>
       <use x="206.689453" xlink:href="#DejaVuSans-110"/>
       <use x="270.068359" xlink:href="#DejaVuSans-45"/>
       <use x="306.152344" xlink:href="#DejaVuSans-102"/>
       <use x="341.357422" xlink:href="#DejaVuSans-113"/>
       <use x="404.833984" xlink:href="#DejaVuSans-95"/>
       <use x="454.833984" xlink:href="#DejaVuSans-99"/>
       <use x="509.814453" xlink:href="#DejaVuSans-111"/>
       <use x="570.996094" xlink:href="#DejaVuSans-100"/>
       <use x="634.472656" xlink:href="#DejaVuSans-101"/>
       <use x="695.996094" xlink:href="#DejaVuSans-108"/>
      </g>
     </g>
    </g>
    <g id="xtick_6">
     <g id="line2d_6"/>
     <g id="text_6">
      <!-- BBRn-fq -->
      <g transform="translate(129.553 355.888375)rotate(-90)scale(0.1 -0.1)">
       <use xlink:href="#DejaVuSans-66"/>
       <use x="68.603516" xlink:href="#DejaVuSans-66"/>
       <use x="137.207031" xlink:href="#DejaVuSans-82"/>
       <use x="206.689453" xlink:href="#DejaVuSans-110"/>
       <use x="270.068359" xlink:href="#DejaVuSans-45"/>
       <use x="306.152344" xlink:href="#DejaVuSans-102"/>
       <use x="341.357422" xlink:href="#DejaVuSans-113"/>
      </g>
     </g>
    </g>
    <g id="xtick_7">
     <g id="line2d_7"/>
     <g id="text_7">
      <!-- BBRn-codel -->
      <g transform="translate(141.457 372.9165)rotate(-90)scale(0.1 -0.1)">
       <use xlink:href="#DejaVuSans-66"/>
       <use x="68.603516" xlink:href="#DejaVuSans-66"/>
       <use x="137.207031" xlink:href="#DejaVuSans-82"/>
       <use x="206.689453" xlink:href="#DejaVuSans-110"/>
       <use x="270.068359" xlink:href="#DejaVuSans-45"/>
       <use x="306.152344" xlink:href="#DejaVuSans-99"/>
       <use x="361.132812" xlink:href="#DejaVuSans-111"/>
       <use x="422.314453" xlink:href="#DejaVuSans-100"/>
       <use x="485.791016" xlink:href="#DejaVuSans-101"/>
       <use x="547.314453" xlink:href="#DejaVuSans-108"/>
      </g>
     </g>
    </g>
    <g id="xtick_8">
     <g id="line2d_8"/>
     <g id="text_8">
      <!-- BBRn-cake -->
      <g transform="translate(153.361 369.227437)rotate(-90)scale(0.1 -0.1)">
       <use xlink:href="#DejaVuSans-66"/>
       <use x="68.603516" xlink:href="#DejaVuSans-66"/>
       <use x="137.207031" xlink:href="#DejaVuSans-82"/>
       <use x="206.689453" xlink:href="#DejaVuSans-110"/>
       <use x="270.068359" xlink:href="#DejaVuSans-45"/>
       <use x="306.152344" xlink:href="#DejaVuSans-99"/>
       <use x="361.132812" xlink:href="#DejaVuSans-97"/>
       <use x="422.412109" xlink:href="#DejaVuSans-107"/>
       <use x="476.697266" xlink:href="#DejaVuSans-101"/>
      </g>
     </g>
    </g>
    <g id="xtick_9">
     <g id="line2d_9"/>
     <g id="text_9">
      <!-- BBRn-pie -->
      <g transform="translate(165.265 361.299312)rotate(-90)scale(0.1 -0.1)">
       <use xlink:href="#DejaVuSans-66"/>
       <use x="68.603516" xlink:href="#DejaVuSans-66"/>
       <use x="137.207031" xlink:href="#DejaVuSans-82"/>
       <use x="206.689453" xlink:href="#DejaVuSans-110"/>
       <use x="270.068359" xlink:href="#DejaVuSans-45"/>
       <use x="306.152344" xlink:href="#DejaVuSans-112"/>
       <use x="369.628906" xlink:href="#DejaVuSans-105"/>
       <use x="397.412109" xlink:href="#DejaVuSans-101"/>
      </g>
     </g>
    </g>
    <g id="xtick_10">
     <g id="line2d_10"/>
     <g id="text_10">
      <!-- BBRn-fq_codel -->
      <g transform="translate(177.029938 387.78525)rotate(-90)scale(0.1 -0.1)">
       <use xlink:href="#DejaVuSans-66"/>
       <use x="68.603516" xlink:href="#DejaVuSans-66"/>
       <use x="137.207031" xlink:href="#DejaVuSans-82"/>
       <use x="206.689453" xlink:href="#DejaVuSans-110"/>
       <use x="270.068359" xlink:href="#DejaVuSans-45"/>
       <use x="306.152344" xlink:href="#DejaVuSans-102"/>
       <use x="341.357422" xlink:href="#DejaVuSans-113"/>
       <use x="404.833984" xlink:href="#DejaVuSans-95"/>
       <use x="454.833984" xlink:href="#DejaVuSans-99"/>
       <use x="509.814453" xlink:href="#DejaVuSans-111"/>
       <use x="570.996094" xlink:href="#DejaVuSans-100"/>
       <use x="634.472656" xlink:href="#DejaVuSans-101"/>
       <use x="695.996094" xlink:href="#DejaVuSans-108"/>
      </g>
     </g>
    </g>
    <g id="xtick_11">
     <g id="line2d_11"/>
     <g id="text_11">
      <!-- BBRn-fq -->
      <g transform="translate(200.977 355.888375)rotate(-90)scale(0.1 -0.1)">
       <use xlink:href="#DejaVuSans-66"/>
       <use x="68.603516" xlink:href="#DejaVuSans-66"/>
       <use x="137.207031" xlink:href="#DejaVuSans-82"/>
       <use x="206.689453" xlink:href="#DejaVuSans-110"/>
       <use x="270.068359" xlink:href="#DejaVuSans-45"/>
       <use x="306.152344" xlink:href="#DejaVuSans-102"/>
       <use x="341.357422" xlink:href="#DejaVuSans-113"/>
      </g>
     </g>
    </g>
    <g id="xtick_12">
     <g id="line2d_12"/>
     <g id="text_12">
      <!-- BBRn-codel -->
      <g transform="translate(212.881 372.9165)rotate(-90)scale(0.1 -0.1)">
       <use xlink:href="#DejaVuSans-66"/>
       <use x="68.603516" xlink:href="#DejaVuSans-66"/>
       <use x="137.207031" xlink:href="#DejaVuSans-82"/>
       <use x="206.689453" xlink:href="#DejaVuSans-110"/>
       <use x="270.068359" xlink:href="#DejaVuSans-45"/>
       <use x="306.152344" xlink:href="#DejaVuSans-99"/>
       <use x="361.132812" xlink:href="#DejaVuSans-111"/>
       <use x="422.314453" xlink:href="#DejaVuSans-100"/>
       <use x="485.791016" xlink:href="#DejaVuSans-101"/>
       <use x="547.314453" xlink:href="#DejaVuSans-108"/>
      </g>
     </g>
    </g>
    <g id="xtick_13">
     <g id="line2d_13"/>
     <g id="text_13">
      <!-- BBRn-cake -->
      <g transform="translate(224.785 369.227437)rotate(-90)scale(0.1 -0.1)">
       <use xlink:href="#DejaVuSans-66"/>
       <use x="68.603516" xlink:href="#DejaVuSans-66"/>
       <use x="137.207031" xlink:href="#DejaVuSans-82"/>
       <use x="206.689453" xlink:href="#DejaVuSans-110"/>
       <use x="270.068359" xlink:href="#DejaVuSans-45"/>
       <use x="306.152344" xlink:href="#DejaVuSans-99"/>
       <use x="361.132812" xlink:href="#DejaVuSans-97"/>
       <use x="422.412109" xlink:href="#DejaVuSans-107"/>
       <use x="476.697266" xlink:href="#DejaVuSans-101"/>
      </g>
     </g>
    </g>
    <g id="xtick_14">
     <g id="line2d_14"/>
     <g id="text_14">
      <!-- BBRn-pie -->
      <g transform="translate(236.689 361.299312)rotate(-90)scale(0.1 -0.1)">
       <use xlink:href="#DejaVuSans-66"/>
       <use x="68.603516" xlink:href="#DejaVuSans-66"/>
       <use x="137.207031" xlink:href="#DejaVuSans-82"/>
       <use x="206.689453" xlink:href="#DejaVuSans-110"/>
       <use x="270.068359" xlink:href="#DejaVuSans-45"/>
       <use x="306.152344" xlink:href="#DejaVuSans-112"/>
       <use x="369.628906" xlink:href="#DejaVuSans-105"/>
       <use x="397.412109" xlink:href="#DejaVuSans-101"/>
      </g>
     </g>
    </g>
    <g id="xtick_15">
     <g id="line2d_15"/>
     <g id="text_15">
      <!-- BBRn-fq_codel -->
      <g transform="translate(248.453938 387.78525)rotate(-90)scale(0.1 -0.1)">
       <use xlink:href="#DejaVuSans-66"/>
       <use x="68.603516" xlink:href="#DejaVuSans-66"/>
       <use x="137.207031" xlink:href="#DejaVuSans-82"/>
       <use x="206.689453" xlink:href="#DejaVuSans-110"/>
       <use x="270.068359" xlink:href="#DejaVuSans-45"/>
       <use x="306.152344" xlink:href="#DejaVuSans-102"/>
       <use x="341.357422" xlink:href="#DejaVuSans-113"/>
       <use x="404.833984" xlink:href="#DejaVuSans-95"/>
       <use x="454.833984" xlink:href="#DejaVuSans-99"/>
       <use x="509.814453" xlink:href="#DejaVuSans-111"/>
       <use x="570.996094" xlink:href="#DejaVuSans-100"/>
       <use x="634.472656" xlink:href="#DejaVuSans-101"/>
       <use x="695.996094" xlink:href="#DejaVuSans-108"/>
      </g>
     </g>
    </g>
    <g id="xtick_16">
     <g id="line2d_16"/>
     <g id="text_16">
      <!-- BBRn-fq -->
      <g transform="translate(272.401 355.888375)rotate(-90)scale(0.1 -0.1)">
       <use xlink:href="#DejaVuSans-66"/>
       <use x="68.603516" xlink:href="#DejaVuSans-66"/>
       <use x="137.207031" xlink:href="#DejaVuSans-82"/>
       <use x="206.689453" xlink:href="#DejaVuSans-110"/>
       <use x="270.068359" xlink:href="#DejaVuSans-45"/>
       <use x="306.152344" xlink:href="#DejaVuSans-102"/>
       <use x="341.357422" xlink:href="#DejaVuSans-113"/>
      </g>
     </g>
    </g>
    <g id="xtick_17">
     <g id="line2d_17"/>
     <g id="text_17">
      <!-- BBRn-codel -->
      <g transform="translate(284.305 372.9165)rotate(-90)scale(0.1 -0.1)">
       <use xlink:href="#DejaVuSans-66"/>
       <use x="68.603516" xlink:href="#DejaVuSans-66"/>
       <use x="137.207031" xlink:href="#DejaVuSans-82"/>
       <use x="206.689453" xlink:href="#DejaVuSans-110"/>
       <use x="270.068359" xlink:href="#DejaVuSans-45"/>
       <use x="306.152344" xlink:href="#DejaVuSans-99"/>
       <use x="361.132812" xlink:href="#DejaVuSans-111"/>
       <use x="422.314453" xlink:href="#DejaVuSans-100"/>
       <use x="485.791016" xlink:href="#DejaVuSans-101"/>
       <use x="547.314453" xlink:href="#DejaVuSans-108"/>
      </g>
     </g>
    </g>
    <g id="xtick_18">
     <g id="line2d_18"/>
     <g id="text_18">
      <!-- BBRn-cake -->
      <g transform="translate(296.209 369.227437)rotate(-90)scale(0.1 -0.1)">
       <use xlink:href="#DejaVuSans-66"/>
       <use x="68.603516" xlink:href="#DejaVuSans-66"/>
       <use x="137.207031" xlink:href="#DejaVuSans-82"/>
       <use x="206.689453" xlink:href="#DejaVuSans-110"/>
       <use x="270.068359" xlink:href="#DejaVuSans-45"/>
       <use x="306.152344" xlink:href="#DejaVuSans-99"/>
       <use x="361.132812" xlink:href="#DejaVuSans-97"/>
       <use x="422.412109" xlink:href="#DejaVuSans-107"/>
       <use x="476.697266" xlink:href="#DejaVuSans-101"/>
      </g>
     </g>
    </g>
    <g id="xtick_19">
     <g id="line2d_19"/>
     <g id="text_19">
      <!-- BBRn-pie -->
      <g transform="translate(308.113 361.299312)rotate(-90)scale(0.1 -0.1)">
       <use xlink:href="#DejaVuSans-66"/>
       <use x="68.603516" xlink:href="#DejaVuSans-66"/>
       <use x="137.207031" xlink:href="#DejaVuSans-82"/>
       <use x="206.689453" xlink:href="#DejaVuSans-110"/>
       <use x="270.068359" xlink:href="#DejaVuSans-45"/>
       <use x="306.152344" xlink:href="#DejaVuSans-112"/>
       <use x="369.628906" xlink:href="#DejaVuSans-105"/>
       <use x="397.412109" xlink:href="#DejaVuSans-101"/>
      </g>
     </g>
    </g>
    <g id="xtick_20">
     <g id="line2d_20"/>
     <g id="text_20">
      <!-- BBRn-fq_codel -->
      <g transform="translate(319.877938 387.78525)rotate(-90)scale(0.1 -0.1)">
       <use xlink:href="#DejaVuSans-66"/>
       <use x="68.603516" xlink:href="#DejaVuSans-66"/>
       <use x="137.207031" xlink:href="#DejaVuSans-82"/>
       <use x="206.689453" xlink:href="#DejaVuSans-110"/>
       <use x="270.068359" xlink:href="#DejaVuSans-45"/>
       <use x="306.152344" xlink:href="#DejaVuSans-102"/>
       <use x="341.357422" xlink:href="#DejaVuSans-113"/>
       <use x="404.833984" xlink:href="#DejaVuSans-95"/>
       <use x="454.833984" xlink:href="#DejaVuSans-99"/>
       <use x="509.814453" xlink:href="#DejaVuSans-111"/>
       <use x="570.996094" xlink:href="#DejaVuSans-100"/>
       <use x="634.472656" xlink:href="#DejaVuSans-101"/>
       <use x="695.996094" xlink:href="#DejaVuSans-108"/>
      </g>
     </g>
    </g>
    <g id="xtick_21">
     <g id="line2d_21"/>
     <g id="text_21">
      <!-- BBRn-fq -->
      <g transform="translate(343.825 355.888375)rotate(-90)scale(0.1 -0.1)">
       <use xlink:href="#DejaVuSans-66"/>
       <use x="68.603516" xlink:href="#DejaVuSans-66"/>
       <use x="137.207031" xlink:href="#DejaVuSans-82"/>
       <use x="206.689453" xlink:href="#DejaVuSans-110"/>
       <use x="270.068359" xlink:href="#DejaVuSans-45"/>
       <use x="306.152344" xlink:href="#DejaVuSans-102"/>
       <use x="341.357422" xlink:href="#DejaVuSans-113"/>
      </g>
     </g>
    </g>
    <g id="xtick_22">
     <g id="line2d_22"/>
     <g id="text_22">
      <!-- BBRn-codel -->
      <g transform="translate(355.729 372.9165)rotate(-90)scale(0.1 -0.1)">
       <use xlink:href="#DejaVuSans-66"/>
       <use x="68.603516" xlink:href="#DejaVuSans-66"/>
       <use x="137.207031" xlink:href="#DejaVuSans-82"/>
       <use x="206.689453" xlink:href="#DejaVuSans-110"/>
       <use x="270.068359" xlink:href="#DejaVuSans-45"/>
       <use x="306.152344" xlink:href="#DejaVuSans-99"/>
       <use x="361.132812" xlink:href="#DejaVuSans-111"/>
       <use x="422.314453" xlink:href="#DejaVuSans-100"/>
       <use x="485.791016" xlink:href="#DejaVuSans-101"/>
       <use x="547.314453" xlink:href="#DejaVuSans-108"/>
      </g>
     </g>
    </g>
    <g id="xtick_23">
     <g id="line2d_23"/>
     <g id="text_23">
      <!-- BBRn-cake -->
      <g transform="translate(367.633 369.227437)rotate(-90)scale(0.1 -0.1)">
       <use xlink:href="#DejaVuSans-66"/>
       <use x="68.603516" xlink:href="#DejaVuSans-66"/>
       <use x="137.207031" xlink:href="#DejaVuSans-82"/>
       <use x="206.689453" xlink:href="#DejaVuSans-110"/>
       <use x="270.068359" xlink:href="#DejaVuSans-45"/>
       <use x="306.152344" xlink:href="#DejaVuSans-99"/>
       <use x="361.132812" xlink:href="#DejaVuSans-97"/>
       <use x="422.412109" xlink:href="#DejaVuSans-107"/>
       <use x="476.697266" xlink:href="#DejaVuSans-101"/>
      </g>
     </g>
    </g>
    <g id="xtick_24">
     <g id="line2d_24"/>
     <g id="text_24">
      <!-- BBRn-pie -->
      <g transform="translate(379.537 361.299312)rotate(-90)scale(0.1 -0.1)">
       <use xlink:href="#DejaVuSans-66"/>
       <use x="68.603516" xlink:href="#DejaVuSans-66"/>
       <use x="137.207031" xlink:href="#DejaVuSans-82"/>
       <use x="206.689453" xlink:href="#DejaVuSans-110"/>
       <use x="270.068359" xlink:href="#DejaVuSans-45"/>
       <use x="306.152344" xlink:href="#DejaVuSans-112"/>
       <use x="369.628906" xlink:href="#DejaVuSans-105"/>
       <use x="397.412109" xlink:href="#DejaVuSans-101"/>
      </g>
     </g>
    </g>
    <g id="xtick_25">
     <g id="line2d_25"/>
     <g id="text_25">
      <!-- BBRn-fq_codel -->
      <g transform="translate(391.301938 387.78525)rotate(-90)scale(0.1 -0.1)">
       <use xlink:href="#DejaVuSans-66"/>
       <use x="68.603516" xlink:href="#DejaVuSans-66"/>
       <use x="137.207031" xlink:href="#DejaVuSans-82"/>
       <use x="206.689453" xlink:href="#DejaVuSans-110"/>
       <use x="270.068359" xlink:href="#DejaVuSans-45"/>
       <use x="306.152344" xlink:href="#DejaVuSans-102"/>
       <use x="341.357422" xlink:href="#DejaVuSans-113"/>
       <use x="404.833984" xlink:href="#DejaVuSans-95"/>
       <use x="454.833984" xlink:href="#DejaVuSans-99"/>
       <use x="509.814453" xlink:href="#DejaVuSans-111"/>
       <use x="570.996094" xlink:href="#DejaVuSans-100"/>
       <use x="634.472656" xlink:href="#DejaVuSans-101"/>
       <use x="695.996094" xlink:href="#DejaVuSans-108"/>
      </g>
     </g>
    </g>
   </g>
   <g id="matplotlib.axis_2">
    <g id="ytick_1">
     <g id="line2d_26">
      <path clip-path="url(#p66a817781d)" d="M 43.465625 310.084622 
L 400.585625 310.084622 
" style="fill:none;stroke:#ffffff;stroke-linecap:round;"/>
     </g>
     <g id="line2d_27"/>
     <g id="text_26">
      <!-- 0 -->
      <g transform="translate(33.603125 313.88384)scale(0.1 -0.1)">
       <defs>
        <path d="M 31.78125 66.40625 
Q 24.171875 66.40625 20.328125 58.90625 
Q 16.5 51.421875 16.5 36.375 
Q 16.5 21.390625 20.328125 13.890625 
Q 24.171875 6.390625 31.78125 6.390625 
Q 39.453125 6.390625 43.28125 13.890625 
Q 47.125 21.390625 47.125 36.375 
Q 47.125 51.421875 43.28125 58.90625 
Q 39.453125 66.40625 31.78125 66.40625 
z
M 31.78125 74.21875 
Q 44.046875 74.21875 50.515625 64.515625 
Q 56.984375 54.828125 56.984375 36.375 
Q 56.984375 17.96875 50.515625 8.265625 
Q 44.046875 -1.421875 31.78125 -1.421875 
Q 19.53125 -1.421875 13.0625 8.265625 
Q 6.59375 17.96875 6.59375 36.375 
Q 6.59375 54.828125 13.0625 64.515625 
Q 19.53125 74.21875 31.78125 74.21875 
z
" id="DejaVuSans-48"/>
       </defs>
       <use xlink:href="#DejaVuSans-48"/>
      </g>
     </g>
    </g>
    <g id="ytick_2">
     <g id="line2d_28">
      <path clip-path="url(#p66a817781d)" d="M 43.465625 253.687277 
L 400.585625 253.687277 
" style="fill:none;stroke:#ffffff;stroke-linecap:round;"/>
     </g>
     <g id="line2d_29"/>
     <g id="text_27">
      <!-- 50 -->
      <g transform="translate(27.240625 257.486495)scale(0.1 -0.1)">
       <defs>
        <path d="M 10.796875 72.90625 
L 49.515625 72.90625 
L 49.515625 64.59375 
L 19.828125 64.59375 
L 19.828125 46.734375 
Q 21.96875 47.46875 24.109375 47.828125 
Q 26.265625 48.1875 28.421875 48.1875 
Q 40.625 48.1875 47.75 41.5 
Q 54.890625 34.8125 54.890625 23.390625 
Q 54.890625 11.625 47.5625 5.09375 
Q 40.234375 -1.421875 26.90625 -1.421875 
Q 22.3125 -1.421875 17.546875 -0.640625 
Q 12.796875 0.140625 7.71875 1.703125 
L 7.71875 11.625 
Q 12.109375 9.234375 16.796875 8.0625 
Q 21.484375 6.890625 26.703125 6.890625 
Q 35.15625 6.890625 40.078125 11.328125 
Q 45.015625 15.765625 45.015625 23.390625 
Q 45.015625 31 40.078125 35.4375 
Q 35.15625 39.890625 26.703125 39.890625 
Q 22.75 39.890625 18.8125 39.015625 
Q 14.890625 38.140625 10.796875 36.28125 
z
" id="DejaVuSans-53"/>
       </defs>
       <use xlink:href="#DejaVuSans-53"/>
       <use x="63.623047" xlink:href="#DejaVuSans-48"/>
      </g>
     </g>
    </g>
    <g id="ytick_3">
     <g id="line2d_30">
      <path clip-path="url(#p66a817781d)" d="M 43.465625 197.289932 
L 400.585625 197.289932 
" style="fill:none;stroke:#ffffff;stroke-linecap:round;"/>
     </g>
     <g id="line2d_31"/>
     <g id="text_28">
      <!-- 100 -->
      <g transform="translate(20.878125 201.089151)scale(0.1 -0.1)">
       <defs>
        <path d="M 12.40625 8.296875 
L 28.515625 8.296875 
L 28.515625 63.921875 
L 10.984375 60.40625 
L 10.984375 69.390625 
L 28.421875 72.90625 
L 38.28125 72.90625 
L 38.28125 8.296875 
L 54.390625 8.296875 
L 54.390625 0 
L 12.40625 0 
z
" id="DejaVuSans-49"/>
       </defs>
       <use xlink:href="#DejaVuSans-49"/>
       <use x="63.623047" xlink:href="#DejaVuSans-48"/>
       <use x="127.246094" xlink:href="#DejaVuSans-48"/>
      </g>
     </g>
    </g>
    <g id="ytick_4">
     <g id="line2d_32">
      <path clip-path="url(#p66a817781d)" d="M 43.465625 140.892587 
L 400.585625 140.892587 
" style="fill:none;stroke:#ffffff;stroke-linecap:round;"/>
     </g>
     <g id="line2d_33"/>
     <g id="text_29">
      <!-- 150 -->
      <g transform="translate(20.878125 144.691806)scale(0.1 -0.1)">
       <use xlink:href="#DejaVuSans-49"/>
       <use x="63.623047" xlink:href="#DejaVuSans-53"/>
       <use x="127.246094" xlink:href="#DejaVuSans-48"/>
      </g>
     </g>
    </g>
    <g id="ytick_5">
     <g id="line2d_34">
      <path clip-path="url(#p66a817781d)" d="M 43.465625 84.495242 
L 400.585625 84.495242 
" style="fill:none;stroke:#ffffff;stroke-linecap:round;"/>
     </g>
     <g id="line2d_35"/>
     <g id="text_30">
      <!-- 200 -->
      <g transform="translate(20.878125 88.294461)scale(0.1 -0.1)">
       <defs>
        <path d="M 19.1875 8.296875 
L 53.609375 8.296875 
L 53.609375 0 
L 7.328125 0 
L 7.328125 8.296875 
Q 12.9375 14.109375 22.625 23.890625 
Q 32.328125 33.6875 34.8125 36.53125 
Q 39.546875 41.84375 41.421875 45.53125 
Q 43.3125 49.21875 43.3125 52.78125 
Q 43.3125 58.59375 39.234375 62.25 
Q 35.15625 65.921875 28.609375 65.921875 
Q 23.96875 65.921875 18.8125 64.3125 
Q 13.671875 62.703125 7.8125 59.421875 
L 7.8125 69.390625 
Q 13.765625 71.78125 18.9375 73 
Q 24.125 74.21875 28.421875 74.21875 
Q 39.75 74.21875 46.484375 68.546875 
Q 53.21875 62.890625 53.21875 53.421875 
Q 53.21875 48.921875 51.53125 44.890625 
Q 49.859375 40.875 45.40625 35.40625 
Q 44.1875 33.984375 37.640625 27.21875 
Q 31.109375 20.453125 19.1875 8.296875 
z
" id="DejaVuSans-50"/>
       </defs>
       <use xlink:href="#DejaVuSans-50"/>
       <use x="63.623047" xlink:href="#DejaVuSans-48"/>
       <use x="127.246094" xlink:href="#DejaVuSans-48"/>
      </g>
     </g>
    </g>
    <g id="ytick_6">
     <g id="line2d_36"/>
    </g>
    <g id="ytick_7">
     <g id="line2d_37"/>
    </g>
    <g id="ytick_8">
     <g id="line2d_38"/>
    </g>
    <g id="ytick_9">
     <g id="line2d_39"/>
    </g>
    <g id="ytick_10">
     <g id="line2d_40"/>
    </g>
    <g id="ytick_11">
     <g id="line2d_41"/>
    </g>
    <g id="ytick_12">
     <g id="line2d_42"/>
    </g>
    <g id="ytick_13">
     <g id="line2d_43"/>
    </g>
    <g id="ytick_14">
     <g id="line2d_44"/>
    </g>
    <g id="ytick_15">
     <g id="line2d_45"/>
    </g>
    <g id="ytick_16">
     <g id="line2d_46"/>
    </g>
    <g id="ytick_17">
     <g id="line2d_47"/>
    </g>
    <g id="ytick_18">
     <g id="line2d_48"/>
    </g>
    <g id="ytick_19">
     <g id="line2d_49"/>
    </g>
    <g id="ytick_20">
     <g id="line2d_50"/>
    </g>
    <g id="ytick_21">
     <g id="line2d_51"/>
    </g>
    <g id="ytick_22">
     <g id="line2d_52"/>
    </g>
    <g id="ytick_23">
     <g id="line2d_53"/>
    </g>
    <g id="ytick_24">
     <g id="line2d_54"/>
    </g>
    <g id="text_31">
     <!-- Mbits/s -->
     <g transform="translate(14.798437 196.57925)rotate(-90)scale(0.1 -0.1)">
      <defs>
       <path d="M 9.8125 72.90625 
L 24.515625 72.90625 
L 43.109375 23.296875 
L 61.8125 72.90625 
L 76.515625 72.90625 
L 76.515625 0 
L 66.890625 0 
L 66.890625 64.015625 
L 48.09375 14.015625 
L 38.1875 14.015625 
L 19.390625 64.015625 
L 19.390625 0 
L 9.8125 0 
z
" id="DejaVuSans-77"/>
       <path d="M 48.6875 27.296875 
Q 48.6875 37.203125 44.609375 42.84375 
Q 40.53125 48.484375 33.40625 48.484375 
Q 26.265625 48.484375 22.1875 42.84375 
Q 18.109375 37.203125 18.109375 27.296875 
Q 18.109375 17.390625 22.1875 11.75 
Q 26.265625 6.109375 33.40625 6.109375 
Q 40.53125 6.109375 44.609375 11.75 
Q 48.6875 17.390625 48.6875 27.296875 
z
M 18.109375 46.390625 
Q 20.953125 51.265625 25.265625 53.625 
Q 29.59375 56 35.59375 56 
Q 45.5625 56 51.78125 48.09375 
Q 58.015625 40.1875 58.015625 27.296875 
Q 58.015625 14.40625 51.78125 6.484375 
Q 45.5625 -1.421875 35.59375 -1.421875 
Q 29.59375 -1.421875 25.265625 0.953125 
Q 20.953125 3.328125 18.109375 8.203125 
L 18.109375 0 
L 9.078125 0 
L 9.078125 75.984375 
L 18.109375 75.984375 
z
" id="DejaVuSans-98"/>
       <path d="M 18.3125 70.21875 
L 18.3125 54.6875 
L 36.8125 54.6875 
L 36.8125 47.703125 
L 18.3125 47.703125 
L 18.3125 18.015625 
Q 18.3125 11.328125 20.140625 9.421875 
Q 21.96875 7.515625 27.59375 7.515625 
L 36.8125 7.515625 
L 36.8125 0 
L 27.59375 0 
Q 17.1875 0 13.234375 3.875 
Q 9.28125 7.765625 9.28125 18.015625 
L 9.28125 47.703125 
L 2.6875 47.703125 
L 2.6875 54.6875 
L 9.28125 54.6875 
L 9.28125 70.21875 
z
" id="DejaVuSans-116"/>
       <path d="M 44.28125 53.078125 
L 44.28125 44.578125 
Q 40.484375 46.53125 36.375 47.5 
Q 32.28125 48.484375 27.875 48.484375 
Q 21.1875 48.484375 17.84375 46.4375 
Q 14.5 44.390625 14.5 40.28125 
Q 14.5 37.15625 16.890625 35.375 
Q 19.28125 33.59375 26.515625 31.984375 
L 29.59375 31.296875 
Q 39.15625 29.25 43.1875 25.515625 
Q 47.21875 21.78125 47.21875 15.09375 
Q 47.21875 7.46875 41.1875 3.015625 
Q 35.15625 -1.421875 24.609375 -1.421875 
Q 20.21875 -1.421875 15.453125 -0.5625 
Q 10.6875 0.296875 5.421875 2 
L 5.421875 11.28125 
Q 10.40625 8.6875 15.234375 7.390625 
Q 20.0625 6.109375 24.8125 6.109375 
Q 31.15625 6.109375 34.5625 8.28125 
Q 37.984375 10.453125 37.984375 14.40625 
Q 37.984375 18.0625 35.515625 20.015625 
Q 33.0625 21.96875 24.703125 23.78125 
L 21.578125 24.515625 
Q 13.234375 26.265625 9.515625 29.90625 
Q 5.8125 33.546875 5.8125 39.890625 
Q 5.8125 47.609375 11.28125 51.796875 
Q 16.75 56 26.8125 56 
Q 31.78125 56 36.171875 55.265625 
Q 40.578125 54.546875 44.28125 53.078125 
z
" id="DejaVuSans-115"/>
       <path d="M 25.390625 72.90625 
L 33.6875 72.90625 
L 8.296875 -9.28125 
L 0 -9.28125 
z
" id="DejaVuSans-47"/>
      </defs>
      <use xlink:href="#DejaVuSans-77"/>
      <use x="86.279297" xlink:href="#DejaVuSans-98"/>
      <use x="149.755859" xlink:href="#DejaVuSans-105"/>
      <use x="177.539062" xlink:href="#DejaVuSans-116"/>
      <use x="216.748047" xlink:href="#DejaVuSans-115"/>
      <use x="268.847656" xlink:href="#DejaVuSans-47"/>
      <use x="302.539062" xlink:href="#DejaVuSans-115"/>
     </g>
    </g>
   </g>
   <g id="line2d_55">
    <path clip-path="url(#p66a817781d)" d="M 52.393625 251.445482 
L 58.345625 251.445482 
L 58.345625 176.262182 
L 52.393625 176.262182 
L 52.393625 251.445482 
" style="fill:none;stroke:#1b9e77;stroke-linecap:round;"/>
   </g>
   <g id="line2d_56">
    <path clip-path="url(#p66a817781d)" d="M 55.369625 251.445482 
L 55.369625 302.211552 
" style="fill:none;stroke:#1b9e77;stroke-linecap:round;"/>
   </g>
   <g id="line2d_57">
    <path clip-path="url(#p66a817781d)" d="M 55.369625 176.262182 
L 55.369625 77.783958 
" style="fill:none;stroke:#1b9e77;stroke-linecap:round;"/>
   </g>
   <g id="line2d_58">
    <path clip-path="url(#p66a817781d)" d="M 53.881625 302.211552 
L 56.857625 302.211552 
" style="fill:none;stroke:#1b9e77;stroke-linecap:round;"/>
   </g>
   <g id="line2d_59">
    <path clip-path="url(#p66a817781d)" d="M 53.881625 77.783958 
L 56.857625 77.783958 
" style="fill:none;stroke:#1b9e77;stroke-linecap:round;"/>
   </g>
   <g id="line2d_60">
    <defs>
     <path d="M -3 0 
L 3 0 
M 0 3 
L 0 -3 
" id="m6e64a751b5" style="stroke:#1b9e77;"/>
    </defs>
    <g clip-path="url(#p66a817781d)">
     <use style="fill:#0000ff;stroke:#1b9e77;" x="55.369625" xlink:href="#m6e64a751b5" y="62.917618"/>
    </g>
   </g>
   <g id="line2d_61">
    <path clip-path="url(#p66a817781d)" d="M 64.297625 266.715063 
L 70.249625 266.715063 
L 70.249625 183.506421 
L 64.297625 183.506421 
L 64.297625 266.715063 
" style="fill:none;stroke:#d95f02;stroke-linecap:round;"/>
   </g>
   <g id="line2d_62">
    <path clip-path="url(#p66a817781d)" d="M 67.273625 266.715063 
L 67.273625 298.511886 
" style="fill:none;stroke:#d95f02;stroke-linecap:round;"/>
   </g>
   <g id="line2d_63">
    <path clip-path="url(#p66a817781d)" d="M 67.273625 183.506421 
L 67.273625 61.248256 
" style="fill:none;stroke:#d95f02;stroke-linecap:round;"/>
   </g>
   <g id="line2d_64">
    <path clip-path="url(#p66a817781d)" d="M 65.785625 298.511886 
L 68.761625 298.511886 
" style="fill:none;stroke:#d95f02;stroke-linecap:round;"/>
   </g>
   <g id="line2d_65">
    <path clip-path="url(#p66a817781d)" d="M 65.785625 61.248256 
L 68.761625 61.248256 
" style="fill:none;stroke:#d95f02;stroke-linecap:round;"/>
   </g>
   <g id="line2d_66"/>
   <g id="line2d_67">
    <path clip-path="url(#p66a817781d)" d="M 76.201625 276.76789 
L 82.153625 276.76789 
L 82.153625 214.09916 
L 76.201625 214.09916 
L 76.201625 276.76789 
" style="fill:none;stroke:#7570b3;stroke-linecap:round;"/>
   </g>
   <g id="line2d_68">
    <path clip-path="url(#p66a817781d)" d="M 79.177625 276.76789 
L 79.177625 302.008522 
" style="fill:none;stroke:#7570b3;stroke-linecap:round;"/>
   </g>
   <g id="line2d_69">
    <path clip-path="url(#p66a817781d)" d="M 79.177625 214.09916 
L 79.177625 143.024407 
" style="fill:none;stroke:#7570b3;stroke-linecap:round;"/>
   </g>
   <g id="line2d_70">
    <path clip-path="url(#p66a817781d)" d="M 77.689625 302.008522 
L 80.665625 302.008522 
" style="fill:none;stroke:#7570b3;stroke-linecap:round;"/>
   </g>
   <g id="line2d_71">
    <path clip-path="url(#p66a817781d)" d="M 77.689625 143.024407 
L 80.665625 143.024407 
" style="fill:none;stroke:#7570b3;stroke-linecap:round;"/>
   </g>
   <g id="line2d_72"/>
   <g id="line2d_73">
    <path clip-path="url(#p66a817781d)" d="M 88.105625 245.436345 
L 94.057625 245.436345 
L 94.057625 170.7719 
L 88.105625 170.7719 
L 88.105625 245.436345 
" style="fill:none;stroke:#e7298a;stroke-linecap:round;"/>
   </g>
   <g id="line2d_74">
    <path clip-path="url(#p66a817781d)" d="M 91.081625 245.436345 
L 91.081625 286.420296 
" style="fill:none;stroke:#e7298a;stroke-linecap:round;"/>
   </g>
   <g id="line2d_75">
    <path clip-path="url(#p66a817781d)" d="M 91.081625 170.7719 
L 91.081625 98.481783 
" style="fill:none;stroke:#e7298a;stroke-linecap:round;"/>
   </g>
   <g id="line2d_76">
    <path clip-path="url(#p66a817781d)" d="M 89.593625 286.420296 
L 92.569625 286.420296 
" style="fill:none;stroke:#e7298a;stroke-linecap:round;"/>
   </g>
   <g id="line2d_77">
    <path clip-path="url(#p66a817781d)" d="M 89.593625 98.481783 
L 92.569625 98.481783 
" style="fill:none;stroke:#e7298a;stroke-linecap:round;"/>
   </g>
   <g id="line2d_78"/>
   <g id="line2d_79">
    <path clip-path="url(#p66a817781d)" d="M 100.009625 298.686718 
L 105.961625 298.686718 
L 105.961625 253.247377 
L 100.009625 253.247377 
L 100.009625 298.686718 
" style="fill:none;stroke:#66a61e;stroke-linecap:round;"/>
   </g>
   <g id="line2d_80">
    <path clip-path="url(#p66a817781d)" d="M 102.985625 298.686718 
L 102.985625 306.644384 
" style="fill:none;stroke:#66a61e;stroke-linecap:round;"/>
   </g>
   <g id="line2d_81">
    <path clip-path="url(#p66a817781d)" d="M 102.985625 253.247377 
L 102.985625 185.63824 
" style="fill:none;stroke:#66a61e;stroke-linecap:round;"/>
   </g>
   <g id="line2d_82">
    <path clip-path="url(#p66a817781d)" d="M 101.497625 306.644384 
L 104.473625 306.644384 
" style="fill:none;stroke:#66a61e;stroke-linecap:round;"/>
   </g>
   <g id="line2d_83">
    <path clip-path="url(#p66a817781d)" d="M 101.497625 185.63824 
L 104.473625 185.63824 
" style="fill:none;stroke:#66a61e;stroke-linecap:round;"/>
   </g>
   <g id="line2d_84">
    <defs>
     <path d="M -3 0 
L 3 0 
M 0 3 
L 0 -3 
" id="mfce06c9e92" style="stroke:#66a61e;"/>
    </defs>
    <g clip-path="url(#p66a817781d)">
     <use style="fill:#0000ff;stroke:#66a61e;" x="102.985625" xlink:href="#mfce06c9e92" y="161.364823"/>
     <use style="fill:#0000ff;stroke:#66a61e;" x="102.985625" xlink:href="#mfce06c9e92" y="167.624928"/>
     <use style="fill:#0000ff;stroke:#66a61e;" x="102.985625" xlink:href="#mfce06c9e92" y="172.982676"/>
    </g>
   </g>
   <g id="line2d_85">
    <path clip-path="url(#p66a817781d)" d="M 114.889625 311.904 
L 114.889625 45.792 
" style="fill:none;stroke:#000000;stroke-dasharray:0.5,0.825;stroke-dashoffset:0;stroke-width:0.5;"/>
   </g>
   <g id="line2d_86">
    <path clip-path="url(#p66a817781d)" d="M 123.817625 298.410371 
L 129.769625 298.410371 
L 129.769625 287.198579 
L 123.817625 287.198579 
L 123.817625 298.410371 
" style="fill:none;stroke:#1b9e77;stroke-linecap:round;"/>
   </g>
   <g id="line2d_87">
    <path clip-path="url(#p66a817781d)" d="M 126.793625 298.410371 
L 126.793625 308.370142 
" style="fill:none;stroke:#1b9e77;stroke-linecap:round;"/>
   </g>
   <g id="line2d_88">
    <path clip-path="url(#p66a817781d)" d="M 126.793625 287.198579 
L 126.793625 272.230724 
" style="fill:none;stroke:#1b9e77;stroke-linecap:round;"/>
   </g>
   <g id="line2d_89">
    <path clip-path="url(#p66a817781d)" d="M 125.305625 308.370142 
L 128.281625 308.370142 
" style="fill:none;stroke:#1b9e77;stroke-linecap:round;"/>
   </g>
   <g id="line2d_90">
    <path clip-path="url(#p66a817781d)" d="M 125.305625 272.230724 
L 128.281625 272.230724 
" style="fill:none;stroke:#1b9e77;stroke-linecap:round;"/>
   </g>
   <g id="line2d_91">
    <g clip-path="url(#p66a817781d)">
     <use style="fill:#0000ff;stroke:#1b9e77;" x="126.793625" xlink:href="#m6e64a751b5" y="180.957261"/>
     <use style="fill:#0000ff;stroke:#1b9e77;" x="126.793625" xlink:href="#m6e64a751b5" y="263.207149"/>
     <use style="fill:#0000ff;stroke:#1b9e77;" x="126.793625" xlink:href="#m6e64a751b5" y="256.901925"/>
     <use style="fill:#0000ff;stroke:#1b9e77;" x="126.793625" xlink:href="#m6e64a751b5" y="248.870943"/>
     <use style="fill:#0000ff;stroke:#1b9e77;" x="126.793625" xlink:href="#m6e64a751b5" y="253.123303"/>
    </g>
   </g>
   <g id="line2d_92">
    <path clip-path="url(#p66a817781d)" d="M 135.721625 302.47662 
L 141.673625 302.47662 
L 141.673625 294.513315 
L 135.721625 294.513315 
L 135.721625 302.47662 
" style="fill:none;stroke:#d95f02;stroke-linecap:round;"/>
   </g>
   <g id="line2d_93">
    <path clip-path="url(#p66a817781d)" d="M 138.697625 302.47662 
L 138.697625 308.020479 
" style="fill:none;stroke:#d95f02;stroke-linecap:round;"/>
   </g>
   <g id="line2d_94">
    <path clip-path="url(#p66a817781d)" d="M 138.697625 294.513315 
L 138.697625 287.277535 
" style="fill:none;stroke:#d95f02;stroke-linecap:round;"/>
   </g>
   <g id="line2d_95">
    <path clip-path="url(#p66a817781d)" d="M 137.209625 308.020479 
L 140.185625 308.020479 
" style="fill:none;stroke:#d95f02;stroke-linecap:round;"/>
   </g>
   <g id="line2d_96">
    <path clip-path="url(#p66a817781d)" d="M 137.209625 287.277535 
L 140.185625 287.277535 
" style="fill:none;stroke:#d95f02;stroke-linecap:round;"/>
   </g>
   <g id="line2d_97">
    <defs>
     <path d="M -3 0 
L 3 0 
M 0 3 
L 0 -3 
" id="m905562ccb2" style="stroke:#d95f02;"/>
    </defs>
    <g clip-path="url(#p66a817781d)">
     <use style="fill:#0000ff;stroke:#d95f02;" x="138.697625" xlink:href="#m905562ccb2" y="252.649566"/>
     <use style="fill:#0000ff;stroke:#d95f02;" x="138.697625" xlink:href="#m905562ccb2" y="273.764732"/>
    </g>
   </g>
   <g id="line2d_98">
    <path clip-path="url(#p66a817781d)" d="M 147.625625 303.821696 
L 153.577625 303.821696 
L 153.577625 296.577458 
L 147.625625 296.577458 
L 147.625625 303.821696 
" style="fill:none;stroke:#7570b3;stroke-linecap:round;"/>
   </g>
   <g id="line2d_99">
    <path clip-path="url(#p66a817781d)" d="M 150.601625 303.821696 
L 150.601625 309.092028 
" style="fill:none;stroke:#7570b3;stroke-linecap:round;"/>
   </g>
   <g id="line2d_100">
    <path clip-path="url(#p66a817781d)" d="M 150.601625 296.577458 
L 150.601625 293.402287 
" style="fill:none;stroke:#7570b3;stroke-linecap:round;"/>
   </g>
   <g id="line2d_101">
    <path clip-path="url(#p66a817781d)" d="M 149.113625 309.092028 
L 152.089625 309.092028 
" style="fill:none;stroke:#7570b3;stroke-linecap:round;"/>
   </g>
   <g id="line2d_102">
    <path clip-path="url(#p66a817781d)" d="M 149.113625 293.402287 
L 152.089625 293.402287 
" style="fill:none;stroke:#7570b3;stroke-linecap:round;"/>
   </g>
   <g id="line2d_103">
    <defs>
     <path d="M -3 0 
L 3 0 
M 0 3 
L 0 -3 
" id="mcc6022bd9a" style="stroke:#7570b3;"/>
    </defs>
    <g clip-path="url(#p66a817781d)">
     <use style="fill:#0000ff;stroke:#7570b3;" x="150.601625" xlink:href="#mcc6022bd9a" y="232.831539"/>
     <use style="fill:#0000ff;stroke:#7570b3;" x="150.601625" xlink:href="#mcc6022bd9a" y="256.337952"/>
     <use style="fill:#0000ff;stroke:#7570b3;" x="150.601625" xlink:href="#mcc6022bd9a" y="282.472482"/>
    </g>
   </g>
   <g id="line2d_104">
    <path clip-path="url(#p66a817781d)" d="M 159.529625 287.804851 
L 165.481625 287.804851 
L 165.481625 256.696075 
L 159.529625 256.696075 
L 159.529625 287.804851 
" style="fill:none;stroke:#e7298a;stroke-linecap:round;"/>
   </g>
   <g id="line2d_105">
    <path clip-path="url(#p66a817781d)" d="M 162.505625 287.804851 
L 162.505625 303.001115 
" style="fill:none;stroke:#e7298a;stroke-linecap:round;"/>
   </g>
   <g id="line2d_106">
    <path clip-path="url(#p66a817781d)" d="M 162.505625 256.696075 
L 162.505625 217.333548 
" style="fill:none;stroke:#e7298a;stroke-linecap:round;"/>
   </g>
   <g id="line2d_107">
    <path clip-path="url(#p66a817781d)" d="M 161.017625 303.001115 
L 163.993625 303.001115 
" style="fill:none;stroke:#e7298a;stroke-linecap:round;"/>
   </g>
   <g id="line2d_108">
    <path clip-path="url(#p66a817781d)" d="M 161.017625 217.333548 
L 163.993625 217.333548 
" style="fill:none;stroke:#e7298a;stroke-linecap:round;"/>
   </g>
   <g id="line2d_109">
    <defs>
     <path d="M -3 0 
L 3 0 
M 0 3 
L 0 -3 
" id="mbd26a13b53" style="stroke:#e7298a;"/>
    </defs>
    <g clip-path="url(#p66a817781d)">
     <use style="fill:#0000ff;stroke:#e7298a;" x="162.505625" xlink:href="#mbd26a13b53" y="208.941623"/>
     <use style="fill:#0000ff;stroke:#e7298a;" x="162.505625" xlink:href="#mbd26a13b53" y="187.645986"/>
     <use style="fill:#0000ff;stroke:#e7298a;" x="162.505625" xlink:href="#mbd26a13b53" y="190.037233"/>
     <use style="fill:#0000ff;stroke:#e7298a;" x="162.505625" xlink:href="#mbd26a13b53" y="194.966361"/>
     <use style="fill:#0000ff;stroke:#e7298a;" x="162.505625" xlink:href="#mbd26a13b53" y="205.851049"/>
     <use style="fill:#0000ff;stroke:#e7298a;" x="162.505625" xlink:href="#mbd26a13b53" y="208.479165"/>
     <use style="fill:#0000ff;stroke:#e7298a;" x="162.505625" xlink:href="#mbd26a13b53" y="48.400941"/>
    </g>
   </g>
   <g id="line2d_110">
    <path clip-path="url(#p66a817781d)" d="M 171.433625 304.693035 
L 177.385625 304.693035 
L 177.385625 292.533768 
L 171.433625 292.533768 
L 171.433625 304.693035 
" style="fill:none;stroke:#66a61e;stroke-linecap:round;"/>
   </g>
   <g id="line2d_111">
    <path clip-path="url(#p66a817781d)" d="M 174.409625 304.693035 
L 174.409625 309.295059 
" style="fill:none;stroke:#66a61e;stroke-linecap:round;"/>
   </g>
   <g id="line2d_112">
    <path clip-path="url(#p66a817781d)" d="M 174.409625 292.533768 
L 174.409625 287.875347 
" style="fill:none;stroke:#66a61e;stroke-linecap:round;"/>
   </g>
   <g id="line2d_113">
    <path clip-path="url(#p66a817781d)" d="M 172.921625 309.295059 
L 175.897625 309.295059 
" style="fill:none;stroke:#66a61e;stroke-linecap:round;"/>
   </g>
   <g id="line2d_114">
    <path clip-path="url(#p66a817781d)" d="M 172.921625 287.875347 
L 175.897625 287.875347 
" style="fill:none;stroke:#66a61e;stroke-linecap:round;"/>
   </g>
   <g id="line2d_115">
    <g clip-path="url(#p66a817781d)">
     <use style="fill:#0000ff;stroke:#66a61e;" x="174.409625" xlink:href="#mfce06c9e92" y="262.338629"/>
     <use style="fill:#0000ff;stroke:#66a61e;" x="174.409625" xlink:href="#mfce06c9e92" y="239.712015"/>
    </g>
   </g>
   <g id="line2d_116">
    <path clip-path="url(#p66a817781d)" d="M 186.313625 311.904 
L 186.313625 45.792 
" style="fill:none;stroke:#000000;stroke-dasharray:0.5,0.825;stroke-dashoffset:0;stroke-width:0.5;"/>
   </g>
   <g id="line2d_117">
    <path clip-path="url(#p66a817781d)" d="M 195.241625 278.203203 
L 201.193625 278.203203 
L 201.193625 258.404915 
L 195.241625 258.404915 
L 195.241625 278.203203 
" style="fill:none;stroke:#1b9e77;stroke-linecap:round;"/>
   </g>
   <g id="line2d_118">
    <path clip-path="url(#p66a817781d)" d="M 198.217625 278.203203 
L 198.217625 289.962049 
" style="fill:none;stroke:#1b9e77;stroke-linecap:round;"/>
   </g>
   <g id="line2d_119">
    <path clip-path="url(#p66a817781d)" d="M 198.217625 258.404915 
L 198.217625 229.537934 
" style="fill:none;stroke:#1b9e77;stroke-linecap:round;"/>
   </g>
   <g id="line2d_120">
    <path clip-path="url(#p66a817781d)" d="M 196.729625 289.962049 
L 199.705625 289.962049 
" style="fill:none;stroke:#1b9e77;stroke-linecap:round;"/>
   </g>
   <g id="line2d_121">
    <path clip-path="url(#p66a817781d)" d="M 196.729625 229.537934 
L 199.705625 229.537934 
" style="fill:none;stroke:#1b9e77;stroke-linecap:round;"/>
   </g>
   <g id="line2d_122">
    <g clip-path="url(#p66a817781d)">
     <use style="fill:#0000ff;stroke:#1b9e77;" x="198.217625" xlink:href="#m6e64a751b5" y="226.672949"/>
     <use style="fill:#0000ff;stroke:#1b9e77;" x="198.217625" xlink:href="#m6e64a751b5" y="212.911996"/>
     <use style="fill:#0000ff;stroke:#1b9e77;" x="198.217625" xlink:href="#m6e64a751b5" y="218.190788"/>
     <use style="fill:#0000ff;stroke:#1b9e77;" x="198.217625" xlink:href="#m6e64a751b5" y="224.653924"/>
     <use style="fill:#0000ff;stroke:#1b9e77;" x="198.217625" xlink:href="#m6e64a751b5" y="217.356107"/>
     <use style="fill:#0000ff;stroke:#1b9e77;" x="198.217625" xlink:href="#m6e64a751b5" y="216.65678"/>
    </g>
   </g>
   <g id="line2d_123">
    <path clip-path="url(#p66a817781d)" d="M 207.145625 272.95261 
L 213.097625 272.95261 
L 213.097625 193.240602 
L 207.145625 193.240602 
L 207.145625 272.95261 
" style="fill:none;stroke:#d95f02;stroke-linecap:round;"/>
   </g>
   <g id="line2d_124">
    <path clip-path="url(#p66a817781d)" d="M 210.121625 272.95261 
L 210.121625 298.884109 
" style="fill:none;stroke:#d95f02;stroke-linecap:round;"/>
   </g>
   <g id="line2d_125">
    <path clip-path="url(#p66a817781d)" d="M 210.121625 193.240602 
L 210.121625 103.410911 
" style="fill:none;stroke:#d95f02;stroke-linecap:round;"/>
   </g>
   <g id="line2d_126">
    <path clip-path="url(#p66a817781d)" d="M 208.633625 298.884109 
L 211.609625 298.884109 
" style="fill:none;stroke:#d95f02;stroke-linecap:round;"/>
   </g>
   <g id="line2d_127">
    <path clip-path="url(#p66a817781d)" d="M 208.633625 103.410911 
L 211.609625 103.410911 
" style="fill:none;stroke:#d95f02;stroke-linecap:round;"/>
   </g>
   <g id="line2d_128"/>
   <g id="line2d_129">
    <path clip-path="url(#p66a817781d)" d="M 219.049625 280.244786 
L 225.001625 280.244786 
L 225.001625 244.020772 
L 219.049625 244.020772 
L 219.049625 280.244786 
" style="fill:none;stroke:#7570b3;stroke-linecap:round;"/>
   </g>
   <g id="line2d_130">
    <path clip-path="url(#p66a817781d)" d="M 222.025625 280.244786 
L 222.025625 297.395219 
" style="fill:none;stroke:#7570b3;stroke-linecap:round;"/>
   </g>
   <g id="line2d_131">
    <path clip-path="url(#p66a817781d)" d="M 222.025625 244.020772 
L 222.025625 190.296661 
" style="fill:none;stroke:#7570b3;stroke-linecap:round;"/>
   </g>
   <g id="line2d_132">
    <path clip-path="url(#p66a817781d)" d="M 220.537625 297.395219 
L 223.513625 297.395219 
" style="fill:none;stroke:#7570b3;stroke-linecap:round;"/>
   </g>
   <g id="line2d_133">
    <path clip-path="url(#p66a817781d)" d="M 220.537625 190.296661 
L 223.513625 190.296661 
" style="fill:none;stroke:#7570b3;stroke-linecap:round;"/>
   </g>
   <g id="line2d_134">
    <g clip-path="url(#p66a817781d)">
     <use style="fill:#0000ff;stroke:#7570b3;" x="222.025625" xlink:href="#mcc6022bd9a" y="185.243459"/>
     <use style="fill:#0000ff;stroke:#7570b3;" x="222.025625" xlink:href="#mcc6022bd9a" y="185.412651"/>
     <use style="fill:#0000ff;stroke:#7570b3;" x="222.025625" xlink:href="#mcc6022bd9a" y="174.573081"/>
     <use style="fill:#0000ff;stroke:#7570b3;" x="222.025625" xlink:href="#mcc6022bd9a" y="169.023583"/>
     <use style="fill:#0000ff;stroke:#7570b3;" x="222.025625" xlink:href="#mcc6022bd9a" y="184.521573"/>
     <use style="fill:#0000ff;stroke:#7570b3;" x="222.025625" xlink:href="#mcc6022bd9a" y="184.047835"/>
     <use style="fill:#0000ff;stroke:#7570b3;" x="222.025625" xlink:href="#mcc6022bd9a" y="159.52627"/>
     <use style="fill:#0000ff;stroke:#7570b3;" x="222.025625" xlink:href="#mcc6022bd9a" y="158.285528"/>
     <use style="fill:#0000ff;stroke:#7570b3;" x="222.025625" xlink:href="#mcc6022bd9a" y="179.242781"/>
     <use style="fill:#0000ff;stroke:#7570b3;" x="222.025625" xlink:href="#mcc6022bd9a" y="182.322076"/>
     <use style="fill:#0000ff;stroke:#7570b3;" x="222.025625" xlink:href="#mcc6022bd9a" y="167.410618"/>
     <use style="fill:#0000ff;stroke:#7570b3;" x="222.025625" xlink:href="#mcc6022bd9a" y="179.739078"/>
     <use style="fill:#0000ff;stroke:#7570b3;" x="222.025625" xlink:href="#mcc6022bd9a" y="142.900332"/>
     <use style="fill:#0000ff;stroke:#7570b3;" x="222.025625" xlink:href="#mcc6022bd9a" y="153.863976"/>
     <use style="fill:#0000ff;stroke:#7570b3;" x="222.025625" xlink:href="#mcc6022bd9a" y="115.243074"/>
     <use style="fill:#0000ff;stroke:#7570b3;" x="222.025625" xlink:href="#mcc6022bd9a" y="162.6958"/>
     <use style="fill:#0000ff;stroke:#7570b3;" x="222.025625" xlink:href="#mcc6022bd9a" y="159.255562"/>
     <use style="fill:#0000ff;stroke:#7570b3;" x="222.025625" xlink:href="#mcc6022bd9a" y="170.433516"/>
    </g>
   </g>
   <g id="line2d_135">
    <path clip-path="url(#p66a817781d)" d="M 230.953625 283.154889 
L 236.905625 283.154889 
L 236.905625 264.388673 
L 230.953625 264.388673 
L 230.953625 283.154889 
" style="fill:none;stroke:#e7298a;stroke-linecap:round;"/>
   </g>
   <g id="line2d_136">
    <path clip-path="url(#p66a817781d)" d="M 233.929625 283.154889 
L 233.929625 294.304645 
" style="fill:none;stroke:#e7298a;stroke-linecap:round;"/>
   </g>
   <g id="line2d_137">
    <path clip-path="url(#p66a817781d)" d="M 233.929625 264.388673 
L 233.929625 236.587602 
" style="fill:none;stroke:#e7298a;stroke-linecap:round;"/>
   </g>
   <g id="line2d_138">
    <path clip-path="url(#p66a817781d)" d="M 232.441625 294.304645 
L 235.417625 294.304645 
" style="fill:none;stroke:#e7298a;stroke-linecap:round;"/>
   </g>
   <g id="line2d_139">
    <path clip-path="url(#p66a817781d)" d="M 232.441625 236.587602 
L 235.417625 236.587602 
" style="fill:none;stroke:#e7298a;stroke-linecap:round;"/>
   </g>
   <g id="line2d_140">
    <g clip-path="url(#p66a817781d)">
     <use style="fill:#0000ff;stroke:#e7298a;" x="233.929625" xlink:href="#mbd26a13b53" y="211.220076"/>
     <use style="fill:#0000ff;stroke:#e7298a;" x="233.929625" xlink:href="#mbd26a13b53" y="223.954596"/>
     <use style="fill:#0000ff;stroke:#e7298a;" x="233.929625" xlink:href="#mbd26a13b53" y="233.85797"/>
     <use style="fill:#0000ff;stroke:#e7298a;" x="233.929625" xlink:href="#mbd26a13b53" y="234.354267"/>
     <use style="fill:#0000ff;stroke:#e7298a;" x="233.929625" xlink:href="#mbd26a13b53" y="234.433223"/>
     <use style="fill:#0000ff;stroke:#e7298a;" x="233.929625" xlink:href="#mbd26a13b53" y="233.903088"/>
    </g>
   </g>
   <g id="line2d_141">
    <path clip-path="url(#p66a817781d)" d="M 242.857625 284.542264 
L 248.809625 284.542264 
L 248.809625 247.432811 
L 242.857625 247.432811 
L 242.857625 284.542264 
" style="fill:none;stroke:#66a61e;stroke-linecap:round;"/>
   </g>
   <g id="line2d_142">
    <path clip-path="url(#p66a817781d)" d="M 245.833625 284.542264 
L 245.833625 306.148087 
" style="fill:none;stroke:#66a61e;stroke-linecap:round;"/>
   </g>
   <g id="line2d_143">
    <path clip-path="url(#p66a817781d)" d="M 245.833625 247.432811 
L 245.833625 193.297 
" style="fill:none;stroke:#66a61e;stroke-linecap:round;"/>
   </g>
   <g id="line2d_144">
    <path clip-path="url(#p66a817781d)" d="M 244.345625 306.148087 
L 247.321625 306.148087 
" style="fill:none;stroke:#66a61e;stroke-linecap:round;"/>
   </g>
   <g id="line2d_145">
    <path clip-path="url(#p66a817781d)" d="M 244.345625 193.297 
L 247.321625 193.297 
" style="fill:none;stroke:#66a61e;stroke-linecap:round;"/>
   </g>
   <g id="line2d_146">
    <g clip-path="url(#p66a817781d)">
     <use style="fill:#0000ff;stroke:#66a61e;" x="245.833625" xlink:href="#mfce06c9e92" y="182.773255"/>
     <use style="fill:#0000ff;stroke:#66a61e;" x="245.833625" xlink:href="#mfce06c9e92" y="176.874093"/>
    </g>
   </g>
   <g id="line2d_147">
    <path clip-path="url(#p66a817781d)" d="M 257.737625 311.904 
L 257.737625 45.792 
" style="fill:none;stroke:#000000;stroke-dasharray:0.5,0.825;stroke-dashoffset:0;stroke-width:0.5;"/>
   </g>
   <g id="line2d_148">
    <path clip-path="url(#p66a817781d)" d="M 266.665625 278.925089 
L 272.617625 278.925089 
L 272.617625 261.283999 
L 266.665625 261.283999 
L 266.665625 278.925089 
" style="fill:none;stroke:#1b9e77;stroke-linecap:round;"/>
   </g>
   <g id="line2d_149">
    <path clip-path="url(#p66a817781d)" d="M 269.641625 278.925089 
L 269.641625 293.853466 
" style="fill:none;stroke:#1b9e77;stroke-linecap:round;"/>
   </g>
   <g id="line2d_150">
    <path clip-path="url(#p66a817781d)" d="M 269.641625 261.283999 
L 269.641625 235.256624 
" style="fill:none;stroke:#1b9e77;stroke-linecap:round;"/>
   </g>
   <g id="line2d_151">
    <path clip-path="url(#p66a817781d)" d="M 268.153625 293.853466 
L 271.129625 293.853466 
" style="fill:none;stroke:#1b9e77;stroke-linecap:round;"/>
   </g>
   <g id="line2d_152">
    <path clip-path="url(#p66a817781d)" d="M 268.153625 235.256624 
L 271.129625 235.256624 
" style="fill:none;stroke:#1b9e77;stroke-linecap:round;"/>
   </g>
   <g id="line2d_153">
    <g clip-path="url(#p66a817781d)">
     <use style="fill:#0000ff;stroke:#1b9e77;" x="269.641625" xlink:href="#m6e64a751b5" y="202.704077"/>
     <use style="fill:#0000ff;stroke:#1b9e77;" x="269.641625" xlink:href="#m6e64a751b5" y="191.932184"/>
     <use style="fill:#0000ff;stroke:#1b9e77;" x="269.641625" xlink:href="#m6e64a751b5" y="206.629332"/>
     <use style="fill:#0000ff;stroke:#1b9e77;" x="269.641625" xlink:href="#m6e64a751b5" y="234.320428"/>
     <use style="fill:#0000ff;stroke:#1b9e77;" x="269.641625" xlink:href="#m6e64a751b5" y="221.608467"/>
     <use style="fill:#0000ff;stroke:#1b9e77;" x="269.641625" xlink:href="#m6e64a751b5" y="207.373777"/>
     <use style="fill:#0000ff;stroke:#1b9e77;" x="269.641625" xlink:href="#m6e64a751b5" y="214.254253"/>
     <use style="fill:#0000ff;stroke:#1b9e77;" x="269.641625" xlink:href="#m6e64a751b5" y="223.311667"/>
     <use style="fill:#0000ff;stroke:#1b9e77;" x="269.641625" xlink:href="#m6e64a751b5" y="211.524622"/>
     <use style="fill:#0000ff;stroke:#1b9e77;" x="269.641625" xlink:href="#m6e64a751b5" y="227.203084"/>
     <use style="fill:#0000ff;stroke:#1b9e77;" x="269.641625" xlink:href="#m6e64a751b5" y="221.698703"/>
     <use style="fill:#0000ff;stroke:#1b9e77;" x="269.641625" xlink:href="#m6e64a751b5" y="230.327496"/>
     <use style="fill:#0000ff;stroke:#1b9e77;" x="269.641625" xlink:href="#m6e64a751b5" y="224.744159"/>
     <use style="fill:#0000ff;stroke:#1b9e77;" x="269.641625" xlink:href="#m6e64a751b5" y="223.841802"/>
    </g>
   </g>
   <g id="line2d_154">
    <path clip-path="url(#p66a817781d)" d="M 278.569625 274.537375 
L 284.521625 274.537375 
L 284.521625 235.245345 
L 278.569625 235.245345 
L 278.569625 274.537375 
" style="fill:none;stroke:#d95f02;stroke-linecap:round;"/>
   </g>
   <g id="line2d_155">
    <path clip-path="url(#p66a817781d)" d="M 281.545625 274.537375 
L 281.545625 294.361042 
" style="fill:none;stroke:#d95f02;stroke-linecap:round;"/>
   </g>
   <g id="line2d_156">
    <path clip-path="url(#p66a817781d)" d="M 281.545625 235.245345 
L 281.545625 176.310119 
" style="fill:none;stroke:#d95f02;stroke-linecap:round;"/>
   </g>
   <g id="line2d_157">
    <path clip-path="url(#p66a817781d)" d="M 280.057625 294.361042 
L 283.033625 294.361042 
" style="fill:none;stroke:#d95f02;stroke-linecap:round;"/>
   </g>
   <g id="line2d_158">
    <path clip-path="url(#p66a817781d)" d="M 280.057625 176.310119 
L 283.033625 176.310119 
" style="fill:none;stroke:#d95f02;stroke-linecap:round;"/>
   </g>
   <g id="line2d_159"/>
   <g id="line2d_160">
    <path clip-path="url(#p66a817781d)" d="M 290.473625 276.959641 
L 296.425625 276.959641 
L 296.425625 215.822099 
L 290.473625 215.822099 
L 290.473625 276.959641 
" style="fill:none;stroke:#7570b3;stroke-linecap:round;"/>
   </g>
   <g id="line2d_161">
    <path clip-path="url(#p66a817781d)" d="M 293.449625 276.959641 
L 293.449625 302.245391 
" style="fill:none;stroke:#7570b3;stroke-linecap:round;"/>
   </g>
   <g id="line2d_162">
    <path clip-path="url(#p66a817781d)" d="M 293.449625 215.822099 
L 293.449625 171.854729 
" style="fill:none;stroke:#7570b3;stroke-linecap:round;"/>
   </g>
   <g id="line2d_163">
    <path clip-path="url(#p66a817781d)" d="M 291.961625 302.245391 
L 294.937625 302.245391 
" style="fill:none;stroke:#7570b3;stroke-linecap:round;"/>
   </g>
   <g id="line2d_164">
    <path clip-path="url(#p66a817781d)" d="M 291.961625 171.854729 
L 294.937625 171.854729 
" style="fill:none;stroke:#7570b3;stroke-linecap:round;"/>
   </g>
   <g id="line2d_165"/>
   <g id="line2d_166">
    <path clip-path="url(#p66a817781d)" d="M 302.377625 282.057961 
L 308.329625 282.057961 
L 308.329625 262.617796 
L 302.377625 262.617796 
L 302.377625 282.057961 
" style="fill:none;stroke:#e7298a;stroke-linecap:round;"/>
   </g>
   <g id="line2d_167">
    <path clip-path="url(#p66a817781d)" d="M 305.353625 282.057961 
L 305.353625 294.135453 
" style="fill:none;stroke:#e7298a;stroke-linecap:round;"/>
   </g>
   <g id="line2d_168">
    <path clip-path="url(#p66a817781d)" d="M 305.353625 262.617796 
L 305.353625 235.13255 
" style="fill:none;stroke:#e7298a;stroke-linecap:round;"/>
   </g>
   <g id="line2d_169">
    <path clip-path="url(#p66a817781d)" d="M 303.865625 294.135453 
L 306.841625 294.135453 
" style="fill:none;stroke:#e7298a;stroke-linecap:round;"/>
   </g>
   <g id="line2d_170">
    <path clip-path="url(#p66a817781d)" d="M 303.865625 235.13255 
L 306.841625 235.13255 
" style="fill:none;stroke:#e7298a;stroke-linecap:round;"/>
   </g>
   <g id="line2d_171">
    <g clip-path="url(#p66a817781d)">
     <use style="fill:#0000ff;stroke:#e7298a;" x="305.353625" xlink:href="#mbd26a13b53" y="202.907107"/>
     <use style="fill:#0000ff;stroke:#e7298a;" x="305.353625" xlink:href="#mbd26a13b53" y="229.549213"/>
     <use style="fill:#0000ff;stroke:#e7298a;" x="305.353625" xlink:href="#mbd26a13b53" y="217.107959"/>
     <use style="fill:#0000ff;stroke:#e7298a;" x="305.353625" xlink:href="#mbd26a13b53" y="227.834734"/>
     <use style="fill:#0000ff;stroke:#e7298a;" x="305.353625" xlink:href="#mbd26a13b53" y="221.371598"/>
     <use style="fill:#0000ff;stroke:#e7298a;" x="305.353625" xlink:href="#mbd26a13b53" y="222.792811"/>
     <use style="fill:#0000ff;stroke:#e7298a;" x="305.353625" xlink:href="#mbd26a13b53" y="227.778336"/>
     <use style="fill:#0000ff;stroke:#e7298a;" x="305.353625" xlink:href="#mbd26a13b53" y="231.850225"/>
     <use style="fill:#0000ff;stroke:#e7298a;" x="305.353625" xlink:href="#mbd26a13b53" y="226.244329"/>
     <use style="fill:#0000ff;stroke:#e7298a;" x="305.353625" xlink:href="#mbd26a13b53" y="225.736753"/>
     <use style="fill:#0000ff;stroke:#e7298a;" x="305.353625" xlink:href="#mbd26a13b53" y="213.329337"/>
     <use style="fill:#0000ff;stroke:#e7298a;" x="305.353625" xlink:href="#mbd26a13b53" y="221.721262"/>
    </g>
   </g>
   <g id="line2d_172">
    <path clip-path="url(#p66a817781d)" d="M 314.281625 272.749579 
L 320.233625 272.749579 
L 320.233625 231.297531 
L 314.281625 231.297531 
L 314.281625 272.749579 
" style="fill:none;stroke:#66a61e;stroke-linecap:round;"/>
   </g>
   <g id="line2d_173">
    <path clip-path="url(#p66a817781d)" d="M 317.257625 272.749579 
L 317.257625 306.328558 
" style="fill:none;stroke:#66a61e;stroke-linecap:round;"/>
   </g>
   <g id="line2d_174">
    <path clip-path="url(#p66a817781d)" d="M 317.257625 231.297531 
L 317.257625 179.434532 
" style="fill:none;stroke:#66a61e;stroke-linecap:round;"/>
   </g>
   <g id="line2d_175">
    <path clip-path="url(#p66a817781d)" d="M 315.769625 306.328558 
L 318.745625 306.328558 
" style="fill:none;stroke:#66a61e;stroke-linecap:round;"/>
   </g>
   <g id="line2d_176">
    <path clip-path="url(#p66a817781d)" d="M 315.769625 179.434532 
L 318.745625 179.434532 
" style="fill:none;stroke:#66a61e;stroke-linecap:round;"/>
   </g>
   <g id="line2d_177">
    <g clip-path="url(#p66a817781d)">
     <use style="fill:#0000ff;stroke:#66a61e;" x="317.257625" xlink:href="#mfce06c9e92" y="159.74058"/>
     <use style="fill:#0000ff;stroke:#66a61e;" x="317.257625" xlink:href="#mfce06c9e92" y="110.494418"/>
    </g>
   </g>
   <g id="line2d_178">
    <path clip-path="url(#p66a817781d)" d="M 329.161625 311.904 
L 329.161625 45.792 
" style="fill:none;stroke:#000000;stroke-dasharray:0.5,0.825;stroke-dashoffset:0;stroke-width:0.5;"/>
   </g>
   <g id="line2d_179">
    <path clip-path="url(#p66a817781d)" d="M 338.089625 269.790953 
L 344.041625 269.790953 
L 344.041625 254.049282 
L 338.089625 254.049282 
L 338.089625 269.790953 
" style="fill:none;stroke:#1b9e77;stroke-linecap:round;"/>
   </g>
   <g id="line2d_180">
    <path clip-path="url(#p66a817781d)" d="M 341.065625 269.790953 
L 341.065625 280.681077 
" style="fill:none;stroke:#1b9e77;stroke-linecap:round;"/>
   </g>
   <g id="line2d_181">
    <path clip-path="url(#p66a817781d)" d="M 341.065625 254.049282 
L 341.065625 241.923532 
" style="fill:none;stroke:#1b9e77;stroke-linecap:round;"/>
   </g>
   <g id="line2d_182">
    <path clip-path="url(#p66a817781d)" d="M 339.577625 280.681077 
L 342.553625 280.681077 
" style="fill:none;stroke:#1b9e77;stroke-linecap:round;"/>
   </g>
   <g id="line2d_183">
    <path clip-path="url(#p66a817781d)" d="M 339.577625 241.923532 
L 342.553625 241.923532 
" style="fill:none;stroke:#1b9e77;stroke-linecap:round;"/>
   </g>
   <g id="line2d_184"/>
   <g id="line2d_185">
    <path clip-path="url(#p66a817781d)" d="M 349.993625 260.350524 
L 355.945625 260.350524 
L 355.945625 246.812377 
L 349.993625 246.812377 
L 349.993625 260.350524 
" style="fill:none;stroke:#d95f02;stroke-linecap:round;"/>
   </g>
   <g id="line2d_186">
    <path clip-path="url(#p66a817781d)" d="M 352.969625 260.350524 
L 352.969625 280.649549 
" style="fill:none;stroke:#d95f02;stroke-linecap:round;"/>
   </g>
   <g id="line2d_187">
    <path clip-path="url(#p66a817781d)" d="M 352.969625 246.812377 
L 352.969625 227.672067 
" style="fill:none;stroke:#d95f02;stroke-linecap:round;"/>
   </g>
   <g id="line2d_188">
    <path clip-path="url(#p66a817781d)" d="M 351.481625 280.649549 
L 354.457625 280.649549 
" style="fill:none;stroke:#d95f02;stroke-linecap:round;"/>
   </g>
   <g id="line2d_189">
    <path clip-path="url(#p66a817781d)" d="M 351.481625 227.672067 
L 354.457625 227.672067 
" style="fill:none;stroke:#d95f02;stroke-linecap:round;"/>
   </g>
   <g id="line2d_190">
    <g clip-path="url(#p66a817781d)">
     <use style="fill:#0000ff;stroke:#d95f02;" x="352.969625" xlink:href="#m905562ccb2" y="284.062797"/>
     <use style="fill:#0000ff;stroke:#d95f02;" x="352.969625" xlink:href="#m905562ccb2" y="281.473856"/>
     <use style="fill:#0000ff;stroke:#d95f02;" x="352.969625" xlink:href="#m905562ccb2" y="284.158205"/>
     <use style="fill:#0000ff;stroke:#d95f02;" x="352.969625" xlink:href="#m905562ccb2" y="286.39102"/>
     <use style="fill:#0000ff;stroke:#d95f02;" x="352.969625" xlink:href="#m905562ccb2" y="287.676751"/>
     <use style="fill:#0000ff;stroke:#d95f02;" x="352.969625" xlink:href="#m905562ccb2" y="287.655085"/>
     <use style="fill:#0000ff;stroke:#d95f02;" x="352.969625" xlink:href="#m905562ccb2" y="286.756992"/>
     <use style="fill:#0000ff;stroke:#d95f02;" x="352.969625" xlink:href="#m905562ccb2" y="284.990862"/>
     <use style="fill:#0000ff;stroke:#d95f02;" x="352.969625" xlink:href="#m905562ccb2" y="282.787498"/>
    </g>
   </g>
   <g id="line2d_191">
    <path clip-path="url(#p66a817781d)" d="M 361.897625 270.077883 
L 367.849625 270.077883 
L 367.849625 250.944425 
L 361.897625 250.944425 
L 361.897625 270.077883 
" style="fill:none;stroke:#7570b3;stroke-linecap:round;"/>
   </g>
   <g id="line2d_192">
    <path clip-path="url(#p66a817781d)" d="M 364.873625 270.077883 
L 364.873625 287.29993 
" style="fill:none;stroke:#7570b3;stroke-linecap:round;"/>
   </g>
   <g id="line2d_193">
    <path clip-path="url(#p66a817781d)" d="M 364.873625 250.944425 
L 364.873625 236.389704 
" style="fill:none;stroke:#7570b3;stroke-linecap:round;"/>
   </g>
   <g id="line2d_194">
    <path clip-path="url(#p66a817781d)" d="M 363.385625 287.29993 
L 366.361625 287.29993 
" style="fill:none;stroke:#7570b3;stroke-linecap:round;"/>
   </g>
   <g id="line2d_195">
    <path clip-path="url(#p66a817781d)" d="M 363.385625 236.389704 
L 366.361625 236.389704 
" style="fill:none;stroke:#7570b3;stroke-linecap:round;"/>
   </g>
   <g id="line2d_196"/>
   <g id="line2d_197">
    <path clip-path="url(#p66a817781d)" d="M 373.801625 262.862588 
L 379.753625 262.862588 
L 379.753625 249.061917 
L 373.801625 249.061917 
L 373.801625 262.862588 
" style="fill:none;stroke:#e7298a;stroke-linecap:round;"/>
   </g>
   <g id="line2d_198">
    <path clip-path="url(#p66a817781d)" d="M 376.777625 262.862588 
L 376.777625 273.610702 
" style="fill:none;stroke:#e7298a;stroke-linecap:round;"/>
   </g>
   <g id="line2d_199">
    <path clip-path="url(#p66a817781d)" d="M 376.777625 249.061917 
L 376.777625 241.002943 
" style="fill:none;stroke:#e7298a;stroke-linecap:round;"/>
   </g>
   <g id="line2d_200">
    <path clip-path="url(#p66a817781d)" d="M 375.289625 273.610702 
L 378.265625 273.610702 
" style="fill:none;stroke:#e7298a;stroke-linecap:round;"/>
   </g>
   <g id="line2d_201">
    <path clip-path="url(#p66a817781d)" d="M 375.289625 241.002943 
L 378.265625 241.002943 
" style="fill:none;stroke:#e7298a;stroke-linecap:round;"/>
   </g>
   <g id="line2d_202"/>
   <g id="line2d_203">
    <path clip-path="url(#p66a817781d)" d="M 385.705625 284.372076 
L 391.657625 284.372076 
L 391.657625 261.954517 
L 385.705625 261.954517 
L 385.705625 284.372076 
" style="fill:none;stroke:#66a61e;stroke-linecap:round;"/>
   </g>
   <g id="line2d_204">
    <path clip-path="url(#p66a817781d)" d="M 388.681625 284.372076 
L 388.681625 305.746657 
" style="fill:none;stroke:#66a61e;stroke-linecap:round;"/>
   </g>
   <g id="line2d_205">
    <path clip-path="url(#p66a817781d)" d="M 388.681625 261.954517 
L 388.681625 250.550629 
" style="fill:none;stroke:#66a61e;stroke-linecap:round;"/>
   </g>
   <g id="line2d_206">
    <path clip-path="url(#p66a817781d)" d="M 387.193625 305.746657 
L 390.169625 305.746657 
" style="fill:none;stroke:#66a61e;stroke-linecap:round;"/>
   </g>
   <g id="line2d_207">
    <path clip-path="url(#p66a817781d)" d="M 387.193625 250.550629 
L 390.169625 250.550629 
" style="fill:none;stroke:#66a61e;stroke-linecap:round;"/>
   </g>
   <g id="line2d_208"/>
   <g id="line2d_209">
    <path clip-path="url(#p66a817781d)" d="M 400.585625 311.904 
L 400.585625 45.792 
" style="fill:none;stroke:#000000;stroke-dasharray:0.5,0.825;stroke-dashoffset:0;stroke-width:0.5;"/>
   </g>
   <g id="line2d_210">
    <path clip-path="url(#p66a817781d)" d="M 52.393625 210.7125 
L 58.345625 210.7125 
" style="fill:none;stroke:#ff7f0e;stroke-linecap:round;"/>
   </g>
   <g id="line2d_211">
    <path clip-path="url(#p66a817781d)" d="M 64.297625 233.745176 
L 70.249625 233.745176 
" style="fill:none;stroke:#ff7f0e;stroke-linecap:round;"/>
   </g>
   <g id="line2d_212">
    <path clip-path="url(#p66a817781d)" d="M 76.201625 249.485675 
L 82.153625 249.485675 
" style="fill:none;stroke:#ff7f0e;stroke-linecap:round;"/>
   </g>
   <g id="line2d_213">
    <path clip-path="url(#p66a817781d)" d="M 88.105625 194.041445 
L 94.057625 194.041445 
" style="fill:none;stroke:#ff7f0e;stroke-linecap:round;"/>
   </g>
   <g id="line2d_214">
    <path clip-path="url(#p66a817781d)" d="M 100.009625 283.13797 
L 105.961625 283.13797 
" style="fill:none;stroke:#ff7f0e;stroke-linecap:round;"/>
   </g>
   <g id="line2d_215">
    <path clip-path="url(#p66a817781d)" d="M 123.817625 291.913397 
L 129.769625 291.913397 
" style="fill:none;stroke:#ff7f0e;stroke-linecap:round;"/>
   </g>
   <g id="line2d_216">
    <path clip-path="url(#p66a817781d)" d="M 135.721625 299.126618 
L 141.673625 299.126618 
" style="fill:none;stroke:#ff7f0e;stroke-linecap:round;"/>
   </g>
   <g id="line2d_217">
    <path clip-path="url(#p66a817781d)" d="M 147.625625 299.532678 
L 153.577625 299.532678 
" style="fill:none;stroke:#ff7f0e;stroke-linecap:round;"/>
   </g>
   <g id="line2d_218">
    <path clip-path="url(#p66a817781d)" d="M 159.529625 277.859179 
L 165.481625 277.859179 
" style="fill:none;stroke:#ff7f0e;stroke-linecap:round;"/>
   </g>
   <g id="line2d_219">
    <path clip-path="url(#p66a817781d)" d="M 171.433625 295.928888 
L 177.385625 295.928888 
" style="fill:none;stroke:#ff7f0e;stroke-linecap:round;"/>
   </g>
   <g id="line2d_220">
    <path clip-path="url(#p66a817781d)" d="M 195.241625 269.506732 
L 201.193625 269.506732 
" style="fill:none;stroke:#ff7f0e;stroke-linecap:round;"/>
   </g>
   <g id="line2d_221">
    <path clip-path="url(#p66a817781d)" d="M 207.145625 252.266064 
L 213.097625 252.266064 
" style="fill:none;stroke:#ff7f0e;stroke-linecap:round;"/>
   </g>
   <g id="line2d_222">
    <path clip-path="url(#p66a817781d)" d="M 219.049625 264.718597 
L 225.001625 264.718597 
" style="fill:none;stroke:#ff7f0e;stroke-linecap:round;"/>
   </g>
   <g id="line2d_223">
    <path clip-path="url(#p66a817781d)" d="M 230.953625 276.522562 
L 236.905625 276.522562 
" style="fill:none;stroke:#ff7f0e;stroke-linecap:round;"/>
   </g>
   <g id="line2d_224">
    <path clip-path="url(#p66a817781d)" d="M 242.857625 266.985771 
L 248.809625 266.985771 
" style="fill:none;stroke:#ff7f0e;stroke-linecap:round;"/>
   </g>
   <g id="line2d_225">
    <path clip-path="url(#p66a817781d)" d="M 266.665625 272.445034 
L 272.617625 272.445034 
" style="fill:none;stroke:#ff7f0e;stroke-linecap:round;"/>
   </g>
   <g id="line2d_226">
    <path clip-path="url(#p66a817781d)" d="M 278.569625 255.661184 
L 284.521625 255.661184 
" style="fill:none;stroke:#ff7f0e;stroke-linecap:round;"/>
   </g>
   <g id="line2d_227">
    <path clip-path="url(#p66a817781d)" d="M 290.473625 254.629112 
L 296.425625 254.629112 
" style="fill:none;stroke:#ff7f0e;stroke-linecap:round;"/>
   </g>
   <g id="line2d_228">
    <path clip-path="url(#p66a817781d)" d="M 302.377625 276.996299 
L 308.329625 276.996299 
" style="fill:none;stroke:#ff7f0e;stroke-linecap:round;"/>
   </g>
   <g id="line2d_229">
    <path clip-path="url(#p66a817781d)" d="M 314.281625 255.75142 
L 320.233625 255.75142 
" style="fill:none;stroke:#ff7f0e;stroke-linecap:round;"/>
   </g>
   <g id="line2d_230">
    <path clip-path="url(#p66a817781d)" d="M 338.089625 260.966325 
L 344.041625 260.966325 
" style="fill:none;stroke:#ff7f0e;stroke-linecap:round;"/>
   </g>
   <g id="line2d_231">
    <path clip-path="url(#p66a817781d)" d="M 349.993625 253.913518 
L 355.945625 253.913518 
" style="fill:none;stroke:#ff7f0e;stroke-linecap:round;"/>
   </g>
   <g id="line2d_232">
    <path clip-path="url(#p66a817781d)" d="M 361.897625 259.974503 
L 367.849625 259.974503 
" style="fill:none;stroke:#ff7f0e;stroke-linecap:round;"/>
   </g>
   <g id="line2d_233">
    <path clip-path="url(#p66a817781d)" d="M 373.801625 256.902196 
L 379.753625 256.902196 
" style="fill:none;stroke:#ff7f0e;stroke-linecap:round;"/>
   </g>
   <g id="line2d_234">
    <path clip-path="url(#p66a817781d)" d="M 385.705625 272.211652 
L 391.657625 272.211652 
" style="fill:none;stroke:#ff7f0e;stroke-linecap:round;"/>
   </g>
   <g id="patch_3">
    <path d="M 43.465625 311.904 
L 43.465625 45.792 
" style="fill:none;"/>
   </g>
   <g id="patch_4">
    <path d="M 400.585625 311.904 
L 400.585625 45.792 
" style="fill:none;"/>
   </g>
   <g id="patch_5">
    <path d="M 43.465625 311.904 
L 400.585625 311.904 
" style="fill:none;"/>
   </g>
   <g id="patch_6">
    <path d="M 43.465625 45.792 
L 400.585625 45.792 
" style="fill:none;"/>
   </g>
   <g id="text_32">
    <!-- BE -->
    <g transform="translate(72.587781 43.13088)scale(0.1 -0.1)">
     <defs>
      <path d="M 9.8125 72.90625 
L 55.90625 72.90625 
L 55.90625 64.59375 
L 19.671875 64.59375 
L 19.671875 43.015625 
L 54.390625 43.015625 
L 54.390625 34.71875 
L 19.671875 34.71875 
L 19.671875 8.296875 
L 56.78125 8.296875 
L 56.78125 0 
L 9.8125 0 
z
" id="DejaVuSans-69"/>
     </defs>
     <use xlink:href="#DejaVuSans-66"/>
     <use x="68.603516" xlink:href="#DejaVuSans-69"/>
    </g>
   </g>
   <g id="text_33">
    <!-- BK -->
    <g transform="translate(143.89225 43.13088)scale(0.1 -0.1)">
     <defs>
      <path d="M 9.8125 72.90625 
L 19.671875 72.90625 
L 19.671875 42.09375 
L 52.390625 72.90625 
L 65.09375 72.90625 
L 28.90625 38.921875 
L 67.671875 0 
L 54.6875 0 
L 19.671875 35.109375 
L 19.671875 0 
L 9.8125 0 
z
" id="DejaVuSans-75"/>
     </defs>
     <use xlink:href="#DejaVuSans-66"/>
     <use x="68.603516" xlink:href="#DejaVuSans-75"/>
    </g>
   </g>
   <g id="text_34">
    <!-- CS5 -->
    <g transform="translate(212.17875 43.13088)scale(0.1 -0.1)">
     <defs>
      <path d="M 64.40625 67.28125 
L 64.40625 56.890625 
Q 59.421875 61.53125 53.78125 63.8125 
Q 48.140625 66.109375 41.796875 66.109375 
Q 29.296875 66.109375 22.65625 58.46875 
Q 16.015625 50.828125 16.015625 36.375 
Q 16.015625 21.96875 22.65625 14.328125 
Q 29.296875 6.6875 41.796875 6.6875 
Q 48.140625 6.6875 53.78125 8.984375 
Q 59.421875 11.28125 64.40625 15.921875 
L 64.40625 5.609375 
Q 59.234375 2.09375 53.4375 0.328125 
Q 47.65625 -1.421875 41.21875 -1.421875 
Q 24.65625 -1.421875 15.125 8.703125 
Q 5.609375 18.84375 5.609375 36.375 
Q 5.609375 53.953125 15.125 64.078125 
Q 24.65625 74.21875 41.21875 74.21875 
Q 47.75 74.21875 53.53125 72.484375 
Q 59.328125 70.75 64.40625 67.28125 
z
" id="DejaVuSans-67"/>
      <path d="M 53.515625 70.515625 
L 53.515625 60.890625 
Q 47.90625 63.578125 42.921875 64.890625 
Q 37.9375 66.21875 33.296875 66.21875 
Q 25.25 66.21875 20.875 63.09375 
Q 16.5 59.96875 16.5 54.203125 
Q 16.5 49.359375 19.40625 46.890625 
Q 22.3125 44.4375 30.421875 42.921875 
L 36.375 41.703125 
Q 47.40625 39.59375 52.65625 34.296875 
Q 57.90625 29 57.90625 20.125 
Q 57.90625 9.515625 50.796875 4.046875 
Q 43.703125 -1.421875 29.984375 -1.421875 
Q 24.8125 -1.421875 18.96875 -0.25 
Q 13.140625 0.921875 6.890625 3.21875 
L 6.890625 13.375 
Q 12.890625 10.015625 18.65625 8.296875 
Q 24.421875 6.59375 29.984375 6.59375 
Q 38.421875 6.59375 43.015625 9.90625 
Q 47.609375 13.234375 47.609375 19.390625 
Q 47.609375 24.75 44.3125 27.78125 
Q 41.015625 30.8125 33.5 32.328125 
L 27.484375 33.5 
Q 16.453125 35.6875 11.515625 40.375 
Q 6.59375 45.0625 6.59375 53.421875 
Q 6.59375 63.09375 13.40625 68.65625 
Q 20.21875 74.21875 32.171875 74.21875 
Q 37.3125 74.21875 42.625 73.28125 
Q 47.953125 72.359375 53.515625 70.515625 
z
" id="DejaVuSans-83"/>
     </defs>
     <use xlink:href="#DejaVuSans-67"/>
     <use x="69.824219" xlink:href="#DejaVuSans-83"/>
     <use x="133.300781" xlink:href="#DejaVuSans-53"/>
    </g>
   </g>
   <g id="text_35">
    <!-- EF -->
    <g transform="translate(287.414469 43.13088)scale(0.1 -0.1)">
     <defs>
      <path d="M 9.8125 72.90625 
L 51.703125 72.90625 
L 51.703125 64.59375 
L 19.671875 64.59375 
L 19.671875 43.109375 
L 48.578125 43.109375 
L 48.578125 34.8125 
L 19.671875 34.8125 
L 19.671875 0 
L 9.8125 0 
z
" id="DejaVuSans-70"/>
     </defs>
     <use xlink:href="#DejaVuSans-69"/>
     <use x="63.183594" xlink:href="#DejaVuSans-70"/>
    </g>
   </g>
   <g id="text_36">
    <!-- Avg -->
    <g transform="translate(355.613469 43.13088)scale(0.1 -0.1)">
     <defs>
      <path d="M 34.1875 63.1875 
L 20.796875 26.90625 
L 47.609375 26.90625 
z
M 28.609375 72.90625 
L 39.796875 72.90625 
L 67.578125 0 
L 57.328125 0 
L 50.6875 18.703125 
L 17.828125 18.703125 
L 11.1875 0 
L 0.78125 0 
z
" id="DejaVuSans-65"/>
      <path d="M 2.984375 54.6875 
L 12.5 54.6875 
L 29.59375 8.796875 
L 46.6875 54.6875 
L 56.203125 54.6875 
L 35.6875 0 
L 23.484375 0 
z
" id="DejaVuSans-118"/>
      <path d="M 45.40625 27.984375 
Q 45.40625 37.75 41.375 43.109375 
Q 37.359375 48.484375 30.078125 48.484375 
Q 22.859375 48.484375 18.828125 43.109375 
Q 14.796875 37.75 14.796875 27.984375 
Q 14.796875 18.265625 18.828125 12.890625 
Q 22.859375 7.515625 30.078125 7.515625 
Q 37.359375 7.515625 41.375 12.890625 
Q 45.40625 18.265625 45.40625 27.984375 
z
M 54.390625 6.78125 
Q 54.390625 -7.171875 48.1875 -13.984375 
Q 42 -20.796875 29.203125 -20.796875 
Q 24.46875 -20.796875 20.265625 -20.09375 
Q 16.0625 -19.390625 12.109375 -17.921875 
L 12.109375 -9.1875 
Q 16.0625 -11.328125 19.921875 -12.34375 
Q 23.78125 -13.375 27.78125 -13.375 
Q 36.625 -13.375 41.015625 -8.765625 
Q 45.40625 -4.15625 45.40625 5.171875 
L 45.40625 9.625 
Q 42.625 4.78125 38.28125 2.390625 
Q 33.9375 0 27.875 0 
Q 17.828125 0 11.671875 7.65625 
Q 5.515625 15.328125 5.515625 27.984375 
Q 5.515625 40.671875 11.671875 48.328125 
Q 17.828125 56 27.875 56 
Q 33.9375 56 38.28125 53.609375 
Q 42.625 51.21875 45.40625 46.390625 
L 45.40625 54.6875 
L 54.390625 54.6875 
z
" id="DejaVuSans-103"/>
     </defs>
     <use xlink:href="#DejaVuSans-65"/>
     <use x="62.533203" xlink:href="#DejaVuSans-118"/>
     <use x="121.712891" xlink:href="#DejaVuSans-103"/>
    </g>
   </g>
   <g id="legend_1">
    <g id="text_37">
     <!-- TCP upload -->
     <g transform="translate(424.983659 56.722437)scale(0.1 -0.1)">
      <defs>
       <path d="M -0.296875 72.90625 
L 61.375 72.90625 
L 61.375 64.59375 
L 35.5 64.59375 
L 35.5 0 
L 25.59375 0 
L 25.59375 64.59375 
L -0.296875 64.59375 
z
" id="DejaVuSans-84"/>
       <path d="M 19.671875 64.796875 
L 19.671875 37.40625 
L 32.078125 37.40625 
Q 38.96875 37.40625 42.71875 40.96875 
Q 46.484375 44.53125 46.484375 51.125 
Q 46.484375 57.671875 42.71875 61.234375 
Q 38.96875 64.796875 32.078125 64.796875 
z
M 9.8125 72.90625 
L 32.078125 72.90625 
Q 44.34375 72.90625 50.609375 67.359375 
Q 56.890625 61.8125 56.890625 51.125 
Q 56.890625 40.328125 50.609375 34.8125 
Q 44.34375 29.296875 32.078125 29.296875 
L 19.671875 29.296875 
L 19.671875 0 
L 9.8125 0 
z
" id="DejaVuSans-80"/>
       <path id="DejaVuSans-32"/>
       <path d="M 8.5 21.578125 
L 8.5 54.6875 
L 17.484375 54.6875 
L 17.484375 21.921875 
Q 17.484375 14.15625 20.5 10.265625 
Q 23.53125 6.390625 29.59375 6.390625 
Q 36.859375 6.390625 41.078125 11.03125 
Q 45.3125 15.671875 45.3125 23.6875 
L 45.3125 54.6875 
L 54.296875 54.6875 
L 54.296875 0 
L 45.3125 0 
L 45.3125 8.40625 
Q 42.046875 3.421875 37.71875 1 
Q 33.40625 -1.421875 27.6875 -1.421875 
Q 18.265625 -1.421875 13.375 4.4375 
Q 8.5 10.296875 8.5 21.578125 
z
M 31.109375 56 
z
" id="DejaVuSans-117"/>
      </defs>
      <use xlink:href="#DejaVuSans-84"/>
      <use x="55.208984" xlink:href="#DejaVuSans-67"/>
      <use x="125.033203" xlink:href="#DejaVuSans-80"/>
      <use x="185.335938" xlink:href="#DejaVuSans-32"/>
      <use x="217.123047" xlink:href="#DejaVuSans-117"/>
      <use x="280.501953" xlink:href="#DejaVuSans-112"/>
      <use x="343.978516" xlink:href="#DejaVuSans-108"/>
      <use x="371.761719" xlink:href="#DejaVuSans-111"/>
      <use x="432.943359" xlink:href="#DejaVuSans-97"/>
      <use x="494.222656" xlink:href="#DejaVuSans-100"/>
     </g>
    </g>
    <g id="line2d_235">
     <path d="M 411.060025 66.381123 
L 427.720025 66.381123 
" style="fill:none;stroke:#1b9e77;stroke-linecap:round;"/>
    </g>
    <g id="line2d_236"/>
    <g id="text_38">
     <!-- BBRn-fq -->
     <g transform="translate(434.384025 69.296623)scale(0.0833 -0.0833)">
      <use xlink:href="#DejaVuSans-66"/>
      <use x="68.603516" xlink:href="#DejaVuSans-66"/>
      <use x="137.207031" xlink:href="#DejaVuSans-82"/>
      <use x="206.689453" xlink:href="#DejaVuSans-110"/>
      <use x="270.068359" xlink:href="#DejaVuSans-45"/>
      <use x="306.152344" xlink:href="#DejaVuSans-102"/>
      <use x="341.357422" xlink:href="#DejaVuSans-113"/>
     </g>
    </g>
    <g id="line2d_237">
     <path d="M 411.060025 78.608002 
L 427.720025 78.608002 
" style="fill:none;stroke:#d95f02;stroke-linecap:round;"/>
    </g>
    <g id="line2d_238"/>
    <g id="text_39">
     <!-- BBRn-codel -->
     <g transform="translate(434.384025 81.523502)scale(0.0833 -0.0833)">
      <use xlink:href="#DejaVuSans-66"/>
      <use x="68.603516" xlink:href="#DejaVuSans-66"/>
      <use x="137.207031" xlink:href="#DejaVuSans-82"/>
      <use x="206.689453" xlink:href="#DejaVuSans-110"/>
      <use x="270.068359" xlink:href="#DejaVuSans-45"/>
      <use x="306.152344" xlink:href="#DejaVuSans-99"/>
      <use x="361.132812" xlink:href="#DejaVuSans-111"/>
      <use x="422.314453" xlink:href="#DejaVuSans-100"/>
      <use x="485.791016" xlink:href="#DejaVuSans-101"/>
      <use x="547.314453" xlink:href="#DejaVuSans-108"/>
     </g>
    </g>
    <g id="line2d_239">
     <path d="M 411.060025 90.83488 
L 427.720025 90.83488 
" style="fill:none;stroke:#7570b3;stroke-linecap:round;"/>
    </g>
    <g id="line2d_240"/>
    <g id="text_40">
     <!-- BBRn-cake -->
     <g transform="translate(434.384025 93.75038)scale(0.0833 -0.0833)">
      <use xlink:href="#DejaVuSans-66"/>
      <use x="68.603516" xlink:href="#DejaVuSans-66"/>
      <use x="137.207031" xlink:href="#DejaVuSans-82"/>
      <use x="206.689453" xlink:href="#DejaVuSans-110"/>
      <use x="270.068359" xlink:href="#DejaVuSans-45"/>
      <use x="306.152344" xlink:href="#DejaVuSans-99"/>
      <use x="361.132812" xlink:href="#DejaVuSans-97"/>
      <use x="422.412109" xlink:href="#DejaVuSans-107"/>
      <use x="476.697266" xlink:href="#DejaVuSans-101"/>
     </g>
    </g>
    <g id="line2d_241">
     <path d="M 411.060025 103.061758 
L 427.720025 103.061758 
" style="fill:none;stroke:#e7298a;stroke-linecap:round;"/>
    </g>
    <g id="line2d_242"/>
    <g id="text_41">
     <!-- BBRn-pie -->
     <g transform="translate(434.384025 105.977258)scale(0.0833 -0.0833)">
      <use xlink:href="#DejaVuSans-66"/>
      <use x="68.603516" xlink:href="#DejaVuSans-66"/>
      <use x="137.207031" xlink:href="#DejaVuSans-82"/>
      <use x="206.689453" xlink:href="#DejaVuSans-110"/>
      <use x="270.068359" xlink:href="#DejaVuSans-45"/>
      <use x="306.152344" xlink:href="#DejaVuSans-112"/>
      <use x="369.628906" xlink:href="#DejaVuSans-105"/>
      <use x="397.412109" xlink:href="#DejaVuSans-101"/>
     </g>
    </g>
    <g id="line2d_243">
     <path d="M 411.060025 115.288636 
L 427.720025 115.288636 
" style="fill:none;stroke:#66a61e;stroke-linecap:round;"/>
    </g>
    <g id="line2d_244"/>
    <g id="text_42">
     <!-- BBRn-fq_codel -->
     <g transform="translate(434.384025 118.204136)scale(0.0833 -0.0833)">
      <use xlink:href="#DejaVuSans-66"/>
      <use x="68.603516" xlink:href="#DejaVuSans-66"/>
      <use x="137.207031" xlink:href="#DejaVuSans-82"/>
      <use x="206.689453" xlink:href="#DejaVuSans-110"/>
      <use x="270.068359" xlink:href="#DejaVuSans-45"/>
      <use x="306.152344" xlink:href="#DejaVuSans-102"/>
      <use x="341.357422" xlink:href="#DejaVuSans-113"/>
      <use x="404.833984" xlink:href="#DejaVuSans-95"/>
      <use x="454.833984" xlink:href="#DejaVuSans-99"/>
      <use x="509.814453" xlink:href="#DejaVuSans-111"/>
      <use x="570.996094" xlink:href="#DejaVuSans-100"/>
      <use x="634.472656" xlink:href="#DejaVuSans-101"/>
      <use x="695.996094" xlink:href="#DejaVuSans-108"/>
     </g>
    </g>
   </g>
  </g>
  <g id="text_43">
   <!-- Realtime Response Under Load -->
   <g transform="translate(107.084219 17.837812)scale(0.14 -0.14)">
    <defs>
     <path d="M 52 44.1875 
Q 55.375 50.25 60.0625 53.125 
Q 64.75 56 71.09375 56 
Q 79.640625 56 84.28125 50.015625 
Q 88.921875 44.046875 88.921875 33.015625 
L 88.921875 0 
L 79.890625 0 
L 79.890625 32.71875 
Q 79.890625 40.578125 77.09375 44.375 
Q 74.3125 48.1875 68.609375 48.1875 
Q 61.625 48.1875 57.5625 43.546875 
Q 53.515625 38.921875 53.515625 30.90625 
L 53.515625 0 
L 44.484375 0 
L 44.484375 32.71875 
Q 44.484375 40.625 41.703125 44.40625 
Q 38.921875 48.1875 33.109375 48.1875 
Q 26.21875 48.1875 22.15625 43.53125 
Q 18.109375 38.875 18.109375 30.90625 
L 18.109375 0 
L 9.078125 0 
L 9.078125 54.6875 
L 18.109375 54.6875 
L 18.109375 46.1875 
Q 21.1875 51.21875 25.484375 53.609375 
Q 29.78125 56 35.6875 56 
Q 41.65625 56 45.828125 52.96875 
Q 50 49.953125 52 44.1875 
z
" id="DejaVuSans-109"/>
     <path d="M 8.6875 72.90625 
L 18.609375 72.90625 
L 18.609375 28.609375 
Q 18.609375 16.890625 22.84375 11.734375 
Q 27.09375 6.59375 36.625 6.59375 
Q 46.09375 6.59375 50.34375 11.734375 
Q 54.59375 16.890625 54.59375 28.609375 
L 54.59375 72.90625 
L 64.5 72.90625 
L 64.5 27.390625 
Q 64.5 13.140625 57.4375 5.859375 
Q 50.390625 -1.421875 36.625 -1.421875 
Q 22.796875 -1.421875 15.734375 5.859375 
Q 8.6875 13.140625 8.6875 27.390625 
z
" id="DejaVuSans-85"/>
     <path d="M 41.109375 46.296875 
Q 39.59375 47.171875 37.8125 47.578125 
Q 36.03125 48 33.890625 48 
Q 26.265625 48 22.1875 43.046875 
Q 18.109375 38.09375 18.109375 28.8125 
L 18.109375 0 
L 9.078125 0 
L 9.078125 54.6875 
L 18.109375 54.6875 
L 18.109375 46.1875 
Q 20.953125 51.171875 25.484375 53.578125 
Q 30.03125 56 36.53125 56 
Q 37.453125 56 38.578125 55.875 
Q 39.703125 55.765625 41.0625 55.515625 
z
" id="DejaVuSans-114"/>
     <path d="M 9.8125 72.90625 
L 19.671875 72.90625 
L 19.671875 8.296875 
L 55.171875 8.296875 
L 55.171875 0 
L 9.8125 0 
z
" id="DejaVuSans-76"/>
    </defs>
    <use xlink:href="#DejaVuSans-82"/>
    <use x="64.982422" xlink:href="#DejaVuSans-101"/>
    <use x="126.505859" xlink:href="#DejaVuSans-97"/>
    <use x="187.785156" xlink:href="#DejaVuSans-108"/>
    <use x="215.568359" xlink:href="#DejaVuSans-116"/>
    <use x="254.777344" xlink:href="#DejaVuSans-105"/>
    <use x="282.560547" xlink:href="#DejaVuSans-109"/>
    <use x="379.972656" xlink:href="#DejaVuSans-101"/>
    <use x="441.496094" xlink:href="#DejaVuSans-32"/>
    <use x="473.283203" xlink:href="#DejaVuSans-82"/>
    <use x="538.265625" xlink:href="#DejaVuSans-101"/>
    <use x="599.789062" xlink:href="#DejaVuSans-115"/>
    <use x="651.888672" xlink:href="#DejaVuSans-112"/>
    <use x="715.365234" xlink:href="#DejaVuSans-111"/>
    <use x="776.546875" xlink:href="#DejaVuSans-110"/>
    <use x="839.925781" xlink:href="#DejaVuSans-115"/>
    <use x="892.025391" xlink:href="#DejaVuSans-101"/>
    <use x="953.548828" xlink:href="#DejaVuSans-32"/>
    <use x="985.335938" xlink:href="#DejaVuSans-85"/>
    <use x="1058.529297" xlink:href="#DejaVuSans-110"/>
    <use x="1121.908203" xlink:href="#DejaVuSans-100"/>
    <use x="1185.384766" xlink:href="#DejaVuSans-101"/>
    <use x="1246.908203" xlink:href="#DejaVuSans-114"/>
    <use x="1288.021484" xlink:href="#DejaVuSans-32"/>
    <use x="1319.808594" xlink:href="#DejaVuSans-76"/>
    <use x="1373.771484" xlink:href="#DejaVuSans-111"/>
    <use x="1434.953125" xlink:href="#DejaVuSans-97"/>
    <use x="1496.232422" xlink:href="#DejaVuSans-100"/>
   </g>
   <!-- Upload bandwidth box plot -->
   <g transform="translate(122.088281 33.51475)scale(0.14 -0.14)">
    <defs>
     <path d="M 4.203125 54.6875 
L 13.1875 54.6875 
L 24.421875 12.015625 
L 35.59375 54.6875 
L 46.1875 54.6875 
L 57.421875 12.015625 
L 68.609375 54.6875 
L 77.59375 54.6875 
L 63.28125 0 
L 52.6875 0 
L 40.921875 44.828125 
L 29.109375 0 
L 18.5 0 
z
" id="DejaVuSans-119"/>
     <path d="M 54.890625 33.015625 
L 54.890625 0 
L 45.90625 0 
L 45.90625 32.71875 
Q 45.90625 40.484375 42.875 44.328125 
Q 39.84375 48.1875 33.796875 48.1875 
Q 26.515625 48.1875 22.3125 43.546875 
Q 18.109375 38.921875 18.109375 30.90625 
L 18.109375 0 
L 9.078125 0 
L 9.078125 75.984375 
L 18.109375 75.984375 
L 18.109375 46.1875 
Q 21.34375 51.125 25.703125 53.5625 
Q 30.078125 56 35.796875 56 
Q 45.21875 56 50.046875 50.171875 
Q 54.890625 44.34375 54.890625 33.015625 
z
" id="DejaVuSans-104"/>
     <path d="M 54.890625 54.6875 
L 35.109375 28.078125 
L 55.90625 0 
L 45.3125 0 
L 29.390625 21.484375 
L 13.484375 0 
L 2.875 0 
L 24.125 28.609375 
L 4.6875 54.6875 
L 15.28125 54.6875 
L 29.78125 35.203125 
L 44.28125 54.6875 
z
" id="DejaVuSans-120"/>
    </defs>
    <use xlink:href="#DejaVuSans-85"/>
    <use x="73.193359" xlink:href="#DejaVuSans-112"/>
    <use x="136.669922" xlink:href="#DejaVuSans-108"/>
    <use x="164.453125" xlink:href="#DejaVuSans-111"/>
    <use x="225.634766" xlink:href="#DejaVuSans-97"/>
    <use x="286.914062" xlink:href="#DejaVuSans-100"/>
    <use x="350.390625" xlink:href="#DejaVuSans-32"/>
    <use x="382.177734" xlink:href="#DejaVuSans-98"/>
    <use x="445.654297" xlink:href="#DejaVuSans-97"/>
    <use x="506.933594" xlink:href="#DejaVuSans-110"/>
    <use x="570.3125" xlink:href="#DejaVuSans-100"/>
    <use x="633.789062" xlink:href="#DejaVuSans-119"/>
    <use x="715.576172" xlink:href="#DejaVuSans-105"/>
    <use x="743.359375" xlink:href="#DejaVuSans-100"/>
    <use x="806.835938" xlink:href="#DejaVuSans-116"/>
    <use x="846.044922" xlink:href="#DejaVuSans-104"/>
    <use x="909.423828" xlink:href="#DejaVuSans-32"/>
    <use x="941.210938" xlink:href="#DejaVuSans-98"/>
    <use x="1004.6875" xlink:href="#DejaVuSans-111"/>
    <use x="1062.744141" xlink:href="#DejaVuSans-120"/>
    <use x="1121.923828" xlink:href="#DejaVuSans-32"/>
    <use x="1153.710938" xlink:href="#DejaVuSans-112"/>
    <use x="1217.1875" xlink:href="#DejaVuSans-108"/>
    <use x="1244.970703" xlink:href="#DejaVuSans-111"/>
    <use x="1306.152344" xlink:href="#DejaVuSans-116"/>
   </g>
  </g>
 </g>
 <defs>
  <clipPath id="p66a817781d">
   <rect height="266.112" width="357.12" x="43.465625" y="45.792"/>
  </clipPath>
 </defs>
</svg>
