<?xml version="1.0" encoding="utf-8" standalone="no"?>
<!DOCTYPE svg PUBLIC "-//W3C//DTD SVG 1.1//EN"
  "http://www.w3.org/Graphics/SVG/1.1/DTD/svg11.dtd">
<!-- Created with matplotlib (https://matplotlib.org/) -->
<svg height="394.98525pt" version="1.1" viewBox="0 0 537.350406 394.98525" width="537.350406pt" xmlns="http://www.w3.org/2000/svg" xmlns:xlink="http://www.w3.org/1999/xlink">
 <metadata>
  <rdf:RDF xmlns:cc="http://creativecommons.org/ns#" xmlns:dc="http://purl.org/dc/elements/1.1/" xmlns:rdf="http://www.w3.org/1999/02/22-rdf-syntax-ns#">
   <cc:Work>
    <dc:type rdf:resource="http://purl.org/dc/dcmitype/StillImage"/>
    <dc:date>2023-09-15T09:20:51.979600</dc:date>
    <dc:format>image/svg+xml</dc:format>
    <dc:creator>
     <cc:Agent>
      <dc:title>Matplotlib v3.3.4, https://matplotlib.org/</dc:title>
     </cc:Agent>
    </dc:creator>
   </cc:Work>
  </rdf:RDF>
 </metadata>
 <defs>
  <style type="text/css">*{stroke-linecap:butt;stroke-linejoin:round;}</style>
 </defs>
 <g id="figure_1">
  <g id="patch_1">
   <path d="M 0 394.98525 
L 537.350406 394.98525 
L 537.350406 0 
L 0 0 
z
" style="fill:#ffffff;"/>
  </g>
  <g id="axes_1">
   <g id="patch_2">
    <path d="M 43.465625 311.904 
L 400.585625 311.904 
L 400.585625 45.792 
L 43.465625 45.792 
z
" style="fill:#e6e6e6;"/>
   </g>
   <g id="matplotlib.axis_1">
    <g id="xtick_1">
     <g id="line2d_1"/>
     <g id="text_1">
      <!-- BBRn-fq -->
      <g transform="translate(66.065 355.888375)rotate(-90)scale(0.1 -0.1)">
       <defs>
        <path d="M 19.671875 34.8125 
L 19.671875 8.109375 
L 35.5 8.109375 
Q 43.453125 8.109375 47.28125 11.40625 
Q 51.125 14.703125 51.125 21.484375 
Q 51.125 28.328125 47.28125 31.5625 
Q 43.453125 34.8125 35.5 34.8125 
z
M 19.671875 64.796875 
L 19.671875 42.828125 
L 34.28125 42.828125 
Q 41.5 42.828125 45.03125 45.53125 
Q 48.578125 48.25 48.578125 53.8125 
Q 48.578125 59.328125 45.03125 62.0625 
Q 41.5 64.796875 34.28125 64.796875 
z
M 9.8125 72.90625 
L 35.015625 72.90625 
Q 46.296875 72.90625 52.390625 68.21875 
Q 58.5 63.53125 58.5 54.890625 
Q 58.5 48.1875 55.375 44.234375 
Q 52.25 40.28125 46.1875 39.3125 
Q 53.46875 37.75 57.5 32.78125 
Q 61.53125 27.828125 61.53125 20.40625 
Q 61.53125 10.640625 54.890625 5.3125 
Q 48.25 0 35.984375 0 
L 9.8125 0 
z
" id="DejaVuSans-66"/>
        <path d="M 44.390625 34.1875 
Q 47.5625 33.109375 50.5625 29.59375 
Q 53.5625 26.078125 56.59375 19.921875 
L 66.609375 0 
L 56 0 
L 46.6875 18.703125 
Q 43.0625 26.03125 39.671875 28.421875 
Q 36.28125 30.8125 30.421875 30.8125 
L 19.671875 30.8125 
L 19.671875 0 
L 9.8125 0 
L 9.8125 72.90625 
L 32.078125 72.90625 
Q 44.578125 72.90625 50.734375 67.671875 
Q 56.890625 62.453125 56.890625 51.90625 
Q 56.890625 45.015625 53.6875 40.46875 
Q 50.484375 35.9375 44.390625 34.1875 
z
M 19.671875 64.796875 
L 19.671875 38.921875 
L 32.078125 38.921875 
Q 39.203125 38.921875 42.84375 42.21875 
Q 46.484375 45.515625 46.484375 51.90625 
Q 46.484375 58.296875 42.84375 61.546875 
Q 39.203125 64.796875 32.078125 64.796875 
z
" id="DejaVuSans-82"/>
        <path d="M 54.890625 33.015625 
L 54.890625 0 
L 45.90625 0 
L 45.90625 32.71875 
Q 45.90625 40.484375 42.875 44.328125 
Q 39.84375 48.1875 33.796875 48.1875 
Q 26.515625 48.1875 22.3125 43.546875 
Q 18.109375 38.921875 18.109375 30.90625 
L 18.109375 0 
L 9.078125 0 
L 9.078125 54.6875 
L 18.109375 54.6875 
L 18.109375 46.1875 
Q 21.34375 51.125 25.703125 53.5625 
Q 30.078125 56 35.796875 56 
Q 45.21875 56 50.046875 50.171875 
Q 54.890625 44.34375 54.890625 33.015625 
z
" id="DejaVuSans-110"/>
        <path d="M 4.890625 31.390625 
L 31.203125 31.390625 
L 31.203125 23.390625 
L 4.890625 23.390625 
z
" id="DejaVuSans-45"/>
        <path d="M 37.109375 75.984375 
L 37.109375 68.5 
L 28.515625 68.5 
Q 23.6875 68.5 21.796875 66.546875 
Q 19.921875 64.59375 19.921875 59.515625 
L 19.921875 54.6875 
L 34.71875 54.6875 
L 34.71875 47.703125 
L 19.921875 47.703125 
L 19.921875 0 
L 10.890625 0 
L 10.890625 47.703125 
L 2.296875 47.703125 
L 2.296875 54.6875 
L 10.890625 54.6875 
L 10.890625 58.5 
Q 10.890625 67.625 15.140625 71.796875 
Q 19.390625 75.984375 28.609375 75.984375 
z
" id="DejaVuSans-102"/>
        <path d="M 14.796875 27.296875 
Q 14.796875 17.390625 18.875 11.75 
Q 22.953125 6.109375 30.078125 6.109375 
Q 37.203125 6.109375 41.296875 11.75 
Q 45.40625 17.390625 45.40625 27.296875 
Q 45.40625 37.203125 41.296875 42.84375 
Q 37.203125 48.484375 30.078125 48.484375 
Q 22.953125 48.484375 18.875 42.84375 
Q 14.796875 37.203125 14.796875 27.296875 
z
M 45.40625 8.203125 
Q 42.578125 3.328125 38.25 0.953125 
Q 33.9375 -1.421875 27.875 -1.421875 
Q 17.96875 -1.421875 11.734375 6.484375 
Q 5.515625 14.40625 5.515625 27.296875 
Q 5.515625 40.1875 11.734375 48.09375 
Q 17.96875 56 27.875 56 
Q 33.9375 56 38.25 53.625 
Q 42.578125 51.265625 45.40625 46.390625 
L 45.40625 54.6875 
L 54.390625 54.6875 
L 54.390625 -20.796875 
L 45.40625 -20.796875 
z
" id="DejaVuSans-113"/>
       </defs>
       <use xlink:href="#DejaVuSans-66"/>
       <use x="68.603516" xlink:href="#DejaVuSans-66"/>
       <use x="137.207031" xlink:href="#DejaVuSans-82"/>
       <use x="206.689453" xlink:href="#DejaVuSans-110"/>
       <use x="270.068359" xlink:href="#DejaVuSans-45"/>
       <use x="306.152344" xlink:href="#DejaVuSans-102"/>
       <use x="341.357422" xlink:href="#DejaVuSans-113"/>
      </g>
     </g>
    </g>
    <g id="xtick_2">
     <g id="line2d_2"/>
     <g id="text_2">
      <!-- BBRn-codel -->
      <g transform="translate(85.905 372.9165)rotate(-90)scale(0.1 -0.1)">
       <defs>
        <path d="M 48.78125 52.59375 
L 48.78125 44.1875 
Q 44.96875 46.296875 41.140625 47.34375 
Q 37.3125 48.390625 33.40625 48.390625 
Q 24.65625 48.390625 19.8125 42.84375 
Q 14.984375 37.3125 14.984375 27.296875 
Q 14.984375 17.28125 19.8125 11.734375 
Q 24.65625 6.203125 33.40625 6.203125 
Q 37.3125 6.203125 41.140625 7.25 
Q 44.96875 8.296875 48.78125 10.40625 
L 48.78125 2.09375 
Q 45.015625 0.34375 40.984375 -0.53125 
Q 36.96875 -1.421875 32.421875 -1.421875 
Q 20.0625 -1.421875 12.78125 6.34375 
Q 5.515625 14.109375 5.515625 27.296875 
Q 5.515625 40.671875 12.859375 48.328125 
Q 20.21875 56 33.015625 56 
Q 37.15625 56 41.109375 55.140625 
Q 45.0625 54.296875 48.78125 52.59375 
z
" id="DejaVuSans-99"/>
        <path d="M 30.609375 48.390625 
Q 23.390625 48.390625 19.1875 42.75 
Q 14.984375 37.109375 14.984375 27.296875 
Q 14.984375 17.484375 19.15625 11.84375 
Q 23.34375 6.203125 30.609375 6.203125 
Q 37.796875 6.203125 41.984375 11.859375 
Q 46.1875 17.53125 46.1875 27.296875 
Q 46.1875 37.015625 41.984375 42.703125 
Q 37.796875 48.390625 30.609375 48.390625 
z
M 30.609375 56 
Q 42.328125 56 49.015625 48.375 
Q 55.71875 40.765625 55.71875 27.296875 
Q 55.71875 13.875 49.015625 6.21875 
Q 42.328125 -1.421875 30.609375 -1.421875 
Q 18.84375 -1.421875 12.171875 6.21875 
Q 5.515625 13.875 5.515625 27.296875 
Q 5.515625 40.765625 12.171875 48.375 
Q 18.84375 56 30.609375 56 
z
" id="DejaVuSans-111"/>
        <path d="M 45.40625 46.390625 
L 45.40625 75.984375 
L 54.390625 75.984375 
L 54.390625 0 
L 45.40625 0 
L 45.40625 8.203125 
Q 42.578125 3.328125 38.25 0.953125 
Q 33.9375 -1.421875 27.875 -1.421875 
Q 17.96875 -1.421875 11.734375 6.484375 
Q 5.515625 14.40625 5.515625 27.296875 
Q 5.515625 40.1875 11.734375 48.09375 
Q 17.96875 56 27.875 56 
Q 33.9375 56 38.25 53.625 
Q 42.578125 51.265625 45.40625 46.390625 
z
M 14.796875 27.296875 
Q 14.796875 17.390625 18.875 11.75 
Q 22.953125 6.109375 30.078125 6.109375 
Q 37.203125 6.109375 41.296875 11.75 
Q 45.40625 17.390625 45.40625 27.296875 
Q 45.40625 37.203125 41.296875 42.84375 
Q 37.203125 48.484375 30.078125 48.484375 
Q 22.953125 48.484375 18.875 42.84375 
Q 14.796875 37.203125 14.796875 27.296875 
z
" id="DejaVuSans-100"/>
        <path d="M 56.203125 29.59375 
L 56.203125 25.203125 
L 14.890625 25.203125 
Q 15.484375 15.921875 20.484375 11.0625 
Q 25.484375 6.203125 34.421875 6.203125 
Q 39.59375 6.203125 44.453125 7.46875 
Q 49.3125 8.734375 54.109375 11.28125 
L 54.109375 2.78125 
Q 49.265625 0.734375 44.1875 -0.34375 
Q 39.109375 -1.421875 33.890625 -1.421875 
Q 20.796875 -1.421875 13.15625 6.1875 
Q 5.515625 13.8125 5.515625 26.8125 
Q 5.515625 40.234375 12.765625 48.109375 
Q 20.015625 56 32.328125 56 
Q 43.359375 56 49.78125 48.890625 
Q 56.203125 41.796875 56.203125 29.59375 
z
M 47.21875 32.234375 
Q 47.125 39.59375 43.09375 43.984375 
Q 39.0625 48.390625 32.421875 48.390625 
Q 24.90625 48.390625 20.390625 44.140625 
Q 15.875 39.890625 15.1875 32.171875 
z
" id="DejaVuSans-101"/>
        <path d="M 9.421875 75.984375 
L 18.40625 75.984375 
L 18.40625 0 
L 9.421875 0 
z
" id="DejaVuSans-108"/>
       </defs>
       <use xlink:href="#DejaVuSans-66"/>
       <use x="68.603516" xlink:href="#DejaVuSans-66"/>
       <use x="137.207031" xlink:href="#DejaVuSans-82"/>
       <use x="206.689453" xlink:href="#DejaVuSans-110"/>
       <use x="270.068359" xlink:href="#DejaVuSans-45"/>
       <use x="306.152344" xlink:href="#DejaVuSans-99"/>
       <use x="361.132812" xlink:href="#DejaVuSans-111"/>
       <use x="422.314453" xlink:href="#DejaVuSans-100"/>
       <use x="485.791016" xlink:href="#DejaVuSans-101"/>
       <use x="547.314453" xlink:href="#DejaVuSans-108"/>
      </g>
     </g>
    </g>
    <g id="xtick_3">
     <g id="line2d_3"/>
     <g id="text_3">
      <!-- BBRn-cake -->
      <g transform="translate(105.745 369.227437)rotate(-90)scale(0.1 -0.1)">
       <defs>
        <path d="M 34.28125 27.484375 
Q 23.390625 27.484375 19.1875 25 
Q 14.984375 22.515625 14.984375 16.5 
Q 14.984375 11.71875 18.140625 8.90625 
Q 21.296875 6.109375 26.703125 6.109375 
Q 34.1875 6.109375 38.703125 11.40625 
Q 43.21875 16.703125 43.21875 25.484375 
L 43.21875 27.484375 
z
M 52.203125 31.203125 
L 52.203125 0 
L 43.21875 0 
L 43.21875 8.296875 
Q 40.140625 3.328125 35.546875 0.953125 
Q 30.953125 -1.421875 24.3125 -1.421875 
Q 15.921875 -1.421875 10.953125 3.296875 
Q 6 8.015625 6 15.921875 
Q 6 25.140625 12.171875 29.828125 
Q 18.359375 34.515625 30.609375 34.515625 
L 43.21875 34.515625 
L 43.21875 35.40625 
Q 43.21875 41.609375 39.140625 45 
Q 35.0625 48.390625 27.6875 48.390625 
Q 23 48.390625 18.546875 47.265625 
Q 14.109375 46.140625 10.015625 43.890625 
L 10.015625 52.203125 
Q 14.9375 54.109375 19.578125 55.046875 
Q 24.21875 56 28.609375 56 
Q 40.484375 56 46.34375 49.84375 
Q 52.203125 43.703125 52.203125 31.203125 
z
" id="DejaVuSans-97"/>
        <path d="M 9.078125 75.984375 
L 18.109375 75.984375 
L 18.109375 31.109375 
L 44.921875 54.6875 
L 56.390625 54.6875 
L 27.390625 29.109375 
L 57.625 0 
L 45.90625 0 
L 18.109375 26.703125 
L 18.109375 0 
L 9.078125 0 
z
" id="DejaVuSans-107"/>
       </defs>
       <use xlink:href="#DejaVuSans-66"/>
       <use x="68.603516" xlink:href="#DejaVuSans-66"/>
       <use x="137.207031" xlink:href="#DejaVuSans-82"/>
       <use x="206.689453" xlink:href="#DejaVuSans-110"/>
       <use x="270.068359" xlink:href="#DejaVuSans-45"/>
       <use x="306.152344" xlink:href="#DejaVuSans-99"/>
       <use x="361.132812" xlink:href="#DejaVuSans-97"/>
       <use x="422.412109" xlink:href="#DejaVuSans-107"/>
       <use x="476.697266" xlink:href="#DejaVuSans-101"/>
      </g>
     </g>
    </g>
    <g id="xtick_4">
     <g id="line2d_4"/>
     <g id="text_4">
      <!-- BBRn-pie -->
      <g transform="translate(125.585 361.299312)rotate(-90)scale(0.1 -0.1)">
       <defs>
        <path d="M 18.109375 8.203125 
L 18.109375 -20.796875 
L 9.078125 -20.796875 
L 9.078125 54.6875 
L 18.109375 54.6875 
L 18.109375 46.390625 
Q 20.953125 51.265625 25.265625 53.625 
Q 29.59375 56 35.59375 56 
Q 45.5625 56 51.78125 48.09375 
Q 58.015625 40.1875 58.015625 27.296875 
Q 58.015625 14.40625 51.78125 6.484375 
Q 45.5625 -1.421875 35.59375 -1.421875 
Q 29.59375 -1.421875 25.265625 0.953125 
Q 20.953125 3.328125 18.109375 8.203125 
z
M 48.6875 27.296875 
Q 48.6875 37.203125 44.609375 42.84375 
Q 40.53125 48.484375 33.40625 48.484375 
Q 26.265625 48.484375 22.1875 42.84375 
Q 18.109375 37.203125 18.109375 27.296875 
Q 18.109375 17.390625 22.1875 11.75 
Q 26.265625 6.109375 33.40625 6.109375 
Q 40.53125 6.109375 44.609375 11.75 
Q 48.6875 17.390625 48.6875 27.296875 
z
" id="DejaVuSans-112"/>
        <path d="M 9.421875 54.6875 
L 18.40625 54.6875 
L 18.40625 0 
L 9.421875 0 
z
M 9.421875 75.984375 
L 18.40625 75.984375 
L 18.40625 64.59375 
L 9.421875 64.59375 
z
" id="DejaVuSans-105"/>
       </defs>
       <use xlink:href="#DejaVuSans-66"/>
       <use x="68.603516" xlink:href="#DejaVuSans-66"/>
       <use x="137.207031" xlink:href="#DejaVuSans-82"/>
       <use x="206.689453" xlink:href="#DejaVuSans-110"/>
       <use x="270.068359" xlink:href="#DejaVuSans-45"/>
       <use x="306.152344" xlink:href="#DejaVuSans-112"/>
       <use x="369.628906" xlink:href="#DejaVuSans-105"/>
       <use x="397.412109" xlink:href="#DejaVuSans-101"/>
      </g>
     </g>
    </g>
    <g id="xtick_5">
     <g id="line2d_5"/>
     <g id="text_5">
      <!-- BBRn-fq_codel -->
      <g transform="translate(145.285938 387.78525)rotate(-90)scale(0.1 -0.1)">
       <defs>
        <path d="M 50.984375 -16.609375 
L 50.984375 -23.578125 
L -0.984375 -23.578125 
L -0.984375 -16.609375 
z
" id="DejaVuSans-95"/>
       </defs>
       <use xlink:href="#DejaVuSans-66"/>
       <use x="68.603516" xlink:href="#DejaVuSans-66"/>
       <use x="137.207031" xlink:href="#DejaVuSans-82"/>
       <use x="206.689453" xlink:href="#DejaVuSans-110"/>
       <use x="270.068359" xlink:href="#DejaVuSans-45"/>
       <use x="306.152344" xlink:href="#DejaVuSans-102"/>
       <use x="341.357422" xlink:href="#DejaVuSans-113"/>
       <use x="404.833984" xlink:href="#DejaVuSans-95"/>
       <use x="454.833984" xlink:href="#DejaVuSans-99"/>
       <use x="509.814453" xlink:href="#DejaVuSans-111"/>
       <use x="570.996094" xlink:href="#DejaVuSans-100"/>
       <use x="634.472656" xlink:href="#DejaVuSans-101"/>
       <use x="695.996094" xlink:href="#DejaVuSans-108"/>
      </g>
     </g>
    </g>
    <g id="xtick_6">
     <g id="line2d_6"/>
     <g id="text_6">
      <!-- BBRn-fq -->
      <g transform="translate(185.105 355.888375)rotate(-90)scale(0.1 -0.1)">
       <use xlink:href="#DejaVuSans-66"/>
       <use x="68.603516" xlink:href="#DejaVuSans-66"/>
       <use x="137.207031" xlink:href="#DejaVuSans-82"/>
       <use x="206.689453" xlink:href="#DejaVuSans-110"/>
       <use x="270.068359" xlink:href="#DejaVuSans-45"/>
       <use x="306.152344" xlink:href="#DejaVuSans-102"/>
       <use x="341.357422" xlink:href="#DejaVuSans-113"/>
      </g>
     </g>
    </g>
    <g id="xtick_7">
     <g id="line2d_7"/>
     <g id="text_7">
      <!-- BBRn-codel -->
      <g transform="translate(204.945 372.9165)rotate(-90)scale(0.1 -0.1)">
       <use xlink:href="#DejaVuSans-66"/>
       <use x="68.603516" xlink:href="#DejaVuSans-66"/>
       <use x="137.207031" xlink:href="#DejaVuSans-82"/>
       <use x="206.689453" xlink:href="#DejaVuSans-110"/>
       <use x="270.068359" xlink:href="#DejaVuSans-45"/>
       <use x="306.152344" xlink:href="#DejaVuSans-99"/>
       <use x="361.132812" xlink:href="#DejaVuSans-111"/>
       <use x="422.314453" xlink:href="#DejaVuSans-100"/>
       <use x="485.791016" xlink:href="#DejaVuSans-101"/>
       <use x="547.314453" xlink:href="#DejaVuSans-108"/>
      </g>
     </g>
    </g>
    <g id="xtick_8">
     <g id="line2d_8"/>
     <g id="text_8">
      <!-- BBRn-cake -->
      <g transform="translate(224.785 369.227437)rotate(-90)scale(0.1 -0.1)">
       <use xlink:href="#DejaVuSans-66"/>
       <use x="68.603516" xlink:href="#DejaVuSans-66"/>
       <use x="137.207031" xlink:href="#DejaVuSans-82"/>
       <use x="206.689453" xlink:href="#DejaVuSans-110"/>
       <use x="270.068359" xlink:href="#DejaVuSans-45"/>
       <use x="306.152344" xlink:href="#DejaVuSans-99"/>
       <use x="361.132812" xlink:href="#DejaVuSans-97"/>
       <use x="422.412109" xlink:href="#DejaVuSans-107"/>
       <use x="476.697266" xlink:href="#DejaVuSans-101"/>
      </g>
     </g>
    </g>
    <g id="xtick_9">
     <g id="line2d_9"/>
     <g id="text_9">
      <!-- BBRn-pie -->
      <g transform="translate(244.625 361.299312)rotate(-90)scale(0.1 -0.1)">
       <use xlink:href="#DejaVuSans-66"/>
       <use x="68.603516" xlink:href="#DejaVuSans-66"/>
       <use x="137.207031" xlink:href="#DejaVuSans-82"/>
       <use x="206.689453" xlink:href="#DejaVuSans-110"/>
       <use x="270.068359" xlink:href="#DejaVuSans-45"/>
       <use x="306.152344" xlink:href="#DejaVuSans-112"/>
       <use x="369.628906" xlink:href="#DejaVuSans-105"/>
       <use x="397.412109" xlink:href="#DejaVuSans-101"/>
      </g>
     </g>
    </g>
    <g id="xtick_10">
     <g id="line2d_10"/>
     <g id="text_10">
      <!-- BBRn-fq_codel -->
      <g transform="translate(264.325938 387.78525)rotate(-90)scale(0.1 -0.1)">
       <use xlink:href="#DejaVuSans-66"/>
       <use x="68.603516" xlink:href="#DejaVuSans-66"/>
       <use x="137.207031" xlink:href="#DejaVuSans-82"/>
       <use x="206.689453" xlink:href="#DejaVuSans-110"/>
       <use x="270.068359" xlink:href="#DejaVuSans-45"/>
       <use x="306.152344" xlink:href="#DejaVuSans-102"/>
       <use x="341.357422" xlink:href="#DejaVuSans-113"/>
       <use x="404.833984" xlink:href="#DejaVuSans-95"/>
       <use x="454.833984" xlink:href="#DejaVuSans-99"/>
       <use x="509.814453" xlink:href="#DejaVuSans-111"/>
       <use x="570.996094" xlink:href="#DejaVuSans-100"/>
       <use x="634.472656" xlink:href="#DejaVuSans-101"/>
       <use x="695.996094" xlink:href="#DejaVuSans-108"/>
      </g>
     </g>
    </g>
    <g id="xtick_11">
     <g id="line2d_11"/>
     <g id="text_11">
      <!-- BBRn-fq -->
      <g transform="translate(304.145 355.888375)rotate(-90)scale(0.1 -0.1)">
       <use xlink:href="#DejaVuSans-66"/>
       <use x="68.603516" xlink:href="#DejaVuSans-66"/>
       <use x="137.207031" xlink:href="#DejaVuSans-82"/>
       <use x="206.689453" xlink:href="#DejaVuSans-110"/>
       <use x="270.068359" xlink:href="#DejaVuSans-45"/>
       <use x="306.152344" xlink:href="#DejaVuSans-102"/>
       <use x="341.357422" xlink:href="#DejaVuSans-113"/>
      </g>
     </g>
    </g>
    <g id="xtick_12">
     <g id="line2d_12"/>
     <g id="text_12">
      <!-- BBRn-codel -->
      <g transform="translate(323.985 372.9165)rotate(-90)scale(0.1 -0.1)">
       <use xlink:href="#DejaVuSans-66"/>
       <use x="68.603516" xlink:href="#DejaVuSans-66"/>
       <use x="137.207031" xlink:href="#DejaVuSans-82"/>
       <use x="206.689453" xlink:href="#DejaVuSans-110"/>
       <use x="270.068359" xlink:href="#DejaVuSans-45"/>
       <use x="306.152344" xlink:href="#DejaVuSans-99"/>
       <use x="361.132812" xlink:href="#DejaVuSans-111"/>
       <use x="422.314453" xlink:href="#DejaVuSans-100"/>
       <use x="485.791016" xlink:href="#DejaVuSans-101"/>
       <use x="547.314453" xlink:href="#DejaVuSans-108"/>
      </g>
     </g>
    </g>
    <g id="xtick_13">
     <g id="line2d_13"/>
     <g id="text_13">
      <!-- BBRn-cake -->
      <g transform="translate(343.825 369.227437)rotate(-90)scale(0.1 -0.1)">
       <use xlink:href="#DejaVuSans-66"/>
       <use x="68.603516" xlink:href="#DejaVuSans-66"/>
       <use x="137.207031" xlink:href="#DejaVuSans-82"/>
       <use x="206.689453" xlink:href="#DejaVuSans-110"/>
       <use x="270.068359" xlink:href="#DejaVuSans-45"/>
       <use x="306.152344" xlink:href="#DejaVuSans-99"/>
       <use x="361.132812" xlink:href="#DejaVuSans-97"/>
       <use x="422.412109" xlink:href="#DejaVuSans-107"/>
       <use x="476.697266" xlink:href="#DejaVuSans-101"/>
      </g>
     </g>
    </g>
    <g id="xtick_14">
     <g id="line2d_14"/>
     <g id="text_14">
      <!-- BBRn-pie -->
      <g transform="translate(363.665 361.299312)rotate(-90)scale(0.1 -0.1)">
       <use xlink:href="#DejaVuSans-66"/>
       <use x="68.603516" xlink:href="#DejaVuSans-66"/>
       <use x="137.207031" xlink:href="#DejaVuSans-82"/>
       <use x="206.689453" xlink:href="#DejaVuSans-110"/>
       <use x="270.068359" xlink:href="#DejaVuSans-45"/>
       <use x="306.152344" xlink:href="#DejaVuSans-112"/>
       <use x="369.628906" xlink:href="#DejaVuSans-105"/>
       <use x="397.412109" xlink:href="#DejaVuSans-101"/>
      </g>
     </g>
    </g>
    <g id="xtick_15">
     <g id="line2d_15"/>
     <g id="text_15">
      <!-- BBRn-fq_codel -->
      <g transform="translate(383.365938 387.78525)rotate(-90)scale(0.1 -0.1)">
       <use xlink:href="#DejaVuSans-66"/>
       <use x="68.603516" xlink:href="#DejaVuSans-66"/>
       <use x="137.207031" xlink:href="#DejaVuSans-82"/>
       <use x="206.689453" xlink:href="#DejaVuSans-110"/>
       <use x="270.068359" xlink:href="#DejaVuSans-45"/>
       <use x="306.152344" xlink:href="#DejaVuSans-102"/>
       <use x="341.357422" xlink:href="#DejaVuSans-113"/>
       <use x="404.833984" xlink:href="#DejaVuSans-95"/>
       <use x="454.833984" xlink:href="#DejaVuSans-99"/>
       <use x="509.814453" xlink:href="#DejaVuSans-111"/>
       <use x="570.996094" xlink:href="#DejaVuSans-100"/>
       <use x="634.472656" xlink:href="#DejaVuSans-101"/>
       <use x="695.996094" xlink:href="#DejaVuSans-108"/>
      </g>
     </g>
    </g>
   </g>
   <g id="matplotlib.axis_2">
    <g id="ytick_1">
     <g id="line2d_16"/>
     <g id="text_16">
      <!-- 50 -->
      <g transform="translate(27.240625 265.462583)scale(0.1 -0.1)">
       <defs>
        <path d="M 10.796875 72.90625 
L 49.515625 72.90625 
L 49.515625 64.59375 
L 19.828125 64.59375 
L 19.828125 46.734375 
Q 21.96875 47.46875 24.109375 47.828125 
Q 26.265625 48.1875 28.421875 48.1875 
Q 40.625 48.1875 47.75 41.5 
Q 54.890625 34.8125 54.890625 23.390625 
Q 54.890625 11.625 47.5625 5.09375 
Q 40.234375 -1.421875 26.90625 -1.421875 
Q 22.3125 -1.421875 17.546875 -0.640625 
Q 12.796875 0.140625 7.71875 1.703125 
L 7.71875 11.625 
Q 12.109375 9.234375 16.796875 8.0625 
Q 21.484375 6.890625 26.703125 6.890625 
Q 35.15625 6.890625 40.078125 11.328125 
Q 45.015625 15.765625 45.015625 23.390625 
Q 45.015625 31 40.078125 35.4375 
Q 35.15625 39.890625 26.703125 39.890625 
Q 22.75 39.890625 18.8125 39.015625 
Q 14.890625 38.140625 10.796875 36.28125 
z
" id="DejaVuSans-53"/>
        <path d="M 31.78125 66.40625 
Q 24.171875 66.40625 20.328125 58.90625 
Q 16.5 51.421875 16.5 36.375 
Q 16.5 21.390625 20.328125 13.890625 
Q 24.171875 6.390625 31.78125 6.390625 
Q 39.453125 6.390625 43.28125 13.890625 
Q 47.125 21.390625 47.125 36.375 
Q 47.125 51.421875 43.28125 58.90625 
Q 39.453125 66.40625 31.78125 66.40625 
z
M 31.78125 74.21875 
Q 44.046875 74.21875 50.515625 64.515625 
Q 56.984375 54.828125 56.984375 36.375 
Q 56.984375 17.96875 50.515625 8.265625 
Q 44.046875 -1.421875 31.78125 -1.421875 
Q 19.53125 -1.421875 13.0625 8.265625 
Q 6.59375 17.96875 6.59375 36.375 
Q 6.59375 54.828125 13.0625 64.515625 
Q 19.53125 74.21875 31.78125 74.21875 
z
" id="DejaVuSans-48"/>
       </defs>
       <use xlink:href="#DejaVuSans-53"/>
       <use x="63.623047" xlink:href="#DejaVuSans-48"/>
      </g>
     </g>
    </g>
    <g id="ytick_2">
     <g id="line2d_17"/>
     <g id="text_17">
      <!-- 100 -->
      <g transform="translate(20.878125 210.774869)scale(0.1 -0.1)">
       <defs>
        <path d="M 12.40625 8.296875 
L 28.515625 8.296875 
L 28.515625 63.921875 
L 10.984375 60.40625 
L 10.984375 69.390625 
L 28.421875 72.90625 
L 38.28125 72.90625 
L 38.28125 8.296875 
L 54.390625 8.296875 
L 54.390625 0 
L 12.40625 0 
z
" id="DejaVuSans-49"/>
       </defs>
       <use xlink:href="#DejaVuSans-49"/>
       <use x="63.623047" xlink:href="#DejaVuSans-48"/>
       <use x="127.246094" xlink:href="#DejaVuSans-48"/>
      </g>
     </g>
    </g>
    <g id="ytick_3">
     <g id="line2d_18"/>
     <g id="text_18">
      <!-- 150 -->
      <g transform="translate(20.878125 156.087156)scale(0.1 -0.1)">
       <use xlink:href="#DejaVuSans-49"/>
       <use x="63.623047" xlink:href="#DejaVuSans-53"/>
       <use x="127.246094" xlink:href="#DejaVuSans-48"/>
      </g>
     </g>
    </g>
    <g id="ytick_4">
     <g id="line2d_19"/>
     <g id="text_19">
      <!-- 200 -->
      <g transform="translate(20.878125 101.399442)scale(0.1 -0.1)">
       <defs>
        <path d="M 19.1875 8.296875 
L 53.609375 8.296875 
L 53.609375 0 
L 7.328125 0 
L 7.328125 8.296875 
Q 12.9375 14.109375 22.625 23.890625 
Q 32.328125 33.6875 34.8125 36.53125 
Q 39.546875 41.84375 41.421875 45.53125 
Q 43.3125 49.21875 43.3125 52.78125 
Q 43.3125 58.59375 39.234375 62.25 
Q 35.15625 65.921875 28.609375 65.921875 
Q 23.96875 65.921875 18.8125 64.3125 
Q 13.671875 62.703125 7.8125 59.421875 
L 7.8125 69.390625 
Q 13.765625 71.78125 18.9375 73 
Q 24.125 74.21875 28.421875 74.21875 
Q 39.75 74.21875 46.484375 68.546875 
Q 53.21875 62.890625 53.21875 53.421875 
Q 53.21875 48.921875 51.53125 44.890625 
Q 49.859375 40.875 45.40625 35.40625 
Q 44.1875 33.984375 37.640625 27.21875 
Q 31.109375 20.453125 19.1875 8.296875 
z
" id="DejaVuSans-50"/>
       </defs>
       <use xlink:href="#DejaVuSans-50"/>
       <use x="63.623047" xlink:href="#DejaVuSans-48"/>
       <use x="127.246094" xlink:href="#DejaVuSans-48"/>
      </g>
     </g>
    </g>
    <g id="ytick_5">
     <g id="line2d_20"/>
    </g>
    <g id="ytick_6">
     <g id="line2d_21"/>
    </g>
    <g id="ytick_7">
     <g id="line2d_22"/>
    </g>
    <g id="ytick_8">
     <g id="line2d_23"/>
    </g>
    <g id="ytick_9">
     <g id="line2d_24"/>
    </g>
    <g id="ytick_10">
     <g id="line2d_25"/>
    </g>
    <g id="ytick_11">
     <g id="line2d_26"/>
    </g>
    <g id="ytick_12">
     <g id="line2d_27"/>
    </g>
    <g id="ytick_13">
     <g id="line2d_28"/>
    </g>
    <g id="ytick_14">
     <g id="line2d_29"/>
    </g>
    <g id="ytick_15">
     <g id="line2d_30"/>
    </g>
    <g id="ytick_16">
     <g id="line2d_31"/>
    </g>
    <g id="ytick_17">
     <g id="line2d_32"/>
    </g>
    <g id="ytick_18">
     <g id="line2d_33"/>
    </g>
    <g id="ytick_19">
     <g id="line2d_34"/>
    </g>
    <g id="ytick_20">
     <g id="line2d_35"/>
    </g>
    <g id="ytick_21">
     <g id="line2d_36"/>
    </g>
    <g id="ytick_22">
     <g id="line2d_37"/>
    </g>
    <g id="ytick_23">
     <g id="line2d_38"/>
    </g>
    <g id="ytick_24">
     <g id="line2d_39"/>
    </g>
    <g id="text_20">
     <!-- Mbits/s -->
     <g transform="translate(14.798437 196.57925)rotate(-90)scale(0.1 -0.1)">
      <defs>
       <path d="M 9.8125 72.90625 
L 24.515625 72.90625 
L 43.109375 23.296875 
L 61.8125 72.90625 
L 76.515625 72.90625 
L 76.515625 0 
L 66.890625 0 
L 66.890625 64.015625 
L 48.09375 14.015625 
L 38.1875 14.015625 
L 19.390625 64.015625 
L 19.390625 0 
L 9.8125 0 
z
" id="DejaVuSans-77"/>
       <path d="M 48.6875 27.296875 
Q 48.6875 37.203125 44.609375 42.84375 
Q 40.53125 48.484375 33.40625 48.484375 
Q 26.265625 48.484375 22.1875 42.84375 
Q 18.109375 37.203125 18.109375 27.296875 
Q 18.109375 17.390625 22.1875 11.75 
Q 26.265625 6.109375 33.40625 6.109375 
Q 40.53125 6.109375 44.609375 11.75 
Q 48.6875 17.390625 48.6875 27.296875 
z
M 18.109375 46.390625 
Q 20.953125 51.265625 25.265625 53.625 
Q 29.59375 56 35.59375 56 
Q 45.5625 56 51.78125 48.09375 
Q 58.015625 40.1875 58.015625 27.296875 
Q 58.015625 14.40625 51.78125 6.484375 
Q 45.5625 -1.421875 35.59375 -1.421875 
Q 29.59375 -1.421875 25.265625 0.953125 
Q 20.953125 3.328125 18.109375 8.203125 
L 18.109375 0 
L 9.078125 0 
L 9.078125 75.984375 
L 18.109375 75.984375 
z
" id="DejaVuSans-98"/>
       <path d="M 18.3125 70.21875 
L 18.3125 54.6875 
L 36.8125 54.6875 
L 36.8125 47.703125 
L 18.3125 47.703125 
L 18.3125 18.015625 
Q 18.3125 11.328125 20.140625 9.421875 
Q 21.96875 7.515625 27.59375 7.515625 
L 36.8125 7.515625 
L 36.8125 0 
L 27.59375 0 
Q 17.1875 0 13.234375 3.875 
Q 9.28125 7.765625 9.28125 18.015625 
L 9.28125 47.703125 
L 2.6875 47.703125 
L 2.6875 54.6875 
L 9.28125 54.6875 
L 9.28125 70.21875 
z
" id="DejaVuSans-116"/>
       <path d="M 44.28125 53.078125 
L 44.28125 44.578125 
Q 40.484375 46.53125 36.375 47.5 
Q 32.28125 48.484375 27.875 48.484375 
Q 21.1875 48.484375 17.84375 46.4375 
Q 14.5 44.390625 14.5 40.28125 
Q 14.5 37.15625 16.890625 35.375 
Q 19.28125 33.59375 26.515625 31.984375 
L 29.59375 31.296875 
Q 39.15625 29.25 43.1875 25.515625 
Q 47.21875 21.78125 47.21875 15.09375 
Q 47.21875 7.46875 41.1875 3.015625 
Q 35.15625 -1.421875 24.609375 -1.421875 
Q 20.21875 -1.421875 15.453125 -0.5625 
Q 10.6875 0.296875 5.421875 2 
L 5.421875 11.28125 
Q 10.40625 8.6875 15.234375 7.390625 
Q 20.0625 6.109375 24.8125 6.109375 
Q 31.15625 6.109375 34.5625 8.28125 
Q 37.984375 10.453125 37.984375 14.40625 
Q 37.984375 18.0625 35.515625 20.015625 
Q 33.0625 21.96875 24.703125 23.78125 
L 21.578125 24.515625 
Q 13.234375 26.265625 9.515625 29.90625 
Q 5.8125 33.546875 5.8125 39.890625 
Q 5.8125 47.609375 11.28125 51.796875 
Q 16.75 56 26.8125 56 
Q 31.78125 56 36.171875 55.265625 
Q 40.578125 54.546875 44.28125 53.078125 
z
" id="DejaVuSans-115"/>
       <path d="M 25.390625 72.90625 
L 33.6875 72.90625 
L 8.296875 -9.28125 
L 0 -9.28125 
z
" id="DejaVuSans-47"/>
      </defs>
      <use xlink:href="#DejaVuSans-77"/>
      <use x="86.279297" xlink:href="#DejaVuSans-98"/>
      <use x="149.755859" xlink:href="#DejaVuSans-105"/>
      <use x="177.539062" xlink:href="#DejaVuSans-116"/>
      <use x="216.748047" xlink:href="#DejaVuSans-115"/>
      <use x="268.847656" xlink:href="#DejaVuSans-47"/>
      <use x="302.539062" xlink:href="#DejaVuSans-115"/>
     </g>
    </g>
   </g>
   <g id="line2d_40">
    <path clip-path="url(#p7e3faf66ca)" d="M 58.345625 197.809653 
L 68.265625 197.809653 
L 68.265625 145.540102 
L 58.345625 145.540102 
L 58.345625 197.809653 
" style="fill:none;stroke:#1b9e77;stroke-linecap:round;"/>
   </g>
   <g id="line2d_41">
    <path clip-path="url(#p7e3faf66ca)" d="M 63.305625 197.809653 
L 63.305625 242.338094 
" style="fill:none;stroke:#1b9e77;stroke-linecap:round;"/>
   </g>
   <g id="line2d_42">
    <path clip-path="url(#p7e3faf66ca)" d="M 63.305625 145.540102 
L 63.305625 83.334763 
" style="fill:none;stroke:#1b9e77;stroke-linecap:round;"/>
   </g>
   <g id="line2d_43">
    <path clip-path="url(#p7e3faf66ca)" d="M 60.825625 242.338094 
L 65.785625 242.338094 
" style="fill:none;stroke:#1b9e77;stroke-linecap:round;"/>
   </g>
   <g id="line2d_44">
    <path clip-path="url(#p7e3faf66ca)" d="M 60.825625 83.334763 
L 65.785625 83.334763 
" style="fill:none;stroke:#1b9e77;stroke-linecap:round;"/>
   </g>
   <g id="line2d_45"/>
   <g id="line2d_46">
    <path clip-path="url(#p7e3faf66ca)" d="M 78.185625 202.259295 
L 88.105625 202.259295 
L 88.105625 172.664318 
L 78.185625 172.664318 
L 78.185625 202.259295 
" style="fill:none;stroke:#d95f02;stroke-linecap:round;"/>
   </g>
   <g id="line2d_47">
    <path clip-path="url(#p7e3faf66ca)" d="M 83.145625 202.259295 
L 83.145625 246.106414 
" style="fill:none;stroke:#d95f02;stroke-linecap:round;"/>
   </g>
   <g id="line2d_48">
    <path clip-path="url(#p7e3faf66ca)" d="M 83.145625 172.664318 
L 83.145625 131.458936 
" style="fill:none;stroke:#d95f02;stroke-linecap:round;"/>
   </g>
   <g id="line2d_49">
    <path clip-path="url(#p7e3faf66ca)" d="M 80.665625 246.106414 
L 85.625625 246.106414 
" style="fill:none;stroke:#d95f02;stroke-linecap:round;"/>
   </g>
   <g id="line2d_50">
    <path clip-path="url(#p7e3faf66ca)" d="M 80.665625 131.458936 
L 85.625625 131.458936 
" style="fill:none;stroke:#d95f02;stroke-linecap:round;"/>
   </g>
   <g id="line2d_51">
    <defs>
     <path d="M -3 0 
L 3 0 
M 0 3 
L 0 -3 
" id="m31c14a0f00" style="stroke:#d95f02;"/>
    </defs>
    <g clip-path="url(#p7e3faf66ca)">
     <use style="fill:#0000ff;stroke:#d95f02;" x="83.145625" xlink:href="#m31c14a0f00" y="259.191109"/>
     <use style="fill:#0000ff;stroke:#d95f02;" x="83.145625" xlink:href="#m31c14a0f00" y="118.480484"/>
     <use style="fill:#0000ff;stroke:#d95f02;" x="83.145625" xlink:href="#m31c14a0f00" y="110.427113"/>
     <use style="fill:#0000ff;stroke:#d95f02;" x="83.145625" xlink:href="#m31c14a0f00" y="102.676056"/>
     <use style="fill:#0000ff;stroke:#d95f02;" x="83.145625" xlink:href="#m31c14a0f00" y="95.384935"/>
     <use style="fill:#0000ff;stroke:#d95f02;" x="83.145625" xlink:href="#m31c14a0f00" y="84.714385"/>
     <use style="fill:#0000ff;stroke:#d95f02;" x="83.145625" xlink:href="#m31c14a0f00" y="83.818466"/>
     <use style="fill:#0000ff;stroke:#d95f02;" x="83.145625" xlink:href="#m31c14a0f00" y="87.959365"/>
     <use style="fill:#0000ff;stroke:#d95f02;" x="83.145625" xlink:href="#m31c14a0f00" y="86.898492"/>
     <use style="fill:#0000ff;stroke:#d95f02;" x="83.145625" xlink:href="#m31c14a0f00" y="91.518174"/>
     <use style="fill:#0000ff;stroke:#d95f02;" x="83.145625" xlink:href="#m31c14a0f00" y="104.033771"/>
     <use style="fill:#0000ff;stroke:#d95f02;" x="83.145625" xlink:href="#m31c14a0f00" y="114.168777"/>
     <use style="fill:#0000ff;stroke:#d95f02;" x="83.145625" xlink:href="#m31c14a0f00" y="127.294389"/>
    </g>
   </g>
   <g id="line2d_52">
    <path clip-path="url(#p7e3faf66ca)" d="M 98.025625 174.745686 
L 107.945625 174.745686 
L 107.945625 133.272259 
L 98.025625 133.272259 
L 98.025625 174.745686 
" style="fill:none;stroke:#7570b3;stroke-linecap:round;"/>
   </g>
   <g id="line2d_53">
    <path clip-path="url(#p7e3faf66ca)" d="M 102.985625 174.745686 
L 102.985625 230.275627 
" style="fill:none;stroke:#7570b3;stroke-linecap:round;"/>
   </g>
   <g id="line2d_54">
    <path clip-path="url(#p7e3faf66ca)" d="M 102.985625 133.272259 
L 102.985625 72.209349 
" style="fill:none;stroke:#7570b3;stroke-linecap:round;"/>
   </g>
   <g id="line2d_55">
    <path clip-path="url(#p7e3faf66ca)" d="M 100.505625 230.275627 
L 105.465625 230.275627 
" style="fill:none;stroke:#7570b3;stroke-linecap:round;"/>
   </g>
   <g id="line2d_56">
    <path clip-path="url(#p7e3faf66ca)" d="M 100.505625 72.209349 
L 105.465625 72.209349 
" style="fill:none;stroke:#7570b3;stroke-linecap:round;"/>
   </g>
   <g id="line2d_57">
    <defs>
     <path d="M -3 0 
L 3 0 
M 0 3 
L 0 -3 
" id="m42a372309a" style="stroke:#7570b3;"/>
    </defs>
    <g clip-path="url(#p7e3faf66ca)">
     <use style="fill:#0000ff;stroke:#7570b3;" x="102.985625" xlink:href="#m42a372309a" y="70.438346"/>
     <use style="fill:#0000ff;stroke:#7570b3;" x="102.985625" xlink:href="#m42a372309a" y="59.823719"/>
     <use style="fill:#0000ff;stroke:#7570b3;" x="102.985625" xlink:href="#m42a372309a" y="56.206998"/>
     <use style="fill:#0000ff;stroke:#7570b3;" x="102.985625" xlink:href="#m42a372309a" y="56.9032"/>
     <use style="fill:#0000ff;stroke:#7570b3;" x="102.985625" xlink:href="#m42a372309a" y="60.630591"/>
     <use style="fill:#0000ff;stroke:#7570b3;" x="102.985625" xlink:href="#m42a372309a" y="62.613587"/>
     <use style="fill:#0000ff;stroke:#7570b3;" x="102.985625" xlink:href="#m42a372309a" y="65.98022"/>
    </g>
   </g>
   <g id="line2d_58">
    <path clip-path="url(#p7e3faf66ca)" d="M 117.865625 216.630311 
L 127.785625 216.630311 
L 127.785625 180.313603 
L 117.865625 180.313603 
L 117.865625 216.630311 
" style="fill:none;stroke:#e7298a;stroke-linecap:round;"/>
   </g>
   <g id="line2d_59">
    <path clip-path="url(#p7e3faf66ca)" d="M 122.825625 216.630311 
L 122.825625 254.700372 
" style="fill:none;stroke:#e7298a;stroke-linecap:round;"/>
   </g>
   <g id="line2d_60">
    <path clip-path="url(#p7e3faf66ca)" d="M 122.825625 180.313603 
L 122.825625 142.740087 
" style="fill:none;stroke:#e7298a;stroke-linecap:round;"/>
   </g>
   <g id="line2d_61">
    <path clip-path="url(#p7e3faf66ca)" d="M 120.345625 254.700372 
L 125.305625 254.700372 
" style="fill:none;stroke:#e7298a;stroke-linecap:round;"/>
   </g>
   <g id="line2d_62">
    <path clip-path="url(#p7e3faf66ca)" d="M 120.345625 142.740087 
L 125.305625 142.740087 
" style="fill:none;stroke:#e7298a;stroke-linecap:round;"/>
   </g>
   <g id="line2d_63"/>
   <g id="line2d_64">
    <path clip-path="url(#p7e3faf66ca)" d="M 137.705625 176.72758 
L 147.625625 176.72758 
L 147.625625 119.872073 
L 137.705625 119.872073 
L 137.705625 176.72758 
" style="fill:none;stroke:#66a61e;stroke-linecap:round;"/>
   </g>
   <g id="line2d_65">
    <path clip-path="url(#p7e3faf66ca)" d="M 142.665625 176.72758 
L 142.665625 240.67916 
" style="fill:none;stroke:#66a61e;stroke-linecap:round;"/>
   </g>
   <g id="line2d_66">
    <path clip-path="url(#p7e3faf66ca)" d="M 142.665625 119.872073 
L 142.665625 60.586041 
" style="fill:none;stroke:#66a61e;stroke-linecap:round;"/>
   </g>
   <g id="line2d_67">
    <path clip-path="url(#p7e3faf66ca)" d="M 140.185625 240.67916 
L 145.145625 240.67916 
" style="fill:none;stroke:#66a61e;stroke-linecap:round;"/>
   </g>
   <g id="line2d_68">
    <path clip-path="url(#p7e3faf66ca)" d="M 140.185625 60.586041 
L 145.145625 60.586041 
" style="fill:none;stroke:#66a61e;stroke-linecap:round;"/>
   </g>
   <g id="line2d_69"/>
   <g id="line2d_70">
    <path clip-path="url(#p7e3faf66ca)" d="M 162.505625 311.904 
L 162.505625 45.792 
" style="fill:none;stroke:#000000;stroke-dasharray:0.5,0.825;stroke-dashoffset:0;stroke-width:0.5;"/>
   </g>
   <g id="line2d_71">
    <path clip-path="url(#p7e3faf66ca)" d="M 177.385625 165.901397 
L 187.305625 165.901397 
L 187.305625 119.562976 
L 177.385625 119.562976 
L 177.385625 165.901397 
" style="fill:none;stroke:#1b9e77;stroke-linecap:round;"/>
   </g>
   <g id="line2d_72">
    <path clip-path="url(#p7e3faf66ca)" d="M 182.345625 165.901397 
L 182.345625 217.968798 
" style="fill:none;stroke:#1b9e77;stroke-linecap:round;"/>
   </g>
   <g id="line2d_73">
    <path clip-path="url(#p7e3faf66ca)" d="M 182.345625 119.562976 
L 182.345625 81.353102 
" style="fill:none;stroke:#1b9e77;stroke-linecap:round;"/>
   </g>
   <g id="line2d_74">
    <path clip-path="url(#p7e3faf66ca)" d="M 179.865625 217.968798 
L 184.825625 217.968798 
" style="fill:none;stroke:#1b9e77;stroke-linecap:round;"/>
   </g>
   <g id="line2d_75">
    <path clip-path="url(#p7e3faf66ca)" d="M 179.865625 81.353102 
L 184.825625 81.353102 
" style="fill:none;stroke:#1b9e77;stroke-linecap:round;"/>
   </g>
   <g id="line2d_76"/>
   <g id="line2d_77">
    <path clip-path="url(#p7e3faf66ca)" d="M 197.225625 127.435742 
L 207.145625 127.435742 
L 207.145625 94.710169 
L 197.225625 94.710169 
L 197.225625 127.435742 
" style="fill:none;stroke:#d95f02;stroke-linecap:round;"/>
   </g>
   <g id="line2d_78">
    <path clip-path="url(#p7e3faf66ca)" d="M 202.185625 127.435742 
L 202.185625 174.106935 
" style="fill:none;stroke:#d95f02;stroke-linecap:round;"/>
   </g>
   <g id="line2d_79">
    <path clip-path="url(#p7e3faf66ca)" d="M 202.185625 94.710169 
L 202.185625 67.195668 
" style="fill:none;stroke:#d95f02;stroke-linecap:round;"/>
   </g>
   <g id="line2d_80">
    <path clip-path="url(#p7e3faf66ca)" d="M 199.705625 174.106935 
L 204.665625 174.106935 
" style="fill:none;stroke:#d95f02;stroke-linecap:round;"/>
   </g>
   <g id="line2d_81">
    <path clip-path="url(#p7e3faf66ca)" d="M 199.705625 67.195668 
L 204.665625 67.195668 
" style="fill:none;stroke:#d95f02;stroke-linecap:round;"/>
   </g>
   <g id="line2d_82">
    <g clip-path="url(#p7e3faf66ca)">
     <use style="fill:#0000ff;stroke:#d95f02;" x="202.185625" xlink:href="#m31c14a0f00" y="215.419085"/>
     <use style="fill:#0000ff;stroke:#d95f02;" x="202.185625" xlink:href="#m31c14a0f00" y="202.179972"/>
     <use style="fill:#0000ff;stroke:#d95f02;" x="202.185625" xlink:href="#m31c14a0f00" y="187.924839"/>
     <use style="fill:#0000ff;stroke:#d95f02;" x="202.185625" xlink:href="#m31c14a0f00" y="179.544045"/>
     <use style="fill:#0000ff;stroke:#d95f02;" x="202.185625" xlink:href="#m31c14a0f00" y="192.67669"/>
     <use style="fill:#0000ff;stroke:#d95f02;" x="202.185625" xlink:href="#m31c14a0f00" y="205.377247"/>
     <use style="fill:#0000ff;stroke:#d95f02;" x="202.185625" xlink:href="#m31c14a0f00" y="215.78915"/>
     <use style="fill:#0000ff;stroke:#d95f02;" x="202.185625" xlink:href="#m31c14a0f00" y="224.449664"/>
     <use style="fill:#0000ff;stroke:#d95f02;" x="202.185625" xlink:href="#m31c14a0f00" y="229.436688"/>
     <use style="fill:#0000ff;stroke:#d95f02;" x="202.185625" xlink:href="#m31c14a0f00" y="229.352649"/>
     <use style="fill:#0000ff;stroke:#d95f02;" x="202.185625" xlink:href="#m31c14a0f00" y="225.869178"/>
     <use style="fill:#0000ff;stroke:#d95f02;" x="202.185625" xlink:href="#m31c14a0f00" y="219.018813"/>
     <use style="fill:#0000ff;stroke:#d95f02;" x="202.185625" xlink:href="#m31c14a0f00" y="210.472529"/>
     <use style="fill:#0000ff;stroke:#d95f02;" x="202.185625" xlink:href="#m31c14a0f00" y="200.75211"/>
     <use style="fill:#0000ff;stroke:#d95f02;" x="202.185625" xlink:href="#m31c14a0f00" y="189.647256"/>
     <use style="fill:#0000ff;stroke:#d95f02;" x="202.185625" xlink:href="#m31c14a0f00" y="177.470792"/>
     <use style="fill:#0000ff;stroke:#d95f02;" x="202.185625" xlink:href="#m31c14a0f00" y="192.757545"/>
    </g>
   </g>
   <g id="line2d_83">
    <path clip-path="url(#p7e3faf66ca)" d="M 217.065625 186.499612 
L 226.985625 186.499612 
L 226.985625 136.95364 
L 217.065625 136.95364 
L 217.065625 186.499612 
" style="fill:none;stroke:#7570b3;stroke-linecap:round;"/>
   </g>
   <g id="line2d_84">
    <path clip-path="url(#p7e3faf66ca)" d="M 222.025625 186.499612 
L 222.025625 250.497712 
" style="fill:none;stroke:#7570b3;stroke-linecap:round;"/>
   </g>
   <g id="line2d_85">
    <path clip-path="url(#p7e3faf66ca)" d="M 222.025625 136.95364 
L 222.025625 101.968298 
" style="fill:none;stroke:#7570b3;stroke-linecap:round;"/>
   </g>
   <g id="line2d_86">
    <path clip-path="url(#p7e3faf66ca)" d="M 219.545625 250.497712 
L 224.505625 250.497712 
" style="fill:none;stroke:#7570b3;stroke-linecap:round;"/>
   </g>
   <g id="line2d_87">
    <path clip-path="url(#p7e3faf66ca)" d="M 219.545625 101.968298 
L 224.505625 101.968298 
" style="fill:none;stroke:#7570b3;stroke-linecap:round;"/>
   </g>
   <g id="line2d_88"/>
   <g id="line2d_89">
    <path clip-path="url(#p7e3faf66ca)" d="M 236.905625 135.072003 
L 246.825625 135.072003 
L 246.825625 79.659636 
L 236.905625 79.659636 
L 236.905625 135.072003 
" style="fill:none;stroke:#e7298a;stroke-linecap:round;"/>
   </g>
   <g id="line2d_90">
    <path clip-path="url(#p7e3faf66ca)" d="M 241.865625 135.072003 
L 241.865625 200.026217 
" style="fill:none;stroke:#e7298a;stroke-linecap:round;"/>
   </g>
   <g id="line2d_91">
    <path clip-path="url(#p7e3faf66ca)" d="M 241.865625 79.659636 
L 241.865625 48.400941 
" style="fill:none;stroke:#e7298a;stroke-linecap:round;"/>
   </g>
   <g id="line2d_92">
    <path clip-path="url(#p7e3faf66ca)" d="M 239.385625 200.026217 
L 244.345625 200.026217 
" style="fill:none;stroke:#e7298a;stroke-linecap:round;"/>
   </g>
   <g id="line2d_93">
    <path clip-path="url(#p7e3faf66ca)" d="M 239.385625 48.400941 
L 244.345625 48.400941 
" style="fill:none;stroke:#e7298a;stroke-linecap:round;"/>
   </g>
   <g id="line2d_94"/>
   <g id="line2d_95">
    <path clip-path="url(#p7e3faf66ca)" d="M 256.745625 229.517021 
L 266.665625 229.517021 
L 266.665625 177.108917 
L 256.745625 177.108917 
L 256.745625 229.517021 
" style="fill:none;stroke:#66a61e;stroke-linecap:round;"/>
   </g>
   <g id="line2d_96">
    <path clip-path="url(#p7e3faf66ca)" d="M 261.705625 229.517021 
L 261.705625 307.869149 
" style="fill:none;stroke:#66a61e;stroke-linecap:round;"/>
   </g>
   <g id="line2d_97">
    <path clip-path="url(#p7e3faf66ca)" d="M 261.705625 177.108917 
L 261.705625 111.768357 
" style="fill:none;stroke:#66a61e;stroke-linecap:round;"/>
   </g>
   <g id="line2d_98">
    <path clip-path="url(#p7e3faf66ca)" d="M 259.225625 307.869149 
L 264.185625 307.869149 
" style="fill:none;stroke:#66a61e;stroke-linecap:round;"/>
   </g>
   <g id="line2d_99">
    <path clip-path="url(#p7e3faf66ca)" d="M 259.225625 111.768357 
L 264.185625 111.768357 
" style="fill:none;stroke:#66a61e;stroke-linecap:round;"/>
   </g>
   <g id="line2d_100">
    <defs>
     <path d="M -3 0 
L 3 0 
M 0 3 
L 0 -3 
" id="me426c9d271" style="stroke:#66a61e;"/>
    </defs>
    <g clip-path="url(#p7e3faf66ca)">
     <use style="fill:#0000ff;stroke:#66a61e;" x="261.705625" xlink:href="#me426c9d271" y="308.323296"/>
     <use style="fill:#0000ff;stroke:#66a61e;" x="261.705625" xlink:href="#me426c9d271" y="309.039146"/>
     <use style="fill:#0000ff;stroke:#66a61e;" x="261.705625" xlink:href="#me426c9d271" y="309.295059"/>
     <use style="fill:#0000ff;stroke:#66a61e;" x="261.705625" xlink:href="#me426c9d271" y="309.20964"/>
     <use style="fill:#0000ff;stroke:#66a61e;" x="261.705625" xlink:href="#me426c9d271" y="308.868226"/>
     <use style="fill:#0000ff;stroke:#66a61e;" x="261.705625" xlink:href="#me426c9d271" y="308.57177"/>
     <use style="fill:#0000ff;stroke:#66a61e;" x="261.705625" xlink:href="#me426c9d271" y="308.148302"/>
     <use style="fill:#0000ff;stroke:#66a61e;" x="261.705625" xlink:href="#me426c9d271" y="308.619507"/>
     <use style="fill:#0000ff;stroke:#66a61e;" x="261.705625" xlink:href="#me426c9d271" y="308.875214"/>
     <use style="fill:#0000ff;stroke:#66a61e;" x="261.705625" xlink:href="#me426c9d271" y="308.641694"/>
    </g>
   </g>
   <g id="line2d_101">
    <path clip-path="url(#p7e3faf66ca)" d="M 281.545625 311.904 
L 281.545625 45.792 
" style="fill:none;stroke:#000000;stroke-dasharray:0.5,0.825;stroke-dashoffset:0;stroke-width:0.5;"/>
   </g>
   <g id="line2d_102">
    <path clip-path="url(#p7e3faf66ca)" d="M 58.345625 168.369519 
L 68.265625 168.369519 
" style="fill:none;stroke:#ff7f0e;stroke-linecap:round;"/>
   </g>
   <g id="line2d_103">
    <path clip-path="url(#p7e3faf66ca)" d="M 78.185625 188.842884 
L 88.105625 188.842884 
" style="fill:none;stroke:#ff7f0e;stroke-linecap:round;"/>
   </g>
   <g id="line2d_104">
    <path clip-path="url(#p7e3faf66ca)" d="M 98.025625 155.800991 
L 107.945625 155.800991 
" style="fill:none;stroke:#ff7f0e;stroke-linecap:round;"/>
   </g>
   <g id="line2d_105">
    <path clip-path="url(#p7e3faf66ca)" d="M 117.865625 197.985504 
L 127.785625 197.985504 
" style="fill:none;stroke:#ff7f0e;stroke-linecap:round;"/>
   </g>
   <g id="line2d_106">
    <path clip-path="url(#p7e3faf66ca)" d="M 137.705625 142.501707 
L 147.625625 142.501707 
" style="fill:none;stroke:#ff7f0e;stroke-linecap:round;"/>
   </g>
   <g id="line2d_107">
    <path clip-path="url(#p7e3faf66ca)" d="M 177.385625 139.088385 
L 187.305625 139.088385 
" style="fill:none;stroke:#ff7f0e;stroke-linecap:round;"/>
   </g>
   <g id="line2d_108">
    <path clip-path="url(#p7e3faf66ca)" d="M 197.225625 105.800319 
L 207.145625 105.800319 
" style="fill:none;stroke:#ff7f0e;stroke-linecap:round;"/>
   </g>
   <g id="line2d_109">
    <path clip-path="url(#p7e3faf66ca)" d="M 217.065625 156.328901 
L 226.985625 156.328901 
" style="fill:none;stroke:#ff7f0e;stroke-linecap:round;"/>
   </g>
   <g id="line2d_110">
    <path clip-path="url(#p7e3faf66ca)" d="M 236.905625 110.734271 
L 246.825625 110.734271 
" style="fill:none;stroke:#ff7f0e;stroke-linecap:round;"/>
   </g>
   <g id="line2d_111">
    <path clip-path="url(#p7e3faf66ca)" d="M 256.745625 199.099785 
L 266.665625 199.099785 
" style="fill:none;stroke:#ff7f0e;stroke-linecap:round;"/>
   </g>
   <g id="patch_3">
    <path d="M 43.465625 311.904 
L 43.465625 45.792 
" style="fill:none;"/>
   </g>
   <g id="patch_4">
    <path d="M 400.585625 311.904 
L 400.585625 45.792 
" style="fill:none;"/>
   </g>
   <g id="patch_5">
    <path d="M 43.465625 311.904 
L 400.585625 311.904 
" style="fill:none;"/>
   </g>
   <g id="patch_6">
    <path d="M 43.465625 45.792 
L 400.585625 45.792 
" style="fill:none;"/>
   </g>
   <g id="text_21">
    <!-- Download -->
    <g transform="translate(78.131719 43.13088)scale(0.1 -0.1)">
     <defs>
      <path d="M 19.671875 64.796875 
L 19.671875 8.109375 
L 31.59375 8.109375 
Q 46.6875 8.109375 53.6875 14.9375 
Q 60.6875 21.78125 60.6875 36.53125 
Q 60.6875 51.171875 53.6875 57.984375 
Q 46.6875 64.796875 31.59375 64.796875 
z
M 9.8125 72.90625 
L 30.078125 72.90625 
Q 51.265625 72.90625 61.171875 64.09375 
Q 71.09375 55.28125 71.09375 36.53125 
Q 71.09375 17.671875 61.125 8.828125 
Q 51.171875 0 30.078125 0 
L 9.8125 0 
z
" id="DejaVuSans-68"/>
      <path d="M 4.203125 54.6875 
L 13.1875 54.6875 
L 24.421875 12.015625 
L 35.59375 54.6875 
L 46.1875 54.6875 
L 57.421875 12.015625 
L 68.609375 54.6875 
L 77.59375 54.6875 
L 63.28125 0 
L 52.6875 0 
L 40.921875 44.828125 
L 29.109375 0 
L 18.5 0 
z
" id="DejaVuSans-119"/>
     </defs>
     <use xlink:href="#DejaVuSans-68"/>
     <use x="77.001953" xlink:href="#DejaVuSans-111"/>
     <use x="138.183594" xlink:href="#DejaVuSans-119"/>
     <use x="219.970703" xlink:href="#DejaVuSans-110"/>
     <use x="283.349609" xlink:href="#DejaVuSans-108"/>
     <use x="311.132812" xlink:href="#DejaVuSans-111"/>
     <use x="372.314453" xlink:href="#DejaVuSans-97"/>
     <use x="433.59375" xlink:href="#DejaVuSans-100"/>
    </g>
   </g>
   <g id="text_22">
    <!-- Upload -->
    <g transform="translate(204.505313 43.13088)scale(0.1 -0.1)">
     <defs>
      <path d="M 8.6875 72.90625 
L 18.609375 72.90625 
L 18.609375 28.609375 
Q 18.609375 16.890625 22.84375 11.734375 
Q 27.09375 6.59375 36.625 6.59375 
Q 46.09375 6.59375 50.34375 11.734375 
Q 54.59375 16.890625 54.59375 28.609375 
L 54.59375 72.90625 
L 64.5 72.90625 
L 64.5 27.390625 
Q 64.5 13.140625 57.4375 5.859375 
Q 50.390625 -1.421875 36.625 -1.421875 
Q 22.796875 -1.421875 15.734375 5.859375 
Q 8.6875 13.140625 8.6875 27.390625 
z
" id="DejaVuSans-85"/>
     </defs>
     <use xlink:href="#DejaVuSans-85"/>
     <use x="73.193359" xlink:href="#DejaVuSans-112"/>
     <use x="136.669922" xlink:href="#DejaVuSans-108"/>
     <use x="164.453125" xlink:href="#DejaVuSans-111"/>
     <use x="225.634766" xlink:href="#DejaVuSans-97"/>
     <use x="286.914062" xlink:href="#DejaVuSans-100"/>
    </g>
   </g>
   <g id="text_23">
    <!-- Ping (ms) -->
    <g transform="translate(317.465625 43.13088)scale(0.1 -0.1)">
     <defs>
      <path d="M 19.671875 64.796875 
L 19.671875 37.40625 
L 32.078125 37.40625 
Q 38.96875 37.40625 42.71875 40.96875 
Q 46.484375 44.53125 46.484375 51.125 
Q 46.484375 57.671875 42.71875 61.234375 
Q 38.96875 64.796875 32.078125 64.796875 
z
M 9.8125 72.90625 
L 32.078125 72.90625 
Q 44.34375 72.90625 50.609375 67.359375 
Q 56.890625 61.8125 56.890625 51.125 
Q 56.890625 40.328125 50.609375 34.8125 
Q 44.34375 29.296875 32.078125 29.296875 
L 19.671875 29.296875 
L 19.671875 0 
L 9.8125 0 
z
" id="DejaVuSans-80"/>
      <path d="M 45.40625 27.984375 
Q 45.40625 37.75 41.375 43.109375 
Q 37.359375 48.484375 30.078125 48.484375 
Q 22.859375 48.484375 18.828125 43.109375 
Q 14.796875 37.75 14.796875 27.984375 
Q 14.796875 18.265625 18.828125 12.890625 
Q 22.859375 7.515625 30.078125 7.515625 
Q 37.359375 7.515625 41.375 12.890625 
Q 45.40625 18.265625 45.40625 27.984375 
z
M 54.390625 6.78125 
Q 54.390625 -7.171875 48.1875 -13.984375 
Q 42 -20.796875 29.203125 -20.796875 
Q 24.46875 -20.796875 20.265625 -20.09375 
Q 16.0625 -19.390625 12.109375 -17.921875 
L 12.109375 -9.1875 
Q 16.0625 -11.328125 19.921875 -12.34375 
Q 23.78125 -13.375 27.78125 -13.375 
Q 36.625 -13.375 41.015625 -8.765625 
Q 45.40625 -4.15625 45.40625 5.171875 
L 45.40625 9.625 
Q 42.625 4.78125 38.28125 2.390625 
Q 33.9375 0 27.875 0 
Q 17.828125 0 11.671875 7.65625 
Q 5.515625 15.328125 5.515625 27.984375 
Q 5.515625 40.671875 11.671875 48.328125 
Q 17.828125 56 27.875 56 
Q 33.9375 56 38.28125 53.609375 
Q 42.625 51.21875 45.40625 46.390625 
L 45.40625 54.6875 
L 54.390625 54.6875 
z
" id="DejaVuSans-103"/>
      <path id="DejaVuSans-32"/>
      <path d="M 31 75.875 
Q 24.46875 64.65625 21.28125 53.65625 
Q 18.109375 42.671875 18.109375 31.390625 
Q 18.109375 20.125 21.3125 9.0625 
Q 24.515625 -2 31 -13.1875 
L 23.1875 -13.1875 
Q 15.875 -1.703125 12.234375 9.375 
Q 8.59375 20.453125 8.59375 31.390625 
Q 8.59375 42.28125 12.203125 53.3125 
Q 15.828125 64.359375 23.1875 75.875 
z
" id="DejaVuSans-40"/>
      <path d="M 52 44.1875 
Q 55.375 50.25 60.0625 53.125 
Q 64.75 56 71.09375 56 
Q 79.640625 56 84.28125 50.015625 
Q 88.921875 44.046875 88.921875 33.015625 
L 88.921875 0 
L 79.890625 0 
L 79.890625 32.71875 
Q 79.890625 40.578125 77.09375 44.375 
Q 74.3125 48.1875 68.609375 48.1875 
Q 61.625 48.1875 57.5625 43.546875 
Q 53.515625 38.921875 53.515625 30.90625 
L 53.515625 0 
L 44.484375 0 
L 44.484375 32.71875 
Q 44.484375 40.625 41.703125 44.40625 
Q 38.921875 48.1875 33.109375 48.1875 
Q 26.21875 48.1875 22.15625 43.53125 
Q 18.109375 38.875 18.109375 30.90625 
L 18.109375 0 
L 9.078125 0 
L 9.078125 54.6875 
L 18.109375 54.6875 
L 18.109375 46.1875 
Q 21.1875 51.21875 25.484375 53.609375 
Q 29.78125 56 35.6875 56 
Q 41.65625 56 45.828125 52.96875 
Q 50 49.953125 52 44.1875 
z
" id="DejaVuSans-109"/>
      <path d="M 8.015625 75.875 
L 15.828125 75.875 
Q 23.140625 64.359375 26.78125 53.3125 
Q 30.421875 42.28125 30.421875 31.390625 
Q 30.421875 20.453125 26.78125 9.375 
Q 23.140625 -1.703125 15.828125 -13.1875 
L 8.015625 -13.1875 
Q 14.5 -2 17.703125 9.0625 
Q 20.90625 20.125 20.90625 31.390625 
Q 20.90625 42.671875 17.703125 53.65625 
Q 14.5 64.65625 8.015625 75.875 
z
" id="DejaVuSans-41"/>
     </defs>
     <use xlink:href="#DejaVuSans-80"/>
     <use x="58.052734" xlink:href="#DejaVuSans-105"/>
     <use x="85.835938" xlink:href="#DejaVuSans-110"/>
     <use x="149.214844" xlink:href="#DejaVuSans-103"/>
     <use x="212.691406" xlink:href="#DejaVuSans-32"/>
     <use x="244.478516" xlink:href="#DejaVuSans-40"/>
     <use x="283.492188" xlink:href="#DejaVuSans-109"/>
     <use x="380.904297" xlink:href="#DejaVuSans-115"/>
     <use x="433.003906" xlink:href="#DejaVuSans-41"/>
    </g>
   </g>
   <g id="legend_1">
    <g id="line2d_112">
     <path d="M 443.200825 52.537998 
L 459.860825 52.537998 
" style="fill:none;stroke:#1b9e77;stroke-linecap:round;"/>
    </g>
    <g id="line2d_113"/>
    <g id="text_24">
     <!-- BBRn-fq -->
     <g transform="translate(466.524825 55.453498)scale(0.0833 -0.0833)">
      <use xlink:href="#DejaVuSans-66"/>
      <use x="68.603516" xlink:href="#DejaVuSans-66"/>
      <use x="137.207031" xlink:href="#DejaVuSans-82"/>
      <use x="206.689453" xlink:href="#DejaVuSans-110"/>
      <use x="270.068359" xlink:href="#DejaVuSans-45"/>
      <use x="306.152344" xlink:href="#DejaVuSans-102"/>
      <use x="341.357422" xlink:href="#DejaVuSans-113"/>
     </g>
    </g>
    <g id="line2d_114">
     <path d="M 443.200825 64.764877 
L 459.860825 64.764877 
" style="fill:none;stroke:#d95f02;stroke-linecap:round;"/>
    </g>
    <g id="line2d_115"/>
    <g id="text_25">
     <!-- BBRn-codel -->
     <g transform="translate(466.524825 67.680377)scale(0.0833 -0.0833)">
      <use xlink:href="#DejaVuSans-66"/>
      <use x="68.603516" xlink:href="#DejaVuSans-66"/>
      <use x="137.207031" xlink:href="#DejaVuSans-82"/>
      <use x="206.689453" xlink:href="#DejaVuSans-110"/>
      <use x="270.068359" xlink:href="#DejaVuSans-45"/>
      <use x="306.152344" xlink:href="#DejaVuSans-99"/>
      <use x="361.132812" xlink:href="#DejaVuSans-111"/>
      <use x="422.314453" xlink:href="#DejaVuSans-100"/>
      <use x="485.791016" xlink:href="#DejaVuSans-101"/>
      <use x="547.314453" xlink:href="#DejaVuSans-108"/>
     </g>
    </g>
    <g id="line2d_116">
     <path d="M 443.200825 76.991755 
L 459.860825 76.991755 
" style="fill:none;stroke:#7570b3;stroke-linecap:round;"/>
    </g>
    <g id="line2d_117"/>
    <g id="text_26">
     <!-- BBRn-cake -->
     <g transform="translate(466.524825 79.907255)scale(0.0833 -0.0833)">
      <use xlink:href="#DejaVuSans-66"/>
      <use x="68.603516" xlink:href="#DejaVuSans-66"/>
      <use x="137.207031" xlink:href="#DejaVuSans-82"/>
      <use x="206.689453" xlink:href="#DejaVuSans-110"/>
      <use x="270.068359" xlink:href="#DejaVuSans-45"/>
      <use x="306.152344" xlink:href="#DejaVuSans-99"/>
      <use x="361.132812" xlink:href="#DejaVuSans-97"/>
      <use x="422.412109" xlink:href="#DejaVuSans-107"/>
      <use x="476.697266" xlink:href="#DejaVuSans-101"/>
     </g>
    </g>
    <g id="line2d_118">
     <path d="M 443.200825 89.218633 
L 459.860825 89.218633 
" style="fill:none;stroke:#e7298a;stroke-linecap:round;"/>
    </g>
    <g id="line2d_119"/>
    <g id="text_27">
     <!-- BBRn-pie -->
     <g transform="translate(466.524825 92.134133)scale(0.0833 -0.0833)">
      <use xlink:href="#DejaVuSans-66"/>
      <use x="68.603516" xlink:href="#DejaVuSans-66"/>
      <use x="137.207031" xlink:href="#DejaVuSans-82"/>
      <use x="206.689453" xlink:href="#DejaVuSans-110"/>
      <use x="270.068359" xlink:href="#DejaVuSans-45"/>
      <use x="306.152344" xlink:href="#DejaVuSans-112"/>
      <use x="369.628906" xlink:href="#DejaVuSans-105"/>
      <use x="397.412109" xlink:href="#DejaVuSans-101"/>
     </g>
    </g>
    <g id="line2d_120">
     <path d="M 443.200825 101.445511 
L 459.860825 101.445511 
" style="fill:none;stroke:#66a61e;stroke-linecap:round;"/>
    </g>
    <g id="line2d_121"/>
    <g id="text_28">
     <!-- BBRn-fq_codel -->
     <g transform="translate(466.524825 104.361011)scale(0.0833 -0.0833)">
      <use xlink:href="#DejaVuSans-66"/>
      <use x="68.603516" xlink:href="#DejaVuSans-66"/>
      <use x="137.207031" xlink:href="#DejaVuSans-82"/>
      <use x="206.689453" xlink:href="#DejaVuSans-110"/>
      <use x="270.068359" xlink:href="#DejaVuSans-45"/>
      <use x="306.152344" xlink:href="#DejaVuSans-102"/>
      <use x="341.357422" xlink:href="#DejaVuSans-113"/>
      <use x="404.833984" xlink:href="#DejaVuSans-95"/>
      <use x="454.833984" xlink:href="#DejaVuSans-99"/>
      <use x="509.814453" xlink:href="#DejaVuSans-111"/>
      <use x="570.996094" xlink:href="#DejaVuSans-100"/>
      <use x="634.472656" xlink:href="#DejaVuSans-101"/>
      <use x="695.996094" xlink:href="#DejaVuSans-108"/>
     </g>
    </g>
   </g>
  </g>
  <g id="axes_2">
   <g id="matplotlib.axis_3">
    <g id="ytick_25">
     <g id="line2d_122"/>
     <g id="text_29">
      <!-- 0 -->
      <g transform="translate(404.085625 313.923473)scale(0.1 -0.1)">
       <use xlink:href="#DejaVuSans-48"/>
      </g>
     </g>
    </g>
    <g id="ytick_26">
     <g id="line2d_123"/>
     <g id="text_30">
      <!-- 50 -->
      <g transform="translate(404.085625 273.830294)scale(0.1 -0.1)">
       <use xlink:href="#DejaVuSans-53"/>
       <use x="63.623047" xlink:href="#DejaVuSans-48"/>
      </g>
     </g>
    </g>
    <g id="ytick_27">
     <g id="line2d_124"/>
     <g id="text_31">
      <!-- 100 -->
      <g transform="translate(404.085625 233.737115)scale(0.1 -0.1)">
       <use xlink:href="#DejaVuSans-49"/>
       <use x="63.623047" xlink:href="#DejaVuSans-48"/>
       <use x="127.246094" xlink:href="#DejaVuSans-48"/>
      </g>
     </g>
    </g>
    <g id="ytick_28">
     <g id="line2d_125"/>
     <g id="text_32">
      <!-- 150 -->
      <g transform="translate(404.085625 193.643936)scale(0.1 -0.1)">
       <use xlink:href="#DejaVuSans-49"/>
       <use x="63.623047" xlink:href="#DejaVuSans-53"/>
       <use x="127.246094" xlink:href="#DejaVuSans-48"/>
      </g>
     </g>
    </g>
    <g id="ytick_29">
     <g id="line2d_126"/>
     <g id="text_33">
      <!-- 200 -->
      <g transform="translate(404.085625 153.550757)scale(0.1 -0.1)">
       <use xlink:href="#DejaVuSans-50"/>
       <use x="63.623047" xlink:href="#DejaVuSans-48"/>
       <use x="127.246094" xlink:href="#DejaVuSans-48"/>
      </g>
     </g>
    </g>
    <g id="ytick_30">
     <g id="line2d_127"/>
     <g id="text_34">
      <!-- 250 -->
      <g transform="translate(404.085625 113.457578)scale(0.1 -0.1)">
       <use xlink:href="#DejaVuSans-50"/>
       <use x="63.623047" xlink:href="#DejaVuSans-53"/>
       <use x="127.246094" xlink:href="#DejaVuSans-48"/>
      </g>
     </g>
    </g>
    <g id="ytick_31">
     <g id="line2d_128"/>
     <g id="text_35">
      <!-- 300 -->
      <g transform="translate(404.085625 73.3644)scale(0.1 -0.1)">
       <defs>
        <path d="M 40.578125 39.3125 
Q 47.65625 37.796875 51.625 33 
Q 55.609375 28.21875 55.609375 21.1875 
Q 55.609375 10.40625 48.1875 4.484375 
Q 40.765625 -1.421875 27.09375 -1.421875 
Q 22.515625 -1.421875 17.65625 -0.515625 
Q 12.796875 0.390625 7.625 2.203125 
L 7.625 11.71875 
Q 11.71875 9.328125 16.59375 8.109375 
Q 21.484375 6.890625 26.8125 6.890625 
Q 36.078125 6.890625 40.9375 10.546875 
Q 45.796875 14.203125 45.796875 21.1875 
Q 45.796875 27.640625 41.28125 31.265625 
Q 36.765625 34.90625 28.71875 34.90625 
L 20.21875 34.90625 
L 20.21875 43.015625 
L 29.109375 43.015625 
Q 36.375 43.015625 40.234375 45.921875 
Q 44.09375 48.828125 44.09375 54.296875 
Q 44.09375 59.90625 40.109375 62.90625 
Q 36.140625 65.921875 28.71875 65.921875 
Q 24.65625 65.921875 20.015625 65.03125 
Q 15.375 64.15625 9.8125 62.3125 
L 9.8125 71.09375 
Q 15.4375 72.65625 20.34375 73.4375 
Q 25.25 74.21875 29.59375 74.21875 
Q 40.828125 74.21875 47.359375 69.109375 
Q 53.90625 64.015625 53.90625 55.328125 
Q 53.90625 49.265625 50.4375 45.09375 
Q 46.96875 40.921875 40.578125 39.3125 
z
" id="DejaVuSans-51"/>
       </defs>
       <use xlink:href="#DejaVuSans-51"/>
       <use x="63.623047" xlink:href="#DejaVuSans-48"/>
       <use x="127.246094" xlink:href="#DejaVuSans-48"/>
      </g>
     </g>
    </g>
    <g id="ytick_32">
     <g id="line2d_129"/>
    </g>
    <g id="ytick_33">
     <g id="line2d_130"/>
    </g>
    <g id="ytick_34">
     <g id="line2d_131"/>
    </g>
    <g id="ytick_35">
     <g id="line2d_132"/>
    </g>
    <g id="ytick_36">
     <g id="line2d_133"/>
    </g>
    <g id="ytick_37">
     <g id="line2d_134"/>
    </g>
    <g id="ytick_38">
     <g id="line2d_135"/>
    </g>
    <g id="ytick_39">
     <g id="line2d_136"/>
    </g>
    <g id="ytick_40">
     <g id="line2d_137"/>
    </g>
    <g id="ytick_41">
     <g id="line2d_138"/>
    </g>
    <g id="ytick_42">
     <g id="line2d_139"/>
    </g>
    <g id="ytick_43">
     <g id="line2d_140"/>
    </g>
    <g id="ytick_44">
     <g id="line2d_141"/>
    </g>
    <g id="ytick_45">
     <g id="line2d_142"/>
    </g>
    <g id="ytick_46">
     <g id="line2d_143"/>
    </g>
    <g id="ytick_47">
     <g id="line2d_144"/>
    </g>
    <g id="ytick_48">
     <g id="line2d_145"/>
    </g>
    <g id="ytick_49">
     <g id="line2d_146"/>
    </g>
    <g id="ytick_50">
     <g id="line2d_147"/>
    </g>
    <g id="ytick_51">
     <g id="line2d_148"/>
    </g>
    <g id="ytick_52">
     <g id="line2d_149"/>
    </g>
    <g id="ytick_53">
     <g id="line2d_150"/>
    </g>
    <g id="ytick_54">
     <g id="line2d_151"/>
    </g>
    <g id="ytick_55">
     <g id="line2d_152"/>
    </g>
    <g id="ytick_56">
     <g id="line2d_153"/>
    </g>
    <g id="ytick_57">
     <g id="line2d_154"/>
    </g>
    <g id="text_36">
     <!-- Latency (ms) -->
     <g transform="translate(434.771563 211.577687)rotate(-90)scale(0.1 -0.1)">
      <defs>
       <path d="M 9.8125 72.90625 
L 19.671875 72.90625 
L 19.671875 8.296875 
L 55.171875 8.296875 
L 55.171875 0 
L 9.8125 0 
z
" id="DejaVuSans-76"/>
       <path d="M 32.171875 -5.078125 
Q 28.375 -14.84375 24.75 -17.8125 
Q 21.140625 -20.796875 15.09375 -20.796875 
L 7.90625 -20.796875 
L 7.90625 -13.28125 
L 13.1875 -13.28125 
Q 16.890625 -13.28125 18.9375 -11.515625 
Q 21 -9.765625 23.484375 -3.21875 
L 25.09375 0.875 
L 2.984375 54.6875 
L 12.5 54.6875 
L 29.59375 11.921875 
L 46.6875 54.6875 
L 56.203125 54.6875 
z
" id="DejaVuSans-121"/>
      </defs>
      <use xlink:href="#DejaVuSans-76"/>
      <use x="55.712891" xlink:href="#DejaVuSans-97"/>
      <use x="116.992188" xlink:href="#DejaVuSans-116"/>
      <use x="156.201172" xlink:href="#DejaVuSans-101"/>
      <use x="217.724609" xlink:href="#DejaVuSans-110"/>
      <use x="281.103516" xlink:href="#DejaVuSans-99"/>
      <use x="336.083984" xlink:href="#DejaVuSans-121"/>
      <use x="395.263672" xlink:href="#DejaVuSans-32"/>
      <use x="427.050781" xlink:href="#DejaVuSans-40"/>
      <use x="466.064453" xlink:href="#DejaVuSans-109"/>
      <use x="563.476562" xlink:href="#DejaVuSans-115"/>
      <use x="615.576172" xlink:href="#DejaVuSans-41"/>
     </g>
    </g>
   </g>
   <g id="line2d_155">
    <path clip-path="url(#p7e3faf66ca)" d="M 296.425625 276.363959 
L 306.345625 276.363959 
L 306.345625 247.621087 
L 296.425625 247.621087 
L 296.425625 276.363959 
" style="fill:none;stroke:#1b9e77;stroke-linecap:round;"/>
   </g>
   <g id="line2d_156">
    <path clip-path="url(#p7e3faf66ca)" d="M 301.385625 276.363959 
L 301.385625 309.098529 
" style="fill:none;stroke:#1b9e77;stroke-linecap:round;"/>
   </g>
   <g id="line2d_157">
    <path clip-path="url(#p7e3faf66ca)" d="M 301.385625 247.621087 
L 301.385625 224.963048 
" style="fill:none;stroke:#1b9e77;stroke-linecap:round;"/>
   </g>
   <g id="line2d_158">
    <path clip-path="url(#p7e3faf66ca)" d="M 298.905625 309.098529 
L 303.865625 309.098529 
" style="fill:none;stroke:#1b9e77;stroke-linecap:round;"/>
   </g>
   <g id="line2d_159">
    <path clip-path="url(#p7e3faf66ca)" d="M 298.905625 224.963048 
L 303.865625 224.963048 
" style="fill:none;stroke:#1b9e77;stroke-linecap:round;"/>
   </g>
   <g id="line2d_160"/>
   <g id="line2d_161">
    <path clip-path="url(#p7e3faf66ca)" d="M 316.265625 264.158697 
L 326.185625 264.158697 
L 326.185625 192.646812 
L 316.265625 192.646812 
L 316.265625 264.158697 
" style="fill:none;stroke:#d95f02;stroke-linecap:round;"/>
   </g>
   <g id="line2d_162">
    <path clip-path="url(#p7e3faf66ca)" d="M 321.225625 264.158697 
L 321.225625 309.177805 
" style="fill:none;stroke:#d95f02;stroke-linecap:round;"/>
   </g>
   <g id="line2d_163">
    <path clip-path="url(#p7e3faf66ca)" d="M 321.225625 192.646812 
L 321.225625 87.836792 
" style="fill:none;stroke:#d95f02;stroke-linecap:round;"/>
   </g>
   <g id="line2d_164">
    <path clip-path="url(#p7e3faf66ca)" d="M 318.745625 309.177805 
L 323.705625 309.177805 
" style="fill:none;stroke:#d95f02;stroke-linecap:round;"/>
   </g>
   <g id="line2d_165">
    <path clip-path="url(#p7e3faf66ca)" d="M 318.745625 87.836792 
L 323.705625 87.836792 
" style="fill:none;stroke:#d95f02;stroke-linecap:round;"/>
   </g>
   <g id="line2d_166">
    <g clip-path="url(#p7e3faf66ca)">
     <use style="fill:#0000ff;stroke:#d95f02;" x="321.225625" xlink:href="#m31c14a0f00" y="81.677501"/>
     <use style="fill:#0000ff;stroke:#d95f02;" x="321.225625" xlink:href="#m31c14a0f00" y="83.353081"/>
    </g>
   </g>
   <g id="line2d_167">
    <path clip-path="url(#p7e3faf66ca)" d="M 336.105625 245.857642 
L 346.025625 245.857642 
L 346.025625 166.734042 
L 336.105625 166.734042 
L 336.105625 245.857642 
" style="fill:none;stroke:#7570b3;stroke-linecap:round;"/>
   </g>
   <g id="line2d_168">
    <path clip-path="url(#p7e3faf66ca)" d="M 341.065625 245.857642 
L 341.065625 309.130735 
" style="fill:none;stroke:#7570b3;stroke-linecap:round;"/>
   </g>
   <g id="line2d_169">
    <path clip-path="url(#p7e3faf66ca)" d="M 341.065625 166.734042 
L 341.065625 48.400941 
" style="fill:none;stroke:#7570b3;stroke-linecap:round;"/>
   </g>
   <g id="line2d_170">
    <path clip-path="url(#p7e3faf66ca)" d="M 338.585625 309.130735 
L 343.545625 309.130735 
" style="fill:none;stroke:#7570b3;stroke-linecap:round;"/>
   </g>
   <g id="line2d_171">
    <path clip-path="url(#p7e3faf66ca)" d="M 338.585625 48.400941 
L 343.545625 48.400941 
" style="fill:none;stroke:#7570b3;stroke-linecap:round;"/>
   </g>
   <g id="line2d_172"/>
   <g id="line2d_173">
    <path clip-path="url(#p7e3faf66ca)" d="M 355.945625 281.127775 
L 365.865625 281.127775 
L 365.865625 254.88229 
L 355.945625 254.88229 
L 355.945625 281.127775 
" style="fill:none;stroke:#e7298a;stroke-linecap:round;"/>
   </g>
   <g id="line2d_174">
    <path clip-path="url(#p7e3faf66ca)" d="M 360.905625 281.127775 
L 360.905625 309.112493 
" style="fill:none;stroke:#e7298a;stroke-linecap:round;"/>
   </g>
   <g id="line2d_175">
    <path clip-path="url(#p7e3faf66ca)" d="M 360.905625 254.88229 
L 360.905625 226.030131 
" style="fill:none;stroke:#e7298a;stroke-linecap:round;"/>
   </g>
   <g id="line2d_176">
    <path clip-path="url(#p7e3faf66ca)" d="M 358.425625 309.112493 
L 363.385625 309.112493 
" style="fill:none;stroke:#e7298a;stroke-linecap:round;"/>
   </g>
   <g id="line2d_177">
    <path clip-path="url(#p7e3faf66ca)" d="M 358.425625 226.030131 
L 363.385625 226.030131 
" style="fill:none;stroke:#e7298a;stroke-linecap:round;"/>
   </g>
   <g id="line2d_178"/>
   <g id="line2d_179">
    <path clip-path="url(#p7e3faf66ca)" d="M 375.785625 282.138327 
L 385.705625 282.138327 
L 385.705625 195.535352 
L 375.785625 195.535352 
L 375.785625 282.138327 
" style="fill:none;stroke:#66a61e;stroke-linecap:round;"/>
   </g>
   <g id="line2d_180">
    <path clip-path="url(#p7e3faf66ca)" d="M 380.745625 282.138327 
L 380.745625 309.295059 
" style="fill:none;stroke:#66a61e;stroke-linecap:round;"/>
   </g>
   <g id="line2d_181">
    <path clip-path="url(#p7e3faf66ca)" d="M 380.745625 195.535352 
L 380.745625 104.955316 
" style="fill:none;stroke:#66a61e;stroke-linecap:round;"/>
   </g>
   <g id="line2d_182">
    <path clip-path="url(#p7e3faf66ca)" d="M 378.265625 309.295059 
L 383.225625 309.295059 
" style="fill:none;stroke:#66a61e;stroke-linecap:round;"/>
   </g>
   <g id="line2d_183">
    <path clip-path="url(#p7e3faf66ca)" d="M 378.265625 104.955316 
L 383.225625 104.955316 
" style="fill:none;stroke:#66a61e;stroke-linecap:round;"/>
   </g>
   <g id="line2d_184"/>
   <g id="line2d_185">
    <path clip-path="url(#p7e3faf66ca)" d="M 400.585625 311.904 
L 400.585625 45.792 
" style="fill:none;stroke:#000000;stroke-dasharray:0.5,0.825;stroke-dashoffset:0;stroke-width:0.5;"/>
   </g>
   <g id="line2d_186">
    <path clip-path="url(#p7e3faf66ca)" d="M 296.425625 268.131349 
L 306.345625 268.131349 
" style="fill:none;stroke:#ff7f0e;stroke-linecap:round;"/>
   </g>
   <g id="line2d_187">
    <path clip-path="url(#p7e3faf66ca)" d="M 316.265625 217.644249 
L 326.185625 217.644249 
" style="fill:none;stroke:#ff7f0e;stroke-linecap:round;"/>
   </g>
   <g id="line2d_188">
    <path clip-path="url(#p7e3faf66ca)" d="M 336.105625 214.043072 
L 346.025625 214.043072 
" style="fill:none;stroke:#ff7f0e;stroke-linecap:round;"/>
   </g>
   <g id="line2d_189">
    <path clip-path="url(#p7e3faf66ca)" d="M 355.945625 268.584344 
L 365.865625 268.584344 
" style="fill:none;stroke:#ff7f0e;stroke-linecap:round;"/>
   </g>
   <g id="line2d_190">
    <path clip-path="url(#p7e3faf66ca)" d="M 375.785625 256.045817 
L 385.705625 256.045817 
" style="fill:none;stroke:#ff7f0e;stroke-linecap:round;"/>
   </g>
  </g>
  <g id="text_37">
   <!-- Realtime Response Under Load -->
   <g transform="translate(107.084219 17.837812)scale(0.14 -0.14)">
    <defs>
     <path d="M 41.109375 46.296875 
Q 39.59375 47.171875 37.8125 47.578125 
Q 36.03125 48 33.890625 48 
Q 26.265625 48 22.1875 43.046875 
Q 18.109375 38.09375 18.109375 28.8125 
L 18.109375 0 
L 9.078125 0 
L 9.078125 54.6875 
L 18.109375 54.6875 
L 18.109375 46.1875 
Q 20.953125 51.171875 25.484375 53.578125 
Q 30.03125 56 36.53125 56 
Q 37.453125 56 38.578125 55.875 
Q 39.703125 55.765625 41.0625 55.515625 
z
" id="DejaVuSans-114"/>
    </defs>
    <use xlink:href="#DejaVuSans-82"/>
    <use x="64.982422" xlink:href="#DejaVuSans-101"/>
    <use x="126.505859" xlink:href="#DejaVuSans-97"/>
    <use x="187.785156" xlink:href="#DejaVuSans-108"/>
    <use x="215.568359" xlink:href="#DejaVuSans-116"/>
    <use x="254.777344" xlink:href="#DejaVuSans-105"/>
    <use x="282.560547" xlink:href="#DejaVuSans-109"/>
    <use x="379.972656" xlink:href="#DejaVuSans-101"/>
    <use x="441.496094" xlink:href="#DejaVuSans-32"/>
    <use x="473.283203" xlink:href="#DejaVuSans-82"/>
    <use x="538.265625" xlink:href="#DejaVuSans-101"/>
    <use x="599.789062" xlink:href="#DejaVuSans-115"/>
    <use x="651.888672" xlink:href="#DejaVuSans-112"/>
    <use x="715.365234" xlink:href="#DejaVuSans-111"/>
    <use x="776.546875" xlink:href="#DejaVuSans-110"/>
    <use x="839.925781" xlink:href="#DejaVuSans-115"/>
    <use x="892.025391" xlink:href="#DejaVuSans-101"/>
    <use x="953.548828" xlink:href="#DejaVuSans-32"/>
    <use x="985.335938" xlink:href="#DejaVuSans-85"/>
    <use x="1058.529297" xlink:href="#DejaVuSans-110"/>
    <use x="1121.908203" xlink:href="#DejaVuSans-100"/>
    <use x="1185.384766" xlink:href="#DejaVuSans-101"/>
    <use x="1246.908203" xlink:href="#DejaVuSans-114"/>
    <use x="1288.021484" xlink:href="#DejaVuSans-32"/>
    <use x="1319.808594" xlink:href="#DejaVuSans-76"/>
    <use x="1373.771484" xlink:href="#DejaVuSans-111"/>
    <use x="1434.953125" xlink:href="#DejaVuSans-97"/>
    <use x="1496.232422" xlink:href="#DejaVuSans-100"/>
   </g>
   <!-- Box plot of totals -->
   <g transform="translate(156.765625 33.51475)scale(0.14 -0.14)">
    <defs>
     <path d="M 54.890625 54.6875 
L 35.109375 28.078125 
L 55.90625 0 
L 45.3125 0 
L 29.390625 21.484375 
L 13.484375 0 
L 2.875 0 
L 24.125 28.609375 
L 4.6875 54.6875 
L 15.28125 54.6875 
L 29.78125 35.203125 
L 44.28125 54.6875 
z
" id="DejaVuSans-120"/>
    </defs>
    <use xlink:href="#DejaVuSans-66"/>
    <use x="68.603516" xlink:href="#DejaVuSans-111"/>
    <use x="126.660156" xlink:href="#DejaVuSans-120"/>
    <use x="185.839844" xlink:href="#DejaVuSans-32"/>
    <use x="217.626953" xlink:href="#DejaVuSans-112"/>
    <use x="281.103516" xlink:href="#DejaVuSans-108"/>
    <use x="308.886719" xlink:href="#DejaVuSans-111"/>
    <use x="370.068359" xlink:href="#DejaVuSans-116"/>
    <use x="409.277344" xlink:href="#DejaVuSans-32"/>
    <use x="441.064453" xlink:href="#DejaVuSans-111"/>
    <use x="502.246094" xlink:href="#DejaVuSans-102"/>
    <use x="537.451172" xlink:href="#DejaVuSans-32"/>
    <use x="569.238281" xlink:href="#DejaVuSans-116"/>
    <use x="608.447266" xlink:href="#DejaVuSans-111"/>
    <use x="669.628906" xlink:href="#DejaVuSans-116"/>
    <use x="708.837891" xlink:href="#DejaVuSans-97"/>
    <use x="770.117188" xlink:href="#DejaVuSans-108"/>
    <use x="797.900391" xlink:href="#DejaVuSans-115"/>
   </g>
  </g>
 </g>
 <defs>
  <clipPath id="p7e3faf66ca">
   <rect height="266.112" width="357.12" x="43.465625" y="45.792"/>
  </clipPath>
 </defs>
</svg>
