<?xml version="1.0" encoding="utf-8" standalone="no"?>
<!DOCTYPE svg PUBLIC "-//W3C//DTD SVG 1.1//EN"
  "http://www.w3.org/Graphics/SVG/1.1/DTD/svg11.dtd">
<!-- Created with matplotlib (https://matplotlib.org/) -->
<svg height="618.48pt" version="1.1" viewBox="0 0 977.04 618.48" width="977.04pt" xmlns="http://www.w3.org/2000/svg" xmlns:xlink="http://www.w3.org/1999/xlink">
 <metadata>
  <rdf:RDF xmlns:cc="http://creativecommons.org/ns#" xmlns:dc="http://purl.org/dc/elements/1.1/" xmlns:rdf="http://www.w3.org/1999/02/22-rdf-syntax-ns#">
   <cc:Work>
    <dc:type rdf:resource="http://purl.org/dc/dcmitype/StillImage"/>
    <dc:date>2023-09-15T09:21:56.243856</dc:date>
    <dc:format>image/svg+xml</dc:format>
    <dc:creator>
     <cc:Agent>
      <dc:title>Matplotlib v3.3.4, https://matplotlib.org/</dc:title>
     </cc:Agent>
    </dc:creator>
   </cc:Work>
  </rdf:RDF>
 </metadata>
 <defs>
  <style type="text/css">*{stroke-linecap:butt;stroke-linejoin:round;}</style>
 </defs>
 <g id="figure_1">
  <g id="patch_1">
   <path d="M 0 618.48 
L 977.04 618.48 
L 977.04 0 
L 0 0 
z
" style="fill:#ffffff;"/>
  </g>
  <g id="axes_1">
   <g id="patch_2">
    <path d="M 122.13 550.4472 
L 631.818 550.4472 
L 631.818 74.2176 
L 122.13 74.2176 
z
" style="fill:#e6e6e6;"/>
   </g>
   <g id="matplotlib.axis_1">
    <g id="xtick_1">
     <g id="line2d_1">
      <path clip-path="url(#p203378f7cb)" d="M 178.905775 550.4472 
L 178.905775 74.2176 
" style="fill:none;stroke:#ffffff;stroke-linecap:round;"/>
     </g>
     <g id="line2d_2"/>
     <g id="text_1">
      <!-- 10 -->
      <g transform="translate(172.543275 561.545637)scale(0.1 -0.1)">
       <defs>
        <path d="M 12.40625 8.296875 
L 28.515625 8.296875 
L 28.515625 63.921875 
L 10.984375 60.40625 
L 10.984375 69.390625 
L 28.421875 72.90625 
L 38.28125 72.90625 
L 38.28125 8.296875 
L 54.390625 8.296875 
L 54.390625 0 
L 12.40625 0 
z
" id="DejaVuSans-49"/>
        <path d="M 31.78125 66.40625 
Q 24.171875 66.40625 20.328125 58.90625 
Q 16.5 51.421875 16.5 36.375 
Q 16.5 21.390625 20.328125 13.890625 
Q 24.171875 6.390625 31.78125 6.390625 
Q 39.453125 6.390625 43.28125 13.890625 
Q 47.125 21.390625 47.125 36.375 
Q 47.125 51.421875 43.28125 58.90625 
Q 39.453125 66.40625 31.78125 66.40625 
z
M 31.78125 74.21875 
Q 44.046875 74.21875 50.515625 64.515625 
Q 56.984375 54.828125 56.984375 36.375 
Q 56.984375 17.96875 50.515625 8.265625 
Q 44.046875 -1.421875 31.78125 -1.421875 
Q 19.53125 -1.421875 13.0625 8.265625 
Q 6.59375 17.96875 6.59375 36.375 
Q 6.59375 54.828125 13.0625 64.515625 
Q 19.53125 74.21875 31.78125 74.21875 
z
" id="DejaVuSans-48"/>
       </defs>
       <use xlink:href="#DejaVuSans-49"/>
       <use x="63.623047" xlink:href="#DejaVuSans-48"/>
      </g>
     </g>
    </g>
    <g id="xtick_2">
     <g id="line2d_3">
      <path clip-path="url(#p203378f7cb)" d="M 235.744424 550.4472 
L 235.744424 74.2176 
" style="fill:none;stroke:#ffffff;stroke-linecap:round;"/>
     </g>
     <g id="line2d_4"/>
     <g id="text_2">
      <!-- 20 -->
      <g transform="translate(229.381924 561.545637)scale(0.1 -0.1)">
       <defs>
        <path d="M 19.1875 8.296875 
L 53.609375 8.296875 
L 53.609375 0 
L 7.328125 0 
L 7.328125 8.296875 
Q 12.9375 14.109375 22.625 23.890625 
Q 32.328125 33.6875 34.8125 36.53125 
Q 39.546875 41.84375 41.421875 45.53125 
Q 43.3125 49.21875 43.3125 52.78125 
Q 43.3125 58.59375 39.234375 62.25 
Q 35.15625 65.921875 28.609375 65.921875 
Q 23.96875 65.921875 18.8125 64.3125 
Q 13.671875 62.703125 7.8125 59.421875 
L 7.8125 69.390625 
Q 13.765625 71.78125 18.9375 73 
Q 24.125 74.21875 28.421875 74.21875 
Q 39.75 74.21875 46.484375 68.546875 
Q 53.21875 62.890625 53.21875 53.421875 
Q 53.21875 48.921875 51.53125 44.890625 
Q 49.859375 40.875 45.40625 35.40625 
Q 44.1875 33.984375 37.640625 27.21875 
Q 31.109375 20.453125 19.1875 8.296875 
z
" id="DejaVuSans-50"/>
       </defs>
       <use xlink:href="#DejaVuSans-50"/>
       <use x="63.623047" xlink:href="#DejaVuSans-48"/>
      </g>
     </g>
    </g>
    <g id="xtick_3">
     <g id="line2d_5">
      <path clip-path="url(#p203378f7cb)" d="M 292.583073 550.4472 
L 292.583073 74.2176 
" style="fill:none;stroke:#ffffff;stroke-linecap:round;"/>
     </g>
     <g id="line2d_6"/>
     <g id="text_3">
      <!-- 30 -->
      <g transform="translate(286.220573 561.545637)scale(0.1 -0.1)">
       <defs>
        <path d="M 40.578125 39.3125 
Q 47.65625 37.796875 51.625 33 
Q 55.609375 28.21875 55.609375 21.1875 
Q 55.609375 10.40625 48.1875 4.484375 
Q 40.765625 -1.421875 27.09375 -1.421875 
Q 22.515625 -1.421875 17.65625 -0.515625 
Q 12.796875 0.390625 7.625 2.203125 
L 7.625 11.71875 
Q 11.71875 9.328125 16.59375 8.109375 
Q 21.484375 6.890625 26.8125 6.890625 
Q 36.078125 6.890625 40.9375 10.546875 
Q 45.796875 14.203125 45.796875 21.1875 
Q 45.796875 27.640625 41.28125 31.265625 
Q 36.765625 34.90625 28.71875 34.90625 
L 20.21875 34.90625 
L 20.21875 43.015625 
L 29.109375 43.015625 
Q 36.375 43.015625 40.234375 45.921875 
Q 44.09375 48.828125 44.09375 54.296875 
Q 44.09375 59.90625 40.109375 62.90625 
Q 36.140625 65.921875 28.71875 65.921875 
Q 24.65625 65.921875 20.015625 65.03125 
Q 15.375 64.15625 9.8125 62.3125 
L 9.8125 71.09375 
Q 15.4375 72.65625 20.34375 73.4375 
Q 25.25 74.21875 29.59375 74.21875 
Q 40.828125 74.21875 47.359375 69.109375 
Q 53.90625 64.015625 53.90625 55.328125 
Q 53.90625 49.265625 50.4375 45.09375 
Q 46.96875 40.921875 40.578125 39.3125 
z
" id="DejaVuSans-51"/>
       </defs>
       <use xlink:href="#DejaVuSans-51"/>
       <use x="63.623047" xlink:href="#DejaVuSans-48"/>
      </g>
     </g>
    </g>
    <g id="xtick_4">
     <g id="line2d_7">
      <path clip-path="url(#p203378f7cb)" d="M 349.421722 550.4472 
L 349.421722 74.2176 
" style="fill:none;stroke:#ffffff;stroke-linecap:round;"/>
     </g>
     <g id="line2d_8"/>
     <g id="text_4">
      <!-- 40 -->
      <g transform="translate(343.059222 561.545637)scale(0.1 -0.1)">
       <defs>
        <path d="M 37.796875 64.3125 
L 12.890625 25.390625 
L 37.796875 25.390625 
z
M 35.203125 72.90625 
L 47.609375 72.90625 
L 47.609375 25.390625 
L 58.015625 25.390625 
L 58.015625 17.1875 
L 47.609375 17.1875 
L 47.609375 0 
L 37.796875 0 
L 37.796875 17.1875 
L 4.890625 17.1875 
L 4.890625 26.703125 
z
" id="DejaVuSans-52"/>
       </defs>
       <use xlink:href="#DejaVuSans-52"/>
       <use x="63.623047" xlink:href="#DejaVuSans-48"/>
      </g>
     </g>
    </g>
    <g id="xtick_5">
     <g id="line2d_9">
      <path clip-path="url(#p203378f7cb)" d="M 406.260371 550.4472 
L 406.260371 74.2176 
" style="fill:none;stroke:#ffffff;stroke-linecap:round;"/>
     </g>
     <g id="line2d_10"/>
     <g id="text_5">
      <!-- 50 -->
      <g transform="translate(399.897871 561.545637)scale(0.1 -0.1)">
       <defs>
        <path d="M 10.796875 72.90625 
L 49.515625 72.90625 
L 49.515625 64.59375 
L 19.828125 64.59375 
L 19.828125 46.734375 
Q 21.96875 47.46875 24.109375 47.828125 
Q 26.265625 48.1875 28.421875 48.1875 
Q 40.625 48.1875 47.75 41.5 
Q 54.890625 34.8125 54.890625 23.390625 
Q 54.890625 11.625 47.5625 5.09375 
Q 40.234375 -1.421875 26.90625 -1.421875 
Q 22.3125 -1.421875 17.546875 -0.640625 
Q 12.796875 0.140625 7.71875 1.703125 
L 7.71875 11.625 
Q 12.109375 9.234375 16.796875 8.0625 
Q 21.484375 6.890625 26.703125 6.890625 
Q 35.15625 6.890625 40.078125 11.328125 
Q 45.015625 15.765625 45.015625 23.390625 
Q 45.015625 31 40.078125 35.4375 
Q 35.15625 39.890625 26.703125 39.890625 
Q 22.75 39.890625 18.8125 39.015625 
Q 14.890625 38.140625 10.796875 36.28125 
z
" id="DejaVuSans-53"/>
       </defs>
       <use xlink:href="#DejaVuSans-53"/>
       <use x="63.623047" xlink:href="#DejaVuSans-48"/>
      </g>
     </g>
    </g>
    <g id="xtick_6">
     <g id="line2d_11">
      <path clip-path="url(#p203378f7cb)" d="M 463.09902 550.4472 
L 463.09902 74.2176 
" style="fill:none;stroke:#ffffff;stroke-linecap:round;"/>
     </g>
     <g id="line2d_12"/>
     <g id="text_6">
      <!-- 60 -->
      <g transform="translate(456.73652 561.545637)scale(0.1 -0.1)">
       <defs>
        <path d="M 33.015625 40.375 
Q 26.375 40.375 22.484375 35.828125 
Q 18.609375 31.296875 18.609375 23.390625 
Q 18.609375 15.53125 22.484375 10.953125 
Q 26.375 6.390625 33.015625 6.390625 
Q 39.65625 6.390625 43.53125 10.953125 
Q 47.40625 15.53125 47.40625 23.390625 
Q 47.40625 31.296875 43.53125 35.828125 
Q 39.65625 40.375 33.015625 40.375 
z
M 52.59375 71.296875 
L 52.59375 62.3125 
Q 48.875 64.0625 45.09375 64.984375 
Q 41.3125 65.921875 37.59375 65.921875 
Q 27.828125 65.921875 22.671875 59.328125 
Q 17.53125 52.734375 16.796875 39.40625 
Q 19.671875 43.65625 24.015625 45.921875 
Q 28.375 48.1875 33.59375 48.1875 
Q 44.578125 48.1875 50.953125 41.515625 
Q 57.328125 34.859375 57.328125 23.390625 
Q 57.328125 12.15625 50.6875 5.359375 
Q 44.046875 -1.421875 33.015625 -1.421875 
Q 20.359375 -1.421875 13.671875 8.265625 
Q 6.984375 17.96875 6.984375 36.375 
Q 6.984375 53.65625 15.1875 63.9375 
Q 23.390625 74.21875 37.203125 74.21875 
Q 40.921875 74.21875 44.703125 73.484375 
Q 48.484375 72.75 52.59375 71.296875 
z
" id="DejaVuSans-54"/>
       </defs>
       <use xlink:href="#DejaVuSans-54"/>
       <use x="63.623047" xlink:href="#DejaVuSans-48"/>
      </g>
     </g>
    </g>
    <g id="xtick_7">
     <g id="line2d_13">
      <path clip-path="url(#p203378f7cb)" d="M 519.937669 550.4472 
L 519.937669 74.2176 
" style="fill:none;stroke:#ffffff;stroke-linecap:round;"/>
     </g>
     <g id="line2d_14"/>
     <g id="text_7">
      <!-- 70 -->
      <g transform="translate(513.575169 561.545637)scale(0.1 -0.1)">
       <defs>
        <path d="M 8.203125 72.90625 
L 55.078125 72.90625 
L 55.078125 68.703125 
L 28.609375 0 
L 18.3125 0 
L 43.21875 64.59375 
L 8.203125 64.59375 
z
" id="DejaVuSans-55"/>
       </defs>
       <use xlink:href="#DejaVuSans-55"/>
       <use x="63.623047" xlink:href="#DejaVuSans-48"/>
      </g>
     </g>
    </g>
    <g id="xtick_8">
     <g id="line2d_15">
      <path clip-path="url(#p203378f7cb)" d="M 576.776318 550.4472 
L 576.776318 74.2176 
" style="fill:none;stroke:#ffffff;stroke-linecap:round;"/>
     </g>
     <g id="line2d_16"/>
     <g id="text_8">
      <!-- 80 -->
      <g transform="translate(570.413818 561.545637)scale(0.1 -0.1)">
       <defs>
        <path d="M 31.78125 34.625 
Q 24.75 34.625 20.71875 30.859375 
Q 16.703125 27.09375 16.703125 20.515625 
Q 16.703125 13.921875 20.71875 10.15625 
Q 24.75 6.390625 31.78125 6.390625 
Q 38.8125 6.390625 42.859375 10.171875 
Q 46.921875 13.96875 46.921875 20.515625 
Q 46.921875 27.09375 42.890625 30.859375 
Q 38.875 34.625 31.78125 34.625 
z
M 21.921875 38.8125 
Q 15.578125 40.375 12.03125 44.71875 
Q 8.5 49.078125 8.5 55.328125 
Q 8.5 64.0625 14.71875 69.140625 
Q 20.953125 74.21875 31.78125 74.21875 
Q 42.671875 74.21875 48.875 69.140625 
Q 55.078125 64.0625 55.078125 55.328125 
Q 55.078125 49.078125 51.53125 44.71875 
Q 48 40.375 41.703125 38.8125 
Q 48.828125 37.15625 52.796875 32.3125 
Q 56.78125 27.484375 56.78125 20.515625 
Q 56.78125 9.90625 50.3125 4.234375 
Q 43.84375 -1.421875 31.78125 -1.421875 
Q 19.734375 -1.421875 13.25 4.234375 
Q 6.78125 9.90625 6.78125 20.515625 
Q 6.78125 27.484375 10.78125 32.3125 
Q 14.796875 37.15625 21.921875 38.8125 
z
M 18.3125 54.390625 
Q 18.3125 48.734375 21.84375 45.5625 
Q 25.390625 42.390625 31.78125 42.390625 
Q 38.140625 42.390625 41.71875 45.5625 
Q 45.3125 48.734375 45.3125 54.390625 
Q 45.3125 60.0625 41.71875 63.234375 
Q 38.140625 66.40625 31.78125 66.40625 
Q 25.390625 66.40625 21.84375 63.234375 
Q 18.3125 60.0625 18.3125 54.390625 
z
" id="DejaVuSans-56"/>
       </defs>
       <use xlink:href="#DejaVuSans-56"/>
       <use x="63.623047" xlink:href="#DejaVuSans-48"/>
      </g>
     </g>
    </g>
    <g id="xtick_9">
     <g id="line2d_17"/>
    </g>
    <g id="xtick_10">
     <g id="line2d_18"/>
    </g>
    <g id="xtick_11">
     <g id="line2d_19"/>
    </g>
    <g id="xtick_12">
     <g id="line2d_20"/>
    </g>
    <g id="xtick_13">
     <g id="line2d_21"/>
    </g>
    <g id="xtick_14">
     <g id="line2d_22"/>
    </g>
    <g id="xtick_15">
     <g id="line2d_23"/>
    </g>
    <g id="xtick_16">
     <g id="line2d_24"/>
    </g>
    <g id="xtick_17">
     <g id="line2d_25"/>
    </g>
    <g id="xtick_18">
     <g id="line2d_26"/>
    </g>
    <g id="xtick_19">
     <g id="line2d_27"/>
    </g>
    <g id="xtick_20">
     <g id="line2d_28"/>
    </g>
    <g id="xtick_21">
     <g id="line2d_29"/>
    </g>
    <g id="xtick_22">
     <g id="line2d_30"/>
    </g>
    <g id="xtick_23">
     <g id="line2d_31"/>
    </g>
    <g id="xtick_24">
     <g id="line2d_32"/>
    </g>
    <g id="xtick_25">
     <g id="line2d_33"/>
    </g>
    <g id="xtick_26">
     <g id="line2d_34"/>
    </g>
    <g id="xtick_27">
     <g id="line2d_35"/>
    </g>
    <g id="xtick_28">
     <g id="line2d_36"/>
    </g>
    <g id="xtick_29">
     <g id="line2d_37"/>
    </g>
    <g id="xtick_30">
     <g id="line2d_38"/>
    </g>
    <g id="xtick_31">
     <g id="line2d_39"/>
    </g>
    <g id="xtick_32">
     <g id="line2d_40"/>
    </g>
    <g id="xtick_33">
     <g id="line2d_41"/>
    </g>
    <g id="xtick_34">
     <g id="line2d_42"/>
    </g>
    <g id="xtick_35">
     <g id="line2d_43"/>
    </g>
    <g id="xtick_36">
     <g id="line2d_44"/>
    </g>
    <g id="xtick_37">
     <g id="line2d_45"/>
    </g>
    <g id="xtick_38">
     <g id="line2d_46"/>
    </g>
    <g id="xtick_39">
     <g id="line2d_47"/>
    </g>
    <g id="xtick_40">
     <g id="line2d_48"/>
    </g>
    <g id="xtick_41">
     <g id="line2d_49"/>
    </g>
    <g id="xtick_42">
     <g id="line2d_50"/>
    </g>
    <g id="xtick_43">
     <g id="line2d_51"/>
    </g>
    <g id="xtick_44">
     <g id="line2d_52"/>
    </g>
    <g id="text_9">
     <!-- Time (s) -->
     <g transform="translate(356.645094 575.223763)scale(0.1 -0.1)">
      <defs>
       <path d="M -0.296875 72.90625 
L 61.375 72.90625 
L 61.375 64.59375 
L 35.5 64.59375 
L 35.5 0 
L 25.59375 0 
L 25.59375 64.59375 
L -0.296875 64.59375 
z
" id="DejaVuSans-84"/>
       <path d="M 9.421875 54.6875 
L 18.40625 54.6875 
L 18.40625 0 
L 9.421875 0 
z
M 9.421875 75.984375 
L 18.40625 75.984375 
L 18.40625 64.59375 
L 9.421875 64.59375 
z
" id="DejaVuSans-105"/>
       <path d="M 52 44.1875 
Q 55.375 50.25 60.0625 53.125 
Q 64.75 56 71.09375 56 
Q 79.640625 56 84.28125 50.015625 
Q 88.921875 44.046875 88.921875 33.015625 
L 88.921875 0 
L 79.890625 0 
L 79.890625 32.71875 
Q 79.890625 40.578125 77.09375 44.375 
Q 74.3125 48.1875 68.609375 48.1875 
Q 61.625 48.1875 57.5625 43.546875 
Q 53.515625 38.921875 53.515625 30.90625 
L 53.515625 0 
L 44.484375 0 
L 44.484375 32.71875 
Q 44.484375 40.625 41.703125 44.40625 
Q 38.921875 48.1875 33.109375 48.1875 
Q 26.21875 48.1875 22.15625 43.53125 
Q 18.109375 38.875 18.109375 30.90625 
L 18.109375 0 
L 9.078125 0 
L 9.078125 54.6875 
L 18.109375 54.6875 
L 18.109375 46.1875 
Q 21.1875 51.21875 25.484375 53.609375 
Q 29.78125 56 35.6875 56 
Q 41.65625 56 45.828125 52.96875 
Q 50 49.953125 52 44.1875 
z
" id="DejaVuSans-109"/>
       <path d="M 56.203125 29.59375 
L 56.203125 25.203125 
L 14.890625 25.203125 
Q 15.484375 15.921875 20.484375 11.0625 
Q 25.484375 6.203125 34.421875 6.203125 
Q 39.59375 6.203125 44.453125 7.46875 
Q 49.3125 8.734375 54.109375 11.28125 
L 54.109375 2.78125 
Q 49.265625 0.734375 44.1875 -0.34375 
Q 39.109375 -1.421875 33.890625 -1.421875 
Q 20.796875 -1.421875 13.15625 6.1875 
Q 5.515625 13.8125 5.515625 26.8125 
Q 5.515625 40.234375 12.765625 48.109375 
Q 20.015625 56 32.328125 56 
Q 43.359375 56 49.78125 48.890625 
Q 56.203125 41.796875 56.203125 29.59375 
z
M 47.21875 32.234375 
Q 47.125 39.59375 43.09375 43.984375 
Q 39.0625 48.390625 32.421875 48.390625 
Q 24.90625 48.390625 20.390625 44.140625 
Q 15.875 39.890625 15.1875 32.171875 
z
" id="DejaVuSans-101"/>
       <path id="DejaVuSans-32"/>
       <path d="M 31 75.875 
Q 24.46875 64.65625 21.28125 53.65625 
Q 18.109375 42.671875 18.109375 31.390625 
Q 18.109375 20.125 21.3125 9.0625 
Q 24.515625 -2 31 -13.1875 
L 23.1875 -13.1875 
Q 15.875 -1.703125 12.234375 9.375 
Q 8.59375 20.453125 8.59375 31.390625 
Q 8.59375 42.28125 12.203125 53.3125 
Q 15.828125 64.359375 23.1875 75.875 
z
" id="DejaVuSans-40"/>
       <path d="M 44.28125 53.078125 
L 44.28125 44.578125 
Q 40.484375 46.53125 36.375 47.5 
Q 32.28125 48.484375 27.875 48.484375 
Q 21.1875 48.484375 17.84375 46.4375 
Q 14.5 44.390625 14.5 40.28125 
Q 14.5 37.15625 16.890625 35.375 
Q 19.28125 33.59375 26.515625 31.984375 
L 29.59375 31.296875 
Q 39.15625 29.25 43.1875 25.515625 
Q 47.21875 21.78125 47.21875 15.09375 
Q 47.21875 7.46875 41.1875 3.015625 
Q 35.15625 -1.421875 24.609375 -1.421875 
Q 20.21875 -1.421875 15.453125 -0.5625 
Q 10.6875 0.296875 5.421875 2 
L 5.421875 11.28125 
Q 10.40625 8.6875 15.234375 7.390625 
Q 20.0625 6.109375 24.8125 6.109375 
Q 31.15625 6.109375 34.5625 8.28125 
Q 37.984375 10.453125 37.984375 14.40625 
Q 37.984375 18.0625 35.515625 20.015625 
Q 33.0625 21.96875 24.703125 23.78125 
L 21.578125 24.515625 
Q 13.234375 26.265625 9.515625 29.90625 
Q 5.8125 33.546875 5.8125 39.890625 
Q 5.8125 47.609375 11.28125 51.796875 
Q 16.75 56 26.8125 56 
Q 31.78125 56 36.171875 55.265625 
Q 40.578125 54.546875 44.28125 53.078125 
z
" id="DejaVuSans-115"/>
       <path d="M 8.015625 75.875 
L 15.828125 75.875 
Q 23.140625 64.359375 26.78125 53.3125 
Q 30.421875 42.28125 30.421875 31.390625 
Q 30.421875 20.453125 26.78125 9.375 
Q 23.140625 -1.703125 15.828125 -13.1875 
L 8.015625 -13.1875 
Q 14.5 -2 17.703125 9.0625 
Q 20.90625 20.125 20.90625 31.390625 
Q 20.90625 42.671875 17.703125 53.65625 
Q 14.5 64.65625 8.015625 75.875 
z
" id="DejaVuSans-41"/>
      </defs>
      <use xlink:href="#DejaVuSans-84"/>
      <use x="57.958984" xlink:href="#DejaVuSans-105"/>
      <use x="85.742188" xlink:href="#DejaVuSans-109"/>
      <use x="183.154297" xlink:href="#DejaVuSans-101"/>
      <use x="244.677734" xlink:href="#DejaVuSans-32"/>
      <use x="276.464844" xlink:href="#DejaVuSans-40"/>
      <use x="315.478516" xlink:href="#DejaVuSans-115"/>
      <use x="367.578125" xlink:href="#DejaVuSans-41"/>
     </g>
    </g>
   </g>
   <g id="matplotlib.axis_2">
    <g id="ytick_1">
     <g id="line2d_53">
      <path clip-path="url(#p203378f7cb)" d="M 122.13 545.778282 
L 631.818 545.778282 
" style="fill:none;stroke:#ffffff;stroke-linecap:round;"/>
     </g>
     <g id="line2d_54"/>
     <g id="text_10">
      <!-- 0 -->
      <g transform="translate(112.2675 549.577501)scale(0.1 -0.1)">
       <use xlink:href="#DejaVuSans-48"/>
      </g>
     </g>
    </g>
    <g id="ytick_2">
     <g id="line2d_55">
      <path clip-path="url(#p203378f7cb)" d="M 122.13 468.682548 
L 631.818 468.682548 
" style="fill:none;stroke:#ffffff;stroke-linecap:round;"/>
     </g>
     <g id="line2d_56"/>
     <g id="text_11">
      <!-- 20000 -->
      <g transform="translate(86.8175 472.481767)scale(0.1 -0.1)">
       <use xlink:href="#DejaVuSans-50"/>
       <use x="63.623047" xlink:href="#DejaVuSans-48"/>
       <use x="127.246094" xlink:href="#DejaVuSans-48"/>
       <use x="190.869141" xlink:href="#DejaVuSans-48"/>
       <use x="254.492188" xlink:href="#DejaVuSans-48"/>
      </g>
     </g>
    </g>
    <g id="ytick_3">
     <g id="line2d_57">
      <path clip-path="url(#p203378f7cb)" d="M 122.13 391.586814 
L 631.818 391.586814 
" style="fill:none;stroke:#ffffff;stroke-linecap:round;"/>
     </g>
     <g id="line2d_58"/>
     <g id="text_12">
      <!-- 40000 -->
      <g transform="translate(86.8175 395.386033)scale(0.1 -0.1)">
       <use xlink:href="#DejaVuSans-52"/>
       <use x="63.623047" xlink:href="#DejaVuSans-48"/>
       <use x="127.246094" xlink:href="#DejaVuSans-48"/>
       <use x="190.869141" xlink:href="#DejaVuSans-48"/>
       <use x="254.492188" xlink:href="#DejaVuSans-48"/>
      </g>
     </g>
    </g>
    <g id="ytick_4">
     <g id="line2d_59">
      <path clip-path="url(#p203378f7cb)" d="M 122.13 314.491081 
L 631.818 314.491081 
" style="fill:none;stroke:#ffffff;stroke-linecap:round;"/>
     </g>
     <g id="line2d_60"/>
     <g id="text_13">
      <!-- 60000 -->
      <g transform="translate(86.8175 318.290299)scale(0.1 -0.1)">
       <use xlink:href="#DejaVuSans-54"/>
       <use x="63.623047" xlink:href="#DejaVuSans-48"/>
       <use x="127.246094" xlink:href="#DejaVuSans-48"/>
       <use x="190.869141" xlink:href="#DejaVuSans-48"/>
       <use x="254.492188" xlink:href="#DejaVuSans-48"/>
      </g>
     </g>
    </g>
    <g id="ytick_5">
     <g id="line2d_61">
      <path clip-path="url(#p203378f7cb)" d="M 122.13 237.395347 
L 631.818 237.395347 
" style="fill:none;stroke:#ffffff;stroke-linecap:round;"/>
     </g>
     <g id="line2d_62"/>
     <g id="text_14">
      <!-- 80000 -->
      <g transform="translate(86.8175 241.194565)scale(0.1 -0.1)">
       <use xlink:href="#DejaVuSans-56"/>
       <use x="63.623047" xlink:href="#DejaVuSans-48"/>
       <use x="127.246094" xlink:href="#DejaVuSans-48"/>
       <use x="190.869141" xlink:href="#DejaVuSans-48"/>
       <use x="254.492188" xlink:href="#DejaVuSans-48"/>
      </g>
     </g>
    </g>
    <g id="ytick_6">
     <g id="line2d_63">
      <path clip-path="url(#p203378f7cb)" d="M 122.13 160.299613 
L 631.818 160.299613 
" style="fill:none;stroke:#ffffff;stroke-linecap:round;"/>
     </g>
     <g id="line2d_64"/>
     <g id="text_15">
      <!-- 100000 -->
      <g transform="translate(80.455 164.098831)scale(0.1 -0.1)">
       <use xlink:href="#DejaVuSans-49"/>
       <use x="63.623047" xlink:href="#DejaVuSans-48"/>
       <use x="127.246094" xlink:href="#DejaVuSans-48"/>
       <use x="190.869141" xlink:href="#DejaVuSans-48"/>
       <use x="254.492188" xlink:href="#DejaVuSans-48"/>
       <use x="318.115234" xlink:href="#DejaVuSans-48"/>
      </g>
     </g>
    </g>
    <g id="ytick_7">
     <g id="line2d_65">
      <path clip-path="url(#p203378f7cb)" d="M 122.13 83.203879 
L 631.818 83.203879 
" style="fill:none;stroke:#ffffff;stroke-linecap:round;"/>
     </g>
     <g id="line2d_66"/>
     <g id="text_16">
      <!-- 120000 -->
      <g transform="translate(80.455 87.003097)scale(0.1 -0.1)">
       <use xlink:href="#DejaVuSans-49"/>
       <use x="63.623047" xlink:href="#DejaVuSans-50"/>
       <use x="127.246094" xlink:href="#DejaVuSans-48"/>
       <use x="190.869141" xlink:href="#DejaVuSans-48"/>
       <use x="254.492188" xlink:href="#DejaVuSans-48"/>
       <use x="318.115234" xlink:href="#DejaVuSans-48"/>
      </g>
     </g>
    </g>
    <g id="ytick_8">
     <g id="line2d_67"/>
    </g>
    <g id="ytick_9">
     <g id="line2d_68"/>
    </g>
    <g id="ytick_10">
     <g id="line2d_69"/>
    </g>
    <g id="ytick_11">
     <g id="line2d_70"/>
    </g>
    <g id="ytick_12">
     <g id="line2d_71"/>
    </g>
    <g id="ytick_13">
     <g id="line2d_72"/>
    </g>
    <g id="ytick_14">
     <g id="line2d_73"/>
    </g>
    <g id="ytick_15">
     <g id="line2d_74"/>
    </g>
    <g id="ytick_16">
     <g id="line2d_75"/>
    </g>
    <g id="ytick_17">
     <g id="line2d_76"/>
    </g>
    <g id="ytick_18">
     <g id="line2d_77"/>
    </g>
    <g id="ytick_19">
     <g id="line2d_78"/>
    </g>
    <g id="ytick_20">
     <g id="line2d_79"/>
    </g>
    <g id="ytick_21">
     <g id="line2d_80"/>
    </g>
    <g id="ytick_22">
     <g id="line2d_81"/>
    </g>
    <g id="ytick_23">
     <g id="line2d_82"/>
    </g>
    <g id="ytick_24">
     <g id="line2d_83"/>
    </g>
    <g id="ytick_25">
     <g id="line2d_84"/>
    </g>
    <g id="text_17">
     <!-- Bytes -->
     <g transform="translate(74.375312 326.36365)rotate(-90)scale(0.1 -0.1)">
      <defs>
       <path d="M 19.671875 34.8125 
L 19.671875 8.109375 
L 35.5 8.109375 
Q 43.453125 8.109375 47.28125 11.40625 
Q 51.125 14.703125 51.125 21.484375 
Q 51.125 28.328125 47.28125 31.5625 
Q 43.453125 34.8125 35.5 34.8125 
z
M 19.671875 64.796875 
L 19.671875 42.828125 
L 34.28125 42.828125 
Q 41.5 42.828125 45.03125 45.53125 
Q 48.578125 48.25 48.578125 53.8125 
Q 48.578125 59.328125 45.03125 62.0625 
Q 41.5 64.796875 34.28125 64.796875 
z
M 9.8125 72.90625 
L 35.015625 72.90625 
Q 46.296875 72.90625 52.390625 68.21875 
Q 58.5 63.53125 58.5 54.890625 
Q 58.5 48.1875 55.375 44.234375 
Q 52.25 40.28125 46.1875 39.3125 
Q 53.46875 37.75 57.5 32.78125 
Q 61.53125 27.828125 61.53125 20.40625 
Q 61.53125 10.640625 54.890625 5.3125 
Q 48.25 0 35.984375 0 
L 9.8125 0 
z
" id="DejaVuSans-66"/>
       <path d="M 32.171875 -5.078125 
Q 28.375 -14.84375 24.75 -17.8125 
Q 21.140625 -20.796875 15.09375 -20.796875 
L 7.90625 -20.796875 
L 7.90625 -13.28125 
L 13.1875 -13.28125 
Q 16.890625 -13.28125 18.9375 -11.515625 
Q 21 -9.765625 23.484375 -3.21875 
L 25.09375 0.875 
L 2.984375 54.6875 
L 12.5 54.6875 
L 29.59375 11.921875 
L 46.6875 54.6875 
L 56.203125 54.6875 
z
" id="DejaVuSans-121"/>
       <path d="M 18.3125 70.21875 
L 18.3125 54.6875 
L 36.8125 54.6875 
L 36.8125 47.703125 
L 18.3125 47.703125 
L 18.3125 18.015625 
Q 18.3125 11.328125 20.140625 9.421875 
Q 21.96875 7.515625 27.59375 7.515625 
L 36.8125 7.515625 
L 36.8125 0 
L 27.59375 0 
Q 17.1875 0 13.234375 3.875 
Q 9.28125 7.765625 9.28125 18.015625 
L 9.28125 47.703125 
L 2.6875 47.703125 
L 2.6875 54.6875 
L 9.28125 54.6875 
L 9.28125 70.21875 
z
" id="DejaVuSans-116"/>
      </defs>
      <use xlink:href="#DejaVuSans-66"/>
      <use x="68.603516" xlink:href="#DejaVuSans-121"/>
      <use x="127.783203" xlink:href="#DejaVuSans-116"/>
      <use x="166.992188" xlink:href="#DejaVuSans-101"/>
      <use x="228.515625" xlink:href="#DejaVuSans-115"/>
     </g>
    </g>
   </g>
   <g id="line2d_85">
    <path clip-path="url(#p203378f7cb)" d="M 122.151979 545.778282 
L 150.809571 545.778282 
L 152.062501 522.433694 
L 153.253193 522.433694 
L 154.461775 545.778282 
L 155.701595 522.433694 
L 156.982428 469.908371 
L 158.234506 545.778282 
L 159.447456 469.908371 
L 160.641875 434.891488 
L 161.841859 487.416812 
L 163.029435 545.778282 
L 164.217744 475.744518 
L 165.432483 545.778282 
L 166.619247 545.778282 
L 167.813023 452.399929 
L 168.991938 516.597547 
L 170.169803 545.778282 
L 171.362251 481.580665 
L 172.602155 364.857724 
L 173.78555 405.710753 
L 174.973782 417.383047 
L 177.37904 522.433694 
L 178.591905 405.710753 
L 180.980902 522.433694 
L 182.187541 475.744518 
L 183.359934 545.778282 
L 184.570691 452.399929 
L 185.77688 464.072224 
L 187.015746 499.089106 
L 188.244753 475.744518 
L 189.437685 464.072224 
L 190.673382 510.7614 
L 192.067784 399.874606 
L 193.907071 545.778282 
L 195.4263 446.563782 
L 197.167303 353.185429 
L 198.392829 522.179278 
L 199.67217 300.660106 
L 201.065329 499.089106 
L 202.514272 452.399929 
L 203.949398 522.433694 
L 205.142077 499.089106 
L 206.404925 423.219194 
L 207.620412 545.778282 
L 208.831397 487.416812 
L 210.307362 545.778282 
L 211.605589 522.433694 
L 212.805868 364.857724 
L 214.023085 493.252959 
L 215.403203 481.580665 
L 216.611214 545.523866 
L 217.826327 481.580665 
L 219.02627 545.778282 
L 220.279099 423.219194 
L 221.478445 417.383047 
L 222.677589 545.778282 
L 223.87481 417.383047 
L 225.074672 353.185429 
L 226.431277 545.778282 
L 227.760082 405.710753 
L 229.034644 487.416812 
L 230.550881 429.055341 
L 231.802517 481.580665 
L 233.189911 545.778282 
L 234.455953 499.089106 
L 235.748969 341.513135 
L 237.009775 545.778282 
L 238.415567 522.433694 
L 239.656791 475.744518 
L 240.877236 376.530018 
L 242.183676 399.874606 
L 243.438513 452.399929 
L 244.763656 545.778282 
L 246.076827 545.778282 
L 247.310664 446.563782 
L 248.59325 522.433694 
L 249.804418 545.778282 
L 251.102045 353.185429 
L 252.392538 522.433694 
L 253.694668 498.83469 
L 254.892646 545.778282 
L 256.115701 294.823959 
L 257.335584 464.072224 
L 258.576285 522.433694 
L 259.853164 522.433694 
L 261.070661 394.038459 
L 262.321151 394.038459 
L 263.502627 417.383047 
L 264.73765 499.089106 
L 265.925797 545.778282 
L 267.615305 545.523866 
L 268.833193 504.925253 
L 270.11943 545.778282 
L 272.596389 388.202312 
L 273.836883 271.479371 
L 275.084262 545.778282 
L 276.261727 335.676988 
L 277.485651 545.778282 
L 278.706777 405.710753 
L 280.033683 446.563782 
L 281.229809 434.891488 
L 282.445409 417.383047 
L 283.755196 481.580665 
L 285.03149 446.563782 
L 286.201864 423.219194 
L 287.395355 394.038459 
L 288.583166 499.089106 
L 289.832534 434.891488 
L 291.134771 288.987812 
L 292.338589 545.778282 
L 293.550897 481.580665 
L 294.805509 522.433694 
L 296.082574 516.597547 
L 297.308615 388.202312 
L 298.592653 464.072224 
L 299.788091 545.778282 
L 301.103084 522.433694 
L 302.782499 545.778282 
L 304.125678 522.179278 
L 305.387659 452.399929 
L 306.575371 329.840841 
L 307.888571 522.433694 
L 309.125277 370.693871 
L 310.312606 429.055341 
L 311.492224 545.778282 
L 312.765777 545.778282 
L 313.956151 522.433694 
L 315.183798 522.433694 
L 349.7322 545.778282 
L 350.972205 172.264871 
L 352.170655 499.089106 
L 354.568763 399.874606 
L 355.770362 452.399929 
L 356.952682 475.744518 
L 358.13399 545.778282 
L 359.340339 522.433694 
L 360.524404 376.530018 
L 361.75611 446.232271 
L 364.131604 230.626341 
L 365.352972 324.004694 
L 366.551833 324.004694 
L 367.755694 423.219194 
L 368.947342 499.089106 
L 370.146582 496.475561 
L 371.325152 335.676988 
L 372.508633 522.433694 
L 374.861722 545.778282 
L 376.126814 399.874606 
L 378.519785 388.202312 
L 379.741458 545.778282 
L 380.966302 545.778282 
L 382.158621 475.744518 
L 383.371972 522.433694 
L 384.586256 522.433694 
L 385.80485 382.366165 
L 386.985684 522.433694 
L 388.161237 499.089106 
L 389.393586 324.004694 
L 390.633722 522.433694 
L 391.829138 545.778282 
L 393.05043 259.807076 
L 419.421619 545.778282 
L 420.639888 475.744518 
L 423.068195 429.055341 
L 424.244994 545.778282 
L 425.440062 493.252959 
L 426.640955 382.366165 
L 427.888075 545.778282 
L 430.734166 545.778282 
L 432.524915 475.578762 
L 433.831728 522.433694 
L 435.131871 522.433694 
L 436.400214 429.055341 
L 437.625162 312.3324 
L 438.926059 499.089106 
L 440.126643 394.038459 
L 441.345741 364.857724 
L 442.540374 370.693871 
L 443.730876 522.433694 
L 444.957174 364.857724 
L 447.351424 382.366165 
L 448.528546 288.987812 
L 449.704867 475.744518 
L 450.876369 452.399929 
L 452.100763 452.399929 
L 453.289238 376.530018 
L 454.459368 545.778282 
L 455.6435 394.038459 
L 456.847543 499.089106 
L 458.06749 545.778282 
L 460.476349 545.778282 
L 461.679712 399.874606 
L 462.888508 113.9034 
L 464.091524 429.055341 
L 465.310214 522.433694 
L 466.504239 522.433694 
L 467.694311 446.563782 
L 469.079042 545.778282 
L 470.441045 78.886518 
L 471.628925 160.592576 
L 472.835794 288.987812 
L 474.10453 545.778282 
L 475.427118 545.778282 
L 476.638079 230.626341 
L 477.810409 265.643224 
L 479.035095 306.496253 
L 480.302756 522.433694 
L 481.502577 499.089106 
L 482.679152 429.055341 
L 483.864213 452.399929 
L 485.040522 522.433694 
L 486.24642 452.399929 
L 487.462015 498.83469 
L 488.650507 452.399929 
L 489.911941 469.908371 
L 491.156581 253.970929 
L 492.394732 545.778282 
L 493.576273 516.597547 
L 494.754815 545.778282 
L 607.548189 545.778282 
L 607.548189 545.778282 
" style="fill:none;stroke:#1b9e77;stroke-linecap:round;"/>
   </g>
   <g id="line2d_86">
    <path clip-path="url(#p203378f7cb)" d="M 122.160545 545.778282 
L 267.961977 545.778282 
L 269.18708 522.433694 
L 270.36214 545.778282 
L 287.020043 545.778282 
L 288.196073 545.523866 
L 289.384779 545.778282 
L 310.946663 545.778282 
L 312.129835 522.433694 
L 313.313783 545.778282 
L 339.425584 545.778282 
L 340.624558 545.269451 
L 341.797635 545.778282 
L 366.854894 545.778282 
L 368.088977 545.523866 
L 369.272563 545.778282 
L 389.473666 545.778282 
L 390.668421 545.523866 
L 391.868339 545.778282 
L 434.691164 545.778282 
L 435.880267 522.433694 
L 437.062481 545.778282 
L 538.932358 545.778282 
L 538.932358 545.778282 
" style="fill:none;stroke:#d95f02;stroke-dasharray:3.7,1.6;stroke-dashoffset:0;"/>
   </g>
   <g id="line2d_87">
    <path clip-path="url(#p203378f7cb)" d="M 122.13 545.778282 
L 149.149565 545.778282 
L 150.787128 533.234806 
L 152.113545 545.778282 
L 168.195606 545.778282 
L 169.390945 545.523866 
L 170.591987 545.778282 
L 188.93976 545.778282 
L 190.133197 545.523866 
L 191.385159 545.778282 
L 221.403432 545.778282 
L 222.594789 545.358111 
L 223.774385 545.778282 
L 253.709061 545.778282 
L 254.891269 504.925253 
L 256.083838 545.778282 
L 265.535226 545.778282 
L 266.762548 545.612527 
L 267.948661 545.778282 
L 306.945608 545.778282 
L 308.177905 545.523866 
L 309.41486 545.778282 
L 337.670181 545.778282 
L 338.863026 545.523866 
L 340.058366 545.778282 
L 366.386307 545.778282 
L 367.610071 545.400513 
L 368.960959 545.778282 
L 376.25568 545.778282 
L 377.498233 545.103695 
L 378.699254 545.778282 
L 411.379646 545.778282 
L 412.588358 545.358111 
L 413.999116 545.015035 
L 415.24702 545.778282 
L 482.252354 545.778282 
L 483.476887 545.523866 
L 484.708837 545.778282 
L 550.53864 545.778282 
L 550.53864 545.778282 
" style="fill:none;stroke:#7570b3;stroke-dasharray:2,4;stroke-dashoffset:0;"/>
   </g>
   <g id="line2d_88">
    <path clip-path="url(#p203378f7cb)" d="M 122.172822 545.778282 
L 151.760213 545.778282 
L 152.996918 542.216459 
L 154.173617 545.778282 
L 222.589425 545.778282 
L 223.887715 545.523866 
L 225.240857 545.778282 
L 252.542614 545.778282 
L 253.748696 499.089106 
L 255.071573 545.778282 
L 290.343962 545.778282 
L 291.53115 522.433694 
L 292.729394 545.778282 
L 333.399973 545.778282 
L 334.624245 545.358111 
L 335.80299 382.366165 
L 337.005902 545.778282 
L 409.445483 545.778282 
L 410.703366 545.103695 
L 411.896594 545.778282 
L 427.596479 545.778282 
L 428.787365 545.523866 
L 429.967615 545.778282 
L 443.09626 545.778282 
L 444.287124 545.523866 
L 445.465669 545.778282 
L 487.471031 545.778282 
L 488.789406 516.177375 
L 489.969064 545.778282 
L 545.199593 545.778282 
L 545.199593 545.778282 
" style="fill:none;stroke:#e7298a;stroke-dasharray:8,4,2,4;stroke-dashoffset:0;"/>
   </g>
   <g id="line2d_89">
    <path clip-path="url(#p203378f7cb)" d="M 122.181377 545.778282 
L 164.145593 545.778282 
L 165.342107 545.523866 
L 166.599714 545.778282 
L 208.444013 545.778282 
L 209.695733 545.358111 
L 210.943766 545.778282 
L 224.543455 545.778282 
L 225.89445 545.269451 
L 227.192841 545.778282 
L 230.841004 545.778282 
L 232.146604 545.269451 
L 235.040247 545.778282 
L 269.131502 545.778282 
L 270.330656 545.269451 
L 271.510819 545.778282 
L 288.724675 545.778282 
L 289.930548 545.523866 
L 291.138965 545.778282 
L 373.854451 545.778282 
L 375.28164 545.026599 
L 378.162579 545.778282 
L 387.783114 545.778282 
L 388.990161 545.523866 
L 390.356065 545.778282 
L 407.389757 545.778282 
L 409.39135 545.358111 
L 410.717164 545.778282 
L 438.011431 545.778282 
L 439.252784 516.597547 
L 440.657697 545.778282 
L 454.139644 545.778282 
L 455.33993 545.612527 
L 456.589446 545.778282 
L 579.010674 545.778282 
L 579.010674 545.778282 
" style="fill:none;stroke:#66a61e;stroke-linecap:round;"/>
    <defs>
     <path d="M 0 3 
C 0.795609 3 1.55874 2.683901 2.12132 2.12132 
C 2.683901 1.55874 3 0.795609 3 0 
C 3 -0.795609 2.683901 -1.55874 2.12132 -2.12132 
C 1.55874 -2.683901 0.795609 -3 0 -3 
C -0.795609 -3 -1.55874 -2.683901 -2.12132 -2.12132 
C -2.683901 -1.55874 -3 -0.795609 -3 0 
C -3 0.795609 -2.683901 1.55874 -2.12132 2.12132 
C -1.55874 2.683901 -0.795609 3 0 3 
z
" id="m96ac2d4c7f" style="stroke:#66a61e;"/>
    </defs>
    <g clip-path="url(#p203378f7cb)">
     <use style="fill:#66a61e;stroke:#66a61e;" x="122.181377" xlink:href="#m96ac2d4c7f" y="545.778282"/>
     <use style="fill:#66a61e;stroke:#66a61e;" x="133.946083" xlink:href="#m96ac2d4c7f" y="545.778282"/>
     <use style="fill:#66a61e;stroke:#66a61e;" x="145.858459" xlink:href="#m96ac2d4c7f" y="545.778282"/>
     <use style="fill:#66a61e;stroke:#66a61e;" x="157.910468" xlink:href="#m96ac2d4c7f" y="545.778282"/>
     <use style="fill:#66a61e;stroke:#66a61e;" x="170.615013" xlink:href="#m96ac2d4c7f" y="545.778282"/>
     <use style="fill:#66a61e;stroke:#66a61e;" x="182.974578" xlink:href="#m96ac2d4c7f" y="545.778282"/>
     <use style="fill:#66a61e;stroke:#66a61e;" x="195.012236" xlink:href="#m96ac2d4c7f" y="545.778282"/>
     <use style="fill:#66a61e;stroke:#66a61e;" x="207.263829" xlink:href="#m96ac2d4c7f" y="545.778282"/>
     <use style="fill:#66a61e;stroke:#66a61e;" x="219.630534" xlink:href="#m96ac2d4c7f" y="545.778282"/>
     <use style="fill:#66a61e;stroke:#66a61e;" x="232.146604" xlink:href="#m96ac2d4c7f" y="545.269451"/>
     <use style="fill:#66a61e;stroke:#66a61e;" x="248.943232" xlink:href="#m96ac2d4c7f" y="545.778282"/>
     <use style="fill:#66a61e;stroke:#66a61e;" x="261.016226" xlink:href="#m96ac2d4c7f" y="545.778282"/>
     <use style="fill:#66a61e;stroke:#66a61e;" x="275.339535" xlink:href="#m96ac2d4c7f" y="545.778282"/>
     <use style="fill:#66a61e;stroke:#66a61e;" x="287.525648" xlink:href="#m96ac2d4c7f" y="545.778282"/>
     <use style="fill:#66a61e;stroke:#66a61e;" x="299.686665" xlink:href="#m96ac2d4c7f" y="545.778282"/>
     <use style="fill:#66a61e;stroke:#66a61e;" x="312.834186" xlink:href="#m96ac2d4c7f" y="545.778282"/>
     <use style="fill:#66a61e;stroke:#66a61e;" x="326.407074" xlink:href="#m96ac2d4c7f" y="545.778282"/>
     <use style="fill:#66a61e;stroke:#66a61e;" x="339.578552" xlink:href="#m96ac2d4c7f" y="545.778282"/>
     <use style="fill:#66a61e;stroke:#66a61e;" x="358.604144" xlink:href="#m96ac2d4c7f" y="545.778282"/>
     <use style="fill:#66a61e;stroke:#66a61e;" x="375.28164" xlink:href="#m96ac2d4c7f" y="545.026599"/>
     <use style="fill:#66a61e;stroke:#66a61e;" x="391.951142" xlink:href="#m96ac2d4c7f" y="545.778282"/>
     <use style="fill:#66a61e;stroke:#66a61e;" x="407.389757" xlink:href="#m96ac2d4c7f" y="545.778282"/>
     <use style="fill:#66a61e;stroke:#66a61e;" x="420.445062" xlink:href="#m96ac2d4c7f" y="545.778282"/>
     <use style="fill:#66a61e;stroke:#66a61e;" x="432.931765" xlink:href="#m96ac2d4c7f" y="545.778282"/>
     <use style="fill:#66a61e;stroke:#66a61e;" x="446.262362" xlink:href="#m96ac2d4c7f" y="545.778282"/>
     <use style="fill:#66a61e;stroke:#66a61e;" x="459.341127" xlink:href="#m96ac2d4c7f" y="545.778282"/>
     <use style="fill:#66a61e;stroke:#66a61e;" x="472.186656" xlink:href="#m96ac2d4c7f" y="545.778282"/>
     <use style="fill:#66a61e;stroke:#66a61e;" x="484.424997" xlink:href="#m96ac2d4c7f" y="545.778282"/>
     <use style="fill:#66a61e;stroke:#66a61e;" x="496.60982" xlink:href="#m96ac2d4c7f" y="545.778282"/>
     <use style="fill:#66a61e;stroke:#66a61e;" x="509.850185" xlink:href="#m96ac2d4c7f" y="545.778282"/>
     <use style="fill:#66a61e;stroke:#66a61e;" x="521.628804" xlink:href="#m96ac2d4c7f" y="545.778282"/>
     <use style="fill:#66a61e;stroke:#66a61e;" x="533.399286" xlink:href="#m96ac2d4c7f" y="545.778282"/>
     <use style="fill:#66a61e;stroke:#66a61e;" x="545.100524" xlink:href="#m96ac2d4c7f" y="545.778282"/>
     <use style="fill:#66a61e;stroke:#66a61e;" x="556.797448" xlink:href="#m96ac2d4c7f" y="545.778282"/>
     <use style="fill:#66a61e;stroke:#66a61e;" x="568.487007" xlink:href="#m96ac2d4c7f" y="545.778282"/>
    </g>
   </g>
   <g id="patch_3">
    <path d="M 122.13 550.4472 
L 122.13 74.2176 
" style="fill:none;"/>
   </g>
   <g id="patch_4">
    <path d="M 631.818 550.4472 
L 631.818 74.2176 
" style="fill:none;"/>
   </g>
   <g id="patch_5">
    <path d="M 122.13 550.4472 
L 631.818 550.4472 
" style="fill:none;"/>
   </g>
   <g id="patch_6">
    <path d="M 122.13 74.2176 
L 631.818 74.2176 
" style="fill:none;"/>
   </g>
   <g id="legend_1">
    <g id="line2d_90">
     <path d="M 645.34376 80.963598 
L 662.00376 80.963598 
" style="fill:none;stroke:#1b9e77;stroke-linecap:round;"/>
    </g>
    <g id="line2d_91"/>
    <g id="text_18">
     <!-- Backlog (bytes) - - localhost (ens33) - BBRn-fq -->
     <g transform="translate(668.66776 83.879098)scale(0.0833 -0.0833)">
      <defs>
       <path d="M 34.28125 27.484375 
Q 23.390625 27.484375 19.1875 25 
Q 14.984375 22.515625 14.984375 16.5 
Q 14.984375 11.71875 18.140625 8.90625 
Q 21.296875 6.109375 26.703125 6.109375 
Q 34.1875 6.109375 38.703125 11.40625 
Q 43.21875 16.703125 43.21875 25.484375 
L 43.21875 27.484375 
z
M 52.203125 31.203125 
L 52.203125 0 
L 43.21875 0 
L 43.21875 8.296875 
Q 40.140625 3.328125 35.546875 0.953125 
Q 30.953125 -1.421875 24.3125 -1.421875 
Q 15.921875 -1.421875 10.953125 3.296875 
Q 6 8.015625 6 15.921875 
Q 6 25.140625 12.171875 29.828125 
Q 18.359375 34.515625 30.609375 34.515625 
L 43.21875 34.515625 
L 43.21875 35.40625 
Q 43.21875 41.609375 39.140625 45 
Q 35.0625 48.390625 27.6875 48.390625 
Q 23 48.390625 18.546875 47.265625 
Q 14.109375 46.140625 10.015625 43.890625 
L 10.015625 52.203125 
Q 14.9375 54.109375 19.578125 55.046875 
Q 24.21875 56 28.609375 56 
Q 40.484375 56 46.34375 49.84375 
Q 52.203125 43.703125 52.203125 31.203125 
z
" id="DejaVuSans-97"/>
       <path d="M 48.78125 52.59375 
L 48.78125 44.1875 
Q 44.96875 46.296875 41.140625 47.34375 
Q 37.3125 48.390625 33.40625 48.390625 
Q 24.65625 48.390625 19.8125 42.84375 
Q 14.984375 37.3125 14.984375 27.296875 
Q 14.984375 17.28125 19.8125 11.734375 
Q 24.65625 6.203125 33.40625 6.203125 
Q 37.3125 6.203125 41.140625 7.25 
Q 44.96875 8.296875 48.78125 10.40625 
L 48.78125 2.09375 
Q 45.015625 0.34375 40.984375 -0.53125 
Q 36.96875 -1.421875 32.421875 -1.421875 
Q 20.0625 -1.421875 12.78125 6.34375 
Q 5.515625 14.109375 5.515625 27.296875 
Q 5.515625 40.671875 12.859375 48.328125 
Q 20.21875 56 33.015625 56 
Q 37.15625 56 41.109375 55.140625 
Q 45.0625 54.296875 48.78125 52.59375 
z
" id="DejaVuSans-99"/>
       <path d="M 9.078125 75.984375 
L 18.109375 75.984375 
L 18.109375 31.109375 
L 44.921875 54.6875 
L 56.390625 54.6875 
L 27.390625 29.109375 
L 57.625 0 
L 45.90625 0 
L 18.109375 26.703125 
L 18.109375 0 
L 9.078125 0 
z
" id="DejaVuSans-107"/>
       <path d="M 9.421875 75.984375 
L 18.40625 75.984375 
L 18.40625 0 
L 9.421875 0 
z
" id="DejaVuSans-108"/>
       <path d="M 30.609375 48.390625 
Q 23.390625 48.390625 19.1875 42.75 
Q 14.984375 37.109375 14.984375 27.296875 
Q 14.984375 17.484375 19.15625 11.84375 
Q 23.34375 6.203125 30.609375 6.203125 
Q 37.796875 6.203125 41.984375 11.859375 
Q 46.1875 17.53125 46.1875 27.296875 
Q 46.1875 37.015625 41.984375 42.703125 
Q 37.796875 48.390625 30.609375 48.390625 
z
M 30.609375 56 
Q 42.328125 56 49.015625 48.375 
Q 55.71875 40.765625 55.71875 27.296875 
Q 55.71875 13.875 49.015625 6.21875 
Q 42.328125 -1.421875 30.609375 -1.421875 
Q 18.84375 -1.421875 12.171875 6.21875 
Q 5.515625 13.875 5.515625 27.296875 
Q 5.515625 40.765625 12.171875 48.375 
Q 18.84375 56 30.609375 56 
z
" id="DejaVuSans-111"/>
       <path d="M 45.40625 27.984375 
Q 45.40625 37.75 41.375 43.109375 
Q 37.359375 48.484375 30.078125 48.484375 
Q 22.859375 48.484375 18.828125 43.109375 
Q 14.796875 37.75 14.796875 27.984375 
Q 14.796875 18.265625 18.828125 12.890625 
Q 22.859375 7.515625 30.078125 7.515625 
Q 37.359375 7.515625 41.375 12.890625 
Q 45.40625 18.265625 45.40625 27.984375 
z
M 54.390625 6.78125 
Q 54.390625 -7.171875 48.1875 -13.984375 
Q 42 -20.796875 29.203125 -20.796875 
Q 24.46875 -20.796875 20.265625 -20.09375 
Q 16.0625 -19.390625 12.109375 -17.921875 
L 12.109375 -9.1875 
Q 16.0625 -11.328125 19.921875 -12.34375 
Q 23.78125 -13.375 27.78125 -13.375 
Q 36.625 -13.375 41.015625 -8.765625 
Q 45.40625 -4.15625 45.40625 5.171875 
L 45.40625 9.625 
Q 42.625 4.78125 38.28125 2.390625 
Q 33.9375 0 27.875 0 
Q 17.828125 0 11.671875 7.65625 
Q 5.515625 15.328125 5.515625 27.984375 
Q 5.515625 40.671875 11.671875 48.328125 
Q 17.828125 56 27.875 56 
Q 33.9375 56 38.28125 53.609375 
Q 42.625 51.21875 45.40625 46.390625 
L 45.40625 54.6875 
L 54.390625 54.6875 
z
" id="DejaVuSans-103"/>
       <path d="M 48.6875 27.296875 
Q 48.6875 37.203125 44.609375 42.84375 
Q 40.53125 48.484375 33.40625 48.484375 
Q 26.265625 48.484375 22.1875 42.84375 
Q 18.109375 37.203125 18.109375 27.296875 
Q 18.109375 17.390625 22.1875 11.75 
Q 26.265625 6.109375 33.40625 6.109375 
Q 40.53125 6.109375 44.609375 11.75 
Q 48.6875 17.390625 48.6875 27.296875 
z
M 18.109375 46.390625 
Q 20.953125 51.265625 25.265625 53.625 
Q 29.59375 56 35.59375 56 
Q 45.5625 56 51.78125 48.09375 
Q 58.015625 40.1875 58.015625 27.296875 
Q 58.015625 14.40625 51.78125 6.484375 
Q 45.5625 -1.421875 35.59375 -1.421875 
Q 29.59375 -1.421875 25.265625 0.953125 
Q 20.953125 3.328125 18.109375 8.203125 
L 18.109375 0 
L 9.078125 0 
L 9.078125 75.984375 
L 18.109375 75.984375 
z
" id="DejaVuSans-98"/>
       <path d="M 4.890625 31.390625 
L 31.203125 31.390625 
L 31.203125 23.390625 
L 4.890625 23.390625 
z
" id="DejaVuSans-45"/>
       <path d="M 54.890625 33.015625 
L 54.890625 0 
L 45.90625 0 
L 45.90625 32.71875 
Q 45.90625 40.484375 42.875 44.328125 
Q 39.84375 48.1875 33.796875 48.1875 
Q 26.515625 48.1875 22.3125 43.546875 
Q 18.109375 38.921875 18.109375 30.90625 
L 18.109375 0 
L 9.078125 0 
L 9.078125 75.984375 
L 18.109375 75.984375 
L 18.109375 46.1875 
Q 21.34375 51.125 25.703125 53.5625 
Q 30.078125 56 35.796875 56 
Q 45.21875 56 50.046875 50.171875 
Q 54.890625 44.34375 54.890625 33.015625 
z
" id="DejaVuSans-104"/>
       <path d="M 54.890625 33.015625 
L 54.890625 0 
L 45.90625 0 
L 45.90625 32.71875 
Q 45.90625 40.484375 42.875 44.328125 
Q 39.84375 48.1875 33.796875 48.1875 
Q 26.515625 48.1875 22.3125 43.546875 
Q 18.109375 38.921875 18.109375 30.90625 
L 18.109375 0 
L 9.078125 0 
L 9.078125 54.6875 
L 18.109375 54.6875 
L 18.109375 46.1875 
Q 21.34375 51.125 25.703125 53.5625 
Q 30.078125 56 35.796875 56 
Q 45.21875 56 50.046875 50.171875 
Q 54.890625 44.34375 54.890625 33.015625 
z
" id="DejaVuSans-110"/>
       <path d="M 44.390625 34.1875 
Q 47.5625 33.109375 50.5625 29.59375 
Q 53.5625 26.078125 56.59375 19.921875 
L 66.609375 0 
L 56 0 
L 46.6875 18.703125 
Q 43.0625 26.03125 39.671875 28.421875 
Q 36.28125 30.8125 30.421875 30.8125 
L 19.671875 30.8125 
L 19.671875 0 
L 9.8125 0 
L 9.8125 72.90625 
L 32.078125 72.90625 
Q 44.578125 72.90625 50.734375 67.671875 
Q 56.890625 62.453125 56.890625 51.90625 
Q 56.890625 45.015625 53.6875 40.46875 
Q 50.484375 35.9375 44.390625 34.1875 
z
M 19.671875 64.796875 
L 19.671875 38.921875 
L 32.078125 38.921875 
Q 39.203125 38.921875 42.84375 42.21875 
Q 46.484375 45.515625 46.484375 51.90625 
Q 46.484375 58.296875 42.84375 61.546875 
Q 39.203125 64.796875 32.078125 64.796875 
z
" id="DejaVuSans-82"/>
       <path d="M 37.109375 75.984375 
L 37.109375 68.5 
L 28.515625 68.5 
Q 23.6875 68.5 21.796875 66.546875 
Q 19.921875 64.59375 19.921875 59.515625 
L 19.921875 54.6875 
L 34.71875 54.6875 
L 34.71875 47.703125 
L 19.921875 47.703125 
L 19.921875 0 
L 10.890625 0 
L 10.890625 47.703125 
L 2.296875 47.703125 
L 2.296875 54.6875 
L 10.890625 54.6875 
L 10.890625 58.5 
Q 10.890625 67.625 15.140625 71.796875 
Q 19.390625 75.984375 28.609375 75.984375 
z
" id="DejaVuSans-102"/>
       <path d="M 14.796875 27.296875 
Q 14.796875 17.390625 18.875 11.75 
Q 22.953125 6.109375 30.078125 6.109375 
Q 37.203125 6.109375 41.296875 11.75 
Q 45.40625 17.390625 45.40625 27.296875 
Q 45.40625 37.203125 41.296875 42.84375 
Q 37.203125 48.484375 30.078125 48.484375 
Q 22.953125 48.484375 18.875 42.84375 
Q 14.796875 37.203125 14.796875 27.296875 
z
M 45.40625 8.203125 
Q 42.578125 3.328125 38.25 0.953125 
Q 33.9375 -1.421875 27.875 -1.421875 
Q 17.96875 -1.421875 11.734375 6.484375 
Q 5.515625 14.40625 5.515625 27.296875 
Q 5.515625 40.1875 11.734375 48.09375 
Q 17.96875 56 27.875 56 
Q 33.9375 56 38.25 53.625 
Q 42.578125 51.265625 45.40625 46.390625 
L 45.40625 54.6875 
L 54.390625 54.6875 
L 54.390625 -20.796875 
L 45.40625 -20.796875 
z
" id="DejaVuSans-113"/>
      </defs>
      <use xlink:href="#DejaVuSans-66"/>
      <use x="68.603516" xlink:href="#DejaVuSans-97"/>
      <use x="129.882812" xlink:href="#DejaVuSans-99"/>
      <use x="184.863281" xlink:href="#DejaVuSans-107"/>
      <use x="242.773438" xlink:href="#DejaVuSans-108"/>
      <use x="270.556641" xlink:href="#DejaVuSans-111"/>
      <use x="331.738281" xlink:href="#DejaVuSans-103"/>
      <use x="395.214844" xlink:href="#DejaVuSans-32"/>
      <use x="427.001953" xlink:href="#DejaVuSans-40"/>
      <use x="466.015625" xlink:href="#DejaVuSans-98"/>
      <use x="529.492188" xlink:href="#DejaVuSans-121"/>
      <use x="588.671875" xlink:href="#DejaVuSans-116"/>
      <use x="627.880859" xlink:href="#DejaVuSans-101"/>
      <use x="689.404297" xlink:href="#DejaVuSans-115"/>
      <use x="741.503906" xlink:href="#DejaVuSans-41"/>
      <use x="780.517578" xlink:href="#DejaVuSans-32"/>
      <use x="812.304688" xlink:href="#DejaVuSans-45"/>
      <use x="848.388672" xlink:href="#DejaVuSans-45"/>
      <use x="884.472656" xlink:href="#DejaVuSans-32"/>
      <use x="916.259766" xlink:href="#DejaVuSans-108"/>
      <use x="944.042969" xlink:href="#DejaVuSans-111"/>
      <use x="1005.224609" xlink:href="#DejaVuSans-99"/>
      <use x="1060.205078" xlink:href="#DejaVuSans-97"/>
      <use x="1121.484375" xlink:href="#DejaVuSans-108"/>
      <use x="1149.267578" xlink:href="#DejaVuSans-104"/>
      <use x="1212.646484" xlink:href="#DejaVuSans-111"/>
      <use x="1273.828125" xlink:href="#DejaVuSans-115"/>
      <use x="1325.927734" xlink:href="#DejaVuSans-116"/>
      <use x="1365.136719" xlink:href="#DejaVuSans-32"/>
      <use x="1396.923828" xlink:href="#DejaVuSans-40"/>
      <use x="1435.9375" xlink:href="#DejaVuSans-101"/>
      <use x="1497.460938" xlink:href="#DejaVuSans-110"/>
      <use x="1560.839844" xlink:href="#DejaVuSans-115"/>
      <use x="1612.939453" xlink:href="#DejaVuSans-51"/>
      <use x="1676.5625" xlink:href="#DejaVuSans-51"/>
      <use x="1740.185547" xlink:href="#DejaVuSans-41"/>
      <use x="1779.199219" xlink:href="#DejaVuSans-32"/>
      <use x="1810.986328" xlink:href="#DejaVuSans-45"/>
      <use x="1847.070312" xlink:href="#DejaVuSans-32"/>
      <use x="1878.857422" xlink:href="#DejaVuSans-66"/>
      <use x="1947.460938" xlink:href="#DejaVuSans-66"/>
      <use x="2016.064453" xlink:href="#DejaVuSans-82"/>
      <use x="2085.546875" xlink:href="#DejaVuSans-110"/>
      <use x="2148.925781" xlink:href="#DejaVuSans-45"/>
      <use x="2185.009766" xlink:href="#DejaVuSans-102"/>
      <use x="2220.214844" xlink:href="#DejaVuSans-113"/>
     </g>
    </g>
    <g id="line2d_92">
     <path d="M 645.34376 93.190477 
L 662.00376 93.190477 
" style="fill:none;stroke:#d95f02;stroke-dasharray:3.7,1.6;stroke-dashoffset:0;"/>
    </g>
    <g id="line2d_93"/>
    <g id="text_19">
     <!-- Backlog (bytes) - - localhost (ens33) - BBRn-codel -->
     <g transform="translate(668.66776 96.105977)scale(0.0833 -0.0833)">
      <defs>
       <path d="M 45.40625 46.390625 
L 45.40625 75.984375 
L 54.390625 75.984375 
L 54.390625 0 
L 45.40625 0 
L 45.40625 8.203125 
Q 42.578125 3.328125 38.25 0.953125 
Q 33.9375 -1.421875 27.875 -1.421875 
Q 17.96875 -1.421875 11.734375 6.484375 
Q 5.515625 14.40625 5.515625 27.296875 
Q 5.515625 40.1875 11.734375 48.09375 
Q 17.96875 56 27.875 56 
Q 33.9375 56 38.25 53.625 
Q 42.578125 51.265625 45.40625 46.390625 
z
M 14.796875 27.296875 
Q 14.796875 17.390625 18.875 11.75 
Q 22.953125 6.109375 30.078125 6.109375 
Q 37.203125 6.109375 41.296875 11.75 
Q 45.40625 17.390625 45.40625 27.296875 
Q 45.40625 37.203125 41.296875 42.84375 
Q 37.203125 48.484375 30.078125 48.484375 
Q 22.953125 48.484375 18.875 42.84375 
Q 14.796875 37.203125 14.796875 27.296875 
z
" id="DejaVuSans-100"/>
      </defs>
      <use xlink:href="#DejaVuSans-66"/>
      <use x="68.603516" xlink:href="#DejaVuSans-97"/>
      <use x="129.882812" xlink:href="#DejaVuSans-99"/>
      <use x="184.863281" xlink:href="#DejaVuSans-107"/>
      <use x="242.773438" xlink:href="#DejaVuSans-108"/>
      <use x="270.556641" xlink:href="#DejaVuSans-111"/>
      <use x="331.738281" xlink:href="#DejaVuSans-103"/>
      <use x="395.214844" xlink:href="#DejaVuSans-32"/>
      <use x="427.001953" xlink:href="#DejaVuSans-40"/>
      <use x="466.015625" xlink:href="#DejaVuSans-98"/>
      <use x="529.492188" xlink:href="#DejaVuSans-121"/>
      <use x="588.671875" xlink:href="#DejaVuSans-116"/>
      <use x="627.880859" xlink:href="#DejaVuSans-101"/>
      <use x="689.404297" xlink:href="#DejaVuSans-115"/>
      <use x="741.503906" xlink:href="#DejaVuSans-41"/>
      <use x="780.517578" xlink:href="#DejaVuSans-32"/>
      <use x="812.304688" xlink:href="#DejaVuSans-45"/>
      <use x="848.388672" xlink:href="#DejaVuSans-45"/>
      <use x="884.472656" xlink:href="#DejaVuSans-32"/>
      <use x="916.259766" xlink:href="#DejaVuSans-108"/>
      <use x="944.042969" xlink:href="#DejaVuSans-111"/>
      <use x="1005.224609" xlink:href="#DejaVuSans-99"/>
      <use x="1060.205078" xlink:href="#DejaVuSans-97"/>
      <use x="1121.484375" xlink:href="#DejaVuSans-108"/>
      <use x="1149.267578" xlink:href="#DejaVuSans-104"/>
      <use x="1212.646484" xlink:href="#DejaVuSans-111"/>
      <use x="1273.828125" xlink:href="#DejaVuSans-115"/>
      <use x="1325.927734" xlink:href="#DejaVuSans-116"/>
      <use x="1365.136719" xlink:href="#DejaVuSans-32"/>
      <use x="1396.923828" xlink:href="#DejaVuSans-40"/>
      <use x="1435.9375" xlink:href="#DejaVuSans-101"/>
      <use x="1497.460938" xlink:href="#DejaVuSans-110"/>
      <use x="1560.839844" xlink:href="#DejaVuSans-115"/>
      <use x="1612.939453" xlink:href="#DejaVuSans-51"/>
      <use x="1676.5625" xlink:href="#DejaVuSans-51"/>
      <use x="1740.185547" xlink:href="#DejaVuSans-41"/>
      <use x="1779.199219" xlink:href="#DejaVuSans-32"/>
      <use x="1810.986328" xlink:href="#DejaVuSans-45"/>
      <use x="1847.070312" xlink:href="#DejaVuSans-32"/>
      <use x="1878.857422" xlink:href="#DejaVuSans-66"/>
      <use x="1947.460938" xlink:href="#DejaVuSans-66"/>
      <use x="2016.064453" xlink:href="#DejaVuSans-82"/>
      <use x="2085.546875" xlink:href="#DejaVuSans-110"/>
      <use x="2148.925781" xlink:href="#DejaVuSans-45"/>
      <use x="2185.009766" xlink:href="#DejaVuSans-99"/>
      <use x="2239.990234" xlink:href="#DejaVuSans-111"/>
      <use x="2301.171875" xlink:href="#DejaVuSans-100"/>
      <use x="2364.648438" xlink:href="#DejaVuSans-101"/>
      <use x="2426.171875" xlink:href="#DejaVuSans-108"/>
     </g>
    </g>
    <g id="line2d_94">
     <path d="M 645.34376 105.417355 
L 662.00376 105.417355 
" style="fill:none;stroke:#7570b3;stroke-dasharray:2,4;stroke-dashoffset:0;"/>
    </g>
    <g id="line2d_95"/>
    <g id="text_20">
     <!-- Backlog (bytes) - - localhost (ens33) - BBRn-cake -->
     <g transform="translate(668.66776 108.332855)scale(0.0833 -0.0833)">
      <use xlink:href="#DejaVuSans-66"/>
      <use x="68.603516" xlink:href="#DejaVuSans-97"/>
      <use x="129.882812" xlink:href="#DejaVuSans-99"/>
      <use x="184.863281" xlink:href="#DejaVuSans-107"/>
      <use x="242.773438" xlink:href="#DejaVuSans-108"/>
      <use x="270.556641" xlink:href="#DejaVuSans-111"/>
      <use x="331.738281" xlink:href="#DejaVuSans-103"/>
      <use x="395.214844" xlink:href="#DejaVuSans-32"/>
      <use x="427.001953" xlink:href="#DejaVuSans-40"/>
      <use x="466.015625" xlink:href="#DejaVuSans-98"/>
      <use x="529.492188" xlink:href="#DejaVuSans-121"/>
      <use x="588.671875" xlink:href="#DejaVuSans-116"/>
      <use x="627.880859" xlink:href="#DejaVuSans-101"/>
      <use x="689.404297" xlink:href="#DejaVuSans-115"/>
      <use x="741.503906" xlink:href="#DejaVuSans-41"/>
      <use x="780.517578" xlink:href="#DejaVuSans-32"/>
      <use x="812.304688" xlink:href="#DejaVuSans-45"/>
      <use x="848.388672" xlink:href="#DejaVuSans-45"/>
      <use x="884.472656" xlink:href="#DejaVuSans-32"/>
      <use x="916.259766" xlink:href="#DejaVuSans-108"/>
      <use x="944.042969" xlink:href="#DejaVuSans-111"/>
      <use x="1005.224609" xlink:href="#DejaVuSans-99"/>
      <use x="1060.205078" xlink:href="#DejaVuSans-97"/>
      <use x="1121.484375" xlink:href="#DejaVuSans-108"/>
      <use x="1149.267578" xlink:href="#DejaVuSans-104"/>
      <use x="1212.646484" xlink:href="#DejaVuSans-111"/>
      <use x="1273.828125" xlink:href="#DejaVuSans-115"/>
      <use x="1325.927734" xlink:href="#DejaVuSans-116"/>
      <use x="1365.136719" xlink:href="#DejaVuSans-32"/>
      <use x="1396.923828" xlink:href="#DejaVuSans-40"/>
      <use x="1435.9375" xlink:href="#DejaVuSans-101"/>
      <use x="1497.460938" xlink:href="#DejaVuSans-110"/>
      <use x="1560.839844" xlink:href="#DejaVuSans-115"/>
      <use x="1612.939453" xlink:href="#DejaVuSans-51"/>
      <use x="1676.5625" xlink:href="#DejaVuSans-51"/>
      <use x="1740.185547" xlink:href="#DejaVuSans-41"/>
      <use x="1779.199219" xlink:href="#DejaVuSans-32"/>
      <use x="1810.986328" xlink:href="#DejaVuSans-45"/>
      <use x="1847.070312" xlink:href="#DejaVuSans-32"/>
      <use x="1878.857422" xlink:href="#DejaVuSans-66"/>
      <use x="1947.460938" xlink:href="#DejaVuSans-66"/>
      <use x="2016.064453" xlink:href="#DejaVuSans-82"/>
      <use x="2085.546875" xlink:href="#DejaVuSans-110"/>
      <use x="2148.925781" xlink:href="#DejaVuSans-45"/>
      <use x="2185.009766" xlink:href="#DejaVuSans-99"/>
      <use x="2239.990234" xlink:href="#DejaVuSans-97"/>
      <use x="2301.269531" xlink:href="#DejaVuSans-107"/>
      <use x="2355.554688" xlink:href="#DejaVuSans-101"/>
     </g>
    </g>
    <g id="line2d_96">
     <path d="M 645.34376 117.644233 
L 662.00376 117.644233 
" style="fill:none;stroke:#e7298a;stroke-dasharray:8,4,2,4;stroke-dashoffset:0;"/>
    </g>
    <g id="line2d_97"/>
    <g id="text_21">
     <!-- Backlog (bytes) - - localhost (ens33) - BBRn-pie -->
     <g transform="translate(668.66776 120.559733)scale(0.0833 -0.0833)">
      <defs>
       <path d="M 18.109375 8.203125 
L 18.109375 -20.796875 
L 9.078125 -20.796875 
L 9.078125 54.6875 
L 18.109375 54.6875 
L 18.109375 46.390625 
Q 20.953125 51.265625 25.265625 53.625 
Q 29.59375 56 35.59375 56 
Q 45.5625 56 51.78125 48.09375 
Q 58.015625 40.1875 58.015625 27.296875 
Q 58.015625 14.40625 51.78125 6.484375 
Q 45.5625 -1.421875 35.59375 -1.421875 
Q 29.59375 -1.421875 25.265625 0.953125 
Q 20.953125 3.328125 18.109375 8.203125 
z
M 48.6875 27.296875 
Q 48.6875 37.203125 44.609375 42.84375 
Q 40.53125 48.484375 33.40625 48.484375 
Q 26.265625 48.484375 22.1875 42.84375 
Q 18.109375 37.203125 18.109375 27.296875 
Q 18.109375 17.390625 22.1875 11.75 
Q 26.265625 6.109375 33.40625 6.109375 
Q 40.53125 6.109375 44.609375 11.75 
Q 48.6875 17.390625 48.6875 27.296875 
z
" id="DejaVuSans-112"/>
      </defs>
      <use xlink:href="#DejaVuSans-66"/>
      <use x="68.603516" xlink:href="#DejaVuSans-97"/>
      <use x="129.882812" xlink:href="#DejaVuSans-99"/>
      <use x="184.863281" xlink:href="#DejaVuSans-107"/>
      <use x="242.773438" xlink:href="#DejaVuSans-108"/>
      <use x="270.556641" xlink:href="#DejaVuSans-111"/>
      <use x="331.738281" xlink:href="#DejaVuSans-103"/>
      <use x="395.214844" xlink:href="#DejaVuSans-32"/>
      <use x="427.001953" xlink:href="#DejaVuSans-40"/>
      <use x="466.015625" xlink:href="#DejaVuSans-98"/>
      <use x="529.492188" xlink:href="#DejaVuSans-121"/>
      <use x="588.671875" xlink:href="#DejaVuSans-116"/>
      <use x="627.880859" xlink:href="#DejaVuSans-101"/>
      <use x="689.404297" xlink:href="#DejaVuSans-115"/>
      <use x="741.503906" xlink:href="#DejaVuSans-41"/>
      <use x="780.517578" xlink:href="#DejaVuSans-32"/>
      <use x="812.304688" xlink:href="#DejaVuSans-45"/>
      <use x="848.388672" xlink:href="#DejaVuSans-45"/>
      <use x="884.472656" xlink:href="#DejaVuSans-32"/>
      <use x="916.259766" xlink:href="#DejaVuSans-108"/>
      <use x="944.042969" xlink:href="#DejaVuSans-111"/>
      <use x="1005.224609" xlink:href="#DejaVuSans-99"/>
      <use x="1060.205078" xlink:href="#DejaVuSans-97"/>
      <use x="1121.484375" xlink:href="#DejaVuSans-108"/>
      <use x="1149.267578" xlink:href="#DejaVuSans-104"/>
      <use x="1212.646484" xlink:href="#DejaVuSans-111"/>
      <use x="1273.828125" xlink:href="#DejaVuSans-115"/>
      <use x="1325.927734" xlink:href="#DejaVuSans-116"/>
      <use x="1365.136719" xlink:href="#DejaVuSans-32"/>
      <use x="1396.923828" xlink:href="#DejaVuSans-40"/>
      <use x="1435.9375" xlink:href="#DejaVuSans-101"/>
      <use x="1497.460938" xlink:href="#DejaVuSans-110"/>
      <use x="1560.839844" xlink:href="#DejaVuSans-115"/>
      <use x="1612.939453" xlink:href="#DejaVuSans-51"/>
      <use x="1676.5625" xlink:href="#DejaVuSans-51"/>
      <use x="1740.185547" xlink:href="#DejaVuSans-41"/>
      <use x="1779.199219" xlink:href="#DejaVuSans-32"/>
      <use x="1810.986328" xlink:href="#DejaVuSans-45"/>
      <use x="1847.070312" xlink:href="#DejaVuSans-32"/>
      <use x="1878.857422" xlink:href="#DejaVuSans-66"/>
      <use x="1947.460938" xlink:href="#DejaVuSans-66"/>
      <use x="2016.064453" xlink:href="#DejaVuSans-82"/>
      <use x="2085.546875" xlink:href="#DejaVuSans-110"/>
      <use x="2148.925781" xlink:href="#DejaVuSans-45"/>
      <use x="2185.009766" xlink:href="#DejaVuSans-112"/>
      <use x="2248.486328" xlink:href="#DejaVuSans-105"/>
      <use x="2276.269531" xlink:href="#DejaVuSans-101"/>
     </g>
    </g>
    <g id="line2d_98">
     <path d="M 645.34376 129.871111 
L 662.00376 129.871111 
" style="fill:none;stroke:#66a61e;stroke-linecap:round;"/>
    </g>
    <g id="line2d_99">
     <g>
      <use style="fill:#66a61e;stroke:#66a61e;" x="653.67376" xlink:href="#m96ac2d4c7f" y="129.871111"/>
     </g>
    </g>
    <g id="text_22">
     <!-- Backlog (bytes) - - localhost (ens33) - BBRn-fq_codel -->
     <g transform="translate(668.66776 132.786611)scale(0.0833 -0.0833)">
      <defs>
       <path d="M 50.984375 -16.609375 
L 50.984375 -23.578125 
L -0.984375 -23.578125 
L -0.984375 -16.609375 
z
" id="DejaVuSans-95"/>
      </defs>
      <use xlink:href="#DejaVuSans-66"/>
      <use x="68.603516" xlink:href="#DejaVuSans-97"/>
      <use x="129.882812" xlink:href="#DejaVuSans-99"/>
      <use x="184.863281" xlink:href="#DejaVuSans-107"/>
      <use x="242.773438" xlink:href="#DejaVuSans-108"/>
      <use x="270.556641" xlink:href="#DejaVuSans-111"/>
      <use x="331.738281" xlink:href="#DejaVuSans-103"/>
      <use x="395.214844" xlink:href="#DejaVuSans-32"/>
      <use x="427.001953" xlink:href="#DejaVuSans-40"/>
      <use x="466.015625" xlink:href="#DejaVuSans-98"/>
      <use x="529.492188" xlink:href="#DejaVuSans-121"/>
      <use x="588.671875" xlink:href="#DejaVuSans-116"/>
      <use x="627.880859" xlink:href="#DejaVuSans-101"/>
      <use x="689.404297" xlink:href="#DejaVuSans-115"/>
      <use x="741.503906" xlink:href="#DejaVuSans-41"/>
      <use x="780.517578" xlink:href="#DejaVuSans-32"/>
      <use x="812.304688" xlink:href="#DejaVuSans-45"/>
      <use x="848.388672" xlink:href="#DejaVuSans-45"/>
      <use x="884.472656" xlink:href="#DejaVuSans-32"/>
      <use x="916.259766" xlink:href="#DejaVuSans-108"/>
      <use x="944.042969" xlink:href="#DejaVuSans-111"/>
      <use x="1005.224609" xlink:href="#DejaVuSans-99"/>
      <use x="1060.205078" xlink:href="#DejaVuSans-97"/>
      <use x="1121.484375" xlink:href="#DejaVuSans-108"/>
      <use x="1149.267578" xlink:href="#DejaVuSans-104"/>
      <use x="1212.646484" xlink:href="#DejaVuSans-111"/>
      <use x="1273.828125" xlink:href="#DejaVuSans-115"/>
      <use x="1325.927734" xlink:href="#DejaVuSans-116"/>
      <use x="1365.136719" xlink:href="#DejaVuSans-32"/>
      <use x="1396.923828" xlink:href="#DejaVuSans-40"/>
      <use x="1435.9375" xlink:href="#DejaVuSans-101"/>
      <use x="1497.460938" xlink:href="#DejaVuSans-110"/>
      <use x="1560.839844" xlink:href="#DejaVuSans-115"/>
      <use x="1612.939453" xlink:href="#DejaVuSans-51"/>
      <use x="1676.5625" xlink:href="#DejaVuSans-51"/>
      <use x="1740.185547" xlink:href="#DejaVuSans-41"/>
      <use x="1779.199219" xlink:href="#DejaVuSans-32"/>
      <use x="1810.986328" xlink:href="#DejaVuSans-45"/>
      <use x="1847.070312" xlink:href="#DejaVuSans-32"/>
      <use x="1878.857422" xlink:href="#DejaVuSans-66"/>
      <use x="1947.460938" xlink:href="#DejaVuSans-66"/>
      <use x="2016.064453" xlink:href="#DejaVuSans-82"/>
      <use x="2085.546875" xlink:href="#DejaVuSans-110"/>
      <use x="2148.925781" xlink:href="#DejaVuSans-45"/>
      <use x="2185.009766" xlink:href="#DejaVuSans-102"/>
      <use x="2220.214844" xlink:href="#DejaVuSans-113"/>
      <use x="2283.691406" xlink:href="#DejaVuSans-95"/>
      <use x="2333.691406" xlink:href="#DejaVuSans-99"/>
      <use x="2388.671875" xlink:href="#DejaVuSans-111"/>
      <use x="2449.853516" xlink:href="#DejaVuSans-100"/>
      <use x="2513.330078" xlink:href="#DejaVuSans-101"/>
      <use x="2574.853516" xlink:href="#DejaVuSans-108"/>
     </g>
    </g>
   </g>
  </g>
  <g id="text_23">
   <!-- Realtime Response Under Load -->
   <g transform="translate(379.338594 15.791812)scale(0.14 -0.14)">
    <defs>
     <path d="M 8.6875 72.90625 
L 18.609375 72.90625 
L 18.609375 28.609375 
Q 18.609375 16.890625 22.84375 11.734375 
Q 27.09375 6.59375 36.625 6.59375 
Q 46.09375 6.59375 50.34375 11.734375 
Q 54.59375 16.890625 54.59375 28.609375 
L 54.59375 72.90625 
L 64.5 72.90625 
L 64.5 27.390625 
Q 64.5 13.140625 57.4375 5.859375 
Q 50.390625 -1.421875 36.625 -1.421875 
Q 22.796875 -1.421875 15.734375 5.859375 
Q 8.6875 13.140625 8.6875 27.390625 
z
" id="DejaVuSans-85"/>
     <path d="M 41.109375 46.296875 
Q 39.59375 47.171875 37.8125 47.578125 
Q 36.03125 48 33.890625 48 
Q 26.265625 48 22.1875 43.046875 
Q 18.109375 38.09375 18.109375 28.8125 
L 18.109375 0 
L 9.078125 0 
L 9.078125 54.6875 
L 18.109375 54.6875 
L 18.109375 46.1875 
Q 20.953125 51.171875 25.484375 53.578125 
Q 30.03125 56 36.53125 56 
Q 37.453125 56 38.578125 55.875 
Q 39.703125 55.765625 41.0625 55.515625 
z
" id="DejaVuSans-114"/>
     <path d="M 9.8125 72.90625 
L 19.671875 72.90625 
L 19.671875 8.296875 
L 55.171875 8.296875 
L 55.171875 0 
L 9.8125 0 
z
" id="DejaVuSans-76"/>
    </defs>
    <use xlink:href="#DejaVuSans-82"/>
    <use x="64.982422" xlink:href="#DejaVuSans-101"/>
    <use x="126.505859" xlink:href="#DejaVuSans-97"/>
    <use x="187.785156" xlink:href="#DejaVuSans-108"/>
    <use x="215.568359" xlink:href="#DejaVuSans-116"/>
    <use x="254.777344" xlink:href="#DejaVuSans-105"/>
    <use x="282.560547" xlink:href="#DejaVuSans-109"/>
    <use x="379.972656" xlink:href="#DejaVuSans-101"/>
    <use x="441.496094" xlink:href="#DejaVuSans-32"/>
    <use x="473.283203" xlink:href="#DejaVuSans-82"/>
    <use x="538.265625" xlink:href="#DejaVuSans-101"/>
    <use x="599.789062" xlink:href="#DejaVuSans-115"/>
    <use x="651.888672" xlink:href="#DejaVuSans-112"/>
    <use x="715.365234" xlink:href="#DejaVuSans-111"/>
    <use x="776.546875" xlink:href="#DejaVuSans-110"/>
    <use x="839.925781" xlink:href="#DejaVuSans-115"/>
    <use x="892.025391" xlink:href="#DejaVuSans-101"/>
    <use x="953.548828" xlink:href="#DejaVuSans-32"/>
    <use x="985.335938" xlink:href="#DejaVuSans-85"/>
    <use x="1058.529297" xlink:href="#DejaVuSans-110"/>
    <use x="1121.908203" xlink:href="#DejaVuSans-100"/>
    <use x="1185.384766" xlink:href="#DejaVuSans-101"/>
    <use x="1246.908203" xlink:href="#DejaVuSans-114"/>
    <use x="1288.021484" xlink:href="#DejaVuSans-32"/>
    <use x="1319.808594" xlink:href="#DejaVuSans-76"/>
    <use x="1373.771484" xlink:href="#DejaVuSans-111"/>
    <use x="1434.953125" xlink:href="#DejaVuSans-97"/>
    <use x="1496.232422" xlink:href="#DejaVuSans-100"/>
   </g>
   <!-- Queue backlog -->
   <g transform="translate(435.990469 31.46875)scale(0.14 -0.14)">
    <defs>
     <path d="M 39.40625 66.21875 
Q 28.65625 66.21875 22.328125 58.203125 
Q 16.015625 50.203125 16.015625 36.375 
Q 16.015625 22.609375 22.328125 14.59375 
Q 28.65625 6.59375 39.40625 6.59375 
Q 50.140625 6.59375 56.421875 14.59375 
Q 62.703125 22.609375 62.703125 36.375 
Q 62.703125 50.203125 56.421875 58.203125 
Q 50.140625 66.21875 39.40625 66.21875 
z
M 53.21875 1.3125 
L 66.21875 -12.890625 
L 54.296875 -12.890625 
L 43.5 -1.21875 
Q 41.890625 -1.3125 41.03125 -1.359375 
Q 40.1875 -1.421875 39.40625 -1.421875 
Q 24.03125 -1.421875 14.8125 8.859375 
Q 5.609375 19.140625 5.609375 36.375 
Q 5.609375 53.65625 14.8125 63.9375 
Q 24.03125 74.21875 39.40625 74.21875 
Q 54.734375 74.21875 63.90625 63.9375 
Q 73.09375 53.65625 73.09375 36.375 
Q 73.09375 23.6875 67.984375 14.640625 
Q 62.890625 5.609375 53.21875 1.3125 
z
" id="DejaVuSans-81"/>
     <path d="M 8.5 21.578125 
L 8.5 54.6875 
L 17.484375 54.6875 
L 17.484375 21.921875 
Q 17.484375 14.15625 20.5 10.265625 
Q 23.53125 6.390625 29.59375 6.390625 
Q 36.859375 6.390625 41.078125 11.03125 
Q 45.3125 15.671875 45.3125 23.6875 
L 45.3125 54.6875 
L 54.296875 54.6875 
L 54.296875 0 
L 45.3125 0 
L 45.3125 8.40625 
Q 42.046875 3.421875 37.71875 1 
Q 33.40625 -1.421875 27.6875 -1.421875 
Q 18.265625 -1.421875 13.375 4.4375 
Q 8.5 10.296875 8.5 21.578125 
z
M 31.109375 56 
z
" id="DejaVuSans-117"/>
    </defs>
    <use xlink:href="#DejaVuSans-81"/>
    <use x="78.710938" xlink:href="#DejaVuSans-117"/>
    <use x="142.089844" xlink:href="#DejaVuSans-101"/>
    <use x="203.613281" xlink:href="#DejaVuSans-117"/>
    <use x="266.992188" xlink:href="#DejaVuSans-101"/>
    <use x="328.515625" xlink:href="#DejaVuSans-32"/>
    <use x="360.302734" xlink:href="#DejaVuSans-98"/>
    <use x="423.779297" xlink:href="#DejaVuSans-97"/>
    <use x="485.058594" xlink:href="#DejaVuSans-99"/>
    <use x="540.039062" xlink:href="#DejaVuSans-107"/>
    <use x="597.949219" xlink:href="#DejaVuSans-108"/>
    <use x="625.732422" xlink:href="#DejaVuSans-111"/>
    <use x="686.914062" xlink:href="#DejaVuSans-103"/>
   </g>
  </g>
 </g>
 <defs>
  <clipPath id="p203378f7cb">
   <rect height="476.2296" width="509.688" x="122.13" y="74.2176"/>
  </clipPath>
 </defs>
</svg>
