<?xml version="1.0" encoding="utf-8" standalone="no"?>
<!DOCTYPE svg PUBLIC "-//W3C//DTD SVG 1.1//EN"
  "http://www.w3.org/Graphics/SVG/1.1/DTD/svg11.dtd">
<!-- Created with matplotlib (https://matplotlib.org/) -->
<svg height="618.48pt" version="1.1" viewBox="0 0 977.04 618.48" width="977.04pt" xmlns="http://www.w3.org/2000/svg" xmlns:xlink="http://www.w3.org/1999/xlink">
 <metadata>
  <rdf:RDF xmlns:cc="http://creativecommons.org/ns#" xmlns:dc="http://purl.org/dc/elements/1.1/" xmlns:rdf="http://www.w3.org/1999/02/22-rdf-syntax-ns#">
   <cc:Work>
    <dc:type rdf:resource="http://purl.org/dc/dcmitype/StillImage"/>
    <dc:date>2023-09-19T12:17:41.579722</dc:date>
    <dc:format>image/svg+xml</dc:format>
    <dc:creator>
     <cc:Agent>
      <dc:title>Matplotlib v3.3.4, https://matplotlib.org/</dc:title>
     </cc:Agent>
    </dc:creator>
   </cc:Work>
  </rdf:RDF>
 </metadata>
 <defs>
  <style type="text/css">*{stroke-linecap:butt;stroke-linejoin:round;}</style>
 </defs>
 <g id="figure_1">
  <g id="patch_1">
   <path d="M 0 618.48 
L 977.04 618.48 
L 977.04 0 
L 0 0 
z
" style="fill:#ffffff;"/>
  </g>
  <g id="axes_1">
   <g id="patch_2">
    <path d="M 122.13 550.4472 
L 741.168 550.4472 
L 741.168 74.2176 
L 122.13 74.2176 
z
" style="fill:#e6e6e6;"/>
   </g>
   <g id="matplotlib.axis_1">
    <g id="xtick_1">
     <g id="line2d_1">
      <path clip-path="url(#pdc62d07f46)" d="M 131.954653 550.4472 
L 131.954653 74.2176 
" style="fill:none;stroke:#ffffff;stroke-linecap:round;"/>
     </g>
     <g id="line2d_2"/>
     <g id="text_1">
      <!-- 0 -->
      <g transform="translate(128.773403 561.545637)scale(0.1 -0.1)">
       <defs>
        <path d="M 31.78125 66.40625 
Q 24.171875 66.40625 20.328125 58.90625 
Q 16.5 51.421875 16.5 36.375 
Q 16.5 21.390625 20.328125 13.890625 
Q 24.171875 6.390625 31.78125 6.390625 
Q 39.453125 6.390625 43.28125 13.890625 
Q 47.125 21.390625 47.125 36.375 
Q 47.125 51.421875 43.28125 58.90625 
Q 39.453125 66.40625 31.78125 66.40625 
z
M 31.78125 74.21875 
Q 44.046875 74.21875 50.515625 64.515625 
Q 56.984375 54.828125 56.984375 36.375 
Q 56.984375 17.96875 50.515625 8.265625 
Q 44.046875 -1.421875 31.78125 -1.421875 
Q 19.53125 -1.421875 13.0625 8.265625 
Q 6.59375 17.96875 6.59375 36.375 
Q 6.59375 54.828125 13.0625 64.515625 
Q 19.53125 74.21875 31.78125 74.21875 
z
" id="DejaVuSans-48"/>
       </defs>
       <use xlink:href="#DejaVuSans-48"/>
      </g>
     </g>
    </g>
    <g id="xtick_2">
     <g id="line2d_3">
      <path clip-path="url(#pdc62d07f46)" d="M 240.742751 550.4472 
L 240.742751 74.2176 
" style="fill:none;stroke:#ffffff;stroke-linecap:round;"/>
     </g>
     <g id="line2d_4"/>
     <g id="text_2">
      <!-- 50 -->
      <g transform="translate(234.380251 561.545637)scale(0.1 -0.1)">
       <defs>
        <path d="M 10.796875 72.90625 
L 49.515625 72.90625 
L 49.515625 64.59375 
L 19.828125 64.59375 
L 19.828125 46.734375 
Q 21.96875 47.46875 24.109375 47.828125 
Q 26.265625 48.1875 28.421875 48.1875 
Q 40.625 48.1875 47.75 41.5 
Q 54.890625 34.8125 54.890625 23.390625 
Q 54.890625 11.625 47.5625 5.09375 
Q 40.234375 -1.421875 26.90625 -1.421875 
Q 22.3125 -1.421875 17.546875 -0.640625 
Q 12.796875 0.140625 7.71875 1.703125 
L 7.71875 11.625 
Q 12.109375 9.234375 16.796875 8.0625 
Q 21.484375 6.890625 26.703125 6.890625 
Q 35.15625 6.890625 40.078125 11.328125 
Q 45.015625 15.765625 45.015625 23.390625 
Q 45.015625 31 40.078125 35.4375 
Q 35.15625 39.890625 26.703125 39.890625 
Q 22.75 39.890625 18.8125 39.015625 
Q 14.890625 38.140625 10.796875 36.28125 
z
" id="DejaVuSans-53"/>
       </defs>
       <use xlink:href="#DejaVuSans-53"/>
       <use x="63.623047" xlink:href="#DejaVuSans-48"/>
      </g>
     </g>
    </g>
    <g id="xtick_3">
     <g id="line2d_5">
      <path clip-path="url(#pdc62d07f46)" d="M 349.530848 550.4472 
L 349.530848 74.2176 
" style="fill:none;stroke:#ffffff;stroke-linecap:round;"/>
     </g>
     <g id="line2d_6"/>
     <g id="text_3">
      <!-- 100 -->
      <g transform="translate(339.987098 561.545637)scale(0.1 -0.1)">
       <defs>
        <path d="M 12.40625 8.296875 
L 28.515625 8.296875 
L 28.515625 63.921875 
L 10.984375 60.40625 
L 10.984375 69.390625 
L 28.421875 72.90625 
L 38.28125 72.90625 
L 38.28125 8.296875 
L 54.390625 8.296875 
L 54.390625 0 
L 12.40625 0 
z
" id="DejaVuSans-49"/>
       </defs>
       <use xlink:href="#DejaVuSans-49"/>
       <use x="63.623047" xlink:href="#DejaVuSans-48"/>
       <use x="127.246094" xlink:href="#DejaVuSans-48"/>
      </g>
     </g>
    </g>
    <g id="xtick_4">
     <g id="line2d_7">
      <path clip-path="url(#pdc62d07f46)" d="M 458.318946 550.4472 
L 458.318946 74.2176 
" style="fill:none;stroke:#ffffff;stroke-linecap:round;"/>
     </g>
     <g id="line2d_8"/>
     <g id="text_4">
      <!-- 150 -->
      <g transform="translate(448.775196 561.545637)scale(0.1 -0.1)">
       <use xlink:href="#DejaVuSans-49"/>
       <use x="63.623047" xlink:href="#DejaVuSans-53"/>
       <use x="127.246094" xlink:href="#DejaVuSans-48"/>
      </g>
     </g>
    </g>
    <g id="xtick_5">
     <g id="line2d_9">
      <path clip-path="url(#pdc62d07f46)" d="M 567.107044 550.4472 
L 567.107044 74.2176 
" style="fill:none;stroke:#ffffff;stroke-linecap:round;"/>
     </g>
     <g id="line2d_10"/>
     <g id="text_5">
      <!-- 200 -->
      <g transform="translate(557.563294 561.545637)scale(0.1 -0.1)">
       <defs>
        <path d="M 19.1875 8.296875 
L 53.609375 8.296875 
L 53.609375 0 
L 7.328125 0 
L 7.328125 8.296875 
Q 12.9375 14.109375 22.625 23.890625 
Q 32.328125 33.6875 34.8125 36.53125 
Q 39.546875 41.84375 41.421875 45.53125 
Q 43.3125 49.21875 43.3125 52.78125 
Q 43.3125 58.59375 39.234375 62.25 
Q 35.15625 65.921875 28.609375 65.921875 
Q 23.96875 65.921875 18.8125 64.3125 
Q 13.671875 62.703125 7.8125 59.421875 
L 7.8125 69.390625 
Q 13.765625 71.78125 18.9375 73 
Q 24.125 74.21875 28.421875 74.21875 
Q 39.75 74.21875 46.484375 68.546875 
Q 53.21875 62.890625 53.21875 53.421875 
Q 53.21875 48.921875 51.53125 44.890625 
Q 49.859375 40.875 45.40625 35.40625 
Q 44.1875 33.984375 37.640625 27.21875 
Q 31.109375 20.453125 19.1875 8.296875 
z
" id="DejaVuSans-50"/>
       </defs>
       <use xlink:href="#DejaVuSans-50"/>
       <use x="63.623047" xlink:href="#DejaVuSans-48"/>
       <use x="127.246094" xlink:href="#DejaVuSans-48"/>
      </g>
     </g>
    </g>
    <g id="xtick_6">
     <g id="line2d_11">
      <path clip-path="url(#pdc62d07f46)" d="M 675.895141 550.4472 
L 675.895141 74.2176 
" style="fill:none;stroke:#ffffff;stroke-linecap:round;"/>
     </g>
     <g id="line2d_12"/>
     <g id="text_6">
      <!-- 250 -->
      <g transform="translate(666.351391 561.545637)scale(0.1 -0.1)">
       <use xlink:href="#DejaVuSans-50"/>
       <use x="63.623047" xlink:href="#DejaVuSans-53"/>
       <use x="127.246094" xlink:href="#DejaVuSans-48"/>
      </g>
     </g>
    </g>
    <g id="xtick_7">
     <g id="line2d_13"/>
    </g>
    <g id="xtick_8">
     <g id="line2d_14"/>
    </g>
    <g id="xtick_9">
     <g id="line2d_15"/>
    </g>
    <g id="xtick_10">
     <g id="line2d_16"/>
    </g>
    <g id="xtick_11">
     <g id="line2d_17"/>
    </g>
    <g id="xtick_12">
     <g id="line2d_18"/>
    </g>
    <g id="xtick_13">
     <g id="line2d_19"/>
    </g>
    <g id="xtick_14">
     <g id="line2d_20"/>
    </g>
    <g id="xtick_15">
     <g id="line2d_21"/>
    </g>
    <g id="xtick_16">
     <g id="line2d_22"/>
    </g>
    <g id="xtick_17">
     <g id="line2d_23"/>
    </g>
    <g id="xtick_18">
     <g id="line2d_24"/>
    </g>
    <g id="xtick_19">
     <g id="line2d_25"/>
    </g>
    <g id="xtick_20">
     <g id="line2d_26"/>
    </g>
    <g id="xtick_21">
     <g id="line2d_27"/>
    </g>
    <g id="xtick_22">
     <g id="line2d_28"/>
    </g>
    <g id="xtick_23">
     <g id="line2d_29"/>
    </g>
    <g id="xtick_24">
     <g id="line2d_30"/>
    </g>
    <g id="xtick_25">
     <g id="line2d_31"/>
    </g>
    <g id="xtick_26">
     <g id="line2d_32"/>
    </g>
    <g id="xtick_27">
     <g id="line2d_33"/>
    </g>
    <g id="xtick_28">
     <g id="line2d_34"/>
    </g>
    <g id="xtick_29">
     <g id="line2d_35"/>
    </g>
    <g id="text_7">
     <!-- ms -->
     <g transform="translate(424.174 575.223763)scale(0.1 -0.1)">
      <defs>
       <path d="M 52 44.1875 
Q 55.375 50.25 60.0625 53.125 
Q 64.75 56 71.09375 56 
Q 79.640625 56 84.28125 50.015625 
Q 88.921875 44.046875 88.921875 33.015625 
L 88.921875 0 
L 79.890625 0 
L 79.890625 32.71875 
Q 79.890625 40.578125 77.09375 44.375 
Q 74.3125 48.1875 68.609375 48.1875 
Q 61.625 48.1875 57.5625 43.546875 
Q 53.515625 38.921875 53.515625 30.90625 
L 53.515625 0 
L 44.484375 0 
L 44.484375 32.71875 
Q 44.484375 40.625 41.703125 44.40625 
Q 38.921875 48.1875 33.109375 48.1875 
Q 26.21875 48.1875 22.15625 43.53125 
Q 18.109375 38.875 18.109375 30.90625 
L 18.109375 0 
L 9.078125 0 
L 9.078125 54.6875 
L 18.109375 54.6875 
L 18.109375 46.1875 
Q 21.1875 51.21875 25.484375 53.609375 
Q 29.78125 56 35.6875 56 
Q 41.65625 56 45.828125 52.96875 
Q 50 49.953125 52 44.1875 
z
" id="DejaVuSans-109"/>
       <path d="M 44.28125 53.078125 
L 44.28125 44.578125 
Q 40.484375 46.53125 36.375 47.5 
Q 32.28125 48.484375 27.875 48.484375 
Q 21.1875 48.484375 17.84375 46.4375 
Q 14.5 44.390625 14.5 40.28125 
Q 14.5 37.15625 16.890625 35.375 
Q 19.28125 33.59375 26.515625 31.984375 
L 29.59375 31.296875 
Q 39.15625 29.25 43.1875 25.515625 
Q 47.21875 21.78125 47.21875 15.09375 
Q 47.21875 7.46875 41.1875 3.015625 
Q 35.15625 -1.421875 24.609375 -1.421875 
Q 20.21875 -1.421875 15.453125 -0.5625 
Q 10.6875 0.296875 5.421875 2 
L 5.421875 11.28125 
Q 10.40625 8.6875 15.234375 7.390625 
Q 20.0625 6.109375 24.8125 6.109375 
Q 31.15625 6.109375 34.5625 8.28125 
Q 37.984375 10.453125 37.984375 14.40625 
Q 37.984375 18.0625 35.515625 20.015625 
Q 33.0625 21.96875 24.703125 23.78125 
L 21.578125 24.515625 
Q 13.234375 26.265625 9.515625 29.90625 
Q 5.8125 33.546875 5.8125 39.890625 
Q 5.8125 47.609375 11.28125 51.796875 
Q 16.75 56 26.8125 56 
Q 31.78125 56 36.171875 55.265625 
Q 40.578125 54.546875 44.28125 53.078125 
z
" id="DejaVuSans-115"/>
      </defs>
      <use xlink:href="#DejaVuSans-109"/>
      <use x="97.412109" xlink:href="#DejaVuSans-115"/>
     </g>
    </g>
   </g>
   <g id="matplotlib.axis_2">
    <g id="ytick_1">
     <g id="line2d_36">
      <path clip-path="url(#pdc62d07f46)" d="M 122.13 550.4472 
L 741.168 550.4472 
" style="fill:none;stroke:#ffffff;stroke-linecap:round;"/>
     </g>
     <g id="line2d_37"/>
     <g id="text_8">
      <!-- 0.0 -->
      <g transform="translate(102.726875 554.246419)scale(0.1 -0.1)">
       <defs>
        <path d="M 10.6875 12.40625 
L 21 12.40625 
L 21 0 
L 10.6875 0 
z
" id="DejaVuSans-46"/>
       </defs>
       <use xlink:href="#DejaVuSans-48"/>
       <use x="63.623047" xlink:href="#DejaVuSans-46"/>
       <use x="95.410156" xlink:href="#DejaVuSans-48"/>
      </g>
     </g>
    </g>
    <g id="ytick_2">
     <g id="line2d_38">
      <path clip-path="url(#pdc62d07f46)" d="M 122.13 455.20128 
L 741.168 455.20128 
" style="fill:none;stroke:#ffffff;stroke-linecap:round;"/>
     </g>
     <g id="line2d_39"/>
     <g id="text_9">
      <!-- 0.2 -->
      <g transform="translate(102.726875 459.000499)scale(0.1 -0.1)">
       <use xlink:href="#DejaVuSans-48"/>
       <use x="63.623047" xlink:href="#DejaVuSans-46"/>
       <use x="95.410156" xlink:href="#DejaVuSans-50"/>
      </g>
     </g>
    </g>
    <g id="ytick_3">
     <g id="line2d_40">
      <path clip-path="url(#pdc62d07f46)" d="M 122.13 359.95536 
L 741.168 359.95536 
" style="fill:none;stroke:#ffffff;stroke-linecap:round;"/>
     </g>
     <g id="line2d_41"/>
     <g id="text_10">
      <!-- 0.4 -->
      <g transform="translate(102.726875 363.754579)scale(0.1 -0.1)">
       <defs>
        <path d="M 37.796875 64.3125 
L 12.890625 25.390625 
L 37.796875 25.390625 
z
M 35.203125 72.90625 
L 47.609375 72.90625 
L 47.609375 25.390625 
L 58.015625 25.390625 
L 58.015625 17.1875 
L 47.609375 17.1875 
L 47.609375 0 
L 37.796875 0 
L 37.796875 17.1875 
L 4.890625 17.1875 
L 4.890625 26.703125 
z
" id="DejaVuSans-52"/>
       </defs>
       <use xlink:href="#DejaVuSans-48"/>
       <use x="63.623047" xlink:href="#DejaVuSans-46"/>
       <use x="95.410156" xlink:href="#DejaVuSans-52"/>
      </g>
     </g>
    </g>
    <g id="ytick_4">
     <g id="line2d_42">
      <path clip-path="url(#pdc62d07f46)" d="M 122.13 264.70944 
L 741.168 264.70944 
" style="fill:none;stroke:#ffffff;stroke-linecap:round;"/>
     </g>
     <g id="line2d_43"/>
     <g id="text_11">
      <!-- 0.6 -->
      <g transform="translate(102.726875 268.508659)scale(0.1 -0.1)">
       <defs>
        <path d="M 33.015625 40.375 
Q 26.375 40.375 22.484375 35.828125 
Q 18.609375 31.296875 18.609375 23.390625 
Q 18.609375 15.53125 22.484375 10.953125 
Q 26.375 6.390625 33.015625 6.390625 
Q 39.65625 6.390625 43.53125 10.953125 
Q 47.40625 15.53125 47.40625 23.390625 
Q 47.40625 31.296875 43.53125 35.828125 
Q 39.65625 40.375 33.015625 40.375 
z
M 52.59375 71.296875 
L 52.59375 62.3125 
Q 48.875 64.0625 45.09375 64.984375 
Q 41.3125 65.921875 37.59375 65.921875 
Q 27.828125 65.921875 22.671875 59.328125 
Q 17.53125 52.734375 16.796875 39.40625 
Q 19.671875 43.65625 24.015625 45.921875 
Q 28.375 48.1875 33.59375 48.1875 
Q 44.578125 48.1875 50.953125 41.515625 
Q 57.328125 34.859375 57.328125 23.390625 
Q 57.328125 12.15625 50.6875 5.359375 
Q 44.046875 -1.421875 33.015625 -1.421875 
Q 20.359375 -1.421875 13.671875 8.265625 
Q 6.984375 17.96875 6.984375 36.375 
Q 6.984375 53.65625 15.1875 63.9375 
Q 23.390625 74.21875 37.203125 74.21875 
Q 40.921875 74.21875 44.703125 73.484375 
Q 48.484375 72.75 52.59375 71.296875 
z
" id="DejaVuSans-54"/>
       </defs>
       <use xlink:href="#DejaVuSans-48"/>
       <use x="63.623047" xlink:href="#DejaVuSans-46"/>
       <use x="95.410156" xlink:href="#DejaVuSans-54"/>
      </g>
     </g>
    </g>
    <g id="ytick_5">
     <g id="line2d_44">
      <path clip-path="url(#pdc62d07f46)" d="M 122.13 169.46352 
L 741.168 169.46352 
" style="fill:none;stroke:#ffffff;stroke-linecap:round;"/>
     </g>
     <g id="line2d_45"/>
     <g id="text_12">
      <!-- 0.8 -->
      <g transform="translate(102.726875 173.262739)scale(0.1 -0.1)">
       <defs>
        <path d="M 31.78125 34.625 
Q 24.75 34.625 20.71875 30.859375 
Q 16.703125 27.09375 16.703125 20.515625 
Q 16.703125 13.921875 20.71875 10.15625 
Q 24.75 6.390625 31.78125 6.390625 
Q 38.8125 6.390625 42.859375 10.171875 
Q 46.921875 13.96875 46.921875 20.515625 
Q 46.921875 27.09375 42.890625 30.859375 
Q 38.875 34.625 31.78125 34.625 
z
M 21.921875 38.8125 
Q 15.578125 40.375 12.03125 44.71875 
Q 8.5 49.078125 8.5 55.328125 
Q 8.5 64.0625 14.71875 69.140625 
Q 20.953125 74.21875 31.78125 74.21875 
Q 42.671875 74.21875 48.875 69.140625 
Q 55.078125 64.0625 55.078125 55.328125 
Q 55.078125 49.078125 51.53125 44.71875 
Q 48 40.375 41.703125 38.8125 
Q 48.828125 37.15625 52.796875 32.3125 
Q 56.78125 27.484375 56.78125 20.515625 
Q 56.78125 9.90625 50.3125 4.234375 
Q 43.84375 -1.421875 31.78125 -1.421875 
Q 19.734375 -1.421875 13.25 4.234375 
Q 6.78125 9.90625 6.78125 20.515625 
Q 6.78125 27.484375 10.78125 32.3125 
Q 14.796875 37.15625 21.921875 38.8125 
z
M 18.3125 54.390625 
Q 18.3125 48.734375 21.84375 45.5625 
Q 25.390625 42.390625 31.78125 42.390625 
Q 38.140625 42.390625 41.71875 45.5625 
Q 45.3125 48.734375 45.3125 54.390625 
Q 45.3125 60.0625 41.71875 63.234375 
Q 38.140625 66.40625 31.78125 66.40625 
Q 25.390625 66.40625 21.84375 63.234375 
Q 18.3125 60.0625 18.3125 54.390625 
z
" id="DejaVuSans-56"/>
       </defs>
       <use xlink:href="#DejaVuSans-48"/>
       <use x="63.623047" xlink:href="#DejaVuSans-46"/>
       <use x="95.410156" xlink:href="#DejaVuSans-56"/>
      </g>
     </g>
    </g>
    <g id="ytick_6">
     <g id="line2d_46">
      <path clip-path="url(#pdc62d07f46)" d="M 122.13 74.2176 
L 741.168 74.2176 
" style="fill:none;stroke:#ffffff;stroke-linecap:round;"/>
     </g>
     <g id="line2d_47"/>
     <g id="text_13">
      <!-- 1.0 -->
      <g transform="translate(102.726875 78.016819)scale(0.1 -0.1)">
       <use xlink:href="#DejaVuSans-49"/>
       <use x="63.623047" xlink:href="#DejaVuSans-46"/>
       <use x="95.410156" xlink:href="#DejaVuSans-48"/>
      </g>
     </g>
    </g>
    <g id="ytick_7">
     <g id="line2d_48"/>
    </g>
    <g id="ytick_8">
     <g id="line2d_49"/>
    </g>
    <g id="ytick_9">
     <g id="line2d_50"/>
    </g>
    <g id="ytick_10">
     <g id="line2d_51"/>
    </g>
    <g id="ytick_11">
     <g id="line2d_52"/>
    </g>
    <g id="ytick_12">
     <g id="line2d_53"/>
    </g>
    <g id="ytick_13">
     <g id="line2d_54"/>
    </g>
    <g id="ytick_14">
     <g id="line2d_55"/>
    </g>
    <g id="ytick_15">
     <g id="line2d_56"/>
    </g>
    <g id="ytick_16">
     <g id="line2d_57"/>
    </g>
    <g id="ytick_17">
     <g id="line2d_58"/>
    </g>
    <g id="ytick_18">
     <g id="line2d_59"/>
    </g>
    <g id="ytick_19">
     <g id="line2d_60"/>
    </g>
    <g id="ytick_20">
     <g id="line2d_61"/>
    </g>
    <g id="ytick_21">
     <g id="line2d_62"/>
    </g>
    <g id="text_14">
     <!-- Cumulative probability -->
     <g transform="translate(96.647187 369.134744)rotate(-90)scale(0.1 -0.1)">
      <defs>
       <path d="M 64.40625 67.28125 
L 64.40625 56.890625 
Q 59.421875 61.53125 53.78125 63.8125 
Q 48.140625 66.109375 41.796875 66.109375 
Q 29.296875 66.109375 22.65625 58.46875 
Q 16.015625 50.828125 16.015625 36.375 
Q 16.015625 21.96875 22.65625 14.328125 
Q 29.296875 6.6875 41.796875 6.6875 
Q 48.140625 6.6875 53.78125 8.984375 
Q 59.421875 11.28125 64.40625 15.921875 
L 64.40625 5.609375 
Q 59.234375 2.09375 53.4375 0.328125 
Q 47.65625 -1.421875 41.21875 -1.421875 
Q 24.65625 -1.421875 15.125 8.703125 
Q 5.609375 18.84375 5.609375 36.375 
Q 5.609375 53.953125 15.125 64.078125 
Q 24.65625 74.21875 41.21875 74.21875 
Q 47.75 74.21875 53.53125 72.484375 
Q 59.328125 70.75 64.40625 67.28125 
z
" id="DejaVuSans-67"/>
       <path d="M 8.5 21.578125 
L 8.5 54.6875 
L 17.484375 54.6875 
L 17.484375 21.921875 
Q 17.484375 14.15625 20.5 10.265625 
Q 23.53125 6.390625 29.59375 6.390625 
Q 36.859375 6.390625 41.078125 11.03125 
Q 45.3125 15.671875 45.3125 23.6875 
L 45.3125 54.6875 
L 54.296875 54.6875 
L 54.296875 0 
L 45.3125 0 
L 45.3125 8.40625 
Q 42.046875 3.421875 37.71875 1 
Q 33.40625 -1.421875 27.6875 -1.421875 
Q 18.265625 -1.421875 13.375 4.4375 
Q 8.5 10.296875 8.5 21.578125 
z
M 31.109375 56 
z
" id="DejaVuSans-117"/>
       <path d="M 9.421875 75.984375 
L 18.40625 75.984375 
L 18.40625 0 
L 9.421875 0 
z
" id="DejaVuSans-108"/>
       <path d="M 34.28125 27.484375 
Q 23.390625 27.484375 19.1875 25 
Q 14.984375 22.515625 14.984375 16.5 
Q 14.984375 11.71875 18.140625 8.90625 
Q 21.296875 6.109375 26.703125 6.109375 
Q 34.1875 6.109375 38.703125 11.40625 
Q 43.21875 16.703125 43.21875 25.484375 
L 43.21875 27.484375 
z
M 52.203125 31.203125 
L 52.203125 0 
L 43.21875 0 
L 43.21875 8.296875 
Q 40.140625 3.328125 35.546875 0.953125 
Q 30.953125 -1.421875 24.3125 -1.421875 
Q 15.921875 -1.421875 10.953125 3.296875 
Q 6 8.015625 6 15.921875 
Q 6 25.140625 12.171875 29.828125 
Q 18.359375 34.515625 30.609375 34.515625 
L 43.21875 34.515625 
L 43.21875 35.40625 
Q 43.21875 41.609375 39.140625 45 
Q 35.0625 48.390625 27.6875 48.390625 
Q 23 48.390625 18.546875 47.265625 
Q 14.109375 46.140625 10.015625 43.890625 
L 10.015625 52.203125 
Q 14.9375 54.109375 19.578125 55.046875 
Q 24.21875 56 28.609375 56 
Q 40.484375 56 46.34375 49.84375 
Q 52.203125 43.703125 52.203125 31.203125 
z
" id="DejaVuSans-97"/>
       <path d="M 18.3125 70.21875 
L 18.3125 54.6875 
L 36.8125 54.6875 
L 36.8125 47.703125 
L 18.3125 47.703125 
L 18.3125 18.015625 
Q 18.3125 11.328125 20.140625 9.421875 
Q 21.96875 7.515625 27.59375 7.515625 
L 36.8125 7.515625 
L 36.8125 0 
L 27.59375 0 
Q 17.1875 0 13.234375 3.875 
Q 9.28125 7.765625 9.28125 18.015625 
L 9.28125 47.703125 
L 2.6875 47.703125 
L 2.6875 54.6875 
L 9.28125 54.6875 
L 9.28125 70.21875 
z
" id="DejaVuSans-116"/>
       <path d="M 9.421875 54.6875 
L 18.40625 54.6875 
L 18.40625 0 
L 9.421875 0 
z
M 9.421875 75.984375 
L 18.40625 75.984375 
L 18.40625 64.59375 
L 9.421875 64.59375 
z
" id="DejaVuSans-105"/>
       <path d="M 2.984375 54.6875 
L 12.5 54.6875 
L 29.59375 8.796875 
L 46.6875 54.6875 
L 56.203125 54.6875 
L 35.6875 0 
L 23.484375 0 
z
" id="DejaVuSans-118"/>
       <path d="M 56.203125 29.59375 
L 56.203125 25.203125 
L 14.890625 25.203125 
Q 15.484375 15.921875 20.484375 11.0625 
Q 25.484375 6.203125 34.421875 6.203125 
Q 39.59375 6.203125 44.453125 7.46875 
Q 49.3125 8.734375 54.109375 11.28125 
L 54.109375 2.78125 
Q 49.265625 0.734375 44.1875 -0.34375 
Q 39.109375 -1.421875 33.890625 -1.421875 
Q 20.796875 -1.421875 13.15625 6.1875 
Q 5.515625 13.8125 5.515625 26.8125 
Q 5.515625 40.234375 12.765625 48.109375 
Q 20.015625 56 32.328125 56 
Q 43.359375 56 49.78125 48.890625 
Q 56.203125 41.796875 56.203125 29.59375 
z
M 47.21875 32.234375 
Q 47.125 39.59375 43.09375 43.984375 
Q 39.0625 48.390625 32.421875 48.390625 
Q 24.90625 48.390625 20.390625 44.140625 
Q 15.875 39.890625 15.1875 32.171875 
z
" id="DejaVuSans-101"/>
       <path id="DejaVuSans-32"/>
       <path d="M 18.109375 8.203125 
L 18.109375 -20.796875 
L 9.078125 -20.796875 
L 9.078125 54.6875 
L 18.109375 54.6875 
L 18.109375 46.390625 
Q 20.953125 51.265625 25.265625 53.625 
Q 29.59375 56 35.59375 56 
Q 45.5625 56 51.78125 48.09375 
Q 58.015625 40.1875 58.015625 27.296875 
Q 58.015625 14.40625 51.78125 6.484375 
Q 45.5625 -1.421875 35.59375 -1.421875 
Q 29.59375 -1.421875 25.265625 0.953125 
Q 20.953125 3.328125 18.109375 8.203125 
z
M 48.6875 27.296875 
Q 48.6875 37.203125 44.609375 42.84375 
Q 40.53125 48.484375 33.40625 48.484375 
Q 26.265625 48.484375 22.1875 42.84375 
Q 18.109375 37.203125 18.109375 27.296875 
Q 18.109375 17.390625 22.1875 11.75 
Q 26.265625 6.109375 33.40625 6.109375 
Q 40.53125 6.109375 44.609375 11.75 
Q 48.6875 17.390625 48.6875 27.296875 
z
" id="DejaVuSans-112"/>
       <path d="M 41.109375 46.296875 
Q 39.59375 47.171875 37.8125 47.578125 
Q 36.03125 48 33.890625 48 
Q 26.265625 48 22.1875 43.046875 
Q 18.109375 38.09375 18.109375 28.8125 
L 18.109375 0 
L 9.078125 0 
L 9.078125 54.6875 
L 18.109375 54.6875 
L 18.109375 46.1875 
Q 20.953125 51.171875 25.484375 53.578125 
Q 30.03125 56 36.53125 56 
Q 37.453125 56 38.578125 55.875 
Q 39.703125 55.765625 41.0625 55.515625 
z
" id="DejaVuSans-114"/>
       <path d="M 30.609375 48.390625 
Q 23.390625 48.390625 19.1875 42.75 
Q 14.984375 37.109375 14.984375 27.296875 
Q 14.984375 17.484375 19.15625 11.84375 
Q 23.34375 6.203125 30.609375 6.203125 
Q 37.796875 6.203125 41.984375 11.859375 
Q 46.1875 17.53125 46.1875 27.296875 
Q 46.1875 37.015625 41.984375 42.703125 
Q 37.796875 48.390625 30.609375 48.390625 
z
M 30.609375 56 
Q 42.328125 56 49.015625 48.375 
Q 55.71875 40.765625 55.71875 27.296875 
Q 55.71875 13.875 49.015625 6.21875 
Q 42.328125 -1.421875 30.609375 -1.421875 
Q 18.84375 -1.421875 12.171875 6.21875 
Q 5.515625 13.875 5.515625 27.296875 
Q 5.515625 40.765625 12.171875 48.375 
Q 18.84375 56 30.609375 56 
z
" id="DejaVuSans-111"/>
       <path d="M 48.6875 27.296875 
Q 48.6875 37.203125 44.609375 42.84375 
Q 40.53125 48.484375 33.40625 48.484375 
Q 26.265625 48.484375 22.1875 42.84375 
Q 18.109375 37.203125 18.109375 27.296875 
Q 18.109375 17.390625 22.1875 11.75 
Q 26.265625 6.109375 33.40625 6.109375 
Q 40.53125 6.109375 44.609375 11.75 
Q 48.6875 17.390625 48.6875 27.296875 
z
M 18.109375 46.390625 
Q 20.953125 51.265625 25.265625 53.625 
Q 29.59375 56 35.59375 56 
Q 45.5625 56 51.78125 48.09375 
Q 58.015625 40.1875 58.015625 27.296875 
Q 58.015625 14.40625 51.78125 6.484375 
Q 45.5625 -1.421875 35.59375 -1.421875 
Q 29.59375 -1.421875 25.265625 0.953125 
Q 20.953125 3.328125 18.109375 8.203125 
L 18.109375 0 
L 9.078125 0 
L 9.078125 75.984375 
L 18.109375 75.984375 
z
" id="DejaVuSans-98"/>
       <path d="M 32.171875 -5.078125 
Q 28.375 -14.84375 24.75 -17.8125 
Q 21.140625 -20.796875 15.09375 -20.796875 
L 7.90625 -20.796875 
L 7.90625 -13.28125 
L 13.1875 -13.28125 
Q 16.890625 -13.28125 18.9375 -11.515625 
Q 21 -9.765625 23.484375 -3.21875 
L 25.09375 0.875 
L 2.984375 54.6875 
L 12.5 54.6875 
L 29.59375 11.921875 
L 46.6875 54.6875 
L 56.203125 54.6875 
z
" id="DejaVuSans-121"/>
      </defs>
      <use xlink:href="#DejaVuSans-67"/>
      <use x="69.824219" xlink:href="#DejaVuSans-117"/>
      <use x="133.203125" xlink:href="#DejaVuSans-109"/>
      <use x="230.615234" xlink:href="#DejaVuSans-117"/>
      <use x="293.994141" xlink:href="#DejaVuSans-108"/>
      <use x="321.777344" xlink:href="#DejaVuSans-97"/>
      <use x="383.056641" xlink:href="#DejaVuSans-116"/>
      <use x="422.265625" xlink:href="#DejaVuSans-105"/>
      <use x="450.048828" xlink:href="#DejaVuSans-118"/>
      <use x="509.228516" xlink:href="#DejaVuSans-101"/>
      <use x="570.751953" xlink:href="#DejaVuSans-32"/>
      <use x="602.539062" xlink:href="#DejaVuSans-112"/>
      <use x="666.015625" xlink:href="#DejaVuSans-114"/>
      <use x="704.878906" xlink:href="#DejaVuSans-111"/>
      <use x="766.060547" xlink:href="#DejaVuSans-98"/>
      <use x="829.537109" xlink:href="#DejaVuSans-97"/>
      <use x="890.816406" xlink:href="#DejaVuSans-98"/>
      <use x="954.292969" xlink:href="#DejaVuSans-105"/>
      <use x="982.076172" xlink:href="#DejaVuSans-108"/>
      <use x="1009.859375" xlink:href="#DejaVuSans-105"/>
      <use x="1037.642578" xlink:href="#DejaVuSans-116"/>
      <use x="1076.851562" xlink:href="#DejaVuSans-121"/>
     </g>
    </g>
   </g>
   <g id="line2d_63">
    <path clip-path="url(#pdc62d07f46)" d="M 138.242605 548.859768 
L 142.528856 547.272336 
L 143.203342 544.097472 
L 144.269466 523.460856 
L 144.378254 518.69856 
L 144.661103 512.348832 
L 144.661103 510.7614 
L 144.813406 509.173968 
L 144.922194 502.82424 
L 145.074498 501.236808 
L 145.096255 499.649376 
L 145.335589 498.061944 
L 145.357347 496.474512 
L 145.553165 494.88708 
L 145.857772 480.600192 
L 145.944802 475.837896 
L 146.358197 452.026416 
L 146.445228 448.851552 
L 146.945653 434.564664 
L 147.076199 431.3898 
L 147.184987 428.214936 
L 147.554866 410.753184 
L 147.7942 401.228592 
L 147.924746 399.64116 
L 148.011776 391.704 
L 148.294625 382.179408 
L 148.490444 377.417112 
L 148.664505 375.82968 
L 148.773293 371.067384 
L 148.860323 367.89252 
L 149.273718 345.668472 
L 149.513052 337.731312 
L 149.62184 331.381584 
L 150.100508 310.744968 
L 150.209296 305.982672 
L 150.383357 302.807808 
L 150.383357 301.220376 
L 150.557418 299.632944 
L 150.774994 288.52092 
L 150.774994 285.346056 
L 151.275419 278.996328 
L 151.36245 274.234032 
L 151.471238 269.471736 
L 151.645299 267.884304 
L 151.645299 266.296872 
L 151.928148 263.122008 
L 152.210997 253.597416 
L 152.428573 252.009984 
L 152.472088 247.247688 
L 152.885483 242.485392 
L 152.950756 237.723096 
L 153.233605 231.373368 
L 153.929849 229.785936 
L 153.929849 226.611072 
L 154.147425 225.02364 
L 154.147425 220.261344 
L 154.365001 218.673912 
L 154.365001 212.324184 
L 154.800154 209.14932 
L 154.800154 207.561888 
L 155.01773 205.974456 
L 155.01773 204.387024 
L 155.235306 202.799592 
L 155.235306 201.21216 
L 155.452882 199.624728 
L 155.452882 196.449864 
L 155.888035 193.275 
L 155.888035 190.100136 
L 156.105611 188.512704 
L 156.105611 186.925272 
L 156.540763 185.33784 
L 156.540763 182.162976 
L 156.975916 178.988112 
L 156.975916 177.40068 
L 157.84622 171.050952 
L 158.281373 169.46352 
L 158.281373 167.876088 
L 159.151678 161.52636 
L 159.151678 159.938928 
L 159.369254 158.351496 
L 159.369254 155.176632 
L 160.021982 153.5892 
L 160.021982 152.001768 
L 160.239558 150.414336 
L 160.674711 148.826904 
L 161.109863 145.65204 
L 161.545016 144.064608 
L 162.197744 139.302312 
L 162.197744 136.127448 
L 162.850473 134.540016 
L 162.850473 132.952584 
L 163.068049 131.365152 
L 163.068049 129.77772 
L 163.503201 128.190288 
L 163.503201 126.602856 
L 164.15593 125.015424 
L 165.461387 123.427992 
L 165.678963 121.84056 
L 165.678963 120.253128 
L 166.766844 118.665696 
L 167.201997 117.078264 
L 167.637149 113.9034 
L 167.637149 110.728536 
L 168.507454 107.553672 
L 169.160182 105.96624 
L 170.248063 104.378808 
L 173.29413 102.791376 
L 174.599587 101.203944 
L 175.687468 99.616512 
L 179.60384 98.02908 
L 182.649907 96.441648 
L 184.608092 94.854216 
L 196.574783 93.266784 
L 198.315393 91.679352 
L 206.148136 90.09192 
L 207.01844 88.504488 
L 209.846931 86.917056 
L 221.160893 85.329624 
L 225.947569 83.742192 
L 239.219717 82.15476 
L 248.575494 80.567328 
L 265.981589 78.979896 
L 273.814332 77.392464 
L 335.388396 75.805032 
L 460.494708 74.2176 
L 460.494708 74.2176 
" style="fill:none;stroke:#1b9e77;stroke-linecap:round;"/>
   </g>
   <g id="line2d_64">
    <path clip-path="url(#pdc62d07f46)" d="M 138.28612 548.859768 
L 141.810855 547.272336 
L 142.463583 545.684904 
L 142.746432 542.51004 
L 143.007524 537.747744 
L 143.159827 532.985448 
L 143.333888 529.810584 
L 143.355646 528.223152 
L 143.899586 521.873424 
L 143.943101 520.285992 
L 144.465284 515.523696 
L 144.704618 502.82424 
L 144.813406 499.649376 
L 145.009225 490.124784 
L 145.096255 486.94992 
L 145.139771 480.600192 
L 145.292074 477.425328 
L 145.357347 469.488168 
L 145.466135 466.313304 
L 146.271167 444.089256 
L 146.379955 436.152096 
L 146.488743 428.214936 
L 146.771592 412.340616 
L 147.054441 407.57832 
L 147.228502 401.228592 
L 147.33729 398.053728 
L 147.728927 377.417112 
L 147.815958 372.654816 
L 148.25111 348.843336 
L 148.62099 331.381584 
L 148.642747 329.794152 
L 148.990869 325.031856 
L 149.186688 320.26956 
L 149.273718 317.094696 
L 149.404264 313.919832 
L 149.687113 310.744968 
L 150.557418 278.996328 
L 151.079601 274.234032 
L 151.210146 271.059168 
L 151.405965 269.471736 
L 151.514753 264.70944 
L 151.667056 259.947144 
L 151.667056 258.359712 
L 151.949905 256.77228 
L 152.145724 253.597416 
L 152.232755 245.660256 
L 152.406815 244.072824 
L 152.537361 239.310528 
L 152.928998 236.135664 
L 152.994271 232.9608 
L 153.233605 231.373368 
L 153.429424 225.02364 
L 153.712273 215.499048 
L 153.712273 213.911616 
L 154.800154 205.974456 
L 154.800154 198.037296 
L 155.01773 196.449864 
L 155.01773 191.687568 
L 155.235306 190.100136 
L 155.235306 183.750408 
L 155.670458 182.162976 
L 155.670458 180.575544 
L 155.888035 178.988112 
L 155.888035 177.40068 
L 156.540763 175.813248 
L 156.758339 174.225816 
L 156.758339 169.46352 
L 157.193492 167.876088 
L 157.411068 166.288656 
L 157.411068 164.701224 
L 158.063797 163.113792 
L 158.063797 158.351496 
L 158.281373 156.764064 
L 158.281373 155.176632 
L 159.58683 152.001768 
L 159.58683 147.239472 
L 160.457135 144.064608 
L 160.457135 142.477176 
L 162.197744 140.889744 
L 162.197744 139.302312 
L 162.632897 137.71488 
L 162.850473 136.127448 
L 163.720778 134.540016 
L 164.808659 132.952584 
L 165.461387 131.365152 
L 165.89654 129.77772 
L 165.89654 128.190288 
L 166.549268 126.602856 
L 168.507454 125.015424 
L 168.72503 123.427992 
L 170.030487 121.84056 
L 171.771097 118.665696 
L 172.423825 117.078264 
L 172.641402 115.490832 
L 176.340197 113.9034 
L 182.43233 112.315968 
L 183.085059 110.728536 
L 183.302635 109.141104 
L 184.608092 107.553672 
L 184.608092 105.96624 
L 186.131126 104.378808 
L 188.089311 102.791376 
L 193.746293 101.203944 
L 198.968121 99.616512 
L 202.44934 98.02908 
L 213.110574 96.441648 
L 215.721488 94.854216 
L 220.073012 93.266784 
L 221.813622 91.679352 
L 224.20696 90.09192 
L 224.859689 88.504488 
L 228.123331 86.917056 
L 230.734246 85.329624 
L 245.747003 83.742192 
L 255.320356 82.15476 
L 263.588251 80.567328 
L 275.990094 78.979896 
L 289.697395 77.392464 
L 390.870326 75.805032 
L 738.992238 74.2176 
L 738.992238 74.2176 
" style="fill:none;stroke:#d95f02;stroke-dasharray:3.7,1.6;stroke-dashoffset:0;"/>
   </g>
   <g id="line2d_65">
    <path clip-path="url(#pdc62d07f46)" d="M 141.353945 548.854459 
L 142.202492 547.261718 
L 142.507099 545.668977 
L 142.659402 544.076235 
L 142.724675 540.890753 
L 142.942251 536.11253 
L 143.007524 534.519789 
L 143.246858 532.927047 
L 143.290373 531.334306 
L 143.486191 529.741565 
L 143.747283 521.77786 
L 143.921344 518.592377 
L 146.227652 430.991615 
L 146.33644 424.62065 
L 146.466985 419.842427 
L 146.575773 411.878721 
L 147.076199 389.580345 
L 147.293775 378.431157 
L 147.402563 375.245675 
L 147.402563 373.652934 
L 147.576624 372.060193 
L 147.641897 367.281969 
L 147.902988 365.689228 
L 147.990019 357.725522 
L 149.752386 289.237654 
L 149.752386 287.644912 
L 149.904689 286.052171 
L 150.013477 279.681207 
L 150.209296 273.310242 
L 150.296326 270.12476 
L 150.622691 260.568313 
L 150.753236 257.382831 
L 150.90554 251.011866 
L 151.014328 247.826384 
L 151.101358 244.640902 
L 151.231904 238.269937 
L 151.492995 236.677196 
L 151.623541 233.491714 
L 151.928148 223.935267 
L 152.145724 214.37882 
L 152.385058 208.007856 
L 152.493846 198.451409 
L 153.233605 172.967551 
L 153.407666 171.374809 
L 153.451181 168.189327 
L 153.668757 166.596586 
L 153.712273 163.411104 
L 154.147425 161.818363 
L 154.582577 158.63288 
L 154.582577 153.854657 
L 155.01773 152.261916 
L 155.235306 150.669175 
L 155.235306 149.076433 
L 155.452882 147.483692 
L 155.452882 144.29821 
L 155.888035 141.112728 
L 155.888035 139.519987 
L 156.323187 136.334504 
L 156.323187 133.149022 
L 156.758339 131.556281 
L 156.758339 129.96354 
L 157.193492 128.370799 
L 157.193492 126.778058 
L 157.628644 125.185316 
L 158.063797 121.999834 
L 158.498949 120.407093 
L 158.498949 118.814352 
L 158.934101 117.221611 
L 158.934101 114.036128 
L 160.674711 110.850646 
L 161.327439 109.257905 
L 161.545016 107.665164 
L 161.545016 106.072423 
L 162.41532 104.479682 
L 163.720778 102.88694 
L 164.373506 101.294199 
L 165.243811 99.701458 
L 167.637149 98.108717 
L 168.942606 96.515976 
L 168.942606 94.923235 
L 171.118368 93.330494 
L 171.118368 91.737753 
L 172.423825 88.55227 
L 175.469892 86.959529 
L 177.645654 85.366788 
L 179.386264 83.774047 
L 197.662664 82.181306 
L 203.972374 80.588565 
L 209.194202 78.995823 
L 230.734246 77.403082 
L 272.726451 75.810341 
L 339.087191 74.2176 
L 339.087191 74.2176 
" style="fill:none;stroke:#7570b3;stroke-dasharray:2,4;stroke-dashoffset:0;"/>
   </g>
   <g id="line2d_66">
    <path clip-path="url(#pdc62d07f46)" d="M 141.76734 548.854459 
L 141.876128 547.261718 
L 142.180734 545.668977 
L 142.441826 540.890753 
L 142.811705 539.298012 
L 142.898736 536.11253 
L 143.2251 534.519789 
L 143.355646 532.927047 
L 143.464434 528.148824 
L 143.638495 521.77786 
L 143.986617 515.406895 
L 144.182435 509.03593 
L 144.291223 501.072225 
L 144.465284 499.479484 
L 144.574072 493.108519 
L 144.900437 485.144813 
L 145.030982 481.959331 
L 145.139771 477.181108 
L 145.292074 473.995625 
L 145.640196 456.475473 
L 146.401712 424.62065 
L 146.989168 389.580345 
L 147.293775 381.616639 
L 147.511351 376.838416 
L 147.641897 368.87471 
L 147.728927 364.096487 
L 147.859473 362.503746 
L 147.968261 357.725522 
L 148.468686 343.390852 
L 148.664505 335.427146 
L 148.882081 327.463441 
L 148.925596 322.685217 
L 149.121415 321.092476 
L 150.013477 292.423136 
L 150.44863 279.681207 
L 150.600933 274.902983 
L 150.927297 270.12476 
L 151.101358 263.753795 
L 151.536511 257.382831 
L 151.754087 249.419125 
L 152.27627 241.455419 
L 152.689665 239.862678 
L 152.798453 233.491714 
L 154.147425 201.636891 
L 154.365001 200.04415 
L 154.365001 198.451409 
L 154.582577 196.858668 
L 154.582577 192.080444 
L 154.800154 190.487703 
L 154.800154 185.70948 
L 155.01773 184.116738 
L 155.01773 182.523997 
L 155.452882 180.931256 
L 155.452882 176.153033 
L 155.888035 172.967551 
L 156.323187 171.374809 
L 156.323187 169.782068 
L 156.540763 168.189327 
L 156.540763 166.596586 
L 156.758339 165.003845 
L 156.758339 161.818363 
L 156.975916 160.225621 
L 156.975916 158.63288 
L 157.411068 157.040139 
L 157.628644 155.447398 
L 157.628644 153.854657 
L 157.84622 152.261916 
L 157.84622 149.076433 
L 158.716525 145.890951 
L 159.369254 144.29821 
L 159.804406 142.705469 
L 160.457135 141.112728 
L 160.457135 136.334504 
L 161.327439 134.741763 
L 161.545016 133.149022 
L 162.41532 129.96354 
L 162.41532 128.370799 
L 162.632897 126.778058 
L 163.068049 125.185316 
L 163.503201 121.999834 
L 163.938354 120.407093 
L 163.938354 118.814352 
L 164.15593 117.221611 
L 164.15593 115.62887 
L 164.591082 112.443387 
L 165.678963 110.850646 
L 166.114116 107.665164 
L 166.549268 106.072423 
L 166.766844 104.479682 
L 166.766844 102.88694 
L 167.201997 101.294199 
L 167.201997 96.515976 
L 168.942606 93.330494 
L 170.248063 90.145011 
L 171.988673 88.55227 
L 173.29413 86.959529 
L 177.645654 85.366788 
L 178.298383 83.774047 
L 180.909297 82.181306 
L 183.955364 80.588565 
L 185.043245 78.995823 
L 188.524464 77.403082 
L 193.31114 75.810341 
L 211.587541 74.2176 
L 211.587541 74.2176 
" style="fill:none;stroke:#e7298a;stroke-dasharray:8,4,2,4;stroke-dashoffset:0;"/>
   </g>
   <g id="line2d_67">
    <path clip-path="url(#pdc62d07f46)" d="M 139.787396 548.854459 
L 142.137219 547.261718 
L 142.659402 545.668977 
L 142.964009 544.076235 
L 143.13807 542.483494 
L 143.790798 540.890753 
L 144.05189 539.298012 
L 144.421769 534.519789 
L 144.900437 531.334306 
L 144.96571 529.741565 
L 146.097106 523.370601 
L 146.140621 521.77786 
L 147.206744 520.185118 
L 147.25026 516.999636 
L 147.511351 515.406895 
L 147.554866 513.814154 
L 148.098807 512.221413 
L 148.512202 510.628672 
L 148.664505 504.257707 
L 149.273718 501.072225 
L 149.491294 499.479484 
L 149.839416 497.886742 
L 149.904689 494.70126 
L 150.165781 489.923037 
L 150.840267 486.737555 
L 150.99257 481.959331 
L 151.427723 478.773849 
L 151.44948 477.181108 
L 151.81936 472.402884 
L 152.189239 470.810143 
L 152.210997 467.624661 
L 152.776695 466.03192 
L 152.928998 461.253696 
L 153.429424 459.660955 
L 153.647 456.475473 
L 153.647 454.882732 
L 153.929849 453.289991 
L 153.929849 451.697249 
L 154.147425 450.104508 
L 154.147425 448.511767 
L 154.365001 446.919026 
L 154.365001 442.140803 
L 154.582577 440.548062 
L 154.582577 437.362579 
L 154.800154 435.769838 
L 154.800154 430.991615 
L 155.235306 427.806132 
L 155.235306 426.213391 
L 155.452882 424.62065 
L 155.452882 421.435168 
L 155.670458 419.842427 
L 155.670458 415.064203 
L 155.888035 413.471462 
L 155.888035 411.878721 
L 156.540763 407.100498 
L 156.540763 405.507757 
L 156.758339 403.915015 
L 156.758339 400.729533 
L 156.975916 399.136792 
L 156.975916 395.95131 
L 157.411068 392.765827 
L 157.411068 391.173086 
L 157.628644 389.580345 
L 157.628644 384.802122 
L 157.84622 383.209381 
L 157.84622 381.616639 
L 158.281373 378.431157 
L 158.281373 375.245675 
L 158.498949 373.652934 
L 158.498949 372.060193 
L 158.934101 370.467452 
L 158.934101 368.87471 
L 159.369254 365.689228 
L 159.369254 362.503746 
L 160.021982 360.911005 
L 160.239558 359.318264 
L 160.239558 356.132781 
L 160.457135 354.54004 
L 160.457135 352.947299 
L 161.109863 351.354558 
L 161.327439 349.761817 
L 161.327439 346.576334 
L 161.545016 344.983593 
L 161.545016 335.427146 
L 162.41532 329.056182 
L 162.850473 327.463441 
L 162.850473 322.685217 
L 163.068049 321.092476 
L 163.068049 319.499735 
L 163.285625 317.906994 
L 163.285625 314.721512 
L 163.720778 311.536029 
L 163.720778 308.350547 
L 163.938354 306.757806 
L 164.373506 305.165065 
L 164.373506 303.572324 
L 165.243811 300.386841 
L 165.243811 298.7941 
L 166.114116 292.423136 
L 166.114116 290.830395 
L 166.331692 289.237654 
L 166.766844 287.644912 
L 167.419573 286.052171 
L 167.419573 279.681207 
L 167.637149 278.088466 
L 168.072302 276.495724 
L 168.289878 274.902983 
L 168.289878 273.310242 
L 168.72503 270.12476 
L 169.160182 268.532019 
L 169.160182 266.939278 
L 169.377759 265.346536 
L 169.377759 263.753795 
L 169.812911 260.568313 
L 169.812911 257.382831 
L 170.030487 255.79009 
L 170.030487 254.197348 
L 171.335944 251.011866 
L 171.335944 247.826384 
L 171.553521 246.233643 
L 171.553521 243.048161 
L 171.771097 241.455419 
L 171.771097 239.862678 
L 172.423825 235.084455 
L 172.423825 233.491714 
L 172.641402 231.898973 
L 172.641402 230.306231 
L 172.858978 228.71349 
L 173.729283 225.528008 
L 173.729283 222.342526 
L 173.946859 220.749785 
L 173.946859 217.564302 
L 174.382011 215.971561 
L 174.382011 214.37882 
L 174.817164 212.786079 
L 175.252316 209.600597 
L 175.687468 208.007856 
L 176.122621 204.822373 
L 176.122621 201.636891 
L 176.992926 200.04415 
L 176.992926 196.858668 
L 177.428078 195.265926 
L 179.60384 192.080444 
L 179.60384 190.487703 
L 180.038992 188.894962 
L 180.038992 187.302221 
L 180.474145 184.116738 
L 180.474145 182.523997 
L 180.691721 180.931256 
L 180.691721 179.338515 
L 181.126873 177.745774 
L 181.126873 176.153033 
L 181.562026 174.560292 
L 181.779602 172.967551 
L 182.214754 171.374809 
L 183.085059 169.782068 
L 183.737788 168.189327 
L 183.737788 166.596586 
L 183.955364 165.003845 
L 183.955364 163.411104 
L 184.17294 161.818363 
L 184.17294 160.225621 
L 184.608092 158.63288 
L 184.825669 157.040139 
L 184.825669 155.447398 
L 185.260821 152.261916 
L 185.260821 150.669175 
L 186.131126 149.076433 
L 187.436583 145.890951 
L 187.436583 142.705469 
L 188.089311 141.112728 
L 188.524464 139.519987 
L 188.74204 137.927245 
L 189.829921 136.334504 
L 190.265073 134.741763 
L 190.265073 133.149022 
L 190.700226 131.556281 
L 190.700226 129.96354 
L 191.352954 128.370799 
L 191.352954 126.778058 
L 191.570531 125.185316 
L 192.005683 123.592575 
L 192.223259 121.999834 
L 192.875988 120.407093 
L 193.093564 118.814352 
L 193.528716 117.221611 
L 194.181445 112.443387 
L 194.616597 110.850646 
L 194.834174 109.257905 
L 195.922055 107.665164 
L 196.139631 106.072423 
L 196.139631 104.479682 
L 196.574783 102.88694 
L 197.662664 101.294199 
L 198.097816 98.108717 
L 200.056002 96.515976 
L 200.708731 94.923235 
L 202.014188 93.330494 
L 204.407526 91.737753 
L 205.060255 90.145011 
L 205.277831 88.55227 
L 206.583288 86.959529 
L 206.800864 85.366788 
L 210.49966 83.774047 
L 210.717236 82.181306 
L 213.763303 78.995823 
L 216.156641 77.403082 
L 235.08577 75.810341 
L 239.437294 74.2176 
L 239.437294 74.2176 
" style="fill:none;stroke:#66a61e;stroke-linecap:round;"/>
    <defs>
     <path d="M 0 3 
C 0.795609 3 1.55874 2.683901 2.12132 2.12132 
C 2.683901 1.55874 3 0.795609 3 0 
C 3 -0.795609 2.683901 -1.55874 2.12132 -2.12132 
C 1.55874 -2.683901 0.795609 -3 0 -3 
C -0.795609 -3 -1.55874 -2.683901 -2.12132 -2.12132 
C -2.683901 -1.55874 -3 -0.795609 -3 0 
C -3 0.795609 -2.683901 1.55874 -2.12132 2.12132 
C -1.55874 2.683901 -0.795609 3 0 3 
z
" id="ma963149e94" style="stroke:#66a61e;"/>
    </defs>
    <g clip-path="url(#pdc62d07f46)">
     <use style="fill:#66a61e;stroke:#66a61e;" x="139.787396" xlink:href="#ma963149e94" y="548.854459"/>
     <use style="fill:#66a61e;stroke:#66a61e;" x="144.704618" xlink:href="#ma963149e94" y="532.927047"/>
     <use style="fill:#66a61e;stroke:#66a61e;" x="147.25026" xlink:href="#ma963149e94" y="516.999636"/>
     <use style="fill:#66a61e;stroke:#66a61e;" x="149.273718" xlink:href="#ma963149e94" y="501.072225"/>
     <use style="fill:#66a61e;stroke:#66a61e;" x="150.883782" xlink:href="#ma963149e94" y="485.144813"/>
     <use style="fill:#66a61e;stroke:#66a61e;" x="152.210997" xlink:href="#ma963149e94" y="469.217402"/>
     <use style="fill:#66a61e;stroke:#66a61e;" x="153.929849" xlink:href="#ma963149e94" y="453.289991"/>
     <use style="fill:#66a61e;stroke:#66a61e;" x="154.582577" xlink:href="#ma963149e94" y="437.362579"/>
     <use style="fill:#66a61e;stroke:#66a61e;" x="155.452882" xlink:href="#ma963149e94" y="421.435168"/>
     <use style="fill:#66a61e;stroke:#66a61e;" x="156.540763" xlink:href="#ma963149e94" y="405.507757"/>
     <use style="fill:#66a61e;stroke:#66a61e;" x="157.628644" xlink:href="#ma963149e94" y="389.580345"/>
     <use style="fill:#66a61e;stroke:#66a61e;" x="158.498949" xlink:href="#ma963149e94" y="373.652934"/>
     <use style="fill:#66a61e;stroke:#66a61e;" x="160.239558" xlink:href="#ma963149e94" y="357.725522"/>
     <use style="fill:#66a61e;stroke:#66a61e;" x="161.545016" xlink:href="#ma963149e94" y="341.798111"/>
     <use style="fill:#66a61e;stroke:#66a61e;" x="162.850473" xlink:href="#ma963149e94" y="325.8707"/>
     <use style="fill:#66a61e;stroke:#66a61e;" x="163.720778" xlink:href="#ma963149e94" y="309.943288"/>
     <use style="fill:#66a61e;stroke:#66a61e;" x="165.89654" xlink:href="#ma963149e94" y="294.015877"/>
     <use style="fill:#66a61e;stroke:#66a61e;" x="167.637149" xlink:href="#ma963149e94" y="278.088466"/>
     <use style="fill:#66a61e;stroke:#66a61e;" x="169.595335" xlink:href="#ma963149e94" y="262.161054"/>
     <use style="fill:#66a61e;stroke:#66a61e;" x="171.553521" xlink:href="#ma963149e94" y="246.233643"/>
     <use style="fill:#66a61e;stroke:#66a61e;" x="172.641402" xlink:href="#ma963149e94" y="230.306231"/>
     <use style="fill:#66a61e;stroke:#66a61e;" x="174.382011" xlink:href="#ma963149e94" y="214.37882"/>
     <use style="fill:#66a61e;stroke:#66a61e;" x="176.992926" xlink:href="#ma963149e94" y="198.451409"/>
     <use style="fill:#66a61e;stroke:#66a61e;" x="180.474145" xlink:href="#ma963149e94" y="182.523997"/>
     <use style="fill:#66a61e;stroke:#66a61e;" x="183.737788" xlink:href="#ma963149e94" y="166.596586"/>
     <use style="fill:#66a61e;stroke:#66a61e;" x="185.260821" xlink:href="#ma963149e94" y="150.669175"/>
     <use style="fill:#66a61e;stroke:#66a61e;" x="190.265073" xlink:href="#ma963149e94" y="134.741763"/>
     <use style="fill:#66a61e;stroke:#66a61e;" x="193.093564" xlink:href="#ma963149e94" y="118.814352"/>
     <use style="fill:#66a61e;stroke:#66a61e;" x="196.574783" xlink:href="#ma963149e94" y="102.88694"/>
     <use style="fill:#66a61e;stroke:#66a61e;" x="206.583288" xlink:href="#ma963149e94" y="86.959529"/>
    </g>
   </g>
   <g id="patch_3">
    <path d="M 122.13 550.4472 
L 122.13 74.2176 
" style="fill:none;"/>
   </g>
   <g id="patch_4">
    <path d="M 741.168 550.4472 
L 741.168 74.2176 
" style="fill:none;"/>
   </g>
   <g id="patch_5">
    <path d="M 122.13 550.4472 
L 741.168 550.4472 
" style="fill:none;"/>
   </g>
   <g id="patch_6">
    <path d="M 122.13 74.2176 
L 741.168 74.2176 
" style="fill:none;"/>
   </g>
   <g id="legend_1">
    <g id="line2d_68">
     <path d="M 756.88076 80.963598 
L 773.54076 80.963598 
" style="fill:none;stroke:#1b9e77;stroke-linecap:round;"/>
    </g>
    <g id="line2d_69"/>
    <g id="text_15">
     <!-- Ping (ms) - BBRn-fq -->
     <g transform="translate(780.20476 83.879098)scale(0.0833 -0.0833)">
      <defs>
       <path d="M 19.671875 64.796875 
L 19.671875 37.40625 
L 32.078125 37.40625 
Q 38.96875 37.40625 42.71875 40.96875 
Q 46.484375 44.53125 46.484375 51.125 
Q 46.484375 57.671875 42.71875 61.234375 
Q 38.96875 64.796875 32.078125 64.796875 
z
M 9.8125 72.90625 
L 32.078125 72.90625 
Q 44.34375 72.90625 50.609375 67.359375 
Q 56.890625 61.8125 56.890625 51.125 
Q 56.890625 40.328125 50.609375 34.8125 
Q 44.34375 29.296875 32.078125 29.296875 
L 19.671875 29.296875 
L 19.671875 0 
L 9.8125 0 
z
" id="DejaVuSans-80"/>
       <path d="M 54.890625 33.015625 
L 54.890625 0 
L 45.90625 0 
L 45.90625 32.71875 
Q 45.90625 40.484375 42.875 44.328125 
Q 39.84375 48.1875 33.796875 48.1875 
Q 26.515625 48.1875 22.3125 43.546875 
Q 18.109375 38.921875 18.109375 30.90625 
L 18.109375 0 
L 9.078125 0 
L 9.078125 54.6875 
L 18.109375 54.6875 
L 18.109375 46.1875 
Q 21.34375 51.125 25.703125 53.5625 
Q 30.078125 56 35.796875 56 
Q 45.21875 56 50.046875 50.171875 
Q 54.890625 44.34375 54.890625 33.015625 
z
" id="DejaVuSans-110"/>
       <path d="M 45.40625 27.984375 
Q 45.40625 37.75 41.375 43.109375 
Q 37.359375 48.484375 30.078125 48.484375 
Q 22.859375 48.484375 18.828125 43.109375 
Q 14.796875 37.75 14.796875 27.984375 
Q 14.796875 18.265625 18.828125 12.890625 
Q 22.859375 7.515625 30.078125 7.515625 
Q 37.359375 7.515625 41.375 12.890625 
Q 45.40625 18.265625 45.40625 27.984375 
z
M 54.390625 6.78125 
Q 54.390625 -7.171875 48.1875 -13.984375 
Q 42 -20.796875 29.203125 -20.796875 
Q 24.46875 -20.796875 20.265625 -20.09375 
Q 16.0625 -19.390625 12.109375 -17.921875 
L 12.109375 -9.1875 
Q 16.0625 -11.328125 19.921875 -12.34375 
Q 23.78125 -13.375 27.78125 -13.375 
Q 36.625 -13.375 41.015625 -8.765625 
Q 45.40625 -4.15625 45.40625 5.171875 
L 45.40625 9.625 
Q 42.625 4.78125 38.28125 2.390625 
Q 33.9375 0 27.875 0 
Q 17.828125 0 11.671875 7.65625 
Q 5.515625 15.328125 5.515625 27.984375 
Q 5.515625 40.671875 11.671875 48.328125 
Q 17.828125 56 27.875 56 
Q 33.9375 56 38.28125 53.609375 
Q 42.625 51.21875 45.40625 46.390625 
L 45.40625 54.6875 
L 54.390625 54.6875 
z
" id="DejaVuSans-103"/>
       <path d="M 31 75.875 
Q 24.46875 64.65625 21.28125 53.65625 
Q 18.109375 42.671875 18.109375 31.390625 
Q 18.109375 20.125 21.3125 9.0625 
Q 24.515625 -2 31 -13.1875 
L 23.1875 -13.1875 
Q 15.875 -1.703125 12.234375 9.375 
Q 8.59375 20.453125 8.59375 31.390625 
Q 8.59375 42.28125 12.203125 53.3125 
Q 15.828125 64.359375 23.1875 75.875 
z
" id="DejaVuSans-40"/>
       <path d="M 8.015625 75.875 
L 15.828125 75.875 
Q 23.140625 64.359375 26.78125 53.3125 
Q 30.421875 42.28125 30.421875 31.390625 
Q 30.421875 20.453125 26.78125 9.375 
Q 23.140625 -1.703125 15.828125 -13.1875 
L 8.015625 -13.1875 
Q 14.5 -2 17.703125 9.0625 
Q 20.90625 20.125 20.90625 31.390625 
Q 20.90625 42.671875 17.703125 53.65625 
Q 14.5 64.65625 8.015625 75.875 
z
" id="DejaVuSans-41"/>
       <path d="M 4.890625 31.390625 
L 31.203125 31.390625 
L 31.203125 23.390625 
L 4.890625 23.390625 
z
" id="DejaVuSans-45"/>
       <path d="M 19.671875 34.8125 
L 19.671875 8.109375 
L 35.5 8.109375 
Q 43.453125 8.109375 47.28125 11.40625 
Q 51.125 14.703125 51.125 21.484375 
Q 51.125 28.328125 47.28125 31.5625 
Q 43.453125 34.8125 35.5 34.8125 
z
M 19.671875 64.796875 
L 19.671875 42.828125 
L 34.28125 42.828125 
Q 41.5 42.828125 45.03125 45.53125 
Q 48.578125 48.25 48.578125 53.8125 
Q 48.578125 59.328125 45.03125 62.0625 
Q 41.5 64.796875 34.28125 64.796875 
z
M 9.8125 72.90625 
L 35.015625 72.90625 
Q 46.296875 72.90625 52.390625 68.21875 
Q 58.5 63.53125 58.5 54.890625 
Q 58.5 48.1875 55.375 44.234375 
Q 52.25 40.28125 46.1875 39.3125 
Q 53.46875 37.75 57.5 32.78125 
Q 61.53125 27.828125 61.53125 20.40625 
Q 61.53125 10.640625 54.890625 5.3125 
Q 48.25 0 35.984375 0 
L 9.8125 0 
z
" id="DejaVuSans-66"/>
       <path d="M 44.390625 34.1875 
Q 47.5625 33.109375 50.5625 29.59375 
Q 53.5625 26.078125 56.59375 19.921875 
L 66.609375 0 
L 56 0 
L 46.6875 18.703125 
Q 43.0625 26.03125 39.671875 28.421875 
Q 36.28125 30.8125 30.421875 30.8125 
L 19.671875 30.8125 
L 19.671875 0 
L 9.8125 0 
L 9.8125 72.90625 
L 32.078125 72.90625 
Q 44.578125 72.90625 50.734375 67.671875 
Q 56.890625 62.453125 56.890625 51.90625 
Q 56.890625 45.015625 53.6875 40.46875 
Q 50.484375 35.9375 44.390625 34.1875 
z
M 19.671875 64.796875 
L 19.671875 38.921875 
L 32.078125 38.921875 
Q 39.203125 38.921875 42.84375 42.21875 
Q 46.484375 45.515625 46.484375 51.90625 
Q 46.484375 58.296875 42.84375 61.546875 
Q 39.203125 64.796875 32.078125 64.796875 
z
" id="DejaVuSans-82"/>
       <path d="M 37.109375 75.984375 
L 37.109375 68.5 
L 28.515625 68.5 
Q 23.6875 68.5 21.796875 66.546875 
Q 19.921875 64.59375 19.921875 59.515625 
L 19.921875 54.6875 
L 34.71875 54.6875 
L 34.71875 47.703125 
L 19.921875 47.703125 
L 19.921875 0 
L 10.890625 0 
L 10.890625 47.703125 
L 2.296875 47.703125 
L 2.296875 54.6875 
L 10.890625 54.6875 
L 10.890625 58.5 
Q 10.890625 67.625 15.140625 71.796875 
Q 19.390625 75.984375 28.609375 75.984375 
z
" id="DejaVuSans-102"/>
       <path d="M 14.796875 27.296875 
Q 14.796875 17.390625 18.875 11.75 
Q 22.953125 6.109375 30.078125 6.109375 
Q 37.203125 6.109375 41.296875 11.75 
Q 45.40625 17.390625 45.40625 27.296875 
Q 45.40625 37.203125 41.296875 42.84375 
Q 37.203125 48.484375 30.078125 48.484375 
Q 22.953125 48.484375 18.875 42.84375 
Q 14.796875 37.203125 14.796875 27.296875 
z
M 45.40625 8.203125 
Q 42.578125 3.328125 38.25 0.953125 
Q 33.9375 -1.421875 27.875 -1.421875 
Q 17.96875 -1.421875 11.734375 6.484375 
Q 5.515625 14.40625 5.515625 27.296875 
Q 5.515625 40.1875 11.734375 48.09375 
Q 17.96875 56 27.875 56 
Q 33.9375 56 38.25 53.625 
Q 42.578125 51.265625 45.40625 46.390625 
L 45.40625 54.6875 
L 54.390625 54.6875 
L 54.390625 -20.796875 
L 45.40625 -20.796875 
z
" id="DejaVuSans-113"/>
      </defs>
      <use xlink:href="#DejaVuSans-80"/>
      <use x="58.052734" xlink:href="#DejaVuSans-105"/>
      <use x="85.835938" xlink:href="#DejaVuSans-110"/>
      <use x="149.214844" xlink:href="#DejaVuSans-103"/>
      <use x="212.691406" xlink:href="#DejaVuSans-32"/>
      <use x="244.478516" xlink:href="#DejaVuSans-40"/>
      <use x="283.492188" xlink:href="#DejaVuSans-109"/>
      <use x="380.904297" xlink:href="#DejaVuSans-115"/>
      <use x="433.003906" xlink:href="#DejaVuSans-41"/>
      <use x="472.017578" xlink:href="#DejaVuSans-32"/>
      <use x="503.804688" xlink:href="#DejaVuSans-45"/>
      <use x="539.888672" xlink:href="#DejaVuSans-32"/>
      <use x="571.675781" xlink:href="#DejaVuSans-66"/>
      <use x="640.279297" xlink:href="#DejaVuSans-66"/>
      <use x="708.882812" xlink:href="#DejaVuSans-82"/>
      <use x="778.365234" xlink:href="#DejaVuSans-110"/>
      <use x="841.744141" xlink:href="#DejaVuSans-45"/>
      <use x="877.828125" xlink:href="#DejaVuSans-102"/>
      <use x="913.033203" xlink:href="#DejaVuSans-113"/>
     </g>
    </g>
    <g id="line2d_70">
     <path d="M 756.88076 93.190477 
L 773.54076 93.190477 
" style="fill:none;stroke:#d95f02;stroke-dasharray:3.7,1.6;stroke-dashoffset:0;"/>
    </g>
    <g id="line2d_71"/>
    <g id="text_16">
     <!-- Ping (ms) - BBRn-codel -->
     <g transform="translate(780.20476 96.105977)scale(0.0833 -0.0833)">
      <defs>
       <path d="M 48.78125 52.59375 
L 48.78125 44.1875 
Q 44.96875 46.296875 41.140625 47.34375 
Q 37.3125 48.390625 33.40625 48.390625 
Q 24.65625 48.390625 19.8125 42.84375 
Q 14.984375 37.3125 14.984375 27.296875 
Q 14.984375 17.28125 19.8125 11.734375 
Q 24.65625 6.203125 33.40625 6.203125 
Q 37.3125 6.203125 41.140625 7.25 
Q 44.96875 8.296875 48.78125 10.40625 
L 48.78125 2.09375 
Q 45.015625 0.34375 40.984375 -0.53125 
Q 36.96875 -1.421875 32.421875 -1.421875 
Q 20.0625 -1.421875 12.78125 6.34375 
Q 5.515625 14.109375 5.515625 27.296875 
Q 5.515625 40.671875 12.859375 48.328125 
Q 20.21875 56 33.015625 56 
Q 37.15625 56 41.109375 55.140625 
Q 45.0625 54.296875 48.78125 52.59375 
z
" id="DejaVuSans-99"/>
       <path d="M 45.40625 46.390625 
L 45.40625 75.984375 
L 54.390625 75.984375 
L 54.390625 0 
L 45.40625 0 
L 45.40625 8.203125 
Q 42.578125 3.328125 38.25 0.953125 
Q 33.9375 -1.421875 27.875 -1.421875 
Q 17.96875 -1.421875 11.734375 6.484375 
Q 5.515625 14.40625 5.515625 27.296875 
Q 5.515625 40.1875 11.734375 48.09375 
Q 17.96875 56 27.875 56 
Q 33.9375 56 38.25 53.625 
Q 42.578125 51.265625 45.40625 46.390625 
z
M 14.796875 27.296875 
Q 14.796875 17.390625 18.875 11.75 
Q 22.953125 6.109375 30.078125 6.109375 
Q 37.203125 6.109375 41.296875 11.75 
Q 45.40625 17.390625 45.40625 27.296875 
Q 45.40625 37.203125 41.296875 42.84375 
Q 37.203125 48.484375 30.078125 48.484375 
Q 22.953125 48.484375 18.875 42.84375 
Q 14.796875 37.203125 14.796875 27.296875 
z
" id="DejaVuSans-100"/>
      </defs>
      <use xlink:href="#DejaVuSans-80"/>
      <use x="58.052734" xlink:href="#DejaVuSans-105"/>
      <use x="85.835938" xlink:href="#DejaVuSans-110"/>
      <use x="149.214844" xlink:href="#DejaVuSans-103"/>
      <use x="212.691406" xlink:href="#DejaVuSans-32"/>
      <use x="244.478516" xlink:href="#DejaVuSans-40"/>
      <use x="283.492188" xlink:href="#DejaVuSans-109"/>
      <use x="380.904297" xlink:href="#DejaVuSans-115"/>
      <use x="433.003906" xlink:href="#DejaVuSans-41"/>
      <use x="472.017578" xlink:href="#DejaVuSans-32"/>
      <use x="503.804688" xlink:href="#DejaVuSans-45"/>
      <use x="539.888672" xlink:href="#DejaVuSans-32"/>
      <use x="571.675781" xlink:href="#DejaVuSans-66"/>
      <use x="640.279297" xlink:href="#DejaVuSans-66"/>
      <use x="708.882812" xlink:href="#DejaVuSans-82"/>
      <use x="778.365234" xlink:href="#DejaVuSans-110"/>
      <use x="841.744141" xlink:href="#DejaVuSans-45"/>
      <use x="877.828125" xlink:href="#DejaVuSans-99"/>
      <use x="932.808594" xlink:href="#DejaVuSans-111"/>
      <use x="993.990234" xlink:href="#DejaVuSans-100"/>
      <use x="1057.466797" xlink:href="#DejaVuSans-101"/>
      <use x="1118.990234" xlink:href="#DejaVuSans-108"/>
     </g>
    </g>
    <g id="line2d_72">
     <path d="M 756.88076 105.417355 
L 773.54076 105.417355 
" style="fill:none;stroke:#7570b3;stroke-dasharray:2,4;stroke-dashoffset:0;"/>
    </g>
    <g id="line2d_73"/>
    <g id="text_17">
     <!-- Ping (ms) - BBRn-pie -->
     <g transform="translate(780.20476 108.332855)scale(0.0833 -0.0833)">
      <use xlink:href="#DejaVuSans-80"/>
      <use x="58.052734" xlink:href="#DejaVuSans-105"/>
      <use x="85.835938" xlink:href="#DejaVuSans-110"/>
      <use x="149.214844" xlink:href="#DejaVuSans-103"/>
      <use x="212.691406" xlink:href="#DejaVuSans-32"/>
      <use x="244.478516" xlink:href="#DejaVuSans-40"/>
      <use x="283.492188" xlink:href="#DejaVuSans-109"/>
      <use x="380.904297" xlink:href="#DejaVuSans-115"/>
      <use x="433.003906" xlink:href="#DejaVuSans-41"/>
      <use x="472.017578" xlink:href="#DejaVuSans-32"/>
      <use x="503.804688" xlink:href="#DejaVuSans-45"/>
      <use x="539.888672" xlink:href="#DejaVuSans-32"/>
      <use x="571.675781" xlink:href="#DejaVuSans-66"/>
      <use x="640.279297" xlink:href="#DejaVuSans-66"/>
      <use x="708.882812" xlink:href="#DejaVuSans-82"/>
      <use x="778.365234" xlink:href="#DejaVuSans-110"/>
      <use x="841.744141" xlink:href="#DejaVuSans-45"/>
      <use x="877.828125" xlink:href="#DejaVuSans-112"/>
      <use x="941.304688" xlink:href="#DejaVuSans-105"/>
      <use x="969.087891" xlink:href="#DejaVuSans-101"/>
     </g>
    </g>
    <g id="line2d_74">
     <path d="M 756.88076 117.644233 
L 773.54076 117.644233 
" style="fill:none;stroke:#e7298a;stroke-dasharray:8,4,2,4;stroke-dashoffset:0;"/>
    </g>
    <g id="line2d_75"/>
    <g id="text_18">
     <!-- Ping (ms) - BBRn-cake -->
     <g transform="translate(780.20476 120.559733)scale(0.0833 -0.0833)">
      <defs>
       <path d="M 9.078125 75.984375 
L 18.109375 75.984375 
L 18.109375 31.109375 
L 44.921875 54.6875 
L 56.390625 54.6875 
L 27.390625 29.109375 
L 57.625 0 
L 45.90625 0 
L 18.109375 26.703125 
L 18.109375 0 
L 9.078125 0 
z
" id="DejaVuSans-107"/>
      </defs>
      <use xlink:href="#DejaVuSans-80"/>
      <use x="58.052734" xlink:href="#DejaVuSans-105"/>
      <use x="85.835938" xlink:href="#DejaVuSans-110"/>
      <use x="149.214844" xlink:href="#DejaVuSans-103"/>
      <use x="212.691406" xlink:href="#DejaVuSans-32"/>
      <use x="244.478516" xlink:href="#DejaVuSans-40"/>
      <use x="283.492188" xlink:href="#DejaVuSans-109"/>
      <use x="380.904297" xlink:href="#DejaVuSans-115"/>
      <use x="433.003906" xlink:href="#DejaVuSans-41"/>
      <use x="472.017578" xlink:href="#DejaVuSans-32"/>
      <use x="503.804688" xlink:href="#DejaVuSans-45"/>
      <use x="539.888672" xlink:href="#DejaVuSans-32"/>
      <use x="571.675781" xlink:href="#DejaVuSans-66"/>
      <use x="640.279297" xlink:href="#DejaVuSans-66"/>
      <use x="708.882812" xlink:href="#DejaVuSans-82"/>
      <use x="778.365234" xlink:href="#DejaVuSans-110"/>
      <use x="841.744141" xlink:href="#DejaVuSans-45"/>
      <use x="877.828125" xlink:href="#DejaVuSans-99"/>
      <use x="932.808594" xlink:href="#DejaVuSans-97"/>
      <use x="994.087891" xlink:href="#DejaVuSans-107"/>
      <use x="1048.373047" xlink:href="#DejaVuSans-101"/>
     </g>
    </g>
    <g id="line2d_76">
     <path d="M 756.88076 129.871111 
L 773.54076 129.871111 
" style="fill:none;stroke:#66a61e;stroke-linecap:round;"/>
    </g>
    <g id="line2d_77">
     <g>
      <use style="fill:#66a61e;stroke:#66a61e;" x="765.21076" xlink:href="#ma963149e94" y="129.871111"/>
     </g>
    </g>
    <g id="text_19">
     <!-- Ping (ms) - BBRn-fq_codel -->
     <g transform="translate(780.20476 132.786611)scale(0.0833 -0.0833)">
      <defs>
       <path d="M 50.984375 -16.609375 
L 50.984375 -23.578125 
L -0.984375 -23.578125 
L -0.984375 -16.609375 
z
" id="DejaVuSans-95"/>
      </defs>
      <use xlink:href="#DejaVuSans-80"/>
      <use x="58.052734" xlink:href="#DejaVuSans-105"/>
      <use x="85.835938" xlink:href="#DejaVuSans-110"/>
      <use x="149.214844" xlink:href="#DejaVuSans-103"/>
      <use x="212.691406" xlink:href="#DejaVuSans-32"/>
      <use x="244.478516" xlink:href="#DejaVuSans-40"/>
      <use x="283.492188" xlink:href="#DejaVuSans-109"/>
      <use x="380.904297" xlink:href="#DejaVuSans-115"/>
      <use x="433.003906" xlink:href="#DejaVuSans-41"/>
      <use x="472.017578" xlink:href="#DejaVuSans-32"/>
      <use x="503.804688" xlink:href="#DejaVuSans-45"/>
      <use x="539.888672" xlink:href="#DejaVuSans-32"/>
      <use x="571.675781" xlink:href="#DejaVuSans-66"/>
      <use x="640.279297" xlink:href="#DejaVuSans-66"/>
      <use x="708.882812" xlink:href="#DejaVuSans-82"/>
      <use x="778.365234" xlink:href="#DejaVuSans-110"/>
      <use x="841.744141" xlink:href="#DejaVuSans-45"/>
      <use x="877.828125" xlink:href="#DejaVuSans-102"/>
      <use x="913.033203" xlink:href="#DejaVuSans-113"/>
      <use x="976.509766" xlink:href="#DejaVuSans-95"/>
      <use x="1026.509766" xlink:href="#DejaVuSans-99"/>
      <use x="1081.490234" xlink:href="#DejaVuSans-111"/>
      <use x="1142.671875" xlink:href="#DejaVuSans-100"/>
      <use x="1206.148438" xlink:href="#DejaVuSans-101"/>
      <use x="1267.671875" xlink:href="#DejaVuSans-108"/>
     </g>
    </g>
   </g>
  </g>
  <g id="text_20">
   <!-- TCP upload - N streams w/ping -->
   <g transform="translate(381.295312 15.791812)scale(0.14 -0.14)">
    <defs>
     <path d="M -0.296875 72.90625 
L 61.375 72.90625 
L 61.375 64.59375 
L 35.5 64.59375 
L 35.5 0 
L 25.59375 0 
L 25.59375 64.59375 
L -0.296875 64.59375 
z
" id="DejaVuSans-84"/>
     <path d="M 9.8125 72.90625 
L 23.09375 72.90625 
L 55.421875 11.921875 
L 55.421875 72.90625 
L 64.984375 72.90625 
L 64.984375 0 
L 51.703125 0 
L 19.390625 60.984375 
L 19.390625 0 
L 9.8125 0 
z
" id="DejaVuSans-78"/>
     <path d="M 4.203125 54.6875 
L 13.1875 54.6875 
L 24.421875 12.015625 
L 35.59375 54.6875 
L 46.1875 54.6875 
L 57.421875 12.015625 
L 68.609375 54.6875 
L 77.59375 54.6875 
L 63.28125 0 
L 52.6875 0 
L 40.921875 44.828125 
L 29.109375 0 
L 18.5 0 
z
" id="DejaVuSans-119"/>
     <path d="M 25.390625 72.90625 
L 33.6875 72.90625 
L 8.296875 -9.28125 
L 0 -9.28125 
z
" id="DejaVuSans-47"/>
    </defs>
    <use xlink:href="#DejaVuSans-84"/>
    <use x="55.208984" xlink:href="#DejaVuSans-67"/>
    <use x="125.033203" xlink:href="#DejaVuSans-80"/>
    <use x="185.335938" xlink:href="#DejaVuSans-32"/>
    <use x="217.123047" xlink:href="#DejaVuSans-117"/>
    <use x="280.501953" xlink:href="#DejaVuSans-112"/>
    <use x="343.978516" xlink:href="#DejaVuSans-108"/>
    <use x="371.761719" xlink:href="#DejaVuSans-111"/>
    <use x="432.943359" xlink:href="#DejaVuSans-97"/>
    <use x="494.222656" xlink:href="#DejaVuSans-100"/>
    <use x="557.699219" xlink:href="#DejaVuSans-32"/>
    <use x="589.486328" xlink:href="#DejaVuSans-45"/>
    <use x="625.570312" xlink:href="#DejaVuSans-32"/>
    <use x="657.357422" xlink:href="#DejaVuSans-78"/>
    <use x="732.162109" xlink:href="#DejaVuSans-32"/>
    <use x="763.949219" xlink:href="#DejaVuSans-115"/>
    <use x="816.048828" xlink:href="#DejaVuSans-116"/>
    <use x="855.257812" xlink:href="#DejaVuSans-114"/>
    <use x="894.121094" xlink:href="#DejaVuSans-101"/>
    <use x="955.644531" xlink:href="#DejaVuSans-97"/>
    <use x="1016.923828" xlink:href="#DejaVuSans-109"/>
    <use x="1114.335938" xlink:href="#DejaVuSans-115"/>
    <use x="1166.435547" xlink:href="#DejaVuSans-32"/>
    <use x="1198.222656" xlink:href="#DejaVuSans-119"/>
    <use x="1280.009766" xlink:href="#DejaVuSans-47"/>
    <use x="1313.701172" xlink:href="#DejaVuSans-112"/>
    <use x="1377.177734" xlink:href="#DejaVuSans-105"/>
    <use x="1404.960938" xlink:href="#DejaVuSans-110"/>
    <use x="1468.339844" xlink:href="#DejaVuSans-103"/>
   </g>
   <!-- Ping CDF plot -->
   <g transform="translate(441.4625 31.46875)scale(0.14 -0.14)">
    <defs>
     <path d="M 19.671875 64.796875 
L 19.671875 8.109375 
L 31.59375 8.109375 
Q 46.6875 8.109375 53.6875 14.9375 
Q 60.6875 21.78125 60.6875 36.53125 
Q 60.6875 51.171875 53.6875 57.984375 
Q 46.6875 64.796875 31.59375 64.796875 
z
M 9.8125 72.90625 
L 30.078125 72.90625 
Q 51.265625 72.90625 61.171875 64.09375 
Q 71.09375 55.28125 71.09375 36.53125 
Q 71.09375 17.671875 61.125 8.828125 
Q 51.171875 0 30.078125 0 
L 9.8125 0 
z
" id="DejaVuSans-68"/>
     <path d="M 9.8125 72.90625 
L 51.703125 72.90625 
L 51.703125 64.59375 
L 19.671875 64.59375 
L 19.671875 43.109375 
L 48.578125 43.109375 
L 48.578125 34.8125 
L 19.671875 34.8125 
L 19.671875 0 
L 9.8125 0 
z
" id="DejaVuSans-70"/>
    </defs>
    <use xlink:href="#DejaVuSans-80"/>
    <use x="58.052734" xlink:href="#DejaVuSans-105"/>
    <use x="85.835938" xlink:href="#DejaVuSans-110"/>
    <use x="149.214844" xlink:href="#DejaVuSans-103"/>
    <use x="212.691406" xlink:href="#DejaVuSans-32"/>
    <use x="244.478516" xlink:href="#DejaVuSans-67"/>
    <use x="314.302734" xlink:href="#DejaVuSans-68"/>
    <use x="391.304688" xlink:href="#DejaVuSans-70"/>
    <use x="448.824219" xlink:href="#DejaVuSans-32"/>
    <use x="480.611328" xlink:href="#DejaVuSans-112"/>
    <use x="544.087891" xlink:href="#DejaVuSans-108"/>
    <use x="571.871094" xlink:href="#DejaVuSans-111"/>
    <use x="633.052734" xlink:href="#DejaVuSans-116"/>
   </g>
  </g>
 </g>
 <defs>
  <clipPath id="pdc62d07f46">
   <rect height="476.2296" width="619.038" x="122.13" y="74.2176"/>
  </clipPath>
 </defs>
</svg>
