<?xml version="1.0" encoding="utf-8" standalone="no"?>
<!DOCTYPE svg PUBLIC "-//W3C//DTD SVG 1.1//EN"
  "http://www.w3.org/Graphics/SVG/1.1/DTD/svg11.dtd">
<!-- Created with matplotlib (https://matplotlib.org/) -->
<svg height="618.48pt" version="1.1" viewBox="0 0 977.04 618.48" width="977.04pt" xmlns="http://www.w3.org/2000/svg" xmlns:xlink="http://www.w3.org/1999/xlink">
 <metadata>
  <rdf:RDF xmlns:cc="http://creativecommons.org/ns#" xmlns:dc="http://purl.org/dc/elements/1.1/" xmlns:rdf="http://www.w3.org/1999/02/22-rdf-syntax-ns#">
   <cc:Work>
    <dc:type rdf:resource="http://purl.org/dc/dcmitype/StillImage"/>
    <dc:date>2023-09-19T11:40:40.052740</dc:date>
    <dc:format>image/svg+xml</dc:format>
    <dc:creator>
     <cc:Agent>
      <dc:title>Matplotlib v3.3.4, https://matplotlib.org/</dc:title>
     </cc:Agent>
    </dc:creator>
   </cc:Work>
  </rdf:RDF>
 </metadata>
 <defs>
  <style type="text/css">*{stroke-linecap:butt;stroke-linejoin:round;}</style>
 </defs>
 <g id="figure_1">
  <g id="patch_1">
   <path d="M 0 618.48 
L 977.04 618.48 
L 977.04 0 
L 0 0 
z
" style="fill:#ffffff;"/>
  </g>
  <g id="axes_1">
   <g id="patch_2">
    <path d="M 122.13 550.4472 
L 741.168 550.4472 
L 741.168 74.2176 
L 122.13 74.2176 
z
" style="fill:#e6e6e6;"/>
   </g>
   <g id="matplotlib.axis_1">
    <g id="xtick_1">
     <g id="line2d_1">
      <path clip-path="url(#paf7eaf2879)" d="M 233.171652 550.4472 
L 233.171652 74.2176 
" style="fill:none;stroke:#ffffff;stroke-linecap:round;"/>
     </g>
     <g id="line2d_2"/>
     <g id="text_1">
      <!-- 10 -->
      <g transform="translate(226.809152 561.545637)scale(0.1 -0.1)">
       <defs>
        <path d="M 12.40625 8.296875 
L 28.515625 8.296875 
L 28.515625 63.921875 
L 10.984375 60.40625 
L 10.984375 69.390625 
L 28.421875 72.90625 
L 38.28125 72.90625 
L 38.28125 8.296875 
L 54.390625 8.296875 
L 54.390625 0 
L 12.40625 0 
z
" id="DejaVuSans-49"/>
        <path d="M 31.78125 66.40625 
Q 24.171875 66.40625 20.328125 58.90625 
Q 16.5 51.421875 16.5 36.375 
Q 16.5 21.390625 20.328125 13.890625 
Q 24.171875 6.390625 31.78125 6.390625 
Q 39.453125 6.390625 43.28125 13.890625 
Q 47.125 21.390625 47.125 36.375 
Q 47.125 51.421875 43.28125 58.90625 
Q 39.453125 66.40625 31.78125 66.40625 
z
M 31.78125 74.21875 
Q 44.046875 74.21875 50.515625 64.515625 
Q 56.984375 54.828125 56.984375 36.375 
Q 56.984375 17.96875 50.515625 8.265625 
Q 44.046875 -1.421875 31.78125 -1.421875 
Q 19.53125 -1.421875 13.0625 8.265625 
Q 6.59375 17.96875 6.59375 36.375 
Q 6.59375 54.828125 13.0625 64.515625 
Q 19.53125 74.21875 31.78125 74.21875 
z
" id="DejaVuSans-48"/>
       </defs>
       <use xlink:href="#DejaVuSans-49"/>
       <use x="63.623047" xlink:href="#DejaVuSans-48"/>
      </g>
     </g>
    </g>
    <g id="xtick_2">
     <g id="line2d_3">
      <path clip-path="url(#paf7eaf2879)" d="M 360.170739 550.4472 
L 360.170739 74.2176 
" style="fill:none;stroke:#ffffff;stroke-linecap:round;"/>
     </g>
     <g id="line2d_4"/>
     <g id="text_2">
      <!-- 20 -->
      <g transform="translate(353.808239 561.545637)scale(0.1 -0.1)">
       <defs>
        <path d="M 19.1875 8.296875 
L 53.609375 8.296875 
L 53.609375 0 
L 7.328125 0 
L 7.328125 8.296875 
Q 12.9375 14.109375 22.625 23.890625 
Q 32.328125 33.6875 34.8125 36.53125 
Q 39.546875 41.84375 41.421875 45.53125 
Q 43.3125 49.21875 43.3125 52.78125 
Q 43.3125 58.59375 39.234375 62.25 
Q 35.15625 65.921875 28.609375 65.921875 
Q 23.96875 65.921875 18.8125 64.3125 
Q 13.671875 62.703125 7.8125 59.421875 
L 7.8125 69.390625 
Q 13.765625 71.78125 18.9375 73 
Q 24.125 74.21875 28.421875 74.21875 
Q 39.75 74.21875 46.484375 68.546875 
Q 53.21875 62.890625 53.21875 53.421875 
Q 53.21875 48.921875 51.53125 44.890625 
Q 49.859375 40.875 45.40625 35.40625 
Q 44.1875 33.984375 37.640625 27.21875 
Q 31.109375 20.453125 19.1875 8.296875 
z
" id="DejaVuSans-50"/>
       </defs>
       <use xlink:href="#DejaVuSans-50"/>
       <use x="63.623047" xlink:href="#DejaVuSans-48"/>
      </g>
     </g>
    </g>
    <g id="xtick_3">
     <g id="line2d_5">
      <path clip-path="url(#paf7eaf2879)" d="M 487.169826 550.4472 
L 487.169826 74.2176 
" style="fill:none;stroke:#ffffff;stroke-linecap:round;"/>
     </g>
     <g id="line2d_6"/>
     <g id="text_3">
      <!-- 30 -->
      <g transform="translate(480.807326 561.545637)scale(0.1 -0.1)">
       <defs>
        <path d="M 40.578125 39.3125 
Q 47.65625 37.796875 51.625 33 
Q 55.609375 28.21875 55.609375 21.1875 
Q 55.609375 10.40625 48.1875 4.484375 
Q 40.765625 -1.421875 27.09375 -1.421875 
Q 22.515625 -1.421875 17.65625 -0.515625 
Q 12.796875 0.390625 7.625 2.203125 
L 7.625 11.71875 
Q 11.71875 9.328125 16.59375 8.109375 
Q 21.484375 6.890625 26.8125 6.890625 
Q 36.078125 6.890625 40.9375 10.546875 
Q 45.796875 14.203125 45.796875 21.1875 
Q 45.796875 27.640625 41.28125 31.265625 
Q 36.765625 34.90625 28.71875 34.90625 
L 20.21875 34.90625 
L 20.21875 43.015625 
L 29.109375 43.015625 
Q 36.375 43.015625 40.234375 45.921875 
Q 44.09375 48.828125 44.09375 54.296875 
Q 44.09375 59.90625 40.109375 62.90625 
Q 36.140625 65.921875 28.71875 65.921875 
Q 24.65625 65.921875 20.015625 65.03125 
Q 15.375 64.15625 9.8125 62.3125 
L 9.8125 71.09375 
Q 15.4375 72.65625 20.34375 73.4375 
Q 25.25 74.21875 29.59375 74.21875 
Q 40.828125 74.21875 47.359375 69.109375 
Q 53.90625 64.015625 53.90625 55.328125 
Q 53.90625 49.265625 50.4375 45.09375 
Q 46.96875 40.921875 40.578125 39.3125 
z
" id="DejaVuSans-51"/>
       </defs>
       <use xlink:href="#DejaVuSans-51"/>
       <use x="63.623047" xlink:href="#DejaVuSans-48"/>
      </g>
     </g>
    </g>
    <g id="xtick_4">
     <g id="line2d_7">
      <path clip-path="url(#paf7eaf2879)" d="M 614.168913 550.4472 
L 614.168913 74.2176 
" style="fill:none;stroke:#ffffff;stroke-linecap:round;"/>
     </g>
     <g id="line2d_8"/>
     <g id="text_4">
      <!-- 40 -->
      <g transform="translate(607.806413 561.545637)scale(0.1 -0.1)">
       <defs>
        <path d="M 37.796875 64.3125 
L 12.890625 25.390625 
L 37.796875 25.390625 
z
M 35.203125 72.90625 
L 47.609375 72.90625 
L 47.609375 25.390625 
L 58.015625 25.390625 
L 58.015625 17.1875 
L 47.609375 17.1875 
L 47.609375 0 
L 37.796875 0 
L 37.796875 17.1875 
L 4.890625 17.1875 
L 4.890625 26.703125 
z
" id="DejaVuSans-52"/>
       </defs>
       <use xlink:href="#DejaVuSans-52"/>
       <use x="63.623047" xlink:href="#DejaVuSans-48"/>
      </g>
     </g>
    </g>
    <g id="xtick_5">
     <g id="line2d_9">
      <path clip-path="url(#paf7eaf2879)" d="M 741.168 550.4472 
L 741.168 74.2176 
" style="fill:none;stroke:#ffffff;stroke-linecap:round;"/>
     </g>
     <g id="line2d_10"/>
     <g id="text_5">
      <!-- 50 -->
      <g transform="translate(734.8055 561.545637)scale(0.1 -0.1)">
       <defs>
        <path d="M 10.796875 72.90625 
L 49.515625 72.90625 
L 49.515625 64.59375 
L 19.828125 64.59375 
L 19.828125 46.734375 
Q 21.96875 47.46875 24.109375 47.828125 
Q 26.265625 48.1875 28.421875 48.1875 
Q 40.625 48.1875 47.75 41.5 
Q 54.890625 34.8125 54.890625 23.390625 
Q 54.890625 11.625 47.5625 5.09375 
Q 40.234375 -1.421875 26.90625 -1.421875 
Q 22.3125 -1.421875 17.546875 -0.640625 
Q 12.796875 0.140625 7.71875 1.703125 
L 7.71875 11.625 
Q 12.109375 9.234375 16.796875 8.0625 
Q 21.484375 6.890625 26.703125 6.890625 
Q 35.15625 6.890625 40.078125 11.328125 
Q 45.015625 15.765625 45.015625 23.390625 
Q 45.015625 31 40.078125 35.4375 
Q 35.15625 39.890625 26.703125 39.890625 
Q 22.75 39.890625 18.8125 39.015625 
Q 14.890625 38.140625 10.796875 36.28125 
z
" id="DejaVuSans-53"/>
       </defs>
       <use xlink:href="#DejaVuSans-53"/>
       <use x="63.623047" xlink:href="#DejaVuSans-48"/>
      </g>
     </g>
    </g>
    <g id="xtick_6">
     <g id="line2d_11"/>
    </g>
    <g id="xtick_7">
     <g id="line2d_12"/>
    </g>
    <g id="xtick_8">
     <g id="line2d_13"/>
    </g>
    <g id="xtick_9">
     <g id="line2d_14"/>
    </g>
    <g id="xtick_10">
     <g id="line2d_15"/>
    </g>
    <g id="xtick_11">
     <g id="line2d_16"/>
    </g>
    <g id="xtick_12">
     <g id="line2d_17"/>
    </g>
    <g id="xtick_13">
     <g id="line2d_18"/>
    </g>
    <g id="xtick_14">
     <g id="line2d_19"/>
    </g>
    <g id="xtick_15">
     <g id="line2d_20"/>
    </g>
    <g id="xtick_16">
     <g id="line2d_21"/>
    </g>
    <g id="xtick_17">
     <g id="line2d_22"/>
    </g>
    <g id="xtick_18">
     <g id="line2d_23"/>
    </g>
    <g id="xtick_19">
     <g id="line2d_24"/>
    </g>
    <g id="xtick_20">
     <g id="line2d_25"/>
    </g>
    <g id="xtick_21">
     <g id="line2d_26"/>
    </g>
    <g id="xtick_22">
     <g id="line2d_27"/>
    </g>
    <g id="xtick_23">
     <g id="line2d_28"/>
    </g>
    <g id="xtick_24">
     <g id="line2d_29"/>
    </g>
    <g id="xtick_25">
     <g id="line2d_30"/>
    </g>
    <g id="text_6">
     <!-- ms -->
     <g transform="translate(424.174 575.223763)scale(0.1 -0.1)">
      <defs>
       <path d="M 52 44.1875 
Q 55.375 50.25 60.0625 53.125 
Q 64.75 56 71.09375 56 
Q 79.640625 56 84.28125 50.015625 
Q 88.921875 44.046875 88.921875 33.015625 
L 88.921875 0 
L 79.890625 0 
L 79.890625 32.71875 
Q 79.890625 40.578125 77.09375 44.375 
Q 74.3125 48.1875 68.609375 48.1875 
Q 61.625 48.1875 57.5625 43.546875 
Q 53.515625 38.921875 53.515625 30.90625 
L 53.515625 0 
L 44.484375 0 
L 44.484375 32.71875 
Q 44.484375 40.625 41.703125 44.40625 
Q 38.921875 48.1875 33.109375 48.1875 
Q 26.21875 48.1875 22.15625 43.53125 
Q 18.109375 38.875 18.109375 30.90625 
L 18.109375 0 
L 9.078125 0 
L 9.078125 54.6875 
L 18.109375 54.6875 
L 18.109375 46.1875 
Q 21.1875 51.21875 25.484375 53.609375 
Q 29.78125 56 35.6875 56 
Q 41.65625 56 45.828125 52.96875 
Q 50 49.953125 52 44.1875 
z
" id="DejaVuSans-109"/>
       <path d="M 44.28125 53.078125 
L 44.28125 44.578125 
Q 40.484375 46.53125 36.375 47.5 
Q 32.28125 48.484375 27.875 48.484375 
Q 21.1875 48.484375 17.84375 46.4375 
Q 14.5 44.390625 14.5 40.28125 
Q 14.5 37.15625 16.890625 35.375 
Q 19.28125 33.59375 26.515625 31.984375 
L 29.59375 31.296875 
Q 39.15625 29.25 43.1875 25.515625 
Q 47.21875 21.78125 47.21875 15.09375 
Q 47.21875 7.46875 41.1875 3.015625 
Q 35.15625 -1.421875 24.609375 -1.421875 
Q 20.21875 -1.421875 15.453125 -0.5625 
Q 10.6875 0.296875 5.421875 2 
L 5.421875 11.28125 
Q 10.40625 8.6875 15.234375 7.390625 
Q 20.0625 6.109375 24.8125 6.109375 
Q 31.15625 6.109375 34.5625 8.28125 
Q 37.984375 10.453125 37.984375 14.40625 
Q 37.984375 18.0625 35.515625 20.015625 
Q 33.0625 21.96875 24.703125 23.78125 
L 21.578125 24.515625 
Q 13.234375 26.265625 9.515625 29.90625 
Q 5.8125 33.546875 5.8125 39.890625 
Q 5.8125 47.609375 11.28125 51.796875 
Q 16.75 56 26.8125 56 
Q 31.78125 56 36.171875 55.265625 
Q 40.578125 54.546875 44.28125 53.078125 
z
" id="DejaVuSans-115"/>
      </defs>
      <use xlink:href="#DejaVuSans-109"/>
      <use x="97.412109" xlink:href="#DejaVuSans-115"/>
     </g>
    </g>
   </g>
   <g id="matplotlib.axis_2">
    <g id="ytick_1">
     <g id="line2d_31">
      <path clip-path="url(#paf7eaf2879)" d="M 122.13 550.4472 
L 741.168 550.4472 
" style="fill:none;stroke:#ffffff;stroke-linecap:round;"/>
     </g>
     <g id="line2d_32"/>
     <g id="text_7">
      <!-- 0.0 -->
      <g transform="translate(102.726875 554.246419)scale(0.1 -0.1)">
       <defs>
        <path d="M 10.6875 12.40625 
L 21 12.40625 
L 21 0 
L 10.6875 0 
z
" id="DejaVuSans-46"/>
       </defs>
       <use xlink:href="#DejaVuSans-48"/>
       <use x="63.623047" xlink:href="#DejaVuSans-46"/>
       <use x="95.410156" xlink:href="#DejaVuSans-48"/>
      </g>
     </g>
    </g>
    <g id="ytick_2">
     <g id="line2d_33">
      <path clip-path="url(#paf7eaf2879)" d="M 122.13 455.20128 
L 741.168 455.20128 
" style="fill:none;stroke:#ffffff;stroke-linecap:round;"/>
     </g>
     <g id="line2d_34"/>
     <g id="text_8">
      <!-- 0.2 -->
      <g transform="translate(102.726875 459.000499)scale(0.1 -0.1)">
       <use xlink:href="#DejaVuSans-48"/>
       <use x="63.623047" xlink:href="#DejaVuSans-46"/>
       <use x="95.410156" xlink:href="#DejaVuSans-50"/>
      </g>
     </g>
    </g>
    <g id="ytick_3">
     <g id="line2d_35">
      <path clip-path="url(#paf7eaf2879)" d="M 122.13 359.95536 
L 741.168 359.95536 
" style="fill:none;stroke:#ffffff;stroke-linecap:round;"/>
     </g>
     <g id="line2d_36"/>
     <g id="text_9">
      <!-- 0.4 -->
      <g transform="translate(102.726875 363.754579)scale(0.1 -0.1)">
       <use xlink:href="#DejaVuSans-48"/>
       <use x="63.623047" xlink:href="#DejaVuSans-46"/>
       <use x="95.410156" xlink:href="#DejaVuSans-52"/>
      </g>
     </g>
    </g>
    <g id="ytick_4">
     <g id="line2d_37">
      <path clip-path="url(#paf7eaf2879)" d="M 122.13 264.70944 
L 741.168 264.70944 
" style="fill:none;stroke:#ffffff;stroke-linecap:round;"/>
     </g>
     <g id="line2d_38"/>
     <g id="text_10">
      <!-- 0.6 -->
      <g transform="translate(102.726875 268.508659)scale(0.1 -0.1)">
       <defs>
        <path d="M 33.015625 40.375 
Q 26.375 40.375 22.484375 35.828125 
Q 18.609375 31.296875 18.609375 23.390625 
Q 18.609375 15.53125 22.484375 10.953125 
Q 26.375 6.390625 33.015625 6.390625 
Q 39.65625 6.390625 43.53125 10.953125 
Q 47.40625 15.53125 47.40625 23.390625 
Q 47.40625 31.296875 43.53125 35.828125 
Q 39.65625 40.375 33.015625 40.375 
z
M 52.59375 71.296875 
L 52.59375 62.3125 
Q 48.875 64.0625 45.09375 64.984375 
Q 41.3125 65.921875 37.59375 65.921875 
Q 27.828125 65.921875 22.671875 59.328125 
Q 17.53125 52.734375 16.796875 39.40625 
Q 19.671875 43.65625 24.015625 45.921875 
Q 28.375 48.1875 33.59375 48.1875 
Q 44.578125 48.1875 50.953125 41.515625 
Q 57.328125 34.859375 57.328125 23.390625 
Q 57.328125 12.15625 50.6875 5.359375 
Q 44.046875 -1.421875 33.015625 -1.421875 
Q 20.359375 -1.421875 13.671875 8.265625 
Q 6.984375 17.96875 6.984375 36.375 
Q 6.984375 53.65625 15.1875 63.9375 
Q 23.390625 74.21875 37.203125 74.21875 
Q 40.921875 74.21875 44.703125 73.484375 
Q 48.484375 72.75 52.59375 71.296875 
z
" id="DejaVuSans-54"/>
       </defs>
       <use xlink:href="#DejaVuSans-48"/>
       <use x="63.623047" xlink:href="#DejaVuSans-46"/>
       <use x="95.410156" xlink:href="#DejaVuSans-54"/>
      </g>
     </g>
    </g>
    <g id="ytick_5">
     <g id="line2d_39">
      <path clip-path="url(#paf7eaf2879)" d="M 122.13 169.46352 
L 741.168 169.46352 
" style="fill:none;stroke:#ffffff;stroke-linecap:round;"/>
     </g>
     <g id="line2d_40"/>
     <g id="text_11">
      <!-- 0.8 -->
      <g transform="translate(102.726875 173.262739)scale(0.1 -0.1)">
       <defs>
        <path d="M 31.78125 34.625 
Q 24.75 34.625 20.71875 30.859375 
Q 16.703125 27.09375 16.703125 20.515625 
Q 16.703125 13.921875 20.71875 10.15625 
Q 24.75 6.390625 31.78125 6.390625 
Q 38.8125 6.390625 42.859375 10.171875 
Q 46.921875 13.96875 46.921875 20.515625 
Q 46.921875 27.09375 42.890625 30.859375 
Q 38.875 34.625 31.78125 34.625 
z
M 21.921875 38.8125 
Q 15.578125 40.375 12.03125 44.71875 
Q 8.5 49.078125 8.5 55.328125 
Q 8.5 64.0625 14.71875 69.140625 
Q 20.953125 74.21875 31.78125 74.21875 
Q 42.671875 74.21875 48.875 69.140625 
Q 55.078125 64.0625 55.078125 55.328125 
Q 55.078125 49.078125 51.53125 44.71875 
Q 48 40.375 41.703125 38.8125 
Q 48.828125 37.15625 52.796875 32.3125 
Q 56.78125 27.484375 56.78125 20.515625 
Q 56.78125 9.90625 50.3125 4.234375 
Q 43.84375 -1.421875 31.78125 -1.421875 
Q 19.734375 -1.421875 13.25 4.234375 
Q 6.78125 9.90625 6.78125 20.515625 
Q 6.78125 27.484375 10.78125 32.3125 
Q 14.796875 37.15625 21.921875 38.8125 
z
M 18.3125 54.390625 
Q 18.3125 48.734375 21.84375 45.5625 
Q 25.390625 42.390625 31.78125 42.390625 
Q 38.140625 42.390625 41.71875 45.5625 
Q 45.3125 48.734375 45.3125 54.390625 
Q 45.3125 60.0625 41.71875 63.234375 
Q 38.140625 66.40625 31.78125 66.40625 
Q 25.390625 66.40625 21.84375 63.234375 
Q 18.3125 60.0625 18.3125 54.390625 
z
" id="DejaVuSans-56"/>
       </defs>
       <use xlink:href="#DejaVuSans-48"/>
       <use x="63.623047" xlink:href="#DejaVuSans-46"/>
       <use x="95.410156" xlink:href="#DejaVuSans-56"/>
      </g>
     </g>
    </g>
    <g id="ytick_6">
     <g id="line2d_41">
      <path clip-path="url(#paf7eaf2879)" d="M 122.13 74.2176 
L 741.168 74.2176 
" style="fill:none;stroke:#ffffff;stroke-linecap:round;"/>
     </g>
     <g id="line2d_42"/>
     <g id="text_12">
      <!-- 1.0 -->
      <g transform="translate(102.726875 78.016819)scale(0.1 -0.1)">
       <use xlink:href="#DejaVuSans-49"/>
       <use x="63.623047" xlink:href="#DejaVuSans-46"/>
       <use x="95.410156" xlink:href="#DejaVuSans-48"/>
      </g>
     </g>
    </g>
    <g id="ytick_7">
     <g id="line2d_43"/>
    </g>
    <g id="ytick_8">
     <g id="line2d_44"/>
    </g>
    <g id="ytick_9">
     <g id="line2d_45"/>
    </g>
    <g id="ytick_10">
     <g id="line2d_46"/>
    </g>
    <g id="ytick_11">
     <g id="line2d_47"/>
    </g>
    <g id="ytick_12">
     <g id="line2d_48"/>
    </g>
    <g id="ytick_13">
     <g id="line2d_49"/>
    </g>
    <g id="ytick_14">
     <g id="line2d_50"/>
    </g>
    <g id="ytick_15">
     <g id="line2d_51"/>
    </g>
    <g id="ytick_16">
     <g id="line2d_52"/>
    </g>
    <g id="ytick_17">
     <g id="line2d_53"/>
    </g>
    <g id="ytick_18">
     <g id="line2d_54"/>
    </g>
    <g id="ytick_19">
     <g id="line2d_55"/>
    </g>
    <g id="ytick_20">
     <g id="line2d_56"/>
    </g>
    <g id="ytick_21">
     <g id="line2d_57"/>
    </g>
    <g id="text_13">
     <!-- Cumulative probability -->
     <g transform="translate(96.647187 369.134744)rotate(-90)scale(0.1 -0.1)">
      <defs>
       <path d="M 64.40625 67.28125 
L 64.40625 56.890625 
Q 59.421875 61.53125 53.78125 63.8125 
Q 48.140625 66.109375 41.796875 66.109375 
Q 29.296875 66.109375 22.65625 58.46875 
Q 16.015625 50.828125 16.015625 36.375 
Q 16.015625 21.96875 22.65625 14.328125 
Q 29.296875 6.6875 41.796875 6.6875 
Q 48.140625 6.6875 53.78125 8.984375 
Q 59.421875 11.28125 64.40625 15.921875 
L 64.40625 5.609375 
Q 59.234375 2.09375 53.4375 0.328125 
Q 47.65625 -1.421875 41.21875 -1.421875 
Q 24.65625 -1.421875 15.125 8.703125 
Q 5.609375 18.84375 5.609375 36.375 
Q 5.609375 53.953125 15.125 64.078125 
Q 24.65625 74.21875 41.21875 74.21875 
Q 47.75 74.21875 53.53125 72.484375 
Q 59.328125 70.75 64.40625 67.28125 
z
" id="DejaVuSans-67"/>
       <path d="M 8.5 21.578125 
L 8.5 54.6875 
L 17.484375 54.6875 
L 17.484375 21.921875 
Q 17.484375 14.15625 20.5 10.265625 
Q 23.53125 6.390625 29.59375 6.390625 
Q 36.859375 6.390625 41.078125 11.03125 
Q 45.3125 15.671875 45.3125 23.6875 
L 45.3125 54.6875 
L 54.296875 54.6875 
L 54.296875 0 
L 45.3125 0 
L 45.3125 8.40625 
Q 42.046875 3.421875 37.71875 1 
Q 33.40625 -1.421875 27.6875 -1.421875 
Q 18.265625 -1.421875 13.375 4.4375 
Q 8.5 10.296875 8.5 21.578125 
z
M 31.109375 56 
z
" id="DejaVuSans-117"/>
       <path d="M 9.421875 75.984375 
L 18.40625 75.984375 
L 18.40625 0 
L 9.421875 0 
z
" id="DejaVuSans-108"/>
       <path d="M 34.28125 27.484375 
Q 23.390625 27.484375 19.1875 25 
Q 14.984375 22.515625 14.984375 16.5 
Q 14.984375 11.71875 18.140625 8.90625 
Q 21.296875 6.109375 26.703125 6.109375 
Q 34.1875 6.109375 38.703125 11.40625 
Q 43.21875 16.703125 43.21875 25.484375 
L 43.21875 27.484375 
z
M 52.203125 31.203125 
L 52.203125 0 
L 43.21875 0 
L 43.21875 8.296875 
Q 40.140625 3.328125 35.546875 0.953125 
Q 30.953125 -1.421875 24.3125 -1.421875 
Q 15.921875 -1.421875 10.953125 3.296875 
Q 6 8.015625 6 15.921875 
Q 6 25.140625 12.171875 29.828125 
Q 18.359375 34.515625 30.609375 34.515625 
L 43.21875 34.515625 
L 43.21875 35.40625 
Q 43.21875 41.609375 39.140625 45 
Q 35.0625 48.390625 27.6875 48.390625 
Q 23 48.390625 18.546875 47.265625 
Q 14.109375 46.140625 10.015625 43.890625 
L 10.015625 52.203125 
Q 14.9375 54.109375 19.578125 55.046875 
Q 24.21875 56 28.609375 56 
Q 40.484375 56 46.34375 49.84375 
Q 52.203125 43.703125 52.203125 31.203125 
z
" id="DejaVuSans-97"/>
       <path d="M 18.3125 70.21875 
L 18.3125 54.6875 
L 36.8125 54.6875 
L 36.8125 47.703125 
L 18.3125 47.703125 
L 18.3125 18.015625 
Q 18.3125 11.328125 20.140625 9.421875 
Q 21.96875 7.515625 27.59375 7.515625 
L 36.8125 7.515625 
L 36.8125 0 
L 27.59375 0 
Q 17.1875 0 13.234375 3.875 
Q 9.28125 7.765625 9.28125 18.015625 
L 9.28125 47.703125 
L 2.6875 47.703125 
L 2.6875 54.6875 
L 9.28125 54.6875 
L 9.28125 70.21875 
z
" id="DejaVuSans-116"/>
       <path d="M 9.421875 54.6875 
L 18.40625 54.6875 
L 18.40625 0 
L 9.421875 0 
z
M 9.421875 75.984375 
L 18.40625 75.984375 
L 18.40625 64.59375 
L 9.421875 64.59375 
z
" id="DejaVuSans-105"/>
       <path d="M 2.984375 54.6875 
L 12.5 54.6875 
L 29.59375 8.796875 
L 46.6875 54.6875 
L 56.203125 54.6875 
L 35.6875 0 
L 23.484375 0 
z
" id="DejaVuSans-118"/>
       <path d="M 56.203125 29.59375 
L 56.203125 25.203125 
L 14.890625 25.203125 
Q 15.484375 15.921875 20.484375 11.0625 
Q 25.484375 6.203125 34.421875 6.203125 
Q 39.59375 6.203125 44.453125 7.46875 
Q 49.3125 8.734375 54.109375 11.28125 
L 54.109375 2.78125 
Q 49.265625 0.734375 44.1875 -0.34375 
Q 39.109375 -1.421875 33.890625 -1.421875 
Q 20.796875 -1.421875 13.15625 6.1875 
Q 5.515625 13.8125 5.515625 26.8125 
Q 5.515625 40.234375 12.765625 48.109375 
Q 20.015625 56 32.328125 56 
Q 43.359375 56 49.78125 48.890625 
Q 56.203125 41.796875 56.203125 29.59375 
z
M 47.21875 32.234375 
Q 47.125 39.59375 43.09375 43.984375 
Q 39.0625 48.390625 32.421875 48.390625 
Q 24.90625 48.390625 20.390625 44.140625 
Q 15.875 39.890625 15.1875 32.171875 
z
" id="DejaVuSans-101"/>
       <path id="DejaVuSans-32"/>
       <path d="M 18.109375 8.203125 
L 18.109375 -20.796875 
L 9.078125 -20.796875 
L 9.078125 54.6875 
L 18.109375 54.6875 
L 18.109375 46.390625 
Q 20.953125 51.265625 25.265625 53.625 
Q 29.59375 56 35.59375 56 
Q 45.5625 56 51.78125 48.09375 
Q 58.015625 40.1875 58.015625 27.296875 
Q 58.015625 14.40625 51.78125 6.484375 
Q 45.5625 -1.421875 35.59375 -1.421875 
Q 29.59375 -1.421875 25.265625 0.953125 
Q 20.953125 3.328125 18.109375 8.203125 
z
M 48.6875 27.296875 
Q 48.6875 37.203125 44.609375 42.84375 
Q 40.53125 48.484375 33.40625 48.484375 
Q 26.265625 48.484375 22.1875 42.84375 
Q 18.109375 37.203125 18.109375 27.296875 
Q 18.109375 17.390625 22.1875 11.75 
Q 26.265625 6.109375 33.40625 6.109375 
Q 40.53125 6.109375 44.609375 11.75 
Q 48.6875 17.390625 48.6875 27.296875 
z
" id="DejaVuSans-112"/>
       <path d="M 41.109375 46.296875 
Q 39.59375 47.171875 37.8125 47.578125 
Q 36.03125 48 33.890625 48 
Q 26.265625 48 22.1875 43.046875 
Q 18.109375 38.09375 18.109375 28.8125 
L 18.109375 0 
L 9.078125 0 
L 9.078125 54.6875 
L 18.109375 54.6875 
L 18.109375 46.1875 
Q 20.953125 51.171875 25.484375 53.578125 
Q 30.03125 56 36.53125 56 
Q 37.453125 56 38.578125 55.875 
Q 39.703125 55.765625 41.0625 55.515625 
z
" id="DejaVuSans-114"/>
       <path d="M 30.609375 48.390625 
Q 23.390625 48.390625 19.1875 42.75 
Q 14.984375 37.109375 14.984375 27.296875 
Q 14.984375 17.484375 19.15625 11.84375 
Q 23.34375 6.203125 30.609375 6.203125 
Q 37.796875 6.203125 41.984375 11.859375 
Q 46.1875 17.53125 46.1875 27.296875 
Q 46.1875 37.015625 41.984375 42.703125 
Q 37.796875 48.390625 30.609375 48.390625 
z
M 30.609375 56 
Q 42.328125 56 49.015625 48.375 
Q 55.71875 40.765625 55.71875 27.296875 
Q 55.71875 13.875 49.015625 6.21875 
Q 42.328125 -1.421875 30.609375 -1.421875 
Q 18.84375 -1.421875 12.171875 6.21875 
Q 5.515625 13.875 5.515625 27.296875 
Q 5.515625 40.765625 12.171875 48.375 
Q 18.84375 56 30.609375 56 
z
" id="DejaVuSans-111"/>
       <path d="M 48.6875 27.296875 
Q 48.6875 37.203125 44.609375 42.84375 
Q 40.53125 48.484375 33.40625 48.484375 
Q 26.265625 48.484375 22.1875 42.84375 
Q 18.109375 37.203125 18.109375 27.296875 
Q 18.109375 17.390625 22.1875 11.75 
Q 26.265625 6.109375 33.40625 6.109375 
Q 40.53125 6.109375 44.609375 11.75 
Q 48.6875 17.390625 48.6875 27.296875 
z
M 18.109375 46.390625 
Q 20.953125 51.265625 25.265625 53.625 
Q 29.59375 56 35.59375 56 
Q 45.5625 56 51.78125 48.09375 
Q 58.015625 40.1875 58.015625 27.296875 
Q 58.015625 14.40625 51.78125 6.484375 
Q 45.5625 -1.421875 35.59375 -1.421875 
Q 29.59375 -1.421875 25.265625 0.953125 
Q 20.953125 3.328125 18.109375 8.203125 
L 18.109375 0 
L 9.078125 0 
L 9.078125 75.984375 
L 18.109375 75.984375 
z
" id="DejaVuSans-98"/>
       <path d="M 32.171875 -5.078125 
Q 28.375 -14.84375 24.75 -17.8125 
Q 21.140625 -20.796875 15.09375 -20.796875 
L 7.90625 -20.796875 
L 7.90625 -13.28125 
L 13.1875 -13.28125 
Q 16.890625 -13.28125 18.9375 -11.515625 
Q 21 -9.765625 23.484375 -3.21875 
L 25.09375 0.875 
L 2.984375 54.6875 
L 12.5 54.6875 
L 29.59375 11.921875 
L 46.6875 54.6875 
L 56.203125 54.6875 
z
" id="DejaVuSans-121"/>
      </defs>
      <use xlink:href="#DejaVuSans-67"/>
      <use x="69.824219" xlink:href="#DejaVuSans-117"/>
      <use x="133.203125" xlink:href="#DejaVuSans-109"/>
      <use x="230.615234" xlink:href="#DejaVuSans-117"/>
      <use x="293.994141" xlink:href="#DejaVuSans-108"/>
      <use x="321.777344" xlink:href="#DejaVuSans-97"/>
      <use x="383.056641" xlink:href="#DejaVuSans-116"/>
      <use x="422.265625" xlink:href="#DejaVuSans-105"/>
      <use x="450.048828" xlink:href="#DejaVuSans-118"/>
      <use x="509.228516" xlink:href="#DejaVuSans-101"/>
      <use x="570.751953" xlink:href="#DejaVuSans-32"/>
      <use x="602.539062" xlink:href="#DejaVuSans-112"/>
      <use x="666.015625" xlink:href="#DejaVuSans-114"/>
      <use x="704.878906" xlink:href="#DejaVuSans-111"/>
      <use x="766.060547" xlink:href="#DejaVuSans-98"/>
      <use x="829.537109" xlink:href="#DejaVuSans-97"/>
      <use x="890.816406" xlink:href="#DejaVuSans-98"/>
      <use x="954.292969" xlink:href="#DejaVuSans-105"/>
      <use x="982.076172" xlink:href="#DejaVuSans-108"/>
      <use x="1009.859375" xlink:href="#DejaVuSans-105"/>
      <use x="1037.642578" xlink:href="#DejaVuSans-116"/>
      <use x="1076.851562" xlink:href="#DejaVuSans-121"/>
     </g>
    </g>
   </g>
   <g id="line2d_58">
    <path clip-path="url(#paf7eaf2879)" d="M 142.113306 548.859768 
L 147.828265 547.272336 
L 149.606252 545.684904 
L 156.210205 544.097472 
L 158.750187 542.51004 
L 159.258183 540.922608 
L 164.846143 539.335176 
L 165.22714 537.747744 
L 167.640123 536.160312 
L 171.323096 534.57288 
L 172.720086 532.985448 
L 173.101084 531.398016 
L 173.990077 529.810584 
L 178.054048 528.223152 
L 179.451038 526.63572 
L 183.134011 525.048288 
L 187.57898 521.873424 
L 188.086976 520.285992 
L 189.102969 518.69856 
L 189.356967 517.111128 
L 190.118961 515.523696 
L 190.499959 513.936264 
L 191.134954 512.348832 
L 191.261953 510.7614 
L 191.261953 509.173968 
L 192.658943 507.586536 
L 195.198925 505.999104 
L 197.23091 504.411672 
L 197.611907 502.82424 
L 199.008897 501.236808 
L 199.262896 499.649376 
L 199.389895 498.061944 
L 199.770892 496.474512 
L 200.02489 493.299648 
L 200.405887 491.712216 
L 200.913884 490.124784 
L 203.072868 488.537352 
L 203.072868 486.94992 
L 206.247845 483.775056 
L 206.755842 482.187624 
L 207.898833 480.600192 
L 208.533829 479.01276 
L 209.041825 477.425328 
L 210.819812 475.837896 
L 211.708806 474.250464 
L 211.835805 472.663032 
L 212.5978 471.0756 
L 212.724799 469.488168 
L 213.486793 467.900736 
L 213.740791 466.313304 
L 215.010782 464.725872 
L 215.137781 463.13844 
L 215.772777 461.551008 
L 216.153774 459.963576 
L 216.407772 458.376144 
L 217.423765 456.788712 
L 217.550764 455.20128 
L 220.090746 453.613848 
L 220.344744 452.026416 
L 222.503728 450.438984 
L 223.265723 448.851552 
L 223.773719 447.26412 
L 223.773719 445.676688 
L 224.662713 444.089256 
L 224.916711 440.914392 
L 225.805705 439.32696 
L 227.83769 437.739528 
L 228.091688 436.152096 
L 228.218687 434.564664 
L 228.726684 432.977232 
L 228.853683 431.3898 
L 228.853683 429.802368 
L 230.123674 428.214936 
L 232.282658 426.627504 
L 232.790655 425.040072 
L 233.171652 423.45264 
L 235.711634 420.277776 
L 235.711634 417.102912 
L 236.981624 415.51548 
L 236.981624 412.340616 
L 239.521606 409.165752 
L 239.521606 405.990888 
L 240.791597 404.403456 
L 240.791597 402.816024 
L 243.331579 399.64116 
L 243.331579 388.529136 
L 244.60157 386.941704 
L 244.60157 382.179408 
L 245.87156 380.591976 
L 245.87156 379.004544 
L 247.141551 377.417112 
L 247.141551 374.242248 
L 248.411542 372.654816 
L 248.411542 371.067384 
L 249.681533 369.479952 
L 249.681533 367.89252 
L 250.951524 366.305088 
L 250.951524 364.717656 
L 253.491506 361.542792 
L 253.491506 358.367928 
L 256.031487 355.193064 
L 256.031487 350.430768 
L 259.84146 345.668472 
L 259.84146 336.14388 
L 261.111451 334.556448 
L 261.111451 332.969016 
L 263.651433 329.794152 
L 263.651433 328.20672 
L 266.191414 325.031856 
L 266.191414 321.856992 
L 271.271378 315.507264 
L 271.271378 312.3324 
L 272.541369 310.744968 
L 272.541369 309.157536 
L 273.81136 307.570104 
L 273.81136 304.39524 
L 275.08135 302.807808 
L 275.08135 299.632944 
L 276.351341 298.045512 
L 280.161314 296.45808 
L 280.161314 294.870648 
L 281.431305 293.283216 
L 281.431305 291.695784 
L 282.701296 290.108352 
L 282.701296 288.52092 
L 283.971287 286.933488 
L 283.971287 285.346056 
L 286.511268 282.171192 
L 286.511268 280.58376 
L 290.321241 275.821464 
L 290.321241 272.6466 
L 291.591232 271.059168 
L 291.591232 269.471736 
L 292.861223 267.884304 
L 292.861223 266.296872 
L 295.401204 263.122008 
L 295.401204 259.947144 
L 296.671195 258.359712 
L 296.671195 256.77228 
L 299.211177 255.184848 
L 299.211177 248.83512 
L 301.751159 245.660256 
L 301.751159 240.89796 
L 303.02115 239.310528 
L 303.02115 237.723096 
L 305.561131 236.135664 
L 305.561131 234.548232 
L 308.101113 231.373368 
L 308.101113 228.198504 
L 313.181077 226.611072 
L 315.721058 225.02364 
L 315.721058 223.436208 
L 318.26104 220.261344 
L 322.071013 218.673912 
L 323.341004 217.08648 
L 323.341004 215.499048 
L 324.610994 213.911616 
L 324.610994 209.14932 
L 325.880985 207.561888 
L 325.880985 204.387024 
L 332.23094 196.449864 
L 332.23094 194.862432 
L 333.500931 193.275 
L 333.500931 191.687568 
L 334.770921 190.100136 
L 334.770921 186.925272 
L 337.310903 185.33784 
L 337.310903 183.750408 
L 339.850885 182.162976 
L 341.120876 180.575544 
L 341.120876 178.988112 
L 343.660858 175.813248 
L 343.660858 174.225816 
L 347.47083 172.638384 
L 348.740821 171.050952 
L 351.280803 169.46352 
L 352.550794 167.876088 
L 352.550794 164.701224 
L 355.090775 161.52636 
L 357.630757 159.938928 
L 362.710721 153.5892 
L 362.710721 150.414336 
L 363.980711 148.826904 
L 366.520693 147.239472 
L 369.060675 144.064608 
L 371.600657 142.477176 
L 371.600657 140.889744 
L 375.410629 139.302312 
L 376.68062 137.71488 
L 379.220602 136.127448 
L 383.030574 134.540016 
L 385.570556 131.365152 
L 385.570556 129.77772 
L 389.380529 128.190288 
L 390.65052 126.602856 
L 390.65052 125.015424 
L 391.920511 123.427992 
L 394.460492 121.84056 
L 394.460492 120.253128 
L 395.730483 118.665696 
L 395.730483 117.078264 
L 400.810447 115.490832 
L 403.350428 112.315968 
L 410.970374 110.728536 
L 413.510355 109.141104 
L 413.510355 107.553672 
L 417.320328 105.96624 
L 417.320328 104.378808 
L 419.86031 102.791376 
L 421.130301 101.203944 
L 423.670282 99.616512 
L 424.940273 98.02908 
L 437.640182 94.854216 
L 437.640182 93.266784 
L 442.720145 91.679352 
L 452.880072 90.09192 
L 454.150063 88.504488 
L 457.960036 86.917056 
L 470.659945 85.329624 
L 489.709808 83.742192 
L 490.979798 82.15476 
L 497.329753 80.567328 
L 497.329753 78.979896 
L 504.949698 77.392464 
L 539.239452 75.805032 
L 541.779433 74.2176 
L 541.779433 74.2176 
" style="fill:none;stroke:#1b9e77;stroke-linecap:round;"/>
   </g>
   <g id="line2d_59">
    <path clip-path="url(#paf7eaf2879)" d="M 147.828265 548.854459 
L 152.146234 547.261718 
L 163.322154 544.076235 
L 163.322154 542.483494 
L 167.640123 540.890753 
L 171.069098 539.298012 
L 173.863078 537.705271 
L 175.641065 534.519789 
L 178.562044 532.927047 
L 178.943042 531.334306 
L 179.451038 529.741565 
L 181.737022 528.148824 
L 182.626015 526.556083 
L 183.261011 524.963342 
L 183.642008 523.370601 
L 184.658001 520.185118 
L 186.689986 518.592377 
L 186.816985 516.999636 
L 187.197982 515.406895 
L 188.721971 512.221413 
L 189.737964 510.628672 
L 189.864963 509.03593 
L 190.372959 505.850448 
L 191.896948 504.257707 
L 192.785942 502.664966 
L 193.547937 499.479484 
L 194.182932 497.886742 
L 194.43693 494.70126 
L 194.944927 493.108519 
L 195.071926 491.515778 
L 196.087918 489.923037 
L 198.500901 488.330296 
L 199.135896 486.737555 
L 199.389895 485.144813 
L 199.643893 481.959331 
L 200.151889 480.36659 
L 200.151889 478.773849 
L 200.405887 475.588367 
L 200.405887 473.995625 
L 200.532886 472.402884 
L 201.42188 470.810143 
L 201.802877 469.217402 
L 202.310874 467.624661 
L 203.072868 462.846437 
L 204.850855 461.253696 
L 205.104854 459.660955 
L 205.993847 458.068214 
L 206.120846 456.475473 
L 206.374844 454.882732 
L 206.882841 453.289991 
L 207.263838 451.697249 
L 208.279831 448.511767 
L 208.533829 446.919026 
L 208.914826 445.326285 
L 209.041825 443.733544 
L 209.80382 442.140803 
L 210.311816 438.95532 
L 210.692813 437.362579 
L 210.819812 435.769838 
L 211.073811 434.177097 
L 212.343801 432.584356 
L 212.724799 427.806132 
L 212.978797 426.213391 
L 213.613792 424.62065 
L 213.867791 421.435168 
L 214.121789 419.842427 
L 214.756784 418.249686 
L 214.756784 416.656944 
L 215.26478 415.064203 
L 215.518779 413.471462 
L 216.026775 411.878721 
L 216.026775 410.28598 
L 216.66177 408.693239 
L 217.931761 407.100498 
L 218.05876 405.507757 
L 219.201752 403.915015 
L 219.709749 402.322274 
L 220.598742 400.729533 
L 221.868733 399.136792 
L 221.995732 397.544051 
L 222.757727 395.95131 
L 223.011725 394.358569 
L 223.519721 392.765827 
L 223.64672 391.173086 
L 223.900718 389.580345 
L 225.04371 387.987604 
L 225.805705 386.394863 
L 226.186702 384.802122 
L 226.313701 383.209381 
L 227.583692 381.616639 
L 227.710691 380.023898 
L 228.345686 378.431157 
L 228.599685 376.838416 
L 228.726684 375.245675 
L 229.488678 373.652934 
L 229.742676 372.060193 
L 229.742676 370.467452 
L 230.377672 368.87471 
L 231.266665 367.281969 
L 231.774662 365.689228 
L 232.155659 364.096487 
L 232.282658 362.503746 
L 232.536656 360.911005 
L 232.917654 359.318264 
L 234.441643 357.725522 
L 234.441643 351.354558 
L 235.711634 349.761817 
L 235.711634 348.169076 
L 236.981624 346.576334 
L 236.981624 341.798111 
L 238.251615 340.20537 
L 240.791597 338.612629 
L 240.791597 337.019888 
L 242.061588 335.427146 
L 242.061588 329.056182 
L 243.331579 327.463441 
L 243.331579 321.092476 
L 245.87156 319.499735 
L 245.87156 317.906994 
L 247.141551 316.314253 
L 247.141551 308.350547 
L 248.411542 306.757806 
L 248.411542 303.572324 
L 249.681533 301.979583 
L 249.681533 298.7941 
L 252.221515 297.201359 
L 252.221515 289.237654 
L 254.761497 286.052171 
L 254.761497 281.273948 
L 257.301478 279.681207 
L 257.301478 276.495724 
L 258.571469 274.902983 
L 258.571469 273.310242 
L 259.84146 271.717501 
L 259.84146 268.532019 
L 262.381442 265.346536 
L 262.381442 262.161054 
L 263.651433 260.568313 
L 263.651433 258.975572 
L 264.921424 257.382831 
L 264.921424 255.79009 
L 266.191414 254.197348 
L 266.191414 251.011866 
L 268.731396 247.826384 
L 268.731396 244.640902 
L 271.271378 243.048161 
L 271.271378 239.862678 
L 275.08135 238.269937 
L 275.08135 233.491714 
L 277.621332 231.898973 
L 278.891323 230.306231 
L 278.891323 228.71349 
L 282.701296 223.935267 
L 282.701296 219.157043 
L 283.971287 217.564302 
L 283.971287 214.37882 
L 287.781259 209.600597 
L 290.321241 208.007856 
L 290.321241 206.415114 
L 291.591232 204.822373 
L 291.591232 203.229632 
L 292.861223 201.636891 
L 295.401204 200.04415 
L 295.401204 196.858668 
L 297.941186 195.265926 
L 297.941186 193.673185 
L 300.481168 192.080444 
L 300.481168 190.487703 
L 301.751159 188.894962 
L 301.751159 187.302221 
L 304.291141 185.70948 
L 306.831122 182.523997 
L 306.831122 179.338515 
L 308.101113 177.745774 
L 308.101113 176.153033 
L 309.371104 174.560292 
L 309.371104 172.967551 
L 310.641095 171.374809 
L 315.721058 169.782068 
L 316.991049 168.189327 
L 316.991049 165.003845 
L 320.801022 160.225621 
L 320.801022 158.63288 
L 324.610994 153.854657 
L 324.610994 152.261916 
L 325.880985 150.669175 
L 330.960949 147.483692 
L 332.23094 145.890951 
L 334.770921 144.29821 
L 336.040912 142.705469 
L 336.040912 141.112728 
L 338.580894 139.519987 
L 338.580894 133.149022 
L 341.120876 129.96354 
L 341.120876 126.778058 
L 343.660858 125.185316 
L 343.660858 123.592575 
L 344.930848 121.999834 
L 347.47083 120.407093 
L 347.47083 118.814352 
L 350.010812 115.62887 
L 350.010812 114.036128 
L 355.090775 112.443387 
L 362.710721 110.850646 
L 371.600657 109.257905 
L 372.870648 107.665164 
L 372.870648 106.072423 
L 383.030574 104.479682 
L 390.65052 102.88694 
L 390.65052 101.294199 
L 394.460492 99.701458 
L 409.700383 96.515976 
L 417.320328 93.330494 
L 419.86031 91.737753 
L 426.210264 90.145011 
L 428.750246 88.55227 
L 428.750246 86.959529 
L 431.290228 85.366788 
L 432.560218 83.774047 
L 435.1002 82.181306 
L 438.910173 80.588565 
L 459.230027 78.995823 
L 470.659945 77.403082 
L 494.789771 75.810341 
L 540.509442 74.2176 
L 540.509442 74.2176 
" style="fill:none;stroke:#d95f02;stroke-dasharray:3.7,1.6;stroke-dashoffset:0;"/>
   </g>
   <g id="line2d_60">
    <path clip-path="url(#paf7eaf2879)" d="M 150.114249 548.854459 
L 156.591202 547.261718 
L 159.258183 545.668977 
L 166.497131 544.076235 
L 167.005127 542.483494 
L 167.767122 540.890753 
L 169.037113 537.705271 
L 169.291111 536.11253 
L 170.8151 534.519789 
L 171.196097 532.927047 
L 173.60908 529.741565 
L 176.40306 528.148824 
L 176.911056 526.556083 
L 182.118019 524.963342 
L 182.372017 523.370601 
L 183.642008 521.77786 
L 185.419995 520.185118 
L 185.673993 516.999636 
L 185.673993 515.406895 
L 186.308989 513.814154 
L 186.562987 510.628672 
L 186.816985 509.03593 
L 187.197982 507.443189 
L 189.102969 505.850448 
L 189.356967 504.257707 
L 189.610965 501.072225 
L 190.118961 499.479484 
L 190.372959 497.886742 
L 191.388952 496.294001 
L 194.563929 493.108519 
L 194.817927 491.515778 
L 198.119904 489.923037 
L 198.119904 488.330296 
L 198.246903 486.737555 
L 198.881898 485.144813 
L 199.389895 483.552072 
L 200.278888 481.959331 
L 200.786885 480.36659 
L 201.675878 478.773849 
L 201.802877 477.181108 
L 202.437873 475.588367 
L 202.564872 473.995625 
L 202.945869 472.402884 
L 203.199867 469.217402 
L 203.834863 467.624661 
L 204.088861 466.03192 
L 205.231853 464.439179 
L 205.485851 462.846437 
L 205.61285 461.253696 
L 206.755842 459.660955 
L 207.263838 456.475473 
L 207.263838 454.882732 
L 208.787827 451.697249 
L 208.914826 450.104508 
L 210.184817 446.919026 
L 210.565814 445.326285 
L 213.232795 443.733544 
L 213.359794 442.140803 
L 213.867791 438.95532 
L 214.375787 437.362579 
L 215.010782 435.769838 
L 215.518779 434.177097 
L 215.518779 432.584356 
L 216.280773 430.991615 
L 217.423765 429.398874 
L 217.423765 426.213391 
L 218.566757 424.62065 
L 218.566757 423.027909 
L 218.820755 421.435168 
L 219.328751 419.842427 
L 219.709749 418.249686 
L 219.709749 416.656944 
L 220.598742 415.064203 
L 221.868733 413.471462 
L 222.24973 411.878721 
L 223.138724 410.28598 
L 223.265723 408.693239 
L 223.519721 407.100498 
L 223.64672 405.507757 
L 224.281716 403.915015 
L 224.535714 402.322274 
L 224.916711 400.729533 
L 224.916711 399.136792 
L 225.04371 397.544051 
L 226.4407 395.95131 
L 226.4407 394.358569 
L 227.329694 392.765827 
L 227.710691 391.173086 
L 229.361679 389.580345 
L 230.123674 387.987604 
L 230.250673 386.394863 
L 230.758669 383.209381 
L 231.520664 380.023898 
L 233.171652 378.431157 
L 233.171652 376.838416 
L 234.441643 375.245675 
L 234.441643 370.467452 
L 236.981624 367.281969 
L 236.981624 365.689228 
L 240.791597 364.096487 
L 240.791597 362.503746 
L 245.87156 356.132781 
L 245.87156 352.947299 
L 249.681533 348.169076 
L 249.681533 346.576334 
L 250.951524 344.983593 
L 250.951524 343.390852 
L 253.491506 340.20537 
L 253.491506 337.019888 
L 254.761497 335.427146 
L 257.301478 333.834405 
L 257.301478 330.648923 
L 259.84146 327.463441 
L 259.84146 319.499735 
L 261.111451 317.906994 
L 261.111451 316.314253 
L 262.381442 314.721512 
L 262.381442 311.536029 
L 264.921424 308.350547 
L 264.921424 301.979583 
L 266.191414 300.386841 
L 266.191414 297.201359 
L 267.461405 295.608618 
L 267.461405 290.830395 
L 271.271378 286.052171 
L 271.271378 282.866689 
L 272.541369 281.273948 
L 272.541369 279.681207 
L 273.81136 278.088466 
L 273.81136 274.902983 
L 276.351341 273.310242 
L 276.351341 268.532019 
L 278.891323 265.346536 
L 278.891323 262.161054 
L 280.161314 260.568313 
L 280.161314 258.975572 
L 281.431305 257.382831 
L 281.431305 254.197348 
L 282.701296 252.604607 
L 282.701296 251.011866 
L 283.971287 249.419125 
L 283.971287 244.640902 
L 286.511268 241.455419 
L 286.511268 238.269937 
L 287.781259 236.677196 
L 287.781259 235.084455 
L 290.321241 231.898973 
L 290.321241 227.120749 
L 291.591232 225.528008 
L 291.591232 223.935267 
L 292.861223 222.342526 
L 292.861223 219.157043 
L 294.131214 217.564302 
L 294.131214 215.971561 
L 295.401204 214.37882 
L 295.401204 212.786079 
L 297.941186 209.600597 
L 297.941186 208.007856 
L 300.481168 204.822373 
L 300.481168 201.636891 
L 301.751159 200.04415 
L 301.751159 198.451409 
L 304.291141 195.265926 
L 304.291141 193.673185 
L 305.561131 192.080444 
L 308.101113 190.487703 
L 308.101113 187.302221 
L 309.371104 185.70948 
L 309.371104 182.523997 
L 310.641095 180.931256 
L 314.451067 179.338515 
L 314.451067 177.745774 
L 316.991049 176.153033 
L 316.991049 174.560292 
L 319.531031 171.374809 
L 319.531031 166.596586 
L 320.801022 165.003845 
L 320.801022 163.411104 
L 322.071013 161.818363 
L 322.071013 160.225621 
L 323.341004 158.63288 
L 323.341004 157.040139 
L 324.610994 155.447398 
L 324.610994 152.261916 
L 328.420967 150.669175 
L 330.960949 149.076433 
L 330.960949 147.483692 
L 332.23094 145.890951 
L 332.23094 142.705469 
L 336.040912 137.927245 
L 336.040912 136.334504 
L 338.580894 134.741763 
L 338.580894 133.149022 
L 339.850885 131.556281 
L 339.850885 128.370799 
L 343.660858 126.778058 
L 346.200839 125.185316 
L 350.010812 123.592575 
L 351.280803 121.999834 
L 351.280803 120.407093 
L 353.820784 117.221611 
L 353.820784 115.62887 
L 357.630757 114.036128 
L 358.900748 112.443387 
L 358.900748 110.850646 
L 362.710721 109.257905 
L 362.710721 107.665164 
L 372.870648 106.072423 
L 380.490593 104.479682 
L 385.570556 102.88694 
L 386.840547 101.294199 
L 389.380529 99.701458 
L 390.65052 98.108717 
L 400.810447 96.515976 
L 404.620419 94.923235 
L 405.89041 93.330494 
L 414.780346 91.737753 
L 417.320328 88.55227 
L 417.320328 86.959529 
L 421.130301 85.366788 
L 423.670282 82.181306 
L 423.670282 80.588565 
L 454.150063 78.995823 
L 469.389954 77.403082 
L 475.739908 75.810341 
L 605.278977 74.2176 
L 605.278977 74.2176 
" style="fill:none;stroke:#7570b3;stroke-dasharray:2,4;stroke-dashoffset:0;"/>
   </g>
   <g id="line2d_61">
    <path clip-path="url(#paf7eaf2879)" d="M 152.527231 548.854459 
L 154.051221 547.261718 
L 154.559217 545.668977 
L 155.321211 544.076235 
L 157.861193 542.483494 
L 161.544167 539.298012 
L 162.306161 537.705271 
L 162.687158 536.11253 
L 165.100141 534.519789 
L 165.608137 531.334306 
L 166.370132 529.741565 
L 166.497131 528.148824 
L 167.259126 524.963342 
L 167.259126 523.370601 
L 167.640123 521.77786 
L 168.148119 518.592377 
L 168.783115 516.999636 
L 168.783115 515.406895 
L 169.037113 513.814154 
L 169.164112 512.221413 
L 169.41811 510.628672 
L 170.053106 509.03593 
L 170.053106 507.443189 
L 170.434103 505.850448 
L 171.958092 504.257707 
L 172.466088 502.664966 
L 172.720086 501.072225 
L 173.101084 499.479484 
L 173.60908 497.886742 
L 173.863078 496.294001 
L 175.133069 494.70126 
L 175.641065 493.108519 
L 176.276061 491.515778 
L 176.40306 489.923037 
L 176.40306 488.330296 
L 176.530059 486.737555 
L 176.784057 485.144813 
L 177.292053 483.552072 
L 177.673051 481.959331 
L 177.927049 480.36659 
L 177.927049 478.773849 
L 178.308046 477.181108 
L 178.562044 473.995625 
L 178.816043 472.402884 
L 179.451038 470.810143 
L 179.832035 469.217402 
L 179.832035 467.624661 
L 179.959034 466.03192 
L 181.864021 462.846437 
L 182.880013 459.660955 
L 184.785 456.475473 
L 185.038998 453.289991 
L 185.800992 451.697249 
L 185.800992 450.104508 
L 185.927991 448.511767 
L 186.18199 446.919026 
L 186.943984 445.326285 
L 187.070983 443.733544 
L 187.57898 440.548062 
L 188.340974 438.95532 
L 188.975969 437.362579 
L 189.229968 434.177097 
L 189.483966 432.584356 
L 189.610965 430.991615 
L 189.610965 429.398874 
L 189.737964 427.806132 
L 189.737964 426.213391 
L 190.499959 424.62065 
L 190.499959 423.027909 
L 191.515951 421.435168 
L 191.515951 419.842427 
L 191.64295 418.249686 
L 191.64295 416.656944 
L 192.404945 413.471462 
L 192.658943 411.878721 
L 192.785942 410.28598 
L 193.166939 408.693239 
L 193.293938 407.100498 
L 193.674936 405.507757 
L 194.690928 403.915015 
L 194.817927 402.322274 
L 195.325924 400.729533 
L 196.214917 399.136792 
L 196.214917 397.544051 
L 196.722914 395.95131 
L 197.611907 394.358569 
L 197.865906 392.765827 
L 198.119904 389.580345 
L 198.881898 386.394863 
L 199.389895 383.209381 
L 199.770892 381.616639 
L 200.02489 378.431157 
L 200.405887 376.838416 
L 200.659885 375.245675 
L 201.42188 373.652934 
L 201.802877 372.060193 
L 201.802877 370.467452 
L 202.183875 368.87471 
L 203.326866 367.281969 
L 203.326866 365.689228 
L 203.580864 362.503746 
L 203.961862 360.911005 
L 203.961862 359.318264 
L 204.21586 357.725522 
L 204.596857 356.132781 
L 204.596857 354.54004 
L 205.61285 348.169076 
L 205.866848 344.983593 
L 206.120846 343.390852 
L 206.247845 341.798111 
L 206.247845 340.20537 
L 206.501843 338.612629 
L 206.628843 337.019888 
L 206.882841 335.427146 
L 207.263838 333.834405 
L 207.517836 332.241664 
L 207.517836 330.648923 
L 207.771834 329.056182 
L 208.025833 325.8707 
L 208.533829 322.685217 
L 208.660828 321.092476 
L 208.660828 319.499735 
L 208.914826 317.906994 
L 209.549822 316.314253 
L 209.930819 314.721512 
L 209.930819 313.128771 
L 210.184817 309.943288 
L 210.946812 306.757806 
L 210.946812 305.165065 
L 211.327809 303.572324 
L 211.327809 301.979583 
L 211.835805 300.386841 
L 213.359794 298.7941 
L 213.359794 297.201359 
L 213.867791 295.608618 
L 213.99479 294.015877 
L 213.99479 292.423136 
L 215.645778 290.830395 
L 216.026775 289.237654 
L 216.280773 287.644912 
L 217.296766 284.45943 
L 217.804762 281.273948 
L 218.312759 279.681207 
L 218.439758 278.088466 
L 218.693756 276.495724 
L 219.201752 274.902983 
L 219.836748 273.310242 
L 220.344744 270.12476 
L 220.344744 268.532019 
L 220.598742 266.939278 
L 220.598742 265.346536 
L 220.979739 263.753795 
L 221.741734 262.161054 
L 222.122731 260.568313 
L 222.884726 258.975572 
L 223.392722 257.382831 
L 223.64672 255.79009 
L 224.027718 254.197348 
L 224.027718 252.604607 
L 224.535714 251.011866 
L 224.789712 249.419125 
L 225.678706 247.826384 
L 225.932704 246.233643 
L 226.4407 244.640902 
L 226.567699 243.048161 
L 227.075696 241.455419 
L 227.329694 239.862678 
L 227.329694 236.677196 
L 227.583692 233.491714 
L 227.83769 231.898973 
L 228.980682 227.120749 
L 228.980682 223.935267 
L 229.107681 222.342526 
L 229.488678 220.749785 
L 230.504671 219.157043 
L 232.536656 217.564302 
L 233.044653 215.971561 
L 233.171652 214.37882 
L 233.171652 211.193338 
L 234.441643 209.600597 
L 234.441643 206.415114 
L 235.711634 204.822373 
L 235.711634 198.451409 
L 238.251615 196.858668 
L 238.251615 195.265926 
L 239.521606 193.673185 
L 239.521606 192.080444 
L 240.791597 190.487703 
L 243.331579 188.894962 
L 244.60157 187.302221 
L 244.60157 184.116738 
L 248.411542 179.338515 
L 248.411542 177.745774 
L 253.491506 171.374809 
L 253.491506 168.189327 
L 254.761497 166.596586 
L 254.761497 163.411104 
L 256.031487 161.818363 
L 256.031487 158.63288 
L 257.301478 157.040139 
L 257.301478 155.447398 
L 258.571469 153.854657 
L 258.571469 152.261916 
L 261.111451 149.076433 
L 263.651433 147.483692 
L 263.651433 145.890951 
L 264.921424 144.29821 
L 264.921424 141.112728 
L 266.191414 139.519987 
L 266.191414 134.741763 
L 267.461405 133.149022 
L 270.001387 131.556281 
L 271.271378 129.96354 
L 271.271378 128.370799 
L 272.541369 126.778058 
L 272.541369 125.185316 
L 273.81136 123.592575 
L 273.81136 121.999834 
L 276.351341 118.814352 
L 278.891323 117.221611 
L 285.241277 115.62887 
L 285.241277 114.036128 
L 286.511268 112.443387 
L 289.05125 110.850646 
L 291.591232 107.665164 
L 291.591232 106.072423 
L 306.831122 101.294199 
L 309.371104 98.108717 
L 316.991049 93.330494 
L 318.26104 91.737753 
L 320.801022 90.145011 
L 327.150976 88.55227 
L 334.770921 86.959529 
L 337.310903 85.366788 
L 351.280803 83.774047 
L 351.280803 82.181306 
L 371.600657 80.588565 
L 395.730483 78.995823 
L 403.350428 77.403082 
L 430.020237 75.810341 
L 438.910173 74.2176 
L 438.910173 74.2176 
" style="fill:none;stroke:#e7298a;stroke-dasharray:8,4,2,4;stroke-dashoffset:0;"/>
   </g>
   <g id="line2d_62">
    <path clip-path="url(#paf7eaf2879)" d="M 152.654231 548.854459 
L 158.24219 547.261718 
L 158.369189 545.668977 
L 161.544167 544.076235 
L 162.687158 542.483494 
L 165.354139 540.890753 
L 167.132126 539.298012 
L 167.386125 537.705271 
L 168.148119 534.519789 
L 168.656116 532.927047 
L 169.799107 531.334306 
L 170.053106 529.741565 
L 170.434103 528.148824 
L 170.561102 526.556083 
L 170.561102 524.963342 
L 170.942099 523.370601 
L 172.974085 521.77786 
L 174.117076 520.185118 
L 177.80005 518.592377 
L 178.562044 516.999636 
L 178.943042 515.406895 
L 179.19704 513.814154 
L 179.832035 512.221413 
L 180.975027 510.628672 
L 181.483023 509.03593 
L 183.261011 505.850448 
L 183.515009 504.257707 
L 185.165997 502.664966 
L 185.673993 499.479484 
L 187.070983 497.886742 
L 187.070983 496.294001 
L 187.324981 494.70126 
L 188.086976 491.515778 
L 188.213975 489.923037 
L 190.118961 488.330296 
L 191.134954 486.737555 
L 192.658943 485.144813 
L 193.801935 483.552072 
L 194.43693 481.959331 
L 195.198925 478.773849 
L 195.706921 477.181108 
L 196.468916 475.588367 
L 196.722914 473.995625 
L 197.738906 470.810143 
L 197.865906 469.217402 
L 199.389895 467.624661 
L 199.643893 466.03192 
L 200.278888 464.439179 
L 201.167882 462.846437 
L 201.548879 461.253696 
L 201.802877 459.660955 
L 202.310874 458.068214 
L 203.072868 454.882732 
L 204.21586 453.289991 
L 204.850855 451.697249 
L 205.104854 448.511767 
L 205.104854 446.919026 
L 205.61285 445.326285 
L 206.501843 443.733544 
L 206.628843 442.140803 
L 206.882841 440.548062 
L 207.390837 438.95532 
L 209.422822 435.769838 
L 209.80382 434.177097 
L 209.80382 432.584356 
L 210.057818 429.398874 
L 210.692813 427.806132 
L 210.819812 426.213391 
L 211.073811 424.62065 
L 212.343801 421.435168 
L 213.232795 419.842427 
L 213.486793 418.249686 
L 213.486793 416.656944 
L 214.502786 415.064203 
L 215.772777 411.878721 
L 215.899776 410.28598 
L 217.423765 408.693239 
L 217.677763 405.507757 
L 219.074753 403.915015 
L 220.725741 402.322274 
L 220.85274 400.729533 
L 222.884726 399.136792 
L 223.265723 397.544051 
L 224.027718 395.95131 
L 224.535714 392.765827 
L 224.916711 391.173086 
L 227.329694 389.580345 
L 227.456693 387.987604 
L 228.599685 386.394863 
L 228.726684 384.802122 
L 229.107681 383.209381 
L 229.361679 380.023898 
L 232.409657 378.431157 
L 232.536656 376.838416 
L 232.790655 375.245675 
L 234.441643 373.652934 
L 235.711634 372.060193 
L 235.711634 370.467452 
L 236.981624 368.87471 
L 236.981624 367.281969 
L 238.251615 365.689228 
L 238.251615 364.096487 
L 239.521606 362.503746 
L 242.061588 360.911005 
L 242.061588 352.947299 
L 243.331579 351.354558 
L 243.331579 349.761817 
L 245.87156 346.576334 
L 245.87156 344.983593 
L 248.411542 341.798111 
L 248.411542 337.019888 
L 249.681533 335.427146 
L 249.681533 330.648923 
L 250.951524 329.056182 
L 250.951524 325.8707 
L 253.491506 322.685217 
L 253.491506 319.499735 
L 254.761497 317.906994 
L 254.761497 314.721512 
L 259.84146 308.350547 
L 259.84146 303.572324 
L 262.381442 300.386841 
L 262.381442 295.608618 
L 263.651433 294.015877 
L 263.651433 292.423136 
L 264.921424 290.830395 
L 264.921424 289.237654 
L 266.191414 287.644912 
L 270.001387 286.052171 
L 271.271378 284.45943 
L 271.271378 281.273948 
L 272.541369 279.681207 
L 272.541369 278.088466 
L 273.81136 276.495724 
L 273.81136 274.902983 
L 275.08135 273.310242 
L 275.08135 268.532019 
L 277.621332 265.346536 
L 277.621332 260.568313 
L 278.891323 258.975572 
L 278.891323 255.79009 
L 280.161314 254.197348 
L 280.161314 252.604607 
L 282.701296 249.419125 
L 282.701296 246.233643 
L 283.971287 244.640902 
L 283.971287 243.048161 
L 286.511268 241.455419 
L 286.511268 239.862678 
L 289.05125 236.677196 
L 289.05125 235.084455 
L 292.861223 233.491714 
L 295.401204 230.306231 
L 295.401204 222.342526 
L 296.671195 220.749785 
L 296.671195 219.157043 
L 297.941186 217.564302 
L 297.941186 215.971561 
L 299.211177 214.37882 
L 309.371104 208.007856 
L 309.371104 204.822373 
L 310.641095 203.229632 
L 310.641095 201.636891 
L 314.451067 200.04415 
L 315.721058 198.451409 
L 315.721058 196.858668 
L 318.26104 193.673185 
L 318.26104 190.487703 
L 322.071013 188.894962 
L 322.071013 185.70948 
L 324.610994 184.116738 
L 325.880985 182.523997 
L 325.880985 179.338515 
L 328.420967 177.745774 
L 328.420967 172.967551 
L 329.690958 171.374809 
L 332.23094 169.782068 
L 332.23094 168.189327 
L 334.770921 166.596586 
L 337.310903 163.411104 
L 342.390867 161.818363 
L 342.390867 160.225621 
L 343.660858 158.63288 
L 343.660858 157.040139 
L 351.280803 152.261916 
L 352.550794 150.669175 
L 352.550794 149.076433 
L 355.090775 147.483692 
L 355.090775 145.890951 
L 358.900748 144.29821 
L 360.170739 142.705469 
L 363.980711 141.112728 
L 370.330666 139.519987 
L 371.600657 137.927245 
L 376.68062 136.334504 
L 377.950611 134.741763 
L 377.950611 133.149022 
L 380.490593 129.96354 
L 384.300565 128.370799 
L 384.300565 126.778058 
L 385.570556 125.185316 
L 393.190501 121.999834 
L 394.460492 120.407093 
L 399.540456 117.221611 
L 400.810447 115.62887 
L 404.620419 114.036128 
L 407.160401 112.443387 
L 407.160401 110.850646 
L 409.700383 109.257905 
L 410.970374 107.665164 
L 413.510355 106.072423 
L 418.590319 104.479682 
L 418.590319 102.88694 
L 430.020237 101.294199 
L 440.180164 98.108717 
L 441.450155 96.515976 
L 446.530118 94.923235 
L 452.880072 93.330494 
L 456.690045 91.737753 
L 461.770008 88.55227 
L 463.039999 86.959529 
L 468.119963 85.366788 
L 468.119963 83.774047 
L 479.549881 82.181306 
L 492.249789 80.588565 
L 496.059762 78.995823 
L 498.599744 77.403082 
L 526.539543 75.810341 
L 720.848146 74.2176 
L 720.848146 74.2176 
" style="fill:none;stroke:#66a61e;stroke-linecap:round;"/>
    <defs>
     <path d="M 0 3 
C 0.795609 3 1.55874 2.683901 2.12132 2.12132 
C 2.683901 1.55874 3 0.795609 3 0 
C 3 -0.795609 2.683901 -1.55874 2.12132 -2.12132 
C 1.55874 -2.683901 0.795609 -3 0 -3 
C -0.795609 -3 -1.55874 -2.683901 -2.12132 -2.12132 
C -2.683901 -1.55874 -3 -0.795609 -3 0 
C -3 0.795609 -2.683901 1.55874 -2.12132 2.12132 
C -1.55874 2.683901 -0.795609 3 0 3 
z
" id="mc5a5cff874" style="stroke:#66a61e;"/>
    </defs>
    <g clip-path="url(#paf7eaf2879)">
     <use style="fill:#66a61e;stroke:#66a61e;" x="152.654231" xlink:href="#mc5a5cff874" y="548.854459"/>
     <use style="fill:#66a61e;stroke:#66a61e;" x="168.656116" xlink:href="#mc5a5cff874" y="532.927047"/>
     <use style="fill:#66a61e;stroke:#66a61e;" x="178.562044" xlink:href="#mc5a5cff874" y="516.999636"/>
     <use style="fill:#66a61e;stroke:#66a61e;" x="185.419995" xlink:href="#mc5a5cff874" y="501.072225"/>
     <use style="fill:#66a61e;stroke:#66a61e;" x="192.658943" xlink:href="#mc5a5cff874" y="485.144813"/>
     <use style="fill:#66a61e;stroke:#66a61e;" x="197.865906" xlink:href="#mc5a5cff874" y="469.217402"/>
     <use style="fill:#66a61e;stroke:#66a61e;" x="204.21586" xlink:href="#mc5a5cff874" y="453.289991"/>
     <use style="fill:#66a61e;stroke:#66a61e;" x="208.40683" xlink:href="#mc5a5cff874" y="437.362579"/>
     <use style="fill:#66a61e;stroke:#66a61e;" x="212.343801" xlink:href="#mc5a5cff874" y="421.435168"/>
     <use style="fill:#66a61e;stroke:#66a61e;" x="217.677763" xlink:href="#mc5a5cff874" y="405.507757"/>
     <use style="fill:#66a61e;stroke:#66a61e;" x="227.329694" xlink:href="#mc5a5cff874" y="389.580345"/>
     <use style="fill:#66a61e;stroke:#66a61e;" x="234.441643" xlink:href="#mc5a5cff874" y="373.652934"/>
     <use style="fill:#66a61e;stroke:#66a61e;" x="242.061588" xlink:href="#mc5a5cff874" y="357.725522"/>
     <use style="fill:#66a61e;stroke:#66a61e;" x="248.411542" xlink:href="#mc5a5cff874" y="341.798111"/>
     <use style="fill:#66a61e;stroke:#66a61e;" x="250.951524" xlink:href="#mc5a5cff874" y="325.8707"/>
     <use style="fill:#66a61e;stroke:#66a61e;" x="258.571469" xlink:href="#mc5a5cff874" y="309.943288"/>
     <use style="fill:#66a61e;stroke:#66a61e;" x="263.651433" xlink:href="#mc5a5cff874" y="294.015877"/>
     <use style="fill:#66a61e;stroke:#66a61e;" x="272.541369" xlink:href="#mc5a5cff874" y="278.088466"/>
     <use style="fill:#66a61e;stroke:#66a61e;" x="277.621332" xlink:href="#mc5a5cff874" y="262.161054"/>
     <use style="fill:#66a61e;stroke:#66a61e;" x="282.701296" xlink:href="#mc5a5cff874" y="246.233643"/>
     <use style="fill:#66a61e;stroke:#66a61e;" x="295.401204" xlink:href="#mc5a5cff874" y="230.306231"/>
     <use style="fill:#66a61e;stroke:#66a61e;" x="299.211177" xlink:href="#mc5a5cff874" y="214.37882"/>
     <use style="fill:#66a61e;stroke:#66a61e;" x="315.721058" xlink:href="#mc5a5cff874" y="198.451409"/>
     <use style="fill:#66a61e;stroke:#66a61e;" x="325.880985" xlink:href="#mc5a5cff874" y="182.523997"/>
     <use style="fill:#66a61e;stroke:#66a61e;" x="334.770921" xlink:href="#mc5a5cff874" y="166.596586"/>
     <use style="fill:#66a61e;stroke:#66a61e;" x="352.550794" xlink:href="#mc5a5cff874" y="150.669175"/>
     <use style="fill:#66a61e;stroke:#66a61e;" x="377.950611" xlink:href="#mc5a5cff874" y="134.741763"/>
     <use style="fill:#66a61e;stroke:#66a61e;" x="397.000474" xlink:href="#mc5a5cff874" y="118.814352"/>
     <use style="fill:#66a61e;stroke:#66a61e;" x="418.590319" xlink:href="#mc5a5cff874" y="102.88694"/>
     <use style="fill:#66a61e;stroke:#66a61e;" x="463.039999" xlink:href="#mc5a5cff874" y="86.959529"/>
    </g>
   </g>
   <g id="patch_3">
    <path d="M 122.13 550.4472 
L 122.13 74.2176 
" style="fill:none;"/>
   </g>
   <g id="patch_4">
    <path d="M 741.168 550.4472 
L 741.168 74.2176 
" style="fill:none;"/>
   </g>
   <g id="patch_5">
    <path d="M 122.13 550.4472 
L 741.168 550.4472 
" style="fill:none;"/>
   </g>
   <g id="patch_6">
    <path d="M 122.13 74.2176 
L 741.168 74.2176 
" style="fill:none;"/>
   </g>
   <g id="legend_1">
    <g id="line2d_63">
     <path d="M 756.88076 80.963598 
L 773.54076 80.963598 
" style="fill:none;stroke:#1b9e77;stroke-linecap:round;"/>
    </g>
    <g id="line2d_64"/>
    <g id="text_14">
     <!-- Ping (ms) - BBRn-fq -->
     <g transform="translate(780.20476 83.879098)scale(0.0833 -0.0833)">
      <defs>
       <path d="M 19.671875 64.796875 
L 19.671875 37.40625 
L 32.078125 37.40625 
Q 38.96875 37.40625 42.71875 40.96875 
Q 46.484375 44.53125 46.484375 51.125 
Q 46.484375 57.671875 42.71875 61.234375 
Q 38.96875 64.796875 32.078125 64.796875 
z
M 9.8125 72.90625 
L 32.078125 72.90625 
Q 44.34375 72.90625 50.609375 67.359375 
Q 56.890625 61.8125 56.890625 51.125 
Q 56.890625 40.328125 50.609375 34.8125 
Q 44.34375 29.296875 32.078125 29.296875 
L 19.671875 29.296875 
L 19.671875 0 
L 9.8125 0 
z
" id="DejaVuSans-80"/>
       <path d="M 54.890625 33.015625 
L 54.890625 0 
L 45.90625 0 
L 45.90625 32.71875 
Q 45.90625 40.484375 42.875 44.328125 
Q 39.84375 48.1875 33.796875 48.1875 
Q 26.515625 48.1875 22.3125 43.546875 
Q 18.109375 38.921875 18.109375 30.90625 
L 18.109375 0 
L 9.078125 0 
L 9.078125 54.6875 
L 18.109375 54.6875 
L 18.109375 46.1875 
Q 21.34375 51.125 25.703125 53.5625 
Q 30.078125 56 35.796875 56 
Q 45.21875 56 50.046875 50.171875 
Q 54.890625 44.34375 54.890625 33.015625 
z
" id="DejaVuSans-110"/>
       <path d="M 45.40625 27.984375 
Q 45.40625 37.75 41.375 43.109375 
Q 37.359375 48.484375 30.078125 48.484375 
Q 22.859375 48.484375 18.828125 43.109375 
Q 14.796875 37.75 14.796875 27.984375 
Q 14.796875 18.265625 18.828125 12.890625 
Q 22.859375 7.515625 30.078125 7.515625 
Q 37.359375 7.515625 41.375 12.890625 
Q 45.40625 18.265625 45.40625 27.984375 
z
M 54.390625 6.78125 
Q 54.390625 -7.171875 48.1875 -13.984375 
Q 42 -20.796875 29.203125 -20.796875 
Q 24.46875 -20.796875 20.265625 -20.09375 
Q 16.0625 -19.390625 12.109375 -17.921875 
L 12.109375 -9.1875 
Q 16.0625 -11.328125 19.921875 -12.34375 
Q 23.78125 -13.375 27.78125 -13.375 
Q 36.625 -13.375 41.015625 -8.765625 
Q 45.40625 -4.15625 45.40625 5.171875 
L 45.40625 9.625 
Q 42.625 4.78125 38.28125 2.390625 
Q 33.9375 0 27.875 0 
Q 17.828125 0 11.671875 7.65625 
Q 5.515625 15.328125 5.515625 27.984375 
Q 5.515625 40.671875 11.671875 48.328125 
Q 17.828125 56 27.875 56 
Q 33.9375 56 38.28125 53.609375 
Q 42.625 51.21875 45.40625 46.390625 
L 45.40625 54.6875 
L 54.390625 54.6875 
z
" id="DejaVuSans-103"/>
       <path d="M 31 75.875 
Q 24.46875 64.65625 21.28125 53.65625 
Q 18.109375 42.671875 18.109375 31.390625 
Q 18.109375 20.125 21.3125 9.0625 
Q 24.515625 -2 31 -13.1875 
L 23.1875 -13.1875 
Q 15.875 -1.703125 12.234375 9.375 
Q 8.59375 20.453125 8.59375 31.390625 
Q 8.59375 42.28125 12.203125 53.3125 
Q 15.828125 64.359375 23.1875 75.875 
z
" id="DejaVuSans-40"/>
       <path d="M 8.015625 75.875 
L 15.828125 75.875 
Q 23.140625 64.359375 26.78125 53.3125 
Q 30.421875 42.28125 30.421875 31.390625 
Q 30.421875 20.453125 26.78125 9.375 
Q 23.140625 -1.703125 15.828125 -13.1875 
L 8.015625 -13.1875 
Q 14.5 -2 17.703125 9.0625 
Q 20.90625 20.125 20.90625 31.390625 
Q 20.90625 42.671875 17.703125 53.65625 
Q 14.5 64.65625 8.015625 75.875 
z
" id="DejaVuSans-41"/>
       <path d="M 4.890625 31.390625 
L 31.203125 31.390625 
L 31.203125 23.390625 
L 4.890625 23.390625 
z
" id="DejaVuSans-45"/>
       <path d="M 19.671875 34.8125 
L 19.671875 8.109375 
L 35.5 8.109375 
Q 43.453125 8.109375 47.28125 11.40625 
Q 51.125 14.703125 51.125 21.484375 
Q 51.125 28.328125 47.28125 31.5625 
Q 43.453125 34.8125 35.5 34.8125 
z
M 19.671875 64.796875 
L 19.671875 42.828125 
L 34.28125 42.828125 
Q 41.5 42.828125 45.03125 45.53125 
Q 48.578125 48.25 48.578125 53.8125 
Q 48.578125 59.328125 45.03125 62.0625 
Q 41.5 64.796875 34.28125 64.796875 
z
M 9.8125 72.90625 
L 35.015625 72.90625 
Q 46.296875 72.90625 52.390625 68.21875 
Q 58.5 63.53125 58.5 54.890625 
Q 58.5 48.1875 55.375 44.234375 
Q 52.25 40.28125 46.1875 39.3125 
Q 53.46875 37.75 57.5 32.78125 
Q 61.53125 27.828125 61.53125 20.40625 
Q 61.53125 10.640625 54.890625 5.3125 
Q 48.25 0 35.984375 0 
L 9.8125 0 
z
" id="DejaVuSans-66"/>
       <path d="M 44.390625 34.1875 
Q 47.5625 33.109375 50.5625 29.59375 
Q 53.5625 26.078125 56.59375 19.921875 
L 66.609375 0 
L 56 0 
L 46.6875 18.703125 
Q 43.0625 26.03125 39.671875 28.421875 
Q 36.28125 30.8125 30.421875 30.8125 
L 19.671875 30.8125 
L 19.671875 0 
L 9.8125 0 
L 9.8125 72.90625 
L 32.078125 72.90625 
Q 44.578125 72.90625 50.734375 67.671875 
Q 56.890625 62.453125 56.890625 51.90625 
Q 56.890625 45.015625 53.6875 40.46875 
Q 50.484375 35.9375 44.390625 34.1875 
z
M 19.671875 64.796875 
L 19.671875 38.921875 
L 32.078125 38.921875 
Q 39.203125 38.921875 42.84375 42.21875 
Q 46.484375 45.515625 46.484375 51.90625 
Q 46.484375 58.296875 42.84375 61.546875 
Q 39.203125 64.796875 32.078125 64.796875 
z
" id="DejaVuSans-82"/>
       <path d="M 37.109375 75.984375 
L 37.109375 68.5 
L 28.515625 68.5 
Q 23.6875 68.5 21.796875 66.546875 
Q 19.921875 64.59375 19.921875 59.515625 
L 19.921875 54.6875 
L 34.71875 54.6875 
L 34.71875 47.703125 
L 19.921875 47.703125 
L 19.921875 0 
L 10.890625 0 
L 10.890625 47.703125 
L 2.296875 47.703125 
L 2.296875 54.6875 
L 10.890625 54.6875 
L 10.890625 58.5 
Q 10.890625 67.625 15.140625 71.796875 
Q 19.390625 75.984375 28.609375 75.984375 
z
" id="DejaVuSans-102"/>
       <path d="M 14.796875 27.296875 
Q 14.796875 17.390625 18.875 11.75 
Q 22.953125 6.109375 30.078125 6.109375 
Q 37.203125 6.109375 41.296875 11.75 
Q 45.40625 17.390625 45.40625 27.296875 
Q 45.40625 37.203125 41.296875 42.84375 
Q 37.203125 48.484375 30.078125 48.484375 
Q 22.953125 48.484375 18.875 42.84375 
Q 14.796875 37.203125 14.796875 27.296875 
z
M 45.40625 8.203125 
Q 42.578125 3.328125 38.25 0.953125 
Q 33.9375 -1.421875 27.875 -1.421875 
Q 17.96875 -1.421875 11.734375 6.484375 
Q 5.515625 14.40625 5.515625 27.296875 
Q 5.515625 40.1875 11.734375 48.09375 
Q 17.96875 56 27.875 56 
Q 33.9375 56 38.25 53.625 
Q 42.578125 51.265625 45.40625 46.390625 
L 45.40625 54.6875 
L 54.390625 54.6875 
L 54.390625 -20.796875 
L 45.40625 -20.796875 
z
" id="DejaVuSans-113"/>
      </defs>
      <use xlink:href="#DejaVuSans-80"/>
      <use x="58.052734" xlink:href="#DejaVuSans-105"/>
      <use x="85.835938" xlink:href="#DejaVuSans-110"/>
      <use x="149.214844" xlink:href="#DejaVuSans-103"/>
      <use x="212.691406" xlink:href="#DejaVuSans-32"/>
      <use x="244.478516" xlink:href="#DejaVuSans-40"/>
      <use x="283.492188" xlink:href="#DejaVuSans-109"/>
      <use x="380.904297" xlink:href="#DejaVuSans-115"/>
      <use x="433.003906" xlink:href="#DejaVuSans-41"/>
      <use x="472.017578" xlink:href="#DejaVuSans-32"/>
      <use x="503.804688" xlink:href="#DejaVuSans-45"/>
      <use x="539.888672" xlink:href="#DejaVuSans-32"/>
      <use x="571.675781" xlink:href="#DejaVuSans-66"/>
      <use x="640.279297" xlink:href="#DejaVuSans-66"/>
      <use x="708.882812" xlink:href="#DejaVuSans-82"/>
      <use x="778.365234" xlink:href="#DejaVuSans-110"/>
      <use x="841.744141" xlink:href="#DejaVuSans-45"/>
      <use x="877.828125" xlink:href="#DejaVuSans-102"/>
      <use x="913.033203" xlink:href="#DejaVuSans-113"/>
     </g>
    </g>
    <g id="line2d_65">
     <path d="M 756.88076 93.190477 
L 773.54076 93.190477 
" style="fill:none;stroke:#d95f02;stroke-dasharray:3.7,1.6;stroke-dashoffset:0;"/>
    </g>
    <g id="line2d_66"/>
    <g id="text_15">
     <!-- Ping (ms) - BBRn-codel -->
     <g transform="translate(780.20476 96.105977)scale(0.0833 -0.0833)">
      <defs>
       <path d="M 48.78125 52.59375 
L 48.78125 44.1875 
Q 44.96875 46.296875 41.140625 47.34375 
Q 37.3125 48.390625 33.40625 48.390625 
Q 24.65625 48.390625 19.8125 42.84375 
Q 14.984375 37.3125 14.984375 27.296875 
Q 14.984375 17.28125 19.8125 11.734375 
Q 24.65625 6.203125 33.40625 6.203125 
Q 37.3125 6.203125 41.140625 7.25 
Q 44.96875 8.296875 48.78125 10.40625 
L 48.78125 2.09375 
Q 45.015625 0.34375 40.984375 -0.53125 
Q 36.96875 -1.421875 32.421875 -1.421875 
Q 20.0625 -1.421875 12.78125 6.34375 
Q 5.515625 14.109375 5.515625 27.296875 
Q 5.515625 40.671875 12.859375 48.328125 
Q 20.21875 56 33.015625 56 
Q 37.15625 56 41.109375 55.140625 
Q 45.0625 54.296875 48.78125 52.59375 
z
" id="DejaVuSans-99"/>
       <path d="M 45.40625 46.390625 
L 45.40625 75.984375 
L 54.390625 75.984375 
L 54.390625 0 
L 45.40625 0 
L 45.40625 8.203125 
Q 42.578125 3.328125 38.25 0.953125 
Q 33.9375 -1.421875 27.875 -1.421875 
Q 17.96875 -1.421875 11.734375 6.484375 
Q 5.515625 14.40625 5.515625 27.296875 
Q 5.515625 40.1875 11.734375 48.09375 
Q 17.96875 56 27.875 56 
Q 33.9375 56 38.25 53.625 
Q 42.578125 51.265625 45.40625 46.390625 
z
M 14.796875 27.296875 
Q 14.796875 17.390625 18.875 11.75 
Q 22.953125 6.109375 30.078125 6.109375 
Q 37.203125 6.109375 41.296875 11.75 
Q 45.40625 17.390625 45.40625 27.296875 
Q 45.40625 37.203125 41.296875 42.84375 
Q 37.203125 48.484375 30.078125 48.484375 
Q 22.953125 48.484375 18.875 42.84375 
Q 14.796875 37.203125 14.796875 27.296875 
z
" id="DejaVuSans-100"/>
      </defs>
      <use xlink:href="#DejaVuSans-80"/>
      <use x="58.052734" xlink:href="#DejaVuSans-105"/>
      <use x="85.835938" xlink:href="#DejaVuSans-110"/>
      <use x="149.214844" xlink:href="#DejaVuSans-103"/>
      <use x="212.691406" xlink:href="#DejaVuSans-32"/>
      <use x="244.478516" xlink:href="#DejaVuSans-40"/>
      <use x="283.492188" xlink:href="#DejaVuSans-109"/>
      <use x="380.904297" xlink:href="#DejaVuSans-115"/>
      <use x="433.003906" xlink:href="#DejaVuSans-41"/>
      <use x="472.017578" xlink:href="#DejaVuSans-32"/>
      <use x="503.804688" xlink:href="#DejaVuSans-45"/>
      <use x="539.888672" xlink:href="#DejaVuSans-32"/>
      <use x="571.675781" xlink:href="#DejaVuSans-66"/>
      <use x="640.279297" xlink:href="#DejaVuSans-66"/>
      <use x="708.882812" xlink:href="#DejaVuSans-82"/>
      <use x="778.365234" xlink:href="#DejaVuSans-110"/>
      <use x="841.744141" xlink:href="#DejaVuSans-45"/>
      <use x="877.828125" xlink:href="#DejaVuSans-99"/>
      <use x="932.808594" xlink:href="#DejaVuSans-111"/>
      <use x="993.990234" xlink:href="#DejaVuSans-100"/>
      <use x="1057.466797" xlink:href="#DejaVuSans-101"/>
      <use x="1118.990234" xlink:href="#DejaVuSans-108"/>
     </g>
    </g>
    <g id="line2d_67">
     <path d="M 756.88076 105.417355 
L 773.54076 105.417355 
" style="fill:none;stroke:#7570b3;stroke-dasharray:2,4;stroke-dashoffset:0;"/>
    </g>
    <g id="line2d_68"/>
    <g id="text_16">
     <!-- Ping (ms) - BBRn-pie -->
     <g transform="translate(780.20476 108.332855)scale(0.0833 -0.0833)">
      <use xlink:href="#DejaVuSans-80"/>
      <use x="58.052734" xlink:href="#DejaVuSans-105"/>
      <use x="85.835938" xlink:href="#DejaVuSans-110"/>
      <use x="149.214844" xlink:href="#DejaVuSans-103"/>
      <use x="212.691406" xlink:href="#DejaVuSans-32"/>
      <use x="244.478516" xlink:href="#DejaVuSans-40"/>
      <use x="283.492188" xlink:href="#DejaVuSans-109"/>
      <use x="380.904297" xlink:href="#DejaVuSans-115"/>
      <use x="433.003906" xlink:href="#DejaVuSans-41"/>
      <use x="472.017578" xlink:href="#DejaVuSans-32"/>
      <use x="503.804688" xlink:href="#DejaVuSans-45"/>
      <use x="539.888672" xlink:href="#DejaVuSans-32"/>
      <use x="571.675781" xlink:href="#DejaVuSans-66"/>
      <use x="640.279297" xlink:href="#DejaVuSans-66"/>
      <use x="708.882812" xlink:href="#DejaVuSans-82"/>
      <use x="778.365234" xlink:href="#DejaVuSans-110"/>
      <use x="841.744141" xlink:href="#DejaVuSans-45"/>
      <use x="877.828125" xlink:href="#DejaVuSans-112"/>
      <use x="941.304688" xlink:href="#DejaVuSans-105"/>
      <use x="969.087891" xlink:href="#DejaVuSans-101"/>
     </g>
    </g>
    <g id="line2d_69">
     <path d="M 756.88076 117.644233 
L 773.54076 117.644233 
" style="fill:none;stroke:#e7298a;stroke-dasharray:8,4,2,4;stroke-dashoffset:0;"/>
    </g>
    <g id="line2d_70"/>
    <g id="text_17">
     <!-- Ping (ms) - BBRn-cake -->
     <g transform="translate(780.20476 120.559733)scale(0.0833 -0.0833)">
      <defs>
       <path d="M 9.078125 75.984375 
L 18.109375 75.984375 
L 18.109375 31.109375 
L 44.921875 54.6875 
L 56.390625 54.6875 
L 27.390625 29.109375 
L 57.625 0 
L 45.90625 0 
L 18.109375 26.703125 
L 18.109375 0 
L 9.078125 0 
z
" id="DejaVuSans-107"/>
      </defs>
      <use xlink:href="#DejaVuSans-80"/>
      <use x="58.052734" xlink:href="#DejaVuSans-105"/>
      <use x="85.835938" xlink:href="#DejaVuSans-110"/>
      <use x="149.214844" xlink:href="#DejaVuSans-103"/>
      <use x="212.691406" xlink:href="#DejaVuSans-32"/>
      <use x="244.478516" xlink:href="#DejaVuSans-40"/>
      <use x="283.492188" xlink:href="#DejaVuSans-109"/>
      <use x="380.904297" xlink:href="#DejaVuSans-115"/>
      <use x="433.003906" xlink:href="#DejaVuSans-41"/>
      <use x="472.017578" xlink:href="#DejaVuSans-32"/>
      <use x="503.804688" xlink:href="#DejaVuSans-45"/>
      <use x="539.888672" xlink:href="#DejaVuSans-32"/>
      <use x="571.675781" xlink:href="#DejaVuSans-66"/>
      <use x="640.279297" xlink:href="#DejaVuSans-66"/>
      <use x="708.882812" xlink:href="#DejaVuSans-82"/>
      <use x="778.365234" xlink:href="#DejaVuSans-110"/>
      <use x="841.744141" xlink:href="#DejaVuSans-45"/>
      <use x="877.828125" xlink:href="#DejaVuSans-99"/>
      <use x="932.808594" xlink:href="#DejaVuSans-97"/>
      <use x="994.087891" xlink:href="#DejaVuSans-107"/>
      <use x="1048.373047" xlink:href="#DejaVuSans-101"/>
     </g>
    </g>
    <g id="line2d_71">
     <path d="M 756.88076 129.871111 
L 773.54076 129.871111 
" style="fill:none;stroke:#66a61e;stroke-linecap:round;"/>
    </g>
    <g id="line2d_72">
     <g>
      <use style="fill:#66a61e;stroke:#66a61e;" x="765.21076" xlink:href="#mc5a5cff874" y="129.871111"/>
     </g>
    </g>
    <g id="text_18">
     <!-- Ping (ms) - BBRn-fq_codel -->
     <g transform="translate(780.20476 132.786611)scale(0.0833 -0.0833)">
      <defs>
       <path d="M 50.984375 -16.609375 
L 50.984375 -23.578125 
L -0.984375 -23.578125 
L -0.984375 -16.609375 
z
" id="DejaVuSans-95"/>
      </defs>
      <use xlink:href="#DejaVuSans-80"/>
      <use x="58.052734" xlink:href="#DejaVuSans-105"/>
      <use x="85.835938" xlink:href="#DejaVuSans-110"/>
      <use x="149.214844" xlink:href="#DejaVuSans-103"/>
      <use x="212.691406" xlink:href="#DejaVuSans-32"/>
      <use x="244.478516" xlink:href="#DejaVuSans-40"/>
      <use x="283.492188" xlink:href="#DejaVuSans-109"/>
      <use x="380.904297" xlink:href="#DejaVuSans-115"/>
      <use x="433.003906" xlink:href="#DejaVuSans-41"/>
      <use x="472.017578" xlink:href="#DejaVuSans-32"/>
      <use x="503.804688" xlink:href="#DejaVuSans-45"/>
      <use x="539.888672" xlink:href="#DejaVuSans-32"/>
      <use x="571.675781" xlink:href="#DejaVuSans-66"/>
      <use x="640.279297" xlink:href="#DejaVuSans-66"/>
      <use x="708.882812" xlink:href="#DejaVuSans-82"/>
      <use x="778.365234" xlink:href="#DejaVuSans-110"/>
      <use x="841.744141" xlink:href="#DejaVuSans-45"/>
      <use x="877.828125" xlink:href="#DejaVuSans-102"/>
      <use x="913.033203" xlink:href="#DejaVuSans-113"/>
      <use x="976.509766" xlink:href="#DejaVuSans-95"/>
      <use x="1026.509766" xlink:href="#DejaVuSans-99"/>
      <use x="1081.490234" xlink:href="#DejaVuSans-111"/>
      <use x="1142.671875" xlink:href="#DejaVuSans-100"/>
      <use x="1206.148438" xlink:href="#DejaVuSans-101"/>
      <use x="1267.671875" xlink:href="#DejaVuSans-108"/>
     </g>
    </g>
   </g>
  </g>
  <g id="text_19">
   <!-- TCP upload - 12 streams w/ping -->
   <g transform="translate(377.624687 15.791812)scale(0.14 -0.14)">
    <defs>
     <path d="M -0.296875 72.90625 
L 61.375 72.90625 
L 61.375 64.59375 
L 35.5 64.59375 
L 35.5 0 
L 25.59375 0 
L 25.59375 64.59375 
L -0.296875 64.59375 
z
" id="DejaVuSans-84"/>
     <path d="M 4.203125 54.6875 
L 13.1875 54.6875 
L 24.421875 12.015625 
L 35.59375 54.6875 
L 46.1875 54.6875 
L 57.421875 12.015625 
L 68.609375 54.6875 
L 77.59375 54.6875 
L 63.28125 0 
L 52.6875 0 
L 40.921875 44.828125 
L 29.109375 0 
L 18.5 0 
z
" id="DejaVuSans-119"/>
     <path d="M 25.390625 72.90625 
L 33.6875 72.90625 
L 8.296875 -9.28125 
L 0 -9.28125 
z
" id="DejaVuSans-47"/>
    </defs>
    <use xlink:href="#DejaVuSans-84"/>
    <use x="55.208984" xlink:href="#DejaVuSans-67"/>
    <use x="125.033203" xlink:href="#DejaVuSans-80"/>
    <use x="185.335938" xlink:href="#DejaVuSans-32"/>
    <use x="217.123047" xlink:href="#DejaVuSans-117"/>
    <use x="280.501953" xlink:href="#DejaVuSans-112"/>
    <use x="343.978516" xlink:href="#DejaVuSans-108"/>
    <use x="371.761719" xlink:href="#DejaVuSans-111"/>
    <use x="432.943359" xlink:href="#DejaVuSans-97"/>
    <use x="494.222656" xlink:href="#DejaVuSans-100"/>
    <use x="557.699219" xlink:href="#DejaVuSans-32"/>
    <use x="589.486328" xlink:href="#DejaVuSans-45"/>
    <use x="625.570312" xlink:href="#DejaVuSans-32"/>
    <use x="657.357422" xlink:href="#DejaVuSans-49"/>
    <use x="720.980469" xlink:href="#DejaVuSans-50"/>
    <use x="784.603516" xlink:href="#DejaVuSans-32"/>
    <use x="816.390625" xlink:href="#DejaVuSans-115"/>
    <use x="868.490234" xlink:href="#DejaVuSans-116"/>
    <use x="907.699219" xlink:href="#DejaVuSans-114"/>
    <use x="946.5625" xlink:href="#DejaVuSans-101"/>
    <use x="1008.085938" xlink:href="#DejaVuSans-97"/>
    <use x="1069.365234" xlink:href="#DejaVuSans-109"/>
    <use x="1166.777344" xlink:href="#DejaVuSans-115"/>
    <use x="1218.876953" xlink:href="#DejaVuSans-32"/>
    <use x="1250.664062" xlink:href="#DejaVuSans-119"/>
    <use x="1332.451172" xlink:href="#DejaVuSans-47"/>
    <use x="1366.142578" xlink:href="#DejaVuSans-112"/>
    <use x="1429.619141" xlink:href="#DejaVuSans-105"/>
    <use x="1457.402344" xlink:href="#DejaVuSans-110"/>
    <use x="1520.78125" xlink:href="#DejaVuSans-103"/>
   </g>
   <!-- Ping CDF plot -->
   <g transform="translate(441.4625 31.46875)scale(0.14 -0.14)">
    <defs>
     <path d="M 19.671875 64.796875 
L 19.671875 8.109375 
L 31.59375 8.109375 
Q 46.6875 8.109375 53.6875 14.9375 
Q 60.6875 21.78125 60.6875 36.53125 
Q 60.6875 51.171875 53.6875 57.984375 
Q 46.6875 64.796875 31.59375 64.796875 
z
M 9.8125 72.90625 
L 30.078125 72.90625 
Q 51.265625 72.90625 61.171875 64.09375 
Q 71.09375 55.28125 71.09375 36.53125 
Q 71.09375 17.671875 61.125 8.828125 
Q 51.171875 0 30.078125 0 
L 9.8125 0 
z
" id="DejaVuSans-68"/>
     <path d="M 9.8125 72.90625 
L 51.703125 72.90625 
L 51.703125 64.59375 
L 19.671875 64.59375 
L 19.671875 43.109375 
L 48.578125 43.109375 
L 48.578125 34.8125 
L 19.671875 34.8125 
L 19.671875 0 
L 9.8125 0 
z
" id="DejaVuSans-70"/>
    </defs>
    <use xlink:href="#DejaVuSans-80"/>
    <use x="58.052734" xlink:href="#DejaVuSans-105"/>
    <use x="85.835938" xlink:href="#DejaVuSans-110"/>
    <use x="149.214844" xlink:href="#DejaVuSans-103"/>
    <use x="212.691406" xlink:href="#DejaVuSans-32"/>
    <use x="244.478516" xlink:href="#DejaVuSans-67"/>
    <use x="314.302734" xlink:href="#DejaVuSans-68"/>
    <use x="391.304688" xlink:href="#DejaVuSans-70"/>
    <use x="448.824219" xlink:href="#DejaVuSans-32"/>
    <use x="480.611328" xlink:href="#DejaVuSans-112"/>
    <use x="544.087891" xlink:href="#DejaVuSans-108"/>
    <use x="571.871094" xlink:href="#DejaVuSans-111"/>
    <use x="633.052734" xlink:href="#DejaVuSans-116"/>
   </g>
  </g>
 </g>
 <defs>
  <clipPath id="paf7eaf2879">
   <rect height="476.2296" width="619.038" x="122.13" y="74.2176"/>
  </clipPath>
 </defs>
</svg>
