<?xml version="1.0" encoding="utf-8" standalone="no"?>
<!DOCTYPE svg PUBLIC "-//W3C//DTD SVG 1.1//EN"
  "http://www.w3.org/Graphics/SVG/1.1/DTD/svg11.dtd">
<!-- Created with matplotlib (https://matplotlib.org/) -->
<svg height="484.054pt" version="1.1" viewBox="0 0 404.60125 484.054" width="404.60125pt" xmlns="http://www.w3.org/2000/svg" xmlns:xlink="http://www.w3.org/1999/xlink">
 <metadata>
  <rdf:RDF xmlns:cc="http://creativecommons.org/ns#" xmlns:dc="http://purl.org/dc/elements/1.1/" xmlns:rdf="http://www.w3.org/1999/02/22-rdf-syntax-ns#">
   <cc:Work>
    <dc:type rdf:resource="http://purl.org/dc/dcmitype/StillImage"/>
    <dc:date>2023-09-19T10:10:39.595034</dc:date>
    <dc:format>image/svg+xml</dc:format>
    <dc:creator>
     <cc:Agent>
      <dc:title>Matplotlib v3.3.4, https://matplotlib.org/</dc:title>
     </cc:Agent>
    </dc:creator>
   </cc:Work>
  </rdf:RDF>
 </metadata>
 <defs>
  <style type="text/css">*{stroke-linecap:butt;stroke-linejoin:round;}</style>
 </defs>
 <g id="figure_1">
  <g id="patch_1">
   <path d="M 0 484.054 
L 404.60125 484.054 
L 404.60125 0 
L 0 0 
z
" style="fill:#ffffff;"/>
  </g>
  <g id="axes_1">
   <g id="patch_2">
    <path d="M 40.28125 311.904 
L 397.40125 311.904 
L 397.40125 45.792 
L 40.28125 45.792 
z
" style="fill:#e6e6e6;"/>
   </g>
   <g id="matplotlib.axis_1">
    <g id="xtick_1">
     <g id="line2d_1"/>
     <g id="text_1">
      <!-- 19T095806BBRn-fq (n=1) -->
      <g transform="translate(72.800625 444.957125)rotate(-90)scale(0.1 -0.1)">
       <defs>
        <path d="M 12.40625 8.296875 
L 28.515625 8.296875 
L 28.515625 63.921875 
L 10.984375 60.40625 
L 10.984375 69.390625 
L 28.421875 72.90625 
L 38.28125 72.90625 
L 38.28125 8.296875 
L 54.390625 8.296875 
L 54.390625 0 
L 12.40625 0 
z
" id="DejaVuSans-49"/>
        <path d="M 10.984375 1.515625 
L 10.984375 10.5 
Q 14.703125 8.734375 18.5 7.8125 
Q 22.3125 6.890625 25.984375 6.890625 
Q 35.75 6.890625 40.890625 13.453125 
Q 46.046875 20.015625 46.78125 33.40625 
Q 43.953125 29.203125 39.59375 26.953125 
Q 35.25 24.703125 29.984375 24.703125 
Q 19.046875 24.703125 12.671875 31.3125 
Q 6.296875 37.9375 6.296875 49.421875 
Q 6.296875 60.640625 12.9375 67.421875 
Q 19.578125 74.21875 30.609375 74.21875 
Q 43.265625 74.21875 49.921875 64.515625 
Q 56.59375 54.828125 56.59375 36.375 
Q 56.59375 19.140625 48.40625 8.859375 
Q 40.234375 -1.421875 26.421875 -1.421875 
Q 22.703125 -1.421875 18.890625 -0.6875 
Q 15.09375 0.046875 10.984375 1.515625 
z
M 30.609375 32.421875 
Q 37.25 32.421875 41.125 36.953125 
Q 45.015625 41.5 45.015625 49.421875 
Q 45.015625 57.28125 41.125 61.84375 
Q 37.25 66.40625 30.609375 66.40625 
Q 23.96875 66.40625 20.09375 61.84375 
Q 16.21875 57.28125 16.21875 49.421875 
Q 16.21875 41.5 20.09375 36.953125 
Q 23.96875 32.421875 30.609375 32.421875 
z
" id="DejaVuSans-57"/>
        <path d="M -0.296875 72.90625 
L 61.375 72.90625 
L 61.375 64.59375 
L 35.5 64.59375 
L 35.5 0 
L 25.59375 0 
L 25.59375 64.59375 
L -0.296875 64.59375 
z
" id="DejaVuSans-84"/>
        <path d="M 31.78125 66.40625 
Q 24.171875 66.40625 20.328125 58.90625 
Q 16.5 51.421875 16.5 36.375 
Q 16.5 21.390625 20.328125 13.890625 
Q 24.171875 6.390625 31.78125 6.390625 
Q 39.453125 6.390625 43.28125 13.890625 
Q 47.125 21.390625 47.125 36.375 
Q 47.125 51.421875 43.28125 58.90625 
Q 39.453125 66.40625 31.78125 66.40625 
z
M 31.78125 74.21875 
Q 44.046875 74.21875 50.515625 64.515625 
Q 56.984375 54.828125 56.984375 36.375 
Q 56.984375 17.96875 50.515625 8.265625 
Q 44.046875 -1.421875 31.78125 -1.421875 
Q 19.53125 -1.421875 13.0625 8.265625 
Q 6.59375 17.96875 6.59375 36.375 
Q 6.59375 54.828125 13.0625 64.515625 
Q 19.53125 74.21875 31.78125 74.21875 
z
" id="DejaVuSans-48"/>
        <path d="M 10.796875 72.90625 
L 49.515625 72.90625 
L 49.515625 64.59375 
L 19.828125 64.59375 
L 19.828125 46.734375 
Q 21.96875 47.46875 24.109375 47.828125 
Q 26.265625 48.1875 28.421875 48.1875 
Q 40.625 48.1875 47.75 41.5 
Q 54.890625 34.8125 54.890625 23.390625 
Q 54.890625 11.625 47.5625 5.09375 
Q 40.234375 -1.421875 26.90625 -1.421875 
Q 22.3125 -1.421875 17.546875 -0.640625 
Q 12.796875 0.140625 7.71875 1.703125 
L 7.71875 11.625 
Q 12.109375 9.234375 16.796875 8.0625 
Q 21.484375 6.890625 26.703125 6.890625 
Q 35.15625 6.890625 40.078125 11.328125 
Q 45.015625 15.765625 45.015625 23.390625 
Q 45.015625 31 40.078125 35.4375 
Q 35.15625 39.890625 26.703125 39.890625 
Q 22.75 39.890625 18.8125 39.015625 
Q 14.890625 38.140625 10.796875 36.28125 
z
" id="DejaVuSans-53"/>
        <path d="M 31.78125 34.625 
Q 24.75 34.625 20.71875 30.859375 
Q 16.703125 27.09375 16.703125 20.515625 
Q 16.703125 13.921875 20.71875 10.15625 
Q 24.75 6.390625 31.78125 6.390625 
Q 38.8125 6.390625 42.859375 10.171875 
Q 46.921875 13.96875 46.921875 20.515625 
Q 46.921875 27.09375 42.890625 30.859375 
Q 38.875 34.625 31.78125 34.625 
z
M 21.921875 38.8125 
Q 15.578125 40.375 12.03125 44.71875 
Q 8.5 49.078125 8.5 55.328125 
Q 8.5 64.0625 14.71875 69.140625 
Q 20.953125 74.21875 31.78125 74.21875 
Q 42.671875 74.21875 48.875 69.140625 
Q 55.078125 64.0625 55.078125 55.328125 
Q 55.078125 49.078125 51.53125 44.71875 
Q 48 40.375 41.703125 38.8125 
Q 48.828125 37.15625 52.796875 32.3125 
Q 56.78125 27.484375 56.78125 20.515625 
Q 56.78125 9.90625 50.3125 4.234375 
Q 43.84375 -1.421875 31.78125 -1.421875 
Q 19.734375 -1.421875 13.25 4.234375 
Q 6.78125 9.90625 6.78125 20.515625 
Q 6.78125 27.484375 10.78125 32.3125 
Q 14.796875 37.15625 21.921875 38.8125 
z
M 18.3125 54.390625 
Q 18.3125 48.734375 21.84375 45.5625 
Q 25.390625 42.390625 31.78125 42.390625 
Q 38.140625 42.390625 41.71875 45.5625 
Q 45.3125 48.734375 45.3125 54.390625 
Q 45.3125 60.0625 41.71875 63.234375 
Q 38.140625 66.40625 31.78125 66.40625 
Q 25.390625 66.40625 21.84375 63.234375 
Q 18.3125 60.0625 18.3125 54.390625 
z
" id="DejaVuSans-56"/>
        <path d="M 33.015625 40.375 
Q 26.375 40.375 22.484375 35.828125 
Q 18.609375 31.296875 18.609375 23.390625 
Q 18.609375 15.53125 22.484375 10.953125 
Q 26.375 6.390625 33.015625 6.390625 
Q 39.65625 6.390625 43.53125 10.953125 
Q 47.40625 15.53125 47.40625 23.390625 
Q 47.40625 31.296875 43.53125 35.828125 
Q 39.65625 40.375 33.015625 40.375 
z
M 52.59375 71.296875 
L 52.59375 62.3125 
Q 48.875 64.0625 45.09375 64.984375 
Q 41.3125 65.921875 37.59375 65.921875 
Q 27.828125 65.921875 22.671875 59.328125 
Q 17.53125 52.734375 16.796875 39.40625 
Q 19.671875 43.65625 24.015625 45.921875 
Q 28.375 48.1875 33.59375 48.1875 
Q 44.578125 48.1875 50.953125 41.515625 
Q 57.328125 34.859375 57.328125 23.390625 
Q 57.328125 12.15625 50.6875 5.359375 
Q 44.046875 -1.421875 33.015625 -1.421875 
Q 20.359375 -1.421875 13.671875 8.265625 
Q 6.984375 17.96875 6.984375 36.375 
Q 6.984375 53.65625 15.1875 63.9375 
Q 23.390625 74.21875 37.203125 74.21875 
Q 40.921875 74.21875 44.703125 73.484375 
Q 48.484375 72.75 52.59375 71.296875 
z
" id="DejaVuSans-54"/>
        <path d="M 19.671875 34.8125 
L 19.671875 8.109375 
L 35.5 8.109375 
Q 43.453125 8.109375 47.28125 11.40625 
Q 51.125 14.703125 51.125 21.484375 
Q 51.125 28.328125 47.28125 31.5625 
Q 43.453125 34.8125 35.5 34.8125 
z
M 19.671875 64.796875 
L 19.671875 42.828125 
L 34.28125 42.828125 
Q 41.5 42.828125 45.03125 45.53125 
Q 48.578125 48.25 48.578125 53.8125 
Q 48.578125 59.328125 45.03125 62.0625 
Q 41.5 64.796875 34.28125 64.796875 
z
M 9.8125 72.90625 
L 35.015625 72.90625 
Q 46.296875 72.90625 52.390625 68.21875 
Q 58.5 63.53125 58.5 54.890625 
Q 58.5 48.1875 55.375 44.234375 
Q 52.25 40.28125 46.1875 39.3125 
Q 53.46875 37.75 57.5 32.78125 
Q 61.53125 27.828125 61.53125 20.40625 
Q 61.53125 10.640625 54.890625 5.3125 
Q 48.25 0 35.984375 0 
L 9.8125 0 
z
" id="DejaVuSans-66"/>
        <path d="M 44.390625 34.1875 
Q 47.5625 33.109375 50.5625 29.59375 
Q 53.5625 26.078125 56.59375 19.921875 
L 66.609375 0 
L 56 0 
L 46.6875 18.703125 
Q 43.0625 26.03125 39.671875 28.421875 
Q 36.28125 30.8125 30.421875 30.8125 
L 19.671875 30.8125 
L 19.671875 0 
L 9.8125 0 
L 9.8125 72.90625 
L 32.078125 72.90625 
Q 44.578125 72.90625 50.734375 67.671875 
Q 56.890625 62.453125 56.890625 51.90625 
Q 56.890625 45.015625 53.6875 40.46875 
Q 50.484375 35.9375 44.390625 34.1875 
z
M 19.671875 64.796875 
L 19.671875 38.921875 
L 32.078125 38.921875 
Q 39.203125 38.921875 42.84375 42.21875 
Q 46.484375 45.515625 46.484375 51.90625 
Q 46.484375 58.296875 42.84375 61.546875 
Q 39.203125 64.796875 32.078125 64.796875 
z
" id="DejaVuSans-82"/>
        <path d="M 54.890625 33.015625 
L 54.890625 0 
L 45.90625 0 
L 45.90625 32.71875 
Q 45.90625 40.484375 42.875 44.328125 
Q 39.84375 48.1875 33.796875 48.1875 
Q 26.515625 48.1875 22.3125 43.546875 
Q 18.109375 38.921875 18.109375 30.90625 
L 18.109375 0 
L 9.078125 0 
L 9.078125 54.6875 
L 18.109375 54.6875 
L 18.109375 46.1875 
Q 21.34375 51.125 25.703125 53.5625 
Q 30.078125 56 35.796875 56 
Q 45.21875 56 50.046875 50.171875 
Q 54.890625 44.34375 54.890625 33.015625 
z
" id="DejaVuSans-110"/>
        <path d="M 4.890625 31.390625 
L 31.203125 31.390625 
L 31.203125 23.390625 
L 4.890625 23.390625 
z
" id="DejaVuSans-45"/>
        <path d="M 37.109375 75.984375 
L 37.109375 68.5 
L 28.515625 68.5 
Q 23.6875 68.5 21.796875 66.546875 
Q 19.921875 64.59375 19.921875 59.515625 
L 19.921875 54.6875 
L 34.71875 54.6875 
L 34.71875 47.703125 
L 19.921875 47.703125 
L 19.921875 0 
L 10.890625 0 
L 10.890625 47.703125 
L 2.296875 47.703125 
L 2.296875 54.6875 
L 10.890625 54.6875 
L 10.890625 58.5 
Q 10.890625 67.625 15.140625 71.796875 
Q 19.390625 75.984375 28.609375 75.984375 
z
" id="DejaVuSans-102"/>
        <path d="M 14.796875 27.296875 
Q 14.796875 17.390625 18.875 11.75 
Q 22.953125 6.109375 30.078125 6.109375 
Q 37.203125 6.109375 41.296875 11.75 
Q 45.40625 17.390625 45.40625 27.296875 
Q 45.40625 37.203125 41.296875 42.84375 
Q 37.203125 48.484375 30.078125 48.484375 
Q 22.953125 48.484375 18.875 42.84375 
Q 14.796875 37.203125 14.796875 27.296875 
z
M 45.40625 8.203125 
Q 42.578125 3.328125 38.25 0.953125 
Q 33.9375 -1.421875 27.875 -1.421875 
Q 17.96875 -1.421875 11.734375 6.484375 
Q 5.515625 14.40625 5.515625 27.296875 
Q 5.515625 40.1875 11.734375 48.09375 
Q 17.96875 56 27.875 56 
Q 33.9375 56 38.25 53.625 
Q 42.578125 51.265625 45.40625 46.390625 
L 45.40625 54.6875 
L 54.390625 54.6875 
L 54.390625 -20.796875 
L 45.40625 -20.796875 
z
" id="DejaVuSans-113"/>
        <path id="DejaVuSans-32"/>
        <path d="M 31 75.875 
Q 24.46875 64.65625 21.28125 53.65625 
Q 18.109375 42.671875 18.109375 31.390625 
Q 18.109375 20.125 21.3125 9.0625 
Q 24.515625 -2 31 -13.1875 
L 23.1875 -13.1875 
Q 15.875 -1.703125 12.234375 9.375 
Q 8.59375 20.453125 8.59375 31.390625 
Q 8.59375 42.28125 12.203125 53.3125 
Q 15.828125 64.359375 23.1875 75.875 
z
" id="DejaVuSans-40"/>
        <path d="M 10.59375 45.40625 
L 73.1875 45.40625 
L 73.1875 37.203125 
L 10.59375 37.203125 
z
M 10.59375 25.484375 
L 73.1875 25.484375 
L 73.1875 17.1875 
L 10.59375 17.1875 
z
" id="DejaVuSans-61"/>
        <path d="M 8.015625 75.875 
L 15.828125 75.875 
Q 23.140625 64.359375 26.78125 53.3125 
Q 30.421875 42.28125 30.421875 31.390625 
Q 30.421875 20.453125 26.78125 9.375 
Q 23.140625 -1.703125 15.828125 -13.1875 
L 8.015625 -13.1875 
Q 14.5 -2 17.703125 9.0625 
Q 20.90625 20.125 20.90625 31.390625 
Q 20.90625 42.671875 17.703125 53.65625 
Q 14.5 64.65625 8.015625 75.875 
z
" id="DejaVuSans-41"/>
       </defs>
       <use xlink:href="#DejaVuSans-49"/>
       <use x="63.623047" xlink:href="#DejaVuSans-57"/>
       <use x="127.246094" xlink:href="#DejaVuSans-84"/>
       <use x="188.330078" xlink:href="#DejaVuSans-48"/>
       <use x="251.953125" xlink:href="#DejaVuSans-57"/>
       <use x="315.576172" xlink:href="#DejaVuSans-53"/>
       <use x="379.199219" xlink:href="#DejaVuSans-56"/>
       <use x="442.822266" xlink:href="#DejaVuSans-48"/>
       <use x="506.445312" xlink:href="#DejaVuSans-54"/>
       <use x="570.068359" xlink:href="#DejaVuSans-66"/>
       <use x="638.671875" xlink:href="#DejaVuSans-66"/>
       <use x="707.275391" xlink:href="#DejaVuSans-82"/>
       <use x="776.757812" xlink:href="#DejaVuSans-110"/>
       <use x="840.136719" xlink:href="#DejaVuSans-45"/>
       <use x="876.220703" xlink:href="#DejaVuSans-102"/>
       <use x="911.425781" xlink:href="#DejaVuSans-113"/>
       <use x="974.902344" xlink:href="#DejaVuSans-32"/>
       <use x="1006.689453" xlink:href="#DejaVuSans-40"/>
       <use x="1045.703125" xlink:href="#DejaVuSans-110"/>
       <use x="1109.082031" xlink:href="#DejaVuSans-61"/>
       <use x="1192.871094" xlink:href="#DejaVuSans-49"/>
       <use x="1256.494141" xlink:href="#DejaVuSans-41"/>
      </g>
     </g>
    </g>
    <g id="xtick_2">
     <g id="line2d_2"/>
     <g id="text_2">
      <!-- 19T100006BBRn-codel (n=1) -->
      <g transform="translate(102.560625 461.98525)rotate(-90)scale(0.1 -0.1)">
       <defs>
        <path d="M 48.78125 52.59375 
L 48.78125 44.1875 
Q 44.96875 46.296875 41.140625 47.34375 
Q 37.3125 48.390625 33.40625 48.390625 
Q 24.65625 48.390625 19.8125 42.84375 
Q 14.984375 37.3125 14.984375 27.296875 
Q 14.984375 17.28125 19.8125 11.734375 
Q 24.65625 6.203125 33.40625 6.203125 
Q 37.3125 6.203125 41.140625 7.25 
Q 44.96875 8.296875 48.78125 10.40625 
L 48.78125 2.09375 
Q 45.015625 0.34375 40.984375 -0.53125 
Q 36.96875 -1.421875 32.421875 -1.421875 
Q 20.0625 -1.421875 12.78125 6.34375 
Q 5.515625 14.109375 5.515625 27.296875 
Q 5.515625 40.671875 12.859375 48.328125 
Q 20.21875 56 33.015625 56 
Q 37.15625 56 41.109375 55.140625 
Q 45.0625 54.296875 48.78125 52.59375 
z
" id="DejaVuSans-99"/>
        <path d="M 30.609375 48.390625 
Q 23.390625 48.390625 19.1875 42.75 
Q 14.984375 37.109375 14.984375 27.296875 
Q 14.984375 17.484375 19.15625 11.84375 
Q 23.34375 6.203125 30.609375 6.203125 
Q 37.796875 6.203125 41.984375 11.859375 
Q 46.1875 17.53125 46.1875 27.296875 
Q 46.1875 37.015625 41.984375 42.703125 
Q 37.796875 48.390625 30.609375 48.390625 
z
M 30.609375 56 
Q 42.328125 56 49.015625 48.375 
Q 55.71875 40.765625 55.71875 27.296875 
Q 55.71875 13.875 49.015625 6.21875 
Q 42.328125 -1.421875 30.609375 -1.421875 
Q 18.84375 -1.421875 12.171875 6.21875 
Q 5.515625 13.875 5.515625 27.296875 
Q 5.515625 40.765625 12.171875 48.375 
Q 18.84375 56 30.609375 56 
z
" id="DejaVuSans-111"/>
        <path d="M 45.40625 46.390625 
L 45.40625 75.984375 
L 54.390625 75.984375 
L 54.390625 0 
L 45.40625 0 
L 45.40625 8.203125 
Q 42.578125 3.328125 38.25 0.953125 
Q 33.9375 -1.421875 27.875 -1.421875 
Q 17.96875 -1.421875 11.734375 6.484375 
Q 5.515625 14.40625 5.515625 27.296875 
Q 5.515625 40.1875 11.734375 48.09375 
Q 17.96875 56 27.875 56 
Q 33.9375 56 38.25 53.625 
Q 42.578125 51.265625 45.40625 46.390625 
z
M 14.796875 27.296875 
Q 14.796875 17.390625 18.875 11.75 
Q 22.953125 6.109375 30.078125 6.109375 
Q 37.203125 6.109375 41.296875 11.75 
Q 45.40625 17.390625 45.40625 27.296875 
Q 45.40625 37.203125 41.296875 42.84375 
Q 37.203125 48.484375 30.078125 48.484375 
Q 22.953125 48.484375 18.875 42.84375 
Q 14.796875 37.203125 14.796875 27.296875 
z
" id="DejaVuSans-100"/>
        <path d="M 56.203125 29.59375 
L 56.203125 25.203125 
L 14.890625 25.203125 
Q 15.484375 15.921875 20.484375 11.0625 
Q 25.484375 6.203125 34.421875 6.203125 
Q 39.59375 6.203125 44.453125 7.46875 
Q 49.3125 8.734375 54.109375 11.28125 
L 54.109375 2.78125 
Q 49.265625 0.734375 44.1875 -0.34375 
Q 39.109375 -1.421875 33.890625 -1.421875 
Q 20.796875 -1.421875 13.15625 6.1875 
Q 5.515625 13.8125 5.515625 26.8125 
Q 5.515625 40.234375 12.765625 48.109375 
Q 20.015625 56 32.328125 56 
Q 43.359375 56 49.78125 48.890625 
Q 56.203125 41.796875 56.203125 29.59375 
z
M 47.21875 32.234375 
Q 47.125 39.59375 43.09375 43.984375 
Q 39.0625 48.390625 32.421875 48.390625 
Q 24.90625 48.390625 20.390625 44.140625 
Q 15.875 39.890625 15.1875 32.171875 
z
" id="DejaVuSans-101"/>
        <path d="M 9.421875 75.984375 
L 18.40625 75.984375 
L 18.40625 0 
L 9.421875 0 
z
" id="DejaVuSans-108"/>
       </defs>
       <use xlink:href="#DejaVuSans-49"/>
       <use x="63.623047" xlink:href="#DejaVuSans-57"/>
       <use x="127.246094" xlink:href="#DejaVuSans-84"/>
       <use x="188.330078" xlink:href="#DejaVuSans-49"/>
       <use x="251.953125" xlink:href="#DejaVuSans-48"/>
       <use x="315.576172" xlink:href="#DejaVuSans-48"/>
       <use x="379.199219" xlink:href="#DejaVuSans-48"/>
       <use x="442.822266" xlink:href="#DejaVuSans-48"/>
       <use x="506.445312" xlink:href="#DejaVuSans-54"/>
       <use x="570.068359" xlink:href="#DejaVuSans-66"/>
       <use x="638.671875" xlink:href="#DejaVuSans-66"/>
       <use x="707.275391" xlink:href="#DejaVuSans-82"/>
       <use x="776.757812" xlink:href="#DejaVuSans-110"/>
       <use x="840.136719" xlink:href="#DejaVuSans-45"/>
       <use x="876.220703" xlink:href="#DejaVuSans-99"/>
       <use x="931.201172" xlink:href="#DejaVuSans-111"/>
       <use x="992.382812" xlink:href="#DejaVuSans-100"/>
       <use x="1055.859375" xlink:href="#DejaVuSans-101"/>
       <use x="1117.382812" xlink:href="#DejaVuSans-108"/>
       <use x="1145.166016" xlink:href="#DejaVuSans-32"/>
       <use x="1176.953125" xlink:href="#DejaVuSans-40"/>
       <use x="1215.966797" xlink:href="#DejaVuSans-110"/>
       <use x="1279.345703" xlink:href="#DejaVuSans-61"/>
       <use x="1363.134766" xlink:href="#DejaVuSans-49"/>
       <use x="1426.757812" xlink:href="#DejaVuSans-41"/>
      </g>
     </g>
    </g>
    <g id="xtick_3">
     <g id="line2d_3"/>
     <g id="text_3">
      <!-- 19T100247BBRn-cake (n=1) -->
      <g transform="translate(132.320625 458.296187)rotate(-90)scale(0.1 -0.1)">
       <defs>
        <path d="M 19.1875 8.296875 
L 53.609375 8.296875 
L 53.609375 0 
L 7.328125 0 
L 7.328125 8.296875 
Q 12.9375 14.109375 22.625 23.890625 
Q 32.328125 33.6875 34.8125 36.53125 
Q 39.546875 41.84375 41.421875 45.53125 
Q 43.3125 49.21875 43.3125 52.78125 
Q 43.3125 58.59375 39.234375 62.25 
Q 35.15625 65.921875 28.609375 65.921875 
Q 23.96875 65.921875 18.8125 64.3125 
Q 13.671875 62.703125 7.8125 59.421875 
L 7.8125 69.390625 
Q 13.765625 71.78125 18.9375 73 
Q 24.125 74.21875 28.421875 74.21875 
Q 39.75 74.21875 46.484375 68.546875 
Q 53.21875 62.890625 53.21875 53.421875 
Q 53.21875 48.921875 51.53125 44.890625 
Q 49.859375 40.875 45.40625 35.40625 
Q 44.1875 33.984375 37.640625 27.21875 
Q 31.109375 20.453125 19.1875 8.296875 
z
" id="DejaVuSans-50"/>
        <path d="M 37.796875 64.3125 
L 12.890625 25.390625 
L 37.796875 25.390625 
z
M 35.203125 72.90625 
L 47.609375 72.90625 
L 47.609375 25.390625 
L 58.015625 25.390625 
L 58.015625 17.1875 
L 47.609375 17.1875 
L 47.609375 0 
L 37.796875 0 
L 37.796875 17.1875 
L 4.890625 17.1875 
L 4.890625 26.703125 
z
" id="DejaVuSans-52"/>
        <path d="M 8.203125 72.90625 
L 55.078125 72.90625 
L 55.078125 68.703125 
L 28.609375 0 
L 18.3125 0 
L 43.21875 64.59375 
L 8.203125 64.59375 
z
" id="DejaVuSans-55"/>
        <path d="M 34.28125 27.484375 
Q 23.390625 27.484375 19.1875 25 
Q 14.984375 22.515625 14.984375 16.5 
Q 14.984375 11.71875 18.140625 8.90625 
Q 21.296875 6.109375 26.703125 6.109375 
Q 34.1875 6.109375 38.703125 11.40625 
Q 43.21875 16.703125 43.21875 25.484375 
L 43.21875 27.484375 
z
M 52.203125 31.203125 
L 52.203125 0 
L 43.21875 0 
L 43.21875 8.296875 
Q 40.140625 3.328125 35.546875 0.953125 
Q 30.953125 -1.421875 24.3125 -1.421875 
Q 15.921875 -1.421875 10.953125 3.296875 
Q 6 8.015625 6 15.921875 
Q 6 25.140625 12.171875 29.828125 
Q 18.359375 34.515625 30.609375 34.515625 
L 43.21875 34.515625 
L 43.21875 35.40625 
Q 43.21875 41.609375 39.140625 45 
Q 35.0625 48.390625 27.6875 48.390625 
Q 23 48.390625 18.546875 47.265625 
Q 14.109375 46.140625 10.015625 43.890625 
L 10.015625 52.203125 
Q 14.9375 54.109375 19.578125 55.046875 
Q 24.21875 56 28.609375 56 
Q 40.484375 56 46.34375 49.84375 
Q 52.203125 43.703125 52.203125 31.203125 
z
" id="DejaVuSans-97"/>
        <path d="M 9.078125 75.984375 
L 18.109375 75.984375 
L 18.109375 31.109375 
L 44.921875 54.6875 
L 56.390625 54.6875 
L 27.390625 29.109375 
L 57.625 0 
L 45.90625 0 
L 18.109375 26.703125 
L 18.109375 0 
L 9.078125 0 
z
" id="DejaVuSans-107"/>
       </defs>
       <use xlink:href="#DejaVuSans-49"/>
       <use x="63.623047" xlink:href="#DejaVuSans-57"/>
       <use x="127.246094" xlink:href="#DejaVuSans-84"/>
       <use x="188.330078" xlink:href="#DejaVuSans-49"/>
       <use x="251.953125" xlink:href="#DejaVuSans-48"/>
       <use x="315.576172" xlink:href="#DejaVuSans-48"/>
       <use x="379.199219" xlink:href="#DejaVuSans-50"/>
       <use x="442.822266" xlink:href="#DejaVuSans-52"/>
       <use x="506.445312" xlink:href="#DejaVuSans-55"/>
       <use x="570.068359" xlink:href="#DejaVuSans-66"/>
       <use x="638.671875" xlink:href="#DejaVuSans-66"/>
       <use x="707.275391" xlink:href="#DejaVuSans-82"/>
       <use x="776.757812" xlink:href="#DejaVuSans-110"/>
       <use x="840.136719" xlink:href="#DejaVuSans-45"/>
       <use x="876.220703" xlink:href="#DejaVuSans-99"/>
       <use x="931.201172" xlink:href="#DejaVuSans-97"/>
       <use x="992.480469" xlink:href="#DejaVuSans-107"/>
       <use x="1046.765625" xlink:href="#DejaVuSans-101"/>
       <use x="1108.289062" xlink:href="#DejaVuSans-32"/>
       <use x="1140.076172" xlink:href="#DejaVuSans-40"/>
       <use x="1179.089844" xlink:href="#DejaVuSans-110"/>
       <use x="1242.46875" xlink:href="#DejaVuSans-61"/>
       <use x="1326.257812" xlink:href="#DejaVuSans-49"/>
       <use x="1389.880859" xlink:href="#DejaVuSans-41"/>
      </g>
     </g>
    </g>
    <g id="xtick_4">
     <g id="line2d_4"/>
     <g id="text_4">
      <!-- 19T100428BBRn-pie (n=1) -->
      <g transform="translate(162.080625 450.368062)rotate(-90)scale(0.1 -0.1)">
       <defs>
        <path d="M 18.109375 8.203125 
L 18.109375 -20.796875 
L 9.078125 -20.796875 
L 9.078125 54.6875 
L 18.109375 54.6875 
L 18.109375 46.390625 
Q 20.953125 51.265625 25.265625 53.625 
Q 29.59375 56 35.59375 56 
Q 45.5625 56 51.78125 48.09375 
Q 58.015625 40.1875 58.015625 27.296875 
Q 58.015625 14.40625 51.78125 6.484375 
Q 45.5625 -1.421875 35.59375 -1.421875 
Q 29.59375 -1.421875 25.265625 0.953125 
Q 20.953125 3.328125 18.109375 8.203125 
z
M 48.6875 27.296875 
Q 48.6875 37.203125 44.609375 42.84375 
Q 40.53125 48.484375 33.40625 48.484375 
Q 26.265625 48.484375 22.1875 42.84375 
Q 18.109375 37.203125 18.109375 27.296875 
Q 18.109375 17.390625 22.1875 11.75 
Q 26.265625 6.109375 33.40625 6.109375 
Q 40.53125 6.109375 44.609375 11.75 
Q 48.6875 17.390625 48.6875 27.296875 
z
" id="DejaVuSans-112"/>
        <path d="M 9.421875 54.6875 
L 18.40625 54.6875 
L 18.40625 0 
L 9.421875 0 
z
M 9.421875 75.984375 
L 18.40625 75.984375 
L 18.40625 64.59375 
L 9.421875 64.59375 
z
" id="DejaVuSans-105"/>
       </defs>
       <use xlink:href="#DejaVuSans-49"/>
       <use x="63.623047" xlink:href="#DejaVuSans-57"/>
       <use x="127.246094" xlink:href="#DejaVuSans-84"/>
       <use x="188.330078" xlink:href="#DejaVuSans-49"/>
       <use x="251.953125" xlink:href="#DejaVuSans-48"/>
       <use x="315.576172" xlink:href="#DejaVuSans-48"/>
       <use x="379.199219" xlink:href="#DejaVuSans-52"/>
       <use x="442.822266" xlink:href="#DejaVuSans-50"/>
       <use x="506.445312" xlink:href="#DejaVuSans-56"/>
       <use x="570.068359" xlink:href="#DejaVuSans-66"/>
       <use x="638.671875" xlink:href="#DejaVuSans-66"/>
       <use x="707.275391" xlink:href="#DejaVuSans-82"/>
       <use x="776.757812" xlink:href="#DejaVuSans-110"/>
       <use x="840.136719" xlink:href="#DejaVuSans-45"/>
       <use x="876.220703" xlink:href="#DejaVuSans-112"/>
       <use x="939.697266" xlink:href="#DejaVuSans-105"/>
       <use x="967.480469" xlink:href="#DejaVuSans-101"/>
       <use x="1029.003906" xlink:href="#DejaVuSans-32"/>
       <use x="1060.791016" xlink:href="#DejaVuSans-40"/>
       <use x="1099.804688" xlink:href="#DejaVuSans-110"/>
       <use x="1163.183594" xlink:href="#DejaVuSans-61"/>
       <use x="1246.972656" xlink:href="#DejaVuSans-49"/>
       <use x="1310.595703" xlink:href="#DejaVuSans-41"/>
      </g>
     </g>
    </g>
    <g id="xtick_5">
     <g id="line2d_5"/>
     <g id="text_5">
      <!-- 19T100707BBRn-fq_codel (n=1) -->
      <g transform="translate(191.701563 476.854)rotate(-90)scale(0.1 -0.1)">
       <defs>
        <path d="M 50.984375 -16.609375 
L 50.984375 -23.578125 
L -0.984375 -23.578125 
L -0.984375 -16.609375 
z
" id="DejaVuSans-95"/>
       </defs>
       <use xlink:href="#DejaVuSans-49"/>
       <use x="63.623047" xlink:href="#DejaVuSans-57"/>
       <use x="127.246094" xlink:href="#DejaVuSans-84"/>
       <use x="188.330078" xlink:href="#DejaVuSans-49"/>
       <use x="251.953125" xlink:href="#DejaVuSans-48"/>
       <use x="315.576172" xlink:href="#DejaVuSans-48"/>
       <use x="379.199219" xlink:href="#DejaVuSans-55"/>
       <use x="442.822266" xlink:href="#DejaVuSans-48"/>
       <use x="506.445312" xlink:href="#DejaVuSans-55"/>
       <use x="570.068359" xlink:href="#DejaVuSans-66"/>
       <use x="638.671875" xlink:href="#DejaVuSans-66"/>
       <use x="707.275391" xlink:href="#DejaVuSans-82"/>
       <use x="776.757812" xlink:href="#DejaVuSans-110"/>
       <use x="840.136719" xlink:href="#DejaVuSans-45"/>
       <use x="876.220703" xlink:href="#DejaVuSans-102"/>
       <use x="911.425781" xlink:href="#DejaVuSans-113"/>
       <use x="974.902344" xlink:href="#DejaVuSans-95"/>
       <use x="1024.902344" xlink:href="#DejaVuSans-99"/>
       <use x="1079.882812" xlink:href="#DejaVuSans-111"/>
       <use x="1141.064453" xlink:href="#DejaVuSans-100"/>
       <use x="1204.541016" xlink:href="#DejaVuSans-101"/>
       <use x="1266.064453" xlink:href="#DejaVuSans-108"/>
       <use x="1293.847656" xlink:href="#DejaVuSans-32"/>
       <use x="1325.634766" xlink:href="#DejaVuSans-40"/>
       <use x="1364.648438" xlink:href="#DejaVuSans-110"/>
       <use x="1428.027344" xlink:href="#DejaVuSans-61"/>
       <use x="1511.816406" xlink:href="#DejaVuSans-49"/>
       <use x="1575.439453" xlink:href="#DejaVuSans-41"/>
      </g>
     </g>
    </g>
    <g id="xtick_6">
     <g id="line2d_6"/>
     <g id="text_6">
      <!-- 19T095806BBRn-fq (n=1) -->
      <g transform="translate(251.360625 444.957125)rotate(-90)scale(0.1 -0.1)">
       <use xlink:href="#DejaVuSans-49"/>
       <use x="63.623047" xlink:href="#DejaVuSans-57"/>
       <use x="127.246094" xlink:href="#DejaVuSans-84"/>
       <use x="188.330078" xlink:href="#DejaVuSans-48"/>
       <use x="251.953125" xlink:href="#DejaVuSans-57"/>
       <use x="315.576172" xlink:href="#DejaVuSans-53"/>
       <use x="379.199219" xlink:href="#DejaVuSans-56"/>
       <use x="442.822266" xlink:href="#DejaVuSans-48"/>
       <use x="506.445312" xlink:href="#DejaVuSans-54"/>
       <use x="570.068359" xlink:href="#DejaVuSans-66"/>
       <use x="638.671875" xlink:href="#DejaVuSans-66"/>
       <use x="707.275391" xlink:href="#DejaVuSans-82"/>
       <use x="776.757812" xlink:href="#DejaVuSans-110"/>
       <use x="840.136719" xlink:href="#DejaVuSans-45"/>
       <use x="876.220703" xlink:href="#DejaVuSans-102"/>
       <use x="911.425781" xlink:href="#DejaVuSans-113"/>
       <use x="974.902344" xlink:href="#DejaVuSans-32"/>
       <use x="1006.689453" xlink:href="#DejaVuSans-40"/>
       <use x="1045.703125" xlink:href="#DejaVuSans-110"/>
       <use x="1109.082031" xlink:href="#DejaVuSans-61"/>
       <use x="1192.871094" xlink:href="#DejaVuSans-49"/>
       <use x="1256.494141" xlink:href="#DejaVuSans-41"/>
      </g>
     </g>
    </g>
    <g id="xtick_7">
     <g id="line2d_7"/>
     <g id="text_7">
      <!-- 19T100006BBRn-codel (n=1) -->
      <g transform="translate(281.120625 461.98525)rotate(-90)scale(0.1 -0.1)">
       <use xlink:href="#DejaVuSans-49"/>
       <use x="63.623047" xlink:href="#DejaVuSans-57"/>
       <use x="127.246094" xlink:href="#DejaVuSans-84"/>
       <use x="188.330078" xlink:href="#DejaVuSans-49"/>
       <use x="251.953125" xlink:href="#DejaVuSans-48"/>
       <use x="315.576172" xlink:href="#DejaVuSans-48"/>
       <use x="379.199219" xlink:href="#DejaVuSans-48"/>
       <use x="442.822266" xlink:href="#DejaVuSans-48"/>
       <use x="506.445312" xlink:href="#DejaVuSans-54"/>
       <use x="570.068359" xlink:href="#DejaVuSans-66"/>
       <use x="638.671875" xlink:href="#DejaVuSans-66"/>
       <use x="707.275391" xlink:href="#DejaVuSans-82"/>
       <use x="776.757812" xlink:href="#DejaVuSans-110"/>
       <use x="840.136719" xlink:href="#DejaVuSans-45"/>
       <use x="876.220703" xlink:href="#DejaVuSans-99"/>
       <use x="931.201172" xlink:href="#DejaVuSans-111"/>
       <use x="992.382812" xlink:href="#DejaVuSans-100"/>
       <use x="1055.859375" xlink:href="#DejaVuSans-101"/>
       <use x="1117.382812" xlink:href="#DejaVuSans-108"/>
       <use x="1145.166016" xlink:href="#DejaVuSans-32"/>
       <use x="1176.953125" xlink:href="#DejaVuSans-40"/>
       <use x="1215.966797" xlink:href="#DejaVuSans-110"/>
       <use x="1279.345703" xlink:href="#DejaVuSans-61"/>
       <use x="1363.134766" xlink:href="#DejaVuSans-49"/>
       <use x="1426.757812" xlink:href="#DejaVuSans-41"/>
      </g>
     </g>
    </g>
    <g id="xtick_8">
     <g id="line2d_8"/>
     <g id="text_8">
      <!-- 19T100247BBRn-cake (n=1) -->
      <g transform="translate(310.880625 458.296187)rotate(-90)scale(0.1 -0.1)">
       <use xlink:href="#DejaVuSans-49"/>
       <use x="63.623047" xlink:href="#DejaVuSans-57"/>
       <use x="127.246094" xlink:href="#DejaVuSans-84"/>
       <use x="188.330078" xlink:href="#DejaVuSans-49"/>
       <use x="251.953125" xlink:href="#DejaVuSans-48"/>
       <use x="315.576172" xlink:href="#DejaVuSans-48"/>
       <use x="379.199219" xlink:href="#DejaVuSans-50"/>
       <use x="442.822266" xlink:href="#DejaVuSans-52"/>
       <use x="506.445312" xlink:href="#DejaVuSans-55"/>
       <use x="570.068359" xlink:href="#DejaVuSans-66"/>
       <use x="638.671875" xlink:href="#DejaVuSans-66"/>
       <use x="707.275391" xlink:href="#DejaVuSans-82"/>
       <use x="776.757812" xlink:href="#DejaVuSans-110"/>
       <use x="840.136719" xlink:href="#DejaVuSans-45"/>
       <use x="876.220703" xlink:href="#DejaVuSans-99"/>
       <use x="931.201172" xlink:href="#DejaVuSans-97"/>
       <use x="992.480469" xlink:href="#DejaVuSans-107"/>
       <use x="1046.765625" xlink:href="#DejaVuSans-101"/>
       <use x="1108.289062" xlink:href="#DejaVuSans-32"/>
       <use x="1140.076172" xlink:href="#DejaVuSans-40"/>
       <use x="1179.089844" xlink:href="#DejaVuSans-110"/>
       <use x="1242.46875" xlink:href="#DejaVuSans-61"/>
       <use x="1326.257812" xlink:href="#DejaVuSans-49"/>
       <use x="1389.880859" xlink:href="#DejaVuSans-41"/>
      </g>
     </g>
    </g>
    <g id="xtick_9">
     <g id="line2d_9"/>
     <g id="text_9">
      <!-- 19T100428BBRn-pie (n=1) -->
      <g transform="translate(340.640625 450.368062)rotate(-90)scale(0.1 -0.1)">
       <use xlink:href="#DejaVuSans-49"/>
       <use x="63.623047" xlink:href="#DejaVuSans-57"/>
       <use x="127.246094" xlink:href="#DejaVuSans-84"/>
       <use x="188.330078" xlink:href="#DejaVuSans-49"/>
       <use x="251.953125" xlink:href="#DejaVuSans-48"/>
       <use x="315.576172" xlink:href="#DejaVuSans-48"/>
       <use x="379.199219" xlink:href="#DejaVuSans-52"/>
       <use x="442.822266" xlink:href="#DejaVuSans-50"/>
       <use x="506.445312" xlink:href="#DejaVuSans-56"/>
       <use x="570.068359" xlink:href="#DejaVuSans-66"/>
       <use x="638.671875" xlink:href="#DejaVuSans-66"/>
       <use x="707.275391" xlink:href="#DejaVuSans-82"/>
       <use x="776.757812" xlink:href="#DejaVuSans-110"/>
       <use x="840.136719" xlink:href="#DejaVuSans-45"/>
       <use x="876.220703" xlink:href="#DejaVuSans-112"/>
       <use x="939.697266" xlink:href="#DejaVuSans-105"/>
       <use x="967.480469" xlink:href="#DejaVuSans-101"/>
       <use x="1029.003906" xlink:href="#DejaVuSans-32"/>
       <use x="1060.791016" xlink:href="#DejaVuSans-40"/>
       <use x="1099.804688" xlink:href="#DejaVuSans-110"/>
       <use x="1163.183594" xlink:href="#DejaVuSans-61"/>
       <use x="1246.972656" xlink:href="#DejaVuSans-49"/>
       <use x="1310.595703" xlink:href="#DejaVuSans-41"/>
      </g>
     </g>
    </g>
    <g id="xtick_10">
     <g id="line2d_10"/>
     <g id="text_10">
      <!-- 19T100707BBRn-fq_codel (n=1) -->
      <g transform="translate(370.261563 476.854)rotate(-90)scale(0.1 -0.1)">
       <use xlink:href="#DejaVuSans-49"/>
       <use x="63.623047" xlink:href="#DejaVuSans-57"/>
       <use x="127.246094" xlink:href="#DejaVuSans-84"/>
       <use x="188.330078" xlink:href="#DejaVuSans-49"/>
       <use x="251.953125" xlink:href="#DejaVuSans-48"/>
       <use x="315.576172" xlink:href="#DejaVuSans-48"/>
       <use x="379.199219" xlink:href="#DejaVuSans-55"/>
       <use x="442.822266" xlink:href="#DejaVuSans-48"/>
       <use x="506.445312" xlink:href="#DejaVuSans-55"/>
       <use x="570.068359" xlink:href="#DejaVuSans-66"/>
       <use x="638.671875" xlink:href="#DejaVuSans-66"/>
       <use x="707.275391" xlink:href="#DejaVuSans-82"/>
       <use x="776.757812" xlink:href="#DejaVuSans-110"/>
       <use x="840.136719" xlink:href="#DejaVuSans-45"/>
       <use x="876.220703" xlink:href="#DejaVuSans-102"/>
       <use x="911.425781" xlink:href="#DejaVuSans-113"/>
       <use x="974.902344" xlink:href="#DejaVuSans-95"/>
       <use x="1024.902344" xlink:href="#DejaVuSans-99"/>
       <use x="1079.882812" xlink:href="#DejaVuSans-111"/>
       <use x="1141.064453" xlink:href="#DejaVuSans-100"/>
       <use x="1204.541016" xlink:href="#DejaVuSans-101"/>
       <use x="1266.064453" xlink:href="#DejaVuSans-108"/>
       <use x="1293.847656" xlink:href="#DejaVuSans-32"/>
       <use x="1325.634766" xlink:href="#DejaVuSans-40"/>
       <use x="1364.648438" xlink:href="#DejaVuSans-110"/>
       <use x="1428.027344" xlink:href="#DejaVuSans-61"/>
       <use x="1511.816406" xlink:href="#DejaVuSans-49"/>
       <use x="1575.439453" xlink:href="#DejaVuSans-41"/>
      </g>
     </g>
    </g>
   </g>
   <g id="matplotlib.axis_2">
    <g id="ytick_1">
     <g id="line2d_11">
      <path clip-path="url(#p1c286d6724)" d="M 40.28125 311.904 
L 397.40125 311.904 
" style="fill:none;stroke:#ffffff;stroke-linecap:round;"/>
     </g>
     <g id="line2d_12"/>
     <g id="text_11">
      <!-- 0.0 -->
      <g transform="translate(20.878125 315.703219)scale(0.1 -0.1)">
       <defs>
        <path d="M 10.6875 12.40625 
L 21 12.40625 
L 21 0 
L 10.6875 0 
z
" id="DejaVuSans-46"/>
       </defs>
       <use xlink:href="#DejaVuSans-48"/>
       <use x="63.623047" xlink:href="#DejaVuSans-46"/>
       <use x="95.410156" xlink:href="#DejaVuSans-48"/>
      </g>
     </g>
    </g>
    <g id="ytick_2">
     <g id="line2d_13">
      <path clip-path="url(#p1c286d6724)" d="M 40.28125 259.815701 
L 397.40125 259.815701 
" style="fill:none;stroke:#ffffff;stroke-linecap:round;"/>
     </g>
     <g id="line2d_14"/>
     <g id="text_12">
      <!-- 0.2 -->
      <g transform="translate(20.878125 263.614919)scale(0.1 -0.1)">
       <use xlink:href="#DejaVuSans-48"/>
       <use x="63.623047" xlink:href="#DejaVuSans-46"/>
       <use x="95.410156" xlink:href="#DejaVuSans-50"/>
      </g>
     </g>
    </g>
    <g id="ytick_3">
     <g id="line2d_15">
      <path clip-path="url(#p1c286d6724)" d="M 40.28125 207.727401 
L 397.40125 207.727401 
" style="fill:none;stroke:#ffffff;stroke-linecap:round;"/>
     </g>
     <g id="line2d_16"/>
     <g id="text_13">
      <!-- 0.4 -->
      <g transform="translate(20.878125 211.52662)scale(0.1 -0.1)">
       <use xlink:href="#DejaVuSans-48"/>
       <use x="63.623047" xlink:href="#DejaVuSans-46"/>
       <use x="95.410156" xlink:href="#DejaVuSans-52"/>
      </g>
     </g>
    </g>
    <g id="ytick_4">
     <g id="line2d_17">
      <path clip-path="url(#p1c286d6724)" d="M 40.28125 155.639102 
L 397.40125 155.639102 
" style="fill:none;stroke:#ffffff;stroke-linecap:round;"/>
     </g>
     <g id="line2d_18"/>
     <g id="text_14">
      <!-- 0.6 -->
      <g transform="translate(20.878125 159.43832)scale(0.1 -0.1)">
       <use xlink:href="#DejaVuSans-48"/>
       <use x="63.623047" xlink:href="#DejaVuSans-46"/>
       <use x="95.410156" xlink:href="#DejaVuSans-54"/>
      </g>
     </g>
    </g>
    <g id="ytick_5">
     <g id="line2d_19">
      <path clip-path="url(#p1c286d6724)" d="M 40.28125 103.550802 
L 397.40125 103.550802 
" style="fill:none;stroke:#ffffff;stroke-linecap:round;"/>
     </g>
     <g id="line2d_20"/>
     <g id="text_15">
      <!-- 0.8 -->
      <g transform="translate(20.878125 107.350021)scale(0.1 -0.1)">
       <use xlink:href="#DejaVuSans-48"/>
       <use x="63.623047" xlink:href="#DejaVuSans-46"/>
       <use x="95.410156" xlink:href="#DejaVuSans-56"/>
      </g>
     </g>
    </g>
    <g id="ytick_6">
     <g id="line2d_21">
      <path clip-path="url(#p1c286d6724)" d="M 40.28125 51.462503 
L 397.40125 51.462503 
" style="fill:none;stroke:#ffffff;stroke-linecap:round;"/>
     </g>
     <g id="line2d_22"/>
     <g id="text_16">
      <!-- 1.0 -->
      <g transform="translate(20.878125 55.261721)scale(0.1 -0.1)">
       <use xlink:href="#DejaVuSans-49"/>
       <use x="63.623047" xlink:href="#DejaVuSans-46"/>
       <use x="95.410156" xlink:href="#DejaVuSans-48"/>
      </g>
     </g>
    </g>
    <g id="ytick_7">
     <g id="line2d_23"/>
    </g>
    <g id="ytick_8">
     <g id="line2d_24"/>
    </g>
    <g id="ytick_9">
     <g id="line2d_25"/>
    </g>
    <g id="ytick_10">
     <g id="line2d_26"/>
    </g>
    <g id="ytick_11">
     <g id="line2d_27"/>
    </g>
    <g id="ytick_12">
     <g id="line2d_28"/>
    </g>
    <g id="ytick_13">
     <g id="line2d_29"/>
    </g>
    <g id="ytick_14">
     <g id="line2d_30"/>
    </g>
    <g id="ytick_15">
     <g id="line2d_31"/>
    </g>
    <g id="ytick_16">
     <g id="line2d_32"/>
    </g>
    <g id="ytick_17">
     <g id="line2d_33"/>
    </g>
    <g id="ytick_18">
     <g id="line2d_34"/>
    </g>
    <g id="ytick_19">
     <g id="line2d_35"/>
    </g>
    <g id="ytick_20">
     <g id="line2d_36"/>
    </g>
    <g id="ytick_21">
     <g id="line2d_37"/>
    </g>
    <g id="text_17">
     <!-- Fairness index -->
     <g transform="translate(14.798438 214.412844)rotate(-90)scale(0.1 -0.1)">
      <defs>
       <path d="M 9.8125 72.90625 
L 51.703125 72.90625 
L 51.703125 64.59375 
L 19.671875 64.59375 
L 19.671875 43.109375 
L 48.578125 43.109375 
L 48.578125 34.8125 
L 19.671875 34.8125 
L 19.671875 0 
L 9.8125 0 
z
" id="DejaVuSans-70"/>
       <path d="M 41.109375 46.296875 
Q 39.59375 47.171875 37.8125 47.578125 
Q 36.03125 48 33.890625 48 
Q 26.265625 48 22.1875 43.046875 
Q 18.109375 38.09375 18.109375 28.8125 
L 18.109375 0 
L 9.078125 0 
L 9.078125 54.6875 
L 18.109375 54.6875 
L 18.109375 46.1875 
Q 20.953125 51.171875 25.484375 53.578125 
Q 30.03125 56 36.53125 56 
Q 37.453125 56 38.578125 55.875 
Q 39.703125 55.765625 41.0625 55.515625 
z
" id="DejaVuSans-114"/>
       <path d="M 44.28125 53.078125 
L 44.28125 44.578125 
Q 40.484375 46.53125 36.375 47.5 
Q 32.28125 48.484375 27.875 48.484375 
Q 21.1875 48.484375 17.84375 46.4375 
Q 14.5 44.390625 14.5 40.28125 
Q 14.5 37.15625 16.890625 35.375 
Q 19.28125 33.59375 26.515625 31.984375 
L 29.59375 31.296875 
Q 39.15625 29.25 43.1875 25.515625 
Q 47.21875 21.78125 47.21875 15.09375 
Q 47.21875 7.46875 41.1875 3.015625 
Q 35.15625 -1.421875 24.609375 -1.421875 
Q 20.21875 -1.421875 15.453125 -0.5625 
Q 10.6875 0.296875 5.421875 2 
L 5.421875 11.28125 
Q 10.40625 8.6875 15.234375 7.390625 
Q 20.0625 6.109375 24.8125 6.109375 
Q 31.15625 6.109375 34.5625 8.28125 
Q 37.984375 10.453125 37.984375 14.40625 
Q 37.984375 18.0625 35.515625 20.015625 
Q 33.0625 21.96875 24.703125 23.78125 
L 21.578125 24.515625 
Q 13.234375 26.265625 9.515625 29.90625 
Q 5.8125 33.546875 5.8125 39.890625 
Q 5.8125 47.609375 11.28125 51.796875 
Q 16.75 56 26.8125 56 
Q 31.78125 56 36.171875 55.265625 
Q 40.578125 54.546875 44.28125 53.078125 
z
" id="DejaVuSans-115"/>
       <path d="M 54.890625 54.6875 
L 35.109375 28.078125 
L 55.90625 0 
L 45.3125 0 
L 29.390625 21.484375 
L 13.484375 0 
L 2.875 0 
L 24.125 28.609375 
L 4.6875 54.6875 
L 15.28125 54.6875 
L 29.78125 35.203125 
L 44.28125 54.6875 
z
" id="DejaVuSans-120"/>
      </defs>
      <use xlink:href="#DejaVuSans-70"/>
      <use x="48.394531" xlink:href="#DejaVuSans-97"/>
      <use x="109.673828" xlink:href="#DejaVuSans-105"/>
      <use x="137.457031" xlink:href="#DejaVuSans-114"/>
      <use x="176.820312" xlink:href="#DejaVuSans-110"/>
      <use x="240.199219" xlink:href="#DejaVuSans-101"/>
      <use x="301.722656" xlink:href="#DejaVuSans-115"/>
      <use x="353.822266" xlink:href="#DejaVuSans-115"/>
      <use x="405.921875" xlink:href="#DejaVuSans-32"/>
      <use x="437.708984" xlink:href="#DejaVuSans-105"/>
      <use x="465.492188" xlink:href="#DejaVuSans-110"/>
      <use x="528.871094" xlink:href="#DejaVuSans-100"/>
      <use x="592.347656" xlink:href="#DejaVuSans-101"/>
      <use x="652.121094" xlink:href="#DejaVuSans-120"/>
     </g>
    </g>
   </g>
   <g id="patch_3">
    <path clip-path="url(#p1c286d6724)" d="M 55.16125 311.904 
L 84.92125 311.904 
L 84.92125 112.832796 
L 55.16125 112.832796 
z
" style="fill:#1b9e77;opacity:0.75;"/>
   </g>
   <g id="patch_4">
    <path clip-path="url(#p1c286d6724)" d="M 84.92125 311.904 
L 114.68125 311.904 
L 114.68125 127.143092 
L 84.92125 127.143092 
z
" style="fill:#1b9e77;opacity:0.75;"/>
   </g>
   <g id="patch_5">
    <path clip-path="url(#p1c286d6724)" d="M 114.68125 311.904 
L 144.44125 311.904 
L 144.44125 106.651389 
L 114.68125 106.651389 
z
" style="fill:#1b9e77;opacity:0.75;"/>
   </g>
   <g id="patch_6">
    <path clip-path="url(#p1c286d6724)" d="M 144.44125 311.904 
L 174.20125 311.904 
L 174.20125 121.61344 
L 144.44125 121.61344 
z
" style="fill:#1b9e77;opacity:0.75;"/>
   </g>
   <g id="patch_7">
    <path clip-path="url(#p1c286d6724)" d="M 174.20125 311.904 
L 203.96125 311.904 
L 203.96125 99.443539 
L 174.20125 99.443539 
z
" style="fill:#1b9e77;opacity:0.75;"/>
   </g>
   <g id="patch_8">
    <path clip-path="url(#p1c286d6724)" d="M 233.72125 311.904 
L 263.48125 311.904 
L 263.48125 71.022516 
L 233.72125 71.022516 
z
" style="fill:#d95f02;opacity:0.75;"/>
   </g>
   <g id="patch_9">
    <path clip-path="url(#p1c286d6724)" d="M 263.48125 311.904 
L 293.24125 311.904 
L 293.24125 60.142926 
L 263.48125 60.142926 
z
" style="fill:#d95f02;opacity:0.75;"/>
   </g>
   <g id="patch_10">
    <path clip-path="url(#p1c286d6724)" d="M 293.24125 311.904 
L 323.00125 311.904 
L 323.00125 58.464 
L 293.24125 58.464 
z
" style="fill:#d95f02;opacity:0.75;"/>
   </g>
   <g id="patch_11">
    <path clip-path="url(#p1c286d6724)" d="M 323.00125 311.904 
L 352.76125 311.904 
L 352.76125 64.989633 
L 323.00125 64.989633 
z
" style="fill:#d95f02;opacity:0.75;"/>
   </g>
   <g id="patch_12">
    <path clip-path="url(#p1c286d6724)" d="M 352.76125 311.904 
L 382.52125 311.904 
L 382.52125 59.829982 
L 352.76125 59.829982 
z
" style="fill:#d95f02;opacity:0.75;"/>
   </g>
   <g id="LineCollection_1">
    <path clip-path="url(#p1c286d6724)" d="M 70.04125 112.832796 
L 70.04125 112.832796 
" style="fill:none;stroke:#000000;"/>
    <path clip-path="url(#p1c286d6724)" d="M 99.80125 127.143092 
L 99.80125 127.143092 
" style="fill:none;stroke:#000000;"/>
    <path clip-path="url(#p1c286d6724)" d="M 129.56125 106.651389 
L 129.56125 106.651389 
" style="fill:none;stroke:#000000;"/>
    <path clip-path="url(#p1c286d6724)" d="M 159.32125 121.61344 
L 159.32125 121.61344 
" style="fill:none;stroke:#000000;"/>
    <path clip-path="url(#p1c286d6724)" d="M 189.08125 99.443539 
L 189.08125 99.443539 
" style="fill:none;stroke:#000000;"/>
   </g>
   <g id="LineCollection_2">
    <path clip-path="url(#p1c286d6724)" d="M 248.60125 71.022516 
L 248.60125 71.022516 
" style="fill:none;stroke:#000000;"/>
    <path clip-path="url(#p1c286d6724)" d="M 278.36125 60.142926 
L 278.36125 60.142926 
" style="fill:none;stroke:#000000;"/>
    <path clip-path="url(#p1c286d6724)" d="M 308.12125 58.464 
L 308.12125 58.464 
" style="fill:none;stroke:#000000;"/>
    <path clip-path="url(#p1c286d6724)" d="M 337.88125 64.989633 
L 337.88125 64.989633 
" style="fill:none;stroke:#000000;"/>
    <path clip-path="url(#p1c286d6724)" d="M 367.64125 59.829982 
L 367.64125 59.829982 
" style="fill:none;stroke:#000000;"/>
   </g>
   <g id="line2d_38">
    <defs>
     <path d="M 2 0 
L -2 -0 
" id="m02345de631" style="stroke:#000000;"/>
    </defs>
    <g clip-path="url(#p1c286d6724)">
     <use style="stroke:#000000;" x="70.04125" xlink:href="#m02345de631" y="112.832796"/>
     <use style="stroke:#000000;" x="99.80125" xlink:href="#m02345de631" y="127.143092"/>
     <use style="stroke:#000000;" x="129.56125" xlink:href="#m02345de631" y="106.651389"/>
     <use style="stroke:#000000;" x="159.32125" xlink:href="#m02345de631" y="121.61344"/>
     <use style="stroke:#000000;" x="189.08125" xlink:href="#m02345de631" y="99.443539"/>
    </g>
   </g>
   <g id="line2d_39">
    <g clip-path="url(#p1c286d6724)">
     <use style="stroke:#000000;" x="70.04125" xlink:href="#m02345de631" y="112.832796"/>
     <use style="stroke:#000000;" x="99.80125" xlink:href="#m02345de631" y="127.143092"/>
     <use style="stroke:#000000;" x="129.56125" xlink:href="#m02345de631" y="106.651389"/>
     <use style="stroke:#000000;" x="159.32125" xlink:href="#m02345de631" y="121.61344"/>
     <use style="stroke:#000000;" x="189.08125" xlink:href="#m02345de631" y="99.443539"/>
    </g>
   </g>
   <g id="line2d_40">
    <path clip-path="url(#p1c286d6724)" d="M 218.84125 311.904 
L 218.84125 45.792 
" style="fill:none;stroke:#000000;stroke-dasharray:0.5,0.825;stroke-dashoffset:0;stroke-width:0.5;"/>
   </g>
   <g id="line2d_41">
    <g clip-path="url(#p1c286d6724)">
     <use style="stroke:#000000;" x="248.60125" xlink:href="#m02345de631" y="71.022516"/>
     <use style="stroke:#000000;" x="278.36125" xlink:href="#m02345de631" y="60.142926"/>
     <use style="stroke:#000000;" x="308.12125" xlink:href="#m02345de631" y="58.464"/>
     <use style="stroke:#000000;" x="337.88125" xlink:href="#m02345de631" y="64.989633"/>
     <use style="stroke:#000000;" x="367.64125" xlink:href="#m02345de631" y="59.829982"/>
    </g>
   </g>
   <g id="line2d_42">
    <g clip-path="url(#p1c286d6724)">
     <use style="stroke:#000000;" x="248.60125" xlink:href="#m02345de631" y="71.022516"/>
     <use style="stroke:#000000;" x="278.36125" xlink:href="#m02345de631" y="60.142926"/>
     <use style="stroke:#000000;" x="308.12125" xlink:href="#m02345de631" y="58.464"/>
     <use style="stroke:#000000;" x="337.88125" xlink:href="#m02345de631" y="64.989633"/>
     <use style="stroke:#000000;" x="367.64125" xlink:href="#m02345de631" y="59.829982"/>
    </g>
   </g>
   <g id="line2d_43">
    <path clip-path="url(#p1c286d6724)" d="M 397.40125 311.904 
L 397.40125 45.792 
" style="fill:none;stroke:#000000;stroke-dasharray:0.5,0.825;stroke-dashoffset:0;stroke-width:0.5;"/>
   </g>
   <g id="patch_13">
    <path d="M 40.28125 311.904 
L 40.28125 45.792 
" style="fill:none;"/>
   </g>
   <g id="patch_14">
    <path d="M 397.40125 311.904 
L 397.40125 45.792 
" style="fill:none;"/>
   </g>
   <g id="patch_15">
    <path d="M 40.28125 311.904 
L 397.40125 311.904 
" style="fill:none;"/>
   </g>
   <g id="patch_16">
    <path d="M 40.28125 45.792 
L 397.40125 45.792 
" style="fill:none;"/>
   </g>
   <g id="text_18">
    <!-- Upload fairness -->
    <g transform="translate(90.815938 43.13088)scale(0.1 -0.1)">
     <defs>
      <path d="M 8.6875 72.90625 
L 18.609375 72.90625 
L 18.609375 28.609375 
Q 18.609375 16.890625 22.84375 11.734375 
Q 27.09375 6.59375 36.625 6.59375 
Q 46.09375 6.59375 50.34375 11.734375 
Q 54.59375 16.890625 54.59375 28.609375 
L 54.59375 72.90625 
L 64.5 72.90625 
L 64.5 27.390625 
Q 64.5 13.140625 57.4375 5.859375 
Q 50.390625 -1.421875 36.625 -1.421875 
Q 22.796875 -1.421875 15.734375 5.859375 
Q 8.6875 13.140625 8.6875 27.390625 
z
" id="DejaVuSans-85"/>
     </defs>
     <use xlink:href="#DejaVuSans-85"/>
     <use x="73.193359" xlink:href="#DejaVuSans-112"/>
     <use x="136.669922" xlink:href="#DejaVuSans-108"/>
     <use x="164.453125" xlink:href="#DejaVuSans-111"/>
     <use x="225.634766" xlink:href="#DejaVuSans-97"/>
     <use x="286.914062" xlink:href="#DejaVuSans-100"/>
     <use x="350.390625" xlink:href="#DejaVuSans-32"/>
     <use x="382.177734" xlink:href="#DejaVuSans-102"/>
     <use x="417.382812" xlink:href="#DejaVuSans-97"/>
     <use x="478.662109" xlink:href="#DejaVuSans-105"/>
     <use x="506.445312" xlink:href="#DejaVuSans-114"/>
     <use x="545.808594" xlink:href="#DejaVuSans-110"/>
     <use x="609.1875" xlink:href="#DejaVuSans-101"/>
     <use x="670.710938" xlink:href="#DejaVuSans-115"/>
     <use x="722.810547" xlink:href="#DejaVuSans-115"/>
    </g>
   </g>
   <g id="text_19">
    <!-- Download fairness -->
    <g transform="translate(262.042344 43.13088)scale(0.1 -0.1)">
     <defs>
      <path d="M 19.671875 64.796875 
L 19.671875 8.109375 
L 31.59375 8.109375 
Q 46.6875 8.109375 53.6875 14.9375 
Q 60.6875 21.78125 60.6875 36.53125 
Q 60.6875 51.171875 53.6875 57.984375 
Q 46.6875 64.796875 31.59375 64.796875 
z
M 9.8125 72.90625 
L 30.078125 72.90625 
Q 51.265625 72.90625 61.171875 64.09375 
Q 71.09375 55.28125 71.09375 36.53125 
Q 71.09375 17.671875 61.125 8.828125 
Q 51.171875 0 30.078125 0 
L 9.8125 0 
z
" id="DejaVuSans-68"/>
      <path d="M 4.203125 54.6875 
L 13.1875 54.6875 
L 24.421875 12.015625 
L 35.59375 54.6875 
L 46.1875 54.6875 
L 57.421875 12.015625 
L 68.609375 54.6875 
L 77.59375 54.6875 
L 63.28125 0 
L 52.6875 0 
L 40.921875 44.828125 
L 29.109375 0 
L 18.5 0 
z
" id="DejaVuSans-119"/>
     </defs>
     <use xlink:href="#DejaVuSans-68"/>
     <use x="77.001953" xlink:href="#DejaVuSans-111"/>
     <use x="138.183594" xlink:href="#DejaVuSans-119"/>
     <use x="219.970703" xlink:href="#DejaVuSans-110"/>
     <use x="283.349609" xlink:href="#DejaVuSans-108"/>
     <use x="311.132812" xlink:href="#DejaVuSans-111"/>
     <use x="372.314453" xlink:href="#DejaVuSans-97"/>
     <use x="433.59375" xlink:href="#DejaVuSans-100"/>
     <use x="497.070312" xlink:href="#DejaVuSans-32"/>
     <use x="528.857422" xlink:href="#DejaVuSans-102"/>
     <use x="564.0625" xlink:href="#DejaVuSans-97"/>
     <use x="625.341797" xlink:href="#DejaVuSans-105"/>
     <use x="653.125" xlink:href="#DejaVuSans-114"/>
     <use x="692.488281" xlink:href="#DejaVuSans-110"/>
     <use x="755.867188" xlink:href="#DejaVuSans-101"/>
     <use x="817.390625" xlink:href="#DejaVuSans-115"/>
     <use x="869.490234" xlink:href="#DejaVuSans-115"/>
    </g>
   </g>
  </g>
  <g id="text_20">
   <!-- RTT Fair - variable number of hosts -->
   <g transform="translate(90.859063 17.837812)scale(0.14 -0.14)">
    <defs>
     <path d="M 2.984375 54.6875 
L 12.5 54.6875 
L 29.59375 8.796875 
L 46.6875 54.6875 
L 56.203125 54.6875 
L 35.6875 0 
L 23.484375 0 
z
" id="DejaVuSans-118"/>
     <path d="M 48.6875 27.296875 
Q 48.6875 37.203125 44.609375 42.84375 
Q 40.53125 48.484375 33.40625 48.484375 
Q 26.265625 48.484375 22.1875 42.84375 
Q 18.109375 37.203125 18.109375 27.296875 
Q 18.109375 17.390625 22.1875 11.75 
Q 26.265625 6.109375 33.40625 6.109375 
Q 40.53125 6.109375 44.609375 11.75 
Q 48.6875 17.390625 48.6875 27.296875 
z
M 18.109375 46.390625 
Q 20.953125 51.265625 25.265625 53.625 
Q 29.59375 56 35.59375 56 
Q 45.5625 56 51.78125 48.09375 
Q 58.015625 40.1875 58.015625 27.296875 
Q 58.015625 14.40625 51.78125 6.484375 
Q 45.5625 -1.421875 35.59375 -1.421875 
Q 29.59375 -1.421875 25.265625 0.953125 
Q 20.953125 3.328125 18.109375 8.203125 
L 18.109375 0 
L 9.078125 0 
L 9.078125 75.984375 
L 18.109375 75.984375 
z
" id="DejaVuSans-98"/>
     <path d="M 8.5 21.578125 
L 8.5 54.6875 
L 17.484375 54.6875 
L 17.484375 21.921875 
Q 17.484375 14.15625 20.5 10.265625 
Q 23.53125 6.390625 29.59375 6.390625 
Q 36.859375 6.390625 41.078125 11.03125 
Q 45.3125 15.671875 45.3125 23.6875 
L 45.3125 54.6875 
L 54.296875 54.6875 
L 54.296875 0 
L 45.3125 0 
L 45.3125 8.40625 
Q 42.046875 3.421875 37.71875 1 
Q 33.40625 -1.421875 27.6875 -1.421875 
Q 18.265625 -1.421875 13.375 4.4375 
Q 8.5 10.296875 8.5 21.578125 
z
M 31.109375 56 
z
" id="DejaVuSans-117"/>
     <path d="M 52 44.1875 
Q 55.375 50.25 60.0625 53.125 
Q 64.75 56 71.09375 56 
Q 79.640625 56 84.28125 50.015625 
Q 88.921875 44.046875 88.921875 33.015625 
L 88.921875 0 
L 79.890625 0 
L 79.890625 32.71875 
Q 79.890625 40.578125 77.09375 44.375 
Q 74.3125 48.1875 68.609375 48.1875 
Q 61.625 48.1875 57.5625 43.546875 
Q 53.515625 38.921875 53.515625 30.90625 
L 53.515625 0 
L 44.484375 0 
L 44.484375 32.71875 
Q 44.484375 40.625 41.703125 44.40625 
Q 38.921875 48.1875 33.109375 48.1875 
Q 26.21875 48.1875 22.15625 43.53125 
Q 18.109375 38.875 18.109375 30.90625 
L 18.109375 0 
L 9.078125 0 
L 9.078125 54.6875 
L 18.109375 54.6875 
L 18.109375 46.1875 
Q 21.1875 51.21875 25.484375 53.609375 
Q 29.78125 56 35.6875 56 
Q 41.65625 56 45.828125 52.96875 
Q 50 49.953125 52 44.1875 
z
" id="DejaVuSans-109"/>
     <path d="M 54.890625 33.015625 
L 54.890625 0 
L 45.90625 0 
L 45.90625 32.71875 
Q 45.90625 40.484375 42.875 44.328125 
Q 39.84375 48.1875 33.796875 48.1875 
Q 26.515625 48.1875 22.3125 43.546875 
Q 18.109375 38.921875 18.109375 30.90625 
L 18.109375 0 
L 9.078125 0 
L 9.078125 75.984375 
L 18.109375 75.984375 
L 18.109375 46.1875 
Q 21.34375 51.125 25.703125 53.5625 
Q 30.078125 56 35.796875 56 
Q 45.21875 56 50.046875 50.171875 
Q 54.890625 44.34375 54.890625 33.015625 
z
" id="DejaVuSans-104"/>
     <path d="M 18.3125 70.21875 
L 18.3125 54.6875 
L 36.8125 54.6875 
L 36.8125 47.703125 
L 18.3125 47.703125 
L 18.3125 18.015625 
Q 18.3125 11.328125 20.140625 9.421875 
Q 21.96875 7.515625 27.59375 7.515625 
L 36.8125 7.515625 
L 36.8125 0 
L 27.59375 0 
Q 17.1875 0 13.234375 3.875 
Q 9.28125 7.765625 9.28125 18.015625 
L 9.28125 47.703125 
L 2.6875 47.703125 
L 2.6875 54.6875 
L 9.28125 54.6875 
L 9.28125 70.21875 
z
" id="DejaVuSans-116"/>
    </defs>
    <use xlink:href="#DejaVuSans-82"/>
    <use x="62.232422" xlink:href="#DejaVuSans-84"/>
    <use x="121.566406" xlink:href="#DejaVuSans-84"/>
    <use x="182.650391" xlink:href="#DejaVuSans-32"/>
    <use x="214.4375" xlink:href="#DejaVuSans-70"/>
    <use x="262.832031" xlink:href="#DejaVuSans-97"/>
    <use x="324.111328" xlink:href="#DejaVuSans-105"/>
    <use x="351.894531" xlink:href="#DejaVuSans-114"/>
    <use x="393.007812" xlink:href="#DejaVuSans-32"/>
    <use x="424.794922" xlink:href="#DejaVuSans-45"/>
    <use x="460.878906" xlink:href="#DejaVuSans-32"/>
    <use x="492.666016" xlink:href="#DejaVuSans-118"/>
    <use x="551.845703" xlink:href="#DejaVuSans-97"/>
    <use x="613.125" xlink:href="#DejaVuSans-114"/>
    <use x="654.238281" xlink:href="#DejaVuSans-105"/>
    <use x="682.021484" xlink:href="#DejaVuSans-97"/>
    <use x="743.300781" xlink:href="#DejaVuSans-98"/>
    <use x="806.777344" xlink:href="#DejaVuSans-108"/>
    <use x="834.560547" xlink:href="#DejaVuSans-101"/>
    <use x="896.083984" xlink:href="#DejaVuSans-32"/>
    <use x="927.871094" xlink:href="#DejaVuSans-110"/>
    <use x="991.25" xlink:href="#DejaVuSans-117"/>
    <use x="1054.628906" xlink:href="#DejaVuSans-109"/>
    <use x="1152.041016" xlink:href="#DejaVuSans-98"/>
    <use x="1215.517578" xlink:href="#DejaVuSans-101"/>
    <use x="1277.041016" xlink:href="#DejaVuSans-114"/>
    <use x="1318.154297" xlink:href="#DejaVuSans-32"/>
    <use x="1349.941406" xlink:href="#DejaVuSans-111"/>
    <use x="1411.123047" xlink:href="#DejaVuSans-102"/>
    <use x="1446.328125" xlink:href="#DejaVuSans-32"/>
    <use x="1478.115234" xlink:href="#DejaVuSans-104"/>
    <use x="1541.494141" xlink:href="#DejaVuSans-111"/>
    <use x="1602.675781" xlink:href="#DejaVuSans-115"/>
    <use x="1654.775391" xlink:href="#DejaVuSans-116"/>
    <use x="1693.984375" xlink:href="#DejaVuSans-115"/>
   </g>
   <!-- Jain's fairness combined bar plot -->
   <g transform="translate(98.8325 33.51475)scale(0.14 -0.14)">
    <defs>
     <path d="M 9.8125 72.90625 
L 19.671875 72.90625 
L 19.671875 5.078125 
Q 19.671875 -8.109375 14.671875 -14.0625 
Q 9.671875 -20.015625 -1.421875 -20.015625 
L -5.171875 -20.015625 
L -5.171875 -11.71875 
L -2.09375 -11.71875 
Q 4.4375 -11.71875 7.125 -8.046875 
Q 9.8125 -4.390625 9.8125 5.078125 
z
" id="DejaVuSans-74"/>
     <path d="M 17.921875 72.90625 
L 17.921875 45.796875 
L 9.625 45.796875 
L 9.625 72.90625 
z
" id="DejaVuSans-39"/>
    </defs>
    <use xlink:href="#DejaVuSans-74"/>
    <use x="29.492188" xlink:href="#DejaVuSans-97"/>
    <use x="90.771484" xlink:href="#DejaVuSans-105"/>
    <use x="118.554688" xlink:href="#DejaVuSans-110"/>
    <use x="181.933594" xlink:href="#DejaVuSans-39"/>
    <use x="209.423828" xlink:href="#DejaVuSans-115"/>
    <use x="261.523438" xlink:href="#DejaVuSans-32"/>
    <use x="293.310547" xlink:href="#DejaVuSans-102"/>
    <use x="328.515625" xlink:href="#DejaVuSans-97"/>
    <use x="389.794922" xlink:href="#DejaVuSans-105"/>
    <use x="417.578125" xlink:href="#DejaVuSans-114"/>
    <use x="456.941406" xlink:href="#DejaVuSans-110"/>
    <use x="520.320312" xlink:href="#DejaVuSans-101"/>
    <use x="581.84375" xlink:href="#DejaVuSans-115"/>
    <use x="633.943359" xlink:href="#DejaVuSans-115"/>
    <use x="686.042969" xlink:href="#DejaVuSans-32"/>
    <use x="717.830078" xlink:href="#DejaVuSans-99"/>
    <use x="772.810547" xlink:href="#DejaVuSans-111"/>
    <use x="833.992188" xlink:href="#DejaVuSans-109"/>
    <use x="931.404297" xlink:href="#DejaVuSans-98"/>
    <use x="994.880859" xlink:href="#DejaVuSans-105"/>
    <use x="1022.664062" xlink:href="#DejaVuSans-110"/>
    <use x="1086.042969" xlink:href="#DejaVuSans-101"/>
    <use x="1147.566406" xlink:href="#DejaVuSans-100"/>
    <use x="1211.042969" xlink:href="#DejaVuSans-32"/>
    <use x="1242.830078" xlink:href="#DejaVuSans-98"/>
    <use x="1306.306641" xlink:href="#DejaVuSans-97"/>
    <use x="1367.585938" xlink:href="#DejaVuSans-114"/>
    <use x="1408.699219" xlink:href="#DejaVuSans-32"/>
    <use x="1440.486328" xlink:href="#DejaVuSans-112"/>
    <use x="1503.962891" xlink:href="#DejaVuSans-108"/>
    <use x="1531.746094" xlink:href="#DejaVuSans-111"/>
    <use x="1592.927734" xlink:href="#DejaVuSans-116"/>
   </g>
  </g>
 </g>
 <defs>
  <clipPath id="p1c286d6724">
   <rect height="266.112" width="357.12" x="40.28125" y="45.792"/>
  </clipPath>
 </defs>
</svg>
