<?xml version="1.0" encoding="utf-8" standalone="no"?>
<!DOCTYPE svg PUBLIC "-//W3C//DTD SVG 1.1//EN"
  "http://www.w3.org/Graphics/SVG/1.1/DTD/svg11.dtd">
<!-- Created with matplotlib (https://matplotlib.org/) -->
<svg height="618.48pt" version="1.1" viewBox="0 0 977.04 618.48" width="977.04pt" xmlns="http://www.w3.org/2000/svg" xmlns:xlink="http://www.w3.org/1999/xlink">
 <metadata>
  <rdf:RDF xmlns:cc="http://creativecommons.org/ns#" xmlns:dc="http://purl.org/dc/elements/1.1/" xmlns:rdf="http://www.w3.org/1999/02/22-rdf-syntax-ns#">
   <cc:Work>
    <dc:type rdf:resource="http://purl.org/dc/dcmitype/StillImage"/>
    <dc:date>2023-09-19T11:59:57.958975</dc:date>
    <dc:format>image/svg+xml</dc:format>
    <dc:creator>
     <cc:Agent>
      <dc:title>Matplotlib v3.3.4, https://matplotlib.org/</dc:title>
     </cc:Agent>
    </dc:creator>
   </cc:Work>
  </rdf:RDF>
 </metadata>
 <defs>
  <style type="text/css">*{stroke-linecap:butt;stroke-linejoin:round;}</style>
 </defs>
 <g id="figure_1">
  <g id="patch_1">
   <path d="M 0 618.48 
L 977.04 618.48 
L 977.04 0 
L 0 0 
z
" style="fill:#ffffff;"/>
  </g>
  <g id="axes_1">
   <g id="patch_2">
    <path d="M 122.13 550.4472 
L 741.168 550.4472 
L 741.168 74.2176 
L 122.13 74.2176 
z
" style="fill:#e6e6e6;"/>
   </g>
   <g id="matplotlib.axis_1">
    <g id="xtick_1">
     <g id="line2d_1">
      <path clip-path="url(#p41aae4b5c5)" d="M 133.277198 550.4472 
L 133.277198 74.2176 
" style="fill:none;stroke:#ffffff;stroke-linecap:round;"/>
     </g>
     <g id="line2d_2"/>
     <g id="text_1">
      <!-- 0 -->
      <g transform="translate(130.095948 561.545637)scale(0.1 -0.1)">
       <defs>
        <path d="M 31.78125 66.40625 
Q 24.171875 66.40625 20.328125 58.90625 
Q 16.5 51.421875 16.5 36.375 
Q 16.5 21.390625 20.328125 13.890625 
Q 24.171875 6.390625 31.78125 6.390625 
Q 39.453125 6.390625 43.28125 13.890625 
Q 47.125 21.390625 47.125 36.375 
Q 47.125 51.421875 43.28125 58.90625 
Q 39.453125 66.40625 31.78125 66.40625 
z
M 31.78125 74.21875 
Q 44.046875 74.21875 50.515625 64.515625 
Q 56.984375 54.828125 56.984375 36.375 
Q 56.984375 17.96875 50.515625 8.265625 
Q 44.046875 -1.421875 31.78125 -1.421875 
Q 19.53125 -1.421875 13.0625 8.265625 
Q 6.59375 17.96875 6.59375 36.375 
Q 6.59375 54.828125 13.0625 64.515625 
Q 19.53125 74.21875 31.78125 74.21875 
z
" id="DejaVuSans-48"/>
       </defs>
       <use xlink:href="#DejaVuSans-48"/>
      </g>
     </g>
    </g>
    <g id="xtick_2">
     <g id="line2d_3">
      <path clip-path="url(#p41aae4b5c5)" d="M 234.592331 550.4472 
L 234.592331 74.2176 
" style="fill:none;stroke:#ffffff;stroke-linecap:round;"/>
     </g>
     <g id="line2d_4"/>
     <g id="text_2">
      <!-- 20 -->
      <g transform="translate(228.229831 561.545637)scale(0.1 -0.1)">
       <defs>
        <path d="M 19.1875 8.296875 
L 53.609375 8.296875 
L 53.609375 0 
L 7.328125 0 
L 7.328125 8.296875 
Q 12.9375 14.109375 22.625 23.890625 
Q 32.328125 33.6875 34.8125 36.53125 
Q 39.546875 41.84375 41.421875 45.53125 
Q 43.3125 49.21875 43.3125 52.78125 
Q 43.3125 58.59375 39.234375 62.25 
Q 35.15625 65.921875 28.609375 65.921875 
Q 23.96875 65.921875 18.8125 64.3125 
Q 13.671875 62.703125 7.8125 59.421875 
L 7.8125 69.390625 
Q 13.765625 71.78125 18.9375 73 
Q 24.125 74.21875 28.421875 74.21875 
Q 39.75 74.21875 46.484375 68.546875 
Q 53.21875 62.890625 53.21875 53.421875 
Q 53.21875 48.921875 51.53125 44.890625 
Q 49.859375 40.875 45.40625 35.40625 
Q 44.1875 33.984375 37.640625 27.21875 
Q 31.109375 20.453125 19.1875 8.296875 
z
" id="DejaVuSans-50"/>
       </defs>
       <use xlink:href="#DejaVuSans-50"/>
       <use x="63.623047" xlink:href="#DejaVuSans-48"/>
      </g>
     </g>
    </g>
    <g id="xtick_3">
     <g id="line2d_5">
      <path clip-path="url(#p41aae4b5c5)" d="M 335.907465 550.4472 
L 335.907465 74.2176 
" style="fill:none;stroke:#ffffff;stroke-linecap:round;"/>
     </g>
     <g id="line2d_6"/>
     <g id="text_3">
      <!-- 40 -->
      <g transform="translate(329.544965 561.545637)scale(0.1 -0.1)">
       <defs>
        <path d="M 37.796875 64.3125 
L 12.890625 25.390625 
L 37.796875 25.390625 
z
M 35.203125 72.90625 
L 47.609375 72.90625 
L 47.609375 25.390625 
L 58.015625 25.390625 
L 58.015625 17.1875 
L 47.609375 17.1875 
L 47.609375 0 
L 37.796875 0 
L 37.796875 17.1875 
L 4.890625 17.1875 
L 4.890625 26.703125 
z
" id="DejaVuSans-52"/>
       </defs>
       <use xlink:href="#DejaVuSans-52"/>
       <use x="63.623047" xlink:href="#DejaVuSans-48"/>
      </g>
     </g>
    </g>
    <g id="xtick_4">
     <g id="line2d_7">
      <path clip-path="url(#p41aae4b5c5)" d="M 437.222599 550.4472 
L 437.222599 74.2176 
" style="fill:none;stroke:#ffffff;stroke-linecap:round;"/>
     </g>
     <g id="line2d_8"/>
     <g id="text_4">
      <!-- 60 -->
      <g transform="translate(430.860099 561.545637)scale(0.1 -0.1)">
       <defs>
        <path d="M 33.015625 40.375 
Q 26.375 40.375 22.484375 35.828125 
Q 18.609375 31.296875 18.609375 23.390625 
Q 18.609375 15.53125 22.484375 10.953125 
Q 26.375 6.390625 33.015625 6.390625 
Q 39.65625 6.390625 43.53125 10.953125 
Q 47.40625 15.53125 47.40625 23.390625 
Q 47.40625 31.296875 43.53125 35.828125 
Q 39.65625 40.375 33.015625 40.375 
z
M 52.59375 71.296875 
L 52.59375 62.3125 
Q 48.875 64.0625 45.09375 64.984375 
Q 41.3125 65.921875 37.59375 65.921875 
Q 27.828125 65.921875 22.671875 59.328125 
Q 17.53125 52.734375 16.796875 39.40625 
Q 19.671875 43.65625 24.015625 45.921875 
Q 28.375 48.1875 33.59375 48.1875 
Q 44.578125 48.1875 50.953125 41.515625 
Q 57.328125 34.859375 57.328125 23.390625 
Q 57.328125 12.15625 50.6875 5.359375 
Q 44.046875 -1.421875 33.015625 -1.421875 
Q 20.359375 -1.421875 13.671875 8.265625 
Q 6.984375 17.96875 6.984375 36.375 
Q 6.984375 53.65625 15.1875 63.9375 
Q 23.390625 74.21875 37.203125 74.21875 
Q 40.921875 74.21875 44.703125 73.484375 
Q 48.484375 72.75 52.59375 71.296875 
z
" id="DejaVuSans-54"/>
       </defs>
       <use xlink:href="#DejaVuSans-54"/>
       <use x="63.623047" xlink:href="#DejaVuSans-48"/>
      </g>
     </g>
    </g>
    <g id="xtick_5">
     <g id="line2d_9">
      <path clip-path="url(#p41aae4b5c5)" d="M 538.537733 550.4472 
L 538.537733 74.2176 
" style="fill:none;stroke:#ffffff;stroke-linecap:round;"/>
     </g>
     <g id="line2d_10"/>
     <g id="text_5">
      <!-- 80 -->
      <g transform="translate(532.175233 561.545637)scale(0.1 -0.1)">
       <defs>
        <path d="M 31.78125 34.625 
Q 24.75 34.625 20.71875 30.859375 
Q 16.703125 27.09375 16.703125 20.515625 
Q 16.703125 13.921875 20.71875 10.15625 
Q 24.75 6.390625 31.78125 6.390625 
Q 38.8125 6.390625 42.859375 10.171875 
Q 46.921875 13.96875 46.921875 20.515625 
Q 46.921875 27.09375 42.890625 30.859375 
Q 38.875 34.625 31.78125 34.625 
z
M 21.921875 38.8125 
Q 15.578125 40.375 12.03125 44.71875 
Q 8.5 49.078125 8.5 55.328125 
Q 8.5 64.0625 14.71875 69.140625 
Q 20.953125 74.21875 31.78125 74.21875 
Q 42.671875 74.21875 48.875 69.140625 
Q 55.078125 64.0625 55.078125 55.328125 
Q 55.078125 49.078125 51.53125 44.71875 
Q 48 40.375 41.703125 38.8125 
Q 48.828125 37.15625 52.796875 32.3125 
Q 56.78125 27.484375 56.78125 20.515625 
Q 56.78125 9.90625 50.3125 4.234375 
Q 43.84375 -1.421875 31.78125 -1.421875 
Q 19.734375 -1.421875 13.25 4.234375 
Q 6.78125 9.90625 6.78125 20.515625 
Q 6.78125 27.484375 10.78125 32.3125 
Q 14.796875 37.15625 21.921875 38.8125 
z
M 18.3125 54.390625 
Q 18.3125 48.734375 21.84375 45.5625 
Q 25.390625 42.390625 31.78125 42.390625 
Q 38.140625 42.390625 41.71875 45.5625 
Q 45.3125 48.734375 45.3125 54.390625 
Q 45.3125 60.0625 41.71875 63.234375 
Q 38.140625 66.40625 31.78125 66.40625 
Q 25.390625 66.40625 21.84375 63.234375 
Q 18.3125 60.0625 18.3125 54.390625 
z
" id="DejaVuSans-56"/>
       </defs>
       <use xlink:href="#DejaVuSans-56"/>
       <use x="63.623047" xlink:href="#DejaVuSans-48"/>
      </g>
     </g>
    </g>
    <g id="xtick_6">
     <g id="line2d_11">
      <path clip-path="url(#p41aae4b5c5)" d="M 639.852866 550.4472 
L 639.852866 74.2176 
" style="fill:none;stroke:#ffffff;stroke-linecap:round;"/>
     </g>
     <g id="line2d_12"/>
     <g id="text_6">
      <!-- 100 -->
      <g transform="translate(630.309116 561.545637)scale(0.1 -0.1)">
       <defs>
        <path d="M 12.40625 8.296875 
L 28.515625 8.296875 
L 28.515625 63.921875 
L 10.984375 60.40625 
L 10.984375 69.390625 
L 28.421875 72.90625 
L 38.28125 72.90625 
L 38.28125 8.296875 
L 54.390625 8.296875 
L 54.390625 0 
L 12.40625 0 
z
" id="DejaVuSans-49"/>
       </defs>
       <use xlink:href="#DejaVuSans-49"/>
       <use x="63.623047" xlink:href="#DejaVuSans-48"/>
       <use x="127.246094" xlink:href="#DejaVuSans-48"/>
      </g>
     </g>
    </g>
    <g id="xtick_7">
     <g id="line2d_13">
      <path clip-path="url(#p41aae4b5c5)" d="M 741.168 550.4472 
L 741.168 74.2176 
" style="fill:none;stroke:#ffffff;stroke-linecap:round;"/>
     </g>
     <g id="line2d_14"/>
     <g id="text_7">
      <!-- 120 -->
      <g transform="translate(731.62425 561.545637)scale(0.1 -0.1)">
       <use xlink:href="#DejaVuSans-49"/>
       <use x="63.623047" xlink:href="#DejaVuSans-50"/>
       <use x="127.246094" xlink:href="#DejaVuSans-48"/>
      </g>
     </g>
    </g>
    <g id="xtick_8">
     <g id="line2d_15"/>
    </g>
    <g id="xtick_9">
     <g id="line2d_16"/>
    </g>
    <g id="xtick_10">
     <g id="line2d_17"/>
    </g>
    <g id="xtick_11">
     <g id="line2d_18"/>
    </g>
    <g id="xtick_12">
     <g id="line2d_19"/>
    </g>
    <g id="xtick_13">
     <g id="line2d_20"/>
    </g>
    <g id="xtick_14">
     <g id="line2d_21"/>
    </g>
    <g id="xtick_15">
     <g id="line2d_22"/>
    </g>
    <g id="xtick_16">
     <g id="line2d_23"/>
    </g>
    <g id="xtick_17">
     <g id="line2d_24"/>
    </g>
    <g id="xtick_18">
     <g id="line2d_25"/>
    </g>
    <g id="xtick_19">
     <g id="line2d_26"/>
    </g>
    <g id="xtick_20">
     <g id="line2d_27"/>
    </g>
    <g id="xtick_21">
     <g id="line2d_28"/>
    </g>
    <g id="xtick_22">
     <g id="line2d_29"/>
    </g>
    <g id="xtick_23">
     <g id="line2d_30"/>
    </g>
    <g id="xtick_24">
     <g id="line2d_31"/>
    </g>
    <g id="xtick_25">
     <g id="line2d_32"/>
    </g>
    <g id="text_8">
     <!-- ms -->
     <g transform="translate(424.174 575.223763)scale(0.1 -0.1)">
      <defs>
       <path d="M 52 44.1875 
Q 55.375 50.25 60.0625 53.125 
Q 64.75 56 71.09375 56 
Q 79.640625 56 84.28125 50.015625 
Q 88.921875 44.046875 88.921875 33.015625 
L 88.921875 0 
L 79.890625 0 
L 79.890625 32.71875 
Q 79.890625 40.578125 77.09375 44.375 
Q 74.3125 48.1875 68.609375 48.1875 
Q 61.625 48.1875 57.5625 43.546875 
Q 53.515625 38.921875 53.515625 30.90625 
L 53.515625 0 
L 44.484375 0 
L 44.484375 32.71875 
Q 44.484375 40.625 41.703125 44.40625 
Q 38.921875 48.1875 33.109375 48.1875 
Q 26.21875 48.1875 22.15625 43.53125 
Q 18.109375 38.875 18.109375 30.90625 
L 18.109375 0 
L 9.078125 0 
L 9.078125 54.6875 
L 18.109375 54.6875 
L 18.109375 46.1875 
Q 21.1875 51.21875 25.484375 53.609375 
Q 29.78125 56 35.6875 56 
Q 41.65625 56 45.828125 52.96875 
Q 50 49.953125 52 44.1875 
z
" id="DejaVuSans-109"/>
       <path d="M 44.28125 53.078125 
L 44.28125 44.578125 
Q 40.484375 46.53125 36.375 47.5 
Q 32.28125 48.484375 27.875 48.484375 
Q 21.1875 48.484375 17.84375 46.4375 
Q 14.5 44.390625 14.5 40.28125 
Q 14.5 37.15625 16.890625 35.375 
Q 19.28125 33.59375 26.515625 31.984375 
L 29.59375 31.296875 
Q 39.15625 29.25 43.1875 25.515625 
Q 47.21875 21.78125 47.21875 15.09375 
Q 47.21875 7.46875 41.1875 3.015625 
Q 35.15625 -1.421875 24.609375 -1.421875 
Q 20.21875 -1.421875 15.453125 -0.5625 
Q 10.6875 0.296875 5.421875 2 
L 5.421875 11.28125 
Q 10.40625 8.6875 15.234375 7.390625 
Q 20.0625 6.109375 24.8125 6.109375 
Q 31.15625 6.109375 34.5625 8.28125 
Q 37.984375 10.453125 37.984375 14.40625 
Q 37.984375 18.0625 35.515625 20.015625 
Q 33.0625 21.96875 24.703125 23.78125 
L 21.578125 24.515625 
Q 13.234375 26.265625 9.515625 29.90625 
Q 5.8125 33.546875 5.8125 39.890625 
Q 5.8125 47.609375 11.28125 51.796875 
Q 16.75 56 26.8125 56 
Q 31.78125 56 36.171875 55.265625 
Q 40.578125 54.546875 44.28125 53.078125 
z
" id="DejaVuSans-115"/>
      </defs>
      <use xlink:href="#DejaVuSans-109"/>
      <use x="97.412109" xlink:href="#DejaVuSans-115"/>
     </g>
    </g>
   </g>
   <g id="matplotlib.axis_2">
    <g id="ytick_1">
     <g id="line2d_33">
      <path clip-path="url(#p41aae4b5c5)" d="M 122.13 550.4472 
L 741.168 550.4472 
" style="fill:none;stroke:#ffffff;stroke-linecap:round;"/>
     </g>
     <g id="line2d_34"/>
     <g id="text_9">
      <!-- 0.0 -->
      <g transform="translate(102.726875 554.246419)scale(0.1 -0.1)">
       <defs>
        <path d="M 10.6875 12.40625 
L 21 12.40625 
L 21 0 
L 10.6875 0 
z
" id="DejaVuSans-46"/>
       </defs>
       <use xlink:href="#DejaVuSans-48"/>
       <use x="63.623047" xlink:href="#DejaVuSans-46"/>
       <use x="95.410156" xlink:href="#DejaVuSans-48"/>
      </g>
     </g>
    </g>
    <g id="ytick_2">
     <g id="line2d_35">
      <path clip-path="url(#p41aae4b5c5)" d="M 122.13 455.20128 
L 741.168 455.20128 
" style="fill:none;stroke:#ffffff;stroke-linecap:round;"/>
     </g>
     <g id="line2d_36"/>
     <g id="text_10">
      <!-- 0.2 -->
      <g transform="translate(102.726875 459.000499)scale(0.1 -0.1)">
       <use xlink:href="#DejaVuSans-48"/>
       <use x="63.623047" xlink:href="#DejaVuSans-46"/>
       <use x="95.410156" xlink:href="#DejaVuSans-50"/>
      </g>
     </g>
    </g>
    <g id="ytick_3">
     <g id="line2d_37">
      <path clip-path="url(#p41aae4b5c5)" d="M 122.13 359.95536 
L 741.168 359.95536 
" style="fill:none;stroke:#ffffff;stroke-linecap:round;"/>
     </g>
     <g id="line2d_38"/>
     <g id="text_11">
      <!-- 0.4 -->
      <g transform="translate(102.726875 363.754579)scale(0.1 -0.1)">
       <use xlink:href="#DejaVuSans-48"/>
       <use x="63.623047" xlink:href="#DejaVuSans-46"/>
       <use x="95.410156" xlink:href="#DejaVuSans-52"/>
      </g>
     </g>
    </g>
    <g id="ytick_4">
     <g id="line2d_39">
      <path clip-path="url(#p41aae4b5c5)" d="M 122.13 264.70944 
L 741.168 264.70944 
" style="fill:none;stroke:#ffffff;stroke-linecap:round;"/>
     </g>
     <g id="line2d_40"/>
     <g id="text_12">
      <!-- 0.6 -->
      <g transform="translate(102.726875 268.508659)scale(0.1 -0.1)">
       <use xlink:href="#DejaVuSans-48"/>
       <use x="63.623047" xlink:href="#DejaVuSans-46"/>
       <use x="95.410156" xlink:href="#DejaVuSans-54"/>
      </g>
     </g>
    </g>
    <g id="ytick_5">
     <g id="line2d_41">
      <path clip-path="url(#p41aae4b5c5)" d="M 122.13 169.46352 
L 741.168 169.46352 
" style="fill:none;stroke:#ffffff;stroke-linecap:round;"/>
     </g>
     <g id="line2d_42"/>
     <g id="text_13">
      <!-- 0.8 -->
      <g transform="translate(102.726875 173.262739)scale(0.1 -0.1)">
       <use xlink:href="#DejaVuSans-48"/>
       <use x="63.623047" xlink:href="#DejaVuSans-46"/>
       <use x="95.410156" xlink:href="#DejaVuSans-56"/>
      </g>
     </g>
    </g>
    <g id="ytick_6">
     <g id="line2d_43">
      <path clip-path="url(#p41aae4b5c5)" d="M 122.13 74.2176 
L 741.168 74.2176 
" style="fill:none;stroke:#ffffff;stroke-linecap:round;"/>
     </g>
     <g id="line2d_44"/>
     <g id="text_14">
      <!-- 1.0 -->
      <g transform="translate(102.726875 78.016819)scale(0.1 -0.1)">
       <use xlink:href="#DejaVuSans-49"/>
       <use x="63.623047" xlink:href="#DejaVuSans-46"/>
       <use x="95.410156" xlink:href="#DejaVuSans-48"/>
      </g>
     </g>
    </g>
    <g id="ytick_7">
     <g id="line2d_45"/>
    </g>
    <g id="ytick_8">
     <g id="line2d_46"/>
    </g>
    <g id="ytick_9">
     <g id="line2d_47"/>
    </g>
    <g id="ytick_10">
     <g id="line2d_48"/>
    </g>
    <g id="ytick_11">
     <g id="line2d_49"/>
    </g>
    <g id="ytick_12">
     <g id="line2d_50"/>
    </g>
    <g id="ytick_13">
     <g id="line2d_51"/>
    </g>
    <g id="ytick_14">
     <g id="line2d_52"/>
    </g>
    <g id="ytick_15">
     <g id="line2d_53"/>
    </g>
    <g id="ytick_16">
     <g id="line2d_54"/>
    </g>
    <g id="ytick_17">
     <g id="line2d_55"/>
    </g>
    <g id="ytick_18">
     <g id="line2d_56"/>
    </g>
    <g id="ytick_19">
     <g id="line2d_57"/>
    </g>
    <g id="ytick_20">
     <g id="line2d_58"/>
    </g>
    <g id="ytick_21">
     <g id="line2d_59"/>
    </g>
    <g id="text_15">
     <!-- Cumulative probability -->
     <g transform="translate(96.647187 369.134744)rotate(-90)scale(0.1 -0.1)">
      <defs>
       <path d="M 64.40625 67.28125 
L 64.40625 56.890625 
Q 59.421875 61.53125 53.78125 63.8125 
Q 48.140625 66.109375 41.796875 66.109375 
Q 29.296875 66.109375 22.65625 58.46875 
Q 16.015625 50.828125 16.015625 36.375 
Q 16.015625 21.96875 22.65625 14.328125 
Q 29.296875 6.6875 41.796875 6.6875 
Q 48.140625 6.6875 53.78125 8.984375 
Q 59.421875 11.28125 64.40625 15.921875 
L 64.40625 5.609375 
Q 59.234375 2.09375 53.4375 0.328125 
Q 47.65625 -1.421875 41.21875 -1.421875 
Q 24.65625 -1.421875 15.125 8.703125 
Q 5.609375 18.84375 5.609375 36.375 
Q 5.609375 53.953125 15.125 64.078125 
Q 24.65625 74.21875 41.21875 74.21875 
Q 47.75 74.21875 53.53125 72.484375 
Q 59.328125 70.75 64.40625 67.28125 
z
" id="DejaVuSans-67"/>
       <path d="M 8.5 21.578125 
L 8.5 54.6875 
L 17.484375 54.6875 
L 17.484375 21.921875 
Q 17.484375 14.15625 20.5 10.265625 
Q 23.53125 6.390625 29.59375 6.390625 
Q 36.859375 6.390625 41.078125 11.03125 
Q 45.3125 15.671875 45.3125 23.6875 
L 45.3125 54.6875 
L 54.296875 54.6875 
L 54.296875 0 
L 45.3125 0 
L 45.3125 8.40625 
Q 42.046875 3.421875 37.71875 1 
Q 33.40625 -1.421875 27.6875 -1.421875 
Q 18.265625 -1.421875 13.375 4.4375 
Q 8.5 10.296875 8.5 21.578125 
z
M 31.109375 56 
z
" id="DejaVuSans-117"/>
       <path d="M 9.421875 75.984375 
L 18.40625 75.984375 
L 18.40625 0 
L 9.421875 0 
z
" id="DejaVuSans-108"/>
       <path d="M 34.28125 27.484375 
Q 23.390625 27.484375 19.1875 25 
Q 14.984375 22.515625 14.984375 16.5 
Q 14.984375 11.71875 18.140625 8.90625 
Q 21.296875 6.109375 26.703125 6.109375 
Q 34.1875 6.109375 38.703125 11.40625 
Q 43.21875 16.703125 43.21875 25.484375 
L 43.21875 27.484375 
z
M 52.203125 31.203125 
L 52.203125 0 
L 43.21875 0 
L 43.21875 8.296875 
Q 40.140625 3.328125 35.546875 0.953125 
Q 30.953125 -1.421875 24.3125 -1.421875 
Q 15.921875 -1.421875 10.953125 3.296875 
Q 6 8.015625 6 15.921875 
Q 6 25.140625 12.171875 29.828125 
Q 18.359375 34.515625 30.609375 34.515625 
L 43.21875 34.515625 
L 43.21875 35.40625 
Q 43.21875 41.609375 39.140625 45 
Q 35.0625 48.390625 27.6875 48.390625 
Q 23 48.390625 18.546875 47.265625 
Q 14.109375 46.140625 10.015625 43.890625 
L 10.015625 52.203125 
Q 14.9375 54.109375 19.578125 55.046875 
Q 24.21875 56 28.609375 56 
Q 40.484375 56 46.34375 49.84375 
Q 52.203125 43.703125 52.203125 31.203125 
z
" id="DejaVuSans-97"/>
       <path d="M 18.3125 70.21875 
L 18.3125 54.6875 
L 36.8125 54.6875 
L 36.8125 47.703125 
L 18.3125 47.703125 
L 18.3125 18.015625 
Q 18.3125 11.328125 20.140625 9.421875 
Q 21.96875 7.515625 27.59375 7.515625 
L 36.8125 7.515625 
L 36.8125 0 
L 27.59375 0 
Q 17.1875 0 13.234375 3.875 
Q 9.28125 7.765625 9.28125 18.015625 
L 9.28125 47.703125 
L 2.6875 47.703125 
L 2.6875 54.6875 
L 9.28125 54.6875 
L 9.28125 70.21875 
z
" id="DejaVuSans-116"/>
       <path d="M 9.421875 54.6875 
L 18.40625 54.6875 
L 18.40625 0 
L 9.421875 0 
z
M 9.421875 75.984375 
L 18.40625 75.984375 
L 18.40625 64.59375 
L 9.421875 64.59375 
z
" id="DejaVuSans-105"/>
       <path d="M 2.984375 54.6875 
L 12.5 54.6875 
L 29.59375 8.796875 
L 46.6875 54.6875 
L 56.203125 54.6875 
L 35.6875 0 
L 23.484375 0 
z
" id="DejaVuSans-118"/>
       <path d="M 56.203125 29.59375 
L 56.203125 25.203125 
L 14.890625 25.203125 
Q 15.484375 15.921875 20.484375 11.0625 
Q 25.484375 6.203125 34.421875 6.203125 
Q 39.59375 6.203125 44.453125 7.46875 
Q 49.3125 8.734375 54.109375 11.28125 
L 54.109375 2.78125 
Q 49.265625 0.734375 44.1875 -0.34375 
Q 39.109375 -1.421875 33.890625 -1.421875 
Q 20.796875 -1.421875 13.15625 6.1875 
Q 5.515625 13.8125 5.515625 26.8125 
Q 5.515625 40.234375 12.765625 48.109375 
Q 20.015625 56 32.328125 56 
Q 43.359375 56 49.78125 48.890625 
Q 56.203125 41.796875 56.203125 29.59375 
z
M 47.21875 32.234375 
Q 47.125 39.59375 43.09375 43.984375 
Q 39.0625 48.390625 32.421875 48.390625 
Q 24.90625 48.390625 20.390625 44.140625 
Q 15.875 39.890625 15.1875 32.171875 
z
" id="DejaVuSans-101"/>
       <path id="DejaVuSans-32"/>
       <path d="M 18.109375 8.203125 
L 18.109375 -20.796875 
L 9.078125 -20.796875 
L 9.078125 54.6875 
L 18.109375 54.6875 
L 18.109375 46.390625 
Q 20.953125 51.265625 25.265625 53.625 
Q 29.59375 56 35.59375 56 
Q 45.5625 56 51.78125 48.09375 
Q 58.015625 40.1875 58.015625 27.296875 
Q 58.015625 14.40625 51.78125 6.484375 
Q 45.5625 -1.421875 35.59375 -1.421875 
Q 29.59375 -1.421875 25.265625 0.953125 
Q 20.953125 3.328125 18.109375 8.203125 
z
M 48.6875 27.296875 
Q 48.6875 37.203125 44.609375 42.84375 
Q 40.53125 48.484375 33.40625 48.484375 
Q 26.265625 48.484375 22.1875 42.84375 
Q 18.109375 37.203125 18.109375 27.296875 
Q 18.109375 17.390625 22.1875 11.75 
Q 26.265625 6.109375 33.40625 6.109375 
Q 40.53125 6.109375 44.609375 11.75 
Q 48.6875 17.390625 48.6875 27.296875 
z
" id="DejaVuSans-112"/>
       <path d="M 41.109375 46.296875 
Q 39.59375 47.171875 37.8125 47.578125 
Q 36.03125 48 33.890625 48 
Q 26.265625 48 22.1875 43.046875 
Q 18.109375 38.09375 18.109375 28.8125 
L 18.109375 0 
L 9.078125 0 
L 9.078125 54.6875 
L 18.109375 54.6875 
L 18.109375 46.1875 
Q 20.953125 51.171875 25.484375 53.578125 
Q 30.03125 56 36.53125 56 
Q 37.453125 56 38.578125 55.875 
Q 39.703125 55.765625 41.0625 55.515625 
z
" id="DejaVuSans-114"/>
       <path d="M 30.609375 48.390625 
Q 23.390625 48.390625 19.1875 42.75 
Q 14.984375 37.109375 14.984375 27.296875 
Q 14.984375 17.484375 19.15625 11.84375 
Q 23.34375 6.203125 30.609375 6.203125 
Q 37.796875 6.203125 41.984375 11.859375 
Q 46.1875 17.53125 46.1875 27.296875 
Q 46.1875 37.015625 41.984375 42.703125 
Q 37.796875 48.390625 30.609375 48.390625 
z
M 30.609375 56 
Q 42.328125 56 49.015625 48.375 
Q 55.71875 40.765625 55.71875 27.296875 
Q 55.71875 13.875 49.015625 6.21875 
Q 42.328125 -1.421875 30.609375 -1.421875 
Q 18.84375 -1.421875 12.171875 6.21875 
Q 5.515625 13.875 5.515625 27.296875 
Q 5.515625 40.765625 12.171875 48.375 
Q 18.84375 56 30.609375 56 
z
" id="DejaVuSans-111"/>
       <path d="M 48.6875 27.296875 
Q 48.6875 37.203125 44.609375 42.84375 
Q 40.53125 48.484375 33.40625 48.484375 
Q 26.265625 48.484375 22.1875 42.84375 
Q 18.109375 37.203125 18.109375 27.296875 
Q 18.109375 17.390625 22.1875 11.75 
Q 26.265625 6.109375 33.40625 6.109375 
Q 40.53125 6.109375 44.609375 11.75 
Q 48.6875 17.390625 48.6875 27.296875 
z
M 18.109375 46.390625 
Q 20.953125 51.265625 25.265625 53.625 
Q 29.59375 56 35.59375 56 
Q 45.5625 56 51.78125 48.09375 
Q 58.015625 40.1875 58.015625 27.296875 
Q 58.015625 14.40625 51.78125 6.484375 
Q 45.5625 -1.421875 35.59375 -1.421875 
Q 29.59375 -1.421875 25.265625 0.953125 
Q 20.953125 3.328125 18.109375 8.203125 
L 18.109375 0 
L 9.078125 0 
L 9.078125 75.984375 
L 18.109375 75.984375 
z
" id="DejaVuSans-98"/>
       <path d="M 32.171875 -5.078125 
Q 28.375 -14.84375 24.75 -17.8125 
Q 21.140625 -20.796875 15.09375 -20.796875 
L 7.90625 -20.796875 
L 7.90625 -13.28125 
L 13.1875 -13.28125 
Q 16.890625 -13.28125 18.9375 -11.515625 
Q 21 -9.765625 23.484375 -3.21875 
L 25.09375 0.875 
L 2.984375 54.6875 
L 12.5 54.6875 
L 29.59375 11.921875 
L 46.6875 54.6875 
L 56.203125 54.6875 
z
" id="DejaVuSans-121"/>
      </defs>
      <use xlink:href="#DejaVuSans-67"/>
      <use x="69.824219" xlink:href="#DejaVuSans-117"/>
      <use x="133.203125" xlink:href="#DejaVuSans-109"/>
      <use x="230.615234" xlink:href="#DejaVuSans-117"/>
      <use x="293.994141" xlink:href="#DejaVuSans-108"/>
      <use x="321.777344" xlink:href="#DejaVuSans-97"/>
      <use x="383.056641" xlink:href="#DejaVuSans-116"/>
      <use x="422.265625" xlink:href="#DejaVuSans-105"/>
      <use x="450.048828" xlink:href="#DejaVuSans-118"/>
      <use x="509.228516" xlink:href="#DejaVuSans-101"/>
      <use x="570.751953" xlink:href="#DejaVuSans-32"/>
      <use x="602.539062" xlink:href="#DejaVuSans-112"/>
      <use x="666.015625" xlink:href="#DejaVuSans-114"/>
      <use x="704.878906" xlink:href="#DejaVuSans-111"/>
      <use x="766.060547" xlink:href="#DejaVuSans-98"/>
      <use x="829.537109" xlink:href="#DejaVuSans-97"/>
      <use x="890.816406" xlink:href="#DejaVuSans-98"/>
      <use x="954.292969" xlink:href="#DejaVuSans-105"/>
      <use x="982.076172" xlink:href="#DejaVuSans-108"/>
      <use x="1009.859375" xlink:href="#DejaVuSans-105"/>
      <use x="1037.642578" xlink:href="#DejaVuSans-116"/>
      <use x="1076.851562" xlink:href="#DejaVuSans-121"/>
     </g>
    </g>
   </g>
   <g id="line2d_60">
    <path clip-path="url(#p41aae4b5c5)" d="M 149.436961 548.849114 
L 149.791564 547.251028 
L 151.767209 545.652942 
L 152.577731 544.054856 
L 155.515869 542.45677 
L 156.12376 540.858685 
L 156.326391 539.260599 
L 157.440857 537.662513 
L 158.859269 536.064427 
L 160.936229 534.466341 
L 161.088202 532.868255 
L 161.54412 531.270169 
L 161.54412 529.672083 
L 161.74675 526.475911 
L 162.455956 524.877826 
L 163.519765 523.27974 
L 163.519765 521.681654 
L 166.153958 520.083568 
L 166.356589 518.485482 
L 167.825658 516.887396 
L 167.876316 515.28931 
L 168.433549 513.691224 
L 168.686837 512.093138 
L 169.649331 508.896966 
L 170.105249 505.700795 
L 170.91577 502.504623 
L 171.473003 499.308451 
L 172.030236 497.710365 
L 172.131551 496.112279 
L 172.7901 494.514193 
L 173.904566 492.916107 
L 174.360484 491.318021 
L 174.512457 489.719936 
L 174.816402 488.12185 
L 174.917718 486.523764 
L 175.171005 484.925678 
L 175.272321 483.327592 
L 175.525608 481.729506 
L 175.525608 480.13142 
L 175.880211 476.935248 
L 176.336129 475.337162 
L 176.94402 472.140991 
L 177.399938 464.150561 
L 178.565062 462.552475 
L 178.717035 460.954389 
L 179.780844 457.758217 
L 181.300571 456.160132 
L 181.503201 451.365874 
L 181.705832 449.767788 
L 181.807147 446.571616 
L 182.111092 444.97353 
L 182.263065 440.179272 
L 182.516353 438.581187 
L 182.56701 436.983101 
L 182.921613 433.786929 
L 183.073586 430.590757 
L 183.377531 428.992671 
L 184.44134 425.796499 
L 184.44134 422.600328 
L 184.947916 421.002242 
L 184.947916 416.207984 
L 185.961067 414.609898 
L 185.961067 413.011812 
L 186.467643 411.413726 
L 186.467643 409.81564 
L 186.974218 408.217554 
L 186.974218 406.619468 
L 187.98737 403.423297 
L 187.98737 400.227125 
L 189.000521 397.030953 
L 189.000521 395.432867 
L 189.507097 393.834781 
L 189.507097 392.236695 
L 190.013672 390.638609 
L 190.013672 387.442438 
L 190.520248 385.844352 
L 190.520248 382.64818 
L 191.026824 381.050094 
L 191.026824 379.452008 
L 191.533399 377.853922 
L 192.546551 376.255836 
L 193.053126 374.65775 
L 193.053126 368.265407 
L 193.559702 366.667321 
L 193.559702 361.873063 
L 194.066278 360.274977 
L 194.066278 357.078805 
L 195.079429 353.882634 
L 195.079429 350.686462 
L 195.586005 349.088376 
L 195.586005 345.892204 
L 196.599156 342.696032 
L 196.599156 339.49986 
L 197.612308 336.303689 
L 197.612308 333.107517 
L 198.118883 331.509431 
L 198.118883 329.911345 
L 199.132035 326.715173 
L 199.132035 325.117087 
L 199.63861 323.519001 
L 199.63861 320.32283 
L 200.145186 318.724744 
L 200.145186 317.126658 
L 201.158337 313.930486 
L 201.158337 310.734314 
L 201.664913 309.136228 
L 201.664913 302.743885 
L 202.171489 301.145799 
L 202.171489 299.547713 
L 202.678064 297.949627 
L 202.678064 296.351541 
L 203.691216 293.155369 
L 203.691216 289.959197 
L 204.704367 288.361111 
L 204.704367 286.763026 
L 205.210943 285.16494 
L 206.224094 283.566854 
L 206.73067 281.968768 
L 206.73067 278.772596 
L 208.250397 273.978338 
L 208.250397 270.782166 
L 209.263548 267.585995 
L 209.263548 265.987909 
L 209.770124 264.389823 
L 209.770124 259.595565 
L 210.276699 257.997479 
L 210.276699 256.399393 
L 210.783275 254.801307 
L 210.783275 253.203221 
L 211.289851 251.605136 
L 211.289851 250.00705 
L 211.796426 248.408964 
L 211.796426 243.614706 
L 212.303002 242.01662 
L 212.303002 240.418534 
L 213.822729 235.624277 
L 213.822729 229.231933 
L 214.329305 227.633847 
L 214.329305 224.437675 
L 216.355607 222.839589 
L 216.355607 219.643417 
L 216.862183 218.045332 
L 216.862183 216.447246 
L 217.875334 214.84916 
L 218.38191 213.251074 
L 218.38191 211.652988 
L 219.901637 206.85873 
L 219.901637 205.260644 
L 221.421364 203.662558 
L 221.92794 202.064472 
L 221.92794 200.466387 
L 223.447667 198.868301 
L 223.447667 195.672129 
L 224.967394 190.877871 
L 224.967394 187.681699 
L 225.473969 186.083613 
L 226.993696 184.485528 
L 228.006848 181.289356 
L 228.006848 179.69127 
L 229.526575 178.093184 
L 231.552877 176.495098 
L 231.552877 174.897012 
L 232.566029 173.298926 
L 232.566029 168.504668 
L 233.072604 166.906583 
L 233.072604 163.710411 
L 234.592331 162.112325 
L 234.592331 160.514239 
L 235.605483 158.916153 
L 236.618634 155.719981 
L 237.631785 154.121895 
L 239.151512 149.327638 
L 239.151512 144.53338 
L 239.658088 142.935294 
L 240.671239 141.337208 
L 240.671239 139.739122 
L 242.190966 138.141036 
L 242.697542 136.54295 
L 242.697542 134.944864 
L 244.723845 128.552521 
L 246.243572 126.954435 
L 248.77645 125.356349 
L 250.296177 120.562091 
L 251.309328 118.964005 
L 253.335631 117.365919 
L 253.842207 115.767834 
L 256.881661 114.169748 
L 256.881661 112.571662 
L 258.401388 110.973576 
L 260.42769 109.37549 
L 261.440842 106.179318 
L 263.97372 104.581232 
L 267.013174 101.38506 
L 268.026325 99.786974 
L 272.585506 98.188889 
L 273.598658 94.992717 
L 275.118385 93.394631 
L 277.144687 91.796545 
L 278.664414 90.198459 
L 283.223596 88.600373 
L 284.236747 87.002287 
L 284.743323 85.404201 
L 284.743323 83.806115 
L 296.901139 82.20803 
L 315.137863 80.609944 
L 316.65759 79.011858 
L 344.519251 77.413772 
L 376.940094 75.815686 
L 695.57619 74.2176 
L 695.57619 74.2176 
" style="fill:none;stroke:#1b9e77;stroke-linecap:round;"/>
   </g>
   <g id="line2d_61">
    <path clip-path="url(#p41aae4b5c5)" d="M 151.919182 548.854459 
L 153.945485 547.261718 
L 157.339542 545.668977 
L 158.352693 544.076235 
L 158.707296 542.483494 
L 160.227023 540.890753 
L 161.240175 537.705271 
L 161.54412 534.519789 
L 161.594777 532.927047 
L 163.114504 531.334306 
L 163.519765 529.741565 
L 163.62108 528.148824 
L 164.431601 526.556083 
L 164.482259 524.963342 
L 164.836862 523.370601 
L 165.444753 513.814154 
L 166.255274 509.03593 
L 166.863164 507.443189 
L 166.96448 505.850448 
L 168.028288 504.257707 
L 170.91577 502.664966 
L 171.067742 499.479484 
L 171.067742 497.886742 
L 171.675633 491.515778 
L 172.182209 488.330296 
L 172.283524 486.737555 
L 172.942072 485.144813 
L 173.246018 483.552072 
L 173.296675 481.959331 
L 173.904566 480.36659 
L 174.056539 478.773849 
L 174.968375 477.181108 
L 175.171005 475.588367 
L 175.272321 472.402884 
L 175.373636 469.217402 
L 175.829554 467.624661 
L 175.880211 466.03192 
L 176.437445 462.846437 
L 176.893363 461.253696 
L 177.399938 454.882732 
L 177.703884 453.289991 
L 177.805199 451.697249 
L 178.210459 450.104508 
L 178.210459 448.511767 
L 178.41309 446.919026 
L 178.41309 445.326285 
L 178.81835 442.140803 
L 180.28742 440.548062 
L 180.49005 437.362579 
L 180.540707 435.769838 
L 180.89531 434.177097 
L 181.199256 427.806132 
L 181.503201 424.62065 
L 181.503201 423.027909 
L 182.111092 421.435168 
L 183.326874 419.842427 
L 183.630819 418.249686 
L 183.681477 416.656944 
L 183.934764 415.064203 
L 183.934764 411.878721 
L 184.44134 410.28598 
L 184.44134 403.915015 
L 184.947916 402.322274 
L 184.947916 399.136792 
L 185.961067 397.544051 
L 185.961067 394.358569 
L 186.467643 392.765827 
L 186.467643 389.580345 
L 186.974218 387.987604 
L 186.974218 384.802122 
L 187.480794 383.209381 
L 187.480794 378.431157 
L 188.493945 375.245675 
L 188.493945 373.652934 
L 189.000521 372.060193 
L 189.000521 370.467452 
L 190.013672 367.281969 
L 190.013672 359.318264 
L 191.026824 356.132781 
L 191.026824 354.54004 
L 191.533399 352.947299 
L 191.533399 348.169076 
L 192.546551 344.983593 
L 192.546551 340.20537 
L 193.559702 337.019888 
L 193.559702 335.427146 
L 194.066278 333.834405 
L 194.066278 332.241664 
L 194.572853 330.648923 
L 194.572853 324.277959 
L 195.079429 322.685217 
L 195.079429 316.314253 
L 195.586005 314.721512 
L 195.586005 311.536029 
L 196.092581 309.943288 
L 196.092581 308.350547 
L 197.105732 306.757806 
L 197.612308 305.165065 
L 197.612308 303.572324 
L 198.118883 301.979583 
L 198.118883 298.7941 
L 199.132035 297.201359 
L 199.132035 295.608618 
L 199.63861 294.015877 
L 199.63861 290.830395 
L 200.145186 289.237654 
L 200.145186 284.45943 
L 201.664913 279.681207 
L 201.664913 276.495724 
L 202.171489 274.902983 
L 202.171489 271.717501 
L 202.678064 270.12476 
L 202.678064 268.532019 
L 203.18464 266.939278 
L 203.18464 265.346536 
L 203.691216 263.753795 
L 203.691216 260.568313 
L 204.704367 257.382831 
L 204.704367 254.197348 
L 205.717518 252.604607 
L 205.717518 251.011866 
L 206.73067 249.419125 
L 207.237245 247.826384 
L 207.237245 246.233643 
L 207.743821 244.640902 
L 207.743821 239.862678 
L 208.756972 238.269937 
L 208.756972 236.677196 
L 209.263548 235.084455 
L 209.263548 233.491714 
L 209.770124 231.898973 
L 209.770124 230.306231 
L 210.783275 228.71349 
L 211.289851 227.120749 
L 211.289851 225.528008 
L 212.303002 223.935267 
L 212.303002 222.342526 
L 212.809578 220.749785 
L 212.809578 217.564302 
L 213.316153 215.971561 
L 213.316153 214.37882 
L 214.83588 209.600597 
L 214.83588 206.415114 
L 215.342456 204.822373 
L 215.342456 203.229632 
L 215.849032 201.636891 
L 215.849032 200.04415 
L 216.355607 198.451409 
L 216.355607 196.858668 
L 216.862183 195.265926 
L 218.38191 193.673185 
L 218.888486 192.080444 
L 220.914788 188.894962 
L 222.434515 184.116738 
L 222.434515 179.338515 
L 222.941091 177.745774 
L 222.941091 176.153033 
L 223.447667 174.560292 
L 223.447667 171.374809 
L 224.460818 169.782068 
L 224.460818 168.189327 
L 225.980545 163.411104 
L 225.980545 160.225621 
L 226.993696 157.040139 
L 226.993696 155.447398 
L 229.019999 153.854657 
L 229.526575 152.261916 
L 229.526575 149.076433 
L 235.605483 147.483692 
L 236.112058 145.890951 
L 237.12521 144.29821 
L 237.631785 142.705469 
L 237.631785 141.112728 
L 239.151512 139.519987 
L 239.151512 137.927245 
L 240.164664 134.741763 
L 241.684391 133.149022 
L 242.697542 131.556281 
L 245.736996 128.370799 
L 245.736996 126.778058 
L 249.283026 125.185316 
L 250.802753 123.592575 
L 251.309328 121.999834 
L 252.829055 120.407093 
L 253.335631 118.814352 
L 253.335631 117.221611 
L 253.842207 115.62887 
L 255.361934 114.036128 
L 255.868509 112.443387 
L 255.868509 110.850646 
L 256.881661 109.257905 
L 259.414539 107.665164 
L 259.414539 106.072423 
L 260.934266 104.479682 
L 260.934266 102.88694 
L 264.480296 101.294199 
L 266.000023 96.515976 
L 267.013174 94.923235 
L 268.532901 93.330494 
L 269.039477 91.737753 
L 269.039477 90.145011 
L 275.62496 88.55227 
L 278.157839 86.959529 
L 280.184142 85.366788 
L 286.26305 83.774047 
L 287.276201 82.181306 
L 301.46032 78.995823 
L 306.019501 77.403082 
L 308.045803 75.810341 
L 323.243073 74.2176 
L 323.243073 74.2176 
" style="fill:none;stroke:#d95f02;stroke-dasharray:3.7,1.6;stroke-dashoffset:0;"/>
   </g>
   <g id="line2d_62">
    <path clip-path="url(#p41aae4b5c5)" d="M 147.309344 548.859768 
L 148.727755 547.272336 
L 152.982991 545.684904 
L 154.756006 544.097472 
L 154.857321 542.51004 
L 155.161266 540.922608 
L 155.667842 539.335176 
L 156.478363 537.747744 
L 156.984939 532.985448 
L 157.491515 531.398016 
L 158.150063 529.810584 
L 158.352693 526.63572 
L 159.213872 525.048288 
L 159.213872 523.460856 
L 159.821763 521.873424 
L 159.973735 520.285992 
L 160.632284 518.69856 
L 160.733599 515.523696 
L 161.138859 513.936264 
L 161.240175 510.7614 
L 161.898723 501.236808 
L 162.709244 499.649376 
L 163.013189 491.712216 
L 163.367792 488.537352 
L 163.82371 486.94992 
L 163.975683 485.362488 
L 164.380944 483.775056 
L 164.431601 482.187624 
L 164.735547 480.600192 
L 164.887519 479.01276 
L 165.191465 477.425328 
L 165.191465 475.837896 
L 165.444753 474.250464 
L 165.546068 469.488168 
L 165.748698 466.313304 
L 166.103301 461.551008 
L 166.356589 455.20128 
L 166.660534 453.613848 
L 166.761849 450.438984 
L 167.116452 448.851552 
L 167.217767 442.501824 
L 167.926973 439.32696 
L 168.129604 436.152096 
L 168.686837 432.977232 
L 169.04144 425.040072 
L 169.750646 421.865208 
L 170.510509 420.277776 
L 170.865112 417.102912 
L 171.067742 412.340616 
L 171.1184 410.753184 
L 171.726291 407.57832 
L 171.928921 404.403456 
L 172.182209 398.053728 
L 172.384839 396.466296 
L 172.587469 393.291432 
L 172.99273 385.354272 
L 173.499306 367.89252 
L 173.803251 366.305088 
L 174.157854 355.193064 
L 174.461799 353.605632 
L 174.613772 350.430768 
L 174.816402 347.255904 
L 175.221663 345.668472 
L 175.728239 332.969016 
L 175.880211 331.381584 
L 176.589417 329.794152 
L 176.842705 328.20672 
L 176.94402 326.619288 
L 177.501253 325.031856 
L 177.855856 317.094696 
L 178.210459 312.3324 
L 178.261117 310.744968 
L 178.565062 309.157536 
L 178.767693 305.982672 
L 178.81835 302.807808 
L 179.071638 301.220376 
L 179.223611 298.045512 
L 180.084789 293.283216 
L 180.084789 291.695784 
L 180.388735 288.52092 
L 180.49005 286.933488 
L 180.793995 285.346056 
L 181.148598 275.821464 
L 181.351229 274.234032 
L 181.705832 272.6466 
L 181.908462 267.884304 
L 182.36438 266.296872 
L 182.718983 263.122008 
L 182.820298 259.947144 
L 183.225559 258.359712 
L 183.934764 256.77228 
L 183.934764 255.184848 
L 184.44134 253.597416 
L 184.44134 250.422552 
L 184.947916 248.83512 
L 184.947916 247.247688 
L 185.454491 245.660256 
L 185.454491 244.072824 
L 186.467643 242.485392 
L 186.467643 237.723096 
L 186.974218 236.135664 
L 187.98737 234.548232 
L 187.98737 232.9608 
L 189.000521 229.785936 
L 189.000521 225.02364 
L 189.507097 223.436208 
L 189.507097 220.261344 
L 190.013672 218.673912 
L 190.013672 217.08648 
L 190.520248 215.499048 
L 190.520248 213.911616 
L 191.026824 212.324184 
L 191.026824 210.736752 
L 192.039975 209.14932 
L 192.039975 207.561888 
L 192.546551 205.974456 
L 192.546551 201.21216 
L 193.053126 199.624728 
L 194.572853 198.037296 
L 195.079429 196.449864 
L 195.079429 193.275 
L 197.105732 190.100136 
L 197.105732 186.925272 
L 198.118883 183.750408 
L 198.118883 182.162976 
L 199.132035 180.575544 
L 199.132035 175.813248 
L 200.145186 172.638384 
L 200.145186 171.050952 
L 201.664913 166.288656 
L 201.664913 164.701224 
L 202.171489 163.113792 
L 202.171489 161.52636 
L 202.678064 159.938928 
L 202.678064 158.351496 
L 203.18464 156.764064 
L 203.18464 155.176632 
L 203.691216 153.5892 
L 203.691216 152.001768 
L 204.704367 150.414336 
L 205.210943 148.826904 
L 207.237245 147.239472 
L 207.237245 145.65204 
L 207.743821 144.064608 
L 207.743821 140.889744 
L 208.756972 137.71488 
L 209.770124 136.127448 
L 211.796426 134.540016 
L 212.303002 132.952584 
L 212.303002 131.365152 
L 216.355607 129.77772 
L 219.395061 125.015424 
L 220.914788 123.427992 
L 221.421364 121.84056 
L 222.434515 120.253128 
L 223.447667 117.078264 
L 223.447667 113.9034 
L 225.473969 112.315968 
L 226.487121 109.141104 
L 227.500272 107.553672 
L 228.006848 105.96624 
L 228.006848 104.378808 
L 229.526575 102.791376 
L 231.552877 101.203944 
L 232.059453 99.616512 
L 233.57918 98.02908 
L 234.592331 94.854216 
L 235.605483 93.266784 
L 241.177815 91.679352 
L 249.283026 90.09192 
L 250.296177 88.504488 
L 251.815904 86.917056 
L 253.842207 85.329624 
L 265.493447 83.742192 
L 265.493447 82.15476 
L 268.532901 80.567328 
L 274.105233 78.979896 
L 292.341958 77.392464 
L 299.940593 75.805032 
L 326.789103 74.2176 
L 326.789103 74.2176 
" style="fill:none;stroke:#7570b3;stroke-dasharray:2,4;stroke-dashoffset:0;"/>
   </g>
   <g id="line2d_63">
    <path clip-path="url(#p41aae4b5c5)" d="M 150.602085 548.854459 
L 150.602085 547.261718 
L 152.223128 545.668977 
L 153.337594 544.076235 
L 155.211924 542.483494 
L 157.288884 540.890753 
L 158.251378 539.298012 
L 158.403351 537.705271 
L 159.163214 536.11253 
L 159.213872 534.519789 
L 159.568475 532.927047 
L 160.429653 531.334306 
L 161.037544 529.741565 
L 161.493462 528.148824 
L 161.54412 526.556083 
L 162.000038 524.963342 
L 162.152011 523.370601 
L 162.810559 520.185118 
L 162.810559 518.592377 
L 163.21582 515.406895 
L 163.21582 513.814154 
L 163.469107 512.221413 
L 163.874368 505.850448 
L 164.786204 502.664966 
L 164.836862 501.072225 
L 165.49541 497.886742 
L 165.546068 494.70126 
L 165.850013 493.108519 
L 165.951328 491.515778 
L 166.356589 489.923037 
L 166.407246 486.737555 
L 166.660534 483.552072 
L 167.268425 481.959331 
L 167.825658 477.181108 
L 168.180261 475.588367 
L 168.281576 473.995625 
L 168.585522 472.402884 
L 169.142755 470.810143 
L 170.054591 466.03192 
L 170.307879 462.846437 
L 170.510509 461.253696 
L 171.473003 458.068214 
L 171.473003 456.475473 
L 171.878264 454.882732 
L 172.131551 448.511767 
L 172.334182 445.326285 
L 172.7901 443.733544 
L 172.840757 442.140803 
L 173.347333 438.95532 
L 173.701936 437.362579 
L 173.803251 434.177097 
L 174.309827 430.991615 
L 174.613772 429.398874 
L 174.613772 427.806132 
L 175.019033 426.213391 
L 175.171005 421.435168 
L 175.373636 419.842427 
L 175.373636 418.249686 
L 175.981526 416.656944 
L 176.133499 413.471462 
L 177.095993 402.322274 
L 177.197308 399.136792 
L 177.298623 394.358569 
L 177.450596 392.765827 
L 177.501253 389.580345 
L 178.159802 387.987604 
L 178.666378 386.394863 
L 178.666378 384.802122 
L 178.81835 383.209381 
L 178.81835 381.616639 
L 179.071638 380.023898 
L 179.578214 378.431157 
L 179.882159 373.652934 
L 180.388735 370.467452 
L 180.844653 368.87471 
L 181.148598 367.281969 
L 182.212407 356.132781 
L 182.212407 354.54004 
L 182.56701 352.947299 
L 182.972271 349.761817 
L 183.478846 348.169076 
L 183.934764 340.20537 
L 183.934764 338.612629 
L 184.44134 337.019888 
L 184.44134 332.241664 
L 184.947916 330.648923 
L 184.947916 327.463441 
L 185.454491 325.8707 
L 185.454491 324.277959 
L 185.961067 322.685217 
L 185.961067 321.092476 
L 186.467643 319.499735 
L 186.467643 317.906994 
L 186.974218 316.314253 
L 186.974218 311.536029 
L 187.480794 309.943288 
L 187.480794 306.757806 
L 187.98737 305.165065 
L 189.000521 303.572324 
L 189.000521 301.979583 
L 190.013672 298.7941 
L 190.013672 297.201359 
L 190.520248 295.608618 
L 190.520248 294.015877 
L 191.533399 290.830395 
L 191.533399 289.237654 
L 192.039975 287.644912 
L 192.039975 286.052171 
L 192.546551 284.45943 
L 192.546551 282.866689 
L 193.559702 279.681207 
L 193.559702 274.902983 
L 194.066278 273.310242 
L 194.066278 268.532019 
L 195.079429 265.346536 
L 195.079429 263.753795 
L 195.586005 262.161054 
L 195.586005 257.382831 
L 196.092581 255.79009 
L 196.092581 252.604607 
L 197.105732 249.419125 
L 197.105732 247.826384 
L 198.118883 244.640902 
L 198.118883 236.677196 
L 198.625459 235.084455 
L 198.625459 233.491714 
L 199.132035 231.898973 
L 200.145186 230.306231 
L 200.651762 228.71349 
L 200.651762 225.528008 
L 201.158337 223.935267 
L 201.158337 222.342526 
L 201.664913 220.749785 
L 201.664913 219.157043 
L 202.171489 217.564302 
L 202.171489 212.786079 
L 203.18464 209.600597 
L 203.18464 208.007856 
L 203.691216 206.415114 
L 203.691216 204.822373 
L 204.197791 203.229632 
L 204.197791 201.636891 
L 204.704367 200.04415 
L 204.704367 198.451409 
L 205.717518 196.858668 
L 205.717518 195.265926 
L 206.73067 192.080444 
L 206.73067 188.894962 
L 207.743821 187.302221 
L 207.743821 185.70948 
L 209.770124 179.338515 
L 209.770124 176.153033 
L 212.809578 171.374809 
L 213.822729 168.189327 
L 214.83588 166.596586 
L 215.342456 165.003845 
L 216.355607 163.411104 
L 216.355607 161.818363 
L 216.862183 160.225621 
L 216.862183 158.63288 
L 218.888486 157.040139 
L 218.888486 155.447398 
L 219.395061 153.854657 
L 220.914788 152.261916 
L 220.914788 149.076433 
L 221.421364 147.483692 
L 222.434515 145.890951 
L 222.941091 144.29821 
L 222.941091 142.705469 
L 224.460818 137.927245 
L 225.980545 136.334504 
L 226.487121 134.741763 
L 229.526575 133.149022 
L 230.03315 131.556281 
L 232.059453 128.370799 
L 232.059453 125.185316 
L 232.566029 123.592575 
L 233.57918 121.999834 
L 233.57918 120.407093 
L 234.085756 118.814352 
L 234.085756 117.221611 
L 235.605483 115.62887 
L 238.644937 114.036128 
L 238.644937 112.443387 
L 241.684391 109.257905 
L 245.736996 106.072423 
L 246.243572 104.479682 
L 247.256723 102.88694 
L 249.283026 101.294199 
L 249.789601 99.701458 
L 249.789601 98.108717 
L 252.829055 96.515976 
L 255.868509 93.330494 
L 261.947417 91.737753 
L 263.467144 90.145011 
L 266.000023 88.55227 
L 271.065779 86.959529 
L 272.585506 85.366788 
L 275.118385 83.774047 
L 286.769625 82.181306 
L 294.36826 80.588565 
L 297.407714 78.995823 
L 320.203619 77.403082 
L 327.802254 75.810341 
L 350.091584 74.2176 
L 350.091584 74.2176 
" style="fill:none;stroke:#e7298a;stroke-dasharray:8,4,2,4;stroke-dashoffset:0;"/>
   </g>
   <g id="line2d_64">
    <path clip-path="url(#p41aae4b5c5)" d="M 148.01855 548.859768 
L 152.020497 547.272336 
L 153.742855 545.684904 
L 153.84417 544.097472 
L 154.553376 542.51004 
L 154.806664 539.335176 
L 156.478363 537.747744 
L 156.680993 536.160312 
L 157.542172 534.57288 
L 160.632284 532.985448 
L 160.784256 531.398016 
L 161.138859 529.810584 
L 161.34149 525.048288 
L 161.392147 523.460856 
L 161.696093 521.873424 
L 161.696093 520.285992 
L 162.303983 515.523696 
L 163.063847 513.936264 
L 163.41845 512.348832 
L 164.178313 510.7614 
L 164.330286 505.999104 
L 164.988834 504.411672 
L 164.988834 502.82424 
L 165.140807 501.236808 
L 166.153958 499.649376 
L 166.508561 498.061944 
L 166.660534 496.474512 
L 167.16711 494.88708 
L 167.217767 493.299648 
L 167.775001 491.712216 
L 168.940125 490.124784 
L 169.092097 488.537352 
L 170.054591 486.94992 
L 170.206564 485.362488 
L 170.662482 483.775056 
L 170.763797 480.600192 
L 170.966427 477.425328 
L 171.422345 475.837896 
L 171.726291 474.250464 
L 172.283524 469.488168 
L 172.891415 467.900736 
L 173.094045 466.313304 
L 173.803251 464.725872 
L 174.056539 459.963576 
L 175.06969 458.376144 
L 175.171005 455.20128 
L 175.829554 450.438984 
L 176.082842 447.26412 
L 176.589417 445.676688 
L 176.690732 444.089256 
L 177.045335 442.501824 
L 177.298623 439.32696 
L 177.501253 434.564664 
L 177.855856 432.977232 
L 178.311775 425.040072 
L 179.527556 423.45264 
L 179.527556 421.865208 
L 179.831502 418.690344 
L 180.439392 415.51548 
L 180.591365 413.928048 
L 181.047283 412.340616 
L 181.655174 405.990888 
L 182.111092 404.403456 
L 182.111092 402.816024 
L 182.415037 401.228592 
L 182.76964 396.466296 
L 182.921613 393.291432 
L 183.022928 390.116568 
L 183.174901 386.941704 
L 183.478846 383.76684 
L 184.44134 382.179408 
L 184.44134 375.82968 
L 184.947916 374.242248 
L 184.947916 372.654816 
L 185.454491 371.067384 
L 185.454491 369.479952 
L 186.467643 367.89252 
L 186.467643 366.305088 
L 187.480794 363.130224 
L 187.480794 359.95536 
L 187.98737 358.367928 
L 187.98737 355.193064 
L 189.000521 353.605632 
L 189.000521 348.843336 
L 189.507097 347.255904 
L 189.507097 345.668472 
L 190.013672 344.08104 
L 190.013672 342.493608 
L 190.520248 340.906176 
L 190.520248 339.318744 
L 191.026824 337.731312 
L 191.026824 334.556448 
L 192.039975 331.381584 
L 192.039975 329.794152 
L 192.546551 328.20672 
L 192.546551 325.031856 
L 193.053126 323.444424 
L 193.053126 317.094696 
L 193.559702 315.507264 
L 194.572853 313.919832 
L 195.079429 312.3324 
L 195.079429 310.744968 
L 195.586005 309.157536 
L 195.586005 307.570104 
L 196.092581 305.982672 
L 196.092581 302.807808 
L 196.599156 301.220376 
L 196.599156 298.045512 
L 197.105732 296.45808 
L 198.118883 294.870648 
L 198.118883 293.283216 
L 198.625459 291.695784 
L 198.625459 290.108352 
L 199.132035 288.52092 
L 199.132035 286.933488 
L 199.63861 285.346056 
L 199.63861 283.758624 
L 201.158337 278.996328 
L 201.158337 277.408896 
L 202.171489 274.234032 
L 202.171489 272.6466 
L 203.18464 271.059168 
L 203.18464 269.471736 
L 204.197791 266.296872 
L 204.197791 264.70944 
L 205.717518 263.122008 
L 205.717518 258.359712 
L 206.73067 255.184848 
L 206.73067 250.422552 
L 208.250397 245.660256 
L 208.250397 244.072824 
L 209.263548 242.485392 
L 209.263548 240.89796 
L 209.770124 239.310528 
L 209.770124 236.135664 
L 210.276699 234.548232 
L 210.276699 232.9608 
L 211.289851 231.373368 
L 211.796426 229.785936 
L 211.796426 228.198504 
L 213.316153 223.436208 
L 214.329305 221.848776 
L 214.329305 220.261344 
L 214.83588 218.673912 
L 214.83588 215.499048 
L 215.849032 212.324184 
L 215.849032 210.736752 
L 216.355607 209.14932 
L 216.355607 207.561888 
L 216.862183 205.974456 
L 216.862183 204.387024 
L 217.368759 202.799592 
L 217.368759 199.624728 
L 217.875334 198.037296 
L 217.875334 196.449864 
L 218.888486 194.862432 
L 218.888486 190.100136 
L 219.901637 188.512704 
L 219.901637 186.925272 
L 220.408213 185.33784 
L 221.92794 183.750408 
L 221.92794 182.162976 
L 222.941091 178.988112 
L 222.941091 177.40068 
L 223.447667 175.813248 
L 224.967394 174.225816 
L 224.967394 172.638384 
L 225.980545 169.46352 
L 225.980545 166.288656 
L 226.993696 163.113792 
L 228.006848 161.52636 
L 228.513423 159.938928 
L 229.526575 158.351496 
L 229.526575 156.764064 
L 230.03315 155.176632 
L 230.03315 152.001768 
L 231.046302 150.414336 
L 232.566029 148.826904 
L 232.566029 144.064608 
L 233.072604 142.477176 
L 233.072604 139.302312 
L 234.592331 137.71488 
L 236.618634 131.365152 
L 237.631785 129.77772 
L 237.631785 126.602856 
L 240.164664 125.015424 
L 240.164664 123.427992 
L 241.177815 121.84056 
L 243.204118 120.253128 
L 244.723845 115.490832 
L 245.736996 113.9034 
L 247.256723 112.315968 
L 247.763299 110.728536 
L 247.763299 109.141104 
L 248.269874 107.553672 
L 249.283026 105.96624 
L 252.32248 102.791376 
L 253.335631 101.203944 
L 254.855358 99.616512 
L 255.361934 98.02908 
L 257.388236 94.854216 
L 261.440842 91.679352 
L 274.105233 90.09192 
L 275.62496 88.504488 
L 275.62496 86.917056 
L 280.184142 85.329624 
L 280.690717 83.742192 
L 280.690717 82.15476 
L 287.782777 80.567328 
L 307.539228 78.979896 
L 321.723346 77.392464 
L 337.427192 75.805032 
L 345.532403 74.2176 
L 345.532403 74.2176 
" style="fill:none;stroke:#66a61e;stroke-linecap:round;"/>
    <defs>
     <path d="M 0 3 
C 0.795609 3 1.55874 2.683901 2.12132 2.12132 
C 2.683901 1.55874 3 0.795609 3 0 
C 3 -0.795609 2.683901 -1.55874 2.12132 -2.12132 
C 1.55874 -2.683901 0.795609 -3 0 -3 
C -0.795609 -3 -1.55874 -2.683901 -2.12132 -2.12132 
C -2.683901 -1.55874 -3 -0.795609 -3 0 
C -3 0.795609 -2.683901 1.55874 -2.12132 2.12132 
C -1.55874 2.683901 -0.795609 3 0 3 
z
" id="m51ac94f6ae" style="stroke:#66a61e;"/>
    </defs>
    <g clip-path="url(#p41aae4b5c5)">
     <use style="fill:#66a61e;stroke:#66a61e;" x="148.01855" xlink:href="#m51ac94f6ae" y="548.859768"/>
     <use style="fill:#66a61e;stroke:#66a61e;" x="160.632284" xlink:href="#m51ac94f6ae" y="532.985448"/>
     <use style="fill:#66a61e;stroke:#66a61e;" x="162.000038" xlink:href="#m51ac94f6ae" y="517.111128"/>
     <use style="fill:#66a61e;stroke:#66a61e;" x="165.140807" xlink:href="#m51ac94f6ae" y="501.236808"/>
     <use style="fill:#66a61e;stroke:#66a61e;" x="170.206564" xlink:href="#m51ac94f6ae" y="485.362488"/>
     <use style="fill:#66a61e;stroke:#66a61e;" x="172.283524" xlink:href="#m51ac94f6ae" y="469.488168"/>
     <use style="fill:#66a61e;stroke:#66a61e;" x="175.424293" xlink:href="#m51ac94f6ae" y="453.613848"/>
     <use style="fill:#66a61e;stroke:#66a61e;" x="177.349281" xlink:href="#m51ac94f6ae" y="437.739528"/>
     <use style="fill:#66a61e;stroke:#66a61e;" x="179.527556" xlink:href="#m51ac94f6ae" y="421.865208"/>
     <use style="fill:#66a61e;stroke:#66a61e;" x="181.655174" xlink:href="#m51ac94f6ae" y="405.990888"/>
     <use style="fill:#66a61e;stroke:#66a61e;" x="183.022928" xlink:href="#m51ac94f6ae" y="390.116568"/>
     <use style="fill:#66a61e;stroke:#66a61e;" x="184.947916" xlink:href="#m51ac94f6ae" y="374.242248"/>
     <use style="fill:#66a61e;stroke:#66a61e;" x="187.98737" xlink:href="#m51ac94f6ae" y="358.367928"/>
     <use style="fill:#66a61e;stroke:#66a61e;" x="190.013672" xlink:href="#m51ac94f6ae" y="342.493608"/>
     <use style="fill:#66a61e;stroke:#66a61e;" x="192.546551" xlink:href="#m51ac94f6ae" y="326.619288"/>
     <use style="fill:#66a61e;stroke:#66a61e;" x="195.079429" xlink:href="#m51ac94f6ae" y="310.744968"/>
     <use style="fill:#66a61e;stroke:#66a61e;" x="198.118883" xlink:href="#m51ac94f6ae" y="294.870648"/>
     <use style="fill:#66a61e;stroke:#66a61e;" x="201.158337" xlink:href="#m51ac94f6ae" y="278.996328"/>
     <use style="fill:#66a61e;stroke:#66a61e;" x="205.717518" xlink:href="#m51ac94f6ae" y="263.122008"/>
     <use style="fill:#66a61e;stroke:#66a61e;" x="207.743821" xlink:href="#m51ac94f6ae" y="247.247688"/>
     <use style="fill:#66a61e;stroke:#66a61e;" x="211.289851" xlink:href="#m51ac94f6ae" y="231.373368"/>
     <use style="fill:#66a61e;stroke:#66a61e;" x="214.83588" xlink:href="#m51ac94f6ae" y="215.499048"/>
     <use style="fill:#66a61e;stroke:#66a61e;" x="217.368759" xlink:href="#m51ac94f6ae" y="199.624728"/>
     <use style="fill:#66a61e;stroke:#66a61e;" x="221.92794" xlink:href="#m51ac94f6ae" y="183.750408"/>
     <use style="fill:#66a61e;stroke:#66a61e;" x="225.980545" xlink:href="#m51ac94f6ae" y="167.876088"/>
     <use style="fill:#66a61e;stroke:#66a61e;" x="230.03315" xlink:href="#m51ac94f6ae" y="152.001768"/>
     <use style="fill:#66a61e;stroke:#66a61e;" x="235.098907" xlink:href="#m51ac94f6ae" y="136.127448"/>
     <use style="fill:#66a61e;stroke:#66a61e;" x="243.204118" xlink:href="#m51ac94f6ae" y="120.253128"/>
     <use style="fill:#66a61e;stroke:#66a61e;" x="250.802753" xlink:href="#m51ac94f6ae" y="104.378808"/>
     <use style="fill:#66a61e;stroke:#66a61e;" x="275.62496" xlink:href="#m51ac94f6ae" y="88.504488"/>
    </g>
   </g>
   <g id="patch_3">
    <path d="M 122.13 550.4472 
L 122.13 74.2176 
" style="fill:none;"/>
   </g>
   <g id="patch_4">
    <path d="M 741.168 550.4472 
L 741.168 74.2176 
" style="fill:none;"/>
   </g>
   <g id="patch_5">
    <path d="M 122.13 550.4472 
L 741.168 550.4472 
" style="fill:none;"/>
   </g>
   <g id="patch_6">
    <path d="M 122.13 74.2176 
L 741.168 74.2176 
" style="fill:none;"/>
   </g>
   <g id="legend_1">
    <g id="line2d_65">
     <path d="M 756.88076 80.963598 
L 773.54076 80.963598 
" style="fill:none;stroke:#1b9e77;stroke-linecap:round;"/>
    </g>
    <g id="line2d_66"/>
    <g id="text_16">
     <!-- Ping (ms) - BBRn-fq -->
     <g transform="translate(780.20476 83.879098)scale(0.0833 -0.0833)">
      <defs>
       <path d="M 19.671875 64.796875 
L 19.671875 37.40625 
L 32.078125 37.40625 
Q 38.96875 37.40625 42.71875 40.96875 
Q 46.484375 44.53125 46.484375 51.125 
Q 46.484375 57.671875 42.71875 61.234375 
Q 38.96875 64.796875 32.078125 64.796875 
z
M 9.8125 72.90625 
L 32.078125 72.90625 
Q 44.34375 72.90625 50.609375 67.359375 
Q 56.890625 61.8125 56.890625 51.125 
Q 56.890625 40.328125 50.609375 34.8125 
Q 44.34375 29.296875 32.078125 29.296875 
L 19.671875 29.296875 
L 19.671875 0 
L 9.8125 0 
z
" id="DejaVuSans-80"/>
       <path d="M 54.890625 33.015625 
L 54.890625 0 
L 45.90625 0 
L 45.90625 32.71875 
Q 45.90625 40.484375 42.875 44.328125 
Q 39.84375 48.1875 33.796875 48.1875 
Q 26.515625 48.1875 22.3125 43.546875 
Q 18.109375 38.921875 18.109375 30.90625 
L 18.109375 0 
L 9.078125 0 
L 9.078125 54.6875 
L 18.109375 54.6875 
L 18.109375 46.1875 
Q 21.34375 51.125 25.703125 53.5625 
Q 30.078125 56 35.796875 56 
Q 45.21875 56 50.046875 50.171875 
Q 54.890625 44.34375 54.890625 33.015625 
z
" id="DejaVuSans-110"/>
       <path d="M 45.40625 27.984375 
Q 45.40625 37.75 41.375 43.109375 
Q 37.359375 48.484375 30.078125 48.484375 
Q 22.859375 48.484375 18.828125 43.109375 
Q 14.796875 37.75 14.796875 27.984375 
Q 14.796875 18.265625 18.828125 12.890625 
Q 22.859375 7.515625 30.078125 7.515625 
Q 37.359375 7.515625 41.375 12.890625 
Q 45.40625 18.265625 45.40625 27.984375 
z
M 54.390625 6.78125 
Q 54.390625 -7.171875 48.1875 -13.984375 
Q 42 -20.796875 29.203125 -20.796875 
Q 24.46875 -20.796875 20.265625 -20.09375 
Q 16.0625 -19.390625 12.109375 -17.921875 
L 12.109375 -9.1875 
Q 16.0625 -11.328125 19.921875 -12.34375 
Q 23.78125 -13.375 27.78125 -13.375 
Q 36.625 -13.375 41.015625 -8.765625 
Q 45.40625 -4.15625 45.40625 5.171875 
L 45.40625 9.625 
Q 42.625 4.78125 38.28125 2.390625 
Q 33.9375 0 27.875 0 
Q 17.828125 0 11.671875 7.65625 
Q 5.515625 15.328125 5.515625 27.984375 
Q 5.515625 40.671875 11.671875 48.328125 
Q 17.828125 56 27.875 56 
Q 33.9375 56 38.28125 53.609375 
Q 42.625 51.21875 45.40625 46.390625 
L 45.40625 54.6875 
L 54.390625 54.6875 
z
" id="DejaVuSans-103"/>
       <path d="M 31 75.875 
Q 24.46875 64.65625 21.28125 53.65625 
Q 18.109375 42.671875 18.109375 31.390625 
Q 18.109375 20.125 21.3125 9.0625 
Q 24.515625 -2 31 -13.1875 
L 23.1875 -13.1875 
Q 15.875 -1.703125 12.234375 9.375 
Q 8.59375 20.453125 8.59375 31.390625 
Q 8.59375 42.28125 12.203125 53.3125 
Q 15.828125 64.359375 23.1875 75.875 
z
" id="DejaVuSans-40"/>
       <path d="M 8.015625 75.875 
L 15.828125 75.875 
Q 23.140625 64.359375 26.78125 53.3125 
Q 30.421875 42.28125 30.421875 31.390625 
Q 30.421875 20.453125 26.78125 9.375 
Q 23.140625 -1.703125 15.828125 -13.1875 
L 8.015625 -13.1875 
Q 14.5 -2 17.703125 9.0625 
Q 20.90625 20.125 20.90625 31.390625 
Q 20.90625 42.671875 17.703125 53.65625 
Q 14.5 64.65625 8.015625 75.875 
z
" id="DejaVuSans-41"/>
       <path d="M 4.890625 31.390625 
L 31.203125 31.390625 
L 31.203125 23.390625 
L 4.890625 23.390625 
z
" id="DejaVuSans-45"/>
       <path d="M 19.671875 34.8125 
L 19.671875 8.109375 
L 35.5 8.109375 
Q 43.453125 8.109375 47.28125 11.40625 
Q 51.125 14.703125 51.125 21.484375 
Q 51.125 28.328125 47.28125 31.5625 
Q 43.453125 34.8125 35.5 34.8125 
z
M 19.671875 64.796875 
L 19.671875 42.828125 
L 34.28125 42.828125 
Q 41.5 42.828125 45.03125 45.53125 
Q 48.578125 48.25 48.578125 53.8125 
Q 48.578125 59.328125 45.03125 62.0625 
Q 41.5 64.796875 34.28125 64.796875 
z
M 9.8125 72.90625 
L 35.015625 72.90625 
Q 46.296875 72.90625 52.390625 68.21875 
Q 58.5 63.53125 58.5 54.890625 
Q 58.5 48.1875 55.375 44.234375 
Q 52.25 40.28125 46.1875 39.3125 
Q 53.46875 37.75 57.5 32.78125 
Q 61.53125 27.828125 61.53125 20.40625 
Q 61.53125 10.640625 54.890625 5.3125 
Q 48.25 0 35.984375 0 
L 9.8125 0 
z
" id="DejaVuSans-66"/>
       <path d="M 44.390625 34.1875 
Q 47.5625 33.109375 50.5625 29.59375 
Q 53.5625 26.078125 56.59375 19.921875 
L 66.609375 0 
L 56 0 
L 46.6875 18.703125 
Q 43.0625 26.03125 39.671875 28.421875 
Q 36.28125 30.8125 30.421875 30.8125 
L 19.671875 30.8125 
L 19.671875 0 
L 9.8125 0 
L 9.8125 72.90625 
L 32.078125 72.90625 
Q 44.578125 72.90625 50.734375 67.671875 
Q 56.890625 62.453125 56.890625 51.90625 
Q 56.890625 45.015625 53.6875 40.46875 
Q 50.484375 35.9375 44.390625 34.1875 
z
M 19.671875 64.796875 
L 19.671875 38.921875 
L 32.078125 38.921875 
Q 39.203125 38.921875 42.84375 42.21875 
Q 46.484375 45.515625 46.484375 51.90625 
Q 46.484375 58.296875 42.84375 61.546875 
Q 39.203125 64.796875 32.078125 64.796875 
z
" id="DejaVuSans-82"/>
       <path d="M 37.109375 75.984375 
L 37.109375 68.5 
L 28.515625 68.5 
Q 23.6875 68.5 21.796875 66.546875 
Q 19.921875 64.59375 19.921875 59.515625 
L 19.921875 54.6875 
L 34.71875 54.6875 
L 34.71875 47.703125 
L 19.921875 47.703125 
L 19.921875 0 
L 10.890625 0 
L 10.890625 47.703125 
L 2.296875 47.703125 
L 2.296875 54.6875 
L 10.890625 54.6875 
L 10.890625 58.5 
Q 10.890625 67.625 15.140625 71.796875 
Q 19.390625 75.984375 28.609375 75.984375 
z
" id="DejaVuSans-102"/>
       <path d="M 14.796875 27.296875 
Q 14.796875 17.390625 18.875 11.75 
Q 22.953125 6.109375 30.078125 6.109375 
Q 37.203125 6.109375 41.296875 11.75 
Q 45.40625 17.390625 45.40625 27.296875 
Q 45.40625 37.203125 41.296875 42.84375 
Q 37.203125 48.484375 30.078125 48.484375 
Q 22.953125 48.484375 18.875 42.84375 
Q 14.796875 37.203125 14.796875 27.296875 
z
M 45.40625 8.203125 
Q 42.578125 3.328125 38.25 0.953125 
Q 33.9375 -1.421875 27.875 -1.421875 
Q 17.96875 -1.421875 11.734375 6.484375 
Q 5.515625 14.40625 5.515625 27.296875 
Q 5.515625 40.1875 11.734375 48.09375 
Q 17.96875 56 27.875 56 
Q 33.9375 56 38.25 53.625 
Q 42.578125 51.265625 45.40625 46.390625 
L 45.40625 54.6875 
L 54.390625 54.6875 
L 54.390625 -20.796875 
L 45.40625 -20.796875 
z
" id="DejaVuSans-113"/>
      </defs>
      <use xlink:href="#DejaVuSans-80"/>
      <use x="58.052734" xlink:href="#DejaVuSans-105"/>
      <use x="85.835938" xlink:href="#DejaVuSans-110"/>
      <use x="149.214844" xlink:href="#DejaVuSans-103"/>
      <use x="212.691406" xlink:href="#DejaVuSans-32"/>
      <use x="244.478516" xlink:href="#DejaVuSans-40"/>
      <use x="283.492188" xlink:href="#DejaVuSans-109"/>
      <use x="380.904297" xlink:href="#DejaVuSans-115"/>
      <use x="433.003906" xlink:href="#DejaVuSans-41"/>
      <use x="472.017578" xlink:href="#DejaVuSans-32"/>
      <use x="503.804688" xlink:href="#DejaVuSans-45"/>
      <use x="539.888672" xlink:href="#DejaVuSans-32"/>
      <use x="571.675781" xlink:href="#DejaVuSans-66"/>
      <use x="640.279297" xlink:href="#DejaVuSans-66"/>
      <use x="708.882812" xlink:href="#DejaVuSans-82"/>
      <use x="778.365234" xlink:href="#DejaVuSans-110"/>
      <use x="841.744141" xlink:href="#DejaVuSans-45"/>
      <use x="877.828125" xlink:href="#DejaVuSans-102"/>
      <use x="913.033203" xlink:href="#DejaVuSans-113"/>
     </g>
    </g>
    <g id="line2d_67">
     <path d="M 756.88076 93.190477 
L 773.54076 93.190477 
" style="fill:none;stroke:#d95f02;stroke-dasharray:3.7,1.6;stroke-dashoffset:0;"/>
    </g>
    <g id="line2d_68"/>
    <g id="text_17">
     <!-- Ping (ms) - BBRn-fq_codel -->
     <g transform="translate(780.20476 96.105977)scale(0.0833 -0.0833)">
      <defs>
       <path d="M 50.984375 -16.609375 
L 50.984375 -23.578125 
L -0.984375 -23.578125 
L -0.984375 -16.609375 
z
" id="DejaVuSans-95"/>
       <path d="M 48.78125 52.59375 
L 48.78125 44.1875 
Q 44.96875 46.296875 41.140625 47.34375 
Q 37.3125 48.390625 33.40625 48.390625 
Q 24.65625 48.390625 19.8125 42.84375 
Q 14.984375 37.3125 14.984375 27.296875 
Q 14.984375 17.28125 19.8125 11.734375 
Q 24.65625 6.203125 33.40625 6.203125 
Q 37.3125 6.203125 41.140625 7.25 
Q 44.96875 8.296875 48.78125 10.40625 
L 48.78125 2.09375 
Q 45.015625 0.34375 40.984375 -0.53125 
Q 36.96875 -1.421875 32.421875 -1.421875 
Q 20.0625 -1.421875 12.78125 6.34375 
Q 5.515625 14.109375 5.515625 27.296875 
Q 5.515625 40.671875 12.859375 48.328125 
Q 20.21875 56 33.015625 56 
Q 37.15625 56 41.109375 55.140625 
Q 45.0625 54.296875 48.78125 52.59375 
z
" id="DejaVuSans-99"/>
       <path d="M 45.40625 46.390625 
L 45.40625 75.984375 
L 54.390625 75.984375 
L 54.390625 0 
L 45.40625 0 
L 45.40625 8.203125 
Q 42.578125 3.328125 38.25 0.953125 
Q 33.9375 -1.421875 27.875 -1.421875 
Q 17.96875 -1.421875 11.734375 6.484375 
Q 5.515625 14.40625 5.515625 27.296875 
Q 5.515625 40.1875 11.734375 48.09375 
Q 17.96875 56 27.875 56 
Q 33.9375 56 38.25 53.625 
Q 42.578125 51.265625 45.40625 46.390625 
z
M 14.796875 27.296875 
Q 14.796875 17.390625 18.875 11.75 
Q 22.953125 6.109375 30.078125 6.109375 
Q 37.203125 6.109375 41.296875 11.75 
Q 45.40625 17.390625 45.40625 27.296875 
Q 45.40625 37.203125 41.296875 42.84375 
Q 37.203125 48.484375 30.078125 48.484375 
Q 22.953125 48.484375 18.875 42.84375 
Q 14.796875 37.203125 14.796875 27.296875 
z
" id="DejaVuSans-100"/>
      </defs>
      <use xlink:href="#DejaVuSans-80"/>
      <use x="58.052734" xlink:href="#DejaVuSans-105"/>
      <use x="85.835938" xlink:href="#DejaVuSans-110"/>
      <use x="149.214844" xlink:href="#DejaVuSans-103"/>
      <use x="212.691406" xlink:href="#DejaVuSans-32"/>
      <use x="244.478516" xlink:href="#DejaVuSans-40"/>
      <use x="283.492188" xlink:href="#DejaVuSans-109"/>
      <use x="380.904297" xlink:href="#DejaVuSans-115"/>
      <use x="433.003906" xlink:href="#DejaVuSans-41"/>
      <use x="472.017578" xlink:href="#DejaVuSans-32"/>
      <use x="503.804688" xlink:href="#DejaVuSans-45"/>
      <use x="539.888672" xlink:href="#DejaVuSans-32"/>
      <use x="571.675781" xlink:href="#DejaVuSans-66"/>
      <use x="640.279297" xlink:href="#DejaVuSans-66"/>
      <use x="708.882812" xlink:href="#DejaVuSans-82"/>
      <use x="778.365234" xlink:href="#DejaVuSans-110"/>
      <use x="841.744141" xlink:href="#DejaVuSans-45"/>
      <use x="877.828125" xlink:href="#DejaVuSans-102"/>
      <use x="913.033203" xlink:href="#DejaVuSans-113"/>
      <use x="976.509766" xlink:href="#DejaVuSans-95"/>
      <use x="1026.509766" xlink:href="#DejaVuSans-99"/>
      <use x="1081.490234" xlink:href="#DejaVuSans-111"/>
      <use x="1142.671875" xlink:href="#DejaVuSans-100"/>
      <use x="1206.148438" xlink:href="#DejaVuSans-101"/>
      <use x="1267.671875" xlink:href="#DejaVuSans-108"/>
     </g>
    </g>
    <g id="line2d_69">
     <path d="M 756.88076 105.649033 
L 773.54076 105.649033 
" style="fill:none;stroke:#7570b3;stroke-dasharray:2,4;stroke-dashoffset:0;"/>
    </g>
    <g id="line2d_70"/>
    <g id="text_18">
     <!-- Ping (ms) - BBRn-cake -->
     <g transform="translate(780.20476 108.564533)scale(0.0833 -0.0833)">
      <defs>
       <path d="M 9.078125 75.984375 
L 18.109375 75.984375 
L 18.109375 31.109375 
L 44.921875 54.6875 
L 56.390625 54.6875 
L 27.390625 29.109375 
L 57.625 0 
L 45.90625 0 
L 18.109375 26.703125 
L 18.109375 0 
L 9.078125 0 
z
" id="DejaVuSans-107"/>
      </defs>
      <use xlink:href="#DejaVuSans-80"/>
      <use x="58.052734" xlink:href="#DejaVuSans-105"/>
      <use x="85.835938" xlink:href="#DejaVuSans-110"/>
      <use x="149.214844" xlink:href="#DejaVuSans-103"/>
      <use x="212.691406" xlink:href="#DejaVuSans-32"/>
      <use x="244.478516" xlink:href="#DejaVuSans-40"/>
      <use x="283.492188" xlink:href="#DejaVuSans-109"/>
      <use x="380.904297" xlink:href="#DejaVuSans-115"/>
      <use x="433.003906" xlink:href="#DejaVuSans-41"/>
      <use x="472.017578" xlink:href="#DejaVuSans-32"/>
      <use x="503.804688" xlink:href="#DejaVuSans-45"/>
      <use x="539.888672" xlink:href="#DejaVuSans-32"/>
      <use x="571.675781" xlink:href="#DejaVuSans-66"/>
      <use x="640.279297" xlink:href="#DejaVuSans-66"/>
      <use x="708.882812" xlink:href="#DejaVuSans-82"/>
      <use x="778.365234" xlink:href="#DejaVuSans-110"/>
      <use x="841.744141" xlink:href="#DejaVuSans-45"/>
      <use x="877.828125" xlink:href="#DejaVuSans-99"/>
      <use x="932.808594" xlink:href="#DejaVuSans-97"/>
      <use x="994.087891" xlink:href="#DejaVuSans-107"/>
      <use x="1048.373047" xlink:href="#DejaVuSans-101"/>
     </g>
    </g>
    <g id="line2d_71">
     <path d="M 756.88076 117.875911 
L 773.54076 117.875911 
" style="fill:none;stroke:#e7298a;stroke-dasharray:8,4,2,4;stroke-dashoffset:0;"/>
    </g>
    <g id="line2d_72"/>
    <g id="text_19">
     <!-- Ping (ms) - BBRn-pie -->
     <g transform="translate(780.20476 120.791411)scale(0.0833 -0.0833)">
      <use xlink:href="#DejaVuSans-80"/>
      <use x="58.052734" xlink:href="#DejaVuSans-105"/>
      <use x="85.835938" xlink:href="#DejaVuSans-110"/>
      <use x="149.214844" xlink:href="#DejaVuSans-103"/>
      <use x="212.691406" xlink:href="#DejaVuSans-32"/>
      <use x="244.478516" xlink:href="#DejaVuSans-40"/>
      <use x="283.492188" xlink:href="#DejaVuSans-109"/>
      <use x="380.904297" xlink:href="#DejaVuSans-115"/>
      <use x="433.003906" xlink:href="#DejaVuSans-41"/>
      <use x="472.017578" xlink:href="#DejaVuSans-32"/>
      <use x="503.804688" xlink:href="#DejaVuSans-45"/>
      <use x="539.888672" xlink:href="#DejaVuSans-32"/>
      <use x="571.675781" xlink:href="#DejaVuSans-66"/>
      <use x="640.279297" xlink:href="#DejaVuSans-66"/>
      <use x="708.882812" xlink:href="#DejaVuSans-82"/>
      <use x="778.365234" xlink:href="#DejaVuSans-110"/>
      <use x="841.744141" xlink:href="#DejaVuSans-45"/>
      <use x="877.828125" xlink:href="#DejaVuSans-112"/>
      <use x="941.304688" xlink:href="#DejaVuSans-105"/>
      <use x="969.087891" xlink:href="#DejaVuSans-101"/>
     </g>
    </g>
    <g id="line2d_73">
     <path d="M 756.88076 130.102789 
L 773.54076 130.102789 
" style="fill:none;stroke:#66a61e;stroke-linecap:round;"/>
    </g>
    <g id="line2d_74">
     <g>
      <use style="fill:#66a61e;stroke:#66a61e;" x="765.21076" xlink:href="#m51ac94f6ae" y="130.102789"/>
     </g>
    </g>
    <g id="text_20">
     <!-- Ping (ms) - BBRn-codel -->
     <g transform="translate(780.20476 133.018289)scale(0.0833 -0.0833)">
      <use xlink:href="#DejaVuSans-80"/>
      <use x="58.052734" xlink:href="#DejaVuSans-105"/>
      <use x="85.835938" xlink:href="#DejaVuSans-110"/>
      <use x="149.214844" xlink:href="#DejaVuSans-103"/>
      <use x="212.691406" xlink:href="#DejaVuSans-32"/>
      <use x="244.478516" xlink:href="#DejaVuSans-40"/>
      <use x="283.492188" xlink:href="#DejaVuSans-109"/>
      <use x="380.904297" xlink:href="#DejaVuSans-115"/>
      <use x="433.003906" xlink:href="#DejaVuSans-41"/>
      <use x="472.017578" xlink:href="#DejaVuSans-32"/>
      <use x="503.804688" xlink:href="#DejaVuSans-45"/>
      <use x="539.888672" xlink:href="#DejaVuSans-32"/>
      <use x="571.675781" xlink:href="#DejaVuSans-66"/>
      <use x="640.279297" xlink:href="#DejaVuSans-66"/>
      <use x="708.882812" xlink:href="#DejaVuSans-82"/>
      <use x="778.365234" xlink:href="#DejaVuSans-110"/>
      <use x="841.744141" xlink:href="#DejaVuSans-45"/>
      <use x="877.828125" xlink:href="#DejaVuSans-99"/>
      <use x="932.808594" xlink:href="#DejaVuSans-111"/>
      <use x="993.990234" xlink:href="#DejaVuSans-100"/>
      <use x="1057.466797" xlink:href="#DejaVuSans-101"/>
      <use x="1118.990234" xlink:href="#DejaVuSans-108"/>
     </g>
    </g>
   </g>
  </g>
  <g id="text_21">
   <!-- TCP upload - N streams w/ping -->
   <g transform="translate(381.295312 15.791812)scale(0.14 -0.14)">
    <defs>
     <path d="M -0.296875 72.90625 
L 61.375 72.90625 
L 61.375 64.59375 
L 35.5 64.59375 
L 35.5 0 
L 25.59375 0 
L 25.59375 64.59375 
L -0.296875 64.59375 
z
" id="DejaVuSans-84"/>
     <path d="M 9.8125 72.90625 
L 23.09375 72.90625 
L 55.421875 11.921875 
L 55.421875 72.90625 
L 64.984375 72.90625 
L 64.984375 0 
L 51.703125 0 
L 19.390625 60.984375 
L 19.390625 0 
L 9.8125 0 
z
" id="DejaVuSans-78"/>
     <path d="M 4.203125 54.6875 
L 13.1875 54.6875 
L 24.421875 12.015625 
L 35.59375 54.6875 
L 46.1875 54.6875 
L 57.421875 12.015625 
L 68.609375 54.6875 
L 77.59375 54.6875 
L 63.28125 0 
L 52.6875 0 
L 40.921875 44.828125 
L 29.109375 0 
L 18.5 0 
z
" id="DejaVuSans-119"/>
     <path d="M 25.390625 72.90625 
L 33.6875 72.90625 
L 8.296875 -9.28125 
L 0 -9.28125 
z
" id="DejaVuSans-47"/>
    </defs>
    <use xlink:href="#DejaVuSans-84"/>
    <use x="55.208984" xlink:href="#DejaVuSans-67"/>
    <use x="125.033203" xlink:href="#DejaVuSans-80"/>
    <use x="185.335938" xlink:href="#DejaVuSans-32"/>
    <use x="217.123047" xlink:href="#DejaVuSans-117"/>
    <use x="280.501953" xlink:href="#DejaVuSans-112"/>
    <use x="343.978516" xlink:href="#DejaVuSans-108"/>
    <use x="371.761719" xlink:href="#DejaVuSans-111"/>
    <use x="432.943359" xlink:href="#DejaVuSans-97"/>
    <use x="494.222656" xlink:href="#DejaVuSans-100"/>
    <use x="557.699219" xlink:href="#DejaVuSans-32"/>
    <use x="589.486328" xlink:href="#DejaVuSans-45"/>
    <use x="625.570312" xlink:href="#DejaVuSans-32"/>
    <use x="657.357422" xlink:href="#DejaVuSans-78"/>
    <use x="732.162109" xlink:href="#DejaVuSans-32"/>
    <use x="763.949219" xlink:href="#DejaVuSans-115"/>
    <use x="816.048828" xlink:href="#DejaVuSans-116"/>
    <use x="855.257812" xlink:href="#DejaVuSans-114"/>
    <use x="894.121094" xlink:href="#DejaVuSans-101"/>
    <use x="955.644531" xlink:href="#DejaVuSans-97"/>
    <use x="1016.923828" xlink:href="#DejaVuSans-109"/>
    <use x="1114.335938" xlink:href="#DejaVuSans-115"/>
    <use x="1166.435547" xlink:href="#DejaVuSans-32"/>
    <use x="1198.222656" xlink:href="#DejaVuSans-119"/>
    <use x="1280.009766" xlink:href="#DejaVuSans-47"/>
    <use x="1313.701172" xlink:href="#DejaVuSans-112"/>
    <use x="1377.177734" xlink:href="#DejaVuSans-105"/>
    <use x="1404.960938" xlink:href="#DejaVuSans-110"/>
    <use x="1468.339844" xlink:href="#DejaVuSans-103"/>
   </g>
   <!-- Ping CDF plot -->
   <g transform="translate(441.4625 31.46875)scale(0.14 -0.14)">
    <defs>
     <path d="M 19.671875 64.796875 
L 19.671875 8.109375 
L 31.59375 8.109375 
Q 46.6875 8.109375 53.6875 14.9375 
Q 60.6875 21.78125 60.6875 36.53125 
Q 60.6875 51.171875 53.6875 57.984375 
Q 46.6875 64.796875 31.59375 64.796875 
z
M 9.8125 72.90625 
L 30.078125 72.90625 
Q 51.265625 72.90625 61.171875 64.09375 
Q 71.09375 55.28125 71.09375 36.53125 
Q 71.09375 17.671875 61.125 8.828125 
Q 51.171875 0 30.078125 0 
L 9.8125 0 
z
" id="DejaVuSans-68"/>
     <path d="M 9.8125 72.90625 
L 51.703125 72.90625 
L 51.703125 64.59375 
L 19.671875 64.59375 
L 19.671875 43.109375 
L 48.578125 43.109375 
L 48.578125 34.8125 
L 19.671875 34.8125 
L 19.671875 0 
L 9.8125 0 
z
" id="DejaVuSans-70"/>
    </defs>
    <use xlink:href="#DejaVuSans-80"/>
    <use x="58.052734" xlink:href="#DejaVuSans-105"/>
    <use x="85.835938" xlink:href="#DejaVuSans-110"/>
    <use x="149.214844" xlink:href="#DejaVuSans-103"/>
    <use x="212.691406" xlink:href="#DejaVuSans-32"/>
    <use x="244.478516" xlink:href="#DejaVuSans-67"/>
    <use x="314.302734" xlink:href="#DejaVuSans-68"/>
    <use x="391.304688" xlink:href="#DejaVuSans-70"/>
    <use x="448.824219" xlink:href="#DejaVuSans-32"/>
    <use x="480.611328" xlink:href="#DejaVuSans-112"/>
    <use x="544.087891" xlink:href="#DejaVuSans-108"/>
    <use x="571.871094" xlink:href="#DejaVuSans-111"/>
    <use x="633.052734" xlink:href="#DejaVuSans-116"/>
   </g>
  </g>
 </g>
 <defs>
  <clipPath id="p41aae4b5c5">
   <rect height="476.2296" width="619.038" x="122.13" y="74.2176"/>
  </clipPath>
 </defs>
</svg>
