<?xml version="1.0" encoding="utf-8" standalone="no"?>
<!DOCTYPE svg PUBLIC "-//W3C//DTD SVG 1.1//EN"
  "http://www.w3.org/Graphics/SVG/1.1/DTD/svg11.dtd">
<!-- Created with matplotlib (https://matplotlib.org/) -->
<svg height="345.96025pt" version="1.1" viewBox="0 0 549.642895 345.96025" width="549.642895pt" xmlns="http://www.w3.org/2000/svg" xmlns:xlink="http://www.w3.org/1999/xlink">
 <metadata>
  <rdf:RDF xmlns:cc="http://creativecommons.org/ns#" xmlns:dc="http://purl.org/dc/elements/1.1/" xmlns:rdf="http://www.w3.org/1999/02/22-rdf-syntax-ns#">
   <cc:Work>
    <dc:type rdf:resource="http://purl.org/dc/dcmitype/StillImage"/>
    <dc:date>2023-09-14T10:42:26.937564</dc:date>
    <dc:format>image/svg+xml</dc:format>
    <dc:creator>
     <cc:Agent>
      <dc:title>Matplotlib v3.3.4, https://matplotlib.org/</dc:title>
     </cc:Agent>
    </dc:creator>
   </cc:Work>
  </rdf:RDF>
 </metadata>
 <defs>
  <style type="text/css">*{stroke-linecap:butt;stroke-linejoin:round;}</style>
 </defs>
 <g id="figure_1">
  <g id="patch_1">
   <path d="M 0 345.96025 
L 549.642895 345.96025 
L 549.642895 0 
L 0 0 
z
" style="fill:#ffffff;"/>
  </g>
  <g id="axes_1">
   <g id="patch_2">
    <path d="M 40.28125 311.904 
L 397.40125 311.904 
L 397.40125 45.792 
L 40.28125 45.792 
z
" style="fill:#e6e6e6;"/>
   </g>
   <g id="matplotlib.axis_1">
    <g id="xtick_1">
     <g id="line2d_1">
      <path clip-path="url(#p62216f5998)" d="M 42.15959 311.904 
L 42.15959 45.792 
" style="fill:none;stroke:#ffffff;stroke-linecap:round;"/>
     </g>
     <g id="line2d_2"/>
     <g id="text_1">
      <!-- 0 -->
      <g transform="translate(38.97834 323.002437)scale(0.1 -0.1)">
       <defs>
        <path d="M 31.78125 66.40625 
Q 24.171875 66.40625 20.328125 58.90625 
Q 16.5 51.421875 16.5 36.375 
Q 16.5 21.390625 20.328125 13.890625 
Q 24.171875 6.390625 31.78125 6.390625 
Q 39.453125 6.390625 43.28125 13.890625 
Q 47.125 21.390625 47.125 36.375 
Q 47.125 51.421875 43.28125 58.90625 
Q 39.453125 66.40625 31.78125 66.40625 
z
M 31.78125 74.21875 
Q 44.046875 74.21875 50.515625 64.515625 
Q 56.984375 54.828125 56.984375 36.375 
Q 56.984375 17.96875 50.515625 8.265625 
Q 44.046875 -1.421875 31.78125 -1.421875 
Q 19.53125 -1.421875 13.0625 8.265625 
Q 6.59375 17.96875 6.59375 36.375 
Q 6.59375 54.828125 13.0625 64.515625 
Q 19.53125 74.21875 31.78125 74.21875 
z
" id="DejaVuSans-48"/>
       </defs>
       <use xlink:href="#DejaVuSans-48"/>
      </g>
     </g>
    </g>
    <g id="xtick_2">
     <g id="line2d_3">
      <path clip-path="url(#p62216f5998)" d="M 86.564798 311.904 
L 86.564798 45.792 
" style="fill:none;stroke:#ffffff;stroke-linecap:round;"/>
     </g>
     <g id="line2d_4"/>
     <g id="text_2">
      <!-- 10 -->
      <g transform="translate(80.202298 323.002437)scale(0.1 -0.1)">
       <defs>
        <path d="M 12.40625 8.296875 
L 28.515625 8.296875 
L 28.515625 63.921875 
L 10.984375 60.40625 
L 10.984375 69.390625 
L 28.421875 72.90625 
L 38.28125 72.90625 
L 38.28125 8.296875 
L 54.390625 8.296875 
L 54.390625 0 
L 12.40625 0 
z
" id="DejaVuSans-49"/>
       </defs>
       <use xlink:href="#DejaVuSans-49"/>
       <use x="63.623047" xlink:href="#DejaVuSans-48"/>
      </g>
     </g>
    </g>
    <g id="xtick_3">
     <g id="line2d_5">
      <path clip-path="url(#p62216f5998)" d="M 130.970005 311.904 
L 130.970005 45.792 
" style="fill:none;stroke:#ffffff;stroke-linecap:round;"/>
     </g>
     <g id="line2d_6"/>
     <g id="text_3">
      <!-- 20 -->
      <g transform="translate(124.607505 323.002437)scale(0.1 -0.1)">
       <defs>
        <path d="M 19.1875 8.296875 
L 53.609375 8.296875 
L 53.609375 0 
L 7.328125 0 
L 7.328125 8.296875 
Q 12.9375 14.109375 22.625 23.890625 
Q 32.328125 33.6875 34.8125 36.53125 
Q 39.546875 41.84375 41.421875 45.53125 
Q 43.3125 49.21875 43.3125 52.78125 
Q 43.3125 58.59375 39.234375 62.25 
Q 35.15625 65.921875 28.609375 65.921875 
Q 23.96875 65.921875 18.8125 64.3125 
Q 13.671875 62.703125 7.8125 59.421875 
L 7.8125 69.390625 
Q 13.765625 71.78125 18.9375 73 
Q 24.125 74.21875 28.421875 74.21875 
Q 39.75 74.21875 46.484375 68.546875 
Q 53.21875 62.890625 53.21875 53.421875 
Q 53.21875 48.921875 51.53125 44.890625 
Q 49.859375 40.875 45.40625 35.40625 
Q 44.1875 33.984375 37.640625 27.21875 
Q 31.109375 20.453125 19.1875 8.296875 
z
" id="DejaVuSans-50"/>
       </defs>
       <use xlink:href="#DejaVuSans-50"/>
       <use x="63.623047" xlink:href="#DejaVuSans-48"/>
      </g>
     </g>
    </g>
    <g id="xtick_4">
     <g id="line2d_7">
      <path clip-path="url(#p62216f5998)" d="M 175.375213 311.904 
L 175.375213 45.792 
" style="fill:none;stroke:#ffffff;stroke-linecap:round;"/>
     </g>
     <g id="line2d_8"/>
     <g id="text_4">
      <!-- 30 -->
      <g transform="translate(169.012713 323.002437)scale(0.1 -0.1)">
       <defs>
        <path d="M 40.578125 39.3125 
Q 47.65625 37.796875 51.625 33 
Q 55.609375 28.21875 55.609375 21.1875 
Q 55.609375 10.40625 48.1875 4.484375 
Q 40.765625 -1.421875 27.09375 -1.421875 
Q 22.515625 -1.421875 17.65625 -0.515625 
Q 12.796875 0.390625 7.625 2.203125 
L 7.625 11.71875 
Q 11.71875 9.328125 16.59375 8.109375 
Q 21.484375 6.890625 26.8125 6.890625 
Q 36.078125 6.890625 40.9375 10.546875 
Q 45.796875 14.203125 45.796875 21.1875 
Q 45.796875 27.640625 41.28125 31.265625 
Q 36.765625 34.90625 28.71875 34.90625 
L 20.21875 34.90625 
L 20.21875 43.015625 
L 29.109375 43.015625 
Q 36.375 43.015625 40.234375 45.921875 
Q 44.09375 48.828125 44.09375 54.296875 
Q 44.09375 59.90625 40.109375 62.90625 
Q 36.140625 65.921875 28.71875 65.921875 
Q 24.65625 65.921875 20.015625 65.03125 
Q 15.375 64.15625 9.8125 62.3125 
L 9.8125 71.09375 
Q 15.4375 72.65625 20.34375 73.4375 
Q 25.25 74.21875 29.59375 74.21875 
Q 40.828125 74.21875 47.359375 69.109375 
Q 53.90625 64.015625 53.90625 55.328125 
Q 53.90625 49.265625 50.4375 45.09375 
Q 46.96875 40.921875 40.578125 39.3125 
z
" id="DejaVuSans-51"/>
       </defs>
       <use xlink:href="#DejaVuSans-51"/>
       <use x="63.623047" xlink:href="#DejaVuSans-48"/>
      </g>
     </g>
    </g>
    <g id="xtick_5">
     <g id="line2d_9">
      <path clip-path="url(#p62216f5998)" d="M 219.78042 311.904 
L 219.78042 45.792 
" style="fill:none;stroke:#ffffff;stroke-linecap:round;"/>
     </g>
     <g id="line2d_10"/>
     <g id="text_5">
      <!-- 40 -->
      <g transform="translate(213.41792 323.002437)scale(0.1 -0.1)">
       <defs>
        <path d="M 37.796875 64.3125 
L 12.890625 25.390625 
L 37.796875 25.390625 
z
M 35.203125 72.90625 
L 47.609375 72.90625 
L 47.609375 25.390625 
L 58.015625 25.390625 
L 58.015625 17.1875 
L 47.609375 17.1875 
L 47.609375 0 
L 37.796875 0 
L 37.796875 17.1875 
L 4.890625 17.1875 
L 4.890625 26.703125 
z
" id="DejaVuSans-52"/>
       </defs>
       <use xlink:href="#DejaVuSans-52"/>
       <use x="63.623047" xlink:href="#DejaVuSans-48"/>
      </g>
     </g>
    </g>
    <g id="xtick_6">
     <g id="line2d_11">
      <path clip-path="url(#p62216f5998)" d="M 264.185628 311.904 
L 264.185628 45.792 
" style="fill:none;stroke:#ffffff;stroke-linecap:round;"/>
     </g>
     <g id="line2d_12"/>
     <g id="text_6">
      <!-- 50 -->
      <g transform="translate(257.823128 323.002437)scale(0.1 -0.1)">
       <defs>
        <path d="M 10.796875 72.90625 
L 49.515625 72.90625 
L 49.515625 64.59375 
L 19.828125 64.59375 
L 19.828125 46.734375 
Q 21.96875 47.46875 24.109375 47.828125 
Q 26.265625 48.1875 28.421875 48.1875 
Q 40.625 48.1875 47.75 41.5 
Q 54.890625 34.8125 54.890625 23.390625 
Q 54.890625 11.625 47.5625 5.09375 
Q 40.234375 -1.421875 26.90625 -1.421875 
Q 22.3125 -1.421875 17.546875 -0.640625 
Q 12.796875 0.140625 7.71875 1.703125 
L 7.71875 11.625 
Q 12.109375 9.234375 16.796875 8.0625 
Q 21.484375 6.890625 26.703125 6.890625 
Q 35.15625 6.890625 40.078125 11.328125 
Q 45.015625 15.765625 45.015625 23.390625 
Q 45.015625 31 40.078125 35.4375 
Q 35.15625 39.890625 26.703125 39.890625 
Q 22.75 39.890625 18.8125 39.015625 
Q 14.890625 38.140625 10.796875 36.28125 
z
" id="DejaVuSans-53"/>
       </defs>
       <use xlink:href="#DejaVuSans-53"/>
       <use x="63.623047" xlink:href="#DejaVuSans-48"/>
      </g>
     </g>
    </g>
    <g id="xtick_7">
     <g id="line2d_13">
      <path clip-path="url(#p62216f5998)" d="M 308.590835 311.904 
L 308.590835 45.792 
" style="fill:none;stroke:#ffffff;stroke-linecap:round;"/>
     </g>
     <g id="line2d_14"/>
     <g id="text_7">
      <!-- 60 -->
      <g transform="translate(302.228335 323.002437)scale(0.1 -0.1)">
       <defs>
        <path d="M 33.015625 40.375 
Q 26.375 40.375 22.484375 35.828125 
Q 18.609375 31.296875 18.609375 23.390625 
Q 18.609375 15.53125 22.484375 10.953125 
Q 26.375 6.390625 33.015625 6.390625 
Q 39.65625 6.390625 43.53125 10.953125 
Q 47.40625 15.53125 47.40625 23.390625 
Q 47.40625 31.296875 43.53125 35.828125 
Q 39.65625 40.375 33.015625 40.375 
z
M 52.59375 71.296875 
L 52.59375 62.3125 
Q 48.875 64.0625 45.09375 64.984375 
Q 41.3125 65.921875 37.59375 65.921875 
Q 27.828125 65.921875 22.671875 59.328125 
Q 17.53125 52.734375 16.796875 39.40625 
Q 19.671875 43.65625 24.015625 45.921875 
Q 28.375 48.1875 33.59375 48.1875 
Q 44.578125 48.1875 50.953125 41.515625 
Q 57.328125 34.859375 57.328125 23.390625 
Q 57.328125 12.15625 50.6875 5.359375 
Q 44.046875 -1.421875 33.015625 -1.421875 
Q 20.359375 -1.421875 13.671875 8.265625 
Q 6.984375 17.96875 6.984375 36.375 
Q 6.984375 53.65625 15.1875 63.9375 
Q 23.390625 74.21875 37.203125 74.21875 
Q 40.921875 74.21875 44.703125 73.484375 
Q 48.484375 72.75 52.59375 71.296875 
z
" id="DejaVuSans-54"/>
       </defs>
       <use xlink:href="#DejaVuSans-54"/>
       <use x="63.623047" xlink:href="#DejaVuSans-48"/>
      </g>
     </g>
    </g>
    <g id="xtick_8">
     <g id="line2d_15">
      <path clip-path="url(#p62216f5998)" d="M 352.996043 311.904 
L 352.996043 45.792 
" style="fill:none;stroke:#ffffff;stroke-linecap:round;"/>
     </g>
     <g id="line2d_16"/>
     <g id="text_8">
      <!-- 70 -->
      <g transform="translate(346.633543 323.002437)scale(0.1 -0.1)">
       <defs>
        <path d="M 8.203125 72.90625 
L 55.078125 72.90625 
L 55.078125 68.703125 
L 28.609375 0 
L 18.3125 0 
L 43.21875 64.59375 
L 8.203125 64.59375 
z
" id="DejaVuSans-55"/>
       </defs>
       <use xlink:href="#DejaVuSans-55"/>
       <use x="63.623047" xlink:href="#DejaVuSans-48"/>
      </g>
     </g>
    </g>
    <g id="xtick_9">
     <g id="line2d_17">
      <path clip-path="url(#p62216f5998)" d="M 397.40125 311.904 
L 397.40125 45.792 
" style="fill:none;stroke:#ffffff;stroke-linecap:round;"/>
     </g>
     <g id="line2d_18"/>
     <g id="text_9">
      <!-- 80 -->
      <g transform="translate(391.03875 323.002437)scale(0.1 -0.1)">
       <defs>
        <path d="M 31.78125 34.625 
Q 24.75 34.625 20.71875 30.859375 
Q 16.703125 27.09375 16.703125 20.515625 
Q 16.703125 13.921875 20.71875 10.15625 
Q 24.75 6.390625 31.78125 6.390625 
Q 38.8125 6.390625 42.859375 10.171875 
Q 46.921875 13.96875 46.921875 20.515625 
Q 46.921875 27.09375 42.890625 30.859375 
Q 38.875 34.625 31.78125 34.625 
z
M 21.921875 38.8125 
Q 15.578125 40.375 12.03125 44.71875 
Q 8.5 49.078125 8.5 55.328125 
Q 8.5 64.0625 14.71875 69.140625 
Q 20.953125 74.21875 31.78125 74.21875 
Q 42.671875 74.21875 48.875 69.140625 
Q 55.078125 64.0625 55.078125 55.328125 
Q 55.078125 49.078125 51.53125 44.71875 
Q 48 40.375 41.703125 38.8125 
Q 48.828125 37.15625 52.796875 32.3125 
Q 56.78125 27.484375 56.78125 20.515625 
Q 56.78125 9.90625 50.3125 4.234375 
Q 43.84375 -1.421875 31.78125 -1.421875 
Q 19.734375 -1.421875 13.25 4.234375 
Q 6.78125 9.90625 6.78125 20.515625 
Q 6.78125 27.484375 10.78125 32.3125 
Q 14.796875 37.15625 21.921875 38.8125 
z
M 18.3125 54.390625 
Q 18.3125 48.734375 21.84375 45.5625 
Q 25.390625 42.390625 31.78125 42.390625 
Q 38.140625 42.390625 41.71875 45.5625 
Q 45.3125 48.734375 45.3125 54.390625 
Q 45.3125 60.0625 41.71875 63.234375 
Q 38.140625 66.40625 31.78125 66.40625 
Q 25.390625 66.40625 21.84375 63.234375 
Q 18.3125 60.0625 18.3125 54.390625 
z
" id="DejaVuSans-56"/>
       </defs>
       <use xlink:href="#DejaVuSans-56"/>
       <use x="63.623047" xlink:href="#DejaVuSans-48"/>
      </g>
     </g>
    </g>
    <g id="xtick_10">
     <g id="line2d_19"/>
    </g>
    <g id="xtick_11">
     <g id="line2d_20"/>
    </g>
    <g id="xtick_12">
     <g id="line2d_21"/>
    </g>
    <g id="xtick_13">
     <g id="line2d_22"/>
    </g>
    <g id="xtick_14">
     <g id="line2d_23"/>
    </g>
    <g id="xtick_15">
     <g id="line2d_24"/>
    </g>
    <g id="xtick_16">
     <g id="line2d_25"/>
    </g>
    <g id="xtick_17">
     <g id="line2d_26"/>
    </g>
    <g id="xtick_18">
     <g id="line2d_27"/>
    </g>
    <g id="xtick_19">
     <g id="line2d_28"/>
    </g>
    <g id="xtick_20">
     <g id="line2d_29"/>
    </g>
    <g id="xtick_21">
     <g id="line2d_30"/>
    </g>
    <g id="xtick_22">
     <g id="line2d_31"/>
    </g>
    <g id="xtick_23">
     <g id="line2d_32"/>
    </g>
    <g id="xtick_24">
     <g id="line2d_33"/>
    </g>
    <g id="xtick_25">
     <g id="line2d_34"/>
    </g>
    <g id="xtick_26">
     <g id="line2d_35"/>
    </g>
    <g id="xtick_27">
     <g id="line2d_36"/>
    </g>
    <g id="xtick_28">
     <g id="line2d_37"/>
    </g>
    <g id="xtick_29">
     <g id="line2d_38"/>
    </g>
    <g id="xtick_30">
     <g id="line2d_39"/>
    </g>
    <g id="xtick_31">
     <g id="line2d_40"/>
    </g>
    <g id="xtick_32">
     <g id="line2d_41"/>
    </g>
    <g id="xtick_33">
     <g id="line2d_42"/>
    </g>
    <g id="xtick_34">
     <g id="line2d_43"/>
    </g>
    <g id="xtick_35">
     <g id="line2d_44"/>
    </g>
    <g id="xtick_36">
     <g id="line2d_45"/>
    </g>
    <g id="xtick_37">
     <g id="line2d_46"/>
    </g>
    <g id="xtick_38">
     <g id="line2d_47"/>
    </g>
    <g id="xtick_39">
     <g id="line2d_48"/>
    </g>
    <g id="xtick_40">
     <g id="line2d_49"/>
    </g>
    <g id="xtick_41">
     <g id="line2d_50"/>
    </g>
    <g id="text_10">
     <!-- ms -->
     <g transform="translate(211.36625 336.680562)scale(0.1 -0.1)">
      <defs>
       <path d="M 52 44.1875 
Q 55.375 50.25 60.0625 53.125 
Q 64.75 56 71.09375 56 
Q 79.640625 56 84.28125 50.015625 
Q 88.921875 44.046875 88.921875 33.015625 
L 88.921875 0 
L 79.890625 0 
L 79.890625 32.71875 
Q 79.890625 40.578125 77.09375 44.375 
Q 74.3125 48.1875 68.609375 48.1875 
Q 61.625 48.1875 57.5625 43.546875 
Q 53.515625 38.921875 53.515625 30.90625 
L 53.515625 0 
L 44.484375 0 
L 44.484375 32.71875 
Q 44.484375 40.625 41.703125 44.40625 
Q 38.921875 48.1875 33.109375 48.1875 
Q 26.21875 48.1875 22.15625 43.53125 
Q 18.109375 38.875 18.109375 30.90625 
L 18.109375 0 
L 9.078125 0 
L 9.078125 54.6875 
L 18.109375 54.6875 
L 18.109375 46.1875 
Q 21.1875 51.21875 25.484375 53.609375 
Q 29.78125 56 35.6875 56 
Q 41.65625 56 45.828125 52.96875 
Q 50 49.953125 52 44.1875 
z
" id="DejaVuSans-109"/>
       <path d="M 44.28125 53.078125 
L 44.28125 44.578125 
Q 40.484375 46.53125 36.375 47.5 
Q 32.28125 48.484375 27.875 48.484375 
Q 21.1875 48.484375 17.84375 46.4375 
Q 14.5 44.390625 14.5 40.28125 
Q 14.5 37.15625 16.890625 35.375 
Q 19.28125 33.59375 26.515625 31.984375 
L 29.59375 31.296875 
Q 39.15625 29.25 43.1875 25.515625 
Q 47.21875 21.78125 47.21875 15.09375 
Q 47.21875 7.46875 41.1875 3.015625 
Q 35.15625 -1.421875 24.609375 -1.421875 
Q 20.21875 -1.421875 15.453125 -0.5625 
Q 10.6875 0.296875 5.421875 2 
L 5.421875 11.28125 
Q 10.40625 8.6875 15.234375 7.390625 
Q 20.0625 6.109375 24.8125 6.109375 
Q 31.15625 6.109375 34.5625 8.28125 
Q 37.984375 10.453125 37.984375 14.40625 
Q 37.984375 18.0625 35.515625 20.015625 
Q 33.0625 21.96875 24.703125 23.78125 
L 21.578125 24.515625 
Q 13.234375 26.265625 9.515625 29.90625 
Q 5.8125 33.546875 5.8125 39.890625 
Q 5.8125 47.609375 11.28125 51.796875 
Q 16.75 56 26.8125 56 
Q 31.78125 56 36.171875 55.265625 
Q 40.578125 54.546875 44.28125 53.078125 
z
" id="DejaVuSans-115"/>
      </defs>
      <use xlink:href="#DejaVuSans-109"/>
      <use x="97.412109" xlink:href="#DejaVuSans-115"/>
     </g>
    </g>
   </g>
   <g id="matplotlib.axis_2">
    <g id="ytick_1">
     <g id="line2d_51">
      <path clip-path="url(#p62216f5998)" d="M 40.28125 311.904 
L 397.40125 311.904 
" style="fill:none;stroke:#ffffff;stroke-linecap:round;"/>
     </g>
     <g id="line2d_52"/>
     <g id="text_11">
      <!-- 0.0 -->
      <g transform="translate(20.878125 315.703219)scale(0.1 -0.1)">
       <defs>
        <path d="M 10.6875 12.40625 
L 21 12.40625 
L 21 0 
L 10.6875 0 
z
" id="DejaVuSans-46"/>
       </defs>
       <use xlink:href="#DejaVuSans-48"/>
       <use x="63.623047" xlink:href="#DejaVuSans-46"/>
       <use x="95.410156" xlink:href="#DejaVuSans-48"/>
      </g>
     </g>
    </g>
    <g id="ytick_2">
     <g id="line2d_53">
      <path clip-path="url(#p62216f5998)" d="M 40.28125 258.6816 
L 397.40125 258.6816 
" style="fill:none;stroke:#ffffff;stroke-linecap:round;"/>
     </g>
     <g id="line2d_54"/>
     <g id="text_12">
      <!-- 0.2 -->
      <g transform="translate(20.878125 262.480819)scale(0.1 -0.1)">
       <use xlink:href="#DejaVuSans-48"/>
       <use x="63.623047" xlink:href="#DejaVuSans-46"/>
       <use x="95.410156" xlink:href="#DejaVuSans-50"/>
      </g>
     </g>
    </g>
    <g id="ytick_3">
     <g id="line2d_55">
      <path clip-path="url(#p62216f5998)" d="M 40.28125 205.4592 
L 397.40125 205.4592 
" style="fill:none;stroke:#ffffff;stroke-linecap:round;"/>
     </g>
     <g id="line2d_56"/>
     <g id="text_13">
      <!-- 0.4 -->
      <g transform="translate(20.878125 209.258419)scale(0.1 -0.1)">
       <use xlink:href="#DejaVuSans-48"/>
       <use x="63.623047" xlink:href="#DejaVuSans-46"/>
       <use x="95.410156" xlink:href="#DejaVuSans-52"/>
      </g>
     </g>
    </g>
    <g id="ytick_4">
     <g id="line2d_57">
      <path clip-path="url(#p62216f5998)" d="M 40.28125 152.2368 
L 397.40125 152.2368 
" style="fill:none;stroke:#ffffff;stroke-linecap:round;"/>
     </g>
     <g id="line2d_58"/>
     <g id="text_14">
      <!-- 0.6 -->
      <g transform="translate(20.878125 156.036019)scale(0.1 -0.1)">
       <use xlink:href="#DejaVuSans-48"/>
       <use x="63.623047" xlink:href="#DejaVuSans-46"/>
       <use x="95.410156" xlink:href="#DejaVuSans-54"/>
      </g>
     </g>
    </g>
    <g id="ytick_5">
     <g id="line2d_59">
      <path clip-path="url(#p62216f5998)" d="M 40.28125 99.0144 
L 397.40125 99.0144 
" style="fill:none;stroke:#ffffff;stroke-linecap:round;"/>
     </g>
     <g id="line2d_60"/>
     <g id="text_15">
      <!-- 0.8 -->
      <g transform="translate(20.878125 102.813619)scale(0.1 -0.1)">
       <use xlink:href="#DejaVuSans-48"/>
       <use x="63.623047" xlink:href="#DejaVuSans-46"/>
       <use x="95.410156" xlink:href="#DejaVuSans-56"/>
      </g>
     </g>
    </g>
    <g id="ytick_6">
     <g id="line2d_61">
      <path clip-path="url(#p62216f5998)" d="M 40.28125 45.792 
L 397.40125 45.792 
" style="fill:none;stroke:#ffffff;stroke-linecap:round;"/>
     </g>
     <g id="line2d_62"/>
     <g id="text_16">
      <!-- 1.0 -->
      <g transform="translate(20.878125 49.591219)scale(0.1 -0.1)">
       <use xlink:href="#DejaVuSans-49"/>
       <use x="63.623047" xlink:href="#DejaVuSans-46"/>
       <use x="95.410156" xlink:href="#DejaVuSans-48"/>
      </g>
     </g>
    </g>
    <g id="ytick_7">
     <g id="line2d_63"/>
    </g>
    <g id="ytick_8">
     <g id="line2d_64"/>
    </g>
    <g id="ytick_9">
     <g id="line2d_65"/>
    </g>
    <g id="ytick_10">
     <g id="line2d_66"/>
    </g>
    <g id="ytick_11">
     <g id="line2d_67"/>
    </g>
    <g id="ytick_12">
     <g id="line2d_68"/>
    </g>
    <g id="ytick_13">
     <g id="line2d_69"/>
    </g>
    <g id="ytick_14">
     <g id="line2d_70"/>
    </g>
    <g id="ytick_15">
     <g id="line2d_71"/>
    </g>
    <g id="ytick_16">
     <g id="line2d_72"/>
    </g>
    <g id="ytick_17">
     <g id="line2d_73"/>
    </g>
    <g id="ytick_18">
     <g id="line2d_74"/>
    </g>
    <g id="ytick_19">
     <g id="line2d_75"/>
    </g>
    <g id="ytick_20">
     <g id="line2d_76"/>
    </g>
    <g id="ytick_21">
     <g id="line2d_77"/>
    </g>
    <g id="text_17">
     <!-- Cumulative probability -->
     <g transform="translate(14.798438 235.650344)rotate(-90)scale(0.1 -0.1)">
      <defs>
       <path d="M 64.40625 67.28125 
L 64.40625 56.890625 
Q 59.421875 61.53125 53.78125 63.8125 
Q 48.140625 66.109375 41.796875 66.109375 
Q 29.296875 66.109375 22.65625 58.46875 
Q 16.015625 50.828125 16.015625 36.375 
Q 16.015625 21.96875 22.65625 14.328125 
Q 29.296875 6.6875 41.796875 6.6875 
Q 48.140625 6.6875 53.78125 8.984375 
Q 59.421875 11.28125 64.40625 15.921875 
L 64.40625 5.609375 
Q 59.234375 2.09375 53.4375 0.328125 
Q 47.65625 -1.421875 41.21875 -1.421875 
Q 24.65625 -1.421875 15.125 8.703125 
Q 5.609375 18.84375 5.609375 36.375 
Q 5.609375 53.953125 15.125 64.078125 
Q 24.65625 74.21875 41.21875 74.21875 
Q 47.75 74.21875 53.53125 72.484375 
Q 59.328125 70.75 64.40625 67.28125 
z
" id="DejaVuSans-67"/>
       <path d="M 8.5 21.578125 
L 8.5 54.6875 
L 17.484375 54.6875 
L 17.484375 21.921875 
Q 17.484375 14.15625 20.5 10.265625 
Q 23.53125 6.390625 29.59375 6.390625 
Q 36.859375 6.390625 41.078125 11.03125 
Q 45.3125 15.671875 45.3125 23.6875 
L 45.3125 54.6875 
L 54.296875 54.6875 
L 54.296875 0 
L 45.3125 0 
L 45.3125 8.40625 
Q 42.046875 3.421875 37.71875 1 
Q 33.40625 -1.421875 27.6875 -1.421875 
Q 18.265625 -1.421875 13.375 4.4375 
Q 8.5 10.296875 8.5 21.578125 
z
M 31.109375 56 
z
" id="DejaVuSans-117"/>
       <path d="M 9.421875 75.984375 
L 18.40625 75.984375 
L 18.40625 0 
L 9.421875 0 
z
" id="DejaVuSans-108"/>
       <path d="M 34.28125 27.484375 
Q 23.390625 27.484375 19.1875 25 
Q 14.984375 22.515625 14.984375 16.5 
Q 14.984375 11.71875 18.140625 8.90625 
Q 21.296875 6.109375 26.703125 6.109375 
Q 34.1875 6.109375 38.703125 11.40625 
Q 43.21875 16.703125 43.21875 25.484375 
L 43.21875 27.484375 
z
M 52.203125 31.203125 
L 52.203125 0 
L 43.21875 0 
L 43.21875 8.296875 
Q 40.140625 3.328125 35.546875 0.953125 
Q 30.953125 -1.421875 24.3125 -1.421875 
Q 15.921875 -1.421875 10.953125 3.296875 
Q 6 8.015625 6 15.921875 
Q 6 25.140625 12.171875 29.828125 
Q 18.359375 34.515625 30.609375 34.515625 
L 43.21875 34.515625 
L 43.21875 35.40625 
Q 43.21875 41.609375 39.140625 45 
Q 35.0625 48.390625 27.6875 48.390625 
Q 23 48.390625 18.546875 47.265625 
Q 14.109375 46.140625 10.015625 43.890625 
L 10.015625 52.203125 
Q 14.9375 54.109375 19.578125 55.046875 
Q 24.21875 56 28.609375 56 
Q 40.484375 56 46.34375 49.84375 
Q 52.203125 43.703125 52.203125 31.203125 
z
" id="DejaVuSans-97"/>
       <path d="M 18.3125 70.21875 
L 18.3125 54.6875 
L 36.8125 54.6875 
L 36.8125 47.703125 
L 18.3125 47.703125 
L 18.3125 18.015625 
Q 18.3125 11.328125 20.140625 9.421875 
Q 21.96875 7.515625 27.59375 7.515625 
L 36.8125 7.515625 
L 36.8125 0 
L 27.59375 0 
Q 17.1875 0 13.234375 3.875 
Q 9.28125 7.765625 9.28125 18.015625 
L 9.28125 47.703125 
L 2.6875 47.703125 
L 2.6875 54.6875 
L 9.28125 54.6875 
L 9.28125 70.21875 
z
" id="DejaVuSans-116"/>
       <path d="M 9.421875 54.6875 
L 18.40625 54.6875 
L 18.40625 0 
L 9.421875 0 
z
M 9.421875 75.984375 
L 18.40625 75.984375 
L 18.40625 64.59375 
L 9.421875 64.59375 
z
" id="DejaVuSans-105"/>
       <path d="M 2.984375 54.6875 
L 12.5 54.6875 
L 29.59375 8.796875 
L 46.6875 54.6875 
L 56.203125 54.6875 
L 35.6875 0 
L 23.484375 0 
z
" id="DejaVuSans-118"/>
       <path d="M 56.203125 29.59375 
L 56.203125 25.203125 
L 14.890625 25.203125 
Q 15.484375 15.921875 20.484375 11.0625 
Q 25.484375 6.203125 34.421875 6.203125 
Q 39.59375 6.203125 44.453125 7.46875 
Q 49.3125 8.734375 54.109375 11.28125 
L 54.109375 2.78125 
Q 49.265625 0.734375 44.1875 -0.34375 
Q 39.109375 -1.421875 33.890625 -1.421875 
Q 20.796875 -1.421875 13.15625 6.1875 
Q 5.515625 13.8125 5.515625 26.8125 
Q 5.515625 40.234375 12.765625 48.109375 
Q 20.015625 56 32.328125 56 
Q 43.359375 56 49.78125 48.890625 
Q 56.203125 41.796875 56.203125 29.59375 
z
M 47.21875 32.234375 
Q 47.125 39.59375 43.09375 43.984375 
Q 39.0625 48.390625 32.421875 48.390625 
Q 24.90625 48.390625 20.390625 44.140625 
Q 15.875 39.890625 15.1875 32.171875 
z
" id="DejaVuSans-101"/>
       <path id="DejaVuSans-32"/>
       <path d="M 18.109375 8.203125 
L 18.109375 -20.796875 
L 9.078125 -20.796875 
L 9.078125 54.6875 
L 18.109375 54.6875 
L 18.109375 46.390625 
Q 20.953125 51.265625 25.265625 53.625 
Q 29.59375 56 35.59375 56 
Q 45.5625 56 51.78125 48.09375 
Q 58.015625 40.1875 58.015625 27.296875 
Q 58.015625 14.40625 51.78125 6.484375 
Q 45.5625 -1.421875 35.59375 -1.421875 
Q 29.59375 -1.421875 25.265625 0.953125 
Q 20.953125 3.328125 18.109375 8.203125 
z
M 48.6875 27.296875 
Q 48.6875 37.203125 44.609375 42.84375 
Q 40.53125 48.484375 33.40625 48.484375 
Q 26.265625 48.484375 22.1875 42.84375 
Q 18.109375 37.203125 18.109375 27.296875 
Q 18.109375 17.390625 22.1875 11.75 
Q 26.265625 6.109375 33.40625 6.109375 
Q 40.53125 6.109375 44.609375 11.75 
Q 48.6875 17.390625 48.6875 27.296875 
z
" id="DejaVuSans-112"/>
       <path d="M 41.109375 46.296875 
Q 39.59375 47.171875 37.8125 47.578125 
Q 36.03125 48 33.890625 48 
Q 26.265625 48 22.1875 43.046875 
Q 18.109375 38.09375 18.109375 28.8125 
L 18.109375 0 
L 9.078125 0 
L 9.078125 54.6875 
L 18.109375 54.6875 
L 18.109375 46.1875 
Q 20.953125 51.171875 25.484375 53.578125 
Q 30.03125 56 36.53125 56 
Q 37.453125 56 38.578125 55.875 
Q 39.703125 55.765625 41.0625 55.515625 
z
" id="DejaVuSans-114"/>
       <path d="M 30.609375 48.390625 
Q 23.390625 48.390625 19.1875 42.75 
Q 14.984375 37.109375 14.984375 27.296875 
Q 14.984375 17.484375 19.15625 11.84375 
Q 23.34375 6.203125 30.609375 6.203125 
Q 37.796875 6.203125 41.984375 11.859375 
Q 46.1875 17.53125 46.1875 27.296875 
Q 46.1875 37.015625 41.984375 42.703125 
Q 37.796875 48.390625 30.609375 48.390625 
z
M 30.609375 56 
Q 42.328125 56 49.015625 48.375 
Q 55.71875 40.765625 55.71875 27.296875 
Q 55.71875 13.875 49.015625 6.21875 
Q 42.328125 -1.421875 30.609375 -1.421875 
Q 18.84375 -1.421875 12.171875 6.21875 
Q 5.515625 13.875 5.515625 27.296875 
Q 5.515625 40.765625 12.171875 48.375 
Q 18.84375 56 30.609375 56 
z
" id="DejaVuSans-111"/>
       <path d="M 48.6875 27.296875 
Q 48.6875 37.203125 44.609375 42.84375 
Q 40.53125 48.484375 33.40625 48.484375 
Q 26.265625 48.484375 22.1875 42.84375 
Q 18.109375 37.203125 18.109375 27.296875 
Q 18.109375 17.390625 22.1875 11.75 
Q 26.265625 6.109375 33.40625 6.109375 
Q 40.53125 6.109375 44.609375 11.75 
Q 48.6875 17.390625 48.6875 27.296875 
z
M 18.109375 46.390625 
Q 20.953125 51.265625 25.265625 53.625 
Q 29.59375 56 35.59375 56 
Q 45.5625 56 51.78125 48.09375 
Q 58.015625 40.1875 58.015625 27.296875 
Q 58.015625 14.40625 51.78125 6.484375 
Q 45.5625 -1.421875 35.59375 -1.421875 
Q 29.59375 -1.421875 25.265625 0.953125 
Q 20.953125 3.328125 18.109375 8.203125 
L 18.109375 0 
L 9.078125 0 
L 9.078125 75.984375 
L 18.109375 75.984375 
z
" id="DejaVuSans-98"/>
       <path d="M 32.171875 -5.078125 
Q 28.375 -14.84375 24.75 -17.8125 
Q 21.140625 -20.796875 15.09375 -20.796875 
L 7.90625 -20.796875 
L 7.90625 -13.28125 
L 13.1875 -13.28125 
Q 16.890625 -13.28125 18.9375 -11.515625 
Q 21 -9.765625 23.484375 -3.21875 
L 25.09375 0.875 
L 2.984375 54.6875 
L 12.5 54.6875 
L 29.59375 11.921875 
L 46.6875 54.6875 
L 56.203125 54.6875 
z
" id="DejaVuSans-121"/>
      </defs>
      <use xlink:href="#DejaVuSans-67"/>
      <use x="69.824219" xlink:href="#DejaVuSans-117"/>
      <use x="133.203125" xlink:href="#DejaVuSans-109"/>
      <use x="230.615234" xlink:href="#DejaVuSans-117"/>
      <use x="293.994141" xlink:href="#DejaVuSans-108"/>
      <use x="321.777344" xlink:href="#DejaVuSans-97"/>
      <use x="383.056641" xlink:href="#DejaVuSans-116"/>
      <use x="422.265625" xlink:href="#DejaVuSans-105"/>
      <use x="450.048828" xlink:href="#DejaVuSans-118"/>
      <use x="509.228516" xlink:href="#DejaVuSans-101"/>
      <use x="570.751953" xlink:href="#DejaVuSans-32"/>
      <use x="602.539062" xlink:href="#DejaVuSans-112"/>
      <use x="666.015625" xlink:href="#DejaVuSans-114"/>
      <use x="704.878906" xlink:href="#DejaVuSans-111"/>
      <use x="766.060547" xlink:href="#DejaVuSans-98"/>
      <use x="829.537109" xlink:href="#DejaVuSans-97"/>
      <use x="890.816406" xlink:href="#DejaVuSans-98"/>
      <use x="954.292969" xlink:href="#DejaVuSans-105"/>
      <use x="982.076172" xlink:href="#DejaVuSans-108"/>
      <use x="1009.859375" xlink:href="#DejaVuSans-105"/>
      <use x="1037.642578" xlink:href="#DejaVuSans-116"/>
      <use x="1076.851562" xlink:href="#DejaVuSans-121"/>
     </g>
    </g>
   </g>
   <g id="line2d_78">
    <path clip-path="url(#p62216f5998)" d="M 48.55394 311.31264 
L 50.552174 310.72128 
L 51.351468 310.12992 
L 51.529089 308.9472 
L 51.839926 308.35584 
L 51.928736 307.76448 
L 52.283978 307.17312 
L 53.038866 301.85088 
L 53.038866 301.25952 
L 53.216487 300.0768 
L 53.260892 298.89408 
L 53.438513 298.30272 
L 53.571729 297.12 
L 53.749349 296.52864 
L 53.793755 295.34592 
L 53.971375 294.75456 
L 54.104591 292.98048 
L 54.282212 292.38912 
L 54.681859 291.79776 
L 54.903885 291.2064 
L 54.903885 290.61504 
L 55.125911 290.02368 
L 55.214721 288.2496 
L 55.436747 287.65824 
L 56.05842 287.06688 
L 56.05842 286.47552 
L 56.369257 285.2928 
L 56.946524 284.70144 
L 57.657008 282.92736 
L 58.012249 282.336 
L 58.545112 276.4224 
L 58.989164 272.87424 
L 59.033569 271.10016 
L 59.3 270.5088 
L 59.477621 268.73472 
L 59.522026 266.96064 
L 59.699647 266.36928 
L 59.699647 265.77792 
L 59.966078 265.18656 
L 60.676562 264.5952 
L 60.898588 262.82112 
L 61.076209 261.04704 
L 61.076209 260.45568 
L 61.43145 259.86432 
L 61.43145 259.27296 
L 61.697882 258.6816 
L 62.053123 256.90752 
L 62.319554 253.95072 
L 62.630391 253.35936 
L 62.985633 252.17664 
L 62.985633 250.99392 
L 63.385279 249.21984 
L 63.385279 248.03712 
L 63.651711 246.8544 
L 63.784926 245.67168 
L 63.784926 245.08032 
L 64.317789 244.48896 
L 64.406599 243.30624 
L 64.761841 241.53216 
L 64.939462 240.34944 
L 65.205893 239.16672 
L 65.427919 238.57536 
L 65.871971 235.61856 
L 66.093997 235.0272 
L 66.138402 234.43584 
L 66.316023 233.84448 
L 66.538049 232.0704 
L 66.848886 231.47904 
L 66.893291 230.88768 
L 67.248532 229.70496 
L 67.381748 228.52224 
L 67.559369 227.93088 
L 68.136637 227.33952 
L 68.314257 226.74816 
L 68.403068 225.56544 
L 69.024741 224.97408 
L 69.069146 224.38272 
L 69.646414 222.60864 
L 69.646414 222.01728 
L 70.223681 221.42592 
L 70.401302 220.83456 
L 70.445707 220.2432 
L 70.756544 219.65184 
L 70.845354 218.46912 
L 70.97857 217.87776 
L 71.245001 217.2864 
L 71.289406 216.69504 
L 71.555838 216.10368 
L 72.266321 210.78144 
L 72.355131 209.59872 
L 72.621563 209.00736 
L 72.665968 208.416 
L 73.154425 207.82464 
L 73.19883 207.23328 
L 73.687288 205.4592 
L 74.30896 204.86784 
L 74.753013 201.31968 
L 75.152659 200.72832 
L 75.197065 200.13696 
L 75.641117 199.5456 
L 75.818738 198.95424 
L 75.818738 198.36288 
L 75.951953 197.77152 
L 76.307195 197.18016 
L 76.3516 196.5888 
L 76.706842 195.99744 
L 76.840057 195.40608 
L 77.106489 194.81472 
L 77.239704 193.632 
L 77.683756 193.04064 
L 77.816972 192.44928 
L 77.861377 191.26656 
L 77.950187 190.6752 
L 78.882697 190.08384 
L 79.015912 189.49248 
L 79.326749 188.90112 
L 79.415559 187.7184 
L 79.726396 187.12704 
L 79.770801 186.53568 
L 80.037232 185.94432 
L 80.214853 184.17024 
L 80.259258 183.57888 
L 80.481284 182.98752 
L 80.747716 180.62208 
L 80.925336 180.03072 
L 80.925336 179.43936 
L 81.324983 178.848 
L 81.502604 178.25664 
L 81.857846 177.66528 
L 82.213087 175.29984 
L 82.879166 173.52576 
L 83.456433 172.9344 
L 83.722864 172.34304 
L 83.811675 170.56896 
L 84.078106 169.9776 
L 84.255727 168.20352 
L 84.344537 167.0208 
L 85.055021 166.42944 
L 85.232642 165.24672 
L 85.454668 163.47264 
L 85.587883 162.88128 
L 85.943125 162.28992 
L 86.07634 161.69856 
L 86.387177 161.1072 
L 86.564798 160.51584 
L 87.00885 159.92448 
L 87.00885 159.33312 
L 87.452902 158.74176 
L 87.452902 155.78496 
L 87.896954 155.1936 
L 87.896954 153.41952 
L 88.341006 152.82816 
L 88.341006 151.64544 
L 88.785058 151.05408 
L 88.785058 150.46272 
L 89.22911 149.87136 
L 89.22911 148.68864 
L 90.117214 147.50592 
L 90.117214 145.73184 
L 90.561266 145.14048 
L 90.561266 143.3664 
L 91.005318 142.77504 
L 91.005318 141.00096 
L 91.449371 140.4096 
L 91.449371 138.63552 
L 91.893423 138.04416 
L 91.893423 135.08736 
L 92.337475 134.496 
L 92.337475 133.90464 
L 92.781527 133.31328 
L 92.781527 131.5392 
L 93.225579 130.94784 
L 93.225579 129.17376 
L 94.113683 128.5824 
L 95.001787 127.39968 
L 95.001787 126.21696 
L 95.445839 125.6256 
L 95.445839 124.44288 
L 96.333943 123.85152 
L 96.333943 122.6688 
L 96.777995 122.07744 
L 96.777995 121.48608 
L 97.6661 120.89472 
L 97.6661 120.30336 
L 98.998256 118.52928 
L 98.998256 116.7552 
L 99.442308 116.16384 
L 99.442308 115.57248 
L 99.88636 114.98112 
L 99.88636 113.7984 
L 100.774464 112.61568 
L 100.774464 110.8416 
L 102.10662 110.25024 
L 102.10662 108.47616 
L 102.550672 107.8848 
L 102.550672 107.29344 
L 103.438777 106.11072 
L 103.438777 105.51936 
L 103.882829 104.928 
L 103.882829 103.15392 
L 106.547141 102.56256 
L 106.991193 101.9712 
L 106.991193 101.37984 
L 107.879297 100.78848 
L 108.323349 100.19712 
L 108.323349 99.60576 
L 108.767401 99.0144 
L 108.767401 98.42304 
L 109.211454 97.83168 
L 109.211454 96.64896 
L 109.655506 96.0576 
L 109.655506 95.46624 
L 110.54361 94.87488 
L 110.54361 94.28352 
L 110.987662 93.69216 
L 110.987662 93.1008 
L 111.431714 92.50944 
L 111.431714 91.91808 
L 113.207922 89.55264 
L 113.207922 88.36992 
L 114.096026 87.1872 
L 114.096026 86.59584 
L 114.984131 86.00448 
L 114.984131 85.41312 
L 115.872235 84.82176 
L 115.872235 84.2304 
L 116.316287 83.63904 
L 117.204391 83.04768 
L 117.204391 81.86496 
L 118.092495 80.68224 
L 118.092495 78.90816 
L 118.536547 78.3168 
L 118.536547 77.13408 
L 119.424651 75.95136 
L 119.424651 73.58592 
L 120.756807 71.81184 
L 122.088964 71.22048 
L 123.865172 68.85504 
L 124.753276 68.26368 
L 125.197328 67.67232 
L 126.085432 67.08096 
L 126.085432 66.4896 
L 126.529484 65.89824 
L 129.193797 64.71552 
L 129.193797 64.12416 
L 130.081901 63.5328 
L 130.970005 62.35008 
L 132.302161 61.75872 
L 132.302161 61.16736 
L 132.746214 60.576 
L 132.746214 59.98464 
L 133.190266 59.39328 
L 133.190266 58.80192 
L 133.634318 58.21056 
L 134.522422 57.6192 
L 135.410526 56.43648 
L 136.29863 55.84512 
L 136.29863 55.25376 
L 136.742682 54.6624 
L 136.742682 54.07104 
L 137.630786 53.47968 
L 138.074838 52.88832 
L 138.962943 52.29696 
L 142.959411 51.7056 
L 143.847515 50.52288 
L 149.17614 49.93152 
L 151.396401 49.34016 
L 151.396401 48.7488 
L 152.284505 48.15744 
L 152.284505 47.56608 
L 154.948817 46.97472 
L 171.378744 46.38336 
L 214.007743 45.792 
L 214.007743 45.792 
" style="fill:none;stroke:#1b9e77;stroke-linecap:round;"/>
   </g>
   <g id="line2d_79">
    <path clip-path="url(#p62216f5998)" d="M 50.552174 311.01696 
L 52.195167 310.12992 
L 52.417193 309.24288 
L 54.193401 308.35584 
L 58.056655 307.4688 
L 58.234275 306.58176 
L 60.23251 305.69472 
L 60.498941 304.80768 
L 60.587751 303.92064 
L 60.809777 303.0336 
L 61.609071 302.14656 
L 61.919908 301.25952 
L 62.408365 300.37248 
L 62.763607 299.48544 
L 62.808012 298.5984 
L 63.118848 297.71136 
L 63.47409 295.05024 
L 64.273384 293.27616 
L 64.406599 291.50208 
L 64.67303 290.61504 
L 65.649945 288.84096 
L 65.649945 287.95392 
L 66.848886 283.51872 
L 68.358663 282.63168 
L 68.713904 280.8576 
L 69.291172 279.97056 
L 69.513198 278.19648 
L 70.401302 277.30944 
L 70.667733 276.4224 
L 70.934165 274.64832 
L 72.399537 272.87424 
L 72.577157 271.9872 
L 72.621563 271.10016 
L 72.887994 270.21312 
L 73.554072 269.32608 
L 73.731693 268.43904 
L 73.776098 267.552 
L 74.353366 266.66496 
L 74.397771 265.77792 
L 74.797418 264.89088 
L 75.33028 264.00384 
L 75.596711 260.45568 
L 75.729927 259.56864 
L 76.26279 258.6816 
L 76.484816 256.90752 
L 77.150894 256.02048 
L 77.37292 255.13344 
L 77.37292 254.2464 
L 78.305429 253.35936 
L 78.57186 252.47232 
L 79.326749 251.58528 
L 79.815206 250.69824 
L 80.081637 248.92416 
L 80.570095 248.03712 
L 81.014147 246.26304 
L 81.591415 245.376 
L 81.813441 243.60192 
L 82.301898 242.71488 
L 82.346303 240.9408 
L 82.790355 240.05376 
L 83.589649 239.16672 
L 84.166917 238.27968 
L 84.344537 235.61856 
L 84.832995 234.73152 
L 85.055021 233.84448 
L 85.809909 232.95744 
L 85.98753 232.0704 
L 87.00885 231.18336 
L 87.00885 229.40928 
L 87.896954 227.6352 
L 87.896954 226.74816 
L 88.341006 225.86112 
L 88.341006 224.08704 
L 89.22911 222.31296 
L 89.22911 221.42592 
L 90.561266 218.7648 
L 90.561266 214.3296 
L 91.449371 213.44256 
L 91.893423 212.55552 
L 91.893423 209.8944 
L 92.781527 209.00736 
L 92.781527 207.23328 
L 94.557735 203.68512 
L 94.557735 202.79808 
L 95.001787 201.91104 
L 95.001787 199.24992 
L 95.445839 198.36288 
L 95.445839 197.47584 
L 95.889891 196.5888 
L 95.889891 195.70176 
L 96.333943 194.81472 
L 96.333943 193.04064 
L 96.777995 192.1536 
L 96.777995 191.26656 
L 97.6661 189.49248 
L 97.6661 184.17024 
L 98.110152 183.2832 
L 98.998256 182.39616 
L 100.330412 181.50912 
L 101.218516 180.62208 
L 102.550672 177.96096 
L 103.438777 177.07392 
L 103.438777 176.18688 
L 103.882829 175.29984 
L 103.882829 172.63872 
L 104.326881 171.75168 
L 106.103089 170.86464 
L 106.547141 169.9776 
L 106.547141 168.20352 
L 107.435245 167.31648 
L 107.435245 166.42944 
L 107.879297 165.5424 
L 107.879297 163.76832 
L 109.655506 160.22016 
L 109.655506 159.33312 
L 110.54361 158.44608 
L 110.54361 156.672 
L 111.431714 154.89792 
L 111.431714 154.01088 
L 111.875766 153.12384 
L 111.875766 150.46272 
L 112.76387 148.68864 
L 112.76387 147.8016 
L 113.207922 146.91456 
L 114.096026 146.02752 
L 115.872235 142.47936 
L 116.760339 141.59232 
L 117.204391 140.70528 
L 117.204391 139.81824 
L 118.536547 137.15712 
L 118.536547 136.27008 
L 119.424651 135.38304 
L 119.424651 134.496 
L 119.868703 133.60896 
L 120.756807 132.72192 
L 121.644912 130.94784 
L 121.644912 130.0608 
L 122.088964 129.17376 
L 122.088964 128.28672 
L 123.865172 126.51264 
L 124.309224 125.6256 
L 124.309224 124.73856 
L 126.085432 123.85152 
L 127.417589 121.1904 
L 128.305693 120.30336 
L 128.749745 119.41632 
L 129.637849 118.52928 
L 131.414057 117.64224 
L 131.858109 116.7552 
L 134.07837 115.86816 
L 134.07837 114.09408 
L 135.854578 112.32 
L 135.854578 111.43296 
L 136.29863 110.54592 
L 137.186734 109.65888 
L 137.630786 108.77184 
L 138.51889 107.8848 
L 138.962943 106.99776 
L 138.962943 106.11072 
L 140.295099 105.22368 
L 140.295099 104.33664 
L 140.739151 103.4496 
L 140.739151 102.56256 
L 142.959411 101.67552 
L 144.73562 100.78848 
L 145.623724 99.90144 
L 145.623724 98.12736 
L 146.511828 97.24032 
L 146.95588 96.35328 
L 146.95588 95.46624 
L 147.399932 94.5792 
L 148.288036 93.69216 
L 148.288036 92.80512 
L 148.732088 91.91808 
L 150.064244 91.03104 
L 150.508296 90.144 
L 150.508296 89.25696 
L 152.728557 88.36992 
L 154.504765 87.48288 
L 158.501234 86.59584 
L 158.501234 85.7088 
L 163.829859 83.93472 
L 166.494171 82.16064 
L 167.826327 79.49952 
L 168.714432 78.61248 
L 170.046588 75.95136 
L 174.043056 75.06432 
L 174.487109 74.17728 
L 175.375213 73.29024 
L 175.819265 72.4032 
L 178.039525 71.51616 
L 178.927629 70.62912 
L 182.035994 69.74208 
L 182.924098 68.85504 
L 183.812202 67.08096 
L 185.144358 66.19392 
L 185.144358 65.30688 
L 186.032462 64.41984 
L 189.140827 63.5328 
L 189.584879 62.64576 
L 196.689712 61.75872 
L 197.577816 60.87168 
L 204.238598 59.98464 
L 205.570754 59.0976 
L 221.112576 57.32352 
L 229.993618 56.43648 
L 240.206816 53.77536 
L 247.755701 52.88832 
L 253.084326 52.00128 
L 253.084326 51.11424 
L 263.297523 50.2272 
L 271.734513 49.34016 
L 312.143252 48.45312 
L 345.891209 47.56608 
L 350.775782 46.67904 
L 371.64623 45.792 
L 371.64623 45.792 
" style="fill:none;stroke:#d95f02;stroke-dasharray:3.7,1.6;stroke-dashoffset:0;"/>
   </g>
   <g id="line2d_80">
    <path clip-path="url(#p62216f5998)" d="M 50.507769 311.013993 
L 51.70671 310.123987 
L 52.550409 309.23398 
L 52.90565 308.343973 
L 53.438513 307.453967 
L 53.704944 306.56396 
L 54.815074 304.783946 
L 54.94829 303.89394 
L 56.369257 303.003933 
L 58.722733 302.113926 
L 59.655242 301.22392 
L 60.410131 300.333913 
L 60.720967 299.443906 
L 61.387045 298.5539 
L 62.408365 297.663893 
L 62.674796 296.773886 
L 64.006952 295.88388 
L 64.539815 294.993873 
L 65.472324 294.103866 
L 66.138402 293.21386 
L 66.182808 292.323853 
L 66.449239 290.543839 
L 66.937696 289.653833 
L 67.204127 287.873819 
L 67.514964 286.983813 
L 67.603774 286.093806 
L 67.914611 285.203799 
L 67.959016 283.423786 
L 68.225447 282.533779 
L 69.113551 280.753766 
L 69.824035 279.863759 
L 70.001655 278.083746 
L 70.445707 277.193739 
L 70.445707 276.303732 
L 70.712139 275.413726 
L 70.800949 273.633712 
L 71.200596 271.853699 
L 71.245001 270.963692 
L 71.555838 270.073686 
L 71.644648 269.183679 
L 71.955484 268.293672 
L 72.443942 262.953632 
L 72.843589 262.063625 
L 72.932399 260.283612 
L 73.554072 259.393605 
L 73.998124 258.503599 
L 74.175745 255.833579 
L 74.30896 254.053565 
L 75.24147 251.383545 
L 75.24147 250.493538 
L 75.596711 249.603532 
L 75.596711 248.713525 
L 75.996358 247.823518 
L 76.529221 246.933512 
L 76.884463 246.043505 
L 76.973273 244.263492 
L 77.017678 243.373485 
L 77.328515 241.593472 
L 77.37292 240.703465 
L 77.550541 239.813458 
L 78.038998 238.923452 
L 78.261024 237.143438 
L 78.660671 236.253431 
L 78.749481 235.363425 
L 79.104723 234.473418 
L 79.548775 232.693405 
L 80.259258 231.803398 
L 80.348069 230.023385 
L 80.6145 229.133378 
L 80.70331 224.683344 
L 81.191768 220.233311 
L 81.813441 219.343304 
L 81.857846 216.673284 
L 82.079872 214.893271 
L 82.390708 210.443237 
L 82.74595 209.553231 
L 82.967976 206.883211 
L 83.278812 205.993204 
L 84.122511 205.103197 
L 84.166917 203.323184 
L 84.255727 202.433177 
L 84.699779 200.653164 
L 85.010615 198.873151 
L 85.321452 196.20313 
L 85.587883 195.313124 
L 85.632288 194.423117 
L 86.387177 191.753097 
L 87.00885 190.86309 
L 87.00885 188.19307 
L 87.896954 186.413057 
L 87.896954 184.633043 
L 88.341006 183.743037 
L 88.341006 182.85303 
L 88.785058 181.963023 
L 88.785058 181.073017 
L 89.22911 180.18301 
L 89.22911 178.402997 
L 89.673162 177.51299 
L 89.673162 175.732977 
L 90.117214 174.84297 
L 90.117214 173.062957 
L 90.561266 172.17295 
L 90.561266 169.50293 
L 91.005318 168.612923 
L 91.005318 166.83291 
L 91.893423 165.052896 
L 91.893423 163.272883 
L 92.337475 162.382876 
L 92.337475 161.49287 
L 92.781527 160.602863 
L 92.781527 159.712856 
L 93.669631 157.932843 
L 93.669631 151.702796 
L 94.557735 149.922783 
L 95.445839 149.032776 
L 95.445839 148.142769 
L 95.889891 147.252763 
L 96.777995 146.362756 
L 96.777995 144.582742 
L 97.222048 143.692736 
L 97.222048 138.352696 
L 98.110152 137.462689 
L 98.110152 136.572682 
L 98.554204 135.682676 
L 98.554204 134.792669 
L 98.998256 133.902662 
L 98.998256 132.122649 
L 99.442308 131.232642 
L 99.442308 129.452629 
L 100.330412 128.562622 
L 100.330412 127.672615 
L 100.774464 126.782609 
L 100.774464 125.002595 
L 101.662568 123.222582 
L 101.662568 120.552562 
L 102.10662 119.662555 
L 102.10662 117.882542 
L 102.994725 116.102528 
L 103.882829 115.212522 
L 103.882829 112.542502 
L 105.214985 109.872482 
L 105.214985 108.092468 
L 106.547141 105.422448 
L 106.547141 104.532441 
L 107.879297 103.642435 
L 107.879297 102.752428 
L 109.655506 101.862421 
L 110.099558 100.972415 
L 110.099558 100.082408 
L 110.54361 99.192401 
L 111.875766 98.302395 
L 111.875766 97.412388 
L 112.319818 96.522381 
L 112.319818 95.632375 
L 113.651974 94.742368 
L 114.096026 93.852361 
L 114.096026 92.962355 
L 114.540078 92.072348 
L 114.540078 91.182341 
L 116.316287 89.402328 
L 116.760339 88.512321 
L 116.760339 85.842301 
L 118.980599 84.952294 
L 118.980599 84.062288 
L 120.756807 83.172281 
L 121.644912 81.392268 
L 121.644912 80.502261 
L 122.533016 79.612254 
L 123.865172 78.722247 
L 123.865172 77.832241 
L 125.64138 76.942234 
L 126.529484 75.162221 
L 127.417589 74.272214 
L 128.749745 73.382207 
L 130.525953 72.492201 
L 131.414057 71.602194 
L 132.746214 68.932174 
L 132.746214 68.042167 
L 133.634318 67.152161 
L 136.742682 66.262154 
L 137.630786 64.48214 
L 139.851047 63.592134 
L 142.515359 62.702127 
L 143.403463 61.81212 
L 145.623724 60.922114 
L 145.623724 60.032107 
L 146.067776 59.1421 
L 147.843984 58.252094 
L 150.952349 57.362087 
L 150.952349 56.47208 
L 153.616661 55.582074 
L 154.060713 54.692067 
L 155.392869 53.80206 
L 157.61313 52.912054 
L 172.7109 51.13204 
L 178.483577 50.242033 
L 186.476515 49.352027 
L 187.808671 48.46202 
L 212.231535 46.682007 
L 250.864065 45.792 
L 250.864065 45.792 
" style="fill:none;stroke:#7570b3;stroke-dasharray:2,4;stroke-dashoffset:0;"/>
   </g>
   <g id="line2d_81">
    <path clip-path="url(#p62216f5998)" d="M 51.79552 311.01696 
L 52.328383 310.12992 
L 52.372788 309.24288 
L 52.861245 308.35584 
L 53.038866 305.69472 
L 53.349703 304.80768 
L 53.749349 300.37248 
L 54.104591 299.48544 
L 54.148996 298.5984 
L 54.415428 297.71136 
L 54.504238 296.82432 
L 55.214721 295.93728 
L 55.303532 295.05024 
L 55.658773 294.1632 
L 57.124145 293.27616 
L 57.479387 291.50208 
L 57.879034 290.61504 
L 57.967844 289.728 
L 58.18987 288.84096 
L 58.234275 287.95392 
L 58.456301 287.06688 
L 58.633922 285.2928 
L 58.989164 284.40576 
L 59.077974 282.63168 
L 59.166785 279.97056 
L 59.433216 278.19648 
L 59.610837 276.4224 
L 60.099294 275.53536 
L 60.188105 273.76128 
L 60.498941 272.87424 
L 60.587751 270.21312 
L 60.809777 268.43904 
L 60.854183 264.89088 
L 60.987398 263.1168 
L 61.076209 261.34272 
L 61.120614 260.45568 
L 61.387045 259.56864 
L 62.36396 252.47232 
L 62.585986 249.8112 
L 62.763607 248.92416 
L 62.985633 244.48896 
L 63.163253 243.60192 
L 63.296469 241.82784 
L 63.784926 240.9408 
L 63.962547 238.27968 
L 64.539815 227.6352 
L 64.717436 225.86112 
L 65.072677 223.2 
L 65.516729 222.31296 
L 65.783161 218.7648 
L 65.916376 217.87776 
L 65.960781 216.10368 
L 67.115317 208.12032 
L 67.603774 207.23328 
L 67.781395 206.34624 
L 67.8258 205.4592 
L 68.136637 204.57216 
L 68.491878 202.79808 
L 68.536284 201.91104 
L 68.891525 201.024 
L 68.891525 200.13696 
L 69.424388 199.24992 
L 69.735224 198.36288 
L 69.735224 197.47584 
L 70.534518 194.81472 
L 71.156191 193.92768 
L 71.644648 189.49248 
L 72.310726 187.7184 
L 73.021209 185.05728 
L 73.243236 182.39616 
L 73.642882 181.50912 
L 74.397771 173.52576 
L 75.33028 172.63872 
L 75.33028 171.75168 
L 75.552306 170.86464 
L 75.996358 166.42944 
L 76.396005 165.5424 
L 76.751247 163.76832 
L 77.062083 162.88128 
L 77.062083 161.1072 
L 77.284109 160.22016 
L 77.37292 157.55904 
L 77.816972 154.89792 
L 78.038998 153.12384 
L 78.349834 152.2368 
L 78.882697 151.34976 
L 79.149128 150.46272 
L 79.237939 148.68864 
L 80.126043 145.14048 
L 80.126043 144.25344 
L 80.392474 143.3664 
L 80.436879 142.47936 
L 80.658905 141.59232 
L 81.102957 140.70528 
L 81.102957 139.81824 
L 81.680225 135.38304 
L 81.680225 134.496 
L 81.813441 133.60896 
L 81.902251 130.94784 
L 82.390708 129.17376 
L 82.479519 128.28672 
L 83.545244 127.39968 
L 83.811675 126.51264 
L 83.900485 124.73856 
L 83.989296 122.96448 
L 84.477753 122.07744 
L 84.655374 121.1904 
L 85.099426 120.30336 
L 85.410262 117.64224 
L 85.499073 115.86816 
L 85.721099 114.98112 
L 85.765504 114.09408 
L 85.98753 113.20704 
L 86.031935 112.32 
L 86.564798 111.43296 
L 87.896954 110.54592 
L 87.896954 109.65888 
L 88.341006 108.77184 
L 88.341006 107.8848 
L 88.785058 106.99776 
L 88.785058 104.33664 
L 89.22911 103.4496 
L 89.22911 102.56256 
L 89.673162 101.67552 
L 89.673162 100.78848 
L 90.117214 99.90144 
L 90.117214 99.0144 
L 91.005318 98.12736 
L 91.449371 97.24032 
L 91.449371 95.46624 
L 91.893423 94.5792 
L 91.893423 93.69216 
L 92.337475 92.80512 
L 92.337475 91.91808 
L 92.781527 91.03104 
L 92.781527 90.144 
L 93.669631 88.36992 
L 93.669631 86.59584 
L 94.557735 85.7088 
L 94.557735 84.82176 
L 95.889891 83.93472 
L 96.333943 83.04768 
L 97.222048 82.16064 
L 97.6661 81.2736 
L 97.6661 79.49952 
L 98.998256 78.61248 
L 98.998256 77.72544 
L 99.442308 76.8384 
L 100.774464 75.95136 
L 101.662568 74.17728 
L 101.662568 72.4032 
L 102.550672 70.62912 
L 102.550672 68.85504 
L 104.326881 67.968 
L 104.326881 67.08096 
L 106.103089 66.19392 
L 106.991193 65.30688 
L 107.435245 64.41984 
L 108.323349 63.5328 
L 110.54361 62.64576 
L 110.987662 61.75872 
L 113.207922 60.87168 
L 113.207922 59.98464 
L 114.984131 58.21056 
L 117.648443 56.43648 
L 118.536547 55.54944 
L 118.536547 54.6624 
L 120.312755 53.77536 
L 122.977068 52.88832 
L 122.977068 52.00128 
L 125.197328 51.11424 
L 125.64138 50.2272 
L 128.749745 49.34016 
L 131.414057 48.45312 
L 134.966474 47.56608 
L 136.742682 46.67904 
L 153.616661 45.792 
L 153.616661 45.792 
" style="fill:none;stroke:#e7298a;stroke-dasharray:8,4,2,4;stroke-dashoffset:0;"/>
   </g>
   <g id="line2d_82">
    <path clip-path="url(#p62216f5998)" d="M 50.640985 311.013993 
L 51.79552 310.123987 
L 52.372788 309.23398 
L 52.506004 307.453967 
L 52.994461 306.56396 
L 53.305297 305.673953 
L 54.060186 304.783946 
L 54.104591 303.89394 
L 54.504238 303.003933 
L 55.658773 301.22392 
L 55.747584 300.333913 
L 56.102825 299.443906 
L 56.280446 297.663893 
L 56.502472 296.773886 
L 57.434982 295.88388 
L 58.633922 294.103866 
L 58.811543 292.323853 
L 59.344406 290.543839 
L 59.522026 288.763826 
L 59.788458 287.873819 
L 59.921673 286.983813 
L 60.32132 286.093806 
L 60.720967 279.863759 
L 61.120614 278.083746 
L 61.253829 277.193739 
L 61.564666 276.303732 
L 62.008718 273.633712 
L 62.319554 272.743706 
L 62.319554 271.853699 
L 62.45277 270.963692 
L 62.497175 269.183679 
L 62.630391 267.403666 
L 62.630391 266.513659 
L 63.030038 264.733645 
L 63.252064 262.063625 
L 63.518495 260.283612 
L 64.051358 259.393605 
L 64.362194 254.943572 
L 64.717436 254.053565 
L 64.895056 253.163559 
L 65.383514 252.273552 
L 65.383514 251.383545 
L 65.783161 249.603532 
L 65.783161 248.713525 
L 66.093997 246.933512 
L 66.493644 240.703465 
L 66.671265 239.813458 
L 67.426153 238.923452 
L 67.470559 237.143438 
L 67.959016 236.253431 
L 68.047826 234.473418 
L 68.047826 233.583411 
L 68.181042 232.693405 
L 68.269852 230.913391 
L 68.536284 227.353365 
L 68.93593 226.463358 
L 68.93593 225.573351 
L 69.113551 224.683344 
L 69.157956 222.013324 
L 69.424388 221.123318 
L 69.513198 220.233311 
L 69.824035 219.343304 
L 70.134871 214.893271 
L 70.445707 213.113258 
L 70.800949 212.223251 
L 70.934165 211.333244 
L 71.022975 209.553231 
L 71.200596 208.663224 
L 71.511432 207.773217 
L 71.866674 205.103197 
L 71.955484 203.323184 
L 72.310726 201.543171 
L 72.665968 200.653164 
L 72.887994 197.093137 
L 73.420856 196.20313 
L 73.731693 195.313124 
L 74.175745 188.19307 
L 74.353366 186.413057 
L 74.575392 185.52305 
L 75.019444 184.633043 
L 75.108254 181.963023 
L 75.507901 181.073017 
L 75.596711 179.293003 
L 75.685522 177.51299 
L 75.907548 175.732977 
L 75.907548 174.84297 
L 76.040764 173.952963 
L 76.396005 173.062957 
L 77.150894 168.612923 
L 77.994593 167.722916 
L 78.127808 165.942903 
L 78.660671 164.16289 
L 78.882697 162.382876 
L 79.149128 161.49287 
L 79.149128 160.602863 
L 79.548775 159.712856 
L 79.815206 158.822849 
L 79.992827 157.042836 
L 80.170448 156.152829 
L 80.348069 153.482809 
L 80.6145 152.592803 
L 81.147362 151.702796 
L 81.72463 149.922783 
L 81.902251 149.032776 
L 82.346303 141.912722 
L 82.479519 141.022716 
L 82.523924 139.242702 
L 82.790355 138.352696 
L 82.879166 137.462689 
L 83.145597 136.572682 
L 83.190002 135.682676 
L 83.500838 133.902662 
L 83.722864 131.232642 
L 83.85608 130.342635 
L 84.255727 129.452629 
L 84.300132 128.562622 
L 84.8774 127.672615 
L 84.921805 126.782609 
L 85.188236 125.892602 
L 85.587883 125.002595 
L 86.165151 122.332575 
L 86.475987 121.442569 
L 86.564798 120.552562 
L 87.00885 119.662555 
L 87.00885 115.212522 
L 88.341006 114.322515 
L 88.341006 111.652495 
L 88.785058 110.762488 
L 88.785058 109.872482 
L 89.22911 108.982475 
L 89.22911 108.092468 
L 91.005318 104.532441 
L 91.005318 101.862421 
L 91.449371 100.972415 
L 91.449371 99.192401 
L 93.669631 98.302395 
L 93.669631 97.412388 
L 94.113683 96.522381 
L 95.001787 95.632375 
L 96.333943 92.962355 
L 96.333943 91.182341 
L 97.6661 90.292334 
L 97.6661 89.402328 
L 98.110152 88.512321 
L 98.998256 87.622314 
L 98.998256 85.842301 
L 99.442308 84.952294 
L 100.330412 84.062288 
L 101.662568 83.172281 
L 101.662568 82.282274 
L 102.994725 81.392268 
L 102.994725 80.502261 
L 105.214985 79.612254 
L 105.214985 77.832241 
L 105.659037 76.942234 
L 106.991193 76.052227 
L 107.435245 75.162221 
L 110.099558 73.382207 
L 110.987662 71.602194 
L 111.875766 70.712187 
L 113.207922 68.042167 
L 114.096026 67.152161 
L 119.424651 66.262154 
L 119.868703 65.372147 
L 119.868703 64.48214 
L 121.20086 63.592134 
L 127.861641 62.702127 
L 128.305693 61.81212 
L 129.637849 60.922114 
L 130.081901 60.032107 
L 134.07837 57.362087 
L 134.966474 55.582074 
L 137.630786 53.80206 
L 138.51889 52.912054 
L 138.962943 52.022047 
L 139.851047 51.13204 
L 143.403463 49.352027 
L 146.95588 48.46202 
L 147.843984 47.572013 
L 170.934692 46.682007 
L 240.650868 45.792 
L 240.650868 45.792 
" style="fill:none;stroke:#66a61e;stroke-linecap:round;"/>
    <defs>
     <path d="M 0 3 
C 0.795609 3 1.55874 2.683901 2.12132 2.12132 
C 2.683901 1.55874 3 0.795609 3 0 
C 3 -0.795609 2.683901 -1.55874 2.12132 -2.12132 
C 1.55874 -2.683901 0.795609 -3 0 -3 
C -0.795609 -3 -1.55874 -2.683901 -2.12132 -2.12132 
C -2.683901 -1.55874 -3 -0.795609 -3 0 
C -3 0.795609 -2.683901 1.55874 -2.12132 2.12132 
C -1.55874 2.683901 -0.795609 3 0 3 
z
" id="mb154bf214d" style="stroke:#66a61e;"/>
    </defs>
    <g clip-path="url(#p62216f5998)">
     <use style="fill:#66a61e;stroke:#66a61e;" x="50.640985" xlink:href="#mb154bf214d" y="311.013993"/>
     <use style="fill:#66a61e;stroke:#66a61e;" x="55.125911" xlink:href="#mb154bf214d" y="302.113926"/>
     <use style="fill:#66a61e;stroke:#66a61e;" x="58.678327" xlink:href="#mb154bf214d" y="293.21386"/>
     <use style="fill:#66a61e;stroke:#66a61e;" x="60.410131" xlink:href="#mb154bf214d" y="284.313793"/>
     <use style="fill:#66a61e;stroke:#66a61e;" x="61.697882" xlink:href="#mb154bf214d" y="275.413726"/>
     <use style="fill:#66a61e;stroke:#66a61e;" x="62.630391" xlink:href="#mb154bf214d" y="266.513659"/>
     <use style="fill:#66a61e;stroke:#66a61e;" x="64.095763" xlink:href="#mb154bf214d" y="257.613592"/>
     <use style="fill:#66a61e;stroke:#66a61e;" x="65.783161" xlink:href="#mb154bf214d" y="248.713525"/>
     <use style="fill:#66a61e;stroke:#66a61e;" x="66.671265" xlink:href="#mb154bf214d" y="239.813458"/>
     <use style="fill:#66a61e;stroke:#66a61e;" x="68.269852" xlink:href="#mb154bf214d" y="230.913391"/>
     <use style="fill:#66a61e;stroke:#66a61e;" x="69.157956" xlink:href="#mb154bf214d" y="222.013324"/>
     <use style="fill:#66a61e;stroke:#66a61e;" x="70.445707" xlink:href="#mb154bf214d" y="213.113258"/>
     <use style="fill:#66a61e;stroke:#66a61e;" x="71.911079" xlink:href="#mb154bf214d" y="204.213191"/>
     <use style="fill:#66a61e;stroke:#66a61e;" x="73.731693" xlink:href="#mb154bf214d" y="195.313124"/>
     <use style="fill:#66a61e;stroke:#66a61e;" x="74.353366" xlink:href="#mb154bf214d" y="186.413057"/>
     <use style="fill:#66a61e;stroke:#66a61e;" x="75.685522" xlink:href="#mb154bf214d" y="177.51299"/>
     <use style="fill:#66a61e;stroke:#66a61e;" x="77.150894" xlink:href="#mb154bf214d" y="168.612923"/>
     <use style="fill:#66a61e;stroke:#66a61e;" x="79.548775" xlink:href="#mb154bf214d" y="159.712856"/>
     <use style="fill:#66a61e;stroke:#66a61e;" x="81.458199" xlink:href="#mb154bf214d" y="150.812789"/>
     <use style="fill:#66a61e;stroke:#66a61e;" x="82.346303" xlink:href="#mb154bf214d" y="141.912722"/>
     <use style="fill:#66a61e;stroke:#66a61e;" x="83.545244" xlink:href="#mb154bf214d" y="133.012656"/>
     <use style="fill:#66a61e;stroke:#66a61e;" x="85.765504" xlink:href="#mb154bf214d" y="124.112589"/>
     <use style="fill:#66a61e;stroke:#66a61e;" x="87.00885" xlink:href="#mb154bf214d" y="115.212522"/>
     <use style="fill:#66a61e;stroke:#66a61e;" x="90.117214" xlink:href="#mb154bf214d" y="106.312455"/>
     <use style="fill:#66a61e;stroke:#66a61e;" x="93.669631" xlink:href="#mb154bf214d" y="97.412388"/>
     <use style="fill:#66a61e;stroke:#66a61e;" x="98.110152" xlink:href="#mb154bf214d" y="88.512321"/>
     <use style="fill:#66a61e;stroke:#66a61e;" x="105.214985" xlink:href="#mb154bf214d" y="79.612254"/>
     <use style="fill:#66a61e;stroke:#66a61e;" x="111.875766" xlink:href="#mb154bf214d" y="70.712187"/>
     <use style="fill:#66a61e;stroke:#66a61e;" x="128.305693" xlink:href="#mb154bf214d" y="61.81212"/>
     <use style="fill:#66a61e;stroke:#66a61e;" x="138.51889" xlink:href="#mb154bf214d" y="52.912054"/>
    </g>
   </g>
   <g id="patch_3">
    <path d="M 40.28125 311.904 
L 40.28125 45.792 
" style="fill:none;"/>
   </g>
   <g id="patch_4">
    <path d="M 397.40125 311.904 
L 397.40125 45.792 
" style="fill:none;"/>
   </g>
   <g id="patch_5">
    <path d="M 40.28125 311.904 
L 397.40125 311.904 
" style="fill:none;"/>
   </g>
   <g id="patch_6">
    <path d="M 40.28125 45.792 
L 397.40125 45.792 
" style="fill:none;"/>
   </g>
   <g id="legend_1">
    <g id="line2d_83">
     <path d="M 407.87565 52.537998 
L 424.53565 52.537998 
" style="fill:none;stroke:#1b9e77;stroke-linecap:round;"/>
    </g>
    <g id="line2d_84"/>
    <g id="text_18">
     <!-- Ping (ms) - BBRn-fq -->
     <g transform="translate(431.19965 55.453498)scale(0.0833 -0.0833)">
      <defs>
       <path d="M 19.671875 64.796875 
L 19.671875 37.40625 
L 32.078125 37.40625 
Q 38.96875 37.40625 42.71875 40.96875 
Q 46.484375 44.53125 46.484375 51.125 
Q 46.484375 57.671875 42.71875 61.234375 
Q 38.96875 64.796875 32.078125 64.796875 
z
M 9.8125 72.90625 
L 32.078125 72.90625 
Q 44.34375 72.90625 50.609375 67.359375 
Q 56.890625 61.8125 56.890625 51.125 
Q 56.890625 40.328125 50.609375 34.8125 
Q 44.34375 29.296875 32.078125 29.296875 
L 19.671875 29.296875 
L 19.671875 0 
L 9.8125 0 
z
" id="DejaVuSans-80"/>
       <path d="M 54.890625 33.015625 
L 54.890625 0 
L 45.90625 0 
L 45.90625 32.71875 
Q 45.90625 40.484375 42.875 44.328125 
Q 39.84375 48.1875 33.796875 48.1875 
Q 26.515625 48.1875 22.3125 43.546875 
Q 18.109375 38.921875 18.109375 30.90625 
L 18.109375 0 
L 9.078125 0 
L 9.078125 54.6875 
L 18.109375 54.6875 
L 18.109375 46.1875 
Q 21.34375 51.125 25.703125 53.5625 
Q 30.078125 56 35.796875 56 
Q 45.21875 56 50.046875 50.171875 
Q 54.890625 44.34375 54.890625 33.015625 
z
" id="DejaVuSans-110"/>
       <path d="M 45.40625 27.984375 
Q 45.40625 37.75 41.375 43.109375 
Q 37.359375 48.484375 30.078125 48.484375 
Q 22.859375 48.484375 18.828125 43.109375 
Q 14.796875 37.75 14.796875 27.984375 
Q 14.796875 18.265625 18.828125 12.890625 
Q 22.859375 7.515625 30.078125 7.515625 
Q 37.359375 7.515625 41.375 12.890625 
Q 45.40625 18.265625 45.40625 27.984375 
z
M 54.390625 6.78125 
Q 54.390625 -7.171875 48.1875 -13.984375 
Q 42 -20.796875 29.203125 -20.796875 
Q 24.46875 -20.796875 20.265625 -20.09375 
Q 16.0625 -19.390625 12.109375 -17.921875 
L 12.109375 -9.1875 
Q 16.0625 -11.328125 19.921875 -12.34375 
Q 23.78125 -13.375 27.78125 -13.375 
Q 36.625 -13.375 41.015625 -8.765625 
Q 45.40625 -4.15625 45.40625 5.171875 
L 45.40625 9.625 
Q 42.625 4.78125 38.28125 2.390625 
Q 33.9375 0 27.875 0 
Q 17.828125 0 11.671875 7.65625 
Q 5.515625 15.328125 5.515625 27.984375 
Q 5.515625 40.671875 11.671875 48.328125 
Q 17.828125 56 27.875 56 
Q 33.9375 56 38.28125 53.609375 
Q 42.625 51.21875 45.40625 46.390625 
L 45.40625 54.6875 
L 54.390625 54.6875 
z
" id="DejaVuSans-103"/>
       <path d="M 31 75.875 
Q 24.46875 64.65625 21.28125 53.65625 
Q 18.109375 42.671875 18.109375 31.390625 
Q 18.109375 20.125 21.3125 9.0625 
Q 24.515625 -2 31 -13.1875 
L 23.1875 -13.1875 
Q 15.875 -1.703125 12.234375 9.375 
Q 8.59375 20.453125 8.59375 31.390625 
Q 8.59375 42.28125 12.203125 53.3125 
Q 15.828125 64.359375 23.1875 75.875 
z
" id="DejaVuSans-40"/>
       <path d="M 8.015625 75.875 
L 15.828125 75.875 
Q 23.140625 64.359375 26.78125 53.3125 
Q 30.421875 42.28125 30.421875 31.390625 
Q 30.421875 20.453125 26.78125 9.375 
Q 23.140625 -1.703125 15.828125 -13.1875 
L 8.015625 -13.1875 
Q 14.5 -2 17.703125 9.0625 
Q 20.90625 20.125 20.90625 31.390625 
Q 20.90625 42.671875 17.703125 53.65625 
Q 14.5 64.65625 8.015625 75.875 
z
" id="DejaVuSans-41"/>
       <path d="M 4.890625 31.390625 
L 31.203125 31.390625 
L 31.203125 23.390625 
L 4.890625 23.390625 
z
" id="DejaVuSans-45"/>
       <path d="M 19.671875 34.8125 
L 19.671875 8.109375 
L 35.5 8.109375 
Q 43.453125 8.109375 47.28125 11.40625 
Q 51.125 14.703125 51.125 21.484375 
Q 51.125 28.328125 47.28125 31.5625 
Q 43.453125 34.8125 35.5 34.8125 
z
M 19.671875 64.796875 
L 19.671875 42.828125 
L 34.28125 42.828125 
Q 41.5 42.828125 45.03125 45.53125 
Q 48.578125 48.25 48.578125 53.8125 
Q 48.578125 59.328125 45.03125 62.0625 
Q 41.5 64.796875 34.28125 64.796875 
z
M 9.8125 72.90625 
L 35.015625 72.90625 
Q 46.296875 72.90625 52.390625 68.21875 
Q 58.5 63.53125 58.5 54.890625 
Q 58.5 48.1875 55.375 44.234375 
Q 52.25 40.28125 46.1875 39.3125 
Q 53.46875 37.75 57.5 32.78125 
Q 61.53125 27.828125 61.53125 20.40625 
Q 61.53125 10.640625 54.890625 5.3125 
Q 48.25 0 35.984375 0 
L 9.8125 0 
z
" id="DejaVuSans-66"/>
       <path d="M 44.390625 34.1875 
Q 47.5625 33.109375 50.5625 29.59375 
Q 53.5625 26.078125 56.59375 19.921875 
L 66.609375 0 
L 56 0 
L 46.6875 18.703125 
Q 43.0625 26.03125 39.671875 28.421875 
Q 36.28125 30.8125 30.421875 30.8125 
L 19.671875 30.8125 
L 19.671875 0 
L 9.8125 0 
L 9.8125 72.90625 
L 32.078125 72.90625 
Q 44.578125 72.90625 50.734375 67.671875 
Q 56.890625 62.453125 56.890625 51.90625 
Q 56.890625 45.015625 53.6875 40.46875 
Q 50.484375 35.9375 44.390625 34.1875 
z
M 19.671875 64.796875 
L 19.671875 38.921875 
L 32.078125 38.921875 
Q 39.203125 38.921875 42.84375 42.21875 
Q 46.484375 45.515625 46.484375 51.90625 
Q 46.484375 58.296875 42.84375 61.546875 
Q 39.203125 64.796875 32.078125 64.796875 
z
" id="DejaVuSans-82"/>
       <path d="M 37.109375 75.984375 
L 37.109375 68.5 
L 28.515625 68.5 
Q 23.6875 68.5 21.796875 66.546875 
Q 19.921875 64.59375 19.921875 59.515625 
L 19.921875 54.6875 
L 34.71875 54.6875 
L 34.71875 47.703125 
L 19.921875 47.703125 
L 19.921875 0 
L 10.890625 0 
L 10.890625 47.703125 
L 2.296875 47.703125 
L 2.296875 54.6875 
L 10.890625 54.6875 
L 10.890625 58.5 
Q 10.890625 67.625 15.140625 71.796875 
Q 19.390625 75.984375 28.609375 75.984375 
z
" id="DejaVuSans-102"/>
       <path d="M 14.796875 27.296875 
Q 14.796875 17.390625 18.875 11.75 
Q 22.953125 6.109375 30.078125 6.109375 
Q 37.203125 6.109375 41.296875 11.75 
Q 45.40625 17.390625 45.40625 27.296875 
Q 45.40625 37.203125 41.296875 42.84375 
Q 37.203125 48.484375 30.078125 48.484375 
Q 22.953125 48.484375 18.875 42.84375 
Q 14.796875 37.203125 14.796875 27.296875 
z
M 45.40625 8.203125 
Q 42.578125 3.328125 38.25 0.953125 
Q 33.9375 -1.421875 27.875 -1.421875 
Q 17.96875 -1.421875 11.734375 6.484375 
Q 5.515625 14.40625 5.515625 27.296875 
Q 5.515625 40.1875 11.734375 48.09375 
Q 17.96875 56 27.875 56 
Q 33.9375 56 38.25 53.625 
Q 42.578125 51.265625 45.40625 46.390625 
L 45.40625 54.6875 
L 54.390625 54.6875 
L 54.390625 -20.796875 
L 45.40625 -20.796875 
z
" id="DejaVuSans-113"/>
      </defs>
      <use xlink:href="#DejaVuSans-80"/>
      <use x="58.052734" xlink:href="#DejaVuSans-105"/>
      <use x="85.835938" xlink:href="#DejaVuSans-110"/>
      <use x="149.214844" xlink:href="#DejaVuSans-103"/>
      <use x="212.691406" xlink:href="#DejaVuSans-32"/>
      <use x="244.478516" xlink:href="#DejaVuSans-40"/>
      <use x="283.492188" xlink:href="#DejaVuSans-109"/>
      <use x="380.904297" xlink:href="#DejaVuSans-115"/>
      <use x="433.003906" xlink:href="#DejaVuSans-41"/>
      <use x="472.017578" xlink:href="#DejaVuSans-32"/>
      <use x="503.804688" xlink:href="#DejaVuSans-45"/>
      <use x="539.888672" xlink:href="#DejaVuSans-32"/>
      <use x="571.675781" xlink:href="#DejaVuSans-66"/>
      <use x="640.279297" xlink:href="#DejaVuSans-66"/>
      <use x="708.882812" xlink:href="#DejaVuSans-82"/>
      <use x="778.365234" xlink:href="#DejaVuSans-110"/>
      <use x="841.744141" xlink:href="#DejaVuSans-45"/>
      <use x="877.828125" xlink:href="#DejaVuSans-102"/>
      <use x="913.033203" xlink:href="#DejaVuSans-113"/>
     </g>
    </g>
    <g id="line2d_85">
     <path d="M 407.87565 64.764877 
L 424.53565 64.764877 
" style="fill:none;stroke:#d95f02;stroke-dasharray:3.7,1.6;stroke-dashoffset:0;"/>
    </g>
    <g id="line2d_86"/>
    <g id="text_19">
     <!-- Ping (ms) - BBRn-codel -->
     <g transform="translate(431.19965 67.680377)scale(0.0833 -0.0833)">
      <defs>
       <path d="M 48.78125 52.59375 
L 48.78125 44.1875 
Q 44.96875 46.296875 41.140625 47.34375 
Q 37.3125 48.390625 33.40625 48.390625 
Q 24.65625 48.390625 19.8125 42.84375 
Q 14.984375 37.3125 14.984375 27.296875 
Q 14.984375 17.28125 19.8125 11.734375 
Q 24.65625 6.203125 33.40625 6.203125 
Q 37.3125 6.203125 41.140625 7.25 
Q 44.96875 8.296875 48.78125 10.40625 
L 48.78125 2.09375 
Q 45.015625 0.34375 40.984375 -0.53125 
Q 36.96875 -1.421875 32.421875 -1.421875 
Q 20.0625 -1.421875 12.78125 6.34375 
Q 5.515625 14.109375 5.515625 27.296875 
Q 5.515625 40.671875 12.859375 48.328125 
Q 20.21875 56 33.015625 56 
Q 37.15625 56 41.109375 55.140625 
Q 45.0625 54.296875 48.78125 52.59375 
z
" id="DejaVuSans-99"/>
       <path d="M 45.40625 46.390625 
L 45.40625 75.984375 
L 54.390625 75.984375 
L 54.390625 0 
L 45.40625 0 
L 45.40625 8.203125 
Q 42.578125 3.328125 38.25 0.953125 
Q 33.9375 -1.421875 27.875 -1.421875 
Q 17.96875 -1.421875 11.734375 6.484375 
Q 5.515625 14.40625 5.515625 27.296875 
Q 5.515625 40.1875 11.734375 48.09375 
Q 17.96875 56 27.875 56 
Q 33.9375 56 38.25 53.625 
Q 42.578125 51.265625 45.40625 46.390625 
z
M 14.796875 27.296875 
Q 14.796875 17.390625 18.875 11.75 
Q 22.953125 6.109375 30.078125 6.109375 
Q 37.203125 6.109375 41.296875 11.75 
Q 45.40625 17.390625 45.40625 27.296875 
Q 45.40625 37.203125 41.296875 42.84375 
Q 37.203125 48.484375 30.078125 48.484375 
Q 22.953125 48.484375 18.875 42.84375 
Q 14.796875 37.203125 14.796875 27.296875 
z
" id="DejaVuSans-100"/>
      </defs>
      <use xlink:href="#DejaVuSans-80"/>
      <use x="58.052734" xlink:href="#DejaVuSans-105"/>
      <use x="85.835938" xlink:href="#DejaVuSans-110"/>
      <use x="149.214844" xlink:href="#DejaVuSans-103"/>
      <use x="212.691406" xlink:href="#DejaVuSans-32"/>
      <use x="244.478516" xlink:href="#DejaVuSans-40"/>
      <use x="283.492188" xlink:href="#DejaVuSans-109"/>
      <use x="380.904297" xlink:href="#DejaVuSans-115"/>
      <use x="433.003906" xlink:href="#DejaVuSans-41"/>
      <use x="472.017578" xlink:href="#DejaVuSans-32"/>
      <use x="503.804688" xlink:href="#DejaVuSans-45"/>
      <use x="539.888672" xlink:href="#DejaVuSans-32"/>
      <use x="571.675781" xlink:href="#DejaVuSans-66"/>
      <use x="640.279297" xlink:href="#DejaVuSans-66"/>
      <use x="708.882812" xlink:href="#DejaVuSans-82"/>
      <use x="778.365234" xlink:href="#DejaVuSans-110"/>
      <use x="841.744141" xlink:href="#DejaVuSans-45"/>
      <use x="877.828125" xlink:href="#DejaVuSans-99"/>
      <use x="932.808594" xlink:href="#DejaVuSans-111"/>
      <use x="993.990234" xlink:href="#DejaVuSans-100"/>
      <use x="1057.466797" xlink:href="#DejaVuSans-101"/>
      <use x="1118.990234" xlink:href="#DejaVuSans-108"/>
     </g>
    </g>
    <g id="line2d_87">
     <path d="M 407.87565 76.991755 
L 424.53565 76.991755 
" style="fill:none;stroke:#7570b3;stroke-dasharray:2,4;stroke-dashoffset:0;"/>
    </g>
    <g id="line2d_88"/>
    <g id="text_20">
     <!-- Ping (ms) - BBRn-pie -->
     <g transform="translate(431.19965 79.907255)scale(0.0833 -0.0833)">
      <use xlink:href="#DejaVuSans-80"/>
      <use x="58.052734" xlink:href="#DejaVuSans-105"/>
      <use x="85.835938" xlink:href="#DejaVuSans-110"/>
      <use x="149.214844" xlink:href="#DejaVuSans-103"/>
      <use x="212.691406" xlink:href="#DejaVuSans-32"/>
      <use x="244.478516" xlink:href="#DejaVuSans-40"/>
      <use x="283.492188" xlink:href="#DejaVuSans-109"/>
      <use x="380.904297" xlink:href="#DejaVuSans-115"/>
      <use x="433.003906" xlink:href="#DejaVuSans-41"/>
      <use x="472.017578" xlink:href="#DejaVuSans-32"/>
      <use x="503.804688" xlink:href="#DejaVuSans-45"/>
      <use x="539.888672" xlink:href="#DejaVuSans-32"/>
      <use x="571.675781" xlink:href="#DejaVuSans-66"/>
      <use x="640.279297" xlink:href="#DejaVuSans-66"/>
      <use x="708.882812" xlink:href="#DejaVuSans-82"/>
      <use x="778.365234" xlink:href="#DejaVuSans-110"/>
      <use x="841.744141" xlink:href="#DejaVuSans-45"/>
      <use x="877.828125" xlink:href="#DejaVuSans-112"/>
      <use x="941.304688" xlink:href="#DejaVuSans-105"/>
      <use x="969.087891" xlink:href="#DejaVuSans-101"/>
     </g>
    </g>
    <g id="line2d_89">
     <path d="M 407.87565 89.218633 
L 424.53565 89.218633 
" style="fill:none;stroke:#e7298a;stroke-dasharray:8,4,2,4;stroke-dashoffset:0;"/>
    </g>
    <g id="line2d_90"/>
    <g id="text_21">
     <!-- Ping (ms) - BBRn-cake -->
     <g transform="translate(431.19965 92.134133)scale(0.0833 -0.0833)">
      <defs>
       <path d="M 9.078125 75.984375 
L 18.109375 75.984375 
L 18.109375 31.109375 
L 44.921875 54.6875 
L 56.390625 54.6875 
L 27.390625 29.109375 
L 57.625 0 
L 45.90625 0 
L 18.109375 26.703125 
L 18.109375 0 
L 9.078125 0 
z
" id="DejaVuSans-107"/>
      </defs>
      <use xlink:href="#DejaVuSans-80"/>
      <use x="58.052734" xlink:href="#DejaVuSans-105"/>
      <use x="85.835938" xlink:href="#DejaVuSans-110"/>
      <use x="149.214844" xlink:href="#DejaVuSans-103"/>
      <use x="212.691406" xlink:href="#DejaVuSans-32"/>
      <use x="244.478516" xlink:href="#DejaVuSans-40"/>
      <use x="283.492188" xlink:href="#DejaVuSans-109"/>
      <use x="380.904297" xlink:href="#DejaVuSans-115"/>
      <use x="433.003906" xlink:href="#DejaVuSans-41"/>
      <use x="472.017578" xlink:href="#DejaVuSans-32"/>
      <use x="503.804688" xlink:href="#DejaVuSans-45"/>
      <use x="539.888672" xlink:href="#DejaVuSans-32"/>
      <use x="571.675781" xlink:href="#DejaVuSans-66"/>
      <use x="640.279297" xlink:href="#DejaVuSans-66"/>
      <use x="708.882812" xlink:href="#DejaVuSans-82"/>
      <use x="778.365234" xlink:href="#DejaVuSans-110"/>
      <use x="841.744141" xlink:href="#DejaVuSans-45"/>
      <use x="877.828125" xlink:href="#DejaVuSans-99"/>
      <use x="932.808594" xlink:href="#DejaVuSans-97"/>
      <use x="994.087891" xlink:href="#DejaVuSans-107"/>
      <use x="1048.373047" xlink:href="#DejaVuSans-101"/>
     </g>
    </g>
    <g id="line2d_91">
     <path d="M 407.87565 101.445511 
L 424.53565 101.445511 
" style="fill:none;stroke:#66a61e;stroke-linecap:round;"/>
    </g>
    <g id="line2d_92">
     <g>
      <use style="fill:#66a61e;stroke:#66a61e;" x="416.20565" xlink:href="#mb154bf214d" y="101.445511"/>
     </g>
    </g>
    <g id="text_22">
     <!-- Ping (ms) - BBRn-fq_codel -->
     <g transform="translate(431.19965 104.361011)scale(0.0833 -0.0833)">
      <defs>
       <path d="M 50.984375 -16.609375 
L 50.984375 -23.578125 
L -0.984375 -23.578125 
L -0.984375 -16.609375 
z
" id="DejaVuSans-95"/>
      </defs>
      <use xlink:href="#DejaVuSans-80"/>
      <use x="58.052734" xlink:href="#DejaVuSans-105"/>
      <use x="85.835938" xlink:href="#DejaVuSans-110"/>
      <use x="149.214844" xlink:href="#DejaVuSans-103"/>
      <use x="212.691406" xlink:href="#DejaVuSans-32"/>
      <use x="244.478516" xlink:href="#DejaVuSans-40"/>
      <use x="283.492188" xlink:href="#DejaVuSans-109"/>
      <use x="380.904297" xlink:href="#DejaVuSans-115"/>
      <use x="433.003906" xlink:href="#DejaVuSans-41"/>
      <use x="472.017578" xlink:href="#DejaVuSans-32"/>
      <use x="503.804688" xlink:href="#DejaVuSans-45"/>
      <use x="539.888672" xlink:href="#DejaVuSans-32"/>
      <use x="571.675781" xlink:href="#DejaVuSans-66"/>
      <use x="640.279297" xlink:href="#DejaVuSans-66"/>
      <use x="708.882812" xlink:href="#DejaVuSans-82"/>
      <use x="778.365234" xlink:href="#DejaVuSans-110"/>
      <use x="841.744141" xlink:href="#DejaVuSans-45"/>
      <use x="877.828125" xlink:href="#DejaVuSans-102"/>
      <use x="913.033203" xlink:href="#DejaVuSans-113"/>
      <use x="976.509766" xlink:href="#DejaVuSans-95"/>
      <use x="1026.509766" xlink:href="#DejaVuSans-99"/>
      <use x="1081.490234" xlink:href="#DejaVuSans-111"/>
      <use x="1142.671875" xlink:href="#DejaVuSans-100"/>
      <use x="1206.148438" xlink:href="#DejaVuSans-101"/>
      <use x="1267.671875" xlink:href="#DejaVuSans-108"/>
     </g>
    </g>
   </g>
  </g>
  <g id="text_23">
   <!-- Single TCP upload stream w/ping -->
   <g transform="translate(97.969531 17.837812)scale(0.14 -0.14)">
    <defs>
     <path d="M 53.515625 70.515625 
L 53.515625 60.890625 
Q 47.90625 63.578125 42.921875 64.890625 
Q 37.9375 66.21875 33.296875 66.21875 
Q 25.25 66.21875 20.875 63.09375 
Q 16.5 59.96875 16.5 54.203125 
Q 16.5 49.359375 19.40625 46.890625 
Q 22.3125 44.4375 30.421875 42.921875 
L 36.375 41.703125 
Q 47.40625 39.59375 52.65625 34.296875 
Q 57.90625 29 57.90625 20.125 
Q 57.90625 9.515625 50.796875 4.046875 
Q 43.703125 -1.421875 29.984375 -1.421875 
Q 24.8125 -1.421875 18.96875 -0.25 
Q 13.140625 0.921875 6.890625 3.21875 
L 6.890625 13.375 
Q 12.890625 10.015625 18.65625 8.296875 
Q 24.421875 6.59375 29.984375 6.59375 
Q 38.421875 6.59375 43.015625 9.90625 
Q 47.609375 13.234375 47.609375 19.390625 
Q 47.609375 24.75 44.3125 27.78125 
Q 41.015625 30.8125 33.5 32.328125 
L 27.484375 33.5 
Q 16.453125 35.6875 11.515625 40.375 
Q 6.59375 45.0625 6.59375 53.421875 
Q 6.59375 63.09375 13.40625 68.65625 
Q 20.21875 74.21875 32.171875 74.21875 
Q 37.3125 74.21875 42.625 73.28125 
Q 47.953125 72.359375 53.515625 70.515625 
z
" id="DejaVuSans-83"/>
     <path d="M -0.296875 72.90625 
L 61.375 72.90625 
L 61.375 64.59375 
L 35.5 64.59375 
L 35.5 0 
L 25.59375 0 
L 25.59375 64.59375 
L -0.296875 64.59375 
z
" id="DejaVuSans-84"/>
     <path d="M 4.203125 54.6875 
L 13.1875 54.6875 
L 24.421875 12.015625 
L 35.59375 54.6875 
L 46.1875 54.6875 
L 57.421875 12.015625 
L 68.609375 54.6875 
L 77.59375 54.6875 
L 63.28125 0 
L 52.6875 0 
L 40.921875 44.828125 
L 29.109375 0 
L 18.5 0 
z
" id="DejaVuSans-119"/>
     <path d="M 25.390625 72.90625 
L 33.6875 72.90625 
L 8.296875 -9.28125 
L 0 -9.28125 
z
" id="DejaVuSans-47"/>
    </defs>
    <use xlink:href="#DejaVuSans-83"/>
    <use x="63.476562" xlink:href="#DejaVuSans-105"/>
    <use x="91.259766" xlink:href="#DejaVuSans-110"/>
    <use x="154.638672" xlink:href="#DejaVuSans-103"/>
    <use x="218.115234" xlink:href="#DejaVuSans-108"/>
    <use x="245.898438" xlink:href="#DejaVuSans-101"/>
    <use x="307.421875" xlink:href="#DejaVuSans-32"/>
    <use x="339.208984" xlink:href="#DejaVuSans-84"/>
    <use x="394.417969" xlink:href="#DejaVuSans-67"/>
    <use x="464.242188" xlink:href="#DejaVuSans-80"/>
    <use x="524.544922" xlink:href="#DejaVuSans-32"/>
    <use x="556.332031" xlink:href="#DejaVuSans-117"/>
    <use x="619.710938" xlink:href="#DejaVuSans-112"/>
    <use x="683.1875" xlink:href="#DejaVuSans-108"/>
    <use x="710.970703" xlink:href="#DejaVuSans-111"/>
    <use x="772.152344" xlink:href="#DejaVuSans-97"/>
    <use x="833.431641" xlink:href="#DejaVuSans-100"/>
    <use x="896.908203" xlink:href="#DejaVuSans-32"/>
    <use x="928.695312" xlink:href="#DejaVuSans-115"/>
    <use x="980.794922" xlink:href="#DejaVuSans-116"/>
    <use x="1020.003906" xlink:href="#DejaVuSans-114"/>
    <use x="1058.867188" xlink:href="#DejaVuSans-101"/>
    <use x="1120.390625" xlink:href="#DejaVuSans-97"/>
    <use x="1181.669922" xlink:href="#DejaVuSans-109"/>
    <use x="1279.082031" xlink:href="#DejaVuSans-32"/>
    <use x="1310.869141" xlink:href="#DejaVuSans-119"/>
    <use x="1392.65625" xlink:href="#DejaVuSans-47"/>
    <use x="1426.347656" xlink:href="#DejaVuSans-112"/>
    <use x="1489.824219" xlink:href="#DejaVuSans-105"/>
    <use x="1517.607422" xlink:href="#DejaVuSans-110"/>
    <use x="1580.986328" xlink:href="#DejaVuSans-103"/>
   </g>
   <!-- Ping CDF plot -->
   <g transform="translate(166.02375 33.51475)scale(0.14 -0.14)">
    <defs>
     <path d="M 19.671875 64.796875 
L 19.671875 8.109375 
L 31.59375 8.109375 
Q 46.6875 8.109375 53.6875 14.9375 
Q 60.6875 21.78125 60.6875 36.53125 
Q 60.6875 51.171875 53.6875 57.984375 
Q 46.6875 64.796875 31.59375 64.796875 
z
M 9.8125 72.90625 
L 30.078125 72.90625 
Q 51.265625 72.90625 61.171875 64.09375 
Q 71.09375 55.28125 71.09375 36.53125 
Q 71.09375 17.671875 61.125 8.828125 
Q 51.171875 0 30.078125 0 
L 9.8125 0 
z
" id="DejaVuSans-68"/>
     <path d="M 9.8125 72.90625 
L 51.703125 72.90625 
L 51.703125 64.59375 
L 19.671875 64.59375 
L 19.671875 43.109375 
L 48.578125 43.109375 
L 48.578125 34.8125 
L 19.671875 34.8125 
L 19.671875 0 
L 9.8125 0 
z
" id="DejaVuSans-70"/>
    </defs>
    <use xlink:href="#DejaVuSans-80"/>
    <use x="58.052734" xlink:href="#DejaVuSans-105"/>
    <use x="85.835938" xlink:href="#DejaVuSans-110"/>
    <use x="149.214844" xlink:href="#DejaVuSans-103"/>
    <use x="212.691406" xlink:href="#DejaVuSans-32"/>
    <use x="244.478516" xlink:href="#DejaVuSans-67"/>
    <use x="314.302734" xlink:href="#DejaVuSans-68"/>
    <use x="391.304688" xlink:href="#DejaVuSans-70"/>
    <use x="448.824219" xlink:href="#DejaVuSans-32"/>
    <use x="480.611328" xlink:href="#DejaVuSans-112"/>
    <use x="544.087891" xlink:href="#DejaVuSans-108"/>
    <use x="571.871094" xlink:href="#DejaVuSans-111"/>
    <use x="633.052734" xlink:href="#DejaVuSans-116"/>
   </g>
  </g>
 </g>
 <defs>
  <clipPath id="p62216f5998">
   <rect height="266.112" width="357.12" x="40.28125" y="45.792"/>
  </clipPath>
 </defs>
</svg>
