<?xml version="1.0" encoding="utf-8" standalone="no"?>
<!DOCTYPE svg PUBLIC "-//W3C//DTD SVG 1.1//EN"
  "http://www.w3.org/Graphics/SVG/1.1/DTD/svg11.dtd">
<!-- Created with matplotlib (https://matplotlib.org/) -->
<svg height="414pt" version="1.1" viewBox="0 0 977.04 414" width="977.04pt" xmlns="http://www.w3.org/2000/svg" xmlns:xlink="http://www.w3.org/1999/xlink">
 <metadata>
  <rdf:RDF xmlns:cc="http://creativecommons.org/ns#" xmlns:dc="http://purl.org/dc/elements/1.1/" xmlns:rdf="http://www.w3.org/1999/02/22-rdf-syntax-ns#">
   <cc:Work>
    <dc:type rdf:resource="http://purl.org/dc/dcmitype/StillImage"/>
    <dc:date>2023-09-14T11:13:44.914645</dc:date>
    <dc:format>image/svg+xml</dc:format>
    <dc:creator>
     <cc:Agent>
      <dc:title>Matplotlib v3.3.4, https://matplotlib.org/</dc:title>
     </cc:Agent>
    </dc:creator>
   </cc:Work>
  </rdf:RDF>
 </metadata>
 <defs>
  <style type="text/css">*{stroke-linecap:butt;stroke-linejoin:round;}</style>
 </defs>
 <g id="figure_1">
  <g id="patch_1">
   <path d="M 0 414 
L 977.04 414 
L 977.04 0 
L 0 0 
z
" style="fill:#ffffff;"/>
  </g>
  <g id="axes_1">
   <g id="patch_2">
    <path d="M 122.13 368.46 
L 707.148 368.46 
L 707.148 49.68 
L 122.13 49.68 
z
" style="fill:#e6e6e6;"/>
   </g>
   <g id="matplotlib.axis_1">
    <g id="xtick_1">
     <g id="line2d_1">
      <path clip-path="url(#pc6a4caed5f)" d="M 132.793216 368.46 
L 132.793216 49.68 
" style="fill:none;stroke:#ffffff;stroke-linecap:round;"/>
     </g>
     <g id="line2d_2"/>
     <g id="text_1">
      <!-- 0 -->
      <g transform="translate(129.611966 379.558438)scale(0.1 -0.1)">
       <defs>
        <path d="M 31.78125 66.40625 
Q 24.171875 66.40625 20.328125 58.90625 
Q 16.5 51.421875 16.5 36.375 
Q 16.5 21.390625 20.328125 13.890625 
Q 24.171875 6.390625 31.78125 6.390625 
Q 39.453125 6.390625 43.28125 13.890625 
Q 47.125 21.390625 47.125 36.375 
Q 47.125 51.421875 43.28125 58.90625 
Q 39.453125 66.40625 31.78125 66.40625 
z
M 31.78125 74.21875 
Q 44.046875 74.21875 50.515625 64.515625 
Q 56.984375 54.828125 56.984375 36.375 
Q 56.984375 17.96875 50.515625 8.265625 
Q 44.046875 -1.421875 31.78125 -1.421875 
Q 19.53125 -1.421875 13.0625 8.265625 
Q 6.59375 17.96875 6.59375 36.375 
Q 6.59375 54.828125 13.0625 64.515625 
Q 19.53125 74.21875 31.78125 74.21875 
z
" id="DejaVuSans-48"/>
       </defs>
       <use xlink:href="#DejaVuSans-48"/>
      </g>
     </g>
    </g>
    <g id="xtick_2">
     <g id="line2d_3">
      <path clip-path="url(#pc6a4caed5f)" d="M 260.427612 368.46 
L 260.427612 49.68 
" style="fill:none;stroke:#ffffff;stroke-linecap:round;"/>
     </g>
     <g id="line2d_4"/>
     <g id="text_2">
      <!-- 20 -->
      <g transform="translate(254.065112 379.558438)scale(0.1 -0.1)">
       <defs>
        <path d="M 19.1875 8.296875 
L 53.609375 8.296875 
L 53.609375 0 
L 7.328125 0 
L 7.328125 8.296875 
Q 12.9375 14.109375 22.625 23.890625 
Q 32.328125 33.6875 34.8125 36.53125 
Q 39.546875 41.84375 41.421875 45.53125 
Q 43.3125 49.21875 43.3125 52.78125 
Q 43.3125 58.59375 39.234375 62.25 
Q 35.15625 65.921875 28.609375 65.921875 
Q 23.96875 65.921875 18.8125 64.3125 
Q 13.671875 62.703125 7.8125 59.421875 
L 7.8125 69.390625 
Q 13.765625 71.78125 18.9375 73 
Q 24.125 74.21875 28.421875 74.21875 
Q 39.75 74.21875 46.484375 68.546875 
Q 53.21875 62.890625 53.21875 53.421875 
Q 53.21875 48.921875 51.53125 44.890625 
Q 49.859375 40.875 45.40625 35.40625 
Q 44.1875 33.984375 37.640625 27.21875 
Q 31.109375 20.453125 19.1875 8.296875 
z
" id="DejaVuSans-50"/>
       </defs>
       <use xlink:href="#DejaVuSans-50"/>
       <use x="63.623047" xlink:href="#DejaVuSans-48"/>
      </g>
     </g>
    </g>
    <g id="xtick_3">
     <g id="line2d_5">
      <path clip-path="url(#pc6a4caed5f)" d="M 388.062009 368.46 
L 388.062009 49.68 
" style="fill:none;stroke:#ffffff;stroke-linecap:round;"/>
     </g>
     <g id="line2d_6"/>
     <g id="text_3">
      <!-- 40 -->
      <g transform="translate(381.699509 379.558438)scale(0.1 -0.1)">
       <defs>
        <path d="M 37.796875 64.3125 
L 12.890625 25.390625 
L 37.796875 25.390625 
z
M 35.203125 72.90625 
L 47.609375 72.90625 
L 47.609375 25.390625 
L 58.015625 25.390625 
L 58.015625 17.1875 
L 47.609375 17.1875 
L 47.609375 0 
L 37.796875 0 
L 37.796875 17.1875 
L 4.890625 17.1875 
L 4.890625 26.703125 
z
" id="DejaVuSans-52"/>
       </defs>
       <use xlink:href="#DejaVuSans-52"/>
       <use x="63.623047" xlink:href="#DejaVuSans-48"/>
      </g>
     </g>
    </g>
    <g id="xtick_4">
     <g id="line2d_7">
      <path clip-path="url(#pc6a4caed5f)" d="M 515.696405 368.46 
L 515.696405 49.68 
" style="fill:none;stroke:#ffffff;stroke-linecap:round;"/>
     </g>
     <g id="line2d_8"/>
     <g id="text_4">
      <!-- 60 -->
      <g transform="translate(509.333905 379.558438)scale(0.1 -0.1)">
       <defs>
        <path d="M 33.015625 40.375 
Q 26.375 40.375 22.484375 35.828125 
Q 18.609375 31.296875 18.609375 23.390625 
Q 18.609375 15.53125 22.484375 10.953125 
Q 26.375 6.390625 33.015625 6.390625 
Q 39.65625 6.390625 43.53125 10.953125 
Q 47.40625 15.53125 47.40625 23.390625 
Q 47.40625 31.296875 43.53125 35.828125 
Q 39.65625 40.375 33.015625 40.375 
z
M 52.59375 71.296875 
L 52.59375 62.3125 
Q 48.875 64.0625 45.09375 64.984375 
Q 41.3125 65.921875 37.59375 65.921875 
Q 27.828125 65.921875 22.671875 59.328125 
Q 17.53125 52.734375 16.796875 39.40625 
Q 19.671875 43.65625 24.015625 45.921875 
Q 28.375 48.1875 33.59375 48.1875 
Q 44.578125 48.1875 50.953125 41.515625 
Q 57.328125 34.859375 57.328125 23.390625 
Q 57.328125 12.15625 50.6875 5.359375 
Q 44.046875 -1.421875 33.015625 -1.421875 
Q 20.359375 -1.421875 13.671875 8.265625 
Q 6.984375 17.96875 6.984375 36.375 
Q 6.984375 53.65625 15.1875 63.9375 
Q 23.390625 74.21875 37.203125 74.21875 
Q 40.921875 74.21875 44.703125 73.484375 
Q 48.484375 72.75 52.59375 71.296875 
z
" id="DejaVuSans-54"/>
       </defs>
       <use xlink:href="#DejaVuSans-54"/>
       <use x="63.623047" xlink:href="#DejaVuSans-48"/>
      </g>
     </g>
    </g>
    <g id="xtick_5">
     <g id="line2d_9">
      <path clip-path="url(#pc6a4caed5f)" d="M 643.330802 368.46 
L 643.330802 49.68 
" style="fill:none;stroke:#ffffff;stroke-linecap:round;"/>
     </g>
     <g id="line2d_10"/>
     <g id="text_5">
      <!-- 80 -->
      <g transform="translate(636.968302 379.558438)scale(0.1 -0.1)">
       <defs>
        <path d="M 31.78125 34.625 
Q 24.75 34.625 20.71875 30.859375 
Q 16.703125 27.09375 16.703125 20.515625 
Q 16.703125 13.921875 20.71875 10.15625 
Q 24.75 6.390625 31.78125 6.390625 
Q 38.8125 6.390625 42.859375 10.171875 
Q 46.921875 13.96875 46.921875 20.515625 
Q 46.921875 27.09375 42.890625 30.859375 
Q 38.875 34.625 31.78125 34.625 
z
M 21.921875 38.8125 
Q 15.578125 40.375 12.03125 44.71875 
Q 8.5 49.078125 8.5 55.328125 
Q 8.5 64.0625 14.71875 69.140625 
Q 20.953125 74.21875 31.78125 74.21875 
Q 42.671875 74.21875 48.875 69.140625 
Q 55.078125 64.0625 55.078125 55.328125 
Q 55.078125 49.078125 51.53125 44.71875 
Q 48 40.375 41.703125 38.8125 
Q 48.828125 37.15625 52.796875 32.3125 
Q 56.78125 27.484375 56.78125 20.515625 
Q 56.78125 9.90625 50.3125 4.234375 
Q 43.84375 -1.421875 31.78125 -1.421875 
Q 19.734375 -1.421875 13.25 4.234375 
Q 6.78125 9.90625 6.78125 20.515625 
Q 6.78125 27.484375 10.78125 32.3125 
Q 14.796875 37.15625 21.921875 38.8125 
z
M 18.3125 54.390625 
Q 18.3125 48.734375 21.84375 45.5625 
Q 25.390625 42.390625 31.78125 42.390625 
Q 38.140625 42.390625 41.71875 45.5625 
Q 45.3125 48.734375 45.3125 54.390625 
Q 45.3125 60.0625 41.71875 63.234375 
Q 38.140625 66.40625 31.78125 66.40625 
Q 25.390625 66.40625 21.84375 63.234375 
Q 18.3125 60.0625 18.3125 54.390625 
z
" id="DejaVuSans-56"/>
       </defs>
       <use xlink:href="#DejaVuSans-56"/>
       <use x="63.623047" xlink:href="#DejaVuSans-48"/>
      </g>
     </g>
    </g>
    <g id="xtick_6">
     <g id="line2d_11"/>
    </g>
    <g id="xtick_7">
     <g id="line2d_12"/>
    </g>
    <g id="xtick_8">
     <g id="line2d_13"/>
    </g>
    <g id="xtick_9">
     <g id="line2d_14"/>
    </g>
    <g id="xtick_10">
     <g id="line2d_15"/>
    </g>
    <g id="xtick_11">
     <g id="line2d_16"/>
    </g>
    <g id="xtick_12">
     <g id="line2d_17"/>
    </g>
    <g id="xtick_13">
     <g id="line2d_18"/>
    </g>
    <g id="xtick_14">
     <g id="line2d_19"/>
    </g>
    <g id="xtick_15">
     <g id="line2d_20"/>
    </g>
    <g id="xtick_16">
     <g id="line2d_21"/>
    </g>
    <g id="xtick_17">
     <g id="line2d_22"/>
    </g>
    <g id="xtick_18">
     <g id="line2d_23"/>
    </g>
    <g id="xtick_19">
     <g id="line2d_24"/>
    </g>
    <g id="text_6">
     <!-- Latency (ms) -->
     <g transform="translate(381.909312 393.236562)scale(0.1 -0.1)">
      <defs>
       <path d="M 9.8125 72.90625 
L 19.671875 72.90625 
L 19.671875 8.296875 
L 55.171875 8.296875 
L 55.171875 0 
L 9.8125 0 
z
" id="DejaVuSans-76"/>
       <path d="M 34.28125 27.484375 
Q 23.390625 27.484375 19.1875 25 
Q 14.984375 22.515625 14.984375 16.5 
Q 14.984375 11.71875 18.140625 8.90625 
Q 21.296875 6.109375 26.703125 6.109375 
Q 34.1875 6.109375 38.703125 11.40625 
Q 43.21875 16.703125 43.21875 25.484375 
L 43.21875 27.484375 
z
M 52.203125 31.203125 
L 52.203125 0 
L 43.21875 0 
L 43.21875 8.296875 
Q 40.140625 3.328125 35.546875 0.953125 
Q 30.953125 -1.421875 24.3125 -1.421875 
Q 15.921875 -1.421875 10.953125 3.296875 
Q 6 8.015625 6 15.921875 
Q 6 25.140625 12.171875 29.828125 
Q 18.359375 34.515625 30.609375 34.515625 
L 43.21875 34.515625 
L 43.21875 35.40625 
Q 43.21875 41.609375 39.140625 45 
Q 35.0625 48.390625 27.6875 48.390625 
Q 23 48.390625 18.546875 47.265625 
Q 14.109375 46.140625 10.015625 43.890625 
L 10.015625 52.203125 
Q 14.9375 54.109375 19.578125 55.046875 
Q 24.21875 56 28.609375 56 
Q 40.484375 56 46.34375 49.84375 
Q 52.203125 43.703125 52.203125 31.203125 
z
" id="DejaVuSans-97"/>
       <path d="M 18.3125 70.21875 
L 18.3125 54.6875 
L 36.8125 54.6875 
L 36.8125 47.703125 
L 18.3125 47.703125 
L 18.3125 18.015625 
Q 18.3125 11.328125 20.140625 9.421875 
Q 21.96875 7.515625 27.59375 7.515625 
L 36.8125 7.515625 
L 36.8125 0 
L 27.59375 0 
Q 17.1875 0 13.234375 3.875 
Q 9.28125 7.765625 9.28125 18.015625 
L 9.28125 47.703125 
L 2.6875 47.703125 
L 2.6875 54.6875 
L 9.28125 54.6875 
L 9.28125 70.21875 
z
" id="DejaVuSans-116"/>
       <path d="M 56.203125 29.59375 
L 56.203125 25.203125 
L 14.890625 25.203125 
Q 15.484375 15.921875 20.484375 11.0625 
Q 25.484375 6.203125 34.421875 6.203125 
Q 39.59375 6.203125 44.453125 7.46875 
Q 49.3125 8.734375 54.109375 11.28125 
L 54.109375 2.78125 
Q 49.265625 0.734375 44.1875 -0.34375 
Q 39.109375 -1.421875 33.890625 -1.421875 
Q 20.796875 -1.421875 13.15625 6.1875 
Q 5.515625 13.8125 5.515625 26.8125 
Q 5.515625 40.234375 12.765625 48.109375 
Q 20.015625 56 32.328125 56 
Q 43.359375 56 49.78125 48.890625 
Q 56.203125 41.796875 56.203125 29.59375 
z
M 47.21875 32.234375 
Q 47.125 39.59375 43.09375 43.984375 
Q 39.0625 48.390625 32.421875 48.390625 
Q 24.90625 48.390625 20.390625 44.140625 
Q 15.875 39.890625 15.1875 32.171875 
z
" id="DejaVuSans-101"/>
       <path d="M 54.890625 33.015625 
L 54.890625 0 
L 45.90625 0 
L 45.90625 32.71875 
Q 45.90625 40.484375 42.875 44.328125 
Q 39.84375 48.1875 33.796875 48.1875 
Q 26.515625 48.1875 22.3125 43.546875 
Q 18.109375 38.921875 18.109375 30.90625 
L 18.109375 0 
L 9.078125 0 
L 9.078125 54.6875 
L 18.109375 54.6875 
L 18.109375 46.1875 
Q 21.34375 51.125 25.703125 53.5625 
Q 30.078125 56 35.796875 56 
Q 45.21875 56 50.046875 50.171875 
Q 54.890625 44.34375 54.890625 33.015625 
z
" id="DejaVuSans-110"/>
       <path d="M 48.78125 52.59375 
L 48.78125 44.1875 
Q 44.96875 46.296875 41.140625 47.34375 
Q 37.3125 48.390625 33.40625 48.390625 
Q 24.65625 48.390625 19.8125 42.84375 
Q 14.984375 37.3125 14.984375 27.296875 
Q 14.984375 17.28125 19.8125 11.734375 
Q 24.65625 6.203125 33.40625 6.203125 
Q 37.3125 6.203125 41.140625 7.25 
Q 44.96875 8.296875 48.78125 10.40625 
L 48.78125 2.09375 
Q 45.015625 0.34375 40.984375 -0.53125 
Q 36.96875 -1.421875 32.421875 -1.421875 
Q 20.0625 -1.421875 12.78125 6.34375 
Q 5.515625 14.109375 5.515625 27.296875 
Q 5.515625 40.671875 12.859375 48.328125 
Q 20.21875 56 33.015625 56 
Q 37.15625 56 41.109375 55.140625 
Q 45.0625 54.296875 48.78125 52.59375 
z
" id="DejaVuSans-99"/>
       <path d="M 32.171875 -5.078125 
Q 28.375 -14.84375 24.75 -17.8125 
Q 21.140625 -20.796875 15.09375 -20.796875 
L 7.90625 -20.796875 
L 7.90625 -13.28125 
L 13.1875 -13.28125 
Q 16.890625 -13.28125 18.9375 -11.515625 
Q 21 -9.765625 23.484375 -3.21875 
L 25.09375 0.875 
L 2.984375 54.6875 
L 12.5 54.6875 
L 29.59375 11.921875 
L 46.6875 54.6875 
L 56.203125 54.6875 
z
" id="DejaVuSans-121"/>
       <path id="DejaVuSans-32"/>
       <path d="M 31 75.875 
Q 24.46875 64.65625 21.28125 53.65625 
Q 18.109375 42.671875 18.109375 31.390625 
Q 18.109375 20.125 21.3125 9.0625 
Q 24.515625 -2 31 -13.1875 
L 23.1875 -13.1875 
Q 15.875 -1.703125 12.234375 9.375 
Q 8.59375 20.453125 8.59375 31.390625 
Q 8.59375 42.28125 12.203125 53.3125 
Q 15.828125 64.359375 23.1875 75.875 
z
" id="DejaVuSans-40"/>
       <path d="M 52 44.1875 
Q 55.375 50.25 60.0625 53.125 
Q 64.75 56 71.09375 56 
Q 79.640625 56 84.28125 50.015625 
Q 88.921875 44.046875 88.921875 33.015625 
L 88.921875 0 
L 79.890625 0 
L 79.890625 32.71875 
Q 79.890625 40.578125 77.09375 44.375 
Q 74.3125 48.1875 68.609375 48.1875 
Q 61.625 48.1875 57.5625 43.546875 
Q 53.515625 38.921875 53.515625 30.90625 
L 53.515625 0 
L 44.484375 0 
L 44.484375 32.71875 
Q 44.484375 40.625 41.703125 44.40625 
Q 38.921875 48.1875 33.109375 48.1875 
Q 26.21875 48.1875 22.15625 43.53125 
Q 18.109375 38.875 18.109375 30.90625 
L 18.109375 0 
L 9.078125 0 
L 9.078125 54.6875 
L 18.109375 54.6875 
L 18.109375 46.1875 
Q 21.1875 51.21875 25.484375 53.609375 
Q 29.78125 56 35.6875 56 
Q 41.65625 56 45.828125 52.96875 
Q 50 49.953125 52 44.1875 
z
" id="DejaVuSans-109"/>
       <path d="M 44.28125 53.078125 
L 44.28125 44.578125 
Q 40.484375 46.53125 36.375 47.5 
Q 32.28125 48.484375 27.875 48.484375 
Q 21.1875 48.484375 17.84375 46.4375 
Q 14.5 44.390625 14.5 40.28125 
Q 14.5 37.15625 16.890625 35.375 
Q 19.28125 33.59375 26.515625 31.984375 
L 29.59375 31.296875 
Q 39.15625 29.25 43.1875 25.515625 
Q 47.21875 21.78125 47.21875 15.09375 
Q 47.21875 7.46875 41.1875 3.015625 
Q 35.15625 -1.421875 24.609375 -1.421875 
Q 20.21875 -1.421875 15.453125 -0.5625 
Q 10.6875 0.296875 5.421875 2 
L 5.421875 11.28125 
Q 10.40625 8.6875 15.234375 7.390625 
Q 20.0625 6.109375 24.8125 6.109375 
Q 31.15625 6.109375 34.5625 8.28125 
Q 37.984375 10.453125 37.984375 14.40625 
Q 37.984375 18.0625 35.515625 20.015625 
Q 33.0625 21.96875 24.703125 23.78125 
L 21.578125 24.515625 
Q 13.234375 26.265625 9.515625 29.90625 
Q 5.8125 33.546875 5.8125 39.890625 
Q 5.8125 47.609375 11.28125 51.796875 
Q 16.75 56 26.8125 56 
Q 31.78125 56 36.171875 55.265625 
Q 40.578125 54.546875 44.28125 53.078125 
z
" id="DejaVuSans-115"/>
       <path d="M 8.015625 75.875 
L 15.828125 75.875 
Q 23.140625 64.359375 26.78125 53.3125 
Q 30.421875 42.28125 30.421875 31.390625 
Q 30.421875 20.453125 26.78125 9.375 
Q 23.140625 -1.703125 15.828125 -13.1875 
L 8.015625 -13.1875 
Q 14.5 -2 17.703125 9.0625 
Q 20.90625 20.125 20.90625 31.390625 
Q 20.90625 42.671875 17.703125 53.65625 
Q 14.5 64.65625 8.015625 75.875 
z
" id="DejaVuSans-41"/>
      </defs>
      <use xlink:href="#DejaVuSans-76"/>
      <use x="55.712891" xlink:href="#DejaVuSans-97"/>
      <use x="116.992188" xlink:href="#DejaVuSans-116"/>
      <use x="156.201172" xlink:href="#DejaVuSans-101"/>
      <use x="217.724609" xlink:href="#DejaVuSans-110"/>
      <use x="281.103516" xlink:href="#DejaVuSans-99"/>
      <use x="336.083984" xlink:href="#DejaVuSans-121"/>
      <use x="395.263672" xlink:href="#DejaVuSans-32"/>
      <use x="427.050781" xlink:href="#DejaVuSans-40"/>
      <use x="466.064453" xlink:href="#DejaVuSans-109"/>
      <use x="563.476562" xlink:href="#DejaVuSans-115"/>
      <use x="615.576172" xlink:href="#DejaVuSans-41"/>
     </g>
    </g>
   </g>
   <g id="matplotlib.axis_2">
    <g id="ytick_1">
     <g id="line2d_25">
      <path clip-path="url(#pc6a4caed5f)" d="M 122.13 368.46 
L 707.148 368.46 
" style="fill:none;stroke:#ffffff;stroke-linecap:round;"/>
     </g>
     <g id="line2d_26"/>
     <g id="text_7">
      <!-- 0.0 -->
      <g transform="translate(102.726875 372.259219)scale(0.1 -0.1)">
       <defs>
        <path d="M 10.6875 12.40625 
L 21 12.40625 
L 21 0 
L 10.6875 0 
z
" id="DejaVuSans-46"/>
       </defs>
       <use xlink:href="#DejaVuSans-48"/>
       <use x="63.623047" xlink:href="#DejaVuSans-46"/>
       <use x="95.410156" xlink:href="#DejaVuSans-48"/>
      </g>
     </g>
    </g>
    <g id="ytick_2">
     <g id="line2d_27">
      <path clip-path="url(#pc6a4caed5f)" d="M 122.13 304.704 
L 707.148 304.704 
" style="fill:none;stroke:#ffffff;stroke-linecap:round;"/>
     </g>
     <g id="line2d_28"/>
     <g id="text_8">
      <!-- 0.2 -->
      <g transform="translate(102.726875 308.503219)scale(0.1 -0.1)">
       <use xlink:href="#DejaVuSans-48"/>
       <use x="63.623047" xlink:href="#DejaVuSans-46"/>
       <use x="95.410156" xlink:href="#DejaVuSans-50"/>
      </g>
     </g>
    </g>
    <g id="ytick_3">
     <g id="line2d_29">
      <path clip-path="url(#pc6a4caed5f)" d="M 122.13 240.948 
L 707.148 240.948 
" style="fill:none;stroke:#ffffff;stroke-linecap:round;"/>
     </g>
     <g id="line2d_30"/>
     <g id="text_9">
      <!-- 0.4 -->
      <g transform="translate(102.726875 244.747219)scale(0.1 -0.1)">
       <use xlink:href="#DejaVuSans-48"/>
       <use x="63.623047" xlink:href="#DejaVuSans-46"/>
       <use x="95.410156" xlink:href="#DejaVuSans-52"/>
      </g>
     </g>
    </g>
    <g id="ytick_4">
     <g id="line2d_31">
      <path clip-path="url(#pc6a4caed5f)" d="M 122.13 177.192 
L 707.148 177.192 
" style="fill:none;stroke:#ffffff;stroke-linecap:round;"/>
     </g>
     <g id="line2d_32"/>
     <g id="text_10">
      <!-- 0.6 -->
      <g transform="translate(102.726875 180.991219)scale(0.1 -0.1)">
       <use xlink:href="#DejaVuSans-48"/>
       <use x="63.623047" xlink:href="#DejaVuSans-46"/>
       <use x="95.410156" xlink:href="#DejaVuSans-54"/>
      </g>
     </g>
    </g>
    <g id="ytick_5">
     <g id="line2d_33">
      <path clip-path="url(#pc6a4caed5f)" d="M 122.13 113.436 
L 707.148 113.436 
" style="fill:none;stroke:#ffffff;stroke-linecap:round;"/>
     </g>
     <g id="line2d_34"/>
     <g id="text_11">
      <!-- 0.8 -->
      <g transform="translate(102.726875 117.235219)scale(0.1 -0.1)">
       <use xlink:href="#DejaVuSans-48"/>
       <use x="63.623047" xlink:href="#DejaVuSans-46"/>
       <use x="95.410156" xlink:href="#DejaVuSans-56"/>
      </g>
     </g>
    </g>
    <g id="ytick_6">
     <g id="line2d_35">
      <path clip-path="url(#pc6a4caed5f)" d="M 122.13 49.68 
L 707.148 49.68 
" style="fill:none;stroke:#ffffff;stroke-linecap:round;"/>
     </g>
     <g id="line2d_36"/>
     <g id="text_12">
      <!-- 1.0 -->
      <g transform="translate(102.726875 53.479219)scale(0.1 -0.1)">
       <defs>
        <path d="M 12.40625 8.296875 
L 28.515625 8.296875 
L 28.515625 63.921875 
L 10.984375 60.40625 
L 10.984375 69.390625 
L 28.421875 72.90625 
L 38.28125 72.90625 
L 38.28125 8.296875 
L 54.390625 8.296875 
L 54.390625 0 
L 12.40625 0 
z
" id="DejaVuSans-49"/>
       </defs>
       <use xlink:href="#DejaVuSans-49"/>
       <use x="63.623047" xlink:href="#DejaVuSans-46"/>
       <use x="95.410156" xlink:href="#DejaVuSans-48"/>
      </g>
     </g>
    </g>
    <g id="ytick_7">
     <g id="line2d_37"/>
    </g>
    <g id="ytick_8">
     <g id="line2d_38"/>
    </g>
    <g id="ytick_9">
     <g id="line2d_39"/>
    </g>
    <g id="ytick_10">
     <g id="line2d_40"/>
    </g>
    <g id="ytick_11">
     <g id="line2d_41"/>
    </g>
    <g id="ytick_12">
     <g id="line2d_42"/>
    </g>
    <g id="ytick_13">
     <g id="line2d_43"/>
    </g>
    <g id="ytick_14">
     <g id="line2d_44"/>
    </g>
    <g id="ytick_15">
     <g id="line2d_45"/>
    </g>
    <g id="ytick_16">
     <g id="line2d_46"/>
    </g>
    <g id="ytick_17">
     <g id="line2d_47"/>
    </g>
    <g id="ytick_18">
     <g id="line2d_48"/>
    </g>
    <g id="ytick_19">
     <g id="line2d_49"/>
    </g>
    <g id="ytick_20">
     <g id="line2d_50"/>
    </g>
    <g id="ytick_21">
     <g id="line2d_51"/>
    </g>
    <g id="text_13">
     <!-- Cumulative probability -->
     <g transform="translate(96.647187 265.872344)rotate(-90)scale(0.1 -0.1)">
      <defs>
       <path d="M 64.40625 67.28125 
L 64.40625 56.890625 
Q 59.421875 61.53125 53.78125 63.8125 
Q 48.140625 66.109375 41.796875 66.109375 
Q 29.296875 66.109375 22.65625 58.46875 
Q 16.015625 50.828125 16.015625 36.375 
Q 16.015625 21.96875 22.65625 14.328125 
Q 29.296875 6.6875 41.796875 6.6875 
Q 48.140625 6.6875 53.78125 8.984375 
Q 59.421875 11.28125 64.40625 15.921875 
L 64.40625 5.609375 
Q 59.234375 2.09375 53.4375 0.328125 
Q 47.65625 -1.421875 41.21875 -1.421875 
Q 24.65625 -1.421875 15.125 8.703125 
Q 5.609375 18.84375 5.609375 36.375 
Q 5.609375 53.953125 15.125 64.078125 
Q 24.65625 74.21875 41.21875 74.21875 
Q 47.75 74.21875 53.53125 72.484375 
Q 59.328125 70.75 64.40625 67.28125 
z
" id="DejaVuSans-67"/>
       <path d="M 8.5 21.578125 
L 8.5 54.6875 
L 17.484375 54.6875 
L 17.484375 21.921875 
Q 17.484375 14.15625 20.5 10.265625 
Q 23.53125 6.390625 29.59375 6.390625 
Q 36.859375 6.390625 41.078125 11.03125 
Q 45.3125 15.671875 45.3125 23.6875 
L 45.3125 54.6875 
L 54.296875 54.6875 
L 54.296875 0 
L 45.3125 0 
L 45.3125 8.40625 
Q 42.046875 3.421875 37.71875 1 
Q 33.40625 -1.421875 27.6875 -1.421875 
Q 18.265625 -1.421875 13.375 4.4375 
Q 8.5 10.296875 8.5 21.578125 
z
M 31.109375 56 
z
" id="DejaVuSans-117"/>
       <path d="M 9.421875 75.984375 
L 18.40625 75.984375 
L 18.40625 0 
L 9.421875 0 
z
" id="DejaVuSans-108"/>
       <path d="M 9.421875 54.6875 
L 18.40625 54.6875 
L 18.40625 0 
L 9.421875 0 
z
M 9.421875 75.984375 
L 18.40625 75.984375 
L 18.40625 64.59375 
L 9.421875 64.59375 
z
" id="DejaVuSans-105"/>
       <path d="M 2.984375 54.6875 
L 12.5 54.6875 
L 29.59375 8.796875 
L 46.6875 54.6875 
L 56.203125 54.6875 
L 35.6875 0 
L 23.484375 0 
z
" id="DejaVuSans-118"/>
       <path d="M 18.109375 8.203125 
L 18.109375 -20.796875 
L 9.078125 -20.796875 
L 9.078125 54.6875 
L 18.109375 54.6875 
L 18.109375 46.390625 
Q 20.953125 51.265625 25.265625 53.625 
Q 29.59375 56 35.59375 56 
Q 45.5625 56 51.78125 48.09375 
Q 58.015625 40.1875 58.015625 27.296875 
Q 58.015625 14.40625 51.78125 6.484375 
Q 45.5625 -1.421875 35.59375 -1.421875 
Q 29.59375 -1.421875 25.265625 0.953125 
Q 20.953125 3.328125 18.109375 8.203125 
z
M 48.6875 27.296875 
Q 48.6875 37.203125 44.609375 42.84375 
Q 40.53125 48.484375 33.40625 48.484375 
Q 26.265625 48.484375 22.1875 42.84375 
Q 18.109375 37.203125 18.109375 27.296875 
Q 18.109375 17.390625 22.1875 11.75 
Q 26.265625 6.109375 33.40625 6.109375 
Q 40.53125 6.109375 44.609375 11.75 
Q 48.6875 17.390625 48.6875 27.296875 
z
" id="DejaVuSans-112"/>
       <path d="M 41.109375 46.296875 
Q 39.59375 47.171875 37.8125 47.578125 
Q 36.03125 48 33.890625 48 
Q 26.265625 48 22.1875 43.046875 
Q 18.109375 38.09375 18.109375 28.8125 
L 18.109375 0 
L 9.078125 0 
L 9.078125 54.6875 
L 18.109375 54.6875 
L 18.109375 46.1875 
Q 20.953125 51.171875 25.484375 53.578125 
Q 30.03125 56 36.53125 56 
Q 37.453125 56 38.578125 55.875 
Q 39.703125 55.765625 41.0625 55.515625 
z
" id="DejaVuSans-114"/>
       <path d="M 30.609375 48.390625 
Q 23.390625 48.390625 19.1875 42.75 
Q 14.984375 37.109375 14.984375 27.296875 
Q 14.984375 17.484375 19.15625 11.84375 
Q 23.34375 6.203125 30.609375 6.203125 
Q 37.796875 6.203125 41.984375 11.859375 
Q 46.1875 17.53125 46.1875 27.296875 
Q 46.1875 37.015625 41.984375 42.703125 
Q 37.796875 48.390625 30.609375 48.390625 
z
M 30.609375 56 
Q 42.328125 56 49.015625 48.375 
Q 55.71875 40.765625 55.71875 27.296875 
Q 55.71875 13.875 49.015625 6.21875 
Q 42.328125 -1.421875 30.609375 -1.421875 
Q 18.84375 -1.421875 12.171875 6.21875 
Q 5.515625 13.875 5.515625 27.296875 
Q 5.515625 40.765625 12.171875 48.375 
Q 18.84375 56 30.609375 56 
z
" id="DejaVuSans-111"/>
       <path d="M 48.6875 27.296875 
Q 48.6875 37.203125 44.609375 42.84375 
Q 40.53125 48.484375 33.40625 48.484375 
Q 26.265625 48.484375 22.1875 42.84375 
Q 18.109375 37.203125 18.109375 27.296875 
Q 18.109375 17.390625 22.1875 11.75 
Q 26.265625 6.109375 33.40625 6.109375 
Q 40.53125 6.109375 44.609375 11.75 
Q 48.6875 17.390625 48.6875 27.296875 
z
M 18.109375 46.390625 
Q 20.953125 51.265625 25.265625 53.625 
Q 29.59375 56 35.59375 56 
Q 45.5625 56 51.78125 48.09375 
Q 58.015625 40.1875 58.015625 27.296875 
Q 58.015625 14.40625 51.78125 6.484375 
Q 45.5625 -1.421875 35.59375 -1.421875 
Q 29.59375 -1.421875 25.265625 0.953125 
Q 20.953125 3.328125 18.109375 8.203125 
L 18.109375 0 
L 9.078125 0 
L 9.078125 75.984375 
L 18.109375 75.984375 
z
" id="DejaVuSans-98"/>
      </defs>
      <use xlink:href="#DejaVuSans-67"/>
      <use x="69.824219" xlink:href="#DejaVuSans-117"/>
      <use x="133.203125" xlink:href="#DejaVuSans-109"/>
      <use x="230.615234" xlink:href="#DejaVuSans-117"/>
      <use x="293.994141" xlink:href="#DejaVuSans-108"/>
      <use x="321.777344" xlink:href="#DejaVuSans-97"/>
      <use x="383.056641" xlink:href="#DejaVuSans-116"/>
      <use x="422.265625" xlink:href="#DejaVuSans-105"/>
      <use x="450.048828" xlink:href="#DejaVuSans-118"/>
      <use x="509.228516" xlink:href="#DejaVuSans-101"/>
      <use x="570.751953" xlink:href="#DejaVuSans-32"/>
      <use x="602.539062" xlink:href="#DejaVuSans-112"/>
      <use x="666.015625" xlink:href="#DejaVuSans-114"/>
      <use x="704.878906" xlink:href="#DejaVuSans-111"/>
      <use x="766.060547" xlink:href="#DejaVuSans-98"/>
      <use x="829.537109" xlink:href="#DejaVuSans-97"/>
      <use x="890.816406" xlink:href="#DejaVuSans-98"/>
      <use x="954.292969" xlink:href="#DejaVuSans-105"/>
      <use x="982.076172" xlink:href="#DejaVuSans-108"/>
      <use x="1009.859375" xlink:href="#DejaVuSans-105"/>
      <use x="1037.642578" xlink:href="#DejaVuSans-116"/>
      <use x="1076.851562" xlink:href="#DejaVuSans-121"/>
     </g>
    </g>
   </g>
   <g id="line2d_52">
    <path clip-path="url(#pc6a4caed5f)" d="M 147.981709 367.551795 
L 152.334042 366.64359 
L 155.461084 365.735385 
L 156.29709 364.827179 
L 164.988992 363.918974 
L 166.731202 363.010769 
L 170.228384 362.102564 
L 171.160115 361.194359 
L 171.523873 359.377949 
L 172.985287 358.469744 
L 173.502206 357.561538 
L 173.795766 356.653333 
L 174.261631 355.745128 
L 174.989147 354.836923 
L 176.259109 353.928718 
L 176.284636 353.020513 
L 176.673921 352.112308 
L 176.699448 351.204103 
L 177.19084 350.295897 
L 177.471636 349.387692 
L 177.478018 348.479487 
L 177.937502 347.571282 
L 178.250206 345.754872 
L 179.239373 344.846667 
L 179.34148 343.030256 
L 179.462733 341.213846 
L 179.545695 339.397436 
L 180.011561 338.489231 
L 180.075378 337.581026 
L 180.52848 336.672821 
L 180.67526 334.85641 
L 181.153888 333.948205 
L 181.453829 333.04 
L 181.581464 332.131795 
L 182.404706 329.407179 
L 182.411087 328.498974 
L 182.813136 327.590769 
L 182.883335 326.682564 
L 183.304528 325.774359 
L 183.464071 323.049744 
L 183.885265 321.233333 
L 184.370275 320.325128 
L 184.98292 319.416923 
L 185.672146 316.692308 
L 186.067813 313.967692 
L 186.425189 310.334872 
L 186.705985 309.426667 
L 188.071673 307.610256 
L 188.0972 306.702051 
L 188.416286 305.793846 
L 188.531157 303.977436 
L 188.863006 302.161026 
L 189.641576 301.252821 
L 189.762829 300.344615 
L 190.337183 298.528205 
L 190.445673 295.80359 
L 190.905156 293.987179 
L 191.211479 292.170769 
L 191.275296 291.262564 
L 191.804979 290.354359 
L 191.964522 288.537949 
L 192.315516 287.629744 
L 192.519732 285.813333 
L 192.787764 284.905128 
L 192.896253 283.996923 
L 193.73864 283.088718 
L 193.847129 281.272308 
L 194.166215 280.364103 
L 194.274704 278.547692 
L 194.695898 276.731282 
L 195.085183 275.823077 
L 195.104328 274.914872 
L 195.29578 274.006667 
L 195.723355 273.098462 
L 195.768027 272.190256 
L 196.157312 270.373846 
L 196.201984 269.465641 
L 197.146478 268.557436 
L 197.637871 267.649231 
L 197.644253 266.741026 
L 198.001629 265.832821 
L 198.397295 264.01641 
L 199.067376 263.108205 
L 199.609822 261.291795 
L 199.794892 259.475385 
L 200.031016 258.567179 
L 200.190559 256.750769 
L 200.222467 255.842564 
L 201.058473 254.934359 
L 201.154198 254.026154 
L 201.364795 253.117949 
L 201.575392 250.393333 
L 201.920005 249.485128 
L 202.207182 246.760513 
L 202.34758 245.852308 
L 202.666666 244.944103 
L 202.673048 244.035897 
L 203.579252 239.494872 
L 203.840902 238.586667 
L 204.415257 237.678462 
L 204.766252 234.953846 
L 205.557585 233.137436 
L 205.997924 231.321026 
L 206.431881 230.412821 
L 206.514843 229.504615 
L 207.510391 228.59641 
L 207.810332 227.688205 
L 208.410214 226.78 
L 208.946278 224.055385 
L 209.335563 223.147179 
L 209.367472 222.238974 
L 209.69294 221.330769 
L 209.737612 220.422564 
L 210.426837 216.789744 
L 210.439601 215.881538 
L 210.611907 214.973333 
L 211.033101 214.065128 
L 211.237316 213.156923 
L 211.620219 212.248718 
L 212.156283 208.615897 
L 212.239246 207.707692 
L 212.571095 206.799487 
L 212.781692 205.891282 
L 212.877418 204.074872 
L 215.570504 202.258462 
L 215.615176 201.350256 
L 215.921498 200.442051 
L 215.959788 199.533846 
L 216.125713 198.625641 
L 217.012772 197.717436 
L 217.031917 195.901026 
L 217.459493 194.992821 
L 217.485019 193.17641 
L 217.791342 192.268205 
L 218.876234 191.36 
L 219.354863 190.451795 
L 219.386772 189.54359 
L 219.865401 188.635385 
L 219.980272 186.818974 
L 220.497191 185.910769 
L 220.950293 184.094359 
L 221.875643 183.186154 
L 222.539342 182.277949 
L 222.915863 181.369744 
L 223.132842 180.461538 
L 223.183895 179.553333 
L 223.579562 178.645128 
L 224.179444 177.736923 
L 224.326223 176.828718 
L 225.691911 173.195897 
L 225.768492 172.287692 
L 226.030142 171.379487 
L 226.042906 170.471282 
L 226.898056 169.563077 
L 227.568137 168.654872 
L 227.587282 167.746667 
L 227.740443 166.838462 
L 228.391379 165.930256 
L 228.901916 165.022051 
L 229.201857 164.113846 
L 229.32311 163.205641 
L 229.355018 161.389231 
L 229.737922 159.572821 
L 230.433529 157.75641 
L 231.339733 156.848205 
L 231.397169 155.94 
L 231.620529 155.031795 
L 232.194884 154.12359 
L 232.296991 153.215385 
L 232.724566 151.398974 
L 232.833056 150.490769 
L 233.158523 149.582564 
L 236.343002 146.857949 
L 237.057754 145.949744 
L 237.97034 145.041538 
L 238.104356 144.133333 
L 238.512786 143.225128 
L 239.112668 142.316923 
L 243.465001 140.500513 
L 245.149775 139.592308 
L 245.277409 136.867692 
L 245.366753 135.959487 
L 246.387829 135.051282 
L 246.885603 134.143077 
L 247.881151 133.234872 
L 248.213 132.326667 
L 248.315108 131.418462 
L 250.21686 130.510256 
L 250.542328 129.602051 
L 250.54871 128.693846 
L 251.99736 126.877436 
L 252.533425 125.969231 
L 252.539806 125.061026 
L 252.724876 124.152821 
L 253.10778 123.244615 
L 253.216269 122.33641 
L 253.458774 121.428205 
L 254.288398 120.52 
L 254.447941 119.611795 
L 254.735118 118.70359 
L 255.488161 117.795385 
L 255.749812 116.887179 
L 256.011462 115.070769 
L 257.15379 114.162564 
L 257.15379 113.254359 
L 258.34079 112.346154 
L 258.74922 111.437949 
L 258.755602 110.529744 
L 260.134053 109.621538 
L 260.829661 108.713333 
L 263.669526 107.805128 
L 265.756348 106.896923 
L 268.513251 105.080513 
L 269.413074 104.172308 
L 270.727708 103.264103 
L 271.155283 102.355897 
L 272.138068 101.447692 
L 273.988767 100.539487 
L 274.167455 99.631282 
L 274.231272 98.723077 
L 277.41575 97.814872 
L 278.047541 96.906667 
L 279.598299 95.998462 
L 279.764223 95.090256 
L 280.051401 94.182051 
L 280.695954 93.273846 
L 282.540271 91.457436 
L 284.454787 90.549231 
L 287.352088 89.641026 
L 289.560163 87.824615 
L 290.019647 86.91641 
L 302.878812 86.008205 
L 305.57828 85.1 
L 305.769732 84.191795 
L 306.088818 83.28359 
L 307.13542 82.375385 
L 307.294963 80.558974 
L 309.152043 79.650769 
L 310.377333 78.742564 
L 310.773 77.834359 
L 313.797935 76.926154 
L 314.37229 76.017949 
L 322.374967 75.109744 
L 324.212902 74.201538 
L 324.927654 73.293333 
L 325.151015 72.385128 
L 329.107681 71.476923 
L 334.908664 70.568718 
L 339.580083 69.660513 
L 348.201787 68.752308 
L 349.280297 67.844103 
L 350.141829 66.935897 
L 351.252249 66.027692 
L 352.088254 64.211282 
L 353.868754 63.303077 
L 364.526226 62.394872 
L 382.107864 61.486667 
L 384.794568 60.578462 
L 385.381686 59.670256 
L 414.195151 58.762051 
L 416.409608 57.853846 
L 419.313291 56.945641 
L 434.801725 56.037436 
L 448.324589 55.129231 
L 476.940221 54.221026 
L 482.805021 53.312821 
L 492.294639 52.404615 
L 503.124417 51.49641 
L 653.688333 50.588205 
L 665.015886 49.68 
L 665.015886 49.68 
" style="fill:none;stroke:#1b9e77;stroke-linecap:round;"/>
   </g>
   <g id="line2d_53">
    <path clip-path="url(#pc6a4caed5f)" d="M 150.540778 367.114937 
L 155.454703 365.769873 
L 158.67109 364.42481 
L 169.124347 363.079747 
L 170.381545 361.734684 
L 171.32604 360.38962 
L 171.460056 359.044557 
L 172.69811 357.699494 
L 174.70197 356.35443 
L 176.354835 355.009367 
L 176.533523 353.664304 
L 176.552669 352.319241 
L 177.382292 350.974177 
L 177.433346 349.629114 
L 177.822631 348.284051 
L 178.045991 346.938987 
L 178.945813 345.593924 
L 178.964959 344.248861 
L 180.292356 342.903797 
L 180.579534 341.558734 
L 181.390012 340.213671 
L 181.53041 338.868608 
L 182.277071 337.523544 
L 182.302598 334.833418 
L 182.991824 333.488354 
L 183.215184 332.143291 
L 183.432162 329.453165 
L 184.140533 328.108101 
L 184.236259 326.763038 
L 184.517055 325.417975 
L 184.94463 324.072911 
L 184.995684 321.382785 
L 185.869979 320.037722 
L 186.629404 317.347595 
L 186.897436 316.002532 
L 188.007856 314.657468 
L 188.91406 311.967342 
L 188.933205 310.622278 
L 189.252291 307.932152 
L 190.222312 306.587089 
L 190.700941 302.551899 
L 190.873248 301.206835 
L 191.626291 297.171646 
L 191.945377 294.481519 
L 192.066629 290.446329 
L 192.079393 289.101266 
L 193.432317 286.411139 
L 193.623769 285.066076 
L 193.655678 283.721013 
L 194.191742 281.030886 
L 194.217269 279.685823 
L 194.766097 278.340759 
L 195.697828 275.650633 
L 197.006081 272.960506 
L 197.012462 271.615443 
L 198.065446 270.27038 
L 198.735527 268.925316 
L 198.754672 267.580253 
L 199.112048 266.23519 
L 199.322645 263.545063 
L 200.050161 260.854937 
L 200.681951 259.509873 
L 201.058473 258.16481 
L 201.862569 256.819747 
L 202.30929 251.439494 
L 202.858118 250.09443 
L 203.706886 248.749367 
L 204.632236 246.059241 
L 204.90665 244.714177 
L 205.008757 243.369114 
L 206.323391 242.024051 
L 206.50208 240.678987 
L 206.936037 239.333924 
L 207.229596 235.298734 
L 207.606117 233.953671 
L 207.810332 231.263544 
L 207.963493 229.918481 
L 207.98902 228.573418 
L 209.080294 227.228354 
L 209.284509 223.193165 
L 209.590832 221.848101 
L 209.743993 220.503038 
L 210.816122 219.157975 
L 211.077773 216.467848 
L 213.253939 215.122785 
L 214.0006 213.777722 
L 214.977004 209.742532 
L 215.761955 208.397468 
L 216.017224 207.052405 
L 218.014702 205.707342 
L 218.435896 204.362278 
L 218.729455 201.672152 
L 219.495261 198.982025 
L 219.616514 197.636962 
L 221.339578 194.946835 
L 222.53296 192.256709 
L 222.654213 190.911646 
L 223.809304 189.566582 
L 224.275169 188.221519 
L 227.631954 185.531392 
L 228.09782 184.186329 
L 230.076153 182.841266 
L 231.071701 181.496203 
L 231.677964 180.151139 
L 231.965142 178.806076 
L 232.022577 177.461013 
L 233.311685 176.115949 
L 233.764787 174.770886 
L 234.524211 173.425823 
L 235.487851 172.080759 
L 235.96648 170.735696 
L 237.313023 169.390633 
L 238.608512 166.700506 
L 238.870163 165.355443 
L 240.140125 164.01038 
L 240.420921 162.665316 
L 244.071264 161.320253 
L 244.683909 159.97519 
L 248.034312 157.285063 
L 248.698011 155.94 
L 249.068151 154.594937 
L 249.151113 153.249873 
L 249.578688 151.90481 
L 251.199645 150.559747 
L 251.250699 149.214684 
L 251.582548 147.86962 
L 252.290919 146.524557 
L 254.447941 145.179494 
L 255.098876 143.83443 
L 255.392435 141.144304 
L 256.541145 139.799241 
L 258.659876 137.109114 
L 259.100214 135.764051 
L 259.329956 134.418987 
L 259.546935 130.383797 
L 261.008349 129.038734 
L 261.397634 127.693671 
L 265.239429 125.003544 
L 266.439192 123.658481 
L 268.002714 122.313418 
L 271.882799 120.968354 
L 273.548428 119.623291 
L 276.22875 118.278228 
L 277.543385 116.933165 
L 277.619965 114.243038 
L 279.483428 112.897975 
L 280.766153 111.552911 
L 281.046949 110.207848 
L 281.468142 108.862785 
L 286.924513 107.517722 
L 288.736921 106.172658 
L 290.300443 104.827595 
L 290.511039 103.482532 
L 290.99605 102.137468 
L 291.066249 100.792405 
L 292.92333 99.447342 
L 295.514308 96.757215 
L 295.622797 95.412152 
L 297.294808 94.067089 
L 305.552753 92.722025 
L 311.800457 91.376962 
L 315.016844 90.031899 
L 318.284284 87.341772 
L 319.522338 85.996709 
L 323.874671 84.651646 
L 326.54223 81.961519 
L 330.435079 80.616456 
L 333.983315 79.271392 
L 342.821997 76.581266 
L 343.326153 75.236203 
L 346.43405 73.891139 
L 354.22613 72.546076 
L 357.665877 71.201013 
L 364.704914 69.855949 
L 369.389096 68.510886 
L 375.260279 67.165823 
L 375.789961 65.820759 
L 376.00694 64.475696 
L 389.66382 63.130633 
L 410.053415 61.78557 
L 419.900409 60.440506 
L 441.457858 59.095443 
L 493.500784 57.75038 
L 496.021563 56.405316 
L 500.303697 55.060253 
L 509.780551 53.71519 
L 526.69849 52.370127 
L 534.790511 51.025063 
L 592.519548 49.68 
L 592.519548 49.68 
" style="fill:none;stroke:#d95f02;stroke-dasharray:3.7,1.6;stroke-dashoffset:0;"/>
   </g>
   <g id="line2d_54">
    <path clip-path="url(#pc6a4caed5f)" d="M 155.186671 367.055683 
L 164.114697 365.651366 
L 166.201519 364.247048 
L 167.273648 361.438414 
L 167.605497 358.62978 
L 167.899056 357.225463 
L 168.033073 355.821145 
L 168.703153 354.416828 
L 169.513632 353.012511 
L 169.941207 351.608194 
L 170.151804 348.799559 
L 170.872938 347.395242 
L 170.91761 345.990925 
L 171.294131 344.586608 
L 171.377094 343.182291 
L 171.638744 341.777974 
L 171.830196 338.969339 
L 172.417314 336.160705 
L 172.532185 334.756388 
L 174.019126 331.947753 
L 174.421174 330.543436 
L 174.733878 326.330485 
L 174.950857 324.926167 
L 175.754954 323.52185 
L 175.946405 322.117533 
L 176.622867 320.713216 
L 176.686685 319.308899 
L 177.107878 316.500264 
L 177.573744 312.287313 
L 178.294878 309.478678 
L 179.003249 298.244141 
L 179.698856 295.435507 
L 180.30512 289.818238 
L 180.853948 288.413921 
L 181.581464 277.179383 
L 181.887786 275.775066 
L 181.913313 274.370749 
L 182.1622 272.966432 
L 182.251544 271.562115 
L 182.787609 268.75348 
L 182.928007 264.540529 
L 183.068404 263.136211 
L 183.093931 261.731894 
L 183.674668 257.518943 
L 183.929937 256.114626 
L 184.019281 253.305991 
L 184.16606 250.497357 
L 184.57449 249.09304 
L 184.98292 246.284405 
L 185.193517 244.880088 
L 185.219044 243.475771 
L 185.704055 240.667137 
L 185.7232 239.262819 
L 186.189065 237.858502 
L 186.674076 235.049868 
L 186.744275 233.645551 
L 187.069743 232.241233 
L 187.612189 230.836916 
L 187.835549 228.028282 
L 188.027001 225.219648 
L 188.403522 222.411013 
L 188.633264 219.602379 
L 188.786425 216.793744 
L 189.048076 215.389427 
L 189.418216 209.772159 
L 189.8777 206.963524 
L 190.215931 204.15489 
L 190.669033 198.537621 
L 191.498656 197.133304 
L 191.945377 191.516035 
L 192.098538 187.303084 
L 192.634602 181.685815 
L 193.017506 180.281498 
L 193.023887 178.877181 
L 193.968382 177.472863 
L 194.427866 176.068546 
L 195.634011 173.259912 
L 195.787172 170.451278 
L 195.882898 167.642643 
L 196.399817 166.238326 
L 197.695306 164.834009 
L 197.905903 163.429692 
L 197.912285 162.025374 
L 198.205844 160.621057 
L 198.978032 159.21674 
L 199.424752 157.812423 
L 199.450279 156.408106 
L 200.228849 155.003789 
L 200.420301 153.599471 
L 201.709408 152.195154 
L 202.194419 149.38652 
L 202.602849 147.982203 
L 203.145295 145.173568 
L 203.528198 143.769251 
L 204.300386 142.364934 
L 204.887505 140.960617 
L 205.072574 139.5563 
L 205.098101 138.151982 
L 205.436332 136.747665 
L 206.827547 133.939031 
L 206.904128 132.534714 
L 207.31894 131.130396 
L 207.586972 126.917445 
L 207.937967 125.513128 
L 208.123036 122.704493 
L 209.922681 119.895859 
L 210.267294 118.491542 
L 210.292821 117.087225 
L 210.624671 115.682907 
L 210.841649 114.27859 
L 211.250079 112.874273 
L 212.149902 111.469956 
L 213.005052 108.661322 
L 213.904875 107.257004 
L 214.33245 104.44837 
L 214.670681 103.044053 
L 214.798315 100.235419 
L 215.398197 98.831101 
L 216.240584 96.022467 
L 216.993627 94.61815 
L 219.820729 93.213833 
L 219.97389 91.809515 
L 221.333197 90.405198 
L 221.690573 87.596564 
L 223.662524 86.192247 
L 224.409185 84.78793 
L 224.594255 83.383612 
L 228.595594 80.574978 
L 230.822814 79.170661 
L 232.443771 76.362026 
L 234.211507 74.957709 
L 235.328308 73.553392 
L 235.424034 72.149075 
L 238.200082 70.744758 
L 246.611189 69.340441 
L 247.242979 67.936123 
L 252.616387 66.531806 
L 263.905649 65.127489 
L 266.637026 63.723172 
L 272.386955 62.318855 
L 279.285594 60.914537 
L 280.689573 59.51022 
L 280.702336 58.105903 
L 283.0189 56.701586 
L 285.603497 55.297269 
L 287.715846 53.892952 
L 297.952125 52.488634 
L 367.870247 51.084317 
L 372.905424 49.68 
L 372.905424 49.68 
" style="fill:none;stroke:#7570b3;stroke-dasharray:2,4;stroke-dashoffset:0;"/>
   </g>
   <g id="line2d_55">
    <path clip-path="url(#pc6a4caed5f)" d="M 153.099848 366.956321 
L 153.278536 365.452642 
L 154.082633 363.948962 
L 164.491218 362.445283 
L 165.071955 360.941604 
L 166.999234 359.437925 
L 168.511702 357.934245 
L 168.588282 354.926887 
L 171.753615 353.423208 
L 172.468368 347.408491 
L 173.349045 345.904811 
L 173.572405 341.393774 
L 174.165905 339.890094 
L 174.287158 335.379057 
L 174.529663 332.371698 
L 175.550738 327.86066 
L 175.665609 326.356981 
L 176.086803 324.853302 
L 176.642013 321.845943 
L 177.133405 320.342264 
L 177.15255 318.838585 
L 177.490781 317.334906 
L 177.752432 314.327547 
L 177.78434 312.823868 
L 177.950265 311.320189 
L 178.613964 308.31283 
L 178.93305 305.305472 
L 179.111738 302.298113 
L 179.309571 299.290755 
L 179.405297 294.779717 
L 179.781819 293.276038 
L 179.858399 287.261321 
L 180.496571 285.757642 
L 180.681641 284.253962 
L 180.924147 278.239245 
L 181.249614 276.735566 
L 181.434684 272.224528 
L 181.632517 264.706132 
L 181.894168 263.202453 
L 181.945222 261.698774 
L 182.1622 260.195094 
L 182.245163 255.684057 
L 182.564249 246.661981 
L 182.71741 243.654623 
L 182.7557 240.647264 
L 182.985442 239.143585 
L 183.113076 236.136226 
L 183.968227 234.632547 
L 184.434092 231.625189 
L 184.600017 228.61783 
L 185.448786 222.603113 
L 186.061431 221.099434 
L 186.182684 218.092075 
L 186.380517 216.588396 
L 187.127178 215.084717 
L 187.146323 213.581038 
L 187.618571 212.077358 
L 187.880221 209.07 
L 188.435431 206.062642 
L 189.022549 204.558962 
L 189.641576 198.544245 
L 190.158495 195.536887 
L 190.292511 192.529528 
L 190.477581 191.025849 
L 190.988119 189.52217 
L 191.058318 188.018491 
L 191.351877 186.514811 
L 191.485893 185.011132 
L 191.766689 183.507453 
L 191.88156 182.003774 
L 192.136828 180.500094 
L 192.219791 177.492736 
L 192.506968 175.989057 
L 192.538877 174.485377 
L 192.896253 172.981698 
L 192.902635 171.478019 
L 193.157903 169.97434 
L 193.732258 168.47066 
L 193.872656 166.966981 
L 193.891801 165.463302 
L 194.983075 163.959623 
L 195.410651 162.455943 
L 195.551048 160.952264 
L 196.214747 159.448585 
L 196.380672 157.944906 
L 196.501925 154.937547 
L 196.993317 150.426509 
L 197.057134 148.92283 
L 197.516618 147.419151 
L 197.701688 144.411792 
L 197.988865 142.908113 
L 198.614274 141.404434 
L 199.284355 138.397075 
L 200.024634 136.893396 
L 200.133123 133.886038 
L 201.045709 130.878679 
L 201.045709 129.375 
L 202.175274 127.871321 
L 202.787919 124.863962 
L 203.553725 123.360283 
L 204.191897 121.856604 
L 204.217424 120.352925 
L 204.542892 118.849245 
L 205.072574 117.345566 
L 205.1683 114.338208 
L 205.366134 112.834528 
L 205.940488 111.330849 
L 206.182994 109.82717 
L 206.272338 106.819811 
L 206.285101 105.316132 
L 206.463789 103.812453 
L 207.829477 102.308774 
L 208.078364 99.301415 
L 208.084746 97.797736 
L 208.576139 96.294057 
L 208.671864 94.790377 
L 208.99095 93.286698 
L 210.350257 91.783019 
L 210.426837 90.27934 
L 210.618289 88.77566 
L 211.55002 85.768302 
L 211.805289 84.264623 
L 211.92016 82.760943 
L 212.756165 81.257264 
L 212.826364 79.753585 
L 213.726186 78.249906 
L 214.083563 75.242547 
L 215.991697 73.738868 
L 217.491401 72.235189 
L 219.590987 70.731509 
L 220.599299 69.22783 
L 222.175584 67.724151 
L 226.234357 66.220472 
L 226.413046 64.716792 
L 227.5809 63.213113 
L 228.959352 61.709434 
L 233.228722 60.205755 
L 234.281706 58.702075 
L 242.616232 57.198396 
L 244.926415 55.694717 
L 253.860822 54.191038 
L 259.597989 52.687358 
L 276.484019 51.183679 
L 285.297174 49.68 
L 285.297174 49.68 
" style="fill:none;stroke:#e7298a;stroke-dasharray:8,4,2,4;stroke-dashoffset:0;"/>
   </g>
   <g id="line2d_56">
    <path clip-path="url(#pc6a4caed5f)" d="M 152.161735 366.942 
L 153.73802 365.424 
L 161.925767 363.906 
L 162.876643 362.388 
L 166.144083 360.87 
L 167.177922 359.352 
L 167.930965 357.834 
L 168.333013 356.316 
L 169.181782 354.798 
L 169.596594 353.28 
L 170.700631 351.762 
L 172.079083 350.244 
L 172.276916 348.726 
L 172.430077 345.69 
L 172.640674 344.172 
L 172.704491 342.654 
L 173.14483 341.136 
L 173.987217 332.028 
L 174.491373 330.51 
L 174.536045 328.992 
L 175.084873 325.956 
L 175.327378 322.92 
L 175.461394 318.366 
L 175.869824 316.848 
L 176.425034 313.812 
L 176.514378 312.294 
L 176.897281 310.776 
L 176.916427 309.258 
L 177.267421 307.74 
L 177.471636 303.186 
L 177.509926 301.668 
L 178.358695 300.15 
L 178.537383 295.596 
L 178.70969 292.56 
L 179.067066 291.042 
L 179.226609 286.488 
L 179.315953 284.97 
L 179.756292 283.452 
L 180.126432 280.416 
L 180.458281 278.898 
L 180.496571 277.38 
L 180.71355 275.862 
L 182.487668 268.272 
L 182.653593 265.236 
L 182.947152 263.718 
L 183.074786 260.682 
L 183.170512 259.164 
L 183.400254 257.646 
L 183.827829 256.128 
L 183.866119 254.61 
L 184.31284 251.574 
L 184.325603 250.056 
L 184.94463 248.538 
L 185.35306 245.502 
L 185.76149 240.948 
L 185.787017 239.43 
L 186.457098 234.876 
L 186.533678 233.358 
L 186.750657 231.84 
L 186.820856 230.322 
L 187.031452 228.804 
L 187.044216 227.286 
L 187.299485 225.768 
L 187.714296 224.25 
L 187.854694 222.732 
L 188.365232 221.214 
L 189.424597 219.696 
L 189.979807 218.178 
L 190.203167 216.66 
L 190.369092 213.624 
L 190.605216 212.106 
L 190.630742 210.588 
L 190.77114 209.07 
L 191.351877 207.552 
L 191.77307 201.48 
L 191.785834 199.962 
L 192.149592 198.444 
L 192.309135 196.926 
L 192.953688 195.408 
L 193.049414 193.89 
L 193.272774 192.372 
L 193.636532 186.3 
L 193.955618 184.782 
L 194.025817 181.746 
L 194.306613 178.71 
L 194.810769 177.192 
L 194.976694 175.674 
L 195.276634 174.156 
L 195.448941 172.638 
L 196.093495 171.12 
L 196.412581 169.602 
L 196.425344 168.084 
L 196.578505 166.566 
L 196.910355 165.048 
L 197.446419 163.53 
L 197.637871 160.494 
L 198.244134 157.458 
L 198.33986 155.94 
L 198.71 154.422 
L 198.735527 152.904 
L 199.067376 149.868 
L 199.080139 148.35 
L 199.469424 145.314 
L 199.724693 143.796 
L 199.865091 140.76 
L 200.286285 139.242 
L 200.375629 137.724 
L 200.93722 136.206 
L 200.969129 134.688 
L 201.594537 131.652 
L 201.760462 128.616 
L 201.93915 127.098 
L 201.958295 125.58 
L 202.38587 124.062 
L 202.475214 122.544 
L 203.700505 121.026 
L 204.549273 111.918 
L 205.1683 110.4 
L 205.972397 107.364 
L 206.036214 105.846 
L 206.348918 104.328 
L 206.374445 102.81 
L 206.897746 101.292 
L 206.929655 99.774 
L 207.810332 98.256 
L 207.810332 96.738 
L 208.35916 95.22 
L 209.590832 93.702 
L 210.592762 92.184 
L 210.656579 90.666 
L 210.937375 89.148 
L 213.113541 87.63 
L 213.834676 86.112 
L 214.804697 83.076 
L 214.817461 81.558 
L 216.712831 80.04 
L 216.980864 78.522 
L 217.427584 77.004 
L 218.00832 75.486 
L 218.850708 73.968 
L 218.869853 72.45 
L 221.811826 70.932 
L 222.245782 69.414 
L 222.992444 67.896 
L 224.466621 66.378 
L 224.894196 64.86 
L 227.931895 63.342 
L 228.187164 61.824 
L 235.00284 60.306 
L 239.016942 57.27 
L 247.996022 55.752 
L 248.449124 52.716 
L 250.99543 51.198 
L 376.249445 49.68 
L 376.249445 49.68 
" style="fill:none;stroke:#66a61e;stroke-linecap:round;"/>
    <defs>
     <path d="M 0 3 
C 0.795609 3 1.55874 2.683901 2.12132 2.12132 
C 2.683901 1.55874 3 0.795609 3 0 
C 3 -0.795609 2.683901 -1.55874 2.12132 -2.12132 
C 1.55874 -2.683901 0.795609 -3 0 -3 
C -0.795609 -3 -1.55874 -2.683901 -2.12132 -2.12132 
C -2.683901 -1.55874 -3 -0.795609 -3 0 
C -3 0.795609 -2.683901 1.55874 -2.12132 2.12132 
C -1.55874 2.683901 -0.795609 3 0 3 
z
" id="m0e4ea37257" style="stroke:#66a61e;"/>
    </defs>
    <g clip-path="url(#pc6a4caed5f)">
     <use style="fill:#66a61e;stroke:#66a61e;" x="152.161735" xlink:href="#m0e4ea37257" y="366.942"/>
     <use style="fill:#66a61e;stroke:#66a61e;" x="170.700631" xlink:href="#m0e4ea37257" y="351.762"/>
     <use style="fill:#66a61e;stroke:#66a61e;" x="173.642604" xlink:href="#m0e4ea37257" y="336.582"/>
     <use style="fill:#66a61e;stroke:#66a61e;" x="175.340142" xlink:href="#m0e4ea37257" y="321.402"/>
     <use style="fill:#66a61e;stroke:#66a61e;" x="177.369529" xlink:href="#m0e4ea37257" y="306.222"/>
     <use style="fill:#66a61e;stroke:#66a61e;" x="179.067066" xlink:href="#m0e4ea37257" y="291.042"/>
     <use style="fill:#66a61e;stroke:#66a61e;" x="180.71355" xlink:href="#m0e4ea37257" y="275.862"/>
     <use style="fill:#66a61e;stroke:#66a61e;" x="183.074786" xlink:href="#m0e4ea37257" y="260.682"/>
     <use style="fill:#66a61e;stroke:#66a61e;" x="185.35306" xlink:href="#m0e4ea37257" y="245.502"/>
     <use style="fill:#66a61e;stroke:#66a61e;" x="186.820856" xlink:href="#m0e4ea37257" y="230.322"/>
     <use style="fill:#66a61e;stroke:#66a61e;" x="190.273366" xlink:href="#m0e4ea37257" y="215.142"/>
     <use style="fill:#66a61e;stroke:#66a61e;" x="191.785834" xlink:href="#m0e4ea37257" y="199.962"/>
     <use style="fill:#66a61e;stroke:#66a61e;" x="193.955618" xlink:href="#m0e4ea37257" y="184.782"/>
     <use style="fill:#66a61e;stroke:#66a61e;" x="196.412581" xlink:href="#m0e4ea37257" y="169.602"/>
     <use style="fill:#66a61e;stroke:#66a61e;" x="198.71" xlink:href="#m0e4ea37257" y="154.422"/>
     <use style="fill:#66a61e;stroke:#66a61e;" x="200.286285" xlink:href="#m0e4ea37257" y="139.242"/>
     <use style="fill:#66a61e;stroke:#66a61e;" x="202.38587" xlink:href="#m0e4ea37257" y="124.062"/>
     <use style="fill:#66a61e;stroke:#66a61e;" x="205.615021" xlink:href="#m0e4ea37257" y="108.882"/>
     <use style="fill:#66a61e;stroke:#66a61e;" x="209.590832" xlink:href="#m0e4ea37257" y="93.702"/>
     <use style="fill:#66a61e;stroke:#66a61e;" x="216.980864" xlink:href="#m0e4ea37257" y="78.522"/>
     <use style="fill:#66a61e;stroke:#66a61e;" x="227.931895" xlink:href="#m0e4ea37257" y="63.342"/>
    </g>
   </g>
   <g id="patch_3">
    <path d="M 122.13 368.46 
L 122.13 49.68 
" style="fill:none;"/>
   </g>
   <g id="patch_4">
    <path d="M 707.148 368.46 
L 707.148 49.68 
" style="fill:none;"/>
   </g>
   <g id="patch_5">
    <path d="M 122.13 368.46 
L 707.148 368.46 
" style="fill:none;"/>
   </g>
   <g id="patch_6">
    <path d="M 122.13 49.68 
L 707.148 49.68 
" style="fill:none;"/>
   </g>
   <g id="legend_1">
    <g id="line2d_57">
     <path d="M 722.18036 56.425998 
L 738.84036 56.425998 
" style="fill:none;stroke:#1b9e77;stroke-linecap:round;"/>
    </g>
    <g id="line2d_58"/>
    <g id="text_14">
     <!-- RTT - - TCP upload - BBRn-fq -->
     <g transform="translate(745.50436 59.341498)scale(0.0833 -0.0833)">
      <defs>
       <path d="M 44.390625 34.1875 
Q 47.5625 33.109375 50.5625 29.59375 
Q 53.5625 26.078125 56.59375 19.921875 
L 66.609375 0 
L 56 0 
L 46.6875 18.703125 
Q 43.0625 26.03125 39.671875 28.421875 
Q 36.28125 30.8125 30.421875 30.8125 
L 19.671875 30.8125 
L 19.671875 0 
L 9.8125 0 
L 9.8125 72.90625 
L 32.078125 72.90625 
Q 44.578125 72.90625 50.734375 67.671875 
Q 56.890625 62.453125 56.890625 51.90625 
Q 56.890625 45.015625 53.6875 40.46875 
Q 50.484375 35.9375 44.390625 34.1875 
z
M 19.671875 64.796875 
L 19.671875 38.921875 
L 32.078125 38.921875 
Q 39.203125 38.921875 42.84375 42.21875 
Q 46.484375 45.515625 46.484375 51.90625 
Q 46.484375 58.296875 42.84375 61.546875 
Q 39.203125 64.796875 32.078125 64.796875 
z
" id="DejaVuSans-82"/>
       <path d="M -0.296875 72.90625 
L 61.375 72.90625 
L 61.375 64.59375 
L 35.5 64.59375 
L 35.5 0 
L 25.59375 0 
L 25.59375 64.59375 
L -0.296875 64.59375 
z
" id="DejaVuSans-84"/>
       <path d="M 4.890625 31.390625 
L 31.203125 31.390625 
L 31.203125 23.390625 
L 4.890625 23.390625 
z
" id="DejaVuSans-45"/>
       <path d="M 19.671875 64.796875 
L 19.671875 37.40625 
L 32.078125 37.40625 
Q 38.96875 37.40625 42.71875 40.96875 
Q 46.484375 44.53125 46.484375 51.125 
Q 46.484375 57.671875 42.71875 61.234375 
Q 38.96875 64.796875 32.078125 64.796875 
z
M 9.8125 72.90625 
L 32.078125 72.90625 
Q 44.34375 72.90625 50.609375 67.359375 
Q 56.890625 61.8125 56.890625 51.125 
Q 56.890625 40.328125 50.609375 34.8125 
Q 44.34375 29.296875 32.078125 29.296875 
L 19.671875 29.296875 
L 19.671875 0 
L 9.8125 0 
z
" id="DejaVuSans-80"/>
       <path d="M 45.40625 46.390625 
L 45.40625 75.984375 
L 54.390625 75.984375 
L 54.390625 0 
L 45.40625 0 
L 45.40625 8.203125 
Q 42.578125 3.328125 38.25 0.953125 
Q 33.9375 -1.421875 27.875 -1.421875 
Q 17.96875 -1.421875 11.734375 6.484375 
Q 5.515625 14.40625 5.515625 27.296875 
Q 5.515625 40.1875 11.734375 48.09375 
Q 17.96875 56 27.875 56 
Q 33.9375 56 38.25 53.625 
Q 42.578125 51.265625 45.40625 46.390625 
z
M 14.796875 27.296875 
Q 14.796875 17.390625 18.875 11.75 
Q 22.953125 6.109375 30.078125 6.109375 
Q 37.203125 6.109375 41.296875 11.75 
Q 45.40625 17.390625 45.40625 27.296875 
Q 45.40625 37.203125 41.296875 42.84375 
Q 37.203125 48.484375 30.078125 48.484375 
Q 22.953125 48.484375 18.875 42.84375 
Q 14.796875 37.203125 14.796875 27.296875 
z
" id="DejaVuSans-100"/>
       <path d="M 19.671875 34.8125 
L 19.671875 8.109375 
L 35.5 8.109375 
Q 43.453125 8.109375 47.28125 11.40625 
Q 51.125 14.703125 51.125 21.484375 
Q 51.125 28.328125 47.28125 31.5625 
Q 43.453125 34.8125 35.5 34.8125 
z
M 19.671875 64.796875 
L 19.671875 42.828125 
L 34.28125 42.828125 
Q 41.5 42.828125 45.03125 45.53125 
Q 48.578125 48.25 48.578125 53.8125 
Q 48.578125 59.328125 45.03125 62.0625 
Q 41.5 64.796875 34.28125 64.796875 
z
M 9.8125 72.90625 
L 35.015625 72.90625 
Q 46.296875 72.90625 52.390625 68.21875 
Q 58.5 63.53125 58.5 54.890625 
Q 58.5 48.1875 55.375 44.234375 
Q 52.25 40.28125 46.1875 39.3125 
Q 53.46875 37.75 57.5 32.78125 
Q 61.53125 27.828125 61.53125 20.40625 
Q 61.53125 10.640625 54.890625 5.3125 
Q 48.25 0 35.984375 0 
L 9.8125 0 
z
" id="DejaVuSans-66"/>
       <path d="M 37.109375 75.984375 
L 37.109375 68.5 
L 28.515625 68.5 
Q 23.6875 68.5 21.796875 66.546875 
Q 19.921875 64.59375 19.921875 59.515625 
L 19.921875 54.6875 
L 34.71875 54.6875 
L 34.71875 47.703125 
L 19.921875 47.703125 
L 19.921875 0 
L 10.890625 0 
L 10.890625 47.703125 
L 2.296875 47.703125 
L 2.296875 54.6875 
L 10.890625 54.6875 
L 10.890625 58.5 
Q 10.890625 67.625 15.140625 71.796875 
Q 19.390625 75.984375 28.609375 75.984375 
z
" id="DejaVuSans-102"/>
       <path d="M 14.796875 27.296875 
Q 14.796875 17.390625 18.875 11.75 
Q 22.953125 6.109375 30.078125 6.109375 
Q 37.203125 6.109375 41.296875 11.75 
Q 45.40625 17.390625 45.40625 27.296875 
Q 45.40625 37.203125 41.296875 42.84375 
Q 37.203125 48.484375 30.078125 48.484375 
Q 22.953125 48.484375 18.875 42.84375 
Q 14.796875 37.203125 14.796875 27.296875 
z
M 45.40625 8.203125 
Q 42.578125 3.328125 38.25 0.953125 
Q 33.9375 -1.421875 27.875 -1.421875 
Q 17.96875 -1.421875 11.734375 6.484375 
Q 5.515625 14.40625 5.515625 27.296875 
Q 5.515625 40.1875 11.734375 48.09375 
Q 17.96875 56 27.875 56 
Q 33.9375 56 38.25 53.625 
Q 42.578125 51.265625 45.40625 46.390625 
L 45.40625 54.6875 
L 54.390625 54.6875 
L 54.390625 -20.796875 
L 45.40625 -20.796875 
z
" id="DejaVuSans-113"/>
      </defs>
      <use xlink:href="#DejaVuSans-82"/>
      <use x="62.232422" xlink:href="#DejaVuSans-84"/>
      <use x="121.566406" xlink:href="#DejaVuSans-84"/>
      <use x="182.650391" xlink:href="#DejaVuSans-32"/>
      <use x="214.4375" xlink:href="#DejaVuSans-45"/>
      <use x="250.521484" xlink:href="#DejaVuSans-45"/>
      <use x="286.605469" xlink:href="#DejaVuSans-32"/>
      <use x="318.392578" xlink:href="#DejaVuSans-84"/>
      <use x="373.601562" xlink:href="#DejaVuSans-67"/>
      <use x="443.425781" xlink:href="#DejaVuSans-80"/>
      <use x="503.728516" xlink:href="#DejaVuSans-32"/>
      <use x="535.515625" xlink:href="#DejaVuSans-117"/>
      <use x="598.894531" xlink:href="#DejaVuSans-112"/>
      <use x="662.371094" xlink:href="#DejaVuSans-108"/>
      <use x="690.154297" xlink:href="#DejaVuSans-111"/>
      <use x="751.335938" xlink:href="#DejaVuSans-97"/>
      <use x="812.615234" xlink:href="#DejaVuSans-100"/>
      <use x="876.091797" xlink:href="#DejaVuSans-32"/>
      <use x="907.878906" xlink:href="#DejaVuSans-45"/>
      <use x="943.962891" xlink:href="#DejaVuSans-32"/>
      <use x="975.75" xlink:href="#DejaVuSans-66"/>
      <use x="1044.353516" xlink:href="#DejaVuSans-66"/>
      <use x="1112.957031" xlink:href="#DejaVuSans-82"/>
      <use x="1182.439453" xlink:href="#DejaVuSans-110"/>
      <use x="1245.818359" xlink:href="#DejaVuSans-45"/>
      <use x="1281.902344" xlink:href="#DejaVuSans-102"/>
      <use x="1317.107422" xlink:href="#DejaVuSans-113"/>
     </g>
    </g>
    <g id="line2d_59">
     <path d="M 722.18036 68.652877 
L 738.84036 68.652877 
" style="fill:none;stroke:#d95f02;stroke-dasharray:3.7,1.6;stroke-dashoffset:0;"/>
    </g>
    <g id="line2d_60"/>
    <g id="text_15">
     <!-- RTT - - TCP upload - BBRn-codel -->
     <g transform="translate(745.50436 71.568377)scale(0.0833 -0.0833)">
      <use xlink:href="#DejaVuSans-82"/>
      <use x="62.232422" xlink:href="#DejaVuSans-84"/>
      <use x="121.566406" xlink:href="#DejaVuSans-84"/>
      <use x="182.650391" xlink:href="#DejaVuSans-32"/>
      <use x="214.4375" xlink:href="#DejaVuSans-45"/>
      <use x="250.521484" xlink:href="#DejaVuSans-45"/>
      <use x="286.605469" xlink:href="#DejaVuSans-32"/>
      <use x="318.392578" xlink:href="#DejaVuSans-84"/>
      <use x="373.601562" xlink:href="#DejaVuSans-67"/>
      <use x="443.425781" xlink:href="#DejaVuSans-80"/>
      <use x="503.728516" xlink:href="#DejaVuSans-32"/>
      <use x="535.515625" xlink:href="#DejaVuSans-117"/>
      <use x="598.894531" xlink:href="#DejaVuSans-112"/>
      <use x="662.371094" xlink:href="#DejaVuSans-108"/>
      <use x="690.154297" xlink:href="#DejaVuSans-111"/>
      <use x="751.335938" xlink:href="#DejaVuSans-97"/>
      <use x="812.615234" xlink:href="#DejaVuSans-100"/>
      <use x="876.091797" xlink:href="#DejaVuSans-32"/>
      <use x="907.878906" xlink:href="#DejaVuSans-45"/>
      <use x="943.962891" xlink:href="#DejaVuSans-32"/>
      <use x="975.75" xlink:href="#DejaVuSans-66"/>
      <use x="1044.353516" xlink:href="#DejaVuSans-66"/>
      <use x="1112.957031" xlink:href="#DejaVuSans-82"/>
      <use x="1182.439453" xlink:href="#DejaVuSans-110"/>
      <use x="1245.818359" xlink:href="#DejaVuSans-45"/>
      <use x="1281.902344" xlink:href="#DejaVuSans-99"/>
      <use x="1336.882812" xlink:href="#DejaVuSans-111"/>
      <use x="1398.064453" xlink:href="#DejaVuSans-100"/>
      <use x="1461.541016" xlink:href="#DejaVuSans-101"/>
      <use x="1523.064453" xlink:href="#DejaVuSans-108"/>
     </g>
    </g>
    <g id="line2d_61">
     <path d="M 722.18036 80.879755 
L 738.84036 80.879755 
" style="fill:none;stroke:#7570b3;stroke-dasharray:2,4;stroke-dashoffset:0;"/>
    </g>
    <g id="line2d_62"/>
    <g id="text_16">
     <!-- RTT - - TCP upload - BBRn-pie -->
     <g transform="translate(745.50436 83.795255)scale(0.0833 -0.0833)">
      <use xlink:href="#DejaVuSans-82"/>
      <use x="62.232422" xlink:href="#DejaVuSans-84"/>
      <use x="121.566406" xlink:href="#DejaVuSans-84"/>
      <use x="182.650391" xlink:href="#DejaVuSans-32"/>
      <use x="214.4375" xlink:href="#DejaVuSans-45"/>
      <use x="250.521484" xlink:href="#DejaVuSans-45"/>
      <use x="286.605469" xlink:href="#DejaVuSans-32"/>
      <use x="318.392578" xlink:href="#DejaVuSans-84"/>
      <use x="373.601562" xlink:href="#DejaVuSans-67"/>
      <use x="443.425781" xlink:href="#DejaVuSans-80"/>
      <use x="503.728516" xlink:href="#DejaVuSans-32"/>
      <use x="535.515625" xlink:href="#DejaVuSans-117"/>
      <use x="598.894531" xlink:href="#DejaVuSans-112"/>
      <use x="662.371094" xlink:href="#DejaVuSans-108"/>
      <use x="690.154297" xlink:href="#DejaVuSans-111"/>
      <use x="751.335938" xlink:href="#DejaVuSans-97"/>
      <use x="812.615234" xlink:href="#DejaVuSans-100"/>
      <use x="876.091797" xlink:href="#DejaVuSans-32"/>
      <use x="907.878906" xlink:href="#DejaVuSans-45"/>
      <use x="943.962891" xlink:href="#DejaVuSans-32"/>
      <use x="975.75" xlink:href="#DejaVuSans-66"/>
      <use x="1044.353516" xlink:href="#DejaVuSans-66"/>
      <use x="1112.957031" xlink:href="#DejaVuSans-82"/>
      <use x="1182.439453" xlink:href="#DejaVuSans-110"/>
      <use x="1245.818359" xlink:href="#DejaVuSans-45"/>
      <use x="1281.902344" xlink:href="#DejaVuSans-112"/>
      <use x="1345.378906" xlink:href="#DejaVuSans-105"/>
      <use x="1373.162109" xlink:href="#DejaVuSans-101"/>
     </g>
    </g>
    <g id="line2d_63">
     <path d="M 722.18036 93.106633 
L 738.84036 93.106633 
" style="fill:none;stroke:#e7298a;stroke-dasharray:8,4,2,4;stroke-dashoffset:0;"/>
    </g>
    <g id="line2d_64"/>
    <g id="text_17">
     <!-- RTT - - TCP upload - BBRn-cake -->
     <g transform="translate(745.50436 96.022133)scale(0.0833 -0.0833)">
      <defs>
       <path d="M 9.078125 75.984375 
L 18.109375 75.984375 
L 18.109375 31.109375 
L 44.921875 54.6875 
L 56.390625 54.6875 
L 27.390625 29.109375 
L 57.625 0 
L 45.90625 0 
L 18.109375 26.703125 
L 18.109375 0 
L 9.078125 0 
z
" id="DejaVuSans-107"/>
      </defs>
      <use xlink:href="#DejaVuSans-82"/>
      <use x="62.232422" xlink:href="#DejaVuSans-84"/>
      <use x="121.566406" xlink:href="#DejaVuSans-84"/>
      <use x="182.650391" xlink:href="#DejaVuSans-32"/>
      <use x="214.4375" xlink:href="#DejaVuSans-45"/>
      <use x="250.521484" xlink:href="#DejaVuSans-45"/>
      <use x="286.605469" xlink:href="#DejaVuSans-32"/>
      <use x="318.392578" xlink:href="#DejaVuSans-84"/>
      <use x="373.601562" xlink:href="#DejaVuSans-67"/>
      <use x="443.425781" xlink:href="#DejaVuSans-80"/>
      <use x="503.728516" xlink:href="#DejaVuSans-32"/>
      <use x="535.515625" xlink:href="#DejaVuSans-117"/>
      <use x="598.894531" xlink:href="#DejaVuSans-112"/>
      <use x="662.371094" xlink:href="#DejaVuSans-108"/>
      <use x="690.154297" xlink:href="#DejaVuSans-111"/>
      <use x="751.335938" xlink:href="#DejaVuSans-97"/>
      <use x="812.615234" xlink:href="#DejaVuSans-100"/>
      <use x="876.091797" xlink:href="#DejaVuSans-32"/>
      <use x="907.878906" xlink:href="#DejaVuSans-45"/>
      <use x="943.962891" xlink:href="#DejaVuSans-32"/>
      <use x="975.75" xlink:href="#DejaVuSans-66"/>
      <use x="1044.353516" xlink:href="#DejaVuSans-66"/>
      <use x="1112.957031" xlink:href="#DejaVuSans-82"/>
      <use x="1182.439453" xlink:href="#DejaVuSans-110"/>
      <use x="1245.818359" xlink:href="#DejaVuSans-45"/>
      <use x="1281.902344" xlink:href="#DejaVuSans-99"/>
      <use x="1336.882812" xlink:href="#DejaVuSans-97"/>
      <use x="1398.162109" xlink:href="#DejaVuSans-107"/>
      <use x="1452.447266" xlink:href="#DejaVuSans-101"/>
     </g>
    </g>
    <g id="line2d_65">
     <path d="M 722.18036 105.333511 
L 738.84036 105.333511 
" style="fill:none;stroke:#66a61e;stroke-linecap:round;"/>
    </g>
    <g id="line2d_66">
     <g>
      <use style="fill:#66a61e;stroke:#66a61e;" x="730.51036" xlink:href="#m0e4ea37257" y="105.333511"/>
     </g>
    </g>
    <g id="text_18">
     <!-- RTT - - TCP upload - BBRn-fq_codel -->
     <g transform="translate(745.50436 108.249011)scale(0.0833 -0.0833)">
      <defs>
       <path d="M 50.984375 -16.609375 
L 50.984375 -23.578125 
L -0.984375 -23.578125 
L -0.984375 -16.609375 
z
" id="DejaVuSans-95"/>
      </defs>
      <use xlink:href="#DejaVuSans-82"/>
      <use x="62.232422" xlink:href="#DejaVuSans-84"/>
      <use x="121.566406" xlink:href="#DejaVuSans-84"/>
      <use x="182.650391" xlink:href="#DejaVuSans-32"/>
      <use x="214.4375" xlink:href="#DejaVuSans-45"/>
      <use x="250.521484" xlink:href="#DejaVuSans-45"/>
      <use x="286.605469" xlink:href="#DejaVuSans-32"/>
      <use x="318.392578" xlink:href="#DejaVuSans-84"/>
      <use x="373.601562" xlink:href="#DejaVuSans-67"/>
      <use x="443.425781" xlink:href="#DejaVuSans-80"/>
      <use x="503.728516" xlink:href="#DejaVuSans-32"/>
      <use x="535.515625" xlink:href="#DejaVuSans-117"/>
      <use x="598.894531" xlink:href="#DejaVuSans-112"/>
      <use x="662.371094" xlink:href="#DejaVuSans-108"/>
      <use x="690.154297" xlink:href="#DejaVuSans-111"/>
      <use x="751.335938" xlink:href="#DejaVuSans-97"/>
      <use x="812.615234" xlink:href="#DejaVuSans-100"/>
      <use x="876.091797" xlink:href="#DejaVuSans-32"/>
      <use x="907.878906" xlink:href="#DejaVuSans-45"/>
      <use x="943.962891" xlink:href="#DejaVuSans-32"/>
      <use x="975.75" xlink:href="#DejaVuSans-66"/>
      <use x="1044.353516" xlink:href="#DejaVuSans-66"/>
      <use x="1112.957031" xlink:href="#DejaVuSans-82"/>
      <use x="1182.439453" xlink:href="#DejaVuSans-110"/>
      <use x="1245.818359" xlink:href="#DejaVuSans-45"/>
      <use x="1281.902344" xlink:href="#DejaVuSans-102"/>
      <use x="1317.107422" xlink:href="#DejaVuSans-113"/>
      <use x="1380.583984" xlink:href="#DejaVuSans-95"/>
      <use x="1430.583984" xlink:href="#DejaVuSans-99"/>
      <use x="1485.564453" xlink:href="#DejaVuSans-111"/>
      <use x="1546.746094" xlink:href="#DejaVuSans-100"/>
      <use x="1610.222656" xlink:href="#DejaVuSans-101"/>
      <use x="1671.746094" xlink:href="#DejaVuSans-108"/>
     </g>
    </g>
   </g>
  </g>
  <g id="text_19">
   <!-- Single TCP upload stream w/ping -->
   <g transform="translate(373.408281 14.087812)scale(0.14 -0.14)">
    <defs>
     <path d="M 53.515625 70.515625 
L 53.515625 60.890625 
Q 47.90625 63.578125 42.921875 64.890625 
Q 37.9375 66.21875 33.296875 66.21875 
Q 25.25 66.21875 20.875 63.09375 
Q 16.5 59.96875 16.5 54.203125 
Q 16.5 49.359375 19.40625 46.890625 
Q 22.3125 44.4375 30.421875 42.921875 
L 36.375 41.703125 
Q 47.40625 39.59375 52.65625 34.296875 
Q 57.90625 29 57.90625 20.125 
Q 57.90625 9.515625 50.796875 4.046875 
Q 43.703125 -1.421875 29.984375 -1.421875 
Q 24.8125 -1.421875 18.96875 -0.25 
Q 13.140625 0.921875 6.890625 3.21875 
L 6.890625 13.375 
Q 12.890625 10.015625 18.65625 8.296875 
Q 24.421875 6.59375 29.984375 6.59375 
Q 38.421875 6.59375 43.015625 9.90625 
Q 47.609375 13.234375 47.609375 19.390625 
Q 47.609375 24.75 44.3125 27.78125 
Q 41.015625 30.8125 33.5 32.328125 
L 27.484375 33.5 
Q 16.453125 35.6875 11.515625 40.375 
Q 6.59375 45.0625 6.59375 53.421875 
Q 6.59375 63.09375 13.40625 68.65625 
Q 20.21875 74.21875 32.171875 74.21875 
Q 37.3125 74.21875 42.625 73.28125 
Q 47.953125 72.359375 53.515625 70.515625 
z
" id="DejaVuSans-83"/>
     <path d="M 45.40625 27.984375 
Q 45.40625 37.75 41.375 43.109375 
Q 37.359375 48.484375 30.078125 48.484375 
Q 22.859375 48.484375 18.828125 43.109375 
Q 14.796875 37.75 14.796875 27.984375 
Q 14.796875 18.265625 18.828125 12.890625 
Q 22.859375 7.515625 30.078125 7.515625 
Q 37.359375 7.515625 41.375 12.890625 
Q 45.40625 18.265625 45.40625 27.984375 
z
M 54.390625 6.78125 
Q 54.390625 -7.171875 48.1875 -13.984375 
Q 42 -20.796875 29.203125 -20.796875 
Q 24.46875 -20.796875 20.265625 -20.09375 
Q 16.0625 -19.390625 12.109375 -17.921875 
L 12.109375 -9.1875 
Q 16.0625 -11.328125 19.921875 -12.34375 
Q 23.78125 -13.375 27.78125 -13.375 
Q 36.625 -13.375 41.015625 -8.765625 
Q 45.40625 -4.15625 45.40625 5.171875 
L 45.40625 9.625 
Q 42.625 4.78125 38.28125 2.390625 
Q 33.9375 0 27.875 0 
Q 17.828125 0 11.671875 7.65625 
Q 5.515625 15.328125 5.515625 27.984375 
Q 5.515625 40.671875 11.671875 48.328125 
Q 17.828125 56 27.875 56 
Q 33.9375 56 38.28125 53.609375 
Q 42.625 51.21875 45.40625 46.390625 
L 45.40625 54.6875 
L 54.390625 54.6875 
z
" id="DejaVuSans-103"/>
     <path d="M 4.203125 54.6875 
L 13.1875 54.6875 
L 24.421875 12.015625 
L 35.59375 54.6875 
L 46.1875 54.6875 
L 57.421875 12.015625 
L 68.609375 54.6875 
L 77.59375 54.6875 
L 63.28125 0 
L 52.6875 0 
L 40.921875 44.828125 
L 29.109375 0 
L 18.5 0 
z
" id="DejaVuSans-119"/>
     <path d="M 25.390625 72.90625 
L 33.6875 72.90625 
L 8.296875 -9.28125 
L 0 -9.28125 
z
" id="DejaVuSans-47"/>
    </defs>
    <use xlink:href="#DejaVuSans-83"/>
    <use x="63.476562" xlink:href="#DejaVuSans-105"/>
    <use x="91.259766" xlink:href="#DejaVuSans-110"/>
    <use x="154.638672" xlink:href="#DejaVuSans-103"/>
    <use x="218.115234" xlink:href="#DejaVuSans-108"/>
    <use x="245.898438" xlink:href="#DejaVuSans-101"/>
    <use x="307.421875" xlink:href="#DejaVuSans-32"/>
    <use x="339.208984" xlink:href="#DejaVuSans-84"/>
    <use x="394.417969" xlink:href="#DejaVuSans-67"/>
    <use x="464.242188" xlink:href="#DejaVuSans-80"/>
    <use x="524.544922" xlink:href="#DejaVuSans-32"/>
    <use x="556.332031" xlink:href="#DejaVuSans-117"/>
    <use x="619.710938" xlink:href="#DejaVuSans-112"/>
    <use x="683.1875" xlink:href="#DejaVuSans-108"/>
    <use x="710.970703" xlink:href="#DejaVuSans-111"/>
    <use x="772.152344" xlink:href="#DejaVuSans-97"/>
    <use x="833.431641" xlink:href="#DejaVuSans-100"/>
    <use x="896.908203" xlink:href="#DejaVuSans-32"/>
    <use x="928.695312" xlink:href="#DejaVuSans-115"/>
    <use x="980.794922" xlink:href="#DejaVuSans-116"/>
    <use x="1020.003906" xlink:href="#DejaVuSans-114"/>
    <use x="1058.867188" xlink:href="#DejaVuSans-101"/>
    <use x="1120.390625" xlink:href="#DejaVuSans-97"/>
    <use x="1181.669922" xlink:href="#DejaVuSans-109"/>
    <use x="1279.082031" xlink:href="#DejaVuSans-32"/>
    <use x="1310.869141" xlink:href="#DejaVuSans-119"/>
    <use x="1392.65625" xlink:href="#DejaVuSans-47"/>
    <use x="1426.347656" xlink:href="#DejaVuSans-112"/>
    <use x="1489.824219" xlink:href="#DejaVuSans-105"/>
    <use x="1517.607422" xlink:href="#DejaVuSans-110"/>
    <use x="1580.986328" xlink:href="#DejaVuSans-103"/>
   </g>
   <!-- TCP RTT statistics -->
   <g transform="translate(427.1125 29.76475)scale(0.14 -0.14)">
    <use xlink:href="#DejaVuSans-84"/>
    <use x="55.208984" xlink:href="#DejaVuSans-67"/>
    <use x="125.033203" xlink:href="#DejaVuSans-80"/>
    <use x="185.335938" xlink:href="#DejaVuSans-32"/>
    <use x="217.123047" xlink:href="#DejaVuSans-82"/>
    <use x="279.355469" xlink:href="#DejaVuSans-84"/>
    <use x="338.689453" xlink:href="#DejaVuSans-84"/>
    <use x="399.773438" xlink:href="#DejaVuSans-32"/>
    <use x="431.560547" xlink:href="#DejaVuSans-115"/>
    <use x="483.660156" xlink:href="#DejaVuSans-116"/>
    <use x="522.869141" xlink:href="#DejaVuSans-97"/>
    <use x="584.148438" xlink:href="#DejaVuSans-116"/>
    <use x="623.357422" xlink:href="#DejaVuSans-105"/>
    <use x="651.140625" xlink:href="#DejaVuSans-115"/>
    <use x="703.240234" xlink:href="#DejaVuSans-116"/>
    <use x="742.449219" xlink:href="#DejaVuSans-105"/>
    <use x="770.232422" xlink:href="#DejaVuSans-99"/>
    <use x="825.212891" xlink:href="#DejaVuSans-115"/>
   </g>
  </g>
 </g>
 <defs>
  <clipPath id="pc6a4caed5f">
   <rect height="318.78" width="585.018" x="122.13" y="49.68"/>
  </clipPath>
 </defs>
</svg>
