<?xml version="1.0" encoding="utf-8" standalone="no"?>
<!DOCTYPE svg PUBLIC "-//W3C//DTD SVG 1.1//EN"
  "http://www.w3.org/Graphics/SVG/1.1/DTD/svg11.dtd">
<!-- Created with matplotlib (https://matplotlib.org/) -->
<svg height="618.48pt" version="1.1" viewBox="0 0 977.04 618.48" width="977.04pt" xmlns="http://www.w3.org/2000/svg" xmlns:xlink="http://www.w3.org/1999/xlink">
 <metadata>
  <rdf:RDF xmlns:cc="http://creativecommons.org/ns#" xmlns:dc="http://purl.org/dc/elements/1.1/" xmlns:rdf="http://www.w3.org/1999/02/22-rdf-syntax-ns#">
   <cc:Work>
    <dc:type rdf:resource="http://purl.org/dc/dcmitype/StillImage"/>
    <dc:date>2023-09-15T08:57:03.163004</dc:date>
    <dc:format>image/svg+xml</dc:format>
    <dc:creator>
     <cc:Agent>
      <dc:title>Matplotlib v3.3.4, https://matplotlib.org/</dc:title>
     </cc:Agent>
    </dc:creator>
   </cc:Work>
  </rdf:RDF>
 </metadata>
 <defs>
  <style type="text/css">*{stroke-linecap:butt;stroke-linejoin:round;}</style>
 </defs>
 <g id="figure_1">
  <g id="patch_1">
   <path d="M 0 618.48 
L 977.04 618.48 
L 977.04 0 
L 0 0 
z
" style="fill:#ffffff;"/>
  </g>
  <g id="axes_1">
   <g id="patch_2">
    <path d="M 122.13 550.4472 
L 640.098 550.4472 
L 640.098 74.2176 
L 122.13 74.2176 
z
" style="fill:#e6e6e6;"/>
   </g>
   <g id="matplotlib.axis_1">
    <g id="xtick_1">
     <g id="line2d_1">
      <path clip-path="url(#p4a25d8b538)" d="M 186.379316 550.4472 
L 186.379316 74.2176 
" style="fill:none;stroke:#ffffff;stroke-linecap:round;"/>
     </g>
     <g id="line2d_2"/>
     <g id="text_1">
      <!-- 50 -->
      <g transform="translate(180.016816 561.545637)scale(0.1 -0.1)">
       <defs>
        <path d="M 10.796875 72.90625 
L 49.515625 72.90625 
L 49.515625 64.59375 
L 19.828125 64.59375 
L 19.828125 46.734375 
Q 21.96875 47.46875 24.109375 47.828125 
Q 26.265625 48.1875 28.421875 48.1875 
Q 40.625 48.1875 47.75 41.5 
Q 54.890625 34.8125 54.890625 23.390625 
Q 54.890625 11.625 47.5625 5.09375 
Q 40.234375 -1.421875 26.90625 -1.421875 
Q 22.3125 -1.421875 17.546875 -0.640625 
Q 12.796875 0.140625 7.71875 1.703125 
L 7.71875 11.625 
Q 12.109375 9.234375 16.796875 8.0625 
Q 21.484375 6.890625 26.703125 6.890625 
Q 35.15625 6.890625 40.078125 11.328125 
Q 45.015625 15.765625 45.015625 23.390625 
Q 45.015625 31 40.078125 35.4375 
Q 35.15625 39.890625 26.703125 39.890625 
Q 22.75 39.890625 18.8125 39.015625 
Q 14.890625 38.140625 10.796875 36.28125 
z
" id="DejaVuSans-53"/>
        <path d="M 31.78125 66.40625 
Q 24.171875 66.40625 20.328125 58.90625 
Q 16.5 51.421875 16.5 36.375 
Q 16.5 21.390625 20.328125 13.890625 
Q 24.171875 6.390625 31.78125 6.390625 
Q 39.453125 6.390625 43.28125 13.890625 
Q 47.125 21.390625 47.125 36.375 
Q 47.125 51.421875 43.28125 58.90625 
Q 39.453125 66.40625 31.78125 66.40625 
z
M 31.78125 74.21875 
Q 44.046875 74.21875 50.515625 64.515625 
Q 56.984375 54.828125 56.984375 36.375 
Q 56.984375 17.96875 50.515625 8.265625 
Q 44.046875 -1.421875 31.78125 -1.421875 
Q 19.53125 -1.421875 13.0625 8.265625 
Q 6.59375 17.96875 6.59375 36.375 
Q 6.59375 54.828125 13.0625 64.515625 
Q 19.53125 74.21875 31.78125 74.21875 
z
" id="DejaVuSans-48"/>
       </defs>
       <use xlink:href="#DejaVuSans-53"/>
       <use x="63.623047" xlink:href="#DejaVuSans-48"/>
      </g>
     </g>
    </g>
    <g id="xtick_2">
     <g id="line2d_3">
      <path clip-path="url(#p4a25d8b538)" d="M 255.124571 550.4472 
L 255.124571 74.2176 
" style="fill:none;stroke:#ffffff;stroke-linecap:round;"/>
     </g>
     <g id="line2d_4"/>
     <g id="text_2">
      <!-- 100 -->
      <g transform="translate(245.580821 561.545637)scale(0.1 -0.1)">
       <defs>
        <path d="M 12.40625 8.296875 
L 28.515625 8.296875 
L 28.515625 63.921875 
L 10.984375 60.40625 
L 10.984375 69.390625 
L 28.421875 72.90625 
L 38.28125 72.90625 
L 38.28125 8.296875 
L 54.390625 8.296875 
L 54.390625 0 
L 12.40625 0 
z
" id="DejaVuSans-49"/>
       </defs>
       <use xlink:href="#DejaVuSans-49"/>
       <use x="63.623047" xlink:href="#DejaVuSans-48"/>
       <use x="127.246094" xlink:href="#DejaVuSans-48"/>
      </g>
     </g>
    </g>
    <g id="xtick_3">
     <g id="line2d_5">
      <path clip-path="url(#p4a25d8b538)" d="M 323.869826 550.4472 
L 323.869826 74.2176 
" style="fill:none;stroke:#ffffff;stroke-linecap:round;"/>
     </g>
     <g id="line2d_6"/>
     <g id="text_3">
      <!-- 150 -->
      <g transform="translate(314.326076 561.545637)scale(0.1 -0.1)">
       <use xlink:href="#DejaVuSans-49"/>
       <use x="63.623047" xlink:href="#DejaVuSans-53"/>
       <use x="127.246094" xlink:href="#DejaVuSans-48"/>
      </g>
     </g>
    </g>
    <g id="xtick_4">
     <g id="line2d_7">
      <path clip-path="url(#p4a25d8b538)" d="M 392.615081 550.4472 
L 392.615081 74.2176 
" style="fill:none;stroke:#ffffff;stroke-linecap:round;"/>
     </g>
     <g id="line2d_8"/>
     <g id="text_4">
      <!-- 200 -->
      <g transform="translate(383.071331 561.545637)scale(0.1 -0.1)">
       <defs>
        <path d="M 19.1875 8.296875 
L 53.609375 8.296875 
L 53.609375 0 
L 7.328125 0 
L 7.328125 8.296875 
Q 12.9375 14.109375 22.625 23.890625 
Q 32.328125 33.6875 34.8125 36.53125 
Q 39.546875 41.84375 41.421875 45.53125 
Q 43.3125 49.21875 43.3125 52.78125 
Q 43.3125 58.59375 39.234375 62.25 
Q 35.15625 65.921875 28.609375 65.921875 
Q 23.96875 65.921875 18.8125 64.3125 
Q 13.671875 62.703125 7.8125 59.421875 
L 7.8125 69.390625 
Q 13.765625 71.78125 18.9375 73 
Q 24.125 74.21875 28.421875 74.21875 
Q 39.75 74.21875 46.484375 68.546875 
Q 53.21875 62.890625 53.21875 53.421875 
Q 53.21875 48.921875 51.53125 44.890625 
Q 49.859375 40.875 45.40625 35.40625 
Q 44.1875 33.984375 37.640625 27.21875 
Q 31.109375 20.453125 19.1875 8.296875 
z
" id="DejaVuSans-50"/>
       </defs>
       <use xlink:href="#DejaVuSans-50"/>
       <use x="63.623047" xlink:href="#DejaVuSans-48"/>
       <use x="127.246094" xlink:href="#DejaVuSans-48"/>
      </g>
     </g>
    </g>
    <g id="xtick_5">
     <g id="line2d_9">
      <path clip-path="url(#p4a25d8b538)" d="M 461.360336 550.4472 
L 461.360336 74.2176 
" style="fill:none;stroke:#ffffff;stroke-linecap:round;"/>
     </g>
     <g id="line2d_10"/>
     <g id="text_5">
      <!-- 250 -->
      <g transform="translate(451.816586 561.545637)scale(0.1 -0.1)">
       <use xlink:href="#DejaVuSans-50"/>
       <use x="63.623047" xlink:href="#DejaVuSans-53"/>
       <use x="127.246094" xlink:href="#DejaVuSans-48"/>
      </g>
     </g>
    </g>
    <g id="xtick_6">
     <g id="line2d_11">
      <path clip-path="url(#p4a25d8b538)" d="M 530.105592 550.4472 
L 530.105592 74.2176 
" style="fill:none;stroke:#ffffff;stroke-linecap:round;"/>
     </g>
     <g id="line2d_12"/>
     <g id="text_6">
      <!-- 300 -->
      <g transform="translate(520.561842 561.545637)scale(0.1 -0.1)">
       <defs>
        <path d="M 40.578125 39.3125 
Q 47.65625 37.796875 51.625 33 
Q 55.609375 28.21875 55.609375 21.1875 
Q 55.609375 10.40625 48.1875 4.484375 
Q 40.765625 -1.421875 27.09375 -1.421875 
Q 22.515625 -1.421875 17.65625 -0.515625 
Q 12.796875 0.390625 7.625 2.203125 
L 7.625 11.71875 
Q 11.71875 9.328125 16.59375 8.109375 
Q 21.484375 6.890625 26.8125 6.890625 
Q 36.078125 6.890625 40.9375 10.546875 
Q 45.796875 14.203125 45.796875 21.1875 
Q 45.796875 27.640625 41.28125 31.265625 
Q 36.765625 34.90625 28.71875 34.90625 
L 20.21875 34.90625 
L 20.21875 43.015625 
L 29.109375 43.015625 
Q 36.375 43.015625 40.234375 45.921875 
Q 44.09375 48.828125 44.09375 54.296875 
Q 44.09375 59.90625 40.109375 62.90625 
Q 36.140625 65.921875 28.71875 65.921875 
Q 24.65625 65.921875 20.015625 65.03125 
Q 15.375 64.15625 9.8125 62.3125 
L 9.8125 71.09375 
Q 15.4375 72.65625 20.34375 73.4375 
Q 25.25 74.21875 29.59375 74.21875 
Q 40.828125 74.21875 47.359375 69.109375 
Q 53.90625 64.015625 53.90625 55.328125 
Q 53.90625 49.265625 50.4375 45.09375 
Q 46.96875 40.921875 40.578125 39.3125 
z
" id="DejaVuSans-51"/>
       </defs>
       <use xlink:href="#DejaVuSans-51"/>
       <use x="63.623047" xlink:href="#DejaVuSans-48"/>
       <use x="127.246094" xlink:href="#DejaVuSans-48"/>
      </g>
     </g>
    </g>
    <g id="xtick_7">
     <g id="line2d_13">
      <path clip-path="url(#p4a25d8b538)" d="M 598.850847 550.4472 
L 598.850847 74.2176 
" style="fill:none;stroke:#ffffff;stroke-linecap:round;"/>
     </g>
     <g id="line2d_14"/>
     <g id="text_7">
      <!-- 350 -->
      <g transform="translate(589.307097 561.545637)scale(0.1 -0.1)">
       <use xlink:href="#DejaVuSans-51"/>
       <use x="63.623047" xlink:href="#DejaVuSans-53"/>
       <use x="127.246094" xlink:href="#DejaVuSans-48"/>
      </g>
     </g>
    </g>
    <g id="xtick_8">
     <g id="line2d_15"/>
    </g>
    <g id="xtick_9">
     <g id="line2d_16"/>
    </g>
    <g id="xtick_10">
     <g id="line2d_17"/>
    </g>
    <g id="xtick_11">
     <g id="line2d_18"/>
    </g>
    <g id="xtick_12">
     <g id="line2d_19"/>
    </g>
    <g id="xtick_13">
     <g id="line2d_20"/>
    </g>
    <g id="xtick_14">
     <g id="line2d_21"/>
    </g>
    <g id="xtick_15">
     <g id="line2d_22"/>
    </g>
    <g id="xtick_16">
     <g id="line2d_23"/>
    </g>
    <g id="xtick_17">
     <g id="line2d_24"/>
    </g>
    <g id="xtick_18">
     <g id="line2d_25"/>
    </g>
    <g id="xtick_19">
     <g id="line2d_26"/>
    </g>
    <g id="xtick_20">
     <g id="line2d_27"/>
    </g>
    <g id="xtick_21">
     <g id="line2d_28"/>
    </g>
    <g id="xtick_22">
     <g id="line2d_29"/>
    </g>
    <g id="xtick_23">
     <g id="line2d_30"/>
    </g>
    <g id="xtick_24">
     <g id="line2d_31"/>
    </g>
    <g id="xtick_25">
     <g id="line2d_32"/>
    </g>
    <g id="xtick_26">
     <g id="line2d_33"/>
    </g>
    <g id="xtick_27">
     <g id="line2d_34"/>
    </g>
    <g id="xtick_28">
     <g id="line2d_35"/>
    </g>
    <g id="xtick_29">
     <g id="line2d_36"/>
    </g>
    <g id="xtick_30">
     <g id="line2d_37"/>
    </g>
    <g id="xtick_31">
     <g id="line2d_38"/>
    </g>
    <g id="xtick_32">
     <g id="line2d_39"/>
    </g>
    <g id="xtick_33">
     <g id="line2d_40"/>
    </g>
    <g id="xtick_34">
     <g id="line2d_41"/>
    </g>
    <g id="xtick_35">
     <g id="line2d_42"/>
    </g>
    <g id="xtick_36">
     <g id="line2d_43"/>
    </g>
    <g id="xtick_37">
     <g id="line2d_44"/>
    </g>
    <g id="xtick_38">
     <g id="line2d_45"/>
    </g>
    <g id="text_8">
     <!-- Latency (ms) -->
     <g transform="translate(348.384313 575.223763)scale(0.1 -0.1)">
      <defs>
       <path d="M 9.8125 72.90625 
L 19.671875 72.90625 
L 19.671875 8.296875 
L 55.171875 8.296875 
L 55.171875 0 
L 9.8125 0 
z
" id="DejaVuSans-76"/>
       <path d="M 34.28125 27.484375 
Q 23.390625 27.484375 19.1875 25 
Q 14.984375 22.515625 14.984375 16.5 
Q 14.984375 11.71875 18.140625 8.90625 
Q 21.296875 6.109375 26.703125 6.109375 
Q 34.1875 6.109375 38.703125 11.40625 
Q 43.21875 16.703125 43.21875 25.484375 
L 43.21875 27.484375 
z
M 52.203125 31.203125 
L 52.203125 0 
L 43.21875 0 
L 43.21875 8.296875 
Q 40.140625 3.328125 35.546875 0.953125 
Q 30.953125 -1.421875 24.3125 -1.421875 
Q 15.921875 -1.421875 10.953125 3.296875 
Q 6 8.015625 6 15.921875 
Q 6 25.140625 12.171875 29.828125 
Q 18.359375 34.515625 30.609375 34.515625 
L 43.21875 34.515625 
L 43.21875 35.40625 
Q 43.21875 41.609375 39.140625 45 
Q 35.0625 48.390625 27.6875 48.390625 
Q 23 48.390625 18.546875 47.265625 
Q 14.109375 46.140625 10.015625 43.890625 
L 10.015625 52.203125 
Q 14.9375 54.109375 19.578125 55.046875 
Q 24.21875 56 28.609375 56 
Q 40.484375 56 46.34375 49.84375 
Q 52.203125 43.703125 52.203125 31.203125 
z
" id="DejaVuSans-97"/>
       <path d="M 18.3125 70.21875 
L 18.3125 54.6875 
L 36.8125 54.6875 
L 36.8125 47.703125 
L 18.3125 47.703125 
L 18.3125 18.015625 
Q 18.3125 11.328125 20.140625 9.421875 
Q 21.96875 7.515625 27.59375 7.515625 
L 36.8125 7.515625 
L 36.8125 0 
L 27.59375 0 
Q 17.1875 0 13.234375 3.875 
Q 9.28125 7.765625 9.28125 18.015625 
L 9.28125 47.703125 
L 2.6875 47.703125 
L 2.6875 54.6875 
L 9.28125 54.6875 
L 9.28125 70.21875 
z
" id="DejaVuSans-116"/>
       <path d="M 56.203125 29.59375 
L 56.203125 25.203125 
L 14.890625 25.203125 
Q 15.484375 15.921875 20.484375 11.0625 
Q 25.484375 6.203125 34.421875 6.203125 
Q 39.59375 6.203125 44.453125 7.46875 
Q 49.3125 8.734375 54.109375 11.28125 
L 54.109375 2.78125 
Q 49.265625 0.734375 44.1875 -0.34375 
Q 39.109375 -1.421875 33.890625 -1.421875 
Q 20.796875 -1.421875 13.15625 6.1875 
Q 5.515625 13.8125 5.515625 26.8125 
Q 5.515625 40.234375 12.765625 48.109375 
Q 20.015625 56 32.328125 56 
Q 43.359375 56 49.78125 48.890625 
Q 56.203125 41.796875 56.203125 29.59375 
z
M 47.21875 32.234375 
Q 47.125 39.59375 43.09375 43.984375 
Q 39.0625 48.390625 32.421875 48.390625 
Q 24.90625 48.390625 20.390625 44.140625 
Q 15.875 39.890625 15.1875 32.171875 
z
" id="DejaVuSans-101"/>
       <path d="M 54.890625 33.015625 
L 54.890625 0 
L 45.90625 0 
L 45.90625 32.71875 
Q 45.90625 40.484375 42.875 44.328125 
Q 39.84375 48.1875 33.796875 48.1875 
Q 26.515625 48.1875 22.3125 43.546875 
Q 18.109375 38.921875 18.109375 30.90625 
L 18.109375 0 
L 9.078125 0 
L 9.078125 54.6875 
L 18.109375 54.6875 
L 18.109375 46.1875 
Q 21.34375 51.125 25.703125 53.5625 
Q 30.078125 56 35.796875 56 
Q 45.21875 56 50.046875 50.171875 
Q 54.890625 44.34375 54.890625 33.015625 
z
" id="DejaVuSans-110"/>
       <path d="M 48.78125 52.59375 
L 48.78125 44.1875 
Q 44.96875 46.296875 41.140625 47.34375 
Q 37.3125 48.390625 33.40625 48.390625 
Q 24.65625 48.390625 19.8125 42.84375 
Q 14.984375 37.3125 14.984375 27.296875 
Q 14.984375 17.28125 19.8125 11.734375 
Q 24.65625 6.203125 33.40625 6.203125 
Q 37.3125 6.203125 41.140625 7.25 
Q 44.96875 8.296875 48.78125 10.40625 
L 48.78125 2.09375 
Q 45.015625 0.34375 40.984375 -0.53125 
Q 36.96875 -1.421875 32.421875 -1.421875 
Q 20.0625 -1.421875 12.78125 6.34375 
Q 5.515625 14.109375 5.515625 27.296875 
Q 5.515625 40.671875 12.859375 48.328125 
Q 20.21875 56 33.015625 56 
Q 37.15625 56 41.109375 55.140625 
Q 45.0625 54.296875 48.78125 52.59375 
z
" id="DejaVuSans-99"/>
       <path d="M 32.171875 -5.078125 
Q 28.375 -14.84375 24.75 -17.8125 
Q 21.140625 -20.796875 15.09375 -20.796875 
L 7.90625 -20.796875 
L 7.90625 -13.28125 
L 13.1875 -13.28125 
Q 16.890625 -13.28125 18.9375 -11.515625 
Q 21 -9.765625 23.484375 -3.21875 
L 25.09375 0.875 
L 2.984375 54.6875 
L 12.5 54.6875 
L 29.59375 11.921875 
L 46.6875 54.6875 
L 56.203125 54.6875 
z
" id="DejaVuSans-121"/>
       <path id="DejaVuSans-32"/>
       <path d="M 31 75.875 
Q 24.46875 64.65625 21.28125 53.65625 
Q 18.109375 42.671875 18.109375 31.390625 
Q 18.109375 20.125 21.3125 9.0625 
Q 24.515625 -2 31 -13.1875 
L 23.1875 -13.1875 
Q 15.875 -1.703125 12.234375 9.375 
Q 8.59375 20.453125 8.59375 31.390625 
Q 8.59375 42.28125 12.203125 53.3125 
Q 15.828125 64.359375 23.1875 75.875 
z
" id="DejaVuSans-40"/>
       <path d="M 52 44.1875 
Q 55.375 50.25 60.0625 53.125 
Q 64.75 56 71.09375 56 
Q 79.640625 56 84.28125 50.015625 
Q 88.921875 44.046875 88.921875 33.015625 
L 88.921875 0 
L 79.890625 0 
L 79.890625 32.71875 
Q 79.890625 40.578125 77.09375 44.375 
Q 74.3125 48.1875 68.609375 48.1875 
Q 61.625 48.1875 57.5625 43.546875 
Q 53.515625 38.921875 53.515625 30.90625 
L 53.515625 0 
L 44.484375 0 
L 44.484375 32.71875 
Q 44.484375 40.625 41.703125 44.40625 
Q 38.921875 48.1875 33.109375 48.1875 
Q 26.21875 48.1875 22.15625 43.53125 
Q 18.109375 38.875 18.109375 30.90625 
L 18.109375 0 
L 9.078125 0 
L 9.078125 54.6875 
L 18.109375 54.6875 
L 18.109375 46.1875 
Q 21.1875 51.21875 25.484375 53.609375 
Q 29.78125 56 35.6875 56 
Q 41.65625 56 45.828125 52.96875 
Q 50 49.953125 52 44.1875 
z
" id="DejaVuSans-109"/>
       <path d="M 44.28125 53.078125 
L 44.28125 44.578125 
Q 40.484375 46.53125 36.375 47.5 
Q 32.28125 48.484375 27.875 48.484375 
Q 21.1875 48.484375 17.84375 46.4375 
Q 14.5 44.390625 14.5 40.28125 
Q 14.5 37.15625 16.890625 35.375 
Q 19.28125 33.59375 26.515625 31.984375 
L 29.59375 31.296875 
Q 39.15625 29.25 43.1875 25.515625 
Q 47.21875 21.78125 47.21875 15.09375 
Q 47.21875 7.46875 41.1875 3.015625 
Q 35.15625 -1.421875 24.609375 -1.421875 
Q 20.21875 -1.421875 15.453125 -0.5625 
Q 10.6875 0.296875 5.421875 2 
L 5.421875 11.28125 
Q 10.40625 8.6875 15.234375 7.390625 
Q 20.0625 6.109375 24.8125 6.109375 
Q 31.15625 6.109375 34.5625 8.28125 
Q 37.984375 10.453125 37.984375 14.40625 
Q 37.984375 18.0625 35.515625 20.015625 
Q 33.0625 21.96875 24.703125 23.78125 
L 21.578125 24.515625 
Q 13.234375 26.265625 9.515625 29.90625 
Q 5.8125 33.546875 5.8125 39.890625 
Q 5.8125 47.609375 11.28125 51.796875 
Q 16.75 56 26.8125 56 
Q 31.78125 56 36.171875 55.265625 
Q 40.578125 54.546875 44.28125 53.078125 
z
" id="DejaVuSans-115"/>
       <path d="M 8.015625 75.875 
L 15.828125 75.875 
Q 23.140625 64.359375 26.78125 53.3125 
Q 30.421875 42.28125 30.421875 31.390625 
Q 30.421875 20.453125 26.78125 9.375 
Q 23.140625 -1.703125 15.828125 -13.1875 
L 8.015625 -13.1875 
Q 14.5 -2 17.703125 9.0625 
Q 20.90625 20.125 20.90625 31.390625 
Q 20.90625 42.671875 17.703125 53.65625 
Q 14.5 64.65625 8.015625 75.875 
z
" id="DejaVuSans-41"/>
      </defs>
      <use xlink:href="#DejaVuSans-76"/>
      <use x="55.712891" xlink:href="#DejaVuSans-97"/>
      <use x="116.992188" xlink:href="#DejaVuSans-116"/>
      <use x="156.201172" xlink:href="#DejaVuSans-101"/>
      <use x="217.724609" xlink:href="#DejaVuSans-110"/>
      <use x="281.103516" xlink:href="#DejaVuSans-99"/>
      <use x="336.083984" xlink:href="#DejaVuSans-121"/>
      <use x="395.263672" xlink:href="#DejaVuSans-32"/>
      <use x="427.050781" xlink:href="#DejaVuSans-40"/>
      <use x="466.064453" xlink:href="#DejaVuSans-109"/>
      <use x="563.476562" xlink:href="#DejaVuSans-115"/>
      <use x="615.576172" xlink:href="#DejaVuSans-41"/>
     </g>
    </g>
   </g>
   <g id="matplotlib.axis_2">
    <g id="ytick_1">
     <g id="line2d_46">
      <path clip-path="url(#p4a25d8b538)" d="M 122.13 550.4472 
L 640.098 550.4472 
" style="fill:none;stroke:#ffffff;stroke-linecap:round;"/>
     </g>
     <g id="line2d_47"/>
     <g id="text_9">
      <!-- 0.0 -->
      <g transform="translate(102.726875 554.246419)scale(0.1 -0.1)">
       <defs>
        <path d="M 10.6875 12.40625 
L 21 12.40625 
L 21 0 
L 10.6875 0 
z
" id="DejaVuSans-46"/>
       </defs>
       <use xlink:href="#DejaVuSans-48"/>
       <use x="63.623047" xlink:href="#DejaVuSans-46"/>
       <use x="95.410156" xlink:href="#DejaVuSans-48"/>
      </g>
     </g>
    </g>
    <g id="ytick_2">
     <g id="line2d_48">
      <path clip-path="url(#p4a25d8b538)" d="M 122.13 455.20128 
L 640.098 455.20128 
" style="fill:none;stroke:#ffffff;stroke-linecap:round;"/>
     </g>
     <g id="line2d_49"/>
     <g id="text_10">
      <!-- 0.2 -->
      <g transform="translate(102.726875 459.000499)scale(0.1 -0.1)">
       <use xlink:href="#DejaVuSans-48"/>
       <use x="63.623047" xlink:href="#DejaVuSans-46"/>
       <use x="95.410156" xlink:href="#DejaVuSans-50"/>
      </g>
     </g>
    </g>
    <g id="ytick_3">
     <g id="line2d_50">
      <path clip-path="url(#p4a25d8b538)" d="M 122.13 359.95536 
L 640.098 359.95536 
" style="fill:none;stroke:#ffffff;stroke-linecap:round;"/>
     </g>
     <g id="line2d_51"/>
     <g id="text_11">
      <!-- 0.4 -->
      <g transform="translate(102.726875 363.754579)scale(0.1 -0.1)">
       <defs>
        <path d="M 37.796875 64.3125 
L 12.890625 25.390625 
L 37.796875 25.390625 
z
M 35.203125 72.90625 
L 47.609375 72.90625 
L 47.609375 25.390625 
L 58.015625 25.390625 
L 58.015625 17.1875 
L 47.609375 17.1875 
L 47.609375 0 
L 37.796875 0 
L 37.796875 17.1875 
L 4.890625 17.1875 
L 4.890625 26.703125 
z
" id="DejaVuSans-52"/>
       </defs>
       <use xlink:href="#DejaVuSans-48"/>
       <use x="63.623047" xlink:href="#DejaVuSans-46"/>
       <use x="95.410156" xlink:href="#DejaVuSans-52"/>
      </g>
     </g>
    </g>
    <g id="ytick_4">
     <g id="line2d_52">
      <path clip-path="url(#p4a25d8b538)" d="M 122.13 264.70944 
L 640.098 264.70944 
" style="fill:none;stroke:#ffffff;stroke-linecap:round;"/>
     </g>
     <g id="line2d_53"/>
     <g id="text_12">
      <!-- 0.6 -->
      <g transform="translate(102.726875 268.508659)scale(0.1 -0.1)">
       <defs>
        <path d="M 33.015625 40.375 
Q 26.375 40.375 22.484375 35.828125 
Q 18.609375 31.296875 18.609375 23.390625 
Q 18.609375 15.53125 22.484375 10.953125 
Q 26.375 6.390625 33.015625 6.390625 
Q 39.65625 6.390625 43.53125 10.953125 
Q 47.40625 15.53125 47.40625 23.390625 
Q 47.40625 31.296875 43.53125 35.828125 
Q 39.65625 40.375 33.015625 40.375 
z
M 52.59375 71.296875 
L 52.59375 62.3125 
Q 48.875 64.0625 45.09375 64.984375 
Q 41.3125 65.921875 37.59375 65.921875 
Q 27.828125 65.921875 22.671875 59.328125 
Q 17.53125 52.734375 16.796875 39.40625 
Q 19.671875 43.65625 24.015625 45.921875 
Q 28.375 48.1875 33.59375 48.1875 
Q 44.578125 48.1875 50.953125 41.515625 
Q 57.328125 34.859375 57.328125 23.390625 
Q 57.328125 12.15625 50.6875 5.359375 
Q 44.046875 -1.421875 33.015625 -1.421875 
Q 20.359375 -1.421875 13.671875 8.265625 
Q 6.984375 17.96875 6.984375 36.375 
Q 6.984375 53.65625 15.1875 63.9375 
Q 23.390625 74.21875 37.203125 74.21875 
Q 40.921875 74.21875 44.703125 73.484375 
Q 48.484375 72.75 52.59375 71.296875 
z
" id="DejaVuSans-54"/>
       </defs>
       <use xlink:href="#DejaVuSans-48"/>
       <use x="63.623047" xlink:href="#DejaVuSans-46"/>
       <use x="95.410156" xlink:href="#DejaVuSans-54"/>
      </g>
     </g>
    </g>
    <g id="ytick_5">
     <g id="line2d_54">
      <path clip-path="url(#p4a25d8b538)" d="M 122.13 169.46352 
L 640.098 169.46352 
" style="fill:none;stroke:#ffffff;stroke-linecap:round;"/>
     </g>
     <g id="line2d_55"/>
     <g id="text_13">
      <!-- 0.8 -->
      <g transform="translate(102.726875 173.262739)scale(0.1 -0.1)">
       <defs>
        <path d="M 31.78125 34.625 
Q 24.75 34.625 20.71875 30.859375 
Q 16.703125 27.09375 16.703125 20.515625 
Q 16.703125 13.921875 20.71875 10.15625 
Q 24.75 6.390625 31.78125 6.390625 
Q 38.8125 6.390625 42.859375 10.171875 
Q 46.921875 13.96875 46.921875 20.515625 
Q 46.921875 27.09375 42.890625 30.859375 
Q 38.875 34.625 31.78125 34.625 
z
M 21.921875 38.8125 
Q 15.578125 40.375 12.03125 44.71875 
Q 8.5 49.078125 8.5 55.328125 
Q 8.5 64.0625 14.71875 69.140625 
Q 20.953125 74.21875 31.78125 74.21875 
Q 42.671875 74.21875 48.875 69.140625 
Q 55.078125 64.0625 55.078125 55.328125 
Q 55.078125 49.078125 51.53125 44.71875 
Q 48 40.375 41.703125 38.8125 
Q 48.828125 37.15625 52.796875 32.3125 
Q 56.78125 27.484375 56.78125 20.515625 
Q 56.78125 9.90625 50.3125 4.234375 
Q 43.84375 -1.421875 31.78125 -1.421875 
Q 19.734375 -1.421875 13.25 4.234375 
Q 6.78125 9.90625 6.78125 20.515625 
Q 6.78125 27.484375 10.78125 32.3125 
Q 14.796875 37.15625 21.921875 38.8125 
z
M 18.3125 54.390625 
Q 18.3125 48.734375 21.84375 45.5625 
Q 25.390625 42.390625 31.78125 42.390625 
Q 38.140625 42.390625 41.71875 45.5625 
Q 45.3125 48.734375 45.3125 54.390625 
Q 45.3125 60.0625 41.71875 63.234375 
Q 38.140625 66.40625 31.78125 66.40625 
Q 25.390625 66.40625 21.84375 63.234375 
Q 18.3125 60.0625 18.3125 54.390625 
z
" id="DejaVuSans-56"/>
       </defs>
       <use xlink:href="#DejaVuSans-48"/>
       <use x="63.623047" xlink:href="#DejaVuSans-46"/>
       <use x="95.410156" xlink:href="#DejaVuSans-56"/>
      </g>
     </g>
    </g>
    <g id="ytick_6">
     <g id="line2d_56">
      <path clip-path="url(#p4a25d8b538)" d="M 122.13 74.2176 
L 640.098 74.2176 
" style="fill:none;stroke:#ffffff;stroke-linecap:round;"/>
     </g>
     <g id="line2d_57"/>
     <g id="text_14">
      <!-- 1.0 -->
      <g transform="translate(102.726875 78.016819)scale(0.1 -0.1)">
       <use xlink:href="#DejaVuSans-49"/>
       <use x="63.623047" xlink:href="#DejaVuSans-46"/>
       <use x="95.410156" xlink:href="#DejaVuSans-48"/>
      </g>
     </g>
    </g>
    <g id="ytick_7">
     <g id="line2d_58"/>
    </g>
    <g id="ytick_8">
     <g id="line2d_59"/>
    </g>
    <g id="ytick_9">
     <g id="line2d_60"/>
    </g>
    <g id="ytick_10">
     <g id="line2d_61"/>
    </g>
    <g id="ytick_11">
     <g id="line2d_62"/>
    </g>
    <g id="ytick_12">
     <g id="line2d_63"/>
    </g>
    <g id="ytick_13">
     <g id="line2d_64"/>
    </g>
    <g id="ytick_14">
     <g id="line2d_65"/>
    </g>
    <g id="ytick_15">
     <g id="line2d_66"/>
    </g>
    <g id="ytick_16">
     <g id="line2d_67"/>
    </g>
    <g id="ytick_17">
     <g id="line2d_68"/>
    </g>
    <g id="ytick_18">
     <g id="line2d_69"/>
    </g>
    <g id="ytick_19">
     <g id="line2d_70"/>
    </g>
    <g id="ytick_20">
     <g id="line2d_71"/>
    </g>
    <g id="ytick_21">
     <g id="line2d_72"/>
    </g>
    <g id="text_15">
     <!-- Cumulative probability -->
     <g transform="translate(96.647187 369.134744)rotate(-90)scale(0.1 -0.1)">
      <defs>
       <path d="M 64.40625 67.28125 
L 64.40625 56.890625 
Q 59.421875 61.53125 53.78125 63.8125 
Q 48.140625 66.109375 41.796875 66.109375 
Q 29.296875 66.109375 22.65625 58.46875 
Q 16.015625 50.828125 16.015625 36.375 
Q 16.015625 21.96875 22.65625 14.328125 
Q 29.296875 6.6875 41.796875 6.6875 
Q 48.140625 6.6875 53.78125 8.984375 
Q 59.421875 11.28125 64.40625 15.921875 
L 64.40625 5.609375 
Q 59.234375 2.09375 53.4375 0.328125 
Q 47.65625 -1.421875 41.21875 -1.421875 
Q 24.65625 -1.421875 15.125 8.703125 
Q 5.609375 18.84375 5.609375 36.375 
Q 5.609375 53.953125 15.125 64.078125 
Q 24.65625 74.21875 41.21875 74.21875 
Q 47.75 74.21875 53.53125 72.484375 
Q 59.328125 70.75 64.40625 67.28125 
z
" id="DejaVuSans-67"/>
       <path d="M 8.5 21.578125 
L 8.5 54.6875 
L 17.484375 54.6875 
L 17.484375 21.921875 
Q 17.484375 14.15625 20.5 10.265625 
Q 23.53125 6.390625 29.59375 6.390625 
Q 36.859375 6.390625 41.078125 11.03125 
Q 45.3125 15.671875 45.3125 23.6875 
L 45.3125 54.6875 
L 54.296875 54.6875 
L 54.296875 0 
L 45.3125 0 
L 45.3125 8.40625 
Q 42.046875 3.421875 37.71875 1 
Q 33.40625 -1.421875 27.6875 -1.421875 
Q 18.265625 -1.421875 13.375 4.4375 
Q 8.5 10.296875 8.5 21.578125 
z
M 31.109375 56 
z
" id="DejaVuSans-117"/>
       <path d="M 9.421875 75.984375 
L 18.40625 75.984375 
L 18.40625 0 
L 9.421875 0 
z
" id="DejaVuSans-108"/>
       <path d="M 9.421875 54.6875 
L 18.40625 54.6875 
L 18.40625 0 
L 9.421875 0 
z
M 9.421875 75.984375 
L 18.40625 75.984375 
L 18.40625 64.59375 
L 9.421875 64.59375 
z
" id="DejaVuSans-105"/>
       <path d="M 2.984375 54.6875 
L 12.5 54.6875 
L 29.59375 8.796875 
L 46.6875 54.6875 
L 56.203125 54.6875 
L 35.6875 0 
L 23.484375 0 
z
" id="DejaVuSans-118"/>
       <path d="M 18.109375 8.203125 
L 18.109375 -20.796875 
L 9.078125 -20.796875 
L 9.078125 54.6875 
L 18.109375 54.6875 
L 18.109375 46.390625 
Q 20.953125 51.265625 25.265625 53.625 
Q 29.59375 56 35.59375 56 
Q 45.5625 56 51.78125 48.09375 
Q 58.015625 40.1875 58.015625 27.296875 
Q 58.015625 14.40625 51.78125 6.484375 
Q 45.5625 -1.421875 35.59375 -1.421875 
Q 29.59375 -1.421875 25.265625 0.953125 
Q 20.953125 3.328125 18.109375 8.203125 
z
M 48.6875 27.296875 
Q 48.6875 37.203125 44.609375 42.84375 
Q 40.53125 48.484375 33.40625 48.484375 
Q 26.265625 48.484375 22.1875 42.84375 
Q 18.109375 37.203125 18.109375 27.296875 
Q 18.109375 17.390625 22.1875 11.75 
Q 26.265625 6.109375 33.40625 6.109375 
Q 40.53125 6.109375 44.609375 11.75 
Q 48.6875 17.390625 48.6875 27.296875 
z
" id="DejaVuSans-112"/>
       <path d="M 41.109375 46.296875 
Q 39.59375 47.171875 37.8125 47.578125 
Q 36.03125 48 33.890625 48 
Q 26.265625 48 22.1875 43.046875 
Q 18.109375 38.09375 18.109375 28.8125 
L 18.109375 0 
L 9.078125 0 
L 9.078125 54.6875 
L 18.109375 54.6875 
L 18.109375 46.1875 
Q 20.953125 51.171875 25.484375 53.578125 
Q 30.03125 56 36.53125 56 
Q 37.453125 56 38.578125 55.875 
Q 39.703125 55.765625 41.0625 55.515625 
z
" id="DejaVuSans-114"/>
       <path d="M 30.609375 48.390625 
Q 23.390625 48.390625 19.1875 42.75 
Q 14.984375 37.109375 14.984375 27.296875 
Q 14.984375 17.484375 19.15625 11.84375 
Q 23.34375 6.203125 30.609375 6.203125 
Q 37.796875 6.203125 41.984375 11.859375 
Q 46.1875 17.53125 46.1875 27.296875 
Q 46.1875 37.015625 41.984375 42.703125 
Q 37.796875 48.390625 30.609375 48.390625 
z
M 30.609375 56 
Q 42.328125 56 49.015625 48.375 
Q 55.71875 40.765625 55.71875 27.296875 
Q 55.71875 13.875 49.015625 6.21875 
Q 42.328125 -1.421875 30.609375 -1.421875 
Q 18.84375 -1.421875 12.171875 6.21875 
Q 5.515625 13.875 5.515625 27.296875 
Q 5.515625 40.765625 12.171875 48.375 
Q 18.84375 56 30.609375 56 
z
" id="DejaVuSans-111"/>
       <path d="M 48.6875 27.296875 
Q 48.6875 37.203125 44.609375 42.84375 
Q 40.53125 48.484375 33.40625 48.484375 
Q 26.265625 48.484375 22.1875 42.84375 
Q 18.109375 37.203125 18.109375 27.296875 
Q 18.109375 17.390625 22.1875 11.75 
Q 26.265625 6.109375 33.40625 6.109375 
Q 40.53125 6.109375 44.609375 11.75 
Q 48.6875 17.390625 48.6875 27.296875 
z
M 18.109375 46.390625 
Q 20.953125 51.265625 25.265625 53.625 
Q 29.59375 56 35.59375 56 
Q 45.5625 56 51.78125 48.09375 
Q 58.015625 40.1875 58.015625 27.296875 
Q 58.015625 14.40625 51.78125 6.484375 
Q 45.5625 -1.421875 35.59375 -1.421875 
Q 29.59375 -1.421875 25.265625 0.953125 
Q 20.953125 3.328125 18.109375 8.203125 
L 18.109375 0 
L 9.078125 0 
L 9.078125 75.984375 
L 18.109375 75.984375 
z
" id="DejaVuSans-98"/>
      </defs>
      <use xlink:href="#DejaVuSans-67"/>
      <use x="69.824219" xlink:href="#DejaVuSans-117"/>
      <use x="133.203125" xlink:href="#DejaVuSans-109"/>
      <use x="230.615234" xlink:href="#DejaVuSans-117"/>
      <use x="293.994141" xlink:href="#DejaVuSans-108"/>
      <use x="321.777344" xlink:href="#DejaVuSans-97"/>
      <use x="383.056641" xlink:href="#DejaVuSans-116"/>
      <use x="422.265625" xlink:href="#DejaVuSans-105"/>
      <use x="450.048828" xlink:href="#DejaVuSans-118"/>
      <use x="509.228516" xlink:href="#DejaVuSans-101"/>
      <use x="570.751953" xlink:href="#DejaVuSans-32"/>
      <use x="602.539062" xlink:href="#DejaVuSans-112"/>
      <use x="666.015625" xlink:href="#DejaVuSans-114"/>
      <use x="704.878906" xlink:href="#DejaVuSans-111"/>
      <use x="766.060547" xlink:href="#DejaVuSans-98"/>
      <use x="829.537109" xlink:href="#DejaVuSans-97"/>
      <use x="890.816406" xlink:href="#DejaVuSans-98"/>
      <use x="954.292969" xlink:href="#DejaVuSans-105"/>
      <use x="982.076172" xlink:href="#DejaVuSans-108"/>
      <use x="1009.859375" xlink:href="#DejaVuSans-105"/>
      <use x="1037.642578" xlink:href="#DejaVuSans-116"/>
      <use x="1076.851562" xlink:href="#DejaVuSans-121"/>
     </g>
    </g>
   </g>
   <g id="line2d_73">
    <path clip-path="url(#p4a25d8b538)" d="M 137.295203 548.838316 
L 137.982656 547.229432 
L 139.22007 545.620549 
L 139.495051 542.402781 
L 140.319995 540.793897 
L 140.594976 539.185014 
L 140.732466 537.57613 
L 141.419919 535.967246 
L 143.207295 534.358362 
L 144.44471 532.749478 
L 144.719691 531.140595 
L 145.407143 529.531711 
L 145.957105 527.922827 
L 147.332011 526.313943 
L 147.881973 524.705059 
L 147.881973 523.096176 
L 148.569425 521.487292 
L 148.844406 518.269524 
L 149.256878 516.660641 
L 149.256878 515.051757 
L 149.531859 513.442873 
L 150.494292 511.833989 
L 150.494292 510.225105 
L 150.906764 508.616222 
L 151.181745 507.007338 
L 152.281669 505.398454 
L 152.55665 503.78957 
L 153.381593 502.180686 
L 153.794065 500.571803 
L 154.893989 494.136268 
L 155.30646 492.527384 
L 157.506308 490.9185 
L 158.05627 489.309616 
L 158.331251 487.700732 
L 158.331251 486.091849 
L 158.606232 484.482965 
L 159.018704 482.874081 
L 160.393609 481.265197 
L 160.66859 479.656314 
L 160.806081 478.04743 
L 160.806081 476.438546 
L 161.081062 474.829662 
L 161.631024 473.220778 
L 161.631024 470.003011 
L 162.455967 466.785243 
L 162.730948 465.176359 
L 163.4184 463.567476 
L 163.968362 460.349708 
L 163.968362 457.131941 
L 164.518324 455.523057 
L 165.205777 453.914173 
L 165.755739 450.696405 
L 166.16821 449.087522 
L 167.268135 445.869754 
L 167.405625 444.26087 
L 167.405625 441.043103 
L 167.543116 439.434219 
L 168.093078 436.216451 
L 168.230568 434.607568 
L 168.230568 432.998684 
L 169.330492 431.3898 
L 169.742964 429.780916 
L 170.292926 428.172032 
L 170.430416 426.563149 
L 170.980378 424.954265 
L 171.255359 421.736497 
L 171.255359 420.127614 
L 171.39285 418.51873 
L 171.39285 416.909846 
L 171.53034 415.300962 
L 171.805321 413.692078 
L 172.080302 410.474311 
L 172.355283 408.865427 
L 172.355283 407.256543 
L 172.767755 405.647659 
L 173.317717 404.038776 
L 173.592698 402.429892 
L 173.730189 400.821008 
L 173.730189 399.212124 
L 174.00517 395.994357 
L 174.280151 394.385473 
L 174.692622 392.776589 
L 174.692622 391.167705 
L 174.830113 389.558822 
L 174.830113 387.949938 
L 175.380075 386.341054 
L 175.517565 384.73217 
L 175.930037 383.123286 
L 176.205018 381.514403 
L 176.89247 379.905519 
L 177.167451 378.296635 
L 177.167451 376.687751 
L 177.304942 375.078868 
L 177.717413 373.469984 
L 177.717413 371.8611 
L 177.854904 370.252216 
L 177.854904 368.643332 
L 178.129885 367.034449 
L 178.267375 365.425565 
L 179.092318 360.598914 
L 179.092318 358.99003 
L 179.367299 357.381146 
L 180.329733 355.772262 
L 180.879695 352.554495 
L 180.879695 349.336727 
L 181.017186 347.727843 
L 181.292167 346.118959 
L 181.567148 342.901192 
L 181.842129 341.292308 
L 181.842129 339.683424 
L 182.11711 338.074541 
L 182.667072 331.639005 
L 183.217034 330.030122 
L 183.492015 328.421238 
L 183.492015 325.20347 
L 184.041977 323.594586 
L 184.179467 321.985703 
L 184.454448 320.376819 
L 185.00441 318.767935 
L 185.279391 315.550168 
L 185.554372 313.941284 
L 186.379316 310.723516 
L 187.204259 309.114632 
L 187.341749 307.505749 
L 187.891711 304.287981 
L 188.579164 302.679097 
L 188.854145 299.46133 
L 189.129126 297.852446 
L 189.954069 294.634678 
L 190.091559 293.025795 
L 190.504031 291.416911 
L 191.053993 288.199143 
L 191.878936 286.590259 
L 192.703879 283.372492 
L 192.97886 281.763608 
L 193.391332 280.154724 
L 193.391332 278.545841 
L 193.666313 276.936957 
L 193.666313 273.719189 
L 194.766237 270.501422 
L 195.178708 268.892538 
L 195.72867 267.283654 
L 195.866161 265.67477 
L 196.416123 262.457003 
L 196.691104 259.239235 
L 197.516047 254.412584 
L 198.203499 252.8037 
L 198.34099 251.194816 
L 199.440914 249.585932 
L 199.715895 247.977049 
L 200.265857 246.368165 
L 200.540838 244.759281 
L 201.0908 238.323746 
L 201.503272 236.714862 
L 201.503272 235.105978 
L 201.778253 233.497095 
L 201.778253 231.888211 
L 201.915743 230.279327 
L 202.740686 228.670443 
L 202.740686 227.061559 
L 203.015667 225.452676 
L 203.978101 223.843792 
L 204.253082 222.234908 
L 204.390572 220.626024 
L 204.390572 219.017141 
L 204.665553 215.799373 
L 205.215515 212.581605 
L 205.215515 210.972722 
L 205.490496 209.363838 
L 205.627987 207.754954 
L 205.902968 206.14607 
L 205.902968 204.537186 
L 206.040459 202.928303 
L 206.040459 201.319419 
L 206.727911 199.710535 
L 207.552854 198.101651 
L 207.690345 196.492768 
L 207.690345 194.883884 
L 207.827835 193.275 
L 208.377797 191.666116 
L 210.027683 190.057232 
L 210.165174 188.448349 
L 210.165174 186.839465 
L 210.852626 185.230581 
L 211.127607 182.012814 
L 211.127607 180.40393 
L 211.677569 177.186162 
L 212.640003 175.577278 
L 212.640003 173.968395 
L 212.914984 172.359511 
L 214.289889 170.750627 
L 215.252323 169.141743 
L 215.389813 167.532859 
L 215.389813 165.923976 
L 215.527304 164.315092 
L 216.214756 162.706208 
L 217.039699 159.488441 
L 217.31468 157.879557 
L 217.31468 156.270673 
L 217.589661 154.661789 
L 218.277114 153.052905 
L 218.827076 151.444022 
L 220.339472 149.835138 
L 221.576886 145.008486 
L 222.67681 143.399603 
L 222.951791 140.181835 
L 223.639244 138.572951 
L 223.776734 136.964068 
L 224.326696 135.355184 
L 224.739168 133.7463 
L 224.739168 130.528532 
L 224.876658 128.919649 
L 225.976583 127.310765 
L 226.114073 125.701881 
L 226.389054 124.092997 
L 226.801526 122.484114 
L 227.626469 120.87523 
L 227.90145 119.266346 
L 228.726393 116.048578 
L 228.726393 114.439695 
L 229.138864 112.830811 
L 229.413845 111.221927 
L 229.963807 109.613043 
L 230.238788 108.004159 
L 230.65126 103.177508 
L 230.65126 101.568624 
L 232.026165 99.959741 
L 235.738409 98.350857 
L 236.975823 96.741973 
L 239.725634 95.133089 
L 240.000615 93.524205 
L 241.51301 91.915322 
L 242.062972 90.306438 
L 242.200463 88.697554 
L 242.612934 87.08867 
L 245.500235 85.479786 
L 246.462669 83.870903 
L 250.999855 82.262019 
L 254.84959 80.653135 
L 256.499476 79.044251 
L 260.624191 77.435368 
L 270.248527 75.826484 
L 294.996819 74.2176 
L 294.996819 74.2176 
" style="fill:none;stroke:#1b9e77;stroke-linecap:round;"/>
   </g>
   <g id="line2d_74">
    <path clip-path="url(#p4a25d8b538)" d="M 127.217149 548.854459 
L 127.382137 547.261718 
L 128.124586 544.076235 
L 129.114518 542.483494 
L 133.170488 540.890753 
L 134.270412 539.298012 
L 134.545393 537.705271 
L 135.370336 536.11253 
L 135.782808 534.519789 
L 135.920298 532.927047 
L 136.195279 531.334306 
L 136.47026 528.148824 
L 137.020222 524.963342 
L 137.020222 523.370601 
L 138.395127 520.185118 
L 138.532618 518.592377 
L 138.532618 516.999636 
L 138.945089 515.406895 
L 138.945089 513.814154 
L 139.08258 512.221413 
L 139.357561 510.628672 
L 139.357561 509.03593 
L 139.632542 507.443189 
L 140.182504 505.850448 
L 140.182504 502.664966 
L 140.457485 501.072225 
L 141.83239 499.479484 
L 142.107371 497.886742 
L 142.107371 496.294001 
L 142.519843 491.515778 
L 142.932314 489.923037 
L 143.069805 488.330296 
L 143.344786 486.737555 
L 143.344786 485.144813 
L 143.482276 483.552072 
L 143.482276 481.959331 
L 144.169729 480.36659 
L 144.169729 478.773849 
L 144.307219 477.181108 
L 144.307219 472.402884 
L 144.44471 470.810143 
L 144.857181 469.217402 
L 144.857181 467.624661 
L 145.132162 466.03192 
L 145.132162 464.439179 
L 145.269653 462.846437 
L 145.544634 461.253696 
L 145.544634 459.660955 
L 145.682124 458.068214 
L 146.232086 456.475473 
L 146.232086 454.882732 
L 146.369577 453.289991 
L 146.369577 451.697249 
L 146.644558 448.511767 
L 147.05703 446.919026 
L 147.19452 445.326285 
L 147.469501 443.733544 
L 147.606992 442.140803 
L 147.881973 440.548062 
L 147.881973 438.95532 
L 148.844406 427.806132 
L 149.119387 426.213391 
L 149.119387 424.62065 
L 149.531859 419.842427 
L 150.081821 416.656944 
L 150.081821 415.064203 
L 150.219311 413.471462 
L 150.219311 410.28598 
L 150.356802 408.693239 
L 150.769273 407.100498 
L 150.769273 403.915015 
L 150.906764 402.322274 
L 151.319235 400.729533 
L 151.319235 399.136792 
L 151.731707 397.544051 
L 151.731707 395.95131 
L 152.006688 394.358569 
L 152.006688 392.765827 
L 152.144178 391.173086 
L 152.144178 389.580345 
L 152.419159 387.987604 
L 152.831631 386.394863 
L 152.831631 384.802122 
L 153.244103 380.023898 
L 153.244103 376.838416 
L 153.381593 375.245675 
L 153.381593 373.652934 
L 153.656574 370.467452 
L 154.069046 368.87471 
L 154.206536 367.281969 
L 154.206536 365.689228 
L 154.619008 360.911005 
L 155.031479 359.318264 
L 155.16897 357.725522 
L 155.443951 356.132781 
L 156.268894 346.576334 
L 156.268894 344.983593 
L 156.818856 341.798111 
L 156.956346 340.20537 
L 157.231327 338.612629 
L 157.231327 335.427146 
L 157.368818 333.834405 
L 157.781289 332.241664 
L 157.91878 330.648923 
L 158.331251 329.056182 
L 158.331251 325.8707 
L 158.606232 322.685217 
L 158.606232 321.092476 
L 158.743723 319.499735 
L 158.743723 317.906994 
L 159.018704 314.721512 
L 159.431175 313.128771 
L 159.431175 311.536029 
L 159.843647 309.943288 
L 159.843647 308.350547 
L 160.5311 306.757806 
L 160.806081 303.572324 
L 160.806081 301.979583 
L 160.943571 300.386841 
L 160.943571 298.7941 
L 161.081062 297.201359 
L 161.081062 295.608618 
L 161.218552 294.015877 
L 161.218552 292.423136 
L 161.768514 290.830395 
L 161.768514 289.237654 
L 162.180986 287.644912 
L 162.180986 284.45943 
L 162.318476 282.866689 
L 162.593457 281.273948 
L 162.730948 279.681207 
L 163.005929 278.088466 
L 163.28091 274.902983 
L 163.555891 273.310242 
L 163.693381 271.717501 
L 164.105853 270.12476 
L 164.243343 268.532019 
L 164.243343 266.939278 
L 164.793305 265.346536 
L 165.480758 263.753795 
L 165.618248 262.161054 
L 165.618248 260.568313 
L 165.893229 257.382831 
L 165.893229 255.79009 
L 166.03072 254.197348 
L 166.580682 251.011866 
L 166.855663 247.826384 
L 167.405625 246.233643 
L 167.405625 244.640902 
L 167.680606 241.455419 
L 167.680606 239.862678 
L 168.368059 238.269937 
L 168.368059 236.677196 
L 168.64304 235.084455 
L 169.055511 233.491714 
L 169.193002 231.898973 
L 169.467983 230.306231 
L 169.605473 228.71349 
L 170.017945 227.120749 
L 170.017945 225.528008 
L 170.155435 223.935267 
L 170.155435 222.342526 
L 170.430416 219.157043 
L 170.842888 217.564302 
L 170.842888 214.37882 
L 171.117869 212.786079 
L 171.255359 211.193338 
L 171.255359 208.007856 
L 171.39285 206.415114 
L 171.39285 204.822373 
L 171.942812 203.229632 
L 172.355283 198.451409 
L 172.630264 196.858668 
L 172.630264 195.265926 
L 172.767755 193.673185 
L 173.042736 192.080444 
L 173.180227 190.487703 
L 173.592698 188.894962 
L 173.730189 187.302221 
L 174.555132 185.70948 
L 175.517565 184.116738 
L 175.655056 182.523997 
L 176.205018 179.338515 
L 177.442432 174.560292 
L 177.579923 172.967551 
L 177.579923 171.374809 
L 178.817337 169.782068 
L 180.742205 168.189327 
L 181.292167 166.596586 
L 182.2546 165.003845 
L 183.766996 163.411104 
L 184.179467 161.818363 
L 184.729429 160.225621 
L 185.141901 158.63288 
L 185.966844 157.040139 
L 186.516806 155.447398 
L 186.791787 153.854657 
L 186.791787 152.261916 
L 187.61673 150.669175 
L 187.754221 149.076433 
L 188.304183 147.483692 
L 188.716654 142.705469 
L 188.991635 141.112728 
L 189.404107 139.519987 
L 189.404107 137.927245 
L 189.954069 136.334504 
L 192.291407 134.741763 
L 194.903727 133.149022 
L 196.416123 131.556281 
L 197.241066 129.96354 
L 197.241066 128.370799 
L 201.778253 125.185316 
L 203.015667 123.592575 
L 203.70312 121.999834 
L 204.940534 120.407093 
L 205.627987 118.814352 
L 209.890193 117.221611 
L 210.715136 115.62887 
L 211.81506 114.036128 
L 211.95255 112.443387 
L 213.602437 110.850646 
L 214.42738 109.257905 
L 216.077266 107.665164 
L 217.039699 106.072423 
L 223.364263 104.479682 
L 226.114073 102.88694 
L 226.526545 101.294199 
L 232.851108 99.701458 
L 234.775975 98.108717 
L 235.875899 96.515976 
L 238.075747 94.923235 
L 245.362745 93.330494 
L 249.762441 91.737753 
L 255.124571 90.145011 
L 266.123812 88.55227 
L 305.99606 86.959529 
L 332.119257 85.366788 
L 378.86603 83.774047 
L 384.365651 82.181306 
L 387.115461 80.588565 
L 409.113942 78.995823 
L 498.482774 77.403082 
L 536.980117 75.810341 
L 634.59838 74.2176 
L 634.59838 74.2176 
" style="fill:none;stroke:#d95f02;stroke-dasharray:3.7,1.6;stroke-dashoffset:0;"/>
   </g>
   <g id="line2d_75">
    <path clip-path="url(#p4a25d8b538)" d="M 123.917377 548.854459 
L 129.471993 547.261718 
L 129.705727 545.668977 
L 131.163127 544.076235 
L 133.995431 542.483494 
L 134.270412 540.890753 
L 134.407903 539.298012 
L 134.682884 537.705271 
L 134.682884 536.11253 
L 134.820374 534.519789 
L 134.820374 532.927047 
L 135.370336 531.334306 
L 135.645317 528.148824 
L 135.920298 526.556083 
L 136.195279 523.370601 
L 136.195279 521.77786 
L 136.47026 520.185118 
L 137.157713 518.592377 
L 137.157713 516.999636 
L 137.707675 513.814154 
L 137.845165 512.221413 
L 138.257637 510.628672 
L 138.395127 509.03593 
L 139.22007 507.443189 
L 139.495051 505.850448 
L 139.907523 501.072225 
L 139.907523 499.479484 
L 140.045014 497.886742 
L 140.045014 496.294001 
L 140.182504 494.70126 
L 140.594976 493.108519 
L 141.282428 491.515778 
L 141.282428 489.923037 
L 141.6949 488.330296 
L 141.83239 486.737555 
L 142.382352 485.144813 
L 142.519843 483.552072 
L 142.932314 481.959331 
L 143.207295 480.36659 
L 143.207295 478.773849 
L 143.619767 473.995625 
L 143.619767 472.402884 
L 143.757257 470.810143 
L 144.169729 469.217402 
L 144.44471 467.624661 
L 144.719691 464.439179 
L 144.719691 461.253696 
L 144.857181 459.660955 
L 145.132162 458.068214 
L 146.232086 445.326285 
L 146.507068 443.733544 
L 146.644558 442.140803 
L 147.05703 440.548062 
L 147.19452 438.95532 
L 147.19452 437.362579 
L 147.332011 435.769838 
L 147.332011 434.177097 
L 147.881973 432.584356 
L 147.881973 430.991615 
L 148.294444 426.213391 
L 148.294444 423.027909 
L 149.394368 421.435168 
L 149.394368 419.842427 
L 149.80684 418.249686 
L 150.081821 416.656944 
L 150.081821 415.064203 
L 150.356802 411.878721 
L 150.769273 410.28598 
L 150.769273 408.693239 
L 151.044254 405.507757 
L 151.319235 403.915015 
L 151.456726 402.322274 
L 152.006688 399.136792 
L 152.419159 397.544051 
L 152.419159 395.95131 
L 152.55665 394.358569 
L 152.969121 392.765827 
L 153.106612 391.173086 
L 153.381593 389.580345 
L 153.656574 386.394863 
L 153.656574 384.802122 
L 154.206536 381.616639 
L 154.344027 380.023898 
L 154.893989 378.431157 
L 155.16897 376.838416 
L 155.581441 375.245675 
L 155.581441 373.652934 
L 155.856422 370.467452 
L 156.131403 368.87471 
L 156.268894 367.281969 
L 156.543875 365.689228 
L 156.543875 364.096487 
L 156.818856 362.503746 
L 156.956346 360.911005 
L 156.956346 357.725522 
L 157.231327 356.132781 
L 157.231327 354.54004 
L 157.506308 351.354558 
L 157.506308 348.169076 
L 157.643799 346.576334 
L 158.05627 344.983593 
L 158.05627 343.390852 
L 158.193761 341.798111 
L 158.193761 340.20537 
L 158.881213 332.241664 
L 158.881213 330.648923 
L 159.156194 327.463441 
L 159.156194 325.8707 
L 159.293685 324.277959 
L 159.293685 322.685217 
L 159.431175 321.092476 
L 159.981138 319.499735 
L 160.118628 317.906994 
L 160.66859 314.721512 
L 160.66859 313.128771 
L 161.356043 311.536029 
L 161.356043 308.350547 
L 161.906005 306.757806 
L 162.180986 305.165065 
L 162.730948 303.572324 
L 163.005929 301.979583 
L 163.4184 297.201359 
L 163.693381 295.608618 
L 163.968362 292.423136 
L 163.968362 290.830395 
L 164.105853 289.237654 
L 164.655815 287.644912 
L 164.793305 286.052171 
L 164.793305 284.45943 
L 165.205777 279.681207 
L 165.480758 278.088466 
L 165.618248 276.495724 
L 166.16821 273.310242 
L 166.16821 271.717501 
L 166.305701 270.12476 
L 166.580682 268.532019 
L 166.580682 266.939278 
L 166.718173 265.346536 
L 166.718173 260.568313 
L 166.855663 258.975572 
L 166.855663 255.79009 
L 166.993154 254.197348 
L 166.993154 251.011866 
L 167.130644 249.419125 
L 167.405625 247.826384 
L 167.543116 246.233643 
L 167.543116 244.640902 
L 168.093078 243.048161 
L 168.093078 239.862678 
L 168.505549 238.269937 
L 168.78053 235.084455 
L 168.78053 233.491714 
L 169.055511 230.306231 
L 169.742964 228.71349 
L 170.017945 225.528008 
L 170.567907 222.342526 
L 170.567907 220.749785 
L 170.842888 217.564302 
L 170.842888 214.37882 
L 171.117869 211.193338 
L 171.117869 206.415114 
L 171.255359 204.822373 
L 171.255359 203.229632 
L 171.667831 201.636891 
L 171.805321 200.04415 
L 172.080302 198.451409 
L 172.630264 196.858668 
L 172.905246 195.265926 
L 173.455208 193.673185 
L 173.592698 192.080444 
L 174.14266 190.487703 
L 174.417641 188.894962 
L 174.417641 187.302221 
L 174.830113 185.70948 
L 175.105094 184.116738 
L 175.105094 182.523997 
L 175.655056 180.931256 
L 175.655056 179.338515 
L 176.205018 177.745774 
L 176.205018 176.153033 
L 176.617489 174.560292 
L 176.89247 172.967551 
L 176.89247 171.374809 
L 177.304942 169.782068 
L 177.304942 168.189327 
L 177.442432 166.596586 
L 177.442432 165.003845 
L 177.854904 163.411104 
L 177.992394 161.818363 
L 178.679847 160.225621 
L 178.679847 158.63288 
L 178.954828 155.447398 
L 179.367299 153.854657 
L 179.917262 152.261916 
L 180.742205 150.669175 
L 181.292167 147.483692 
L 181.429657 145.890951 
L 182.667072 144.29821 
L 183.079543 142.705469 
L 183.217034 141.112728 
L 185.00441 139.519987 
L 185.554372 137.927245 
L 185.691863 136.334504 
L 186.104335 134.741763 
L 187.204259 133.149022 
L 187.754221 131.556281 
L 188.716654 129.96354 
L 189.541597 125.185316 
L 189.679088 123.592575 
L 189.679088 121.999834 
L 189.816578 120.407093 
L 190.36654 118.814352 
L 191.053993 117.221611 
L 191.466464 115.62887 
L 191.603955 114.036128 
L 192.428898 112.443387 
L 192.84137 110.850646 
L 192.97886 109.257905 
L 193.666313 107.665164 
L 194.216275 106.072423 
L 194.628746 104.479682 
L 195.178708 102.88694 
L 196.278632 101.294199 
L 196.416123 99.701458 
L 197.241066 94.923235 
L 198.615971 93.330494 
L 198.890952 91.737753 
L 200.265857 90.145011 
L 202.190724 88.55227 
L 202.603196 86.959529 
L 202.603196 85.366788 
L 203.153158 83.774047 
L 204.940534 82.181306 
L 205.353006 80.588565 
L 205.353006 78.995823 
L 210.165174 77.403082 
L 219.102057 75.810341 
L 301.871344 74.2176 
L 301.871344 74.2176 
" style="fill:none;stroke:#7570b3;stroke-dasharray:2,4;stroke-dashoffset:0;"/>
   </g>
   <g id="line2d_76">
    <path clip-path="url(#p4a25d8b538)" d="M 127.038411 548.854459 
L 129.37575 547.261718 
L 132.070564 545.668977 
L 132.345545 544.076235 
L 132.345545 542.483494 
L 132.758016 540.890753 
L 133.032997 539.298012 
L 133.032997 537.705271 
L 133.170488 536.11253 
L 133.857941 534.519789 
L 134.682884 532.927047 
L 134.820374 531.334306 
L 134.820374 529.741565 
L 135.232846 524.963342 
L 135.507827 523.370601 
L 135.507827 521.77786 
L 135.782808 518.592377 
L 136.33277 515.406895 
L 136.33277 513.814154 
L 136.607751 510.628672 
L 136.607751 509.03593 
L 137.157713 507.443189 
L 137.707675 504.257707 
L 137.845165 502.664966 
L 138.257637 501.072225 
L 138.257637 497.886742 
L 138.395127 496.294001 
L 138.670108 494.70126 
L 138.670108 493.108519 
L 138.945089 489.923037 
L 138.945089 488.330296 
L 139.770032 483.552072 
L 140.182504 481.959331 
L 140.457485 478.773849 
L 140.457485 473.995625 
L 140.869957 472.402884 
L 140.869957 470.810143 
L 141.007447 469.217402 
L 141.007447 464.439179 
L 141.282428 462.846437 
L 141.282428 461.253696 
L 141.419919 459.660955 
L 141.419919 458.068214 
L 142.107371 456.475473 
L 142.244862 454.882732 
L 142.519843 453.289991 
L 142.519843 450.104508 
L 142.794824 448.511767 
L 142.794824 446.919026 
L 143.069805 445.326285 
L 143.069805 443.733544 
L 143.482276 442.140803 
L 143.482276 440.548062 
L 143.894748 438.95532 
L 143.894748 435.769838 
L 144.032238 434.177097 
L 144.032238 432.584356 
L 144.307219 430.991615 
L 144.719691 429.398874 
L 145.269653 427.806132 
L 145.269653 426.213391 
L 145.682124 421.435168 
L 145.957105 419.842427 
L 145.957105 418.249686 
L 146.094596 416.656944 
L 146.094596 411.878721 
L 146.369577 410.28598 
L 146.369577 408.693239 
L 146.644558 407.100498 
L 146.782049 405.507757 
L 147.606992 400.729533 
L 148.019463 395.95131 
L 148.019463 394.358569 
L 148.156954 392.765827 
L 148.156954 391.173086 
L 148.294444 389.580345 
L 148.294444 387.987604 
L 148.431935 386.394863 
L 148.431935 384.802122 
L 148.569425 383.209381 
L 148.844406 381.616639 
L 148.844406 380.023898 
L 149.394368 373.652934 
L 149.669349 372.060193 
L 149.669349 370.467452 
L 149.80684 368.87471 
L 149.80684 367.281969 
L 149.94433 365.689228 
L 149.94433 364.096487 
L 150.081821 362.503746 
L 150.494292 360.911005 
L 150.494292 357.725522 
L 150.631783 356.132781 
L 150.631783 354.54004 
L 150.769273 352.947299 
L 150.769273 349.761817 
L 151.044254 348.169076 
L 151.181745 346.576334 
L 151.181745 343.390852 
L 151.731707 341.798111 
L 152.006688 340.20537 
L 152.006688 337.019888 
L 152.281669 335.427146 
L 152.281669 333.834405 
L 152.55665 332.241664 
L 152.69414 330.648923 
L 152.69414 329.056182 
L 152.831631 327.463441 
L 152.831631 325.8707 
L 153.106612 322.685217 
L 153.106612 317.906994 
L 153.381593 314.721512 
L 153.381593 313.128771 
L 153.656574 311.536029 
L 154.069046 309.943288 
L 154.069046 306.757806 
L 154.206536 305.165065 
L 154.206536 303.572324 
L 154.344027 301.979583 
L 154.344027 300.386841 
L 154.893989 298.7941 
L 154.893989 295.608618 
L 155.16897 292.423136 
L 155.16897 287.644912 
L 155.718932 284.45943 
L 155.718932 282.866689 
L 155.993913 281.273948 
L 155.993913 279.681207 
L 156.131403 278.088466 
L 156.406384 276.495724 
L 156.406384 274.902983 
L 156.681365 273.310242 
L 156.681365 271.717501 
L 156.956346 268.532019 
L 156.956346 266.939278 
L 157.093837 265.346536 
L 157.093837 263.753795 
L 157.368818 262.161054 
L 157.781289 260.568313 
L 157.91878 258.975572 
L 157.91878 257.382831 
L 158.743723 255.79009 
L 158.743723 251.011866 
L 159.018704 249.419125 
L 159.018704 247.826384 
L 159.431175 246.233643 
L 159.843647 241.455419 
L 159.843647 239.862678 
L 160.256119 238.269937 
L 160.5311 235.084455 
L 160.5311 233.491714 
L 160.806081 230.306231 
L 161.356043 228.71349 
L 161.356043 223.935267 
L 161.631024 220.749785 
L 162.043495 219.157043 
L 162.318476 217.564302 
L 162.455967 215.971561 
L 162.455967 214.37882 
L 162.868438 212.786079 
L 162.868438 211.193338 
L 163.143419 209.600597 
L 163.4184 206.415114 
L 163.4184 204.822373 
L 163.968362 201.636891 
L 164.380834 200.04415 
L 164.380834 198.451409 
L 164.518324 196.858668 
L 165.068286 195.265926 
L 166.03072 193.673185 
L 166.03072 188.894962 
L 166.305701 185.70948 
L 166.305701 184.116738 
L 166.718173 182.523997 
L 166.993154 179.338515 
L 166.993154 177.745774 
L 167.543116 176.153033 
L 167.955587 174.560292 
L 168.505549 171.374809 
L 168.505549 168.189327 
L 168.918021 163.411104 
L 169.193002 161.818363 
L 169.330492 160.225621 
L 169.330492 158.63288 
L 169.467983 157.040139 
L 170.155435 155.447398 
L 170.705397 149.076433 
L 171.255359 145.890951 
L 172.080302 142.705469 
L 172.080302 141.112728 
L 172.355283 137.927245 
L 172.767755 136.334504 
L 173.317717 134.741763 
L 173.592698 131.556281 
L 174.417641 129.96354 
L 175.792546 126.778058 
L 176.342508 125.185316 
L 176.617489 123.592575 
L 177.304942 121.999834 
L 177.717413 120.407093 
L 177.854904 118.814352 
L 180.329733 117.221611 
L 180.604714 115.62887 
L 182.392091 114.036128 
L 182.942053 112.443387 
L 183.079543 110.850646 
L 183.354524 109.257905 
L 188.991635 102.88694 
L 190.916502 101.294199 
L 191.191483 99.701458 
L 192.016426 98.108717 
L 193.253841 96.515976 
L 193.253841 94.923235 
L 193.941294 93.330494 
L 195.316199 91.737753 
L 196.003651 90.145011 
L 196.828594 88.55227 
L 200.403348 86.959529 
L 202.465705 85.366788 
L 207.277873 83.774047 
L 211.265098 82.181306 
L 214.702361 80.588565 
L 217.727152 78.995823 
L 224.876658 77.403082 
L 228.451412 75.810341 
L 247.700083 74.2176 
L 247.700083 74.2176 
" style="fill:none;stroke:#e7298a;stroke-dasharray:8,4,2,4;stroke-dashoffset:0;"/>
   </g>
   <g id="line2d_77">
    <path clip-path="url(#p4a25d8b538)" d="M 122.13 548.859768 
L 124.838563 547.272336 
L 127.890852 545.684904 
L 129.032024 544.097472 
L 129.37575 540.922608 
L 129.911963 539.335176 
L 130.131948 537.747744 
L 132.208054 536.160312 
L 132.758016 534.57288 
L 132.895507 532.985448 
L 132.895507 531.398016 
L 133.58296 529.810584 
L 133.58296 528.223152 
L 134.132922 526.63572 
L 134.270412 525.048288 
L 134.270412 521.873424 
L 134.407903 520.285992 
L 134.407903 518.69856 
L 134.545393 517.111128 
L 134.957865 515.523696 
L 135.232846 513.936264 
L 135.232846 512.348832 
L 135.370336 510.7614 
L 135.645317 509.173968 
L 136.47026 507.586536 
L 137.020222 505.999104 
L 137.432694 504.411672 
L 137.707675 501.236808 
L 137.707675 499.649376 
L 138.120146 498.061944 
L 138.257637 496.474512 
L 138.257637 493.299648 
L 138.395127 491.712216 
L 138.670108 490.124784 
L 138.945089 486.94992 
L 138.945089 485.362488 
L 139.22007 483.775056 
L 139.22007 480.600192 
L 139.632542 475.837896 
L 139.632542 474.250464 
L 139.907523 472.663032 
L 139.907523 471.0756 
L 140.182504 469.488168 
L 140.457485 466.313304 
L 140.457485 464.725872 
L 141.007447 458.376144 
L 141.007447 455.20128 
L 141.144938 453.613848 
L 141.144938 452.026416 
L 141.557409 447.26412 
L 141.969881 445.676688 
L 142.107371 444.089256 
L 142.382352 442.501824 
L 142.932314 440.914392 
L 142.932314 439.32696 
L 143.207295 437.739528 
L 143.619767 436.152096 
L 143.894748 432.977232 
L 143.894748 431.3898 
L 144.169729 428.214936 
L 144.169729 425.040072 
L 144.5822 423.45264 
L 144.719691 421.865208 
L 144.719691 418.690344 
L 144.857181 417.102912 
L 144.857181 413.928048 
L 145.269653 412.340616 
L 145.269653 410.753184 
L 145.544634 409.165752 
L 145.544634 407.57832 
L 145.682124 405.990888 
L 145.682124 404.403456 
L 145.957105 402.816024 
L 146.644558 401.228592 
L 146.644558 399.64116 
L 146.782049 398.053728 
L 147.05703 396.466296 
L 147.05703 394.878864 
L 147.332011 391.704 
L 147.332011 390.116568 
L 147.469501 388.529136 
L 147.744482 386.941704 
L 148.019463 383.76684 
L 148.019463 382.179408 
L 148.569425 375.82968 
L 148.844406 374.242248 
L 148.844406 372.654816 
L 149.119387 369.479952 
L 149.531859 367.89252 
L 149.531859 366.305088 
L 149.94433 361.542792 
L 149.94433 359.95536 
L 150.219311 358.367928 
L 150.219311 356.780496 
L 150.494292 355.193064 
L 150.906764 350.430768 
L 151.319235 348.843336 
L 151.319235 347.255904 
L 151.456726 345.668472 
L 151.456726 342.493608 
L 151.731707 340.906176 
L 151.869197 339.318744 
L 152.419159 336.14388 
L 152.69414 332.969016 
L 153.106612 331.381584 
L 153.244103 329.794152 
L 153.794065 328.20672 
L 153.931555 326.619288 
L 154.206536 325.031856 
L 154.206536 323.444424 
L 154.481517 321.856992 
L 154.893989 320.26956 
L 155.16897 318.682128 
L 155.993913 317.094696 
L 155.993913 315.507264 
L 156.681365 313.919832 
L 156.818856 312.3324 
L 157.093837 310.744968 
L 157.093837 309.157536 
L 157.231327 307.570104 
L 157.506308 305.982672 
L 158.05627 304.39524 
L 158.743723 302.807808 
L 159.018704 301.220376 
L 159.156194 299.632944 
L 159.431175 298.045512 
L 159.431175 296.45808 
L 159.981138 290.108352 
L 159.981138 288.52092 
L 160.256119 286.933488 
L 160.5311 283.758624 
L 160.5311 282.171192 
L 160.66859 280.58376 
L 160.66859 277.408896 
L 161.356043 275.821464 
L 161.631024 272.6466 
L 161.906005 271.059168 
L 162.593457 269.471736 
L 162.868438 266.296872 
L 162.868438 264.70944 
L 163.005929 263.122008 
L 163.005929 261.534576 
L 163.143419 259.947144 
L 163.143419 258.359712 
L 163.4184 255.184848 
L 163.4184 253.597416 
L 163.555891 252.009984 
L 163.555891 248.83512 
L 163.693381 247.247688 
L 163.693381 245.660256 
L 163.968362 242.485392 
L 163.968362 239.310528 
L 164.518324 237.723096 
L 164.655815 236.135664 
L 164.655815 234.548232 
L 164.930796 232.9608 
L 165.068286 231.373368 
L 165.068286 229.785936 
L 165.205777 228.198504 
L 165.205777 226.611072 
L 165.618248 225.02364 
L 166.16821 223.436208 
L 166.580682 221.848776 
L 166.580682 220.261344 
L 166.993154 218.673912 
L 167.130644 217.08648 
L 167.130644 215.499048 
L 167.268135 213.911616 
L 167.268135 210.736752 
L 167.680606 209.14932 
L 168.230568 202.799592 
L 168.230568 198.037296 
L 168.78053 196.449864 
L 169.193002 194.862432 
L 169.467983 193.275 
L 169.605473 191.687568 
L 170.430416 190.100136 
L 170.430416 188.512704 
L 170.705397 185.33784 
L 170.705397 183.750408 
L 170.842888 182.162976 
L 171.667831 178.988112 
L 172.492774 177.40068 
L 173.042736 175.813248 
L 173.317717 174.225816 
L 173.455208 172.638384 
L 174.00517 171.050952 
L 174.00517 169.46352 
L 174.555132 167.876088 
L 174.555132 166.288656 
L 174.692622 164.701224 
L 175.517565 163.113792 
L 175.655056 161.52636 
L 175.655056 159.938928 
L 176.479999 158.351496 
L 176.89247 156.764064 
L 177.167451 155.176632 
L 177.167451 153.5892 
L 178.404866 152.001768 
L 180.054752 150.414336 
L 180.054752 148.826904 
L 180.604714 145.65204 
L 180.604714 144.064608 
L 182.392091 142.477176 
L 182.529581 140.889744 
L 182.529581 139.302312 
L 182.804562 137.71488 
L 184.179467 136.127448 
L 184.454448 132.952584 
L 185.966844 131.365152 
L 187.891711 129.77772 
L 188.029202 128.190288 
L 188.579164 126.602856 
L 191.603955 125.015424 
L 191.878936 123.427992 
L 196.828594 120.253128 
L 197.103575 118.665696 
L 198.34099 117.078264 
L 203.84061 115.490832 
L 204.253082 113.9034 
L 207.552854 112.315968 
L 208.515288 110.728536 
L 208.652778 109.141104 
L 214.014908 107.553672 
L 214.702361 105.96624 
L 216.489737 104.378808 
L 216.627228 102.791376 
L 217.727152 101.203944 
L 221.714377 99.616512 
L 222.814301 98.02908 
L 223.089282 96.441648 
L 223.639244 94.854216 
L 225.839092 93.266784 
L 227.076507 91.679352 
L 227.626469 90.09192 
L 234.088523 88.504488 
L 247.837574 86.917056 
L 248.250045 85.329624 
L 251.274836 83.742192 
L 253.749666 82.15476 
L 275.748147 80.567328 
L 285.372483 78.979896 
L 296.371724 77.392464 
L 301.871344 75.805032 
L 538.355022 74.2176 
L 538.355022 74.2176 
" style="fill:none;stroke:#66a61e;stroke-linecap:round;"/>
    <defs>
     <path d="M 0 3 
C 0.795609 3 1.55874 2.683901 2.12132 2.12132 
C 2.683901 1.55874 3 0.795609 3 0 
C 3 -0.795609 2.683901 -1.55874 2.12132 -2.12132 
C 1.55874 -2.683901 0.795609 -3 0 -3 
C -0.795609 -3 -1.55874 -2.683901 -2.12132 -2.12132 
C -2.683901 -1.55874 -3 -0.795609 -3 0 
C -3 0.795609 -2.683901 1.55874 -2.12132 2.12132 
C -1.55874 2.683901 -0.795609 3 0 3 
z
" id="m5800820384" style="stroke:#66a61e;"/>
    </defs>
    <g clip-path="url(#p4a25d8b538)">
     <use style="fill:#66a61e;stroke:#66a61e;" x="122.13" xlink:href="#m5800820384" y="548.859768"/>
     <use style="fill:#66a61e;stroke:#66a61e;" x="132.895507" xlink:href="#m5800820384" y="532.985448"/>
     <use style="fill:#66a61e;stroke:#66a61e;" x="134.545393" xlink:href="#m5800820384" y="517.111128"/>
     <use style="fill:#66a61e;stroke:#66a61e;" x="137.707675" xlink:href="#m5800820384" y="501.236808"/>
     <use style="fill:#66a61e;stroke:#66a61e;" x="138.945089" xlink:href="#m5800820384" y="485.362488"/>
     <use style="fill:#66a61e;stroke:#66a61e;" x="140.182504" xlink:href="#m5800820384" y="469.488168"/>
     <use style="fill:#66a61e;stroke:#66a61e;" x="141.144938" xlink:href="#m5800820384" y="453.613848"/>
     <use style="fill:#66a61e;stroke:#66a61e;" x="143.207295" xlink:href="#m5800820384" y="437.739528"/>
     <use style="fill:#66a61e;stroke:#66a61e;" x="144.719691" xlink:href="#m5800820384" y="421.865208"/>
     <use style="fill:#66a61e;stroke:#66a61e;" x="145.682124" xlink:href="#m5800820384" y="405.990888"/>
     <use style="fill:#66a61e;stroke:#66a61e;" x="147.332011" xlink:href="#m5800820384" y="390.116568"/>
     <use style="fill:#66a61e;stroke:#66a61e;" x="148.844406" xlink:href="#m5800820384" y="374.242248"/>
     <use style="fill:#66a61e;stroke:#66a61e;" x="150.219311" xlink:href="#m5800820384" y="358.367928"/>
     <use style="fill:#66a61e;stroke:#66a61e;" x="151.456726" xlink:href="#m5800820384" y="342.493608"/>
     <use style="fill:#66a61e;stroke:#66a61e;" x="153.931555" xlink:href="#m5800820384" y="326.619288"/>
     <use style="fill:#66a61e;stroke:#66a61e;" x="157.093837" xlink:href="#m5800820384" y="310.744968"/>
     <use style="fill:#66a61e;stroke:#66a61e;" x="159.568666" xlink:href="#m5800820384" y="294.870648"/>
     <use style="fill:#66a61e;stroke:#66a61e;" x="160.66859" xlink:href="#m5800820384" y="278.996328"/>
     <use style="fill:#66a61e;stroke:#66a61e;" x="163.005929" xlink:href="#m5800820384" y="263.122008"/>
     <use style="fill:#66a61e;stroke:#66a61e;" x="163.693381" xlink:href="#m5800820384" y="247.247688"/>
     <use style="fill:#66a61e;stroke:#66a61e;" x="165.068286" xlink:href="#m5800820384" y="231.373368"/>
     <use style="fill:#66a61e;stroke:#66a61e;" x="167.130644" xlink:href="#m5800820384" y="215.499048"/>
     <use style="fill:#66a61e;stroke:#66a61e;" x="168.230568" xlink:href="#m5800820384" y="199.624728"/>
     <use style="fill:#66a61e;stroke:#66a61e;" x="170.705397" xlink:href="#m5800820384" y="183.750408"/>
     <use style="fill:#66a61e;stroke:#66a61e;" x="174.555132" xlink:href="#m5800820384" y="167.876088"/>
     <use style="fill:#66a61e;stroke:#66a61e;" x="178.404866" xlink:href="#m5800820384" y="152.001768"/>
     <use style="fill:#66a61e;stroke:#66a61e;" x="184.179467" xlink:href="#m5800820384" y="136.127448"/>
     <use style="fill:#66a61e;stroke:#66a61e;" x="196.828594" xlink:href="#m5800820384" y="120.253128"/>
     <use style="fill:#66a61e;stroke:#66a61e;" x="216.489737" xlink:href="#m5800820384" y="104.378808"/>
     <use style="fill:#66a61e;stroke:#66a61e;" x="234.088523" xlink:href="#m5800820384" y="88.504488"/>
    </g>
   </g>
   <g id="patch_3">
    <path d="M 122.13 550.4472 
L 122.13 74.2176 
" style="fill:none;"/>
   </g>
   <g id="patch_4">
    <path d="M 640.098 550.4472 
L 640.098 74.2176 
" style="fill:none;"/>
   </g>
   <g id="patch_5">
    <path d="M 122.13 550.4472 
L 640.098 550.4472 
" style="fill:none;"/>
   </g>
   <g id="patch_6">
    <path d="M 122.13 74.2176 
L 640.098 74.2176 
" style="fill:none;"/>
   </g>
   <g id="legend_1">
    <g id="line2d_78">
     <path d="M 653.78936 80.963598 
L 670.44936 80.963598 
" style="fill:none;stroke:#1b9e77;stroke-linecap:round;"/>
    </g>
    <g id="line2d_79"/>
    <g id="text_16">
     <!-- Ping (ms) - - 10.101.124.13 ICMP - BBRn-fq -->
     <g transform="translate(677.11336 83.879098)scale(0.0833 -0.0833)">
      <defs>
       <path d="M 19.671875 64.796875 
L 19.671875 37.40625 
L 32.078125 37.40625 
Q 38.96875 37.40625 42.71875 40.96875 
Q 46.484375 44.53125 46.484375 51.125 
Q 46.484375 57.671875 42.71875 61.234375 
Q 38.96875 64.796875 32.078125 64.796875 
z
M 9.8125 72.90625 
L 32.078125 72.90625 
Q 44.34375 72.90625 50.609375 67.359375 
Q 56.890625 61.8125 56.890625 51.125 
Q 56.890625 40.328125 50.609375 34.8125 
Q 44.34375 29.296875 32.078125 29.296875 
L 19.671875 29.296875 
L 19.671875 0 
L 9.8125 0 
z
" id="DejaVuSans-80"/>
       <path d="M 45.40625 27.984375 
Q 45.40625 37.75 41.375 43.109375 
Q 37.359375 48.484375 30.078125 48.484375 
Q 22.859375 48.484375 18.828125 43.109375 
Q 14.796875 37.75 14.796875 27.984375 
Q 14.796875 18.265625 18.828125 12.890625 
Q 22.859375 7.515625 30.078125 7.515625 
Q 37.359375 7.515625 41.375 12.890625 
Q 45.40625 18.265625 45.40625 27.984375 
z
M 54.390625 6.78125 
Q 54.390625 -7.171875 48.1875 -13.984375 
Q 42 -20.796875 29.203125 -20.796875 
Q 24.46875 -20.796875 20.265625 -20.09375 
Q 16.0625 -19.390625 12.109375 -17.921875 
L 12.109375 -9.1875 
Q 16.0625 -11.328125 19.921875 -12.34375 
Q 23.78125 -13.375 27.78125 -13.375 
Q 36.625 -13.375 41.015625 -8.765625 
Q 45.40625 -4.15625 45.40625 5.171875 
L 45.40625 9.625 
Q 42.625 4.78125 38.28125 2.390625 
Q 33.9375 0 27.875 0 
Q 17.828125 0 11.671875 7.65625 
Q 5.515625 15.328125 5.515625 27.984375 
Q 5.515625 40.671875 11.671875 48.328125 
Q 17.828125 56 27.875 56 
Q 33.9375 56 38.28125 53.609375 
Q 42.625 51.21875 45.40625 46.390625 
L 45.40625 54.6875 
L 54.390625 54.6875 
z
" id="DejaVuSans-103"/>
       <path d="M 4.890625 31.390625 
L 31.203125 31.390625 
L 31.203125 23.390625 
L 4.890625 23.390625 
z
" id="DejaVuSans-45"/>
       <path d="M 9.8125 72.90625 
L 19.671875 72.90625 
L 19.671875 0 
L 9.8125 0 
z
" id="DejaVuSans-73"/>
       <path d="M 9.8125 72.90625 
L 24.515625 72.90625 
L 43.109375 23.296875 
L 61.8125 72.90625 
L 76.515625 72.90625 
L 76.515625 0 
L 66.890625 0 
L 66.890625 64.015625 
L 48.09375 14.015625 
L 38.1875 14.015625 
L 19.390625 64.015625 
L 19.390625 0 
L 9.8125 0 
z
" id="DejaVuSans-77"/>
       <path d="M 19.671875 34.8125 
L 19.671875 8.109375 
L 35.5 8.109375 
Q 43.453125 8.109375 47.28125 11.40625 
Q 51.125 14.703125 51.125 21.484375 
Q 51.125 28.328125 47.28125 31.5625 
Q 43.453125 34.8125 35.5 34.8125 
z
M 19.671875 64.796875 
L 19.671875 42.828125 
L 34.28125 42.828125 
Q 41.5 42.828125 45.03125 45.53125 
Q 48.578125 48.25 48.578125 53.8125 
Q 48.578125 59.328125 45.03125 62.0625 
Q 41.5 64.796875 34.28125 64.796875 
z
M 9.8125 72.90625 
L 35.015625 72.90625 
Q 46.296875 72.90625 52.390625 68.21875 
Q 58.5 63.53125 58.5 54.890625 
Q 58.5 48.1875 55.375 44.234375 
Q 52.25 40.28125 46.1875 39.3125 
Q 53.46875 37.75 57.5 32.78125 
Q 61.53125 27.828125 61.53125 20.40625 
Q 61.53125 10.640625 54.890625 5.3125 
Q 48.25 0 35.984375 0 
L 9.8125 0 
z
" id="DejaVuSans-66"/>
       <path d="M 44.390625 34.1875 
Q 47.5625 33.109375 50.5625 29.59375 
Q 53.5625 26.078125 56.59375 19.921875 
L 66.609375 0 
L 56 0 
L 46.6875 18.703125 
Q 43.0625 26.03125 39.671875 28.421875 
Q 36.28125 30.8125 30.421875 30.8125 
L 19.671875 30.8125 
L 19.671875 0 
L 9.8125 0 
L 9.8125 72.90625 
L 32.078125 72.90625 
Q 44.578125 72.90625 50.734375 67.671875 
Q 56.890625 62.453125 56.890625 51.90625 
Q 56.890625 45.015625 53.6875 40.46875 
Q 50.484375 35.9375 44.390625 34.1875 
z
M 19.671875 64.796875 
L 19.671875 38.921875 
L 32.078125 38.921875 
Q 39.203125 38.921875 42.84375 42.21875 
Q 46.484375 45.515625 46.484375 51.90625 
Q 46.484375 58.296875 42.84375 61.546875 
Q 39.203125 64.796875 32.078125 64.796875 
z
" id="DejaVuSans-82"/>
       <path d="M 37.109375 75.984375 
L 37.109375 68.5 
L 28.515625 68.5 
Q 23.6875 68.5 21.796875 66.546875 
Q 19.921875 64.59375 19.921875 59.515625 
L 19.921875 54.6875 
L 34.71875 54.6875 
L 34.71875 47.703125 
L 19.921875 47.703125 
L 19.921875 0 
L 10.890625 0 
L 10.890625 47.703125 
L 2.296875 47.703125 
L 2.296875 54.6875 
L 10.890625 54.6875 
L 10.890625 58.5 
Q 10.890625 67.625 15.140625 71.796875 
Q 19.390625 75.984375 28.609375 75.984375 
z
" id="DejaVuSans-102"/>
       <path d="M 14.796875 27.296875 
Q 14.796875 17.390625 18.875 11.75 
Q 22.953125 6.109375 30.078125 6.109375 
Q 37.203125 6.109375 41.296875 11.75 
Q 45.40625 17.390625 45.40625 27.296875 
Q 45.40625 37.203125 41.296875 42.84375 
Q 37.203125 48.484375 30.078125 48.484375 
Q 22.953125 48.484375 18.875 42.84375 
Q 14.796875 37.203125 14.796875 27.296875 
z
M 45.40625 8.203125 
Q 42.578125 3.328125 38.25 0.953125 
Q 33.9375 -1.421875 27.875 -1.421875 
Q 17.96875 -1.421875 11.734375 6.484375 
Q 5.515625 14.40625 5.515625 27.296875 
Q 5.515625 40.1875 11.734375 48.09375 
Q 17.96875 56 27.875 56 
Q 33.9375 56 38.25 53.625 
Q 42.578125 51.265625 45.40625 46.390625 
L 45.40625 54.6875 
L 54.390625 54.6875 
L 54.390625 -20.796875 
L 45.40625 -20.796875 
z
" id="DejaVuSans-113"/>
      </defs>
      <use xlink:href="#DejaVuSans-80"/>
      <use x="58.052734" xlink:href="#DejaVuSans-105"/>
      <use x="85.835938" xlink:href="#DejaVuSans-110"/>
      <use x="149.214844" xlink:href="#DejaVuSans-103"/>
      <use x="212.691406" xlink:href="#DejaVuSans-32"/>
      <use x="244.478516" xlink:href="#DejaVuSans-40"/>
      <use x="283.492188" xlink:href="#DejaVuSans-109"/>
      <use x="380.904297" xlink:href="#DejaVuSans-115"/>
      <use x="433.003906" xlink:href="#DejaVuSans-41"/>
      <use x="472.017578" xlink:href="#DejaVuSans-32"/>
      <use x="503.804688" xlink:href="#DejaVuSans-45"/>
      <use x="539.888672" xlink:href="#DejaVuSans-45"/>
      <use x="575.972656" xlink:href="#DejaVuSans-32"/>
      <use x="607.759766" xlink:href="#DejaVuSans-49"/>
      <use x="671.382812" xlink:href="#DejaVuSans-48"/>
      <use x="735.005859" xlink:href="#DejaVuSans-46"/>
      <use x="766.792969" xlink:href="#DejaVuSans-49"/>
      <use x="830.416016" xlink:href="#DejaVuSans-48"/>
      <use x="894.039062" xlink:href="#DejaVuSans-49"/>
      <use x="957.662109" xlink:href="#DejaVuSans-46"/>
      <use x="989.449219" xlink:href="#DejaVuSans-49"/>
      <use x="1053.072266" xlink:href="#DejaVuSans-50"/>
      <use x="1116.695312" xlink:href="#DejaVuSans-52"/>
      <use x="1180.318359" xlink:href="#DejaVuSans-46"/>
      <use x="1212.105469" xlink:href="#DejaVuSans-49"/>
      <use x="1275.728516" xlink:href="#DejaVuSans-51"/>
      <use x="1339.351562" xlink:href="#DejaVuSans-32"/>
      <use x="1371.138672" xlink:href="#DejaVuSans-73"/>
      <use x="1400.630859" xlink:href="#DejaVuSans-67"/>
      <use x="1470.455078" xlink:href="#DejaVuSans-77"/>
      <use x="1556.734375" xlink:href="#DejaVuSans-80"/>
      <use x="1617.037109" xlink:href="#DejaVuSans-32"/>
      <use x="1648.824219" xlink:href="#DejaVuSans-45"/>
      <use x="1684.908203" xlink:href="#DejaVuSans-32"/>
      <use x="1716.695312" xlink:href="#DejaVuSans-66"/>
      <use x="1785.298828" xlink:href="#DejaVuSans-66"/>
      <use x="1853.902344" xlink:href="#DejaVuSans-82"/>
      <use x="1923.384766" xlink:href="#DejaVuSans-110"/>
      <use x="1986.763672" xlink:href="#DejaVuSans-45"/>
      <use x="2022.847656" xlink:href="#DejaVuSans-102"/>
      <use x="2058.052734" xlink:href="#DejaVuSans-113"/>
     </g>
    </g>
    <g id="line2d_80">
     <path d="M 653.78936 93.190477 
L 670.44936 93.190477 
" style="fill:none;stroke:#d95f02;stroke-dasharray:3.7,1.6;stroke-dashoffset:0;"/>
    </g>
    <g id="line2d_81"/>
    <g id="text_17">
     <!-- Ping (ms) - - 10.101.124.13 ICMP - BBRn-FQ_CoDel -->
     <g transform="translate(677.11336 96.105977)scale(0.0833 -0.0833)">
      <defs>
       <path d="M 9.8125 72.90625 
L 51.703125 72.90625 
L 51.703125 64.59375 
L 19.671875 64.59375 
L 19.671875 43.109375 
L 48.578125 43.109375 
L 48.578125 34.8125 
L 19.671875 34.8125 
L 19.671875 0 
L 9.8125 0 
z
" id="DejaVuSans-70"/>
       <path d="M 39.40625 66.21875 
Q 28.65625 66.21875 22.328125 58.203125 
Q 16.015625 50.203125 16.015625 36.375 
Q 16.015625 22.609375 22.328125 14.59375 
Q 28.65625 6.59375 39.40625 6.59375 
Q 50.140625 6.59375 56.421875 14.59375 
Q 62.703125 22.609375 62.703125 36.375 
Q 62.703125 50.203125 56.421875 58.203125 
Q 50.140625 66.21875 39.40625 66.21875 
z
M 53.21875 1.3125 
L 66.21875 -12.890625 
L 54.296875 -12.890625 
L 43.5 -1.21875 
Q 41.890625 -1.3125 41.03125 -1.359375 
Q 40.1875 -1.421875 39.40625 -1.421875 
Q 24.03125 -1.421875 14.8125 8.859375 
Q 5.609375 19.140625 5.609375 36.375 
Q 5.609375 53.65625 14.8125 63.9375 
Q 24.03125 74.21875 39.40625 74.21875 
Q 54.734375 74.21875 63.90625 63.9375 
Q 73.09375 53.65625 73.09375 36.375 
Q 73.09375 23.6875 67.984375 14.640625 
Q 62.890625 5.609375 53.21875 1.3125 
z
" id="DejaVuSans-81"/>
       <path d="M 50.984375 -16.609375 
L 50.984375 -23.578125 
L -0.984375 -23.578125 
L -0.984375 -16.609375 
z
" id="DejaVuSans-95"/>
       <path d="M 19.671875 64.796875 
L 19.671875 8.109375 
L 31.59375 8.109375 
Q 46.6875 8.109375 53.6875 14.9375 
Q 60.6875 21.78125 60.6875 36.53125 
Q 60.6875 51.171875 53.6875 57.984375 
Q 46.6875 64.796875 31.59375 64.796875 
z
M 9.8125 72.90625 
L 30.078125 72.90625 
Q 51.265625 72.90625 61.171875 64.09375 
Q 71.09375 55.28125 71.09375 36.53125 
Q 71.09375 17.671875 61.125 8.828125 
Q 51.171875 0 30.078125 0 
L 9.8125 0 
z
" id="DejaVuSans-68"/>
      </defs>
      <use xlink:href="#DejaVuSans-80"/>
      <use x="58.052734" xlink:href="#DejaVuSans-105"/>
      <use x="85.835938" xlink:href="#DejaVuSans-110"/>
      <use x="149.214844" xlink:href="#DejaVuSans-103"/>
      <use x="212.691406" xlink:href="#DejaVuSans-32"/>
      <use x="244.478516" xlink:href="#DejaVuSans-40"/>
      <use x="283.492188" xlink:href="#DejaVuSans-109"/>
      <use x="380.904297" xlink:href="#DejaVuSans-115"/>
      <use x="433.003906" xlink:href="#DejaVuSans-41"/>
      <use x="472.017578" xlink:href="#DejaVuSans-32"/>
      <use x="503.804688" xlink:href="#DejaVuSans-45"/>
      <use x="539.888672" xlink:href="#DejaVuSans-45"/>
      <use x="575.972656" xlink:href="#DejaVuSans-32"/>
      <use x="607.759766" xlink:href="#DejaVuSans-49"/>
      <use x="671.382812" xlink:href="#DejaVuSans-48"/>
      <use x="735.005859" xlink:href="#DejaVuSans-46"/>
      <use x="766.792969" xlink:href="#DejaVuSans-49"/>
      <use x="830.416016" xlink:href="#DejaVuSans-48"/>
      <use x="894.039062" xlink:href="#DejaVuSans-49"/>
      <use x="957.662109" xlink:href="#DejaVuSans-46"/>
      <use x="989.449219" xlink:href="#DejaVuSans-49"/>
      <use x="1053.072266" xlink:href="#DejaVuSans-50"/>
      <use x="1116.695312" xlink:href="#DejaVuSans-52"/>
      <use x="1180.318359" xlink:href="#DejaVuSans-46"/>
      <use x="1212.105469" xlink:href="#DejaVuSans-49"/>
      <use x="1275.728516" xlink:href="#DejaVuSans-51"/>
      <use x="1339.351562" xlink:href="#DejaVuSans-32"/>
      <use x="1371.138672" xlink:href="#DejaVuSans-73"/>
      <use x="1400.630859" xlink:href="#DejaVuSans-67"/>
      <use x="1470.455078" xlink:href="#DejaVuSans-77"/>
      <use x="1556.734375" xlink:href="#DejaVuSans-80"/>
      <use x="1617.037109" xlink:href="#DejaVuSans-32"/>
      <use x="1648.824219" xlink:href="#DejaVuSans-45"/>
      <use x="1684.908203" xlink:href="#DejaVuSans-32"/>
      <use x="1716.695312" xlink:href="#DejaVuSans-66"/>
      <use x="1785.298828" xlink:href="#DejaVuSans-66"/>
      <use x="1853.902344" xlink:href="#DejaVuSans-82"/>
      <use x="1923.384766" xlink:href="#DejaVuSans-110"/>
      <use x="1986.763672" xlink:href="#DejaVuSans-45"/>
      <use x="2022.847656" xlink:href="#DejaVuSans-70"/>
      <use x="2080.367188" xlink:href="#DejaVuSans-81"/>
      <use x="2159.078125" xlink:href="#DejaVuSans-95"/>
      <use x="2209.078125" xlink:href="#DejaVuSans-67"/>
      <use x="2278.902344" xlink:href="#DejaVuSans-111"/>
      <use x="2340.083984" xlink:href="#DejaVuSans-68"/>
      <use x="2417.085938" xlink:href="#DejaVuSans-101"/>
      <use x="2478.609375" xlink:href="#DejaVuSans-108"/>
     </g>
    </g>
    <g id="line2d_82">
     <path d="M 653.78936 105.649033 
L 670.44936 105.649033 
" style="fill:none;stroke:#7570b3;stroke-dasharray:2,4;stroke-dashoffset:0;"/>
    </g>
    <g id="line2d_83"/>
    <g id="text_18">
     <!-- Ping (ms) - - 10.101.124.13 ICMP - BBRn-pie -->
     <g transform="translate(677.11336 108.564533)scale(0.0833 -0.0833)">
      <use xlink:href="#DejaVuSans-80"/>
      <use x="58.052734" xlink:href="#DejaVuSans-105"/>
      <use x="85.835938" xlink:href="#DejaVuSans-110"/>
      <use x="149.214844" xlink:href="#DejaVuSans-103"/>
      <use x="212.691406" xlink:href="#DejaVuSans-32"/>
      <use x="244.478516" xlink:href="#DejaVuSans-40"/>
      <use x="283.492188" xlink:href="#DejaVuSans-109"/>
      <use x="380.904297" xlink:href="#DejaVuSans-115"/>
      <use x="433.003906" xlink:href="#DejaVuSans-41"/>
      <use x="472.017578" xlink:href="#DejaVuSans-32"/>
      <use x="503.804688" xlink:href="#DejaVuSans-45"/>
      <use x="539.888672" xlink:href="#DejaVuSans-45"/>
      <use x="575.972656" xlink:href="#DejaVuSans-32"/>
      <use x="607.759766" xlink:href="#DejaVuSans-49"/>
      <use x="671.382812" xlink:href="#DejaVuSans-48"/>
      <use x="735.005859" xlink:href="#DejaVuSans-46"/>
      <use x="766.792969" xlink:href="#DejaVuSans-49"/>
      <use x="830.416016" xlink:href="#DejaVuSans-48"/>
      <use x="894.039062" xlink:href="#DejaVuSans-49"/>
      <use x="957.662109" xlink:href="#DejaVuSans-46"/>
      <use x="989.449219" xlink:href="#DejaVuSans-49"/>
      <use x="1053.072266" xlink:href="#DejaVuSans-50"/>
      <use x="1116.695312" xlink:href="#DejaVuSans-52"/>
      <use x="1180.318359" xlink:href="#DejaVuSans-46"/>
      <use x="1212.105469" xlink:href="#DejaVuSans-49"/>
      <use x="1275.728516" xlink:href="#DejaVuSans-51"/>
      <use x="1339.351562" xlink:href="#DejaVuSans-32"/>
      <use x="1371.138672" xlink:href="#DejaVuSans-73"/>
      <use x="1400.630859" xlink:href="#DejaVuSans-67"/>
      <use x="1470.455078" xlink:href="#DejaVuSans-77"/>
      <use x="1556.734375" xlink:href="#DejaVuSans-80"/>
      <use x="1617.037109" xlink:href="#DejaVuSans-32"/>
      <use x="1648.824219" xlink:href="#DejaVuSans-45"/>
      <use x="1684.908203" xlink:href="#DejaVuSans-32"/>
      <use x="1716.695312" xlink:href="#DejaVuSans-66"/>
      <use x="1785.298828" xlink:href="#DejaVuSans-66"/>
      <use x="1853.902344" xlink:href="#DejaVuSans-82"/>
      <use x="1923.384766" xlink:href="#DejaVuSans-110"/>
      <use x="1986.763672" xlink:href="#DejaVuSans-45"/>
      <use x="2022.847656" xlink:href="#DejaVuSans-112"/>
      <use x="2086.324219" xlink:href="#DejaVuSans-105"/>
      <use x="2114.107422" xlink:href="#DejaVuSans-101"/>
     </g>
    </g>
    <g id="line2d_84">
     <path d="M 653.78936 117.875911 
L 670.44936 117.875911 
" style="fill:none;stroke:#e7298a;stroke-dasharray:8,4,2,4;stroke-dashoffset:0;"/>
    </g>
    <g id="line2d_85"/>
    <g id="text_19">
     <!-- Ping (ms) - - 10.101.124.13 ICMP - BBRn-cake -->
     <g transform="translate(677.11336 120.791411)scale(0.0833 -0.0833)">
      <defs>
       <path d="M 9.078125 75.984375 
L 18.109375 75.984375 
L 18.109375 31.109375 
L 44.921875 54.6875 
L 56.390625 54.6875 
L 27.390625 29.109375 
L 57.625 0 
L 45.90625 0 
L 18.109375 26.703125 
L 18.109375 0 
L 9.078125 0 
z
" id="DejaVuSans-107"/>
      </defs>
      <use xlink:href="#DejaVuSans-80"/>
      <use x="58.052734" xlink:href="#DejaVuSans-105"/>
      <use x="85.835938" xlink:href="#DejaVuSans-110"/>
      <use x="149.214844" xlink:href="#DejaVuSans-103"/>
      <use x="212.691406" xlink:href="#DejaVuSans-32"/>
      <use x="244.478516" xlink:href="#DejaVuSans-40"/>
      <use x="283.492188" xlink:href="#DejaVuSans-109"/>
      <use x="380.904297" xlink:href="#DejaVuSans-115"/>
      <use x="433.003906" xlink:href="#DejaVuSans-41"/>
      <use x="472.017578" xlink:href="#DejaVuSans-32"/>
      <use x="503.804688" xlink:href="#DejaVuSans-45"/>
      <use x="539.888672" xlink:href="#DejaVuSans-45"/>
      <use x="575.972656" xlink:href="#DejaVuSans-32"/>
      <use x="607.759766" xlink:href="#DejaVuSans-49"/>
      <use x="671.382812" xlink:href="#DejaVuSans-48"/>
      <use x="735.005859" xlink:href="#DejaVuSans-46"/>
      <use x="766.792969" xlink:href="#DejaVuSans-49"/>
      <use x="830.416016" xlink:href="#DejaVuSans-48"/>
      <use x="894.039062" xlink:href="#DejaVuSans-49"/>
      <use x="957.662109" xlink:href="#DejaVuSans-46"/>
      <use x="989.449219" xlink:href="#DejaVuSans-49"/>
      <use x="1053.072266" xlink:href="#DejaVuSans-50"/>
      <use x="1116.695312" xlink:href="#DejaVuSans-52"/>
      <use x="1180.318359" xlink:href="#DejaVuSans-46"/>
      <use x="1212.105469" xlink:href="#DejaVuSans-49"/>
      <use x="1275.728516" xlink:href="#DejaVuSans-51"/>
      <use x="1339.351562" xlink:href="#DejaVuSans-32"/>
      <use x="1371.138672" xlink:href="#DejaVuSans-73"/>
      <use x="1400.630859" xlink:href="#DejaVuSans-67"/>
      <use x="1470.455078" xlink:href="#DejaVuSans-77"/>
      <use x="1556.734375" xlink:href="#DejaVuSans-80"/>
      <use x="1617.037109" xlink:href="#DejaVuSans-32"/>
      <use x="1648.824219" xlink:href="#DejaVuSans-45"/>
      <use x="1684.908203" xlink:href="#DejaVuSans-32"/>
      <use x="1716.695312" xlink:href="#DejaVuSans-66"/>
      <use x="1785.298828" xlink:href="#DejaVuSans-66"/>
      <use x="1853.902344" xlink:href="#DejaVuSans-82"/>
      <use x="1923.384766" xlink:href="#DejaVuSans-110"/>
      <use x="1986.763672" xlink:href="#DejaVuSans-45"/>
      <use x="2022.847656" xlink:href="#DejaVuSans-99"/>
      <use x="2077.828125" xlink:href="#DejaVuSans-97"/>
      <use x="2139.107422" xlink:href="#DejaVuSans-107"/>
      <use x="2193.392578" xlink:href="#DejaVuSans-101"/>
     </g>
    </g>
    <g id="line2d_86">
     <path d="M 653.78936 130.102789 
L 670.44936 130.102789 
" style="fill:none;stroke:#66a61e;stroke-linecap:round;"/>
    </g>
    <g id="line2d_87">
     <g>
      <use style="fill:#66a61e;stroke:#66a61e;" x="662.11936" xlink:href="#m5800820384" y="130.102789"/>
     </g>
    </g>
    <g id="text_20">
     <!-- Ping (ms) - - 10.101.124.13 ICMP - BBRn-codel -->
     <g transform="translate(677.11336 133.018289)scale(0.0833 -0.0833)">
      <defs>
       <path d="M 45.40625 46.390625 
L 45.40625 75.984375 
L 54.390625 75.984375 
L 54.390625 0 
L 45.40625 0 
L 45.40625 8.203125 
Q 42.578125 3.328125 38.25 0.953125 
Q 33.9375 -1.421875 27.875 -1.421875 
Q 17.96875 -1.421875 11.734375 6.484375 
Q 5.515625 14.40625 5.515625 27.296875 
Q 5.515625 40.1875 11.734375 48.09375 
Q 17.96875 56 27.875 56 
Q 33.9375 56 38.25 53.625 
Q 42.578125 51.265625 45.40625 46.390625 
z
M 14.796875 27.296875 
Q 14.796875 17.390625 18.875 11.75 
Q 22.953125 6.109375 30.078125 6.109375 
Q 37.203125 6.109375 41.296875 11.75 
Q 45.40625 17.390625 45.40625 27.296875 
Q 45.40625 37.203125 41.296875 42.84375 
Q 37.203125 48.484375 30.078125 48.484375 
Q 22.953125 48.484375 18.875 42.84375 
Q 14.796875 37.203125 14.796875 27.296875 
z
" id="DejaVuSans-100"/>
      </defs>
      <use xlink:href="#DejaVuSans-80"/>
      <use x="58.052734" xlink:href="#DejaVuSans-105"/>
      <use x="85.835938" xlink:href="#DejaVuSans-110"/>
      <use x="149.214844" xlink:href="#DejaVuSans-103"/>
      <use x="212.691406" xlink:href="#DejaVuSans-32"/>
      <use x="244.478516" xlink:href="#DejaVuSans-40"/>
      <use x="283.492188" xlink:href="#DejaVuSans-109"/>
      <use x="380.904297" xlink:href="#DejaVuSans-115"/>
      <use x="433.003906" xlink:href="#DejaVuSans-41"/>
      <use x="472.017578" xlink:href="#DejaVuSans-32"/>
      <use x="503.804688" xlink:href="#DejaVuSans-45"/>
      <use x="539.888672" xlink:href="#DejaVuSans-45"/>
      <use x="575.972656" xlink:href="#DejaVuSans-32"/>
      <use x="607.759766" xlink:href="#DejaVuSans-49"/>
      <use x="671.382812" xlink:href="#DejaVuSans-48"/>
      <use x="735.005859" xlink:href="#DejaVuSans-46"/>
      <use x="766.792969" xlink:href="#DejaVuSans-49"/>
      <use x="830.416016" xlink:href="#DejaVuSans-48"/>
      <use x="894.039062" xlink:href="#DejaVuSans-49"/>
      <use x="957.662109" xlink:href="#DejaVuSans-46"/>
      <use x="989.449219" xlink:href="#DejaVuSans-49"/>
      <use x="1053.072266" xlink:href="#DejaVuSans-50"/>
      <use x="1116.695312" xlink:href="#DejaVuSans-52"/>
      <use x="1180.318359" xlink:href="#DejaVuSans-46"/>
      <use x="1212.105469" xlink:href="#DejaVuSans-49"/>
      <use x="1275.728516" xlink:href="#DejaVuSans-51"/>
      <use x="1339.351562" xlink:href="#DejaVuSans-32"/>
      <use x="1371.138672" xlink:href="#DejaVuSans-73"/>
      <use x="1400.630859" xlink:href="#DejaVuSans-67"/>
      <use x="1470.455078" xlink:href="#DejaVuSans-77"/>
      <use x="1556.734375" xlink:href="#DejaVuSans-80"/>
      <use x="1617.037109" xlink:href="#DejaVuSans-32"/>
      <use x="1648.824219" xlink:href="#DejaVuSans-45"/>
      <use x="1684.908203" xlink:href="#DejaVuSans-32"/>
      <use x="1716.695312" xlink:href="#DejaVuSans-66"/>
      <use x="1785.298828" xlink:href="#DejaVuSans-66"/>
      <use x="1853.902344" xlink:href="#DejaVuSans-82"/>
      <use x="1923.384766" xlink:href="#DejaVuSans-110"/>
      <use x="1986.763672" xlink:href="#DejaVuSans-45"/>
      <use x="2022.847656" xlink:href="#DejaVuSans-99"/>
      <use x="2077.828125" xlink:href="#DejaVuSans-111"/>
      <use x="2139.009766" xlink:href="#DejaVuSans-100"/>
      <use x="2202.486328" xlink:href="#DejaVuSans-101"/>
      <use x="2264.009766" xlink:href="#DejaVuSans-108"/>
     </g>
    </g>
   </g>
  </g>
  <g id="text_21">
   <!-- Realtime Response Under Load - exclusively Best Effort -->
   <g transform="translate(294.592656 15.791812)scale(0.14 -0.14)">
    <defs>
     <path d="M 8.6875 72.90625 
L 18.609375 72.90625 
L 18.609375 28.609375 
Q 18.609375 16.890625 22.84375 11.734375 
Q 27.09375 6.59375 36.625 6.59375 
Q 46.09375 6.59375 50.34375 11.734375 
Q 54.59375 16.890625 54.59375 28.609375 
L 54.59375 72.90625 
L 64.5 72.90625 
L 64.5 27.390625 
Q 64.5 13.140625 57.4375 5.859375 
Q 50.390625 -1.421875 36.625 -1.421875 
Q 22.796875 -1.421875 15.734375 5.859375 
Q 8.6875 13.140625 8.6875 27.390625 
z
" id="DejaVuSans-85"/>
     <path d="M 54.890625 54.6875 
L 35.109375 28.078125 
L 55.90625 0 
L 45.3125 0 
L 29.390625 21.484375 
L 13.484375 0 
L 2.875 0 
L 24.125 28.609375 
L 4.6875 54.6875 
L 15.28125 54.6875 
L 29.78125 35.203125 
L 44.28125 54.6875 
z
" id="DejaVuSans-120"/>
     <path d="M 9.8125 72.90625 
L 55.90625 72.90625 
L 55.90625 64.59375 
L 19.671875 64.59375 
L 19.671875 43.015625 
L 54.390625 43.015625 
L 54.390625 34.71875 
L 19.671875 34.71875 
L 19.671875 8.296875 
L 56.78125 8.296875 
L 56.78125 0 
L 9.8125 0 
z
" id="DejaVuSans-69"/>
    </defs>
    <use xlink:href="#DejaVuSans-82"/>
    <use x="64.982422" xlink:href="#DejaVuSans-101"/>
    <use x="126.505859" xlink:href="#DejaVuSans-97"/>
    <use x="187.785156" xlink:href="#DejaVuSans-108"/>
    <use x="215.568359" xlink:href="#DejaVuSans-116"/>
    <use x="254.777344" xlink:href="#DejaVuSans-105"/>
    <use x="282.560547" xlink:href="#DejaVuSans-109"/>
    <use x="379.972656" xlink:href="#DejaVuSans-101"/>
    <use x="441.496094" xlink:href="#DejaVuSans-32"/>
    <use x="473.283203" xlink:href="#DejaVuSans-82"/>
    <use x="538.265625" xlink:href="#DejaVuSans-101"/>
    <use x="599.789062" xlink:href="#DejaVuSans-115"/>
    <use x="651.888672" xlink:href="#DejaVuSans-112"/>
    <use x="715.365234" xlink:href="#DejaVuSans-111"/>
    <use x="776.546875" xlink:href="#DejaVuSans-110"/>
    <use x="839.925781" xlink:href="#DejaVuSans-115"/>
    <use x="892.025391" xlink:href="#DejaVuSans-101"/>
    <use x="953.548828" xlink:href="#DejaVuSans-32"/>
    <use x="985.335938" xlink:href="#DejaVuSans-85"/>
    <use x="1058.529297" xlink:href="#DejaVuSans-110"/>
    <use x="1121.908203" xlink:href="#DejaVuSans-100"/>
    <use x="1185.384766" xlink:href="#DejaVuSans-101"/>
    <use x="1246.908203" xlink:href="#DejaVuSans-114"/>
    <use x="1288.021484" xlink:href="#DejaVuSans-32"/>
    <use x="1319.808594" xlink:href="#DejaVuSans-76"/>
    <use x="1373.771484" xlink:href="#DejaVuSans-111"/>
    <use x="1434.953125" xlink:href="#DejaVuSans-97"/>
    <use x="1496.232422" xlink:href="#DejaVuSans-100"/>
    <use x="1559.708984" xlink:href="#DejaVuSans-32"/>
    <use x="1591.496094" xlink:href="#DejaVuSans-45"/>
    <use x="1627.580078" xlink:href="#DejaVuSans-32"/>
    <use x="1659.367188" xlink:href="#DejaVuSans-101"/>
    <use x="1719.140625" xlink:href="#DejaVuSans-120"/>
    <use x="1776.570312" xlink:href="#DejaVuSans-99"/>
    <use x="1831.550781" xlink:href="#DejaVuSans-108"/>
    <use x="1859.333984" xlink:href="#DejaVuSans-117"/>
    <use x="1922.712891" xlink:href="#DejaVuSans-115"/>
    <use x="1974.8125" xlink:href="#DejaVuSans-105"/>
    <use x="2002.595703" xlink:href="#DejaVuSans-118"/>
    <use x="2061.775391" xlink:href="#DejaVuSans-101"/>
    <use x="2123.298828" xlink:href="#DejaVuSans-108"/>
    <use x="2151.082031" xlink:href="#DejaVuSans-121"/>
    <use x="2210.261719" xlink:href="#DejaVuSans-32"/>
    <use x="2242.048828" xlink:href="#DejaVuSans-66"/>
    <use x="2310.652344" xlink:href="#DejaVuSans-101"/>
    <use x="2372.175781" xlink:href="#DejaVuSans-115"/>
    <use x="2424.275391" xlink:href="#DejaVuSans-116"/>
    <use x="2463.484375" xlink:href="#DejaVuSans-32"/>
    <use x="2495.271484" xlink:href="#DejaVuSans-69"/>
    <use x="2558.455078" xlink:href="#DejaVuSans-102"/>
    <use x="2593.660156" xlink:href="#DejaVuSans-102"/>
    <use x="2628.865234" xlink:href="#DejaVuSans-111"/>
    <use x="2690.046875" xlink:href="#DejaVuSans-114"/>
    <use x="2731.160156" xlink:href="#DejaVuSans-116"/>
   </g>
   <!-- ICMP CDF plot -->
   <g transform="translate(439.137187 31.46875)scale(0.14 -0.14)">
    <use xlink:href="#DejaVuSans-73"/>
    <use x="29.492188" xlink:href="#DejaVuSans-67"/>
    <use x="99.316406" xlink:href="#DejaVuSans-77"/>
    <use x="185.595703" xlink:href="#DejaVuSans-80"/>
    <use x="245.898438" xlink:href="#DejaVuSans-32"/>
    <use x="277.685547" xlink:href="#DejaVuSans-67"/>
    <use x="347.509766" xlink:href="#DejaVuSans-68"/>
    <use x="424.511719" xlink:href="#DejaVuSans-70"/>
    <use x="482.03125" xlink:href="#DejaVuSans-32"/>
    <use x="513.818359" xlink:href="#DejaVuSans-112"/>
    <use x="577.294922" xlink:href="#DejaVuSans-108"/>
    <use x="605.078125" xlink:href="#DejaVuSans-111"/>
    <use x="666.259766" xlink:href="#DejaVuSans-116"/>
   </g>
  </g>
 </g>
 <defs>
  <clipPath id="p4a25d8b538">
   <rect height="476.2296" width="517.968" x="122.13" y="74.2176"/>
  </clipPath>
 </defs>
</svg>
