<?xml version="1.0" encoding="utf-8" standalone="no"?>
<!DOCTYPE svg PUBLIC "-//W3C//DTD SVG 1.1//EN"
  "http://www.w3.org/Graphics/SVG/1.1/DTD/svg11.dtd">
<!-- Created with matplotlib (https://matplotlib.org/) -->
<svg height="618.48pt" version="1.1" viewBox="0 0 977.04 618.48" width="977.04pt" xmlns="http://www.w3.org/2000/svg" xmlns:xlink="http://www.w3.org/1999/xlink">
 <metadata>
  <rdf:RDF xmlns:cc="http://creativecommons.org/ns#" xmlns:dc="http://purl.org/dc/elements/1.1/" xmlns:rdf="http://www.w3.org/1999/02/22-rdf-syntax-ns#">
   <cc:Work>
    <dc:type rdf:resource="http://purl.org/dc/dcmitype/StillImage"/>
    <dc:date>2023-09-15T09:16:26.145073</dc:date>
    <dc:format>image/svg+xml</dc:format>
    <dc:creator>
     <cc:Agent>
      <dc:title>Matplotlib v3.3.4, https://matplotlib.org/</dc:title>
     </cc:Agent>
    </dc:creator>
   </cc:Work>
  </rdf:RDF>
 </metadata>
 <defs>
  <style type="text/css">*{stroke-linecap:butt;stroke-linejoin:round;}</style>
 </defs>
 <g id="figure_1">
  <g id="patch_1">
   <path d="M 0 618.48 
L 977.04 618.48 
L 977.04 0 
L 0 0 
z
" style="fill:#ffffff;"/>
  </g>
  <g id="axes_1">
   <g id="patch_2">
    <path d="M 122.13 550.4472 
L 626.418 550.4472 
L 626.418 74.2176 
L 122.13 74.2176 
z
" style="fill:#e6e6e6;"/>
   </g>
   <g id="matplotlib.axis_1">
    <g id="xtick_1">
     <g id="line2d_1">
      <path clip-path="url(#p8afc662c2a)" d="M 186.943 550.4472 
L 186.943 74.2176 
" style="fill:none;stroke:#ffffff;stroke-linecap:round;"/>
     </g>
     <g id="line2d_2"/>
     <g id="text_1">
      <!-- 10 -->
      <g transform="translate(180.5805 561.545637)scale(0.1 -0.1)">
       <defs>
        <path d="M 12.40625 8.296875 
L 28.515625 8.296875 
L 28.515625 63.921875 
L 10.984375 60.40625 
L 10.984375 69.390625 
L 28.421875 72.90625 
L 38.28125 72.90625 
L 38.28125 8.296875 
L 54.390625 8.296875 
L 54.390625 0 
L 12.40625 0 
z
" id="DejaVuSans-49"/>
        <path d="M 31.78125 66.40625 
Q 24.171875 66.40625 20.328125 58.90625 
Q 16.5 51.421875 16.5 36.375 
Q 16.5 21.390625 20.328125 13.890625 
Q 24.171875 6.390625 31.78125 6.390625 
Q 39.453125 6.390625 43.28125 13.890625 
Q 47.125 21.390625 47.125 36.375 
Q 47.125 51.421875 43.28125 58.90625 
Q 39.453125 66.40625 31.78125 66.40625 
z
M 31.78125 74.21875 
Q 44.046875 74.21875 50.515625 64.515625 
Q 56.984375 54.828125 56.984375 36.375 
Q 56.984375 17.96875 50.515625 8.265625 
Q 44.046875 -1.421875 31.78125 -1.421875 
Q 19.53125 -1.421875 13.0625 8.265625 
Q 6.59375 17.96875 6.59375 36.375 
Q 6.59375 54.828125 13.0625 64.515625 
Q 19.53125 74.21875 31.78125 74.21875 
z
" id="DejaVuSans-48"/>
       </defs>
       <use xlink:href="#DejaVuSans-49"/>
       <use x="63.623047" xlink:href="#DejaVuSans-48"/>
      </g>
     </g>
    </g>
    <g id="xtick_2">
     <g id="line2d_3">
      <path clip-path="url(#p8afc662c2a)" d="M 251.83102 550.4472 
L 251.83102 74.2176 
" style="fill:none;stroke:#ffffff;stroke-linecap:round;"/>
     </g>
     <g id="line2d_4"/>
     <g id="text_2">
      <!-- 20 -->
      <g transform="translate(245.46852 561.545637)scale(0.1 -0.1)">
       <defs>
        <path d="M 19.1875 8.296875 
L 53.609375 8.296875 
L 53.609375 0 
L 7.328125 0 
L 7.328125 8.296875 
Q 12.9375 14.109375 22.625 23.890625 
Q 32.328125 33.6875 34.8125 36.53125 
Q 39.546875 41.84375 41.421875 45.53125 
Q 43.3125 49.21875 43.3125 52.78125 
Q 43.3125 58.59375 39.234375 62.25 
Q 35.15625 65.921875 28.609375 65.921875 
Q 23.96875 65.921875 18.8125 64.3125 
Q 13.671875 62.703125 7.8125 59.421875 
L 7.8125 69.390625 
Q 13.765625 71.78125 18.9375 73 
Q 24.125 74.21875 28.421875 74.21875 
Q 39.75 74.21875 46.484375 68.546875 
Q 53.21875 62.890625 53.21875 53.421875 
Q 53.21875 48.921875 51.53125 44.890625 
Q 49.859375 40.875 45.40625 35.40625 
Q 44.1875 33.984375 37.640625 27.21875 
Q 31.109375 20.453125 19.1875 8.296875 
z
" id="DejaVuSans-50"/>
       </defs>
       <use xlink:href="#DejaVuSans-50"/>
       <use x="63.623047" xlink:href="#DejaVuSans-48"/>
      </g>
     </g>
    </g>
    <g id="xtick_3">
     <g id="line2d_5">
      <path clip-path="url(#p8afc662c2a)" d="M 316.71904 550.4472 
L 316.71904 74.2176 
" style="fill:none;stroke:#ffffff;stroke-linecap:round;"/>
     </g>
     <g id="line2d_6"/>
     <g id="text_3">
      <!-- 30 -->
      <g transform="translate(310.35654 561.545637)scale(0.1 -0.1)">
       <defs>
        <path d="M 40.578125 39.3125 
Q 47.65625 37.796875 51.625 33 
Q 55.609375 28.21875 55.609375 21.1875 
Q 55.609375 10.40625 48.1875 4.484375 
Q 40.765625 -1.421875 27.09375 -1.421875 
Q 22.515625 -1.421875 17.65625 -0.515625 
Q 12.796875 0.390625 7.625 2.203125 
L 7.625 11.71875 
Q 11.71875 9.328125 16.59375 8.109375 
Q 21.484375 6.890625 26.8125 6.890625 
Q 36.078125 6.890625 40.9375 10.546875 
Q 45.796875 14.203125 45.796875 21.1875 
Q 45.796875 27.640625 41.28125 31.265625 
Q 36.765625 34.90625 28.71875 34.90625 
L 20.21875 34.90625 
L 20.21875 43.015625 
L 29.109375 43.015625 
Q 36.375 43.015625 40.234375 45.921875 
Q 44.09375 48.828125 44.09375 54.296875 
Q 44.09375 59.90625 40.109375 62.90625 
Q 36.140625 65.921875 28.71875 65.921875 
Q 24.65625 65.921875 20.015625 65.03125 
Q 15.375 64.15625 9.8125 62.3125 
L 9.8125 71.09375 
Q 15.4375 72.65625 20.34375 73.4375 
Q 25.25 74.21875 29.59375 74.21875 
Q 40.828125 74.21875 47.359375 69.109375 
Q 53.90625 64.015625 53.90625 55.328125 
Q 53.90625 49.265625 50.4375 45.09375 
Q 46.96875 40.921875 40.578125 39.3125 
z
" id="DejaVuSans-51"/>
       </defs>
       <use xlink:href="#DejaVuSans-51"/>
       <use x="63.623047" xlink:href="#DejaVuSans-48"/>
      </g>
     </g>
    </g>
    <g id="xtick_4">
     <g id="line2d_7">
      <path clip-path="url(#p8afc662c2a)" d="M 381.60706 550.4472 
L 381.60706 74.2176 
" style="fill:none;stroke:#ffffff;stroke-linecap:round;"/>
     </g>
     <g id="line2d_8"/>
     <g id="text_4">
      <!-- 40 -->
      <g transform="translate(375.24456 561.545637)scale(0.1 -0.1)">
       <defs>
        <path d="M 37.796875 64.3125 
L 12.890625 25.390625 
L 37.796875 25.390625 
z
M 35.203125 72.90625 
L 47.609375 72.90625 
L 47.609375 25.390625 
L 58.015625 25.390625 
L 58.015625 17.1875 
L 47.609375 17.1875 
L 47.609375 0 
L 37.796875 0 
L 37.796875 17.1875 
L 4.890625 17.1875 
L 4.890625 26.703125 
z
" id="DejaVuSans-52"/>
       </defs>
       <use xlink:href="#DejaVuSans-52"/>
       <use x="63.623047" xlink:href="#DejaVuSans-48"/>
      </g>
     </g>
    </g>
    <g id="xtick_5">
     <g id="line2d_9">
      <path clip-path="url(#p8afc662c2a)" d="M 446.49508 550.4472 
L 446.49508 74.2176 
" style="fill:none;stroke:#ffffff;stroke-linecap:round;"/>
     </g>
     <g id="line2d_10"/>
     <g id="text_5">
      <!-- 50 -->
      <g transform="translate(440.13258 561.545637)scale(0.1 -0.1)">
       <defs>
        <path d="M 10.796875 72.90625 
L 49.515625 72.90625 
L 49.515625 64.59375 
L 19.828125 64.59375 
L 19.828125 46.734375 
Q 21.96875 47.46875 24.109375 47.828125 
Q 26.265625 48.1875 28.421875 48.1875 
Q 40.625 48.1875 47.75 41.5 
Q 54.890625 34.8125 54.890625 23.390625 
Q 54.890625 11.625 47.5625 5.09375 
Q 40.234375 -1.421875 26.90625 -1.421875 
Q 22.3125 -1.421875 17.546875 -0.640625 
Q 12.796875 0.140625 7.71875 1.703125 
L 7.71875 11.625 
Q 12.109375 9.234375 16.796875 8.0625 
Q 21.484375 6.890625 26.703125 6.890625 
Q 35.15625 6.890625 40.078125 11.328125 
Q 45.015625 15.765625 45.015625 23.390625 
Q 45.015625 31 40.078125 35.4375 
Q 35.15625 39.890625 26.703125 39.890625 
Q 22.75 39.890625 18.8125 39.015625 
Q 14.890625 38.140625 10.796875 36.28125 
z
" id="DejaVuSans-53"/>
       </defs>
       <use xlink:href="#DejaVuSans-53"/>
       <use x="63.623047" xlink:href="#DejaVuSans-48"/>
      </g>
     </g>
    </g>
    <g id="xtick_6">
     <g id="line2d_11">
      <path clip-path="url(#p8afc662c2a)" d="M 511.3831 550.4472 
L 511.3831 74.2176 
" style="fill:none;stroke:#ffffff;stroke-linecap:round;"/>
     </g>
     <g id="line2d_12"/>
     <g id="text_6">
      <!-- 60 -->
      <g transform="translate(505.0206 561.545637)scale(0.1 -0.1)">
       <defs>
        <path d="M 33.015625 40.375 
Q 26.375 40.375 22.484375 35.828125 
Q 18.609375 31.296875 18.609375 23.390625 
Q 18.609375 15.53125 22.484375 10.953125 
Q 26.375 6.390625 33.015625 6.390625 
Q 39.65625 6.390625 43.53125 10.953125 
Q 47.40625 15.53125 47.40625 23.390625 
Q 47.40625 31.296875 43.53125 35.828125 
Q 39.65625 40.375 33.015625 40.375 
z
M 52.59375 71.296875 
L 52.59375 62.3125 
Q 48.875 64.0625 45.09375 64.984375 
Q 41.3125 65.921875 37.59375 65.921875 
Q 27.828125 65.921875 22.671875 59.328125 
Q 17.53125 52.734375 16.796875 39.40625 
Q 19.671875 43.65625 24.015625 45.921875 
Q 28.375 48.1875 33.59375 48.1875 
Q 44.578125 48.1875 50.953125 41.515625 
Q 57.328125 34.859375 57.328125 23.390625 
Q 57.328125 12.15625 50.6875 5.359375 
Q 44.046875 -1.421875 33.015625 -1.421875 
Q 20.359375 -1.421875 13.671875 8.265625 
Q 6.984375 17.96875 6.984375 36.375 
Q 6.984375 53.65625 15.1875 63.9375 
Q 23.390625 74.21875 37.203125 74.21875 
Q 40.921875 74.21875 44.703125 73.484375 
Q 48.484375 72.75 52.59375 71.296875 
z
" id="DejaVuSans-54"/>
       </defs>
       <use xlink:href="#DejaVuSans-54"/>
       <use x="63.623047" xlink:href="#DejaVuSans-48"/>
      </g>
     </g>
    </g>
    <g id="xtick_7">
     <g id="line2d_13">
      <path clip-path="url(#p8afc662c2a)" d="M 576.27112 550.4472 
L 576.27112 74.2176 
" style="fill:none;stroke:#ffffff;stroke-linecap:round;"/>
     </g>
     <g id="line2d_14"/>
     <g id="text_7">
      <!-- 70 -->
      <g transform="translate(569.90862 561.545637)scale(0.1 -0.1)">
       <defs>
        <path d="M 8.203125 72.90625 
L 55.078125 72.90625 
L 55.078125 68.703125 
L 28.609375 0 
L 18.3125 0 
L 43.21875 64.59375 
L 8.203125 64.59375 
z
" id="DejaVuSans-55"/>
       </defs>
       <use xlink:href="#DejaVuSans-55"/>
       <use x="63.623047" xlink:href="#DejaVuSans-48"/>
      </g>
     </g>
    </g>
    <g id="xtick_8">
     <g id="line2d_15"/>
    </g>
    <g id="xtick_9">
     <g id="line2d_16"/>
    </g>
    <g id="xtick_10">
     <g id="line2d_17"/>
    </g>
    <g id="xtick_11">
     <g id="line2d_18"/>
    </g>
    <g id="xtick_12">
     <g id="line2d_19"/>
    </g>
    <g id="xtick_13">
     <g id="line2d_20"/>
    </g>
    <g id="xtick_14">
     <g id="line2d_21"/>
    </g>
    <g id="xtick_15">
     <g id="line2d_22"/>
    </g>
    <g id="xtick_16">
     <g id="line2d_23"/>
    </g>
    <g id="xtick_17">
     <g id="line2d_24"/>
    </g>
    <g id="xtick_18">
     <g id="line2d_25"/>
    </g>
    <g id="xtick_19">
     <g id="line2d_26"/>
    </g>
    <g id="xtick_20">
     <g id="line2d_27"/>
    </g>
    <g id="xtick_21">
     <g id="line2d_28"/>
    </g>
    <g id="xtick_22">
     <g id="line2d_29"/>
    </g>
    <g id="xtick_23">
     <g id="line2d_30"/>
    </g>
    <g id="xtick_24">
     <g id="line2d_31"/>
    </g>
    <g id="xtick_25">
     <g id="line2d_32"/>
    </g>
    <g id="xtick_26">
     <g id="line2d_33"/>
    </g>
    <g id="xtick_27">
     <g id="line2d_34"/>
    </g>
    <g id="xtick_28">
     <g id="line2d_35"/>
    </g>
    <g id="xtick_29">
     <g id="line2d_36"/>
    </g>
    <g id="xtick_30">
     <g id="line2d_37"/>
    </g>
    <g id="xtick_31">
     <g id="line2d_38"/>
    </g>
    <g id="xtick_32">
     <g id="line2d_39"/>
    </g>
    <g id="xtick_33">
     <g id="line2d_40"/>
    </g>
    <g id="xtick_34">
     <g id="line2d_41"/>
    </g>
    <g id="xtick_35">
     <g id="line2d_42"/>
    </g>
    <g id="xtick_36">
     <g id="line2d_43"/>
    </g>
    <g id="xtick_37">
     <g id="line2d_44"/>
    </g>
    <g id="xtick_38">
     <g id="line2d_45"/>
    </g>
    <g id="text_8">
     <!-- Time (s) -->
     <g transform="translate(353.945094 575.223763)scale(0.1 -0.1)">
      <defs>
       <path d="M -0.296875 72.90625 
L 61.375 72.90625 
L 61.375 64.59375 
L 35.5 64.59375 
L 35.5 0 
L 25.59375 0 
L 25.59375 64.59375 
L -0.296875 64.59375 
z
" id="DejaVuSans-84"/>
       <path d="M 9.421875 54.6875 
L 18.40625 54.6875 
L 18.40625 0 
L 9.421875 0 
z
M 9.421875 75.984375 
L 18.40625 75.984375 
L 18.40625 64.59375 
L 9.421875 64.59375 
z
" id="DejaVuSans-105"/>
       <path d="M 52 44.1875 
Q 55.375 50.25 60.0625 53.125 
Q 64.75 56 71.09375 56 
Q 79.640625 56 84.28125 50.015625 
Q 88.921875 44.046875 88.921875 33.015625 
L 88.921875 0 
L 79.890625 0 
L 79.890625 32.71875 
Q 79.890625 40.578125 77.09375 44.375 
Q 74.3125 48.1875 68.609375 48.1875 
Q 61.625 48.1875 57.5625 43.546875 
Q 53.515625 38.921875 53.515625 30.90625 
L 53.515625 0 
L 44.484375 0 
L 44.484375 32.71875 
Q 44.484375 40.625 41.703125 44.40625 
Q 38.921875 48.1875 33.109375 48.1875 
Q 26.21875 48.1875 22.15625 43.53125 
Q 18.109375 38.875 18.109375 30.90625 
L 18.109375 0 
L 9.078125 0 
L 9.078125 54.6875 
L 18.109375 54.6875 
L 18.109375 46.1875 
Q 21.1875 51.21875 25.484375 53.609375 
Q 29.78125 56 35.6875 56 
Q 41.65625 56 45.828125 52.96875 
Q 50 49.953125 52 44.1875 
z
" id="DejaVuSans-109"/>
       <path d="M 56.203125 29.59375 
L 56.203125 25.203125 
L 14.890625 25.203125 
Q 15.484375 15.921875 20.484375 11.0625 
Q 25.484375 6.203125 34.421875 6.203125 
Q 39.59375 6.203125 44.453125 7.46875 
Q 49.3125 8.734375 54.109375 11.28125 
L 54.109375 2.78125 
Q 49.265625 0.734375 44.1875 -0.34375 
Q 39.109375 -1.421875 33.890625 -1.421875 
Q 20.796875 -1.421875 13.15625 6.1875 
Q 5.515625 13.8125 5.515625 26.8125 
Q 5.515625 40.234375 12.765625 48.109375 
Q 20.015625 56 32.328125 56 
Q 43.359375 56 49.78125 48.890625 
Q 56.203125 41.796875 56.203125 29.59375 
z
M 47.21875 32.234375 
Q 47.125 39.59375 43.09375 43.984375 
Q 39.0625 48.390625 32.421875 48.390625 
Q 24.90625 48.390625 20.390625 44.140625 
Q 15.875 39.890625 15.1875 32.171875 
z
" id="DejaVuSans-101"/>
       <path id="DejaVuSans-32"/>
       <path d="M 31 75.875 
Q 24.46875 64.65625 21.28125 53.65625 
Q 18.109375 42.671875 18.109375 31.390625 
Q 18.109375 20.125 21.3125 9.0625 
Q 24.515625 -2 31 -13.1875 
L 23.1875 -13.1875 
Q 15.875 -1.703125 12.234375 9.375 
Q 8.59375 20.453125 8.59375 31.390625 
Q 8.59375 42.28125 12.203125 53.3125 
Q 15.828125 64.359375 23.1875 75.875 
z
" id="DejaVuSans-40"/>
       <path d="M 44.28125 53.078125 
L 44.28125 44.578125 
Q 40.484375 46.53125 36.375 47.5 
Q 32.28125 48.484375 27.875 48.484375 
Q 21.1875 48.484375 17.84375 46.4375 
Q 14.5 44.390625 14.5 40.28125 
Q 14.5 37.15625 16.890625 35.375 
Q 19.28125 33.59375 26.515625 31.984375 
L 29.59375 31.296875 
Q 39.15625 29.25 43.1875 25.515625 
Q 47.21875 21.78125 47.21875 15.09375 
Q 47.21875 7.46875 41.1875 3.015625 
Q 35.15625 -1.421875 24.609375 -1.421875 
Q 20.21875 -1.421875 15.453125 -0.5625 
Q 10.6875 0.296875 5.421875 2 
L 5.421875 11.28125 
Q 10.40625 8.6875 15.234375 7.390625 
Q 20.0625 6.109375 24.8125 6.109375 
Q 31.15625 6.109375 34.5625 8.28125 
Q 37.984375 10.453125 37.984375 14.40625 
Q 37.984375 18.0625 35.515625 20.015625 
Q 33.0625 21.96875 24.703125 23.78125 
L 21.578125 24.515625 
Q 13.234375 26.265625 9.515625 29.90625 
Q 5.8125 33.546875 5.8125 39.890625 
Q 5.8125 47.609375 11.28125 51.796875 
Q 16.75 56 26.8125 56 
Q 31.78125 56 36.171875 55.265625 
Q 40.578125 54.546875 44.28125 53.078125 
z
" id="DejaVuSans-115"/>
       <path d="M 8.015625 75.875 
L 15.828125 75.875 
Q 23.140625 64.359375 26.78125 53.3125 
Q 30.421875 42.28125 30.421875 31.390625 
Q 30.421875 20.453125 26.78125 9.375 
Q 23.140625 -1.703125 15.828125 -13.1875 
L 8.015625 -13.1875 
Q 14.5 -2 17.703125 9.0625 
Q 20.90625 20.125 20.90625 31.390625 
Q 20.90625 42.671875 17.703125 53.65625 
Q 14.5 64.65625 8.015625 75.875 
z
" id="DejaVuSans-41"/>
      </defs>
      <use xlink:href="#DejaVuSans-84"/>
      <use x="57.958984" xlink:href="#DejaVuSans-105"/>
      <use x="85.742188" xlink:href="#DejaVuSans-109"/>
      <use x="183.154297" xlink:href="#DejaVuSans-101"/>
      <use x="244.677734" xlink:href="#DejaVuSans-32"/>
      <use x="276.464844" xlink:href="#DejaVuSans-40"/>
      <use x="315.478516" xlink:href="#DejaVuSans-115"/>
      <use x="367.578125" xlink:href="#DejaVuSans-41"/>
     </g>
    </g>
   </g>
   <g id="matplotlib.axis_2">
    <g id="ytick_1">
     <g id="line2d_46">
      <path clip-path="url(#p8afc662c2a)" d="M 122.13 545.778282 
L 626.418 545.778282 
" style="fill:none;stroke:#ffffff;stroke-linecap:round;"/>
     </g>
     <g id="line2d_47"/>
     <g id="text_9">
      <!-- 0 -->
      <g transform="translate(112.2675 549.577501)scale(0.1 -0.1)">
       <use xlink:href="#DejaVuSans-48"/>
      </g>
     </g>
    </g>
    <g id="ytick_2">
     <g id="line2d_48">
      <path clip-path="url(#p8afc662c2a)" d="M 122.13 469.634348 
L 626.418 469.634348 
" style="fill:none;stroke:#ffffff;stroke-linecap:round;"/>
     </g>
     <g id="line2d_49"/>
     <g id="text_10">
      <!-- 20000 -->
      <g transform="translate(86.8175 473.433566)scale(0.1 -0.1)">
       <use xlink:href="#DejaVuSans-50"/>
       <use x="63.623047" xlink:href="#DejaVuSans-48"/>
       <use x="127.246094" xlink:href="#DejaVuSans-48"/>
       <use x="190.869141" xlink:href="#DejaVuSans-48"/>
       <use x="254.492188" xlink:href="#DejaVuSans-48"/>
      </g>
     </g>
    </g>
    <g id="ytick_3">
     <g id="line2d_50">
      <path clip-path="url(#p8afc662c2a)" d="M 122.13 393.490413 
L 626.418 393.490413 
" style="fill:none;stroke:#ffffff;stroke-linecap:round;"/>
     </g>
     <g id="line2d_51"/>
     <g id="text_11">
      <!-- 40000 -->
      <g transform="translate(86.8175 397.289632)scale(0.1 -0.1)">
       <use xlink:href="#DejaVuSans-52"/>
       <use x="63.623047" xlink:href="#DejaVuSans-48"/>
       <use x="127.246094" xlink:href="#DejaVuSans-48"/>
       <use x="190.869141" xlink:href="#DejaVuSans-48"/>
       <use x="254.492188" xlink:href="#DejaVuSans-48"/>
      </g>
     </g>
    </g>
    <g id="ytick_4">
     <g id="line2d_52">
      <path clip-path="url(#p8afc662c2a)" d="M 122.13 317.346478 
L 626.418 317.346478 
" style="fill:none;stroke:#ffffff;stroke-linecap:round;"/>
     </g>
     <g id="line2d_53"/>
     <g id="text_12">
      <!-- 60000 -->
      <g transform="translate(86.8175 321.145697)scale(0.1 -0.1)">
       <use xlink:href="#DejaVuSans-54"/>
       <use x="63.623047" xlink:href="#DejaVuSans-48"/>
       <use x="127.246094" xlink:href="#DejaVuSans-48"/>
       <use x="190.869141" xlink:href="#DejaVuSans-48"/>
       <use x="254.492188" xlink:href="#DejaVuSans-48"/>
      </g>
     </g>
    </g>
    <g id="ytick_5">
     <g id="line2d_54">
      <path clip-path="url(#p8afc662c2a)" d="M 122.13 241.202543 
L 626.418 241.202543 
" style="fill:none;stroke:#ffffff;stroke-linecap:round;"/>
     </g>
     <g id="line2d_55"/>
     <g id="text_13">
      <!-- 80000 -->
      <g transform="translate(86.8175 245.001762)scale(0.1 -0.1)">
       <defs>
        <path d="M 31.78125 34.625 
Q 24.75 34.625 20.71875 30.859375 
Q 16.703125 27.09375 16.703125 20.515625 
Q 16.703125 13.921875 20.71875 10.15625 
Q 24.75 6.390625 31.78125 6.390625 
Q 38.8125 6.390625 42.859375 10.171875 
Q 46.921875 13.96875 46.921875 20.515625 
Q 46.921875 27.09375 42.890625 30.859375 
Q 38.875 34.625 31.78125 34.625 
z
M 21.921875 38.8125 
Q 15.578125 40.375 12.03125 44.71875 
Q 8.5 49.078125 8.5 55.328125 
Q 8.5 64.0625 14.71875 69.140625 
Q 20.953125 74.21875 31.78125 74.21875 
Q 42.671875 74.21875 48.875 69.140625 
Q 55.078125 64.0625 55.078125 55.328125 
Q 55.078125 49.078125 51.53125 44.71875 
Q 48 40.375 41.703125 38.8125 
Q 48.828125 37.15625 52.796875 32.3125 
Q 56.78125 27.484375 56.78125 20.515625 
Q 56.78125 9.90625 50.3125 4.234375 
Q 43.84375 -1.421875 31.78125 -1.421875 
Q 19.734375 -1.421875 13.25 4.234375 
Q 6.78125 9.90625 6.78125 20.515625 
Q 6.78125 27.484375 10.78125 32.3125 
Q 14.796875 37.15625 21.921875 38.8125 
z
M 18.3125 54.390625 
Q 18.3125 48.734375 21.84375 45.5625 
Q 25.390625 42.390625 31.78125 42.390625 
Q 38.140625 42.390625 41.71875 45.5625 
Q 45.3125 48.734375 45.3125 54.390625 
Q 45.3125 60.0625 41.71875 63.234375 
Q 38.140625 66.40625 31.78125 66.40625 
Q 25.390625 66.40625 21.84375 63.234375 
Q 18.3125 60.0625 18.3125 54.390625 
z
" id="DejaVuSans-56"/>
       </defs>
       <use xlink:href="#DejaVuSans-56"/>
       <use x="63.623047" xlink:href="#DejaVuSans-48"/>
       <use x="127.246094" xlink:href="#DejaVuSans-48"/>
       <use x="190.869141" xlink:href="#DejaVuSans-48"/>
       <use x="254.492188" xlink:href="#DejaVuSans-48"/>
      </g>
     </g>
    </g>
    <g id="ytick_6">
     <g id="line2d_56">
      <path clip-path="url(#p8afc662c2a)" d="M 122.13 165.058609 
L 626.418 165.058609 
" style="fill:none;stroke:#ffffff;stroke-linecap:round;"/>
     </g>
     <g id="line2d_57"/>
     <g id="text_14">
      <!-- 100000 -->
      <g transform="translate(80.455 168.857827)scale(0.1 -0.1)">
       <use xlink:href="#DejaVuSans-49"/>
       <use x="63.623047" xlink:href="#DejaVuSans-48"/>
       <use x="127.246094" xlink:href="#DejaVuSans-48"/>
       <use x="190.869141" xlink:href="#DejaVuSans-48"/>
       <use x="254.492188" xlink:href="#DejaVuSans-48"/>
       <use x="318.115234" xlink:href="#DejaVuSans-48"/>
      </g>
     </g>
    </g>
    <g id="ytick_7">
     <g id="line2d_58">
      <path clip-path="url(#p8afc662c2a)" d="M 122.13 88.914674 
L 626.418 88.914674 
" style="fill:none;stroke:#ffffff;stroke-linecap:round;"/>
     </g>
     <g id="line2d_59"/>
     <g id="text_15">
      <!-- 120000 -->
      <g transform="translate(80.455 92.713893)scale(0.1 -0.1)">
       <use xlink:href="#DejaVuSans-49"/>
       <use x="63.623047" xlink:href="#DejaVuSans-50"/>
       <use x="127.246094" xlink:href="#DejaVuSans-48"/>
       <use x="190.869141" xlink:href="#DejaVuSans-48"/>
       <use x="254.492188" xlink:href="#DejaVuSans-48"/>
       <use x="318.115234" xlink:href="#DejaVuSans-48"/>
      </g>
     </g>
    </g>
    <g id="ytick_8">
     <g id="line2d_60"/>
    </g>
    <g id="ytick_9">
     <g id="line2d_61"/>
    </g>
    <g id="ytick_10">
     <g id="line2d_62"/>
    </g>
    <g id="ytick_11">
     <g id="line2d_63"/>
    </g>
    <g id="ytick_12">
     <g id="line2d_64"/>
    </g>
    <g id="ytick_13">
     <g id="line2d_65"/>
    </g>
    <g id="ytick_14">
     <g id="line2d_66"/>
    </g>
    <g id="ytick_15">
     <g id="line2d_67"/>
    </g>
    <g id="ytick_16">
     <g id="line2d_68"/>
    </g>
    <g id="ytick_17">
     <g id="line2d_69"/>
    </g>
    <g id="ytick_18">
     <g id="line2d_70"/>
    </g>
    <g id="ytick_19">
     <g id="line2d_71"/>
    </g>
    <g id="ytick_20">
     <g id="line2d_72"/>
    </g>
    <g id="ytick_21">
     <g id="line2d_73"/>
    </g>
    <g id="ytick_22">
     <g id="line2d_74"/>
    </g>
    <g id="ytick_23">
     <g id="line2d_75"/>
    </g>
    <g id="ytick_24">
     <g id="line2d_76"/>
    </g>
    <g id="ytick_25">
     <g id="line2d_77"/>
    </g>
    <g id="text_16">
     <!-- Bytes -->
     <g transform="translate(74.375312 326.36365)rotate(-90)scale(0.1 -0.1)">
      <defs>
       <path d="M 19.671875 34.8125 
L 19.671875 8.109375 
L 35.5 8.109375 
Q 43.453125 8.109375 47.28125 11.40625 
Q 51.125 14.703125 51.125 21.484375 
Q 51.125 28.328125 47.28125 31.5625 
Q 43.453125 34.8125 35.5 34.8125 
z
M 19.671875 64.796875 
L 19.671875 42.828125 
L 34.28125 42.828125 
Q 41.5 42.828125 45.03125 45.53125 
Q 48.578125 48.25 48.578125 53.8125 
Q 48.578125 59.328125 45.03125 62.0625 
Q 41.5 64.796875 34.28125 64.796875 
z
M 9.8125 72.90625 
L 35.015625 72.90625 
Q 46.296875 72.90625 52.390625 68.21875 
Q 58.5 63.53125 58.5 54.890625 
Q 58.5 48.1875 55.375 44.234375 
Q 52.25 40.28125 46.1875 39.3125 
Q 53.46875 37.75 57.5 32.78125 
Q 61.53125 27.828125 61.53125 20.40625 
Q 61.53125 10.640625 54.890625 5.3125 
Q 48.25 0 35.984375 0 
L 9.8125 0 
z
" id="DejaVuSans-66"/>
       <path d="M 32.171875 -5.078125 
Q 28.375 -14.84375 24.75 -17.8125 
Q 21.140625 -20.796875 15.09375 -20.796875 
L 7.90625 -20.796875 
L 7.90625 -13.28125 
L 13.1875 -13.28125 
Q 16.890625 -13.28125 18.9375 -11.515625 
Q 21 -9.765625 23.484375 -3.21875 
L 25.09375 0.875 
L 2.984375 54.6875 
L 12.5 54.6875 
L 29.59375 11.921875 
L 46.6875 54.6875 
L 56.203125 54.6875 
z
" id="DejaVuSans-121"/>
       <path d="M 18.3125 70.21875 
L 18.3125 54.6875 
L 36.8125 54.6875 
L 36.8125 47.703125 
L 18.3125 47.703125 
L 18.3125 18.015625 
Q 18.3125 11.328125 20.140625 9.421875 
Q 21.96875 7.515625 27.59375 7.515625 
L 36.8125 7.515625 
L 36.8125 0 
L 27.59375 0 
Q 17.1875 0 13.234375 3.875 
Q 9.28125 7.765625 9.28125 18.015625 
L 9.28125 47.703125 
L 2.6875 47.703125 
L 2.6875 54.6875 
L 9.28125 54.6875 
L 9.28125 70.21875 
z
" id="DejaVuSans-116"/>
      </defs>
      <use xlink:href="#DejaVuSans-66"/>
      <use x="68.603516" xlink:href="#DejaVuSans-121"/>
      <use x="127.783203" xlink:href="#DejaVuSans-116"/>
      <use x="166.992188" xlink:href="#DejaVuSans-101"/>
      <use x="228.515625" xlink:href="#DejaVuSans-115"/>
     </g>
    </g>
   </g>
   <g id="line2d_78">
    <path clip-path="url(#p8afc662c2a)" d="M 122.220297 545.778282 
L 153.056147 545.778282 
L 154.434276 286.393969 
L 155.886132 545.778282 
L 157.289838 499.665515 
L 158.637426 511.193707 
L 160.011264 482.373228 
L 161.412438 424.732269 
L 162.754031 522.721899 
L 164.095722 493.90142 
L 165.500755 424.732269 
L 166.876954 493.650145 
L 168.222881 545.778282 
L 169.650745 545.778282 
L 171.103273 499.665515 
L 172.492599 442.024557 
L 173.842021 545.778282 
L 176.584653 545.778282 
L 177.959537 499.665515 
L 179.312042 545.778282 
L 180.681824 470.845036 
L 182.069476 488.137324 
L 183.460312 511.193707 
L 184.80348 545.778282 
L 186.17922 430.496365 
L 187.526536 453.552749 
L 190.285931 545.778282 
L 193.048921 453.552749 
L 194.447446 545.778282 
L 195.84055 482.373228 
L 197.238491 384.383598 
L 198.642573 424.732269 
L 200.006495 424.732269 
L 201.367736 453.552749 
L 202.724589 522.721899 
L 204.085289 487.886049 
L 205.446639 482.373228 
L 206.865885 378.619502 
L 208.243288 487.886049 
L 209.598461 545.778282 
L 211.070234 545.778282 
L 212.419476 499.665515 
L 213.767225 430.496365 
L 215.147855 505.429611 
L 216.494143 476.609132 
L 217.831474 545.778282 
L 219.171071 476.609132 
L 220.523861 522.470624 
L 221.918383 488.137324 
L 223.28688 361.327215 
L 224.69035 522.721899 
L 226.04281 349.799023 
L 227.442814 246.045298 
L 228.86495 303.686256 
L 230.330074 240.281202 
L 231.687566 361.327215 
L 234.413801 153.819764 
L 235.867148 504.927061 
L 237.244121 476.609132 
L 238.674014 309.450352 
L 240.074584 545.778282 
L 241.425817 367.091311 
L 242.804086 297.92216 
L 245.582641 545.778282 
L 247.029632 436.260461 
L 248.405577 545.778282 
L 249.789126 465.08094 
L 251.169345 488.137324 
L 252.528844 453.552749 
L 253.873692 344.034927 
L 255.279179 401.675886 
L 256.637219 257.573489 
L 257.99725 465.08094 
L 259.388414 130.76338 
L 260.752987 453.552749 
L 262.088749 545.778282 
L 263.585023 522.721899 
L 264.933736 459.316844 
L 266.286714 487.886049 
L 267.621935 545.778282 
L 268.977541 124.999285 
L 270.351378 234.517106 
L 271.734535 303.686256 
L 273.098523 459.316844 
L 274.438394 436.260461 
L 275.793145 361.327215 
L 277.127287 545.778282 
L 278.469833 78.886518 
L 279.820639 355.563119 
L 281.188572 292.158064 
L 285.311335 545.778282 
L 286.676813 470.845036 
L 288.062328 465.08094 
L 289.414821 442.024557 
L 290.788105 303.686256 
L 292.161303 545.778282 
L 293.538867 188.404339 
L 294.912464 355.563119 
L 296.266354 395.91179 
L 297.702009 297.92216 
L 299.081641 401.675886 
L 300.442163 453.552749 
L 301.79079 401.675886 
L 303.126426 309.450352 
L 304.468092 545.778282 
L 305.824715 505.429611 
L 307.182026 418.968173 
L 308.545752 251.809393 
L 309.918775 234.517106 
L 312.621236 344.034927 
L 313.961925 384.383598 
L 315.341971 240.281202 
L 316.704733 222.988914 
L 318.046532 263.337585 
L 319.426259 424.732269 
L 320.76691 545.778282 
L 322.112002 430.496365 
L 323.539264 545.778282 
L 324.885348 424.732269 
L 326.235634 545.778282 
L 327.580732 344.034927 
L 329.026893 268.599131 
L 330.396078 522.721899 
L 331.748553 205.696627 
L 333.088787 545.778282 
L 334.451193 447.788653 
L 335.819463 205.696627 
L 337.178295 199.932531 
L 338.539405 355.563119 
L 339.880005 545.778282 
L 341.221993 320.978544 
L 342.578766 378.619502 
L 343.97645 326.74264 
L 345.388999 286.393969 
L 346.752062 488.137324 
L 348.109893 505.429611 
L 349.452579 545.778282 
L 350.850915 217.224818 
L 352.212717 482.373228 
L 353.557431 545.778282 
L 354.9412 499.665515 
L 356.287648 470.845036 
L 357.660464 378.619502 
L 359.058594 326.74264 
L 360.409185 315.214448 
L 361.758515 372.855407 
L 363.090051 499.665515 
L 364.444057 315.214448 
L 365.803517 522.721899 
L 367.144757 395.91179 
L 368.502694 418.968173 
L 369.868161 390.147694 
L 371.25316 400.670786 
L 372.615866 545.778282 
L 374.061271 418.968173 
L 375.48742 424.732269 
L 376.865336 314.460623 
L 378.237993 545.778282 
L 379.63285 355.563119 
L 381.013111 326.74264 
L 382.369464 545.778282 
L 383.805291 499.665515 
L 385.182316 545.778282 
L 386.538361 499.41424 
L 387.901637 459.316844 
L 389.313252 320.978544 
L 390.68606 499.665515 
L 392.037449 545.778282 
L 394.765816 545.778282 
L 396.109923 476.609132 
L 397.836534 505.429611 
L 399.247522 447.788653 
L 400.629249 424.732269 
L 402.003129 263.337585 
L 403.348681 545.778282 
L 404.759357 401.675886 
L 406.102503 442.024557 
L 407.458359 545.778282 
L 408.829236 361.327215 
L 410.176841 269.101681 
L 412.871137 545.778282 
L 415.591456 545.778282 
L 416.934473 361.327215 
L 418.309089 257.573489 
L 419.67203 499.665515 
L 421.17125 320.978544 
L 422.553567 124.999285 
L 423.942764 124.999285 
L 425.276835 436.260461 
L 426.641257 407.439982 
L 428.054362 251.809393 
L 429.409169 395.91179 
L 430.787364 418.968173 
L 432.140888 482.373228 
L 433.516393 360.748521 
L 434.880015 332.506736 
L 436.285818 188.404339 
L 437.632133 545.778282 
L 438.983383 442.024557 
L 440.364109 545.778282 
L 443.090519 424.732269 
L 444.45811 545.778282 
L 445.878647 372.855407 
L 447.294368 344.034927 
L 448.650818 390.147694 
L 450.086647 315.214448 
L 451.465476 516.957803 
L 452.809857 418.968173 
L 454.227672 182.640243 
L 455.596049 326.74264 
L 456.953324 303.686256 
L 459.671867 493.90142 
L 461.006161 545.778282 
L 462.441705 545.778282 
L 463.870062 367.091311 
L 465.268433 488.137324 
L 466.637827 269.101681 
L 467.984775 349.799023 
L 469.335906 545.778282 
L 470.697696 292.158064 
L 472.056164 395.91179 
L 473.394179 545.778282 
L 474.760237 407.439982 
L 476.118862 188.404339 
L 477.48909 315.214448 
L 478.845997 465.08094 
L 480.179716 332.506736 
L 481.54883 286.393969 
L 484.273434 338.270831 
L 485.619053 292.158064 
L 486.987519 320.978544 
L 488.357743 545.778282 
L 489.704205 453.552749 
L 491.061756 459.316844 
L 492.43648 488.137324 
L 493.798375 142.291572 
L 495.140339 545.778282 
L 496.502685 211.460722 
L 497.94011 188.404339 
L 499.313568 390.147694 
L 500.675391 344.034927 
L 502.040734 130.76338 
L 503.416264 176.876147 
L 506.232241 545.778282 
L 507.597899 274.865777 
L 508.964129 269.101681 
L 510.316338 136.527476 
L 511.667661 286.393969 
L 513.014538 545.778282 
L 514.347944 459.316844 
L 515.693784 344.034927 
L 517.034662 418.968173 
L 518.385592 234.517106 
L 519.736553 545.778282 
L 521.109462 315.214448 
L 522.457421 338.270831 
L 523.795041 545.778282 
L 525.158892 263.337585 
L 526.536406 510.942432 
L 527.913505 545.778282 
L 529.467264 522.721899 
L 531.236581 355.563119 
L 533.107258 545.778282 
L 534.502754 240.281202 
L 536.005231 522.721899 
L 537.418264 522.721899 
L 539.191224 487.886049 
L 540.925127 418.716898 
L 542.327815 234.517106 
L 543.699903 545.527007 
L 545.182698 436.260461 
L 548.021612 545.778282 
L 602.408586 545.778282 
L 602.408586 545.778282 
" style="fill:none;stroke:#1b9e77;stroke-linecap:round;"/>
   </g>
   <g id="line2d_79">
    <path clip-path="url(#p8afc662c2a)" d="M 122.179201 545.778282 
L 139.620141 545.778282 
L 140.962619 545.614573 
L 142.308096 545.778282 
L 153.041026 545.778282 
L 154.594836 545.405177 
L 156.011056 545.778282 
L 213.923699 545.778282 
L 215.266293 545.527007 
L 216.617961 545.778282 
L 218.011373 545.527007 
L 219.359493 545.778282 
L 224.773614 545.778282 
L 226.123616 545.527007 
L 227.558793 545.778282 
L 239.422862 545.778282 
L 240.862567 545.527007 
L 242.388242 545.778282 
L 243.860154 545.778282 
L 245.245639 545.527007 
L 247.86697 545.778282 
L 277.270499 545.778282 
L 278.672206 499.665515 
L 280.072135 545.778282 
L 281.417314 545.778282 
L 283.3754 545.275732 
L 284.844622 545.778282 
L 330.628083 545.778282 
L 331.975973 545.275732 
L 333.316234 545.778282 
L 351.131674 545.778282 
L 353.198107 544.773182 
L 354.720286 545.778282 
L 357.579284 545.778282 
L 358.935313 545.527007 
L 360.30423 545.778282 
L 364.427191 545.778282 
L 365.785829 545.527007 
L 367.129556 545.778282 
L 379.491327 545.778282 
L 380.879879 544.948313 
L 382.246083 545.778282 
L 464.349952 545.778282 
L 465.77433 545.527007 
L 467.574452 545.778282 
L 474.600695 545.778282 
L 475.946168 545.614573 
L 477.376859 545.778282 
L 491.172177 545.778282 
L 492.544481 545.527007 
L 493.933782 545.527007 
L 495.279195 545.778282 
L 501.081027 545.778282 
L 502.666645 544.533329 
L 504.024917 545.778282 
L 616.07089 545.778282 
L 616.07089 545.778282 
" style="fill:none;stroke:#d95f02;stroke-dasharray:3.7,1.6;stroke-dashoffset:0;"/>
   </g>
   <g id="line2d_80">
    <path clip-path="url(#p8afc662c2a)" d="M 122.180284 545.778282 
L 186.230755 545.778282 
L 187.774777 545.527007 
L 189.174597 545.778282 
L 194.565291 545.778282 
L 195.989569 545.024457 
L 197.338112 545.778282 
L 213.81088 545.778282 
L 215.197001 545.614573 
L 216.551908 545.778282 
L 238.463901 545.778282 
L 239.864895 545.275732 
L 241.302658 545.778282 
L 260.907715 545.778282 
L 262.297446 545.527007 
L 263.766854 545.527007 
L 265.170257 545.778282 
L 266.564501 545.778282 
L 268.169504 544.609473 
L 269.521359 545.778282 
L 279.178891 545.778282 
L 280.54024 545.024457 
L 281.901077 545.778282 
L 287.529408 545.778282 
L 288.890705 522.721899 
L 290.237573 545.778282 
L 313.535984 545.778282 
L 314.898627 511.193707 
L 316.238466 545.778282 
L 375.462816 545.778282 
L 376.843181 545.527007 
L 378.225598 545.778282 
L 384.177409 545.778282 
L 385.54878 476.609132 
L 386.918892 545.778282 
L 412.947114 545.778282 
L 414.31989 545.275732 
L 415.671217 545.778282 
L 434.912127 545.778282 
L 436.354354 545.614573 
L 437.766892 545.778282 
L 449.032707 545.778282 
L 450.403469 545.527007 
L 451.844972 545.778282 
L 479.25826 545.778282 
L 480.622122 545.275732 
L 481.974285 545.778282 
L 522.679208 545.778282 
L 524.043021 545.275732 
L 525.422886 545.778282 
L 526.906088 545.024457 
L 528.29756 545.275732 
L 529.710004 545.275732 
L 531.080233 545.778282 
L 535.46993 545.778282 
L 536.830765 545.527007 
L 538.192589 544.948313 
L 539.624956 545.527007 
L 541.052426 545.778282 
L 570.687724 545.778282 
L 572.030039 545.614573 
L 573.370071 545.778282 
L 604.049153 545.778282 
L 604.049153 545.778282 
" style="fill:none;stroke:#7570b3;stroke-dasharray:2,4;stroke-dashoffset:0;"/>
   </g>
   <g id="line2d_81">
    <path clip-path="url(#p8afc662c2a)" d="M 122.153282 545.778282 
L 152.917442 545.778282 
L 154.393565 545.49655 
L 155.764091 545.778282 
L 166.69441 545.778282 
L 168.061916 545.527007 
L 169.396949 528.485995 
L 170.750651 545.778282 
L 188.532474 545.778282 
L 189.961092 522.721899 
L 191.34217 545.778282 
L 199.73759 545.778282 
L 201.648536 528.485995 
L 203.00888 545.778282 
L 208.499129 545.778282 
L 209.957865 545.527007 
L 211.337432 545.778282 
L 216.883894 545.778282 
L 218.252821 381.364491 
L 219.603093 545.778282 
L 228.16108 545.778282 
L 229.525768 545.112023 
L 230.874665 545.778282 
L 239.363513 545.778282 
L 241.254288 545.024457 
L 242.987918 545.778282 
L 253.922418 545.778282 
L 255.272316 545.527007 
L 256.612953 545.778282 
L 300.232242 545.778282 
L 301.610212 545.527007 
L 302.973144 545.778282 
L 307.438069 545.778282 
L 308.807725 545.527007 
L 310.215591 545.778282 
L 314.248093 545.778282 
L 315.65324 545.527007 
L 317.058209 545.778282 
L 337.475785 545.778282 
L 338.977927 545.527007 
L 340.557296 545.778282 
L 352.043107 545.778282 
L 353.607747 545.363298 
L 355.359436 545.778282 
L 356.873691 545.778282 
L 358.246764 545.275732 
L 359.641019 545.778282 
L 388.405719 545.778282 
L 389.759975 545.527007 
L 391.098009 545.778282 
L 433.797407 545.778282 
L 435.223321 545.527007 
L 436.586918 545.778282 
L 439.281059 545.778282 
L 440.680592 511.193707 
L 442.024893 545.778282 
L 446.137907 545.778282 
L 447.522015 545.275732 
L 448.87042 545.778282 
L 469.425081 545.778282 
L 471.057405 545.275732 
L 472.456456 545.778282 
L 494.578585 545.778282 
L 496.143467 544.773182 
L 497.642515 545.778282 
L 499.139879 545.778282 
L 500.954302 522.721899 
L 502.550935 545.778282 
L 532.623367 545.778282 
L 533.977968 476.609132 
L 535.397826 545.778282 
L 609.761146 545.778282 
L 609.761146 545.778282 
" style="fill:none;stroke:#e7298a;stroke-dasharray:8,4,2,4;stroke-dashoffset:0;"/>
   </g>
   <g id="line2d_82">
    <path clip-path="url(#p8afc662c2a)" d="M 122.13 545.778282 
L 127.497575 545.778282 
L 128.83907 545.614573 
L 130.183239 545.778282 
L 154.578606 545.778282 
L 155.956278 545.527007 
L 157.341703 545.778282 
L 160.102154 545.778282 
L 161.47697 540.014186 
L 162.833424 545.778282 
L 189.612875 545.778282 
L 190.972754 545.024457 
L 192.374429 545.778282 
L 210.082237 545.778282 
L 211.593585 545.024457 
L 213.145854 545.778282 
L 219.955248 545.778282 
L 221.347014 545.527007 
L 222.730053 545.778282 
L 258.803506 545.778282 
L 261.131323 545.275732 
L 262.99139 545.778282 
L 300.447302 545.778282 
L 301.879436 545.275732 
L 303.238759 545.778282 
L 312.950354 545.778282 
L 314.298632 522.721899 
L 315.658829 545.778282 
L 326.980074 545.778282 
L 328.35542 545.527007 
L 329.742827 545.778282 
L 339.203037 545.778282 
L 340.606768 545.527007 
L 341.955677 545.778282 
L 343.342676 545.527007 
L 344.692738 545.778282 
L 418.123038 545.778282 
L 419.555513 544.860748 
L 421.102078 545.778282 
L 422.556911 545.527007 
L 423.915135 545.778282 
L 425.26894 545.527007 
L 426.670219 545.778282 
L 444.476282 545.778282 
L 445.845422 522.721899 
L 447.204378 545.778282 
L 449.938809 545.778282 
L 451.328915 545.527007 
L 452.709998 545.778282 
L 473.234143 545.778282 
L 474.591965 545.527007 
L 475.944401 545.778282 
L 494.395243 545.778282 
L 495.745088 545.527007 
L 497.112599 545.778282 
L 501.220032 545.778282 
L 502.572405 545.527007 
L 504.142289 545.778282 
L 516.155316 545.778282 
L 517.908674 545.275732 
L 519.300257 545.778282 
L 541.067901 545.778282 
L 542.441611 545.614573 
L 543.800437 545.778282 
L 618.873631 545.778282 
L 618.873631 545.778282 
" style="fill:none;stroke:#66a61e;stroke-linecap:round;"/>
    <defs>
     <path d="M 0 3 
C 0.795609 3 1.55874 2.683901 2.12132 2.12132 
C 2.683901 1.55874 3 0.795609 3 0 
C 3 -0.795609 2.683901 -1.55874 2.12132 -2.12132 
C 1.55874 -2.683901 0.795609 -3 0 -3 
C -0.795609 -3 -1.55874 -2.683901 -2.12132 -2.12132 
C -2.683901 -1.55874 -3 -0.795609 -3 0 
C -3 0.795609 -2.683901 1.55874 -2.12132 2.12132 
C -1.55874 2.683901 -0.795609 3 0 3 
z
" id="m5fcca16176" style="stroke:#66a61e;"/>
    </defs>
    <g clip-path="url(#p8afc662c2a)">
     <use style="fill:#66a61e;stroke:#66a61e;" x="122.13" xlink:href="#m5fcca16176" y="545.778282"/>
     <use style="fill:#66a61e;stroke:#66a61e;" x="135.555271" xlink:href="#m5fcca16176" y="545.778282"/>
     <use style="fill:#66a61e;stroke:#66a61e;" x="149.157986" xlink:href="#m5fcca16176" y="545.778282"/>
     <use style="fill:#66a61e;stroke:#66a61e;" x="162.833424" xlink:href="#m5fcca16176" y="545.778282"/>
     <use style="fill:#66a61e;stroke:#66a61e;" x="176.619747" xlink:href="#m5fcca16176" y="545.778282"/>
     <use style="fill:#66a61e;stroke:#66a61e;" x="190.972754" xlink:href="#m5fcca16176" y="545.024457"/>
     <use style="fill:#66a61e;stroke:#66a61e;" x="208.692385" xlink:href="#m5fcca16176" y="545.778282"/>
     <use style="fill:#66a61e;stroke:#66a61e;" x="222.730053" xlink:href="#m5fcca16176" y="545.778282"/>
     <use style="fill:#66a61e;stroke:#66a61e;" x="236.451793" xlink:href="#m5fcca16176" y="545.778282"/>
     <use style="fill:#66a61e;stroke:#66a61e;" x="250.243416" xlink:href="#m5fcca16176" y="545.778282"/>
     <use style="fill:#66a61e;stroke:#66a61e;" x="266.024679" xlink:href="#m5fcca16176" y="545.778282"/>
     <use style="fill:#66a61e;stroke:#66a61e;" x="279.716747" xlink:href="#m5fcca16176" y="545.778282"/>
     <use style="fill:#66a61e;stroke:#66a61e;" x="293.484795" xlink:href="#m5fcca16176" y="545.778282"/>
     <use style="fill:#66a61e;stroke:#66a61e;" x="307.340788" xlink:href="#m5fcca16176" y="545.778282"/>
     <use style="fill:#66a61e;stroke:#66a61e;" x="321.28532" xlink:href="#m5fcca16176" y="545.778282"/>
     <use style="fill:#66a61e;stroke:#66a61e;" x="335.160955" xlink:href="#m5fcca16176" y="545.778282"/>
     <use style="fill:#66a61e;stroke:#66a61e;" x="348.814967" xlink:href="#m5fcca16176" y="545.778282"/>
     <use style="fill:#66a61e;stroke:#66a61e;" x="362.790098" xlink:href="#m5fcca16176" y="545.778282"/>
     <use style="fill:#66a61e;stroke:#66a61e;" x="376.621246" xlink:href="#m5fcca16176" y="545.778282"/>
     <use style="fill:#66a61e;stroke:#66a61e;" x="391.646885" xlink:href="#m5fcca16176" y="545.778282"/>
     <use style="fill:#66a61e;stroke:#66a61e;" x="406.070035" xlink:href="#m5fcca16176" y="545.778282"/>
     <use style="fill:#66a61e;stroke:#66a61e;" x="421.102078" xlink:href="#m5fcca16176" y="545.778282"/>
     <use style="fill:#66a61e;stroke:#66a61e;" x="434.92273" xlink:href="#m5fcca16176" y="545.778282"/>
     <use style="fill:#66a61e;stroke:#66a61e;" x="448.593275" xlink:href="#m5fcca16176" y="545.778282"/>
     <use style="fill:#66a61e;stroke:#66a61e;" x="462.270873" xlink:href="#m5fcca16176" y="545.778282"/>
     <use style="fill:#66a61e;stroke:#66a61e;" x="475.944401" xlink:href="#m5fcca16176" y="545.778282"/>
     <use style="fill:#66a61e;stroke:#66a61e;" x="490.056407" xlink:href="#m5fcca16176" y="545.778282"/>
     <use style="fill:#66a61e;stroke:#66a61e;" x="504.142289" xlink:href="#m5fcca16176" y="545.778282"/>
     <use style="fill:#66a61e;stroke:#66a61e;" x="519.300257" xlink:href="#m5fcca16176" y="545.778282"/>
     <use style="fill:#66a61e;stroke:#66a61e;" x="533.824726" xlink:href="#m5fcca16176" y="545.778282"/>
     <use style="fill:#66a61e;stroke:#66a61e;" x="548.563047" xlink:href="#m5fcca16176" y="545.778282"/>
     <use style="fill:#66a61e;stroke:#66a61e;" x="562.91877" xlink:href="#m5fcca16176" y="545.778282"/>
     <use style="fill:#66a61e;stroke:#66a61e;" x="578.465811" xlink:href="#m5fcca16176" y="545.778282"/>
     <use style="fill:#66a61e;stroke:#66a61e;" x="592.584325" xlink:href="#m5fcca16176" y="545.778282"/>
     <use style="fill:#66a61e;stroke:#66a61e;" x="606.84297" xlink:href="#m5fcca16176" y="545.778282"/>
    </g>
   </g>
   <g id="patch_3">
    <path d="M 122.13 550.4472 
L 122.13 74.2176 
" style="fill:none;"/>
   </g>
   <g id="patch_4">
    <path d="M 626.418 550.4472 
L 626.418 74.2176 
" style="fill:none;"/>
   </g>
   <g id="patch_5">
    <path d="M 122.13 550.4472 
L 626.418 550.4472 
" style="fill:none;"/>
   </g>
   <g id="patch_6">
    <path d="M 122.13 74.2176 
L 626.418 74.2176 
" style="fill:none;"/>
   </g>
   <g id="legend_1">
    <g id="line2d_83">
     <path d="M 639.83576 80.963598 
L 656.49576 80.963598 
" style="fill:none;stroke:#1b9e77;stroke-linecap:round;"/>
    </g>
    <g id="line2d_84"/>
    <g id="text_17">
     <!-- Backlog (bytes) - - localhost (ens33) - BBRn-fq -->
     <g transform="translate(663.15976 83.879098)scale(0.0833 -0.0833)">
      <defs>
       <path d="M 34.28125 27.484375 
Q 23.390625 27.484375 19.1875 25 
Q 14.984375 22.515625 14.984375 16.5 
Q 14.984375 11.71875 18.140625 8.90625 
Q 21.296875 6.109375 26.703125 6.109375 
Q 34.1875 6.109375 38.703125 11.40625 
Q 43.21875 16.703125 43.21875 25.484375 
L 43.21875 27.484375 
z
M 52.203125 31.203125 
L 52.203125 0 
L 43.21875 0 
L 43.21875 8.296875 
Q 40.140625 3.328125 35.546875 0.953125 
Q 30.953125 -1.421875 24.3125 -1.421875 
Q 15.921875 -1.421875 10.953125 3.296875 
Q 6 8.015625 6 15.921875 
Q 6 25.140625 12.171875 29.828125 
Q 18.359375 34.515625 30.609375 34.515625 
L 43.21875 34.515625 
L 43.21875 35.40625 
Q 43.21875 41.609375 39.140625 45 
Q 35.0625 48.390625 27.6875 48.390625 
Q 23 48.390625 18.546875 47.265625 
Q 14.109375 46.140625 10.015625 43.890625 
L 10.015625 52.203125 
Q 14.9375 54.109375 19.578125 55.046875 
Q 24.21875 56 28.609375 56 
Q 40.484375 56 46.34375 49.84375 
Q 52.203125 43.703125 52.203125 31.203125 
z
" id="DejaVuSans-97"/>
       <path d="M 48.78125 52.59375 
L 48.78125 44.1875 
Q 44.96875 46.296875 41.140625 47.34375 
Q 37.3125 48.390625 33.40625 48.390625 
Q 24.65625 48.390625 19.8125 42.84375 
Q 14.984375 37.3125 14.984375 27.296875 
Q 14.984375 17.28125 19.8125 11.734375 
Q 24.65625 6.203125 33.40625 6.203125 
Q 37.3125 6.203125 41.140625 7.25 
Q 44.96875 8.296875 48.78125 10.40625 
L 48.78125 2.09375 
Q 45.015625 0.34375 40.984375 -0.53125 
Q 36.96875 -1.421875 32.421875 -1.421875 
Q 20.0625 -1.421875 12.78125 6.34375 
Q 5.515625 14.109375 5.515625 27.296875 
Q 5.515625 40.671875 12.859375 48.328125 
Q 20.21875 56 33.015625 56 
Q 37.15625 56 41.109375 55.140625 
Q 45.0625 54.296875 48.78125 52.59375 
z
" id="DejaVuSans-99"/>
       <path d="M 9.078125 75.984375 
L 18.109375 75.984375 
L 18.109375 31.109375 
L 44.921875 54.6875 
L 56.390625 54.6875 
L 27.390625 29.109375 
L 57.625 0 
L 45.90625 0 
L 18.109375 26.703125 
L 18.109375 0 
L 9.078125 0 
z
" id="DejaVuSans-107"/>
       <path d="M 9.421875 75.984375 
L 18.40625 75.984375 
L 18.40625 0 
L 9.421875 0 
z
" id="DejaVuSans-108"/>
       <path d="M 30.609375 48.390625 
Q 23.390625 48.390625 19.1875 42.75 
Q 14.984375 37.109375 14.984375 27.296875 
Q 14.984375 17.484375 19.15625 11.84375 
Q 23.34375 6.203125 30.609375 6.203125 
Q 37.796875 6.203125 41.984375 11.859375 
Q 46.1875 17.53125 46.1875 27.296875 
Q 46.1875 37.015625 41.984375 42.703125 
Q 37.796875 48.390625 30.609375 48.390625 
z
M 30.609375 56 
Q 42.328125 56 49.015625 48.375 
Q 55.71875 40.765625 55.71875 27.296875 
Q 55.71875 13.875 49.015625 6.21875 
Q 42.328125 -1.421875 30.609375 -1.421875 
Q 18.84375 -1.421875 12.171875 6.21875 
Q 5.515625 13.875 5.515625 27.296875 
Q 5.515625 40.765625 12.171875 48.375 
Q 18.84375 56 30.609375 56 
z
" id="DejaVuSans-111"/>
       <path d="M 45.40625 27.984375 
Q 45.40625 37.75 41.375 43.109375 
Q 37.359375 48.484375 30.078125 48.484375 
Q 22.859375 48.484375 18.828125 43.109375 
Q 14.796875 37.75 14.796875 27.984375 
Q 14.796875 18.265625 18.828125 12.890625 
Q 22.859375 7.515625 30.078125 7.515625 
Q 37.359375 7.515625 41.375 12.890625 
Q 45.40625 18.265625 45.40625 27.984375 
z
M 54.390625 6.78125 
Q 54.390625 -7.171875 48.1875 -13.984375 
Q 42 -20.796875 29.203125 -20.796875 
Q 24.46875 -20.796875 20.265625 -20.09375 
Q 16.0625 -19.390625 12.109375 -17.921875 
L 12.109375 -9.1875 
Q 16.0625 -11.328125 19.921875 -12.34375 
Q 23.78125 -13.375 27.78125 -13.375 
Q 36.625 -13.375 41.015625 -8.765625 
Q 45.40625 -4.15625 45.40625 5.171875 
L 45.40625 9.625 
Q 42.625 4.78125 38.28125 2.390625 
Q 33.9375 0 27.875 0 
Q 17.828125 0 11.671875 7.65625 
Q 5.515625 15.328125 5.515625 27.984375 
Q 5.515625 40.671875 11.671875 48.328125 
Q 17.828125 56 27.875 56 
Q 33.9375 56 38.28125 53.609375 
Q 42.625 51.21875 45.40625 46.390625 
L 45.40625 54.6875 
L 54.390625 54.6875 
z
" id="DejaVuSans-103"/>
       <path d="M 48.6875 27.296875 
Q 48.6875 37.203125 44.609375 42.84375 
Q 40.53125 48.484375 33.40625 48.484375 
Q 26.265625 48.484375 22.1875 42.84375 
Q 18.109375 37.203125 18.109375 27.296875 
Q 18.109375 17.390625 22.1875 11.75 
Q 26.265625 6.109375 33.40625 6.109375 
Q 40.53125 6.109375 44.609375 11.75 
Q 48.6875 17.390625 48.6875 27.296875 
z
M 18.109375 46.390625 
Q 20.953125 51.265625 25.265625 53.625 
Q 29.59375 56 35.59375 56 
Q 45.5625 56 51.78125 48.09375 
Q 58.015625 40.1875 58.015625 27.296875 
Q 58.015625 14.40625 51.78125 6.484375 
Q 45.5625 -1.421875 35.59375 -1.421875 
Q 29.59375 -1.421875 25.265625 0.953125 
Q 20.953125 3.328125 18.109375 8.203125 
L 18.109375 0 
L 9.078125 0 
L 9.078125 75.984375 
L 18.109375 75.984375 
z
" id="DejaVuSans-98"/>
       <path d="M 4.890625 31.390625 
L 31.203125 31.390625 
L 31.203125 23.390625 
L 4.890625 23.390625 
z
" id="DejaVuSans-45"/>
       <path d="M 54.890625 33.015625 
L 54.890625 0 
L 45.90625 0 
L 45.90625 32.71875 
Q 45.90625 40.484375 42.875 44.328125 
Q 39.84375 48.1875 33.796875 48.1875 
Q 26.515625 48.1875 22.3125 43.546875 
Q 18.109375 38.921875 18.109375 30.90625 
L 18.109375 0 
L 9.078125 0 
L 9.078125 75.984375 
L 18.109375 75.984375 
L 18.109375 46.1875 
Q 21.34375 51.125 25.703125 53.5625 
Q 30.078125 56 35.796875 56 
Q 45.21875 56 50.046875 50.171875 
Q 54.890625 44.34375 54.890625 33.015625 
z
" id="DejaVuSans-104"/>
       <path d="M 54.890625 33.015625 
L 54.890625 0 
L 45.90625 0 
L 45.90625 32.71875 
Q 45.90625 40.484375 42.875 44.328125 
Q 39.84375 48.1875 33.796875 48.1875 
Q 26.515625 48.1875 22.3125 43.546875 
Q 18.109375 38.921875 18.109375 30.90625 
L 18.109375 0 
L 9.078125 0 
L 9.078125 54.6875 
L 18.109375 54.6875 
L 18.109375 46.1875 
Q 21.34375 51.125 25.703125 53.5625 
Q 30.078125 56 35.796875 56 
Q 45.21875 56 50.046875 50.171875 
Q 54.890625 44.34375 54.890625 33.015625 
z
" id="DejaVuSans-110"/>
       <path d="M 44.390625 34.1875 
Q 47.5625 33.109375 50.5625 29.59375 
Q 53.5625 26.078125 56.59375 19.921875 
L 66.609375 0 
L 56 0 
L 46.6875 18.703125 
Q 43.0625 26.03125 39.671875 28.421875 
Q 36.28125 30.8125 30.421875 30.8125 
L 19.671875 30.8125 
L 19.671875 0 
L 9.8125 0 
L 9.8125 72.90625 
L 32.078125 72.90625 
Q 44.578125 72.90625 50.734375 67.671875 
Q 56.890625 62.453125 56.890625 51.90625 
Q 56.890625 45.015625 53.6875 40.46875 
Q 50.484375 35.9375 44.390625 34.1875 
z
M 19.671875 64.796875 
L 19.671875 38.921875 
L 32.078125 38.921875 
Q 39.203125 38.921875 42.84375 42.21875 
Q 46.484375 45.515625 46.484375 51.90625 
Q 46.484375 58.296875 42.84375 61.546875 
Q 39.203125 64.796875 32.078125 64.796875 
z
" id="DejaVuSans-82"/>
       <path d="M 37.109375 75.984375 
L 37.109375 68.5 
L 28.515625 68.5 
Q 23.6875 68.5 21.796875 66.546875 
Q 19.921875 64.59375 19.921875 59.515625 
L 19.921875 54.6875 
L 34.71875 54.6875 
L 34.71875 47.703125 
L 19.921875 47.703125 
L 19.921875 0 
L 10.890625 0 
L 10.890625 47.703125 
L 2.296875 47.703125 
L 2.296875 54.6875 
L 10.890625 54.6875 
L 10.890625 58.5 
Q 10.890625 67.625 15.140625 71.796875 
Q 19.390625 75.984375 28.609375 75.984375 
z
" id="DejaVuSans-102"/>
       <path d="M 14.796875 27.296875 
Q 14.796875 17.390625 18.875 11.75 
Q 22.953125 6.109375 30.078125 6.109375 
Q 37.203125 6.109375 41.296875 11.75 
Q 45.40625 17.390625 45.40625 27.296875 
Q 45.40625 37.203125 41.296875 42.84375 
Q 37.203125 48.484375 30.078125 48.484375 
Q 22.953125 48.484375 18.875 42.84375 
Q 14.796875 37.203125 14.796875 27.296875 
z
M 45.40625 8.203125 
Q 42.578125 3.328125 38.25 0.953125 
Q 33.9375 -1.421875 27.875 -1.421875 
Q 17.96875 -1.421875 11.734375 6.484375 
Q 5.515625 14.40625 5.515625 27.296875 
Q 5.515625 40.1875 11.734375 48.09375 
Q 17.96875 56 27.875 56 
Q 33.9375 56 38.25 53.625 
Q 42.578125 51.265625 45.40625 46.390625 
L 45.40625 54.6875 
L 54.390625 54.6875 
L 54.390625 -20.796875 
L 45.40625 -20.796875 
z
" id="DejaVuSans-113"/>
      </defs>
      <use xlink:href="#DejaVuSans-66"/>
      <use x="68.603516" xlink:href="#DejaVuSans-97"/>
      <use x="129.882812" xlink:href="#DejaVuSans-99"/>
      <use x="184.863281" xlink:href="#DejaVuSans-107"/>
      <use x="242.773438" xlink:href="#DejaVuSans-108"/>
      <use x="270.556641" xlink:href="#DejaVuSans-111"/>
      <use x="331.738281" xlink:href="#DejaVuSans-103"/>
      <use x="395.214844" xlink:href="#DejaVuSans-32"/>
      <use x="427.001953" xlink:href="#DejaVuSans-40"/>
      <use x="466.015625" xlink:href="#DejaVuSans-98"/>
      <use x="529.492188" xlink:href="#DejaVuSans-121"/>
      <use x="588.671875" xlink:href="#DejaVuSans-116"/>
      <use x="627.880859" xlink:href="#DejaVuSans-101"/>
      <use x="689.404297" xlink:href="#DejaVuSans-115"/>
      <use x="741.503906" xlink:href="#DejaVuSans-41"/>
      <use x="780.517578" xlink:href="#DejaVuSans-32"/>
      <use x="812.304688" xlink:href="#DejaVuSans-45"/>
      <use x="848.388672" xlink:href="#DejaVuSans-45"/>
      <use x="884.472656" xlink:href="#DejaVuSans-32"/>
      <use x="916.259766" xlink:href="#DejaVuSans-108"/>
      <use x="944.042969" xlink:href="#DejaVuSans-111"/>
      <use x="1005.224609" xlink:href="#DejaVuSans-99"/>
      <use x="1060.205078" xlink:href="#DejaVuSans-97"/>
      <use x="1121.484375" xlink:href="#DejaVuSans-108"/>
      <use x="1149.267578" xlink:href="#DejaVuSans-104"/>
      <use x="1212.646484" xlink:href="#DejaVuSans-111"/>
      <use x="1273.828125" xlink:href="#DejaVuSans-115"/>
      <use x="1325.927734" xlink:href="#DejaVuSans-116"/>
      <use x="1365.136719" xlink:href="#DejaVuSans-32"/>
      <use x="1396.923828" xlink:href="#DejaVuSans-40"/>
      <use x="1435.9375" xlink:href="#DejaVuSans-101"/>
      <use x="1497.460938" xlink:href="#DejaVuSans-110"/>
      <use x="1560.839844" xlink:href="#DejaVuSans-115"/>
      <use x="1612.939453" xlink:href="#DejaVuSans-51"/>
      <use x="1676.5625" xlink:href="#DejaVuSans-51"/>
      <use x="1740.185547" xlink:href="#DejaVuSans-41"/>
      <use x="1779.199219" xlink:href="#DejaVuSans-32"/>
      <use x="1810.986328" xlink:href="#DejaVuSans-45"/>
      <use x="1847.070312" xlink:href="#DejaVuSans-32"/>
      <use x="1878.857422" xlink:href="#DejaVuSans-66"/>
      <use x="1947.460938" xlink:href="#DejaVuSans-66"/>
      <use x="2016.064453" xlink:href="#DejaVuSans-82"/>
      <use x="2085.546875" xlink:href="#DejaVuSans-110"/>
      <use x="2148.925781" xlink:href="#DejaVuSans-45"/>
      <use x="2185.009766" xlink:href="#DejaVuSans-102"/>
      <use x="2220.214844" xlink:href="#DejaVuSans-113"/>
     </g>
    </g>
    <g id="line2d_85">
     <path d="M 639.83576 93.190477 
L 656.49576 93.190477 
" style="fill:none;stroke:#d95f02;stroke-dasharray:3.7,1.6;stroke-dashoffset:0;"/>
    </g>
    <g id="line2d_86"/>
    <g id="text_18">
     <!-- Backlog (bytes) - - localhost (ens33) - BBRn-FQ_CoDel -->
     <g transform="translate(663.15976 96.105977)scale(0.0833 -0.0833)">
      <defs>
       <path d="M 9.8125 72.90625 
L 51.703125 72.90625 
L 51.703125 64.59375 
L 19.671875 64.59375 
L 19.671875 43.109375 
L 48.578125 43.109375 
L 48.578125 34.8125 
L 19.671875 34.8125 
L 19.671875 0 
L 9.8125 0 
z
" id="DejaVuSans-70"/>
       <path d="M 39.40625 66.21875 
Q 28.65625 66.21875 22.328125 58.203125 
Q 16.015625 50.203125 16.015625 36.375 
Q 16.015625 22.609375 22.328125 14.59375 
Q 28.65625 6.59375 39.40625 6.59375 
Q 50.140625 6.59375 56.421875 14.59375 
Q 62.703125 22.609375 62.703125 36.375 
Q 62.703125 50.203125 56.421875 58.203125 
Q 50.140625 66.21875 39.40625 66.21875 
z
M 53.21875 1.3125 
L 66.21875 -12.890625 
L 54.296875 -12.890625 
L 43.5 -1.21875 
Q 41.890625 -1.3125 41.03125 -1.359375 
Q 40.1875 -1.421875 39.40625 -1.421875 
Q 24.03125 -1.421875 14.8125 8.859375 
Q 5.609375 19.140625 5.609375 36.375 
Q 5.609375 53.65625 14.8125 63.9375 
Q 24.03125 74.21875 39.40625 74.21875 
Q 54.734375 74.21875 63.90625 63.9375 
Q 73.09375 53.65625 73.09375 36.375 
Q 73.09375 23.6875 67.984375 14.640625 
Q 62.890625 5.609375 53.21875 1.3125 
z
" id="DejaVuSans-81"/>
       <path d="M 50.984375 -16.609375 
L 50.984375 -23.578125 
L -0.984375 -23.578125 
L -0.984375 -16.609375 
z
" id="DejaVuSans-95"/>
       <path d="M 64.40625 67.28125 
L 64.40625 56.890625 
Q 59.421875 61.53125 53.78125 63.8125 
Q 48.140625 66.109375 41.796875 66.109375 
Q 29.296875 66.109375 22.65625 58.46875 
Q 16.015625 50.828125 16.015625 36.375 
Q 16.015625 21.96875 22.65625 14.328125 
Q 29.296875 6.6875 41.796875 6.6875 
Q 48.140625 6.6875 53.78125 8.984375 
Q 59.421875 11.28125 64.40625 15.921875 
L 64.40625 5.609375 
Q 59.234375 2.09375 53.4375 0.328125 
Q 47.65625 -1.421875 41.21875 -1.421875 
Q 24.65625 -1.421875 15.125 8.703125 
Q 5.609375 18.84375 5.609375 36.375 
Q 5.609375 53.953125 15.125 64.078125 
Q 24.65625 74.21875 41.21875 74.21875 
Q 47.75 74.21875 53.53125 72.484375 
Q 59.328125 70.75 64.40625 67.28125 
z
" id="DejaVuSans-67"/>
       <path d="M 19.671875 64.796875 
L 19.671875 8.109375 
L 31.59375 8.109375 
Q 46.6875 8.109375 53.6875 14.9375 
Q 60.6875 21.78125 60.6875 36.53125 
Q 60.6875 51.171875 53.6875 57.984375 
Q 46.6875 64.796875 31.59375 64.796875 
z
M 9.8125 72.90625 
L 30.078125 72.90625 
Q 51.265625 72.90625 61.171875 64.09375 
Q 71.09375 55.28125 71.09375 36.53125 
Q 71.09375 17.671875 61.125 8.828125 
Q 51.171875 0 30.078125 0 
L 9.8125 0 
z
" id="DejaVuSans-68"/>
      </defs>
      <use xlink:href="#DejaVuSans-66"/>
      <use x="68.603516" xlink:href="#DejaVuSans-97"/>
      <use x="129.882812" xlink:href="#DejaVuSans-99"/>
      <use x="184.863281" xlink:href="#DejaVuSans-107"/>
      <use x="242.773438" xlink:href="#DejaVuSans-108"/>
      <use x="270.556641" xlink:href="#DejaVuSans-111"/>
      <use x="331.738281" xlink:href="#DejaVuSans-103"/>
      <use x="395.214844" xlink:href="#DejaVuSans-32"/>
      <use x="427.001953" xlink:href="#DejaVuSans-40"/>
      <use x="466.015625" xlink:href="#DejaVuSans-98"/>
      <use x="529.492188" xlink:href="#DejaVuSans-121"/>
      <use x="588.671875" xlink:href="#DejaVuSans-116"/>
      <use x="627.880859" xlink:href="#DejaVuSans-101"/>
      <use x="689.404297" xlink:href="#DejaVuSans-115"/>
      <use x="741.503906" xlink:href="#DejaVuSans-41"/>
      <use x="780.517578" xlink:href="#DejaVuSans-32"/>
      <use x="812.304688" xlink:href="#DejaVuSans-45"/>
      <use x="848.388672" xlink:href="#DejaVuSans-45"/>
      <use x="884.472656" xlink:href="#DejaVuSans-32"/>
      <use x="916.259766" xlink:href="#DejaVuSans-108"/>
      <use x="944.042969" xlink:href="#DejaVuSans-111"/>
      <use x="1005.224609" xlink:href="#DejaVuSans-99"/>
      <use x="1060.205078" xlink:href="#DejaVuSans-97"/>
      <use x="1121.484375" xlink:href="#DejaVuSans-108"/>
      <use x="1149.267578" xlink:href="#DejaVuSans-104"/>
      <use x="1212.646484" xlink:href="#DejaVuSans-111"/>
      <use x="1273.828125" xlink:href="#DejaVuSans-115"/>
      <use x="1325.927734" xlink:href="#DejaVuSans-116"/>
      <use x="1365.136719" xlink:href="#DejaVuSans-32"/>
      <use x="1396.923828" xlink:href="#DejaVuSans-40"/>
      <use x="1435.9375" xlink:href="#DejaVuSans-101"/>
      <use x="1497.460938" xlink:href="#DejaVuSans-110"/>
      <use x="1560.839844" xlink:href="#DejaVuSans-115"/>
      <use x="1612.939453" xlink:href="#DejaVuSans-51"/>
      <use x="1676.5625" xlink:href="#DejaVuSans-51"/>
      <use x="1740.185547" xlink:href="#DejaVuSans-41"/>
      <use x="1779.199219" xlink:href="#DejaVuSans-32"/>
      <use x="1810.986328" xlink:href="#DejaVuSans-45"/>
      <use x="1847.070312" xlink:href="#DejaVuSans-32"/>
      <use x="1878.857422" xlink:href="#DejaVuSans-66"/>
      <use x="1947.460938" xlink:href="#DejaVuSans-66"/>
      <use x="2016.064453" xlink:href="#DejaVuSans-82"/>
      <use x="2085.546875" xlink:href="#DejaVuSans-110"/>
      <use x="2148.925781" xlink:href="#DejaVuSans-45"/>
      <use x="2185.009766" xlink:href="#DejaVuSans-70"/>
      <use x="2242.529297" xlink:href="#DejaVuSans-81"/>
      <use x="2321.240234" xlink:href="#DejaVuSans-95"/>
      <use x="2371.240234" xlink:href="#DejaVuSans-67"/>
      <use x="2441.064453" xlink:href="#DejaVuSans-111"/>
      <use x="2502.246094" xlink:href="#DejaVuSans-68"/>
      <use x="2579.248047" xlink:href="#DejaVuSans-101"/>
      <use x="2640.771484" xlink:href="#DejaVuSans-108"/>
     </g>
    </g>
    <g id="line2d_87">
     <path d="M 639.83576 105.649033 
L 656.49576 105.649033 
" style="fill:none;stroke:#7570b3;stroke-dasharray:2,4;stroke-dashoffset:0;"/>
    </g>
    <g id="line2d_88"/>
    <g id="text_19">
     <!-- Backlog (bytes) - - localhost (ens33) - BBRn-pie -->
     <g transform="translate(663.15976 108.564533)scale(0.0833 -0.0833)">
      <defs>
       <path d="M 18.109375 8.203125 
L 18.109375 -20.796875 
L 9.078125 -20.796875 
L 9.078125 54.6875 
L 18.109375 54.6875 
L 18.109375 46.390625 
Q 20.953125 51.265625 25.265625 53.625 
Q 29.59375 56 35.59375 56 
Q 45.5625 56 51.78125 48.09375 
Q 58.015625 40.1875 58.015625 27.296875 
Q 58.015625 14.40625 51.78125 6.484375 
Q 45.5625 -1.421875 35.59375 -1.421875 
Q 29.59375 -1.421875 25.265625 0.953125 
Q 20.953125 3.328125 18.109375 8.203125 
z
M 48.6875 27.296875 
Q 48.6875 37.203125 44.609375 42.84375 
Q 40.53125 48.484375 33.40625 48.484375 
Q 26.265625 48.484375 22.1875 42.84375 
Q 18.109375 37.203125 18.109375 27.296875 
Q 18.109375 17.390625 22.1875 11.75 
Q 26.265625 6.109375 33.40625 6.109375 
Q 40.53125 6.109375 44.609375 11.75 
Q 48.6875 17.390625 48.6875 27.296875 
z
" id="DejaVuSans-112"/>
      </defs>
      <use xlink:href="#DejaVuSans-66"/>
      <use x="68.603516" xlink:href="#DejaVuSans-97"/>
      <use x="129.882812" xlink:href="#DejaVuSans-99"/>
      <use x="184.863281" xlink:href="#DejaVuSans-107"/>
      <use x="242.773438" xlink:href="#DejaVuSans-108"/>
      <use x="270.556641" xlink:href="#DejaVuSans-111"/>
      <use x="331.738281" xlink:href="#DejaVuSans-103"/>
      <use x="395.214844" xlink:href="#DejaVuSans-32"/>
      <use x="427.001953" xlink:href="#DejaVuSans-40"/>
      <use x="466.015625" xlink:href="#DejaVuSans-98"/>
      <use x="529.492188" xlink:href="#DejaVuSans-121"/>
      <use x="588.671875" xlink:href="#DejaVuSans-116"/>
      <use x="627.880859" xlink:href="#DejaVuSans-101"/>
      <use x="689.404297" xlink:href="#DejaVuSans-115"/>
      <use x="741.503906" xlink:href="#DejaVuSans-41"/>
      <use x="780.517578" xlink:href="#DejaVuSans-32"/>
      <use x="812.304688" xlink:href="#DejaVuSans-45"/>
      <use x="848.388672" xlink:href="#DejaVuSans-45"/>
      <use x="884.472656" xlink:href="#DejaVuSans-32"/>
      <use x="916.259766" xlink:href="#DejaVuSans-108"/>
      <use x="944.042969" xlink:href="#DejaVuSans-111"/>
      <use x="1005.224609" xlink:href="#DejaVuSans-99"/>
      <use x="1060.205078" xlink:href="#DejaVuSans-97"/>
      <use x="1121.484375" xlink:href="#DejaVuSans-108"/>
      <use x="1149.267578" xlink:href="#DejaVuSans-104"/>
      <use x="1212.646484" xlink:href="#DejaVuSans-111"/>
      <use x="1273.828125" xlink:href="#DejaVuSans-115"/>
      <use x="1325.927734" xlink:href="#DejaVuSans-116"/>
      <use x="1365.136719" xlink:href="#DejaVuSans-32"/>
      <use x="1396.923828" xlink:href="#DejaVuSans-40"/>
      <use x="1435.9375" xlink:href="#DejaVuSans-101"/>
      <use x="1497.460938" xlink:href="#DejaVuSans-110"/>
      <use x="1560.839844" xlink:href="#DejaVuSans-115"/>
      <use x="1612.939453" xlink:href="#DejaVuSans-51"/>
      <use x="1676.5625" xlink:href="#DejaVuSans-51"/>
      <use x="1740.185547" xlink:href="#DejaVuSans-41"/>
      <use x="1779.199219" xlink:href="#DejaVuSans-32"/>
      <use x="1810.986328" xlink:href="#DejaVuSans-45"/>
      <use x="1847.070312" xlink:href="#DejaVuSans-32"/>
      <use x="1878.857422" xlink:href="#DejaVuSans-66"/>
      <use x="1947.460938" xlink:href="#DejaVuSans-66"/>
      <use x="2016.064453" xlink:href="#DejaVuSans-82"/>
      <use x="2085.546875" xlink:href="#DejaVuSans-110"/>
      <use x="2148.925781" xlink:href="#DejaVuSans-45"/>
      <use x="2185.009766" xlink:href="#DejaVuSans-112"/>
      <use x="2248.486328" xlink:href="#DejaVuSans-105"/>
      <use x="2276.269531" xlink:href="#DejaVuSans-101"/>
     </g>
    </g>
    <g id="line2d_89">
     <path d="M 639.83576 117.875911 
L 656.49576 117.875911 
" style="fill:none;stroke:#e7298a;stroke-dasharray:8,4,2,4;stroke-dashoffset:0;"/>
    </g>
    <g id="line2d_90"/>
    <g id="text_20">
     <!-- Backlog (bytes) - - localhost (ens33) - BBRn-cake -->
     <g transform="translate(663.15976 120.791411)scale(0.0833 -0.0833)">
      <use xlink:href="#DejaVuSans-66"/>
      <use x="68.603516" xlink:href="#DejaVuSans-97"/>
      <use x="129.882812" xlink:href="#DejaVuSans-99"/>
      <use x="184.863281" xlink:href="#DejaVuSans-107"/>
      <use x="242.773438" xlink:href="#DejaVuSans-108"/>
      <use x="270.556641" xlink:href="#DejaVuSans-111"/>
      <use x="331.738281" xlink:href="#DejaVuSans-103"/>
      <use x="395.214844" xlink:href="#DejaVuSans-32"/>
      <use x="427.001953" xlink:href="#DejaVuSans-40"/>
      <use x="466.015625" xlink:href="#DejaVuSans-98"/>
      <use x="529.492188" xlink:href="#DejaVuSans-121"/>
      <use x="588.671875" xlink:href="#DejaVuSans-116"/>
      <use x="627.880859" xlink:href="#DejaVuSans-101"/>
      <use x="689.404297" xlink:href="#DejaVuSans-115"/>
      <use x="741.503906" xlink:href="#DejaVuSans-41"/>
      <use x="780.517578" xlink:href="#DejaVuSans-32"/>
      <use x="812.304688" xlink:href="#DejaVuSans-45"/>
      <use x="848.388672" xlink:href="#DejaVuSans-45"/>
      <use x="884.472656" xlink:href="#DejaVuSans-32"/>
      <use x="916.259766" xlink:href="#DejaVuSans-108"/>
      <use x="944.042969" xlink:href="#DejaVuSans-111"/>
      <use x="1005.224609" xlink:href="#DejaVuSans-99"/>
      <use x="1060.205078" xlink:href="#DejaVuSans-97"/>
      <use x="1121.484375" xlink:href="#DejaVuSans-108"/>
      <use x="1149.267578" xlink:href="#DejaVuSans-104"/>
      <use x="1212.646484" xlink:href="#DejaVuSans-111"/>
      <use x="1273.828125" xlink:href="#DejaVuSans-115"/>
      <use x="1325.927734" xlink:href="#DejaVuSans-116"/>
      <use x="1365.136719" xlink:href="#DejaVuSans-32"/>
      <use x="1396.923828" xlink:href="#DejaVuSans-40"/>
      <use x="1435.9375" xlink:href="#DejaVuSans-101"/>
      <use x="1497.460938" xlink:href="#DejaVuSans-110"/>
      <use x="1560.839844" xlink:href="#DejaVuSans-115"/>
      <use x="1612.939453" xlink:href="#DejaVuSans-51"/>
      <use x="1676.5625" xlink:href="#DejaVuSans-51"/>
      <use x="1740.185547" xlink:href="#DejaVuSans-41"/>
      <use x="1779.199219" xlink:href="#DejaVuSans-32"/>
      <use x="1810.986328" xlink:href="#DejaVuSans-45"/>
      <use x="1847.070312" xlink:href="#DejaVuSans-32"/>
      <use x="1878.857422" xlink:href="#DejaVuSans-66"/>
      <use x="1947.460938" xlink:href="#DejaVuSans-66"/>
      <use x="2016.064453" xlink:href="#DejaVuSans-82"/>
      <use x="2085.546875" xlink:href="#DejaVuSans-110"/>
      <use x="2148.925781" xlink:href="#DejaVuSans-45"/>
      <use x="2185.009766" xlink:href="#DejaVuSans-99"/>
      <use x="2239.990234" xlink:href="#DejaVuSans-97"/>
      <use x="2301.269531" xlink:href="#DejaVuSans-107"/>
      <use x="2355.554688" xlink:href="#DejaVuSans-101"/>
     </g>
    </g>
    <g id="line2d_91">
     <path d="M 639.83576 130.102789 
L 656.49576 130.102789 
" style="fill:none;stroke:#66a61e;stroke-linecap:round;"/>
    </g>
    <g id="line2d_92">
     <g>
      <use style="fill:#66a61e;stroke:#66a61e;" x="648.16576" xlink:href="#m5fcca16176" y="130.102789"/>
     </g>
    </g>
    <g id="text_21">
     <!-- Backlog (bytes) - - localhost (ens33) - BBRn-codel -->
     <g transform="translate(663.15976 133.018289)scale(0.0833 -0.0833)">
      <defs>
       <path d="M 45.40625 46.390625 
L 45.40625 75.984375 
L 54.390625 75.984375 
L 54.390625 0 
L 45.40625 0 
L 45.40625 8.203125 
Q 42.578125 3.328125 38.25 0.953125 
Q 33.9375 -1.421875 27.875 -1.421875 
Q 17.96875 -1.421875 11.734375 6.484375 
Q 5.515625 14.40625 5.515625 27.296875 
Q 5.515625 40.1875 11.734375 48.09375 
Q 17.96875 56 27.875 56 
Q 33.9375 56 38.25 53.625 
Q 42.578125 51.265625 45.40625 46.390625 
z
M 14.796875 27.296875 
Q 14.796875 17.390625 18.875 11.75 
Q 22.953125 6.109375 30.078125 6.109375 
Q 37.203125 6.109375 41.296875 11.75 
Q 45.40625 17.390625 45.40625 27.296875 
Q 45.40625 37.203125 41.296875 42.84375 
Q 37.203125 48.484375 30.078125 48.484375 
Q 22.953125 48.484375 18.875 42.84375 
Q 14.796875 37.203125 14.796875 27.296875 
z
" id="DejaVuSans-100"/>
      </defs>
      <use xlink:href="#DejaVuSans-66"/>
      <use x="68.603516" xlink:href="#DejaVuSans-97"/>
      <use x="129.882812" xlink:href="#DejaVuSans-99"/>
      <use x="184.863281" xlink:href="#DejaVuSans-107"/>
      <use x="242.773438" xlink:href="#DejaVuSans-108"/>
      <use x="270.556641" xlink:href="#DejaVuSans-111"/>
      <use x="331.738281" xlink:href="#DejaVuSans-103"/>
      <use x="395.214844" xlink:href="#DejaVuSans-32"/>
      <use x="427.001953" xlink:href="#DejaVuSans-40"/>
      <use x="466.015625" xlink:href="#DejaVuSans-98"/>
      <use x="529.492188" xlink:href="#DejaVuSans-121"/>
      <use x="588.671875" xlink:href="#DejaVuSans-116"/>
      <use x="627.880859" xlink:href="#DejaVuSans-101"/>
      <use x="689.404297" xlink:href="#DejaVuSans-115"/>
      <use x="741.503906" xlink:href="#DejaVuSans-41"/>
      <use x="780.517578" xlink:href="#DejaVuSans-32"/>
      <use x="812.304688" xlink:href="#DejaVuSans-45"/>
      <use x="848.388672" xlink:href="#DejaVuSans-45"/>
      <use x="884.472656" xlink:href="#DejaVuSans-32"/>
      <use x="916.259766" xlink:href="#DejaVuSans-108"/>
      <use x="944.042969" xlink:href="#DejaVuSans-111"/>
      <use x="1005.224609" xlink:href="#DejaVuSans-99"/>
      <use x="1060.205078" xlink:href="#DejaVuSans-97"/>
      <use x="1121.484375" xlink:href="#DejaVuSans-108"/>
      <use x="1149.267578" xlink:href="#DejaVuSans-104"/>
      <use x="1212.646484" xlink:href="#DejaVuSans-111"/>
      <use x="1273.828125" xlink:href="#DejaVuSans-115"/>
      <use x="1325.927734" xlink:href="#DejaVuSans-116"/>
      <use x="1365.136719" xlink:href="#DejaVuSans-32"/>
      <use x="1396.923828" xlink:href="#DejaVuSans-40"/>
      <use x="1435.9375" xlink:href="#DejaVuSans-101"/>
      <use x="1497.460938" xlink:href="#DejaVuSans-110"/>
      <use x="1560.839844" xlink:href="#DejaVuSans-115"/>
      <use x="1612.939453" xlink:href="#DejaVuSans-51"/>
      <use x="1676.5625" xlink:href="#DejaVuSans-51"/>
      <use x="1740.185547" xlink:href="#DejaVuSans-41"/>
      <use x="1779.199219" xlink:href="#DejaVuSans-32"/>
      <use x="1810.986328" xlink:href="#DejaVuSans-45"/>
      <use x="1847.070312" xlink:href="#DejaVuSans-32"/>
      <use x="1878.857422" xlink:href="#DejaVuSans-66"/>
      <use x="1947.460938" xlink:href="#DejaVuSans-66"/>
      <use x="2016.064453" xlink:href="#DejaVuSans-82"/>
      <use x="2085.546875" xlink:href="#DejaVuSans-110"/>
      <use x="2148.925781" xlink:href="#DejaVuSans-45"/>
      <use x="2185.009766" xlink:href="#DejaVuSans-99"/>
      <use x="2239.990234" xlink:href="#DejaVuSans-111"/>
      <use x="2301.171875" xlink:href="#DejaVuSans-100"/>
      <use x="2364.648438" xlink:href="#DejaVuSans-101"/>
      <use x="2426.171875" xlink:href="#DejaVuSans-108"/>
     </g>
    </g>
   </g>
  </g>
  <g id="text_22">
   <!-- Realtime Response Under Load - exclusively Best Effort -->
   <g transform="translate(294.592656 15.791812)scale(0.14 -0.14)">
    <defs>
     <path d="M 8.6875 72.90625 
L 18.609375 72.90625 
L 18.609375 28.609375 
Q 18.609375 16.890625 22.84375 11.734375 
Q 27.09375 6.59375 36.625 6.59375 
Q 46.09375 6.59375 50.34375 11.734375 
Q 54.59375 16.890625 54.59375 28.609375 
L 54.59375 72.90625 
L 64.5 72.90625 
L 64.5 27.390625 
Q 64.5 13.140625 57.4375 5.859375 
Q 50.390625 -1.421875 36.625 -1.421875 
Q 22.796875 -1.421875 15.734375 5.859375 
Q 8.6875 13.140625 8.6875 27.390625 
z
" id="DejaVuSans-85"/>
     <path d="M 41.109375 46.296875 
Q 39.59375 47.171875 37.8125 47.578125 
Q 36.03125 48 33.890625 48 
Q 26.265625 48 22.1875 43.046875 
Q 18.109375 38.09375 18.109375 28.8125 
L 18.109375 0 
L 9.078125 0 
L 9.078125 54.6875 
L 18.109375 54.6875 
L 18.109375 46.1875 
Q 20.953125 51.171875 25.484375 53.578125 
Q 30.03125 56 36.53125 56 
Q 37.453125 56 38.578125 55.875 
Q 39.703125 55.765625 41.0625 55.515625 
z
" id="DejaVuSans-114"/>
     <path d="M 9.8125 72.90625 
L 19.671875 72.90625 
L 19.671875 8.296875 
L 55.171875 8.296875 
L 55.171875 0 
L 9.8125 0 
z
" id="DejaVuSans-76"/>
     <path d="M 54.890625 54.6875 
L 35.109375 28.078125 
L 55.90625 0 
L 45.3125 0 
L 29.390625 21.484375 
L 13.484375 0 
L 2.875 0 
L 24.125 28.609375 
L 4.6875 54.6875 
L 15.28125 54.6875 
L 29.78125 35.203125 
L 44.28125 54.6875 
z
" id="DejaVuSans-120"/>
     <path d="M 8.5 21.578125 
L 8.5 54.6875 
L 17.484375 54.6875 
L 17.484375 21.921875 
Q 17.484375 14.15625 20.5 10.265625 
Q 23.53125 6.390625 29.59375 6.390625 
Q 36.859375 6.390625 41.078125 11.03125 
Q 45.3125 15.671875 45.3125 23.6875 
L 45.3125 54.6875 
L 54.296875 54.6875 
L 54.296875 0 
L 45.3125 0 
L 45.3125 8.40625 
Q 42.046875 3.421875 37.71875 1 
Q 33.40625 -1.421875 27.6875 -1.421875 
Q 18.265625 -1.421875 13.375 4.4375 
Q 8.5 10.296875 8.5 21.578125 
z
M 31.109375 56 
z
" id="DejaVuSans-117"/>
     <path d="M 2.984375 54.6875 
L 12.5 54.6875 
L 29.59375 8.796875 
L 46.6875 54.6875 
L 56.203125 54.6875 
L 35.6875 0 
L 23.484375 0 
z
" id="DejaVuSans-118"/>
     <path d="M 9.8125 72.90625 
L 55.90625 72.90625 
L 55.90625 64.59375 
L 19.671875 64.59375 
L 19.671875 43.015625 
L 54.390625 43.015625 
L 54.390625 34.71875 
L 19.671875 34.71875 
L 19.671875 8.296875 
L 56.78125 8.296875 
L 56.78125 0 
L 9.8125 0 
z
" id="DejaVuSans-69"/>
    </defs>
    <use xlink:href="#DejaVuSans-82"/>
    <use x="64.982422" xlink:href="#DejaVuSans-101"/>
    <use x="126.505859" xlink:href="#DejaVuSans-97"/>
    <use x="187.785156" xlink:href="#DejaVuSans-108"/>
    <use x="215.568359" xlink:href="#DejaVuSans-116"/>
    <use x="254.777344" xlink:href="#DejaVuSans-105"/>
    <use x="282.560547" xlink:href="#DejaVuSans-109"/>
    <use x="379.972656" xlink:href="#DejaVuSans-101"/>
    <use x="441.496094" xlink:href="#DejaVuSans-32"/>
    <use x="473.283203" xlink:href="#DejaVuSans-82"/>
    <use x="538.265625" xlink:href="#DejaVuSans-101"/>
    <use x="599.789062" xlink:href="#DejaVuSans-115"/>
    <use x="651.888672" xlink:href="#DejaVuSans-112"/>
    <use x="715.365234" xlink:href="#DejaVuSans-111"/>
    <use x="776.546875" xlink:href="#DejaVuSans-110"/>
    <use x="839.925781" xlink:href="#DejaVuSans-115"/>
    <use x="892.025391" xlink:href="#DejaVuSans-101"/>
    <use x="953.548828" xlink:href="#DejaVuSans-32"/>
    <use x="985.335938" xlink:href="#DejaVuSans-85"/>
    <use x="1058.529297" xlink:href="#DejaVuSans-110"/>
    <use x="1121.908203" xlink:href="#DejaVuSans-100"/>
    <use x="1185.384766" xlink:href="#DejaVuSans-101"/>
    <use x="1246.908203" xlink:href="#DejaVuSans-114"/>
    <use x="1288.021484" xlink:href="#DejaVuSans-32"/>
    <use x="1319.808594" xlink:href="#DejaVuSans-76"/>
    <use x="1373.771484" xlink:href="#DejaVuSans-111"/>
    <use x="1434.953125" xlink:href="#DejaVuSans-97"/>
    <use x="1496.232422" xlink:href="#DejaVuSans-100"/>
    <use x="1559.708984" xlink:href="#DejaVuSans-32"/>
    <use x="1591.496094" xlink:href="#DejaVuSans-45"/>
    <use x="1627.580078" xlink:href="#DejaVuSans-32"/>
    <use x="1659.367188" xlink:href="#DejaVuSans-101"/>
    <use x="1719.140625" xlink:href="#DejaVuSans-120"/>
    <use x="1776.570312" xlink:href="#DejaVuSans-99"/>
    <use x="1831.550781" xlink:href="#DejaVuSans-108"/>
    <use x="1859.333984" xlink:href="#DejaVuSans-117"/>
    <use x="1922.712891" xlink:href="#DejaVuSans-115"/>
    <use x="1974.8125" xlink:href="#DejaVuSans-105"/>
    <use x="2002.595703" xlink:href="#DejaVuSans-118"/>
    <use x="2061.775391" xlink:href="#DejaVuSans-101"/>
    <use x="2123.298828" xlink:href="#DejaVuSans-108"/>
    <use x="2151.082031" xlink:href="#DejaVuSans-121"/>
    <use x="2210.261719" xlink:href="#DejaVuSans-32"/>
    <use x="2242.048828" xlink:href="#DejaVuSans-66"/>
    <use x="2310.652344" xlink:href="#DejaVuSans-101"/>
    <use x="2372.175781" xlink:href="#DejaVuSans-115"/>
    <use x="2424.275391" xlink:href="#DejaVuSans-116"/>
    <use x="2463.484375" xlink:href="#DejaVuSans-32"/>
    <use x="2495.271484" xlink:href="#DejaVuSans-69"/>
    <use x="2558.455078" xlink:href="#DejaVuSans-102"/>
    <use x="2593.660156" xlink:href="#DejaVuSans-102"/>
    <use x="2628.865234" xlink:href="#DejaVuSans-111"/>
    <use x="2690.046875" xlink:href="#DejaVuSans-114"/>
    <use x="2731.160156" xlink:href="#DejaVuSans-116"/>
   </g>
   <!-- Queue backlog -->
   <g transform="translate(435.990469 31.46875)scale(0.14 -0.14)">
    <use xlink:href="#DejaVuSans-81"/>
    <use x="78.710938" xlink:href="#DejaVuSans-117"/>
    <use x="142.089844" xlink:href="#DejaVuSans-101"/>
    <use x="203.613281" xlink:href="#DejaVuSans-117"/>
    <use x="266.992188" xlink:href="#DejaVuSans-101"/>
    <use x="328.515625" xlink:href="#DejaVuSans-32"/>
    <use x="360.302734" xlink:href="#DejaVuSans-98"/>
    <use x="423.779297" xlink:href="#DejaVuSans-97"/>
    <use x="485.058594" xlink:href="#DejaVuSans-99"/>
    <use x="540.039062" xlink:href="#DejaVuSans-107"/>
    <use x="597.949219" xlink:href="#DejaVuSans-108"/>
    <use x="625.732422" xlink:href="#DejaVuSans-111"/>
    <use x="686.914062" xlink:href="#DejaVuSans-103"/>
   </g>
  </g>
 </g>
 <defs>
  <clipPath id="p8afc662c2a">
   <rect height="476.2296" width="504.288" x="122.13" y="74.2176"/>
  </clipPath>
 </defs>
</svg>
