<?xml version="1.0" encoding="utf-8" standalone="no"?>
<!DOCTYPE svg PUBLIC "-//W3C//DTD SVG 1.1//EN"
  "http://www.w3.org/Graphics/SVG/1.1/DTD/svg11.dtd">
<!-- Created with matplotlib (https://matplotlib.org/) -->
<svg height="618.48pt" version="1.1" viewBox="0 0 977.04 618.48" width="977.04pt" xmlns="http://www.w3.org/2000/svg" xmlns:xlink="http://www.w3.org/1999/xlink">
 <metadata>
  <rdf:RDF xmlns:cc="http://creativecommons.org/ns#" xmlns:dc="http://purl.org/dc/elements/1.1/" xmlns:rdf="http://www.w3.org/1999/02/22-rdf-syntax-ns#">
   <cc:Work>
    <dc:type rdf:resource="http://purl.org/dc/dcmitype/StillImage"/>
    <dc:date>2023-10-04T19:40:44.743326</dc:date>
    <dc:format>image/svg+xml</dc:format>
    <dc:creator>
     <cc:Agent>
      <dc:title>Matplotlib v3.3.4, https://matplotlib.org/</dc:title>
     </cc:Agent>
    </dc:creator>
   </cc:Work>
  </rdf:RDF>
 </metadata>
 <defs>
  <style type="text/css">*{stroke-linecap:butt;stroke-linejoin:round;}</style>
 </defs>
 <g id="figure_1">
  <g id="patch_1">
   <path d="M 0 618.48 
L 977.04 618.48 
L 977.04 0 
L 0 0 
z
" style="fill:#ffffff;"/>
  </g>
  <g id="axes_1">
   <g id="patch_2">
    <path d="M 122.13 550.4472 
L 655.218 550.4472 
L 655.218 74.2176 
L 122.13 74.2176 
z
" style="fill:#e6e6e6;"/>
   </g>
   <g id="matplotlib.axis_1">
    <g id="xtick_1">
     <g id="line2d_1">
      <path clip-path="url(#p73dcf038d6)" d="M 122.13 550.4472 
L 122.13 74.2176 
" style="fill:none;stroke:#ffffff;stroke-linecap:round;"/>
     </g>
     <g id="line2d_2"/>
     <g id="text_1">
      <!-- 800 -->
      <g transform="translate(112.58625 561.545637)scale(0.1 -0.1)">
       <defs>
        <path d="M 31.78125 34.625 
Q 24.75 34.625 20.71875 30.859375 
Q 16.703125 27.09375 16.703125 20.515625 
Q 16.703125 13.921875 20.71875 10.15625 
Q 24.75 6.390625 31.78125 6.390625 
Q 38.8125 6.390625 42.859375 10.171875 
Q 46.921875 13.96875 46.921875 20.515625 
Q 46.921875 27.09375 42.890625 30.859375 
Q 38.875 34.625 31.78125 34.625 
z
M 21.921875 38.8125 
Q 15.578125 40.375 12.03125 44.71875 
Q 8.5 49.078125 8.5 55.328125 
Q 8.5 64.0625 14.71875 69.140625 
Q 20.953125 74.21875 31.78125 74.21875 
Q 42.671875 74.21875 48.875 69.140625 
Q 55.078125 64.0625 55.078125 55.328125 
Q 55.078125 49.078125 51.53125 44.71875 
Q 48 40.375 41.703125 38.8125 
Q 48.828125 37.15625 52.796875 32.3125 
Q 56.78125 27.484375 56.78125 20.515625 
Q 56.78125 9.90625 50.3125 4.234375 
Q 43.84375 -1.421875 31.78125 -1.421875 
Q 19.734375 -1.421875 13.25 4.234375 
Q 6.78125 9.90625 6.78125 20.515625 
Q 6.78125 27.484375 10.78125 32.3125 
Q 14.796875 37.15625 21.921875 38.8125 
z
M 18.3125 54.390625 
Q 18.3125 48.734375 21.84375 45.5625 
Q 25.390625 42.390625 31.78125 42.390625 
Q 38.140625 42.390625 41.71875 45.5625 
Q 45.3125 48.734375 45.3125 54.390625 
Q 45.3125 60.0625 41.71875 63.234375 
Q 38.140625 66.40625 31.78125 66.40625 
Q 25.390625 66.40625 21.84375 63.234375 
Q 18.3125 60.0625 18.3125 54.390625 
z
" id="DejaVuSans-56"/>
        <path d="M 31.78125 66.40625 
Q 24.171875 66.40625 20.328125 58.90625 
Q 16.5 51.421875 16.5 36.375 
Q 16.5 21.390625 20.328125 13.890625 
Q 24.171875 6.390625 31.78125 6.390625 
Q 39.453125 6.390625 43.28125 13.890625 
Q 47.125 21.390625 47.125 36.375 
Q 47.125 51.421875 43.28125 58.90625 
Q 39.453125 66.40625 31.78125 66.40625 
z
M 31.78125 74.21875 
Q 44.046875 74.21875 50.515625 64.515625 
Q 56.984375 54.828125 56.984375 36.375 
Q 56.984375 17.96875 50.515625 8.265625 
Q 44.046875 -1.421875 31.78125 -1.421875 
Q 19.53125 -1.421875 13.0625 8.265625 
Q 6.59375 17.96875 6.59375 36.375 
Q 6.59375 54.828125 13.0625 64.515625 
Q 19.53125 74.21875 31.78125 74.21875 
z
" id="DejaVuSans-48"/>
       </defs>
       <use xlink:href="#DejaVuSans-56"/>
       <use x="63.623047" xlink:href="#DejaVuSans-48"/>
       <use x="127.246094" xlink:href="#DejaVuSans-48"/>
      </g>
     </g>
    </g>
    <g id="xtick_2">
     <g id="line2d_3">
      <path clip-path="url(#p73dcf038d6)" d="M 212.483898 550.4472 
L 212.483898 74.2176 
" style="fill:none;stroke:#ffffff;stroke-linecap:round;"/>
     </g>
     <g id="line2d_4"/>
     <g id="text_2">
      <!-- 1000 -->
      <g transform="translate(199.758898 561.545637)scale(0.1 -0.1)">
       <defs>
        <path d="M 12.40625 8.296875 
L 28.515625 8.296875 
L 28.515625 63.921875 
L 10.984375 60.40625 
L 10.984375 69.390625 
L 28.421875 72.90625 
L 38.28125 72.90625 
L 38.28125 8.296875 
L 54.390625 8.296875 
L 54.390625 0 
L 12.40625 0 
z
" id="DejaVuSans-49"/>
       </defs>
       <use xlink:href="#DejaVuSans-49"/>
       <use x="63.623047" xlink:href="#DejaVuSans-48"/>
       <use x="127.246094" xlink:href="#DejaVuSans-48"/>
       <use x="190.869141" xlink:href="#DejaVuSans-48"/>
      </g>
     </g>
    </g>
    <g id="xtick_3">
     <g id="line2d_5">
      <path clip-path="url(#p73dcf038d6)" d="M 302.837797 550.4472 
L 302.837797 74.2176 
" style="fill:none;stroke:#ffffff;stroke-linecap:round;"/>
     </g>
     <g id="line2d_6"/>
     <g id="text_3">
      <!-- 1200 -->
      <g transform="translate(290.112797 561.545637)scale(0.1 -0.1)">
       <defs>
        <path d="M 19.1875 8.296875 
L 53.609375 8.296875 
L 53.609375 0 
L 7.328125 0 
L 7.328125 8.296875 
Q 12.9375 14.109375 22.625 23.890625 
Q 32.328125 33.6875 34.8125 36.53125 
Q 39.546875 41.84375 41.421875 45.53125 
Q 43.3125 49.21875 43.3125 52.78125 
Q 43.3125 58.59375 39.234375 62.25 
Q 35.15625 65.921875 28.609375 65.921875 
Q 23.96875 65.921875 18.8125 64.3125 
Q 13.671875 62.703125 7.8125 59.421875 
L 7.8125 69.390625 
Q 13.765625 71.78125 18.9375 73 
Q 24.125 74.21875 28.421875 74.21875 
Q 39.75 74.21875 46.484375 68.546875 
Q 53.21875 62.890625 53.21875 53.421875 
Q 53.21875 48.921875 51.53125 44.890625 
Q 49.859375 40.875 45.40625 35.40625 
Q 44.1875 33.984375 37.640625 27.21875 
Q 31.109375 20.453125 19.1875 8.296875 
z
" id="DejaVuSans-50"/>
       </defs>
       <use xlink:href="#DejaVuSans-49"/>
       <use x="63.623047" xlink:href="#DejaVuSans-50"/>
       <use x="127.246094" xlink:href="#DejaVuSans-48"/>
       <use x="190.869141" xlink:href="#DejaVuSans-48"/>
      </g>
     </g>
    </g>
    <g id="xtick_4">
     <g id="line2d_7">
      <path clip-path="url(#p73dcf038d6)" d="M 393.191695 550.4472 
L 393.191695 74.2176 
" style="fill:none;stroke:#ffffff;stroke-linecap:round;"/>
     </g>
     <g id="line2d_8"/>
     <g id="text_4">
      <!-- 1400 -->
      <g transform="translate(380.466695 561.545637)scale(0.1 -0.1)">
       <defs>
        <path d="M 37.796875 64.3125 
L 12.890625 25.390625 
L 37.796875 25.390625 
z
M 35.203125 72.90625 
L 47.609375 72.90625 
L 47.609375 25.390625 
L 58.015625 25.390625 
L 58.015625 17.1875 
L 47.609375 17.1875 
L 47.609375 0 
L 37.796875 0 
L 37.796875 17.1875 
L 4.890625 17.1875 
L 4.890625 26.703125 
z
" id="DejaVuSans-52"/>
       </defs>
       <use xlink:href="#DejaVuSans-49"/>
       <use x="63.623047" xlink:href="#DejaVuSans-52"/>
       <use x="127.246094" xlink:href="#DejaVuSans-48"/>
       <use x="190.869141" xlink:href="#DejaVuSans-48"/>
      </g>
     </g>
    </g>
    <g id="xtick_5">
     <g id="line2d_9">
      <path clip-path="url(#p73dcf038d6)" d="M 483.545593 550.4472 
L 483.545593 74.2176 
" style="fill:none;stroke:#ffffff;stroke-linecap:round;"/>
     </g>
     <g id="line2d_10"/>
     <g id="text_5">
      <!-- 1600 -->
      <g transform="translate(470.820593 561.545637)scale(0.1 -0.1)">
       <defs>
        <path d="M 33.015625 40.375 
Q 26.375 40.375 22.484375 35.828125 
Q 18.609375 31.296875 18.609375 23.390625 
Q 18.609375 15.53125 22.484375 10.953125 
Q 26.375 6.390625 33.015625 6.390625 
Q 39.65625 6.390625 43.53125 10.953125 
Q 47.40625 15.53125 47.40625 23.390625 
Q 47.40625 31.296875 43.53125 35.828125 
Q 39.65625 40.375 33.015625 40.375 
z
M 52.59375 71.296875 
L 52.59375 62.3125 
Q 48.875 64.0625 45.09375 64.984375 
Q 41.3125 65.921875 37.59375 65.921875 
Q 27.828125 65.921875 22.671875 59.328125 
Q 17.53125 52.734375 16.796875 39.40625 
Q 19.671875 43.65625 24.015625 45.921875 
Q 28.375 48.1875 33.59375 48.1875 
Q 44.578125 48.1875 50.953125 41.515625 
Q 57.328125 34.859375 57.328125 23.390625 
Q 57.328125 12.15625 50.6875 5.359375 
Q 44.046875 -1.421875 33.015625 -1.421875 
Q 20.359375 -1.421875 13.671875 8.265625 
Q 6.984375 17.96875 6.984375 36.375 
Q 6.984375 53.65625 15.1875 63.9375 
Q 23.390625 74.21875 37.203125 74.21875 
Q 40.921875 74.21875 44.703125 73.484375 
Q 48.484375 72.75 52.59375 71.296875 
z
" id="DejaVuSans-54"/>
       </defs>
       <use xlink:href="#DejaVuSans-49"/>
       <use x="63.623047" xlink:href="#DejaVuSans-54"/>
       <use x="127.246094" xlink:href="#DejaVuSans-48"/>
       <use x="190.869141" xlink:href="#DejaVuSans-48"/>
      </g>
     </g>
    </g>
    <g id="xtick_6">
     <g id="line2d_11">
      <path clip-path="url(#p73dcf038d6)" d="M 573.899492 550.4472 
L 573.899492 74.2176 
" style="fill:none;stroke:#ffffff;stroke-linecap:round;"/>
     </g>
     <g id="line2d_12"/>
     <g id="text_6">
      <!-- 1800 -->
      <g transform="translate(561.174492 561.545637)scale(0.1 -0.1)">
       <use xlink:href="#DejaVuSans-49"/>
       <use x="63.623047" xlink:href="#DejaVuSans-56"/>
       <use x="127.246094" xlink:href="#DejaVuSans-48"/>
       <use x="190.869141" xlink:href="#DejaVuSans-48"/>
      </g>
     </g>
    </g>
    <g id="xtick_7">
     <g id="line2d_13"/>
    </g>
    <g id="xtick_8">
     <g id="line2d_14"/>
    </g>
    <g id="xtick_9">
     <g id="line2d_15"/>
    </g>
    <g id="xtick_10">
     <g id="line2d_16"/>
    </g>
    <g id="xtick_11">
     <g id="line2d_17"/>
    </g>
    <g id="xtick_12">
     <g id="line2d_18"/>
    </g>
    <g id="xtick_13">
     <g id="line2d_19"/>
    </g>
    <g id="xtick_14">
     <g id="line2d_20"/>
    </g>
    <g id="xtick_15">
     <g id="line2d_21"/>
    </g>
    <g id="xtick_16">
     <g id="line2d_22"/>
    </g>
    <g id="xtick_17">
     <g id="line2d_23"/>
    </g>
    <g id="xtick_18">
     <g id="line2d_24"/>
    </g>
    <g id="xtick_19">
     <g id="line2d_25"/>
    </g>
    <g id="xtick_20">
     <g id="line2d_26"/>
    </g>
    <g id="xtick_21">
     <g id="line2d_27"/>
    </g>
    <g id="xtick_22">
     <g id="line2d_28"/>
    </g>
    <g id="xtick_23">
     <g id="line2d_29"/>
    </g>
    <g id="xtick_24">
     <g id="line2d_30"/>
    </g>
    <g id="text_7">
     <!-- ms -->
     <g transform="translate(381.199 575.223763)scale(0.1 -0.1)">
      <defs>
       <path d="M 52 44.1875 
Q 55.375 50.25 60.0625 53.125 
Q 64.75 56 71.09375 56 
Q 79.640625 56 84.28125 50.015625 
Q 88.921875 44.046875 88.921875 33.015625 
L 88.921875 0 
L 79.890625 0 
L 79.890625 32.71875 
Q 79.890625 40.578125 77.09375 44.375 
Q 74.3125 48.1875 68.609375 48.1875 
Q 61.625 48.1875 57.5625 43.546875 
Q 53.515625 38.921875 53.515625 30.90625 
L 53.515625 0 
L 44.484375 0 
L 44.484375 32.71875 
Q 44.484375 40.625 41.703125 44.40625 
Q 38.921875 48.1875 33.109375 48.1875 
Q 26.21875 48.1875 22.15625 43.53125 
Q 18.109375 38.875 18.109375 30.90625 
L 18.109375 0 
L 9.078125 0 
L 9.078125 54.6875 
L 18.109375 54.6875 
L 18.109375 46.1875 
Q 21.1875 51.21875 25.484375 53.609375 
Q 29.78125 56 35.6875 56 
Q 41.65625 56 45.828125 52.96875 
Q 50 49.953125 52 44.1875 
z
" id="DejaVuSans-109"/>
       <path d="M 44.28125 53.078125 
L 44.28125 44.578125 
Q 40.484375 46.53125 36.375 47.5 
Q 32.28125 48.484375 27.875 48.484375 
Q 21.1875 48.484375 17.84375 46.4375 
Q 14.5 44.390625 14.5 40.28125 
Q 14.5 37.15625 16.890625 35.375 
Q 19.28125 33.59375 26.515625 31.984375 
L 29.59375 31.296875 
Q 39.15625 29.25 43.1875 25.515625 
Q 47.21875 21.78125 47.21875 15.09375 
Q 47.21875 7.46875 41.1875 3.015625 
Q 35.15625 -1.421875 24.609375 -1.421875 
Q 20.21875 -1.421875 15.453125 -0.5625 
Q 10.6875 0.296875 5.421875 2 
L 5.421875 11.28125 
Q 10.40625 8.6875 15.234375 7.390625 
Q 20.0625 6.109375 24.8125 6.109375 
Q 31.15625 6.109375 34.5625 8.28125 
Q 37.984375 10.453125 37.984375 14.40625 
Q 37.984375 18.0625 35.515625 20.015625 
Q 33.0625 21.96875 24.703125 23.78125 
L 21.578125 24.515625 
Q 13.234375 26.265625 9.515625 29.90625 
Q 5.8125 33.546875 5.8125 39.890625 
Q 5.8125 47.609375 11.28125 51.796875 
Q 16.75 56 26.8125 56 
Q 31.78125 56 36.171875 55.265625 
Q 40.578125 54.546875 44.28125 53.078125 
z
" id="DejaVuSans-115"/>
      </defs>
      <use xlink:href="#DejaVuSans-109"/>
      <use x="97.412109" xlink:href="#DejaVuSans-115"/>
     </g>
    </g>
   </g>
   <g id="matplotlib.axis_2">
    <g id="ytick_1">
     <g id="line2d_31">
      <path clip-path="url(#p73dcf038d6)" d="M 122.13 550.4472 
L 655.218 550.4472 
" style="fill:none;stroke:#ffffff;stroke-linecap:round;"/>
     </g>
     <g id="line2d_32"/>
     <g id="text_8">
      <!-- 0.0 -->
      <g transform="translate(102.726875 554.246419)scale(0.1 -0.1)">
       <defs>
        <path d="M 10.6875 12.40625 
L 21 12.40625 
L 21 0 
L 10.6875 0 
z
" id="DejaVuSans-46"/>
       </defs>
       <use xlink:href="#DejaVuSans-48"/>
       <use x="63.623047" xlink:href="#DejaVuSans-46"/>
       <use x="95.410156" xlink:href="#DejaVuSans-48"/>
      </g>
     </g>
    </g>
    <g id="ytick_2">
     <g id="line2d_33">
      <path clip-path="url(#p73dcf038d6)" d="M 122.13 455.20128 
L 655.218 455.20128 
" style="fill:none;stroke:#ffffff;stroke-linecap:round;"/>
     </g>
     <g id="line2d_34"/>
     <g id="text_9">
      <!-- 0.2 -->
      <g transform="translate(102.726875 459.000499)scale(0.1 -0.1)">
       <use xlink:href="#DejaVuSans-48"/>
       <use x="63.623047" xlink:href="#DejaVuSans-46"/>
       <use x="95.410156" xlink:href="#DejaVuSans-50"/>
      </g>
     </g>
    </g>
    <g id="ytick_3">
     <g id="line2d_35">
      <path clip-path="url(#p73dcf038d6)" d="M 122.13 359.95536 
L 655.218 359.95536 
" style="fill:none;stroke:#ffffff;stroke-linecap:round;"/>
     </g>
     <g id="line2d_36"/>
     <g id="text_10">
      <!-- 0.4 -->
      <g transform="translate(102.726875 363.754579)scale(0.1 -0.1)">
       <use xlink:href="#DejaVuSans-48"/>
       <use x="63.623047" xlink:href="#DejaVuSans-46"/>
       <use x="95.410156" xlink:href="#DejaVuSans-52"/>
      </g>
     </g>
    </g>
    <g id="ytick_4">
     <g id="line2d_37">
      <path clip-path="url(#p73dcf038d6)" d="M 122.13 264.70944 
L 655.218 264.70944 
" style="fill:none;stroke:#ffffff;stroke-linecap:round;"/>
     </g>
     <g id="line2d_38"/>
     <g id="text_11">
      <!-- 0.6 -->
      <g transform="translate(102.726875 268.508659)scale(0.1 -0.1)">
       <use xlink:href="#DejaVuSans-48"/>
       <use x="63.623047" xlink:href="#DejaVuSans-46"/>
       <use x="95.410156" xlink:href="#DejaVuSans-54"/>
      </g>
     </g>
    </g>
    <g id="ytick_5">
     <g id="line2d_39">
      <path clip-path="url(#p73dcf038d6)" d="M 122.13 169.46352 
L 655.218 169.46352 
" style="fill:none;stroke:#ffffff;stroke-linecap:round;"/>
     </g>
     <g id="line2d_40"/>
     <g id="text_12">
      <!-- 0.8 -->
      <g transform="translate(102.726875 173.262739)scale(0.1 -0.1)">
       <use xlink:href="#DejaVuSans-48"/>
       <use x="63.623047" xlink:href="#DejaVuSans-46"/>
       <use x="95.410156" xlink:href="#DejaVuSans-56"/>
      </g>
     </g>
    </g>
    <g id="ytick_6">
     <g id="line2d_41">
      <path clip-path="url(#p73dcf038d6)" d="M 122.13 74.2176 
L 655.218 74.2176 
" style="fill:none;stroke:#ffffff;stroke-linecap:round;"/>
     </g>
     <g id="line2d_42"/>
     <g id="text_13">
      <!-- 1.0 -->
      <g transform="translate(102.726875 78.016819)scale(0.1 -0.1)">
       <use xlink:href="#DejaVuSans-49"/>
       <use x="63.623047" xlink:href="#DejaVuSans-46"/>
       <use x="95.410156" xlink:href="#DejaVuSans-48"/>
      </g>
     </g>
    </g>
    <g id="ytick_7">
     <g id="line2d_43"/>
    </g>
    <g id="ytick_8">
     <g id="line2d_44"/>
    </g>
    <g id="ytick_9">
     <g id="line2d_45"/>
    </g>
    <g id="ytick_10">
     <g id="line2d_46"/>
    </g>
    <g id="ytick_11">
     <g id="line2d_47"/>
    </g>
    <g id="ytick_12">
     <g id="line2d_48"/>
    </g>
    <g id="ytick_13">
     <g id="line2d_49"/>
    </g>
    <g id="ytick_14">
     <g id="line2d_50"/>
    </g>
    <g id="ytick_15">
     <g id="line2d_51"/>
    </g>
    <g id="ytick_16">
     <g id="line2d_52"/>
    </g>
    <g id="ytick_17">
     <g id="line2d_53"/>
    </g>
    <g id="ytick_18">
     <g id="line2d_54"/>
    </g>
    <g id="ytick_19">
     <g id="line2d_55"/>
    </g>
    <g id="ytick_20">
     <g id="line2d_56"/>
    </g>
    <g id="ytick_21">
     <g id="line2d_57"/>
    </g>
    <g id="text_14">
     <!-- Cumulative probability -->
     <g transform="translate(96.647187 369.134744)rotate(-90)scale(0.1 -0.1)">
      <defs>
       <path d="M 64.40625 67.28125 
L 64.40625 56.890625 
Q 59.421875 61.53125 53.78125 63.8125 
Q 48.140625 66.109375 41.796875 66.109375 
Q 29.296875 66.109375 22.65625 58.46875 
Q 16.015625 50.828125 16.015625 36.375 
Q 16.015625 21.96875 22.65625 14.328125 
Q 29.296875 6.6875 41.796875 6.6875 
Q 48.140625 6.6875 53.78125 8.984375 
Q 59.421875 11.28125 64.40625 15.921875 
L 64.40625 5.609375 
Q 59.234375 2.09375 53.4375 0.328125 
Q 47.65625 -1.421875 41.21875 -1.421875 
Q 24.65625 -1.421875 15.125 8.703125 
Q 5.609375 18.84375 5.609375 36.375 
Q 5.609375 53.953125 15.125 64.078125 
Q 24.65625 74.21875 41.21875 74.21875 
Q 47.75 74.21875 53.53125 72.484375 
Q 59.328125 70.75 64.40625 67.28125 
z
" id="DejaVuSans-67"/>
       <path d="M 8.5 21.578125 
L 8.5 54.6875 
L 17.484375 54.6875 
L 17.484375 21.921875 
Q 17.484375 14.15625 20.5 10.265625 
Q 23.53125 6.390625 29.59375 6.390625 
Q 36.859375 6.390625 41.078125 11.03125 
Q 45.3125 15.671875 45.3125 23.6875 
L 45.3125 54.6875 
L 54.296875 54.6875 
L 54.296875 0 
L 45.3125 0 
L 45.3125 8.40625 
Q 42.046875 3.421875 37.71875 1 
Q 33.40625 -1.421875 27.6875 -1.421875 
Q 18.265625 -1.421875 13.375 4.4375 
Q 8.5 10.296875 8.5 21.578125 
z
M 31.109375 56 
z
" id="DejaVuSans-117"/>
       <path d="M 9.421875 75.984375 
L 18.40625 75.984375 
L 18.40625 0 
L 9.421875 0 
z
" id="DejaVuSans-108"/>
       <path d="M 34.28125 27.484375 
Q 23.390625 27.484375 19.1875 25 
Q 14.984375 22.515625 14.984375 16.5 
Q 14.984375 11.71875 18.140625 8.90625 
Q 21.296875 6.109375 26.703125 6.109375 
Q 34.1875 6.109375 38.703125 11.40625 
Q 43.21875 16.703125 43.21875 25.484375 
L 43.21875 27.484375 
z
M 52.203125 31.203125 
L 52.203125 0 
L 43.21875 0 
L 43.21875 8.296875 
Q 40.140625 3.328125 35.546875 0.953125 
Q 30.953125 -1.421875 24.3125 -1.421875 
Q 15.921875 -1.421875 10.953125 3.296875 
Q 6 8.015625 6 15.921875 
Q 6 25.140625 12.171875 29.828125 
Q 18.359375 34.515625 30.609375 34.515625 
L 43.21875 34.515625 
L 43.21875 35.40625 
Q 43.21875 41.609375 39.140625 45 
Q 35.0625 48.390625 27.6875 48.390625 
Q 23 48.390625 18.546875 47.265625 
Q 14.109375 46.140625 10.015625 43.890625 
L 10.015625 52.203125 
Q 14.9375 54.109375 19.578125 55.046875 
Q 24.21875 56 28.609375 56 
Q 40.484375 56 46.34375 49.84375 
Q 52.203125 43.703125 52.203125 31.203125 
z
" id="DejaVuSans-97"/>
       <path d="M 18.3125 70.21875 
L 18.3125 54.6875 
L 36.8125 54.6875 
L 36.8125 47.703125 
L 18.3125 47.703125 
L 18.3125 18.015625 
Q 18.3125 11.328125 20.140625 9.421875 
Q 21.96875 7.515625 27.59375 7.515625 
L 36.8125 7.515625 
L 36.8125 0 
L 27.59375 0 
Q 17.1875 0 13.234375 3.875 
Q 9.28125 7.765625 9.28125 18.015625 
L 9.28125 47.703125 
L 2.6875 47.703125 
L 2.6875 54.6875 
L 9.28125 54.6875 
L 9.28125 70.21875 
z
" id="DejaVuSans-116"/>
       <path d="M 9.421875 54.6875 
L 18.40625 54.6875 
L 18.40625 0 
L 9.421875 0 
z
M 9.421875 75.984375 
L 18.40625 75.984375 
L 18.40625 64.59375 
L 9.421875 64.59375 
z
" id="DejaVuSans-105"/>
       <path d="M 2.984375 54.6875 
L 12.5 54.6875 
L 29.59375 8.796875 
L 46.6875 54.6875 
L 56.203125 54.6875 
L 35.6875 0 
L 23.484375 0 
z
" id="DejaVuSans-118"/>
       <path d="M 56.203125 29.59375 
L 56.203125 25.203125 
L 14.890625 25.203125 
Q 15.484375 15.921875 20.484375 11.0625 
Q 25.484375 6.203125 34.421875 6.203125 
Q 39.59375 6.203125 44.453125 7.46875 
Q 49.3125 8.734375 54.109375 11.28125 
L 54.109375 2.78125 
Q 49.265625 0.734375 44.1875 -0.34375 
Q 39.109375 -1.421875 33.890625 -1.421875 
Q 20.796875 -1.421875 13.15625 6.1875 
Q 5.515625 13.8125 5.515625 26.8125 
Q 5.515625 40.234375 12.765625 48.109375 
Q 20.015625 56 32.328125 56 
Q 43.359375 56 49.78125 48.890625 
Q 56.203125 41.796875 56.203125 29.59375 
z
M 47.21875 32.234375 
Q 47.125 39.59375 43.09375 43.984375 
Q 39.0625 48.390625 32.421875 48.390625 
Q 24.90625 48.390625 20.390625 44.140625 
Q 15.875 39.890625 15.1875 32.171875 
z
" id="DejaVuSans-101"/>
       <path id="DejaVuSans-32"/>
       <path d="M 18.109375 8.203125 
L 18.109375 -20.796875 
L 9.078125 -20.796875 
L 9.078125 54.6875 
L 18.109375 54.6875 
L 18.109375 46.390625 
Q 20.953125 51.265625 25.265625 53.625 
Q 29.59375 56 35.59375 56 
Q 45.5625 56 51.78125 48.09375 
Q 58.015625 40.1875 58.015625 27.296875 
Q 58.015625 14.40625 51.78125 6.484375 
Q 45.5625 -1.421875 35.59375 -1.421875 
Q 29.59375 -1.421875 25.265625 0.953125 
Q 20.953125 3.328125 18.109375 8.203125 
z
M 48.6875 27.296875 
Q 48.6875 37.203125 44.609375 42.84375 
Q 40.53125 48.484375 33.40625 48.484375 
Q 26.265625 48.484375 22.1875 42.84375 
Q 18.109375 37.203125 18.109375 27.296875 
Q 18.109375 17.390625 22.1875 11.75 
Q 26.265625 6.109375 33.40625 6.109375 
Q 40.53125 6.109375 44.609375 11.75 
Q 48.6875 17.390625 48.6875 27.296875 
z
" id="DejaVuSans-112"/>
       <path d="M 41.109375 46.296875 
Q 39.59375 47.171875 37.8125 47.578125 
Q 36.03125 48 33.890625 48 
Q 26.265625 48 22.1875 43.046875 
Q 18.109375 38.09375 18.109375 28.8125 
L 18.109375 0 
L 9.078125 0 
L 9.078125 54.6875 
L 18.109375 54.6875 
L 18.109375 46.1875 
Q 20.953125 51.171875 25.484375 53.578125 
Q 30.03125 56 36.53125 56 
Q 37.453125 56 38.578125 55.875 
Q 39.703125 55.765625 41.0625 55.515625 
z
" id="DejaVuSans-114"/>
       <path d="M 30.609375 48.390625 
Q 23.390625 48.390625 19.1875 42.75 
Q 14.984375 37.109375 14.984375 27.296875 
Q 14.984375 17.484375 19.15625 11.84375 
Q 23.34375 6.203125 30.609375 6.203125 
Q 37.796875 6.203125 41.984375 11.859375 
Q 46.1875 17.53125 46.1875 27.296875 
Q 46.1875 37.015625 41.984375 42.703125 
Q 37.796875 48.390625 30.609375 48.390625 
z
M 30.609375 56 
Q 42.328125 56 49.015625 48.375 
Q 55.71875 40.765625 55.71875 27.296875 
Q 55.71875 13.875 49.015625 6.21875 
Q 42.328125 -1.421875 30.609375 -1.421875 
Q 18.84375 -1.421875 12.171875 6.21875 
Q 5.515625 13.875 5.515625 27.296875 
Q 5.515625 40.765625 12.171875 48.375 
Q 18.84375 56 30.609375 56 
z
" id="DejaVuSans-111"/>
       <path d="M 48.6875 27.296875 
Q 48.6875 37.203125 44.609375 42.84375 
Q 40.53125 48.484375 33.40625 48.484375 
Q 26.265625 48.484375 22.1875 42.84375 
Q 18.109375 37.203125 18.109375 27.296875 
Q 18.109375 17.390625 22.1875 11.75 
Q 26.265625 6.109375 33.40625 6.109375 
Q 40.53125 6.109375 44.609375 11.75 
Q 48.6875 17.390625 48.6875 27.296875 
z
M 18.109375 46.390625 
Q 20.953125 51.265625 25.265625 53.625 
Q 29.59375 56 35.59375 56 
Q 45.5625 56 51.78125 48.09375 
Q 58.015625 40.1875 58.015625 27.296875 
Q 58.015625 14.40625 51.78125 6.484375 
Q 45.5625 -1.421875 35.59375 -1.421875 
Q 29.59375 -1.421875 25.265625 0.953125 
Q 20.953125 3.328125 18.109375 8.203125 
L 18.109375 0 
L 9.078125 0 
L 9.078125 75.984375 
L 18.109375 75.984375 
z
" id="DejaVuSans-98"/>
       <path d="M 32.171875 -5.078125 
Q 28.375 -14.84375 24.75 -17.8125 
Q 21.140625 -20.796875 15.09375 -20.796875 
L 7.90625 -20.796875 
L 7.90625 -13.28125 
L 13.1875 -13.28125 
Q 16.890625 -13.28125 18.9375 -11.515625 
Q 21 -9.765625 23.484375 -3.21875 
L 25.09375 0.875 
L 2.984375 54.6875 
L 12.5 54.6875 
L 29.59375 11.921875 
L 46.6875 54.6875 
L 56.203125 54.6875 
z
" id="DejaVuSans-121"/>
      </defs>
      <use xlink:href="#DejaVuSans-67"/>
      <use x="69.824219" xlink:href="#DejaVuSans-117"/>
      <use x="133.203125" xlink:href="#DejaVuSans-109"/>
      <use x="230.615234" xlink:href="#DejaVuSans-117"/>
      <use x="293.994141" xlink:href="#DejaVuSans-108"/>
      <use x="321.777344" xlink:href="#DejaVuSans-97"/>
      <use x="383.056641" xlink:href="#DejaVuSans-116"/>
      <use x="422.265625" xlink:href="#DejaVuSans-105"/>
      <use x="450.048828" xlink:href="#DejaVuSans-118"/>
      <use x="509.228516" xlink:href="#DejaVuSans-101"/>
      <use x="570.751953" xlink:href="#DejaVuSans-32"/>
      <use x="602.539062" xlink:href="#DejaVuSans-112"/>
      <use x="666.015625" xlink:href="#DejaVuSans-114"/>
      <use x="704.878906" xlink:href="#DejaVuSans-111"/>
      <use x="766.060547" xlink:href="#DejaVuSans-98"/>
      <use x="829.537109" xlink:href="#DejaVuSans-97"/>
      <use x="890.816406" xlink:href="#DejaVuSans-98"/>
      <use x="954.292969" xlink:href="#DejaVuSans-105"/>
      <use x="982.076172" xlink:href="#DejaVuSans-108"/>
      <use x="1009.859375" xlink:href="#DejaVuSans-105"/>
      <use x="1037.642578" xlink:href="#DejaVuSans-116"/>
      <use x="1076.851562" xlink:href="#DejaVuSans-121"/>
     </g>
    </g>
   </g>
   <g id="line2d_58">
    <path clip-path="url(#p73dcf038d6)" d="M 144.834128 542.51004 
L 146.747371 534.57288 
L 157.29393 526.63572 
L 158.706613 518.69856 
L 160.537183 510.7614 
L 162.700707 502.82424 
L 163.618703 494.88708 
L 165.903753 486.94992 
L 168.649608 479.01276 
L 169.20664 471.0756 
L 170.402022 463.13844 
L 172.815375 455.20128 
L 175.009167 447.26412 
L 175.553549 439.32696 
L 177.052972 431.3898 
L 179.233664 423.45264 
L 179.344799 415.51548 
L 181.531363 407.57832 
L 181.971839 399.64116 
L 182.531581 391.704 
L 182.622387 383.76684 
L 183.547611 375.82968 
L 184.237914 367.89252 
L 184.722211 359.95536 
L 185.515067 352.0182 
L 187.081352 344.08104 
L 187.47168 336.14388 
L 188.505781 328.20672 
L 189.890906 320.26956 
L 190.32596 312.3324 
L 193.005405 304.39524 
L 194.428479 296.45808 
L 194.527416 288.52092 
L 194.604669 280.58376 
L 194.950724 272.6466 
L 195.749453 264.70944 
L 202.911355 256.77228 
L 205.063133 248.83512 
L 206.277037 240.89796 
L 208.857545 232.9608 
L 209.013857 225.02364 
L 209.848275 217.08648 
L 213.330514 209.14932 
L 214.172161 201.21216 
L 215.974269 193.275 
L 216.685355 185.33784 
L 216.966355 177.40068 
L 218.637902 169.46352 
L 221.333611 161.52636 
L 221.99455 153.5892 
L 231.891916 145.65204 
L 243.464443 137.71488 
L 274.775683 129.77772 
L 276.584568 121.84056 
L 277.631318 113.9034 
L 283.668314 105.96624 
L 292.672983 98.02908 
L 295.345651 90.09192 
L 298.647183 82.15476 
L 453.236378 74.2176 
" style="fill:none;stroke:#1b9e77;stroke-linecap:round;"/>
   </g>
   <g id="line2d_59">
    <path clip-path="url(#p73dcf038d6)" d="M 160.921639 542.375512 
L 161.162884 534.303824 
L 161.954384 526.232136 
L 164.124685 518.160447 
L 164.194709 510.088759 
L 166.42645 502.017071 
L 166.455364 493.945383 
L 167.607376 485.873695 
L 170.905745 477.802007 
L 171.770883 469.730319 
L 172.640992 461.658631 
L 173.141552 453.586942 
L 173.911819 445.515254 
L 173.96558 437.443566 
L 174.053675 429.371878 
L 174.462978 421.30019 
L 174.903001 413.228502 
L 175.08145 405.156814 
L 176.381643 397.085125 
L 179.009586 389.013437 
L 181.211511 380.941749 
L 182.160678 372.870061 
L 182.315183 364.798373 
L 184.227975 356.726685 
L 184.613335 348.654997 
L 185.28105 340.583308 
L 185.408449 332.51162 
L 187.893181 324.439932 
L 188.246013 316.368244 
L 188.739797 308.296556 
L 190.391467 300.224868 
L 190.666594 292.15318 
L 191.941036 284.081492 
L 192.561315 276.009803 
L 193.809555 267.938115 
L 197.25249 259.866427 
L 197.334712 251.794739 
L 202.149219 243.723051 
L 204.814208 235.651363 
L 212.924825 227.579675 
L 217.38379 219.507986 
L 219.342211 211.436298 
L 219.734799 203.36461 
L 220.430524 195.292922 
L 225.749206 187.221234 
L 227.834574 179.149546 
L 230.166156 171.077858 
L 234.727673 163.006169 
L 240.082497 154.934481 
L 262.74732 146.862793 
L 270.685814 138.791105 
L 282.284092 130.719417 
L 283.495738 122.647729 
L 293.85436 114.576041 
L 324.633416 106.504353 
L 329.83012 98.432664 
L 373.719526 90.360976 
L 403.513272 82.289288 
L 493.438442 74.2176 
" style="fill:none;stroke:#d95f02;stroke-dasharray:3.7,1.6;stroke-dashoffset:0;"/>
   </g>
   <g id="line2d_60">
    <path clip-path="url(#p73dcf038d6)" d="M 143.222666 542.51004 
L 149.230296 534.57288 
L 149.476059 526.63572 
L 151.320634 518.69856 
L 160.800565 510.7614 
L 163.077935 502.82424 
L 165.099603 494.88708 
L 165.639016 486.94992 
L 166.353716 479.01276 
L 166.705192 471.0756 
L 167.432541 463.13844 
L 169.434783 455.20128 
L 170.217248 447.26412 
L 171.411275 439.32696 
L 171.878856 431.3898 
L 173.338072 423.45264 
L 175.141536 415.51548 
L 177.573411 407.57832 
L 179.101295 399.64116 
L 181.051132 391.704 
L 183.211946 383.76684 
L 184.214422 375.82968 
L 184.621467 367.89252 
L 184.884848 359.95536 
L 191.604919 352.0182 
L 192.876651 344.08104 
L 195.395717 336.14388 
L 196.789426 328.20672 
L 197.865089 320.26956 
L 197.944601 312.3324 
L 199.080349 304.39524 
L 199.852423 296.45808 
L 201.054582 288.52092 
L 202.751428 280.58376 
L 204.315906 272.6466 
L 206.881957 264.70944 
L 209.694222 256.77228 
L 212.245816 248.83512 
L 213.355813 240.89796 
L 215.091964 232.9608 
L 218.699343 225.02364 
L 221.946662 217.08648 
L 224.707877 209.14932 
L 225.140672 201.21216 
L 228.229872 193.275 
L 228.637368 185.33784 
L 230.314337 177.40068 
L 231.362442 169.46352 
L 235.676389 161.52636 
L 244.709971 153.5892 
L 250.070216 145.65204 
L 254.487619 137.71488 
L 285.126174 129.77772 
L 288.182846 121.84056 
L 304.910063 113.9034 
L 317.27635 105.96624 
L 325.784524 98.02908 
L 328.696631 90.09192 
L 356.114973 82.15476 
L 363.830744 74.2176 
" style="fill:none;stroke:#7570b3;stroke-dasharray:2,4;stroke-dashoffset:0;"/>
   </g>
   <g id="line2d_61">
    <path clip-path="url(#p73dcf038d6)" d="M 151.614736 542.51004 
L 156.500171 534.57288 
L 156.62757 526.63572 
L 156.983113 518.69856 
L 159.586209 510.7614 
L 161.526107 502.82424 
L 164.892241 494.88708 
L 165.33362 486.94992 
L 168.087155 479.01276 
L 168.152662 471.0756 
L 168.627923 463.13844 
L 171.63716 455.20128 
L 172.231237 447.26412 
L 174.843368 439.32696 
L 174.85918 431.3898 
L 175.808799 423.45264 
L 178.080296 415.51548 
L 183.67004 407.57832 
L 184.504458 399.64116 
L 185.90901 391.704 
L 186.451585 383.76684 
L 187.837162 375.82968 
L 188.591617 367.89252 
L 189.113411 359.95536 
L 190.063482 352.0182 
L 190.233799 344.08104 
L 190.337254 336.14388 
L 191.264285 328.20672 
L 192.075663 320.26956 
L 193.749017 312.3324 
L 194.96247 304.39524 
L 195.112006 296.45808 
L 195.608501 288.52092 
L 196.576643 280.58376 
L 196.806593 272.6466 
L 197.448558 264.70944 
L 202.245898 256.77228 
L 203.03017 248.83512 
L 203.597592 240.89796 
L 205.688833 232.9608 
L 206.421152 225.02364 
L 207.241565 217.08648 
L 207.603884 209.14932 
L 207.637315 201.21216 
L 207.778267 193.275 
L 208.078694 185.33784 
L 212.335266 177.40068 
L 224.641467 169.46352 
L 230.100198 161.52636 
L 242.437119 153.5892 
L 245.42693 145.65204 
L 249.811353 137.71488 
L 266.225493 129.77772 
L 273.462389 121.84056 
L 282.856032 113.9034 
L 288.832039 105.96624 
L 317.491844 98.02908 
L 331.761435 90.09192 
L 342.233903 82.15476 
L 389.308284 74.2176 
" style="fill:none;stroke:#e7298a;stroke-dasharray:8,4,2,4;stroke-dashoffset:0;"/>
   </g>
   <g id="line2d_62">
    <path clip-path="url(#p73dcf038d6)" d="M 157.69736 542.092295 
L 162.948729 533.737389 
L 165.071594 525.382484 
L 167.714445 517.027579 
L 173.797521 508.672674 
L 175.781241 500.317768 
L 181.960093 491.962863 
L 182.623742 483.607958 
L 183.534509 475.253053 
L 184.827925 466.898147 
L 185.381343 458.543242 
L 186.644039 450.188337 
L 187.048372 441.833432 
L 187.337957 433.478526 
L 187.395783 425.123621 
L 190.866276 416.768716 
L 190.889768 408.413811 
L 191.598595 400.058905 
L 193.643755 391.704 
L 193.837564 383.349095 
L 196.069757 374.994189 
L 196.39729 366.639284 
L 200.157368 358.284379 
L 200.383252 349.929474 
L 201.420063 341.574568 
L 201.499123 333.219663 
L 203.348216 324.864758 
L 206.830003 316.509853 
L 207.042787 308.154947 
L 207.443506 299.800042 
L 208.033065 291.445137 
L 210.561167 283.090232 
L 210.587822 274.735326 
L 214.135568 266.380421 
L 214.869241 258.025516 
L 218.605827 249.670611 
L 219.081992 241.315705 
L 219.428047 232.9608 
L 220.56741 224.605895 
L 221.339032 216.250989 
L 222.973082 207.896084 
L 223.696817 199.541179 
L 228.855573 191.186274 
L 237.600475 182.831368 
L 240.062167 174.476463 
L 240.619199 166.121558 
L 242.763748 157.766653 
L 255.20548 149.411747 
L 259.269599 141.056842 
L 270.181187 132.701937 
L 276.146352 124.347032 
L 296.809836 115.992126 
L 314.653376 107.637221 
L 323.556397 99.282316 
L 417.251131 90.927411 
L 633.091234 82.572505 
L 653.443901 74.2176 
" style="fill:none;stroke:#66a61e;stroke-linecap:round;"/>
    <defs>
     <path d="M 0 3 
C 0.795609 3 1.55874 2.683901 2.12132 2.12132 
C 2.683901 1.55874 3 0.795609 3 0 
C 3 -0.795609 2.683901 -1.55874 2.12132 -2.12132 
C 1.55874 -2.683901 0.795609 -3 0 -3 
C -0.795609 -3 -1.55874 -2.683901 -2.12132 -2.12132 
C -2.683901 -1.55874 -3 -0.795609 -3 0 
C -3 0.795609 -2.683901 1.55874 -2.12132 2.12132 
C -1.55874 2.683901 -0.795609 3 0 3 
z
" id="m43c1662951" style="stroke:#66a61e;"/>
    </defs>
    <g clip-path="url(#p73dcf038d6)">
     <use style="fill:#66a61e;stroke:#66a61e;" x="157.69736" xlink:href="#m43c1662951" y="542.092295"/>
     <use style="fill:#66a61e;stroke:#66a61e;" x="185.381343" xlink:href="#m43c1662951" y="458.543242"/>
     <use style="fill:#66a61e;stroke:#66a61e;" x="196.069757" xlink:href="#m43c1662951" y="374.994189"/>
     <use style="fill:#66a61e;stroke:#66a61e;" x="208.033065" xlink:href="#m43c1662951" y="291.445137"/>
     <use style="fill:#66a61e;stroke:#66a61e;" x="222.973082" xlink:href="#m43c1662951" y="207.896084"/>
     <use style="fill:#66a61e;stroke:#66a61e;" x="276.146352" xlink:href="#m43c1662951" y="124.347032"/>
    </g>
   </g>
   <g id="patch_3">
    <path d="M 122.13 550.4472 
L 122.13 74.2176 
" style="fill:none;"/>
   </g>
   <g id="patch_4">
    <path d="M 655.218 550.4472 
L 655.218 74.2176 
" style="fill:none;"/>
   </g>
   <g id="patch_5">
    <path d="M 122.13 550.4472 
L 655.218 550.4472 
" style="fill:none;"/>
   </g>
   <g id="patch_6">
    <path d="M 122.13 74.2176 
L 655.218 74.2176 
" style="fill:none;"/>
   </g>
   <g id="legend_1">
    <g id="line2d_63">
     <path d="M 669.21176 80.963598 
L 685.87176 80.963598 
" style="fill:none;stroke:#1b9e77;stroke-linecap:round;"/>
    </g>
    <g id="line2d_64"/>
    <g id="text_15">
     <!-- HTTP get (ms) - - HTTP latency - BBRn-cake -->
     <g transform="translate(692.53576 83.879098)scale(0.0833 -0.0833)">
      <defs>
       <path d="M 9.8125 72.90625 
L 19.671875 72.90625 
L 19.671875 43.015625 
L 55.515625 43.015625 
L 55.515625 72.90625 
L 65.375 72.90625 
L 65.375 0 
L 55.515625 0 
L 55.515625 34.71875 
L 19.671875 34.71875 
L 19.671875 0 
L 9.8125 0 
z
" id="DejaVuSans-72"/>
       <path d="M -0.296875 72.90625 
L 61.375 72.90625 
L 61.375 64.59375 
L 35.5 64.59375 
L 35.5 0 
L 25.59375 0 
L 25.59375 64.59375 
L -0.296875 64.59375 
z
" id="DejaVuSans-84"/>
       <path d="M 19.671875 64.796875 
L 19.671875 37.40625 
L 32.078125 37.40625 
Q 38.96875 37.40625 42.71875 40.96875 
Q 46.484375 44.53125 46.484375 51.125 
Q 46.484375 57.671875 42.71875 61.234375 
Q 38.96875 64.796875 32.078125 64.796875 
z
M 9.8125 72.90625 
L 32.078125 72.90625 
Q 44.34375 72.90625 50.609375 67.359375 
Q 56.890625 61.8125 56.890625 51.125 
Q 56.890625 40.328125 50.609375 34.8125 
Q 44.34375 29.296875 32.078125 29.296875 
L 19.671875 29.296875 
L 19.671875 0 
L 9.8125 0 
z
" id="DejaVuSans-80"/>
       <path d="M 45.40625 27.984375 
Q 45.40625 37.75 41.375 43.109375 
Q 37.359375 48.484375 30.078125 48.484375 
Q 22.859375 48.484375 18.828125 43.109375 
Q 14.796875 37.75 14.796875 27.984375 
Q 14.796875 18.265625 18.828125 12.890625 
Q 22.859375 7.515625 30.078125 7.515625 
Q 37.359375 7.515625 41.375 12.890625 
Q 45.40625 18.265625 45.40625 27.984375 
z
M 54.390625 6.78125 
Q 54.390625 -7.171875 48.1875 -13.984375 
Q 42 -20.796875 29.203125 -20.796875 
Q 24.46875 -20.796875 20.265625 -20.09375 
Q 16.0625 -19.390625 12.109375 -17.921875 
L 12.109375 -9.1875 
Q 16.0625 -11.328125 19.921875 -12.34375 
Q 23.78125 -13.375 27.78125 -13.375 
Q 36.625 -13.375 41.015625 -8.765625 
Q 45.40625 -4.15625 45.40625 5.171875 
L 45.40625 9.625 
Q 42.625 4.78125 38.28125 2.390625 
Q 33.9375 0 27.875 0 
Q 17.828125 0 11.671875 7.65625 
Q 5.515625 15.328125 5.515625 27.984375 
Q 5.515625 40.671875 11.671875 48.328125 
Q 17.828125 56 27.875 56 
Q 33.9375 56 38.28125 53.609375 
Q 42.625 51.21875 45.40625 46.390625 
L 45.40625 54.6875 
L 54.390625 54.6875 
z
" id="DejaVuSans-103"/>
       <path d="M 31 75.875 
Q 24.46875 64.65625 21.28125 53.65625 
Q 18.109375 42.671875 18.109375 31.390625 
Q 18.109375 20.125 21.3125 9.0625 
Q 24.515625 -2 31 -13.1875 
L 23.1875 -13.1875 
Q 15.875 -1.703125 12.234375 9.375 
Q 8.59375 20.453125 8.59375 31.390625 
Q 8.59375 42.28125 12.203125 53.3125 
Q 15.828125 64.359375 23.1875 75.875 
z
" id="DejaVuSans-40"/>
       <path d="M 8.015625 75.875 
L 15.828125 75.875 
Q 23.140625 64.359375 26.78125 53.3125 
Q 30.421875 42.28125 30.421875 31.390625 
Q 30.421875 20.453125 26.78125 9.375 
Q 23.140625 -1.703125 15.828125 -13.1875 
L 8.015625 -13.1875 
Q 14.5 -2 17.703125 9.0625 
Q 20.90625 20.125 20.90625 31.390625 
Q 20.90625 42.671875 17.703125 53.65625 
Q 14.5 64.65625 8.015625 75.875 
z
" id="DejaVuSans-41"/>
       <path d="M 4.890625 31.390625 
L 31.203125 31.390625 
L 31.203125 23.390625 
L 4.890625 23.390625 
z
" id="DejaVuSans-45"/>
       <path d="M 54.890625 33.015625 
L 54.890625 0 
L 45.90625 0 
L 45.90625 32.71875 
Q 45.90625 40.484375 42.875 44.328125 
Q 39.84375 48.1875 33.796875 48.1875 
Q 26.515625 48.1875 22.3125 43.546875 
Q 18.109375 38.921875 18.109375 30.90625 
L 18.109375 0 
L 9.078125 0 
L 9.078125 54.6875 
L 18.109375 54.6875 
L 18.109375 46.1875 
Q 21.34375 51.125 25.703125 53.5625 
Q 30.078125 56 35.796875 56 
Q 45.21875 56 50.046875 50.171875 
Q 54.890625 44.34375 54.890625 33.015625 
z
" id="DejaVuSans-110"/>
       <path d="M 48.78125 52.59375 
L 48.78125 44.1875 
Q 44.96875 46.296875 41.140625 47.34375 
Q 37.3125 48.390625 33.40625 48.390625 
Q 24.65625 48.390625 19.8125 42.84375 
Q 14.984375 37.3125 14.984375 27.296875 
Q 14.984375 17.28125 19.8125 11.734375 
Q 24.65625 6.203125 33.40625 6.203125 
Q 37.3125 6.203125 41.140625 7.25 
Q 44.96875 8.296875 48.78125 10.40625 
L 48.78125 2.09375 
Q 45.015625 0.34375 40.984375 -0.53125 
Q 36.96875 -1.421875 32.421875 -1.421875 
Q 20.0625 -1.421875 12.78125 6.34375 
Q 5.515625 14.109375 5.515625 27.296875 
Q 5.515625 40.671875 12.859375 48.328125 
Q 20.21875 56 33.015625 56 
Q 37.15625 56 41.109375 55.140625 
Q 45.0625 54.296875 48.78125 52.59375 
z
" id="DejaVuSans-99"/>
       <path d="M 19.671875 34.8125 
L 19.671875 8.109375 
L 35.5 8.109375 
Q 43.453125 8.109375 47.28125 11.40625 
Q 51.125 14.703125 51.125 21.484375 
Q 51.125 28.328125 47.28125 31.5625 
Q 43.453125 34.8125 35.5 34.8125 
z
M 19.671875 64.796875 
L 19.671875 42.828125 
L 34.28125 42.828125 
Q 41.5 42.828125 45.03125 45.53125 
Q 48.578125 48.25 48.578125 53.8125 
Q 48.578125 59.328125 45.03125 62.0625 
Q 41.5 64.796875 34.28125 64.796875 
z
M 9.8125 72.90625 
L 35.015625 72.90625 
Q 46.296875 72.90625 52.390625 68.21875 
Q 58.5 63.53125 58.5 54.890625 
Q 58.5 48.1875 55.375 44.234375 
Q 52.25 40.28125 46.1875 39.3125 
Q 53.46875 37.75 57.5 32.78125 
Q 61.53125 27.828125 61.53125 20.40625 
Q 61.53125 10.640625 54.890625 5.3125 
Q 48.25 0 35.984375 0 
L 9.8125 0 
z
" id="DejaVuSans-66"/>
       <path d="M 44.390625 34.1875 
Q 47.5625 33.109375 50.5625 29.59375 
Q 53.5625 26.078125 56.59375 19.921875 
L 66.609375 0 
L 56 0 
L 46.6875 18.703125 
Q 43.0625 26.03125 39.671875 28.421875 
Q 36.28125 30.8125 30.421875 30.8125 
L 19.671875 30.8125 
L 19.671875 0 
L 9.8125 0 
L 9.8125 72.90625 
L 32.078125 72.90625 
Q 44.578125 72.90625 50.734375 67.671875 
Q 56.890625 62.453125 56.890625 51.90625 
Q 56.890625 45.015625 53.6875 40.46875 
Q 50.484375 35.9375 44.390625 34.1875 
z
M 19.671875 64.796875 
L 19.671875 38.921875 
L 32.078125 38.921875 
Q 39.203125 38.921875 42.84375 42.21875 
Q 46.484375 45.515625 46.484375 51.90625 
Q 46.484375 58.296875 42.84375 61.546875 
Q 39.203125 64.796875 32.078125 64.796875 
z
" id="DejaVuSans-82"/>
       <path d="M 9.078125 75.984375 
L 18.109375 75.984375 
L 18.109375 31.109375 
L 44.921875 54.6875 
L 56.390625 54.6875 
L 27.390625 29.109375 
L 57.625 0 
L 45.90625 0 
L 18.109375 26.703125 
L 18.109375 0 
L 9.078125 0 
z
" id="DejaVuSans-107"/>
      </defs>
      <use xlink:href="#DejaVuSans-72"/>
      <use x="75.195312" xlink:href="#DejaVuSans-84"/>
      <use x="134.529297" xlink:href="#DejaVuSans-84"/>
      <use x="195.613281" xlink:href="#DejaVuSans-80"/>
      <use x="255.916016" xlink:href="#DejaVuSans-32"/>
      <use x="287.703125" xlink:href="#DejaVuSans-103"/>
      <use x="351.179688" xlink:href="#DejaVuSans-101"/>
      <use x="412.703125" xlink:href="#DejaVuSans-116"/>
      <use x="451.912109" xlink:href="#DejaVuSans-32"/>
      <use x="483.699219" xlink:href="#DejaVuSans-40"/>
      <use x="522.712891" xlink:href="#DejaVuSans-109"/>
      <use x="620.125" xlink:href="#DejaVuSans-115"/>
      <use x="672.224609" xlink:href="#DejaVuSans-41"/>
      <use x="711.238281" xlink:href="#DejaVuSans-32"/>
      <use x="743.025391" xlink:href="#DejaVuSans-45"/>
      <use x="779.109375" xlink:href="#DejaVuSans-45"/>
      <use x="815.193359" xlink:href="#DejaVuSans-32"/>
      <use x="846.980469" xlink:href="#DejaVuSans-72"/>
      <use x="922.175781" xlink:href="#DejaVuSans-84"/>
      <use x="981.509766" xlink:href="#DejaVuSans-84"/>
      <use x="1042.59375" xlink:href="#DejaVuSans-80"/>
      <use x="1102.896484" xlink:href="#DejaVuSans-32"/>
      <use x="1134.683594" xlink:href="#DejaVuSans-108"/>
      <use x="1162.466797" xlink:href="#DejaVuSans-97"/>
      <use x="1223.746094" xlink:href="#DejaVuSans-116"/>
      <use x="1262.955078" xlink:href="#DejaVuSans-101"/>
      <use x="1324.478516" xlink:href="#DejaVuSans-110"/>
      <use x="1387.857422" xlink:href="#DejaVuSans-99"/>
      <use x="1442.837891" xlink:href="#DejaVuSans-121"/>
      <use x="1502.017578" xlink:href="#DejaVuSans-32"/>
      <use x="1533.804688" xlink:href="#DejaVuSans-45"/>
      <use x="1569.888672" xlink:href="#DejaVuSans-32"/>
      <use x="1601.675781" xlink:href="#DejaVuSans-66"/>
      <use x="1670.279297" xlink:href="#DejaVuSans-66"/>
      <use x="1738.882812" xlink:href="#DejaVuSans-82"/>
      <use x="1808.365234" xlink:href="#DejaVuSans-110"/>
      <use x="1871.744141" xlink:href="#DejaVuSans-45"/>
      <use x="1907.828125" xlink:href="#DejaVuSans-99"/>
      <use x="1962.808594" xlink:href="#DejaVuSans-97"/>
      <use x="2024.087891" xlink:href="#DejaVuSans-107"/>
      <use x="2078.373047" xlink:href="#DejaVuSans-101"/>
     </g>
    </g>
    <g id="line2d_65">
     <path d="M 669.21176 93.190477 
L 685.87176 93.190477 
" style="fill:none;stroke:#d95f02;stroke-dasharray:3.7,1.6;stroke-dashoffset:0;"/>
    </g>
    <g id="line2d_66"/>
    <g id="text_16">
     <!-- HTTP get (ms) - - HTTP latency - BBRn-pie -->
     <g transform="translate(692.53576 96.105977)scale(0.0833 -0.0833)">
      <use xlink:href="#DejaVuSans-72"/>
      <use x="75.195312" xlink:href="#DejaVuSans-84"/>
      <use x="134.529297" xlink:href="#DejaVuSans-84"/>
      <use x="195.613281" xlink:href="#DejaVuSans-80"/>
      <use x="255.916016" xlink:href="#DejaVuSans-32"/>
      <use x="287.703125" xlink:href="#DejaVuSans-103"/>
      <use x="351.179688" xlink:href="#DejaVuSans-101"/>
      <use x="412.703125" xlink:href="#DejaVuSans-116"/>
      <use x="451.912109" xlink:href="#DejaVuSans-32"/>
      <use x="483.699219" xlink:href="#DejaVuSans-40"/>
      <use x="522.712891" xlink:href="#DejaVuSans-109"/>
      <use x="620.125" xlink:href="#DejaVuSans-115"/>
      <use x="672.224609" xlink:href="#DejaVuSans-41"/>
      <use x="711.238281" xlink:href="#DejaVuSans-32"/>
      <use x="743.025391" xlink:href="#DejaVuSans-45"/>
      <use x="779.109375" xlink:href="#DejaVuSans-45"/>
      <use x="815.193359" xlink:href="#DejaVuSans-32"/>
      <use x="846.980469" xlink:href="#DejaVuSans-72"/>
      <use x="922.175781" xlink:href="#DejaVuSans-84"/>
      <use x="981.509766" xlink:href="#DejaVuSans-84"/>
      <use x="1042.59375" xlink:href="#DejaVuSans-80"/>
      <use x="1102.896484" xlink:href="#DejaVuSans-32"/>
      <use x="1134.683594" xlink:href="#DejaVuSans-108"/>
      <use x="1162.466797" xlink:href="#DejaVuSans-97"/>
      <use x="1223.746094" xlink:href="#DejaVuSans-116"/>
      <use x="1262.955078" xlink:href="#DejaVuSans-101"/>
      <use x="1324.478516" xlink:href="#DejaVuSans-110"/>
      <use x="1387.857422" xlink:href="#DejaVuSans-99"/>
      <use x="1442.837891" xlink:href="#DejaVuSans-121"/>
      <use x="1502.017578" xlink:href="#DejaVuSans-32"/>
      <use x="1533.804688" xlink:href="#DejaVuSans-45"/>
      <use x="1569.888672" xlink:href="#DejaVuSans-32"/>
      <use x="1601.675781" xlink:href="#DejaVuSans-66"/>
      <use x="1670.279297" xlink:href="#DejaVuSans-66"/>
      <use x="1738.882812" xlink:href="#DejaVuSans-82"/>
      <use x="1808.365234" xlink:href="#DejaVuSans-110"/>
      <use x="1871.744141" xlink:href="#DejaVuSans-45"/>
      <use x="1907.828125" xlink:href="#DejaVuSans-112"/>
      <use x="1971.304688" xlink:href="#DejaVuSans-105"/>
      <use x="1999.087891" xlink:href="#DejaVuSans-101"/>
     </g>
    </g>
    <g id="line2d_67">
     <path d="M 669.21176 105.417355 
L 685.87176 105.417355 
" style="fill:none;stroke:#7570b3;stroke-dasharray:2,4;stroke-dashoffset:0;"/>
    </g>
    <g id="line2d_68"/>
    <g id="text_17">
     <!-- HTTP get (ms) - - HTTP latency - BBRn-fq_codel -->
     <g transform="translate(692.53576 108.332855)scale(0.0833 -0.0833)">
      <defs>
       <path d="M 37.109375 75.984375 
L 37.109375 68.5 
L 28.515625 68.5 
Q 23.6875 68.5 21.796875 66.546875 
Q 19.921875 64.59375 19.921875 59.515625 
L 19.921875 54.6875 
L 34.71875 54.6875 
L 34.71875 47.703125 
L 19.921875 47.703125 
L 19.921875 0 
L 10.890625 0 
L 10.890625 47.703125 
L 2.296875 47.703125 
L 2.296875 54.6875 
L 10.890625 54.6875 
L 10.890625 58.5 
Q 10.890625 67.625 15.140625 71.796875 
Q 19.390625 75.984375 28.609375 75.984375 
z
" id="DejaVuSans-102"/>
       <path d="M 14.796875 27.296875 
Q 14.796875 17.390625 18.875 11.75 
Q 22.953125 6.109375 30.078125 6.109375 
Q 37.203125 6.109375 41.296875 11.75 
Q 45.40625 17.390625 45.40625 27.296875 
Q 45.40625 37.203125 41.296875 42.84375 
Q 37.203125 48.484375 30.078125 48.484375 
Q 22.953125 48.484375 18.875 42.84375 
Q 14.796875 37.203125 14.796875 27.296875 
z
M 45.40625 8.203125 
Q 42.578125 3.328125 38.25 0.953125 
Q 33.9375 -1.421875 27.875 -1.421875 
Q 17.96875 -1.421875 11.734375 6.484375 
Q 5.515625 14.40625 5.515625 27.296875 
Q 5.515625 40.1875 11.734375 48.09375 
Q 17.96875 56 27.875 56 
Q 33.9375 56 38.25 53.625 
Q 42.578125 51.265625 45.40625 46.390625 
L 45.40625 54.6875 
L 54.390625 54.6875 
L 54.390625 -20.796875 
L 45.40625 -20.796875 
z
" id="DejaVuSans-113"/>
       <path d="M 50.984375 -16.609375 
L 50.984375 -23.578125 
L -0.984375 -23.578125 
L -0.984375 -16.609375 
z
" id="DejaVuSans-95"/>
       <path d="M 45.40625 46.390625 
L 45.40625 75.984375 
L 54.390625 75.984375 
L 54.390625 0 
L 45.40625 0 
L 45.40625 8.203125 
Q 42.578125 3.328125 38.25 0.953125 
Q 33.9375 -1.421875 27.875 -1.421875 
Q 17.96875 -1.421875 11.734375 6.484375 
Q 5.515625 14.40625 5.515625 27.296875 
Q 5.515625 40.1875 11.734375 48.09375 
Q 17.96875 56 27.875 56 
Q 33.9375 56 38.25 53.625 
Q 42.578125 51.265625 45.40625 46.390625 
z
M 14.796875 27.296875 
Q 14.796875 17.390625 18.875 11.75 
Q 22.953125 6.109375 30.078125 6.109375 
Q 37.203125 6.109375 41.296875 11.75 
Q 45.40625 17.390625 45.40625 27.296875 
Q 45.40625 37.203125 41.296875 42.84375 
Q 37.203125 48.484375 30.078125 48.484375 
Q 22.953125 48.484375 18.875 42.84375 
Q 14.796875 37.203125 14.796875 27.296875 
z
" id="DejaVuSans-100"/>
      </defs>
      <use xlink:href="#DejaVuSans-72"/>
      <use x="75.195312" xlink:href="#DejaVuSans-84"/>
      <use x="134.529297" xlink:href="#DejaVuSans-84"/>
      <use x="195.613281" xlink:href="#DejaVuSans-80"/>
      <use x="255.916016" xlink:href="#DejaVuSans-32"/>
      <use x="287.703125" xlink:href="#DejaVuSans-103"/>
      <use x="351.179688" xlink:href="#DejaVuSans-101"/>
      <use x="412.703125" xlink:href="#DejaVuSans-116"/>
      <use x="451.912109" xlink:href="#DejaVuSans-32"/>
      <use x="483.699219" xlink:href="#DejaVuSans-40"/>
      <use x="522.712891" xlink:href="#DejaVuSans-109"/>
      <use x="620.125" xlink:href="#DejaVuSans-115"/>
      <use x="672.224609" xlink:href="#DejaVuSans-41"/>
      <use x="711.238281" xlink:href="#DejaVuSans-32"/>
      <use x="743.025391" xlink:href="#DejaVuSans-45"/>
      <use x="779.109375" xlink:href="#DejaVuSans-45"/>
      <use x="815.193359" xlink:href="#DejaVuSans-32"/>
      <use x="846.980469" xlink:href="#DejaVuSans-72"/>
      <use x="922.175781" xlink:href="#DejaVuSans-84"/>
      <use x="981.509766" xlink:href="#DejaVuSans-84"/>
      <use x="1042.59375" xlink:href="#DejaVuSans-80"/>
      <use x="1102.896484" xlink:href="#DejaVuSans-32"/>
      <use x="1134.683594" xlink:href="#DejaVuSans-108"/>
      <use x="1162.466797" xlink:href="#DejaVuSans-97"/>
      <use x="1223.746094" xlink:href="#DejaVuSans-116"/>
      <use x="1262.955078" xlink:href="#DejaVuSans-101"/>
      <use x="1324.478516" xlink:href="#DejaVuSans-110"/>
      <use x="1387.857422" xlink:href="#DejaVuSans-99"/>
      <use x="1442.837891" xlink:href="#DejaVuSans-121"/>
      <use x="1502.017578" xlink:href="#DejaVuSans-32"/>
      <use x="1533.804688" xlink:href="#DejaVuSans-45"/>
      <use x="1569.888672" xlink:href="#DejaVuSans-32"/>
      <use x="1601.675781" xlink:href="#DejaVuSans-66"/>
      <use x="1670.279297" xlink:href="#DejaVuSans-66"/>
      <use x="1738.882812" xlink:href="#DejaVuSans-82"/>
      <use x="1808.365234" xlink:href="#DejaVuSans-110"/>
      <use x="1871.744141" xlink:href="#DejaVuSans-45"/>
      <use x="1907.828125" xlink:href="#DejaVuSans-102"/>
      <use x="1943.033203" xlink:href="#DejaVuSans-113"/>
      <use x="2006.509766" xlink:href="#DejaVuSans-95"/>
      <use x="2056.509766" xlink:href="#DejaVuSans-99"/>
      <use x="2111.490234" xlink:href="#DejaVuSans-111"/>
      <use x="2172.671875" xlink:href="#DejaVuSans-100"/>
      <use x="2236.148438" xlink:href="#DejaVuSans-101"/>
      <use x="2297.671875" xlink:href="#DejaVuSans-108"/>
     </g>
    </g>
    <g id="line2d_69">
     <path d="M 669.21176 117.875911 
L 685.87176 117.875911 
" style="fill:none;stroke:#e7298a;stroke-dasharray:8,4,2,4;stroke-dashoffset:0;"/>
    </g>
    <g id="line2d_70"/>
    <g id="text_18">
     <!-- HTTP get (ms) - - HTTP latency - BBRn-codel -->
     <g transform="translate(692.53576 120.791411)scale(0.0833 -0.0833)">
      <use xlink:href="#DejaVuSans-72"/>
      <use x="75.195312" xlink:href="#DejaVuSans-84"/>
      <use x="134.529297" xlink:href="#DejaVuSans-84"/>
      <use x="195.613281" xlink:href="#DejaVuSans-80"/>
      <use x="255.916016" xlink:href="#DejaVuSans-32"/>
      <use x="287.703125" xlink:href="#DejaVuSans-103"/>
      <use x="351.179688" xlink:href="#DejaVuSans-101"/>
      <use x="412.703125" xlink:href="#DejaVuSans-116"/>
      <use x="451.912109" xlink:href="#DejaVuSans-32"/>
      <use x="483.699219" xlink:href="#DejaVuSans-40"/>
      <use x="522.712891" xlink:href="#DejaVuSans-109"/>
      <use x="620.125" xlink:href="#DejaVuSans-115"/>
      <use x="672.224609" xlink:href="#DejaVuSans-41"/>
      <use x="711.238281" xlink:href="#DejaVuSans-32"/>
      <use x="743.025391" xlink:href="#DejaVuSans-45"/>
      <use x="779.109375" xlink:href="#DejaVuSans-45"/>
      <use x="815.193359" xlink:href="#DejaVuSans-32"/>
      <use x="846.980469" xlink:href="#DejaVuSans-72"/>
      <use x="922.175781" xlink:href="#DejaVuSans-84"/>
      <use x="981.509766" xlink:href="#DejaVuSans-84"/>
      <use x="1042.59375" xlink:href="#DejaVuSans-80"/>
      <use x="1102.896484" xlink:href="#DejaVuSans-32"/>
      <use x="1134.683594" xlink:href="#DejaVuSans-108"/>
      <use x="1162.466797" xlink:href="#DejaVuSans-97"/>
      <use x="1223.746094" xlink:href="#DejaVuSans-116"/>
      <use x="1262.955078" xlink:href="#DejaVuSans-101"/>
      <use x="1324.478516" xlink:href="#DejaVuSans-110"/>
      <use x="1387.857422" xlink:href="#DejaVuSans-99"/>
      <use x="1442.837891" xlink:href="#DejaVuSans-121"/>
      <use x="1502.017578" xlink:href="#DejaVuSans-32"/>
      <use x="1533.804688" xlink:href="#DejaVuSans-45"/>
      <use x="1569.888672" xlink:href="#DejaVuSans-32"/>
      <use x="1601.675781" xlink:href="#DejaVuSans-66"/>
      <use x="1670.279297" xlink:href="#DejaVuSans-66"/>
      <use x="1738.882812" xlink:href="#DejaVuSans-82"/>
      <use x="1808.365234" xlink:href="#DejaVuSans-110"/>
      <use x="1871.744141" xlink:href="#DejaVuSans-45"/>
      <use x="1907.828125" xlink:href="#DejaVuSans-99"/>
      <use x="1962.808594" xlink:href="#DejaVuSans-111"/>
      <use x="2023.990234" xlink:href="#DejaVuSans-100"/>
      <use x="2087.466797" xlink:href="#DejaVuSans-101"/>
      <use x="2148.990234" xlink:href="#DejaVuSans-108"/>
     </g>
    </g>
    <g id="line2d_71">
     <path d="M 669.21176 130.102789 
L 685.87176 130.102789 
" style="fill:none;stroke:#66a61e;stroke-linecap:round;"/>
    </g>
    <g id="line2d_72">
     <g>
      <use style="fill:#66a61e;stroke:#66a61e;" x="677.54176" xlink:href="#m43c1662951" y="130.102789"/>
     </g>
    </g>
    <g id="text_19">
     <!-- HTTP get (ms) - - HTTP latency - BBRn-fq -->
     <g transform="translate(692.53576 133.018289)scale(0.0833 -0.0833)">
      <use xlink:href="#DejaVuSans-72"/>
      <use x="75.195312" xlink:href="#DejaVuSans-84"/>
      <use x="134.529297" xlink:href="#DejaVuSans-84"/>
      <use x="195.613281" xlink:href="#DejaVuSans-80"/>
      <use x="255.916016" xlink:href="#DejaVuSans-32"/>
      <use x="287.703125" xlink:href="#DejaVuSans-103"/>
      <use x="351.179688" xlink:href="#DejaVuSans-101"/>
      <use x="412.703125" xlink:href="#DejaVuSans-116"/>
      <use x="451.912109" xlink:href="#DejaVuSans-32"/>
      <use x="483.699219" xlink:href="#DejaVuSans-40"/>
      <use x="522.712891" xlink:href="#DejaVuSans-109"/>
      <use x="620.125" xlink:href="#DejaVuSans-115"/>
      <use x="672.224609" xlink:href="#DejaVuSans-41"/>
      <use x="711.238281" xlink:href="#DejaVuSans-32"/>
      <use x="743.025391" xlink:href="#DejaVuSans-45"/>
      <use x="779.109375" xlink:href="#DejaVuSans-45"/>
      <use x="815.193359" xlink:href="#DejaVuSans-32"/>
      <use x="846.980469" xlink:href="#DejaVuSans-72"/>
      <use x="922.175781" xlink:href="#DejaVuSans-84"/>
      <use x="981.509766" xlink:href="#DejaVuSans-84"/>
      <use x="1042.59375" xlink:href="#DejaVuSans-80"/>
      <use x="1102.896484" xlink:href="#DejaVuSans-32"/>
      <use x="1134.683594" xlink:href="#DejaVuSans-108"/>
      <use x="1162.466797" xlink:href="#DejaVuSans-97"/>
      <use x="1223.746094" xlink:href="#DejaVuSans-116"/>
      <use x="1262.955078" xlink:href="#DejaVuSans-101"/>
      <use x="1324.478516" xlink:href="#DejaVuSans-110"/>
      <use x="1387.857422" xlink:href="#DejaVuSans-99"/>
      <use x="1442.837891" xlink:href="#DejaVuSans-121"/>
      <use x="1502.017578" xlink:href="#DejaVuSans-32"/>
      <use x="1533.804688" xlink:href="#DejaVuSans-45"/>
      <use x="1569.888672" xlink:href="#DejaVuSans-32"/>
      <use x="1601.675781" xlink:href="#DejaVuSans-66"/>
      <use x="1670.279297" xlink:href="#DejaVuSans-66"/>
      <use x="1738.882812" xlink:href="#DejaVuSans-82"/>
      <use x="1808.365234" xlink:href="#DejaVuSans-110"/>
      <use x="1871.744141" xlink:href="#DejaVuSans-45"/>
      <use x="1907.828125" xlink:href="#DejaVuSans-102"/>
      <use x="1943.033203" xlink:href="#DejaVuSans-113"/>
     </g>
    </g>
   </g>
  </g>
  <g id="text_20">
   <!-- HTTP latency test -->
   <g transform="translate(427.000937 15.791812)scale(0.14 -0.14)">
    <use xlink:href="#DejaVuSans-72"/>
    <use x="75.195312" xlink:href="#DejaVuSans-84"/>
    <use x="134.529297" xlink:href="#DejaVuSans-84"/>
    <use x="195.613281" xlink:href="#DejaVuSans-80"/>
    <use x="255.916016" xlink:href="#DejaVuSans-32"/>
    <use x="287.703125" xlink:href="#DejaVuSans-108"/>
    <use x="315.486328" xlink:href="#DejaVuSans-97"/>
    <use x="376.765625" xlink:href="#DejaVuSans-116"/>
    <use x="415.974609" xlink:href="#DejaVuSans-101"/>
    <use x="477.498047" xlink:href="#DejaVuSans-110"/>
    <use x="540.876953" xlink:href="#DejaVuSans-99"/>
    <use x="595.857422" xlink:href="#DejaVuSans-121"/>
    <use x="655.037109" xlink:href="#DejaVuSans-32"/>
    <use x="686.824219" xlink:href="#DejaVuSans-116"/>
    <use x="726.033203" xlink:href="#DejaVuSans-101"/>
    <use x="787.556641" xlink:href="#DejaVuSans-115"/>
    <use x="839.65625" xlink:href="#DejaVuSans-116"/>
   </g>
   <!-- Latency CDF plot -->
   <g transform="translate(428.680937 31.46875)scale(0.14 -0.14)">
    <defs>
     <path d="M 9.8125 72.90625 
L 19.671875 72.90625 
L 19.671875 8.296875 
L 55.171875 8.296875 
L 55.171875 0 
L 9.8125 0 
z
" id="DejaVuSans-76"/>
     <path d="M 19.671875 64.796875 
L 19.671875 8.109375 
L 31.59375 8.109375 
Q 46.6875 8.109375 53.6875 14.9375 
Q 60.6875 21.78125 60.6875 36.53125 
Q 60.6875 51.171875 53.6875 57.984375 
Q 46.6875 64.796875 31.59375 64.796875 
z
M 9.8125 72.90625 
L 30.078125 72.90625 
Q 51.265625 72.90625 61.171875 64.09375 
Q 71.09375 55.28125 71.09375 36.53125 
Q 71.09375 17.671875 61.125 8.828125 
Q 51.171875 0 30.078125 0 
L 9.8125 0 
z
" id="DejaVuSans-68"/>
     <path d="M 9.8125 72.90625 
L 51.703125 72.90625 
L 51.703125 64.59375 
L 19.671875 64.59375 
L 19.671875 43.109375 
L 48.578125 43.109375 
L 48.578125 34.8125 
L 19.671875 34.8125 
L 19.671875 0 
L 9.8125 0 
z
" id="DejaVuSans-70"/>
    </defs>
    <use xlink:href="#DejaVuSans-76"/>
    <use x="55.712891" xlink:href="#DejaVuSans-97"/>
    <use x="116.992188" xlink:href="#DejaVuSans-116"/>
    <use x="156.201172" xlink:href="#DejaVuSans-101"/>
    <use x="217.724609" xlink:href="#DejaVuSans-110"/>
    <use x="281.103516" xlink:href="#DejaVuSans-99"/>
    <use x="336.083984" xlink:href="#DejaVuSans-121"/>
    <use x="395.263672" xlink:href="#DejaVuSans-32"/>
    <use x="427.050781" xlink:href="#DejaVuSans-67"/>
    <use x="496.875" xlink:href="#DejaVuSans-68"/>
    <use x="573.876953" xlink:href="#DejaVuSans-70"/>
    <use x="631.396484" xlink:href="#DejaVuSans-32"/>
    <use x="663.183594" xlink:href="#DejaVuSans-112"/>
    <use x="726.660156" xlink:href="#DejaVuSans-108"/>
    <use x="754.443359" xlink:href="#DejaVuSans-111"/>
    <use x="815.625" xlink:href="#DejaVuSans-116"/>
   </g>
  </g>
 </g>
 <defs>
  <clipPath id="p73dcf038d6">
   <rect height="476.2296" width="533.088" x="122.13" y="74.2176"/>
  </clipPath>
 </defs>
</svg>
