<?xml version="1.0" encoding="utf-8" standalone="no"?>
<!DOCTYPE svg PUBLIC "-//W3C//DTD SVG 1.1//EN"
  "http://www.w3.org/Graphics/SVG/1.1/DTD/svg11.dtd">
<!-- Created with matplotlib (https://matplotlib.org/) -->
<svg height="516.24pt" version="1.1" viewBox="0 0 977.04 516.24" width="977.04pt" xmlns="http://www.w3.org/2000/svg" xmlns:xlink="http://www.w3.org/1999/xlink">
 <metadata>
  <rdf:RDF xmlns:cc="http://creativecommons.org/ns#" xmlns:dc="http://purl.org/dc/elements/1.1/" xmlns:rdf="http://www.w3.org/1999/02/22-rdf-syntax-ns#">
   <cc:Work>
    <dc:type rdf:resource="http://purl.org/dc/dcmitype/StillImage"/>
    <dc:date>2023-09-14T12:20:24.012878</dc:date>
    <dc:format>image/svg+xml</dc:format>
    <dc:creator>
     <cc:Agent>
      <dc:title>Matplotlib v3.3.4, https://matplotlib.org/</dc:title>
     </cc:Agent>
    </dc:creator>
   </cc:Work>
  </rdf:RDF>
 </metadata>
 <defs>
  <style type="text/css">*{stroke-linecap:butt;stroke-linejoin:round;}</style>
 </defs>
 <g id="figure_1">
  <g id="patch_1">
   <path d="M 0 516.24 
L 977.04 516.24 
L 977.04 0 
L 0 0 
z
" style="fill:#ffffff;"/>
  </g>
  <g id="axes_1">
   <g id="patch_2">
    <path d="M 122.13 459.4536 
L 631.818 459.4536 
L 631.818 61.9488 
L 122.13 61.9488 
z
" style="fill:#e6e6e6;"/>
   </g>
   <g id="matplotlib.axis_1">
    <g id="xtick_1">
     <g id="line2d_1">
      <path clip-path="url(#pf61be1398e)" d="M 188.156338 459.4536 
L 188.156338 61.9488 
" style="fill:none;stroke:#ffffff;stroke-linecap:round;"/>
     </g>
     <g id="line2d_2"/>
     <g id="text_1">
      <!-- 10 -->
      <g transform="translate(181.793838 470.552038)scale(0.1 -0.1)">
       <defs>
        <path d="M 12.40625 8.296875 
L 28.515625 8.296875 
L 28.515625 63.921875 
L 10.984375 60.40625 
L 10.984375 69.390625 
L 28.421875 72.90625 
L 38.28125 72.90625 
L 38.28125 8.296875 
L 54.390625 8.296875 
L 54.390625 0 
L 12.40625 0 
z
" id="DejaVuSans-49"/>
        <path d="M 31.78125 66.40625 
Q 24.171875 66.40625 20.328125 58.90625 
Q 16.5 51.421875 16.5 36.375 
Q 16.5 21.390625 20.328125 13.890625 
Q 24.171875 6.390625 31.78125 6.390625 
Q 39.453125 6.390625 43.28125 13.890625 
Q 47.125 21.390625 47.125 36.375 
Q 47.125 51.421875 43.28125 58.90625 
Q 39.453125 66.40625 31.78125 66.40625 
z
M 31.78125 74.21875 
Q 44.046875 74.21875 50.515625 64.515625 
Q 56.984375 54.828125 56.984375 36.375 
Q 56.984375 17.96875 50.515625 8.265625 
Q 44.046875 -1.421875 31.78125 -1.421875 
Q 19.53125 -1.421875 13.0625 8.265625 
Q 6.59375 17.96875 6.59375 36.375 
Q 6.59375 54.828125 13.0625 64.515625 
Q 19.53125 74.21875 31.78125 74.21875 
z
" id="DejaVuSans-48"/>
       </defs>
       <use xlink:href="#DejaVuSans-49"/>
       <use x="63.623047" xlink:href="#DejaVuSans-48"/>
      </g>
     </g>
    </g>
    <g id="xtick_2">
     <g id="line2d_3">
      <path clip-path="url(#pf61be1398e)" d="M 254.3701 459.4536 
L 254.3701 61.9488 
" style="fill:none;stroke:#ffffff;stroke-linecap:round;"/>
     </g>
     <g id="line2d_4"/>
     <g id="text_2">
      <!-- 20 -->
      <g transform="translate(248.0076 470.552038)scale(0.1 -0.1)">
       <defs>
        <path d="M 19.1875 8.296875 
L 53.609375 8.296875 
L 53.609375 0 
L 7.328125 0 
L 7.328125 8.296875 
Q 12.9375 14.109375 22.625 23.890625 
Q 32.328125 33.6875 34.8125 36.53125 
Q 39.546875 41.84375 41.421875 45.53125 
Q 43.3125 49.21875 43.3125 52.78125 
Q 43.3125 58.59375 39.234375 62.25 
Q 35.15625 65.921875 28.609375 65.921875 
Q 23.96875 65.921875 18.8125 64.3125 
Q 13.671875 62.703125 7.8125 59.421875 
L 7.8125 69.390625 
Q 13.765625 71.78125 18.9375 73 
Q 24.125 74.21875 28.421875 74.21875 
Q 39.75 74.21875 46.484375 68.546875 
Q 53.21875 62.890625 53.21875 53.421875 
Q 53.21875 48.921875 51.53125 44.890625 
Q 49.859375 40.875 45.40625 35.40625 
Q 44.1875 33.984375 37.640625 27.21875 
Q 31.109375 20.453125 19.1875 8.296875 
z
" id="DejaVuSans-50"/>
       </defs>
       <use xlink:href="#DejaVuSans-50"/>
       <use x="63.623047" xlink:href="#DejaVuSans-48"/>
      </g>
     </g>
    </g>
    <g id="xtick_3">
     <g id="line2d_5">
      <path clip-path="url(#pf61be1398e)" d="M 320.583862 459.4536 
L 320.583862 61.9488 
" style="fill:none;stroke:#ffffff;stroke-linecap:round;"/>
     </g>
     <g id="line2d_6"/>
     <g id="text_3">
      <!-- 30 -->
      <g transform="translate(314.221362 470.552038)scale(0.1 -0.1)">
       <defs>
        <path d="M 40.578125 39.3125 
Q 47.65625 37.796875 51.625 33 
Q 55.609375 28.21875 55.609375 21.1875 
Q 55.609375 10.40625 48.1875 4.484375 
Q 40.765625 -1.421875 27.09375 -1.421875 
Q 22.515625 -1.421875 17.65625 -0.515625 
Q 12.796875 0.390625 7.625 2.203125 
L 7.625 11.71875 
Q 11.71875 9.328125 16.59375 8.109375 
Q 21.484375 6.890625 26.8125 6.890625 
Q 36.078125 6.890625 40.9375 10.546875 
Q 45.796875 14.203125 45.796875 21.1875 
Q 45.796875 27.640625 41.28125 31.265625 
Q 36.765625 34.90625 28.71875 34.90625 
L 20.21875 34.90625 
L 20.21875 43.015625 
L 29.109375 43.015625 
Q 36.375 43.015625 40.234375 45.921875 
Q 44.09375 48.828125 44.09375 54.296875 
Q 44.09375 59.90625 40.109375 62.90625 
Q 36.140625 65.921875 28.71875 65.921875 
Q 24.65625 65.921875 20.015625 65.03125 
Q 15.375 64.15625 9.8125 62.3125 
L 9.8125 71.09375 
Q 15.4375 72.65625 20.34375 73.4375 
Q 25.25 74.21875 29.59375 74.21875 
Q 40.828125 74.21875 47.359375 69.109375 
Q 53.90625 64.015625 53.90625 55.328125 
Q 53.90625 49.265625 50.4375 45.09375 
Q 46.96875 40.921875 40.578125 39.3125 
z
" id="DejaVuSans-51"/>
       </defs>
       <use xlink:href="#DejaVuSans-51"/>
       <use x="63.623047" xlink:href="#DejaVuSans-48"/>
      </g>
     </g>
    </g>
    <g id="xtick_4">
     <g id="line2d_7">
      <path clip-path="url(#pf61be1398e)" d="M 386.797625 459.4536 
L 386.797625 61.9488 
" style="fill:none;stroke:#ffffff;stroke-linecap:round;"/>
     </g>
     <g id="line2d_8"/>
     <g id="text_4">
      <!-- 40 -->
      <g transform="translate(380.435125 470.552038)scale(0.1 -0.1)">
       <defs>
        <path d="M 37.796875 64.3125 
L 12.890625 25.390625 
L 37.796875 25.390625 
z
M 35.203125 72.90625 
L 47.609375 72.90625 
L 47.609375 25.390625 
L 58.015625 25.390625 
L 58.015625 17.1875 
L 47.609375 17.1875 
L 47.609375 0 
L 37.796875 0 
L 37.796875 17.1875 
L 4.890625 17.1875 
L 4.890625 26.703125 
z
" id="DejaVuSans-52"/>
       </defs>
       <use xlink:href="#DejaVuSans-52"/>
       <use x="63.623047" xlink:href="#DejaVuSans-48"/>
      </g>
     </g>
    </g>
    <g id="xtick_5">
     <g id="line2d_9">
      <path clip-path="url(#pf61be1398e)" d="M 453.011387 459.4536 
L 453.011387 61.9488 
" style="fill:none;stroke:#ffffff;stroke-linecap:round;"/>
     </g>
     <g id="line2d_10"/>
     <g id="text_5">
      <!-- 50 -->
      <g transform="translate(446.648887 470.552038)scale(0.1 -0.1)">
       <defs>
        <path d="M 10.796875 72.90625 
L 49.515625 72.90625 
L 49.515625 64.59375 
L 19.828125 64.59375 
L 19.828125 46.734375 
Q 21.96875 47.46875 24.109375 47.828125 
Q 26.265625 48.1875 28.421875 48.1875 
Q 40.625 48.1875 47.75 41.5 
Q 54.890625 34.8125 54.890625 23.390625 
Q 54.890625 11.625 47.5625 5.09375 
Q 40.234375 -1.421875 26.90625 -1.421875 
Q 22.3125 -1.421875 17.546875 -0.640625 
Q 12.796875 0.140625 7.71875 1.703125 
L 7.71875 11.625 
Q 12.109375 9.234375 16.796875 8.0625 
Q 21.484375 6.890625 26.703125 6.890625 
Q 35.15625 6.890625 40.078125 11.328125 
Q 45.015625 15.765625 45.015625 23.390625 
Q 45.015625 31 40.078125 35.4375 
Q 35.15625 39.890625 26.703125 39.890625 
Q 22.75 39.890625 18.8125 39.015625 
Q 14.890625 38.140625 10.796875 36.28125 
z
" id="DejaVuSans-53"/>
       </defs>
       <use xlink:href="#DejaVuSans-53"/>
       <use x="63.623047" xlink:href="#DejaVuSans-48"/>
      </g>
     </g>
    </g>
    <g id="xtick_6">
     <g id="line2d_11">
      <path clip-path="url(#pf61be1398e)" d="M 519.225149 459.4536 
L 519.225149 61.9488 
" style="fill:none;stroke:#ffffff;stroke-linecap:round;"/>
     </g>
     <g id="line2d_12"/>
     <g id="text_6">
      <!-- 60 -->
      <g transform="translate(512.862649 470.552038)scale(0.1 -0.1)">
       <defs>
        <path d="M 33.015625 40.375 
Q 26.375 40.375 22.484375 35.828125 
Q 18.609375 31.296875 18.609375 23.390625 
Q 18.609375 15.53125 22.484375 10.953125 
Q 26.375 6.390625 33.015625 6.390625 
Q 39.65625 6.390625 43.53125 10.953125 
Q 47.40625 15.53125 47.40625 23.390625 
Q 47.40625 31.296875 43.53125 35.828125 
Q 39.65625 40.375 33.015625 40.375 
z
M 52.59375 71.296875 
L 52.59375 62.3125 
Q 48.875 64.0625 45.09375 64.984375 
Q 41.3125 65.921875 37.59375 65.921875 
Q 27.828125 65.921875 22.671875 59.328125 
Q 17.53125 52.734375 16.796875 39.40625 
Q 19.671875 43.65625 24.015625 45.921875 
Q 28.375 48.1875 33.59375 48.1875 
Q 44.578125 48.1875 50.953125 41.515625 
Q 57.328125 34.859375 57.328125 23.390625 
Q 57.328125 12.15625 50.6875 5.359375 
Q 44.046875 -1.421875 33.015625 -1.421875 
Q 20.359375 -1.421875 13.671875 8.265625 
Q 6.984375 17.96875 6.984375 36.375 
Q 6.984375 53.65625 15.1875 63.9375 
Q 23.390625 74.21875 37.203125 74.21875 
Q 40.921875 74.21875 44.703125 73.484375 
Q 48.484375 72.75 52.59375 71.296875 
z
" id="DejaVuSans-54"/>
       </defs>
       <use xlink:href="#DejaVuSans-54"/>
       <use x="63.623047" xlink:href="#DejaVuSans-48"/>
      </g>
     </g>
    </g>
    <g id="xtick_7">
     <g id="line2d_13">
      <path clip-path="url(#pf61be1398e)" d="M 585.438912 459.4536 
L 585.438912 61.9488 
" style="fill:none;stroke:#ffffff;stroke-linecap:round;"/>
     </g>
     <g id="line2d_14"/>
     <g id="text_7">
      <!-- 70 -->
      <g transform="translate(579.076412 470.552038)scale(0.1 -0.1)">
       <defs>
        <path d="M 8.203125 72.90625 
L 55.078125 72.90625 
L 55.078125 68.703125 
L 28.609375 0 
L 18.3125 0 
L 43.21875 64.59375 
L 8.203125 64.59375 
z
" id="DejaVuSans-55"/>
       </defs>
       <use xlink:href="#DejaVuSans-55"/>
       <use x="63.623047" xlink:href="#DejaVuSans-48"/>
      </g>
     </g>
    </g>
    <g id="xtick_8">
     <g id="line2d_15"/>
    </g>
    <g id="xtick_9">
     <g id="line2d_16"/>
    </g>
    <g id="xtick_10">
     <g id="line2d_17"/>
    </g>
    <g id="xtick_11">
     <g id="line2d_18"/>
    </g>
    <g id="xtick_12">
     <g id="line2d_19"/>
    </g>
    <g id="xtick_13">
     <g id="line2d_20"/>
    </g>
    <g id="xtick_14">
     <g id="line2d_21"/>
    </g>
    <g id="xtick_15">
     <g id="line2d_22"/>
    </g>
    <g id="xtick_16">
     <g id="line2d_23"/>
    </g>
    <g id="xtick_17">
     <g id="line2d_24"/>
    </g>
    <g id="xtick_18">
     <g id="line2d_25"/>
    </g>
    <g id="xtick_19">
     <g id="line2d_26"/>
    </g>
    <g id="xtick_20">
     <g id="line2d_27"/>
    </g>
    <g id="xtick_21">
     <g id="line2d_28"/>
    </g>
    <g id="xtick_22">
     <g id="line2d_29"/>
    </g>
    <g id="xtick_23">
     <g id="line2d_30"/>
    </g>
    <g id="xtick_24">
     <g id="line2d_31"/>
    </g>
    <g id="xtick_25">
     <g id="line2d_32"/>
    </g>
    <g id="xtick_26">
     <g id="line2d_33"/>
    </g>
    <g id="xtick_27">
     <g id="line2d_34"/>
    </g>
    <g id="xtick_28">
     <g id="line2d_35"/>
    </g>
    <g id="xtick_29">
     <g id="line2d_36"/>
    </g>
    <g id="xtick_30">
     <g id="line2d_37"/>
    </g>
    <g id="xtick_31">
     <g id="line2d_38"/>
    </g>
    <g id="xtick_32">
     <g id="line2d_39"/>
    </g>
    <g id="xtick_33">
     <g id="line2d_40"/>
    </g>
    <g id="xtick_34">
     <g id="line2d_41"/>
    </g>
    <g id="xtick_35">
     <g id="line2d_42"/>
    </g>
    <g id="xtick_36">
     <g id="line2d_43"/>
    </g>
    <g id="xtick_37">
     <g id="line2d_44"/>
    </g>
    <g id="xtick_38">
     <g id="line2d_45"/>
    </g>
    <g id="text_8">
     <!-- Time (s) -->
     <g transform="translate(356.645094 484.230163)scale(0.1 -0.1)">
      <defs>
       <path d="M -0.296875 72.90625 
L 61.375 72.90625 
L 61.375 64.59375 
L 35.5 64.59375 
L 35.5 0 
L 25.59375 0 
L 25.59375 64.59375 
L -0.296875 64.59375 
z
" id="DejaVuSans-84"/>
       <path d="M 9.421875 54.6875 
L 18.40625 54.6875 
L 18.40625 0 
L 9.421875 0 
z
M 9.421875 75.984375 
L 18.40625 75.984375 
L 18.40625 64.59375 
L 9.421875 64.59375 
z
" id="DejaVuSans-105"/>
       <path d="M 52 44.1875 
Q 55.375 50.25 60.0625 53.125 
Q 64.75 56 71.09375 56 
Q 79.640625 56 84.28125 50.015625 
Q 88.921875 44.046875 88.921875 33.015625 
L 88.921875 0 
L 79.890625 0 
L 79.890625 32.71875 
Q 79.890625 40.578125 77.09375 44.375 
Q 74.3125 48.1875 68.609375 48.1875 
Q 61.625 48.1875 57.5625 43.546875 
Q 53.515625 38.921875 53.515625 30.90625 
L 53.515625 0 
L 44.484375 0 
L 44.484375 32.71875 
Q 44.484375 40.625 41.703125 44.40625 
Q 38.921875 48.1875 33.109375 48.1875 
Q 26.21875 48.1875 22.15625 43.53125 
Q 18.109375 38.875 18.109375 30.90625 
L 18.109375 0 
L 9.078125 0 
L 9.078125 54.6875 
L 18.109375 54.6875 
L 18.109375 46.1875 
Q 21.1875 51.21875 25.484375 53.609375 
Q 29.78125 56 35.6875 56 
Q 41.65625 56 45.828125 52.96875 
Q 50 49.953125 52 44.1875 
z
" id="DejaVuSans-109"/>
       <path d="M 56.203125 29.59375 
L 56.203125 25.203125 
L 14.890625 25.203125 
Q 15.484375 15.921875 20.484375 11.0625 
Q 25.484375 6.203125 34.421875 6.203125 
Q 39.59375 6.203125 44.453125 7.46875 
Q 49.3125 8.734375 54.109375 11.28125 
L 54.109375 2.78125 
Q 49.265625 0.734375 44.1875 -0.34375 
Q 39.109375 -1.421875 33.890625 -1.421875 
Q 20.796875 -1.421875 13.15625 6.1875 
Q 5.515625 13.8125 5.515625 26.8125 
Q 5.515625 40.234375 12.765625 48.109375 
Q 20.015625 56 32.328125 56 
Q 43.359375 56 49.78125 48.890625 
Q 56.203125 41.796875 56.203125 29.59375 
z
M 47.21875 32.234375 
Q 47.125 39.59375 43.09375 43.984375 
Q 39.0625 48.390625 32.421875 48.390625 
Q 24.90625 48.390625 20.390625 44.140625 
Q 15.875 39.890625 15.1875 32.171875 
z
" id="DejaVuSans-101"/>
       <path id="DejaVuSans-32"/>
       <path d="M 31 75.875 
Q 24.46875 64.65625 21.28125 53.65625 
Q 18.109375 42.671875 18.109375 31.390625 
Q 18.109375 20.125 21.3125 9.0625 
Q 24.515625 -2 31 -13.1875 
L 23.1875 -13.1875 
Q 15.875 -1.703125 12.234375 9.375 
Q 8.59375 20.453125 8.59375 31.390625 
Q 8.59375 42.28125 12.203125 53.3125 
Q 15.828125 64.359375 23.1875 75.875 
z
" id="DejaVuSans-40"/>
       <path d="M 44.28125 53.078125 
L 44.28125 44.578125 
Q 40.484375 46.53125 36.375 47.5 
Q 32.28125 48.484375 27.875 48.484375 
Q 21.1875 48.484375 17.84375 46.4375 
Q 14.5 44.390625 14.5 40.28125 
Q 14.5 37.15625 16.890625 35.375 
Q 19.28125 33.59375 26.515625 31.984375 
L 29.59375 31.296875 
Q 39.15625 29.25 43.1875 25.515625 
Q 47.21875 21.78125 47.21875 15.09375 
Q 47.21875 7.46875 41.1875 3.015625 
Q 35.15625 -1.421875 24.609375 -1.421875 
Q 20.21875 -1.421875 15.453125 -0.5625 
Q 10.6875 0.296875 5.421875 2 
L 5.421875 11.28125 
Q 10.40625 8.6875 15.234375 7.390625 
Q 20.0625 6.109375 24.8125 6.109375 
Q 31.15625 6.109375 34.5625 8.28125 
Q 37.984375 10.453125 37.984375 14.40625 
Q 37.984375 18.0625 35.515625 20.015625 
Q 33.0625 21.96875 24.703125 23.78125 
L 21.578125 24.515625 
Q 13.234375 26.265625 9.515625 29.90625 
Q 5.8125 33.546875 5.8125 39.890625 
Q 5.8125 47.609375 11.28125 51.796875 
Q 16.75 56 26.8125 56 
Q 31.78125 56 36.171875 55.265625 
Q 40.578125 54.546875 44.28125 53.078125 
z
" id="DejaVuSans-115"/>
       <path d="M 8.015625 75.875 
L 15.828125 75.875 
Q 23.140625 64.359375 26.78125 53.3125 
Q 30.421875 42.28125 30.421875 31.390625 
Q 30.421875 20.453125 26.78125 9.375 
Q 23.140625 -1.703125 15.828125 -13.1875 
L 8.015625 -13.1875 
Q 14.5 -2 17.703125 9.0625 
Q 20.90625 20.125 20.90625 31.390625 
Q 20.90625 42.671875 17.703125 53.65625 
Q 14.5 64.65625 8.015625 75.875 
z
" id="DejaVuSans-41"/>
      </defs>
      <use xlink:href="#DejaVuSans-84"/>
      <use x="57.958984" xlink:href="#DejaVuSans-105"/>
      <use x="85.742188" xlink:href="#DejaVuSans-109"/>
      <use x="183.154297" xlink:href="#DejaVuSans-101"/>
      <use x="244.677734" xlink:href="#DejaVuSans-32"/>
      <use x="276.464844" xlink:href="#DejaVuSans-40"/>
      <use x="315.478516" xlink:href="#DejaVuSans-115"/>
      <use x="367.578125" xlink:href="#DejaVuSans-41"/>
     </g>
    </g>
   </g>
   <g id="matplotlib.axis_2">
    <g id="ytick_1">
     <g id="line2d_46">
      <path clip-path="url(#pf61be1398e)" d="M 122.13 455.556494 
L 631.818 455.556494 
" style="fill:none;stroke:#ffffff;stroke-linecap:round;"/>
     </g>
     <g id="line2d_47"/>
     <g id="text_9">
      <!-- 0 -->
      <g transform="translate(112.2675 459.355713)scale(0.1 -0.1)">
       <use xlink:href="#DejaVuSans-48"/>
      </g>
     </g>
    </g>
    <g id="ytick_2">
     <g id="line2d_48">
      <path clip-path="url(#pf61be1398e)" d="M 122.13 375.117552 
L 631.818 375.117552 
" style="fill:none;stroke:#ffffff;stroke-linecap:round;"/>
     </g>
     <g id="line2d_49"/>
     <g id="text_10">
      <!-- 20000 -->
      <g transform="translate(86.8175 378.91677)scale(0.1 -0.1)">
       <use xlink:href="#DejaVuSans-50"/>
       <use x="63.623047" xlink:href="#DejaVuSans-48"/>
       <use x="127.246094" xlink:href="#DejaVuSans-48"/>
       <use x="190.869141" xlink:href="#DejaVuSans-48"/>
       <use x="254.492188" xlink:href="#DejaVuSans-48"/>
      </g>
     </g>
    </g>
    <g id="ytick_3">
     <g id="line2d_50">
      <path clip-path="url(#pf61be1398e)" d="M 122.13 294.678609 
L 631.818 294.678609 
" style="fill:none;stroke:#ffffff;stroke-linecap:round;"/>
     </g>
     <g id="line2d_51"/>
     <g id="text_11">
      <!-- 40000 -->
      <g transform="translate(86.8175 298.477828)scale(0.1 -0.1)">
       <use xlink:href="#DejaVuSans-52"/>
       <use x="63.623047" xlink:href="#DejaVuSans-48"/>
       <use x="127.246094" xlink:href="#DejaVuSans-48"/>
       <use x="190.869141" xlink:href="#DejaVuSans-48"/>
       <use x="254.492188" xlink:href="#DejaVuSans-48"/>
      </g>
     </g>
    </g>
    <g id="ytick_4">
     <g id="line2d_52">
      <path clip-path="url(#pf61be1398e)" d="M 122.13 214.239667 
L 631.818 214.239667 
" style="fill:none;stroke:#ffffff;stroke-linecap:round;"/>
     </g>
     <g id="line2d_53"/>
     <g id="text_12">
      <!-- 60000 -->
      <g transform="translate(86.8175 218.038886)scale(0.1 -0.1)">
       <use xlink:href="#DejaVuSans-54"/>
       <use x="63.623047" xlink:href="#DejaVuSans-48"/>
       <use x="127.246094" xlink:href="#DejaVuSans-48"/>
       <use x="190.869141" xlink:href="#DejaVuSans-48"/>
       <use x="254.492188" xlink:href="#DejaVuSans-48"/>
      </g>
     </g>
    </g>
    <g id="ytick_5">
     <g id="line2d_54">
      <path clip-path="url(#pf61be1398e)" d="M 122.13 133.800724 
L 631.818 133.800724 
" style="fill:none;stroke:#ffffff;stroke-linecap:round;"/>
     </g>
     <g id="line2d_55"/>
     <g id="text_13">
      <!-- 80000 -->
      <g transform="translate(86.8175 137.599943)scale(0.1 -0.1)">
       <defs>
        <path d="M 31.78125 34.625 
Q 24.75 34.625 20.71875 30.859375 
Q 16.703125 27.09375 16.703125 20.515625 
Q 16.703125 13.921875 20.71875 10.15625 
Q 24.75 6.390625 31.78125 6.390625 
Q 38.8125 6.390625 42.859375 10.171875 
Q 46.921875 13.96875 46.921875 20.515625 
Q 46.921875 27.09375 42.890625 30.859375 
Q 38.875 34.625 31.78125 34.625 
z
M 21.921875 38.8125 
Q 15.578125 40.375 12.03125 44.71875 
Q 8.5 49.078125 8.5 55.328125 
Q 8.5 64.0625 14.71875 69.140625 
Q 20.953125 74.21875 31.78125 74.21875 
Q 42.671875 74.21875 48.875 69.140625 
Q 55.078125 64.0625 55.078125 55.328125 
Q 55.078125 49.078125 51.53125 44.71875 
Q 48 40.375 41.703125 38.8125 
Q 48.828125 37.15625 52.796875 32.3125 
Q 56.78125 27.484375 56.78125 20.515625 
Q 56.78125 9.90625 50.3125 4.234375 
Q 43.84375 -1.421875 31.78125 -1.421875 
Q 19.734375 -1.421875 13.25 4.234375 
Q 6.78125 9.90625 6.78125 20.515625 
Q 6.78125 27.484375 10.78125 32.3125 
Q 14.796875 37.15625 21.921875 38.8125 
z
M 18.3125 54.390625 
Q 18.3125 48.734375 21.84375 45.5625 
Q 25.390625 42.390625 31.78125 42.390625 
Q 38.140625 42.390625 41.71875 45.5625 
Q 45.3125 48.734375 45.3125 54.390625 
Q 45.3125 60.0625 41.71875 63.234375 
Q 38.140625 66.40625 31.78125 66.40625 
Q 25.390625 66.40625 21.84375 63.234375 
Q 18.3125 60.0625 18.3125 54.390625 
z
" id="DejaVuSans-56"/>
       </defs>
       <use xlink:href="#DejaVuSans-56"/>
       <use x="63.623047" xlink:href="#DejaVuSans-48"/>
       <use x="127.246094" xlink:href="#DejaVuSans-48"/>
       <use x="190.869141" xlink:href="#DejaVuSans-48"/>
       <use x="254.492188" xlink:href="#DejaVuSans-48"/>
      </g>
     </g>
    </g>
    <g id="ytick_6">
     <g id="line2d_56"/>
    </g>
    <g id="ytick_7">
     <g id="line2d_57"/>
    </g>
    <g id="ytick_8">
     <g id="line2d_58"/>
    </g>
    <g id="ytick_9">
     <g id="line2d_59"/>
    </g>
    <g id="ytick_10">
     <g id="line2d_60"/>
    </g>
    <g id="ytick_11">
     <g id="line2d_61"/>
    </g>
    <g id="ytick_12">
     <g id="line2d_62"/>
    </g>
    <g id="ytick_13">
     <g id="line2d_63"/>
    </g>
    <g id="ytick_14">
     <g id="line2d_64"/>
    </g>
    <g id="ytick_15">
     <g id="line2d_65"/>
    </g>
    <g id="ytick_16">
     <g id="line2d_66"/>
    </g>
    <g id="ytick_17">
     <g id="line2d_67"/>
    </g>
    <g id="ytick_18">
     <g id="line2d_68"/>
    </g>
    <g id="ytick_19">
     <g id="line2d_69"/>
    </g>
    <g id="ytick_20">
     <g id="line2d_70"/>
    </g>
    <g id="text_14">
     <!-- Bytes -->
     <g transform="translate(80.737812 274.73245)rotate(-90)scale(0.1 -0.1)">
      <defs>
       <path d="M 19.671875 34.8125 
L 19.671875 8.109375 
L 35.5 8.109375 
Q 43.453125 8.109375 47.28125 11.40625 
Q 51.125 14.703125 51.125 21.484375 
Q 51.125 28.328125 47.28125 31.5625 
Q 43.453125 34.8125 35.5 34.8125 
z
M 19.671875 64.796875 
L 19.671875 42.828125 
L 34.28125 42.828125 
Q 41.5 42.828125 45.03125 45.53125 
Q 48.578125 48.25 48.578125 53.8125 
Q 48.578125 59.328125 45.03125 62.0625 
Q 41.5 64.796875 34.28125 64.796875 
z
M 9.8125 72.90625 
L 35.015625 72.90625 
Q 46.296875 72.90625 52.390625 68.21875 
Q 58.5 63.53125 58.5 54.890625 
Q 58.5 48.1875 55.375 44.234375 
Q 52.25 40.28125 46.1875 39.3125 
Q 53.46875 37.75 57.5 32.78125 
Q 61.53125 27.828125 61.53125 20.40625 
Q 61.53125 10.640625 54.890625 5.3125 
Q 48.25 0 35.984375 0 
L 9.8125 0 
z
" id="DejaVuSans-66"/>
       <path d="M 32.171875 -5.078125 
Q 28.375 -14.84375 24.75 -17.8125 
Q 21.140625 -20.796875 15.09375 -20.796875 
L 7.90625 -20.796875 
L 7.90625 -13.28125 
L 13.1875 -13.28125 
Q 16.890625 -13.28125 18.9375 -11.515625 
Q 21 -9.765625 23.484375 -3.21875 
L 25.09375 0.875 
L 2.984375 54.6875 
L 12.5 54.6875 
L 29.59375 11.921875 
L 46.6875 54.6875 
L 56.203125 54.6875 
z
" id="DejaVuSans-121"/>
       <path d="M 18.3125 70.21875 
L 18.3125 54.6875 
L 36.8125 54.6875 
L 36.8125 47.703125 
L 18.3125 47.703125 
L 18.3125 18.015625 
Q 18.3125 11.328125 20.140625 9.421875 
Q 21.96875 7.515625 27.59375 7.515625 
L 36.8125 7.515625 
L 36.8125 0 
L 27.59375 0 
Q 17.1875 0 13.234375 3.875 
Q 9.28125 7.765625 9.28125 18.015625 
L 9.28125 47.703125 
L 2.6875 47.703125 
L 2.6875 54.6875 
L 9.28125 54.6875 
L 9.28125 70.21875 
z
" id="DejaVuSans-116"/>
      </defs>
      <use xlink:href="#DejaVuSans-66"/>
      <use x="68.603516" xlink:href="#DejaVuSans-121"/>
      <use x="127.783203" xlink:href="#DejaVuSans-116"/>
      <use x="166.992188" xlink:href="#DejaVuSans-101"/>
      <use x="228.515625" xlink:href="#DejaVuSans-115"/>
     </g>
    </g>
   </g>
   <g id="line2d_71">
    <path clip-path="url(#pf61be1398e)" d="M 122.184851 455.556494 
L 155.02892 455.556494 
L 156.4004 431.199582 
L 157.777556 370.307303 
L 159.148503 455.556494 
L 162.018722 455.556494 
L 163.504567 333.771935 
L 164.93553 455.556494 
L 166.359199 376.396531 
L 167.740985 376.396531 
L 169.142934 358.128847 
L 170.648866 278.968884 
L 172.031486 431.199582 
L 173.419468 455.556494 
L 174.796468 254.611972 
L 176.157265 455.556494 
L 177.57564 352.039619 
L 178.969934 455.556494 
L 180.3507 455.556494 
L 181.750745 400.753443 
L 183.125089 455.556494 
L 184.634944 382.485759 
L 186.066226 358.128847 
L 187.447854 455.556494 
L 191.613323 455.556494 
L 193.053692 90.202818 
L 194.476452 455.556494 
L 195.934841 303.325796 
L 197.311777 455.556494 
L 198.725244 382.485759 
L 200.550106 455.556494 
L 201.979828 248.522744 
L 203.368155 455.556494 
L 204.744733 431.199582 
L 206.113141 455.556494 
L 207.610012 431.199582 
L 208.988672 376.396531 
L 210.394094 364.218075 
L 211.763748 455.556494 
L 213.140361 364.218075 
L 215.892772 400.753443 
L 217.278151 455.556494 
L 220.022454 455.556494 
L 221.428541 333.771935 
L 222.795863 406.842671 
L 224.217365 455.556494 
L 226.962178 455.556494 
L 228.33553 406.842671 
L 231.111141 455.556494 
L 239.63596 455.556494 
L 241.034244 278.968884 
L 242.663171 455.556494 
L 245.57996 455.556494 
L 246.950157 431.199582 
L 249.695163 431.199582 
L 251.08865 157.184325 
L 252.495049 224.165832 
L 253.940288 455.556494 
L 255.356664 455.556494 
L 258.084521 431.199582 
L 259.455896 455.556494 
L 260.836594 431.199582 
L 262.248045 455.556494 
L 263.711414 455.556494 
L 265.119198 419.021126 
L 266.485289 333.771935 
L 267.857575 431.199582 
L 269.225874 455.556494 
L 270.646311 412.931899 
L 272.011456 455.556494 
L 273.393089 376.396531 
L 274.765597 455.556494 
L 277.51224 455.556494 
L 278.890351 358.128847 
L 280.256245 455.556494 
L 281.636658 394.664215 
L 283.008964 382.485759 
L 284.396034 321.593479 
L 285.791104 291.14734 
L 287.160874 455.556494 
L 289.985742 455.556494 
L 291.364857 431.199582 
L 292.742344 455.556494 
L 294.144506 455.556494 
L 295.60864 431.199582 
L 297.073809 455.556494 
L 298.439615 455.556494 
L 299.847049 431.199582 
L 301.234741 455.556494 
L 302.610026 272.879656 
L 304.001095 236.344288 
L 305.386952 406.842671 
L 306.839868 455.556494 
L 308.337861 266.790428 
L 309.779437 455.556494 
L 311.1586 455.556494 
L 312.535126 400.753443 
L 313.901302 455.556494 
L 315.300035 431.199582 
L 316.676869 376.396531 
L 318.039304 455.556494 
L 319.409477 339.861163 
L 320.769292 455.556494 
L 322.141353 425.110354 
L 323.501761 455.556494 
L 324.870219 455.556494 
L 326.271695 364.218075 
L 327.644341 285.058112 
L 329.017094 455.556494 
L 330.395638 266.790428 
L 331.816843 455.556494 
L 333.187783 431.199582 
L 334.556232 455.556494 
L 335.928254 163.273553 
L 337.295039 352.039619 
L 338.656769 419.021126 
L 340.020787 455.556494 
L 345.600455 455.556494 
L 347.004617 327.682707 
L 348.368138 376.396531 
L 349.73203 455.556494 
L 351.124553 145.005869 
L 352.517759 425.110354 
L 353.892455 419.021126 
L 355.273679 455.556494 
L 356.666554 376.396531 
L 358.041845 394.664215 
L 359.405074 455.556494 
L 360.794582 419.021126 
L 362.156376 455.556494 
L 363.547215 431.199582 
L 364.909685 455.556494 
L 367.65281 455.556494 
L 369.029824 278.968884 
L 371.768892 455.556494 
L 373.134213 388.574987 
L 374.505855 406.842671 
L 376.063 455.556494 
L 377.506496 455.556494 
L 378.896006 388.574987 
L 380.256335 455.556494 
L 381.647065 370.307303 
L 383.018201 339.861163 
L 384.390918 358.128847 
L 385.82999 419.021126 
L 387.265053 382.485759 
L 388.642987 431.199582 
L 390.014951 455.556494 
L 391.430017 382.485759 
L 392.789632 455.556494 
L 403.733128 455.556494 
L 405.106886 406.842671 
L 406.468937 333.771935 
L 407.841684 333.771935 
L 409.218396 455.556494 
L 410.595666 431.199582 
L 411.963262 431.199582 
L 413.346634 455.556494 
L 414.713489 358.128847 
L 416.12575 248.522744 
L 417.527926 352.039619 
L 418.987928 96.292046 
L 421.752304 339.861163 
L 423.133178 272.879656 
L 424.509432 242.433516 
L 425.87257 455.556494 
L 427.233267 431.199582 
L 428.641797 400.753443 
L 430.018129 455.556494 
L 431.385419 406.842671 
L 432.758875 278.968884 
L 434.137123 455.556494 
L 435.666784 376.396531 
L 437.090367 455.556494 
L 438.452459 455.556494 
L 439.824484 321.593479 
L 441.235821 455.556494 
L 442.602441 406.842671 
L 443.964379 455.556494 
L 452.151955 455.556494 
L 453.632979 394.664215 
L 455.051278 455.556494 
L 459.170608 455.556494 
L 460.529637 339.861163 
L 461.902753 431.199582 
L 463.322475 376.396531 
L 464.724155 431.199582 
L 466.099216 431.199582 
L 467.461885 388.574987 
L 468.864942 455.556494 
L 470.2272 394.664215 
L 471.651678 291.14734 
L 473.051716 321.593479 
L 474.417701 431.199582 
L 475.850912 65.845906 
L 477.236857 321.593479 
L 478.612868 455.556494 
L 479.989182 236.344288 
L 481.391354 455.556494 
L 482.864939 352.039619 
L 484.266436 455.556494 
L 485.648153 285.058112 
L 487.020448 358.128847 
L 488.380239 455.556494 
L 489.754613 394.664215 
L 491.232977 400.753443 
L 492.696711 321.593479 
L 494.123342 455.556494 
L 495.490966 345.950391 
L 496.863369 285.058112 
L 498.236297 455.556494 
L 499.605204 455.556494 
L 500.996426 425.110354 
L 502.453841 327.682707 
L 503.821928 455.556494 
L 505.201594 242.433516 
L 506.577289 455.556494 
L 507.950555 297.236568 
L 509.373053 455.556494 
L 510.849534 352.039619 
L 512.230161 455.556494 
L 513.622433 431.199582 
L 514.991214 455.556494 
L 516.398129 431.199582 
L 517.775231 455.556494 
L 519.260661 327.682707 
L 520.695277 455.556494 
L 523.450385 455.556494 
L 524.870922 327.682707 
L 526.248774 339.861163 
L 527.733893 339.861163 
L 529.136707 370.307303 
L 530.508123 419.021126 
L 531.916576 455.556494 
L 533.31221 406.842671 
L 536.087306 376.396531 
L 537.452191 388.574987 
L 538.826247 333.771935 
L 540.203663 455.556494 
L 541.589375 230.25506 
L 542.950833 455.556494 
L 544.313023 242.433516 
L 545.712642 339.861163 
L 547.085851 455.556494 
L 548.54597 455.556494 
L 550.024096 394.664215 
L 551.475602 236.344288 
L 552.856099 455.556494 
L 554.245795 455.556494 
L 555.629009 376.396531 
L 557.001404 455.556494 
L 607.549755 455.556494 
L 607.549755 455.556494 
" style="fill:none;stroke:#1b9e77;stroke-linecap:round;"/>
   </g>
   <g id="line2d_72">
    <path clip-path="url(#pf61be1398e)" d="M 122.133345 455.556494 
L 467.369112 455.556494 
L 468.751957 358.128847 
L 470.195066 455.556494 
L 614.651568 455.556494 
L 614.651568 455.556494 
" style="fill:none;stroke:#d95f02;stroke-dasharray:3.7,1.6;stroke-dashoffset:0;"/>
   </g>
   <g id="line2d_73">
    <path clip-path="url(#pf61be1398e)" d="M 122.209037 455.556494 
L 376.697752 455.556494 
L 378.215557 419.021126 
L 379.672242 455.556494 
L 425.412626 455.556494 
L 426.832008 291.14734 
L 428.198909 455.556494 
L 432.418573 455.556494 
L 433.828238 419.021126 
L 435.222319 455.556494 
L 508.634416 455.556494 
L 510.033369 291.14734 
L 511.554361 455.556494 
L 531.311359 455.556494 
L 532.708486 260.7012 
L 534.084196 455.556494 
L 612.505748 455.556494 
L 612.505748 455.556494 
" style="fill:none;stroke:#7570b3;stroke-dasharray:2,4;stroke-dashoffset:0;"/>
   </g>
   <g id="line2d_74">
    <path clip-path="url(#pf61be1398e)" d="M 122.154221 455.556494 
L 168.593419 455.556494 
L 170.097507 425.110354 
L 171.534678 455.556494 
L 175.671357 455.556494 
L 177.065454 425.110354 
L 178.450157 455.556494 
L 189.960233 455.556494 
L 191.450439 339.861163 
L 192.861593 455.556494 
L 217.899674 455.556494 
L 219.398336 364.218075 
L 220.823704 455.556494 
L 233.506276 455.556494 
L 234.88727 412.931899 
L 236.265221 455.556494 
L 238.989783 455.556494 
L 240.448982 412.931899 
L 241.823287 455.556494 
L 346.320743 455.556494 
L 347.866713 449.467266 
L 349.227456 455.556494 
L 379.777072 455.556494 
L 381.141881 309.415024 
L 382.503823 455.556494 
L 385.381332 455.556494 
L 386.803477 455.162343 
L 388.167864 455.556494 
L 461.921468 455.556494 
L 463.307424 364.218075 
L 464.671518 455.556494 
L 480.070791 455.556494 
L 481.478188 370.307303 
L 482.841824 455.556494 
L 484.205749 425.110354 
L 485.580856 455.556494 
L 492.432712 455.556494 
L 493.793208 388.574987 
L 495.163096 455.556494 
L 511.771133 455.556494 
L 513.196263 443.378038 
L 514.61982 455.556494 
L 538.224201 455.556494 
L 539.59882 309.415024 
L 541.064545 455.556494 
L 607.003791 455.556494 
L 607.003791 455.556494 
" style="fill:none;stroke:#e7298a;stroke-dasharray:8,4,2,4;stroke-dashoffset:0;"/>
   </g>
   <g id="line2d_75">
    <path clip-path="url(#pf61be1398e)" d="M 122.13 455.556494 
L 614.426369 455.556494 
L 614.426369 455.556494 
" style="fill:none;stroke:#66a61e;stroke-linecap:round;"/>
    <defs>
     <path d="M 0 3 
C 0.795609 3 1.55874 2.683901 2.12132 2.12132 
C 2.683901 1.55874 3 0.795609 3 0 
C 3 -0.795609 2.683901 -1.55874 2.12132 -2.12132 
C 1.55874 -2.683901 0.795609 -3 0 -3 
C -0.795609 -3 -1.55874 -2.683901 -2.12132 -2.12132 
C -2.683901 -1.55874 -3 -0.795609 -3 0 
C -3 0.795609 -2.683901 1.55874 -2.12132 2.12132 
C -1.55874 2.683901 -0.795609 3 0 3 
z
" id="m62261f74f0" style="stroke:#66a61e;"/>
    </defs>
    <g clip-path="url(#pf61be1398e)">
     <use style="fill:#66a61e;stroke:#66a61e;" x="122.13" xlink:href="#m62261f74f0" y="455.556494"/>
     <use style="fill:#66a61e;stroke:#66a61e;" x="135.747826" xlink:href="#m62261f74f0" y="455.556494"/>
     <use style="fill:#66a61e;stroke:#66a61e;" x="149.450982" xlink:href="#m62261f74f0" y="455.556494"/>
     <use style="fill:#66a61e;stroke:#66a61e;" x="163.475137" xlink:href="#m62261f74f0" y="455.556494"/>
     <use style="fill:#66a61e;stroke:#66a61e;" x="177.851381" xlink:href="#m62261f74f0" y="455.556494"/>
     <use style="fill:#66a61e;stroke:#66a61e;" x="191.923774" xlink:href="#m62261f74f0" y="455.556494"/>
     <use style="fill:#66a61e;stroke:#66a61e;" x="206.59842" xlink:href="#m62261f74f0" y="455.556494"/>
     <use style="fill:#66a61e;stroke:#66a61e;" x="220.941837" xlink:href="#m62261f74f0" y="455.556494"/>
     <use style="fill:#66a61e;stroke:#66a61e;" x="235.189876" xlink:href="#m62261f74f0" y="455.556494"/>
     <use style="fill:#66a61e;stroke:#66a61e;" x="249.429361" xlink:href="#m62261f74f0" y="455.556494"/>
     <use style="fill:#66a61e;stroke:#66a61e;" x="263.622703" xlink:href="#m62261f74f0" y="455.556494"/>
     <use style="fill:#66a61e;stroke:#66a61e;" x="278.078938" xlink:href="#m62261f74f0" y="455.556494"/>
     <use style="fill:#66a61e;stroke:#66a61e;" x="292.087455" xlink:href="#m62261f74f0" y="455.556494"/>
     <use style="fill:#66a61e;stroke:#66a61e;" x="306.296288" xlink:href="#m62261f74f0" y="455.556494"/>
     <use style="fill:#66a61e;stroke:#66a61e;" x="321.391703" xlink:href="#m62261f74f0" y="455.556494"/>
     <use style="fill:#66a61e;stroke:#66a61e;" x="335.407572" xlink:href="#m62261f74f0" y="455.556494"/>
     <use style="fill:#66a61e;stroke:#66a61e;" x="350.095966" xlink:href="#m62261f74f0" y="455.556494"/>
     <use style="fill:#66a61e;stroke:#66a61e;" x="364.248274" xlink:href="#m62261f74f0" y="455.556494"/>
     <use style="fill:#66a61e;stroke:#66a61e;" x="378.151669" xlink:href="#m62261f74f0" y="455.556494"/>
     <use style="fill:#66a61e;stroke:#66a61e;" x="392.505454" xlink:href="#m62261f74f0" y="455.556494"/>
     <use style="fill:#66a61e;stroke:#66a61e;" x="406.876274" xlink:href="#m62261f74f0" y="455.556494"/>
     <use style="fill:#66a61e;stroke:#66a61e;" x="420.895231" xlink:href="#m62261f74f0" y="455.556494"/>
     <use style="fill:#66a61e;stroke:#66a61e;" x="434.77977" xlink:href="#m62261f74f0" y="455.556494"/>
     <use style="fill:#66a61e;stroke:#66a61e;" x="448.628496" xlink:href="#m62261f74f0" y="455.556494"/>
     <use style="fill:#66a61e;stroke:#66a61e;" x="462.767865" xlink:href="#m62261f74f0" y="455.556494"/>
     <use style="fill:#66a61e;stroke:#66a61e;" x="477.078935" xlink:href="#m62261f74f0" y="455.556494"/>
     <use style="fill:#66a61e;stroke:#66a61e;" x="491.130792" xlink:href="#m62261f74f0" y="455.556494"/>
     <use style="fill:#66a61e;stroke:#66a61e;" x="505.210136" xlink:href="#m62261f74f0" y="455.556494"/>
     <use style="fill:#66a61e;stroke:#66a61e;" x="519.273324" xlink:href="#m62261f74f0" y="455.556494"/>
     <use style="fill:#66a61e;stroke:#66a61e;" x="533.493549" xlink:href="#m62261f74f0" y="455.556494"/>
     <use style="fill:#66a61e;stroke:#66a61e;" x="547.48986" xlink:href="#m62261f74f0" y="455.556494"/>
     <use style="fill:#66a61e;stroke:#66a61e;" x="561.267775" xlink:href="#m62261f74f0" y="455.556494"/>
     <use style="fill:#66a61e;stroke:#66a61e;" x="574.897974" xlink:href="#m62261f74f0" y="455.556494"/>
     <use style="fill:#66a61e;stroke:#66a61e;" x="588.516031" xlink:href="#m62261f74f0" y="455.556494"/>
     <use style="fill:#66a61e;stroke:#66a61e;" x="602.159687" xlink:href="#m62261f74f0" y="455.556494"/>
    </g>
   </g>
   <g id="patch_3">
    <path d="M 122.13 459.4536 
L 122.13 61.9488 
" style="fill:none;"/>
   </g>
   <g id="patch_4">
    <path d="M 631.818 459.4536 
L 631.818 61.9488 
" style="fill:none;"/>
   </g>
   <g id="patch_5">
    <path d="M 122.13 459.4536 
L 631.818 459.4536 
" style="fill:none;"/>
   </g>
   <g id="patch_6">
    <path d="M 122.13 61.9488 
L 631.818 61.9488 
" style="fill:none;"/>
   </g>
   <g id="legend_1">
    <g id="line2d_76">
     <path d="M 645.34376 68.694798 
L 662.00376 68.694798 
" style="fill:none;stroke:#1b9e77;stroke-linecap:round;"/>
    </g>
    <g id="line2d_77"/>
    <g id="text_15">
     <!-- Backlog (bytes) - - localhost (ens33) - BBRn-fq -->
     <g transform="translate(668.66776 71.610298)scale(0.0833 -0.0833)">
      <defs>
       <path d="M 34.28125 27.484375 
Q 23.390625 27.484375 19.1875 25 
Q 14.984375 22.515625 14.984375 16.5 
Q 14.984375 11.71875 18.140625 8.90625 
Q 21.296875 6.109375 26.703125 6.109375 
Q 34.1875 6.109375 38.703125 11.40625 
Q 43.21875 16.703125 43.21875 25.484375 
L 43.21875 27.484375 
z
M 52.203125 31.203125 
L 52.203125 0 
L 43.21875 0 
L 43.21875 8.296875 
Q 40.140625 3.328125 35.546875 0.953125 
Q 30.953125 -1.421875 24.3125 -1.421875 
Q 15.921875 -1.421875 10.953125 3.296875 
Q 6 8.015625 6 15.921875 
Q 6 25.140625 12.171875 29.828125 
Q 18.359375 34.515625 30.609375 34.515625 
L 43.21875 34.515625 
L 43.21875 35.40625 
Q 43.21875 41.609375 39.140625 45 
Q 35.0625 48.390625 27.6875 48.390625 
Q 23 48.390625 18.546875 47.265625 
Q 14.109375 46.140625 10.015625 43.890625 
L 10.015625 52.203125 
Q 14.9375 54.109375 19.578125 55.046875 
Q 24.21875 56 28.609375 56 
Q 40.484375 56 46.34375 49.84375 
Q 52.203125 43.703125 52.203125 31.203125 
z
" id="DejaVuSans-97"/>
       <path d="M 48.78125 52.59375 
L 48.78125 44.1875 
Q 44.96875 46.296875 41.140625 47.34375 
Q 37.3125 48.390625 33.40625 48.390625 
Q 24.65625 48.390625 19.8125 42.84375 
Q 14.984375 37.3125 14.984375 27.296875 
Q 14.984375 17.28125 19.8125 11.734375 
Q 24.65625 6.203125 33.40625 6.203125 
Q 37.3125 6.203125 41.140625 7.25 
Q 44.96875 8.296875 48.78125 10.40625 
L 48.78125 2.09375 
Q 45.015625 0.34375 40.984375 -0.53125 
Q 36.96875 -1.421875 32.421875 -1.421875 
Q 20.0625 -1.421875 12.78125 6.34375 
Q 5.515625 14.109375 5.515625 27.296875 
Q 5.515625 40.671875 12.859375 48.328125 
Q 20.21875 56 33.015625 56 
Q 37.15625 56 41.109375 55.140625 
Q 45.0625 54.296875 48.78125 52.59375 
z
" id="DejaVuSans-99"/>
       <path d="M 9.078125 75.984375 
L 18.109375 75.984375 
L 18.109375 31.109375 
L 44.921875 54.6875 
L 56.390625 54.6875 
L 27.390625 29.109375 
L 57.625 0 
L 45.90625 0 
L 18.109375 26.703125 
L 18.109375 0 
L 9.078125 0 
z
" id="DejaVuSans-107"/>
       <path d="M 9.421875 75.984375 
L 18.40625 75.984375 
L 18.40625 0 
L 9.421875 0 
z
" id="DejaVuSans-108"/>
       <path d="M 30.609375 48.390625 
Q 23.390625 48.390625 19.1875 42.75 
Q 14.984375 37.109375 14.984375 27.296875 
Q 14.984375 17.484375 19.15625 11.84375 
Q 23.34375 6.203125 30.609375 6.203125 
Q 37.796875 6.203125 41.984375 11.859375 
Q 46.1875 17.53125 46.1875 27.296875 
Q 46.1875 37.015625 41.984375 42.703125 
Q 37.796875 48.390625 30.609375 48.390625 
z
M 30.609375 56 
Q 42.328125 56 49.015625 48.375 
Q 55.71875 40.765625 55.71875 27.296875 
Q 55.71875 13.875 49.015625 6.21875 
Q 42.328125 -1.421875 30.609375 -1.421875 
Q 18.84375 -1.421875 12.171875 6.21875 
Q 5.515625 13.875 5.515625 27.296875 
Q 5.515625 40.765625 12.171875 48.375 
Q 18.84375 56 30.609375 56 
z
" id="DejaVuSans-111"/>
       <path d="M 45.40625 27.984375 
Q 45.40625 37.75 41.375 43.109375 
Q 37.359375 48.484375 30.078125 48.484375 
Q 22.859375 48.484375 18.828125 43.109375 
Q 14.796875 37.75 14.796875 27.984375 
Q 14.796875 18.265625 18.828125 12.890625 
Q 22.859375 7.515625 30.078125 7.515625 
Q 37.359375 7.515625 41.375 12.890625 
Q 45.40625 18.265625 45.40625 27.984375 
z
M 54.390625 6.78125 
Q 54.390625 -7.171875 48.1875 -13.984375 
Q 42 -20.796875 29.203125 -20.796875 
Q 24.46875 -20.796875 20.265625 -20.09375 
Q 16.0625 -19.390625 12.109375 -17.921875 
L 12.109375 -9.1875 
Q 16.0625 -11.328125 19.921875 -12.34375 
Q 23.78125 -13.375 27.78125 -13.375 
Q 36.625 -13.375 41.015625 -8.765625 
Q 45.40625 -4.15625 45.40625 5.171875 
L 45.40625 9.625 
Q 42.625 4.78125 38.28125 2.390625 
Q 33.9375 0 27.875 0 
Q 17.828125 0 11.671875 7.65625 
Q 5.515625 15.328125 5.515625 27.984375 
Q 5.515625 40.671875 11.671875 48.328125 
Q 17.828125 56 27.875 56 
Q 33.9375 56 38.28125 53.609375 
Q 42.625 51.21875 45.40625 46.390625 
L 45.40625 54.6875 
L 54.390625 54.6875 
z
" id="DejaVuSans-103"/>
       <path d="M 48.6875 27.296875 
Q 48.6875 37.203125 44.609375 42.84375 
Q 40.53125 48.484375 33.40625 48.484375 
Q 26.265625 48.484375 22.1875 42.84375 
Q 18.109375 37.203125 18.109375 27.296875 
Q 18.109375 17.390625 22.1875 11.75 
Q 26.265625 6.109375 33.40625 6.109375 
Q 40.53125 6.109375 44.609375 11.75 
Q 48.6875 17.390625 48.6875 27.296875 
z
M 18.109375 46.390625 
Q 20.953125 51.265625 25.265625 53.625 
Q 29.59375 56 35.59375 56 
Q 45.5625 56 51.78125 48.09375 
Q 58.015625 40.1875 58.015625 27.296875 
Q 58.015625 14.40625 51.78125 6.484375 
Q 45.5625 -1.421875 35.59375 -1.421875 
Q 29.59375 -1.421875 25.265625 0.953125 
Q 20.953125 3.328125 18.109375 8.203125 
L 18.109375 0 
L 9.078125 0 
L 9.078125 75.984375 
L 18.109375 75.984375 
z
" id="DejaVuSans-98"/>
       <path d="M 4.890625 31.390625 
L 31.203125 31.390625 
L 31.203125 23.390625 
L 4.890625 23.390625 
z
" id="DejaVuSans-45"/>
       <path d="M 54.890625 33.015625 
L 54.890625 0 
L 45.90625 0 
L 45.90625 32.71875 
Q 45.90625 40.484375 42.875 44.328125 
Q 39.84375 48.1875 33.796875 48.1875 
Q 26.515625 48.1875 22.3125 43.546875 
Q 18.109375 38.921875 18.109375 30.90625 
L 18.109375 0 
L 9.078125 0 
L 9.078125 75.984375 
L 18.109375 75.984375 
L 18.109375 46.1875 
Q 21.34375 51.125 25.703125 53.5625 
Q 30.078125 56 35.796875 56 
Q 45.21875 56 50.046875 50.171875 
Q 54.890625 44.34375 54.890625 33.015625 
z
" id="DejaVuSans-104"/>
       <path d="M 54.890625 33.015625 
L 54.890625 0 
L 45.90625 0 
L 45.90625 32.71875 
Q 45.90625 40.484375 42.875 44.328125 
Q 39.84375 48.1875 33.796875 48.1875 
Q 26.515625 48.1875 22.3125 43.546875 
Q 18.109375 38.921875 18.109375 30.90625 
L 18.109375 0 
L 9.078125 0 
L 9.078125 54.6875 
L 18.109375 54.6875 
L 18.109375 46.1875 
Q 21.34375 51.125 25.703125 53.5625 
Q 30.078125 56 35.796875 56 
Q 45.21875 56 50.046875 50.171875 
Q 54.890625 44.34375 54.890625 33.015625 
z
" id="DejaVuSans-110"/>
       <path d="M 44.390625 34.1875 
Q 47.5625 33.109375 50.5625 29.59375 
Q 53.5625 26.078125 56.59375 19.921875 
L 66.609375 0 
L 56 0 
L 46.6875 18.703125 
Q 43.0625 26.03125 39.671875 28.421875 
Q 36.28125 30.8125 30.421875 30.8125 
L 19.671875 30.8125 
L 19.671875 0 
L 9.8125 0 
L 9.8125 72.90625 
L 32.078125 72.90625 
Q 44.578125 72.90625 50.734375 67.671875 
Q 56.890625 62.453125 56.890625 51.90625 
Q 56.890625 45.015625 53.6875 40.46875 
Q 50.484375 35.9375 44.390625 34.1875 
z
M 19.671875 64.796875 
L 19.671875 38.921875 
L 32.078125 38.921875 
Q 39.203125 38.921875 42.84375 42.21875 
Q 46.484375 45.515625 46.484375 51.90625 
Q 46.484375 58.296875 42.84375 61.546875 
Q 39.203125 64.796875 32.078125 64.796875 
z
" id="DejaVuSans-82"/>
       <path d="M 37.109375 75.984375 
L 37.109375 68.5 
L 28.515625 68.5 
Q 23.6875 68.5 21.796875 66.546875 
Q 19.921875 64.59375 19.921875 59.515625 
L 19.921875 54.6875 
L 34.71875 54.6875 
L 34.71875 47.703125 
L 19.921875 47.703125 
L 19.921875 0 
L 10.890625 0 
L 10.890625 47.703125 
L 2.296875 47.703125 
L 2.296875 54.6875 
L 10.890625 54.6875 
L 10.890625 58.5 
Q 10.890625 67.625 15.140625 71.796875 
Q 19.390625 75.984375 28.609375 75.984375 
z
" id="DejaVuSans-102"/>
       <path d="M 14.796875 27.296875 
Q 14.796875 17.390625 18.875 11.75 
Q 22.953125 6.109375 30.078125 6.109375 
Q 37.203125 6.109375 41.296875 11.75 
Q 45.40625 17.390625 45.40625 27.296875 
Q 45.40625 37.203125 41.296875 42.84375 
Q 37.203125 48.484375 30.078125 48.484375 
Q 22.953125 48.484375 18.875 42.84375 
Q 14.796875 37.203125 14.796875 27.296875 
z
M 45.40625 8.203125 
Q 42.578125 3.328125 38.25 0.953125 
Q 33.9375 -1.421875 27.875 -1.421875 
Q 17.96875 -1.421875 11.734375 6.484375 
Q 5.515625 14.40625 5.515625 27.296875 
Q 5.515625 40.1875 11.734375 48.09375 
Q 17.96875 56 27.875 56 
Q 33.9375 56 38.25 53.625 
Q 42.578125 51.265625 45.40625 46.390625 
L 45.40625 54.6875 
L 54.390625 54.6875 
L 54.390625 -20.796875 
L 45.40625 -20.796875 
z
" id="DejaVuSans-113"/>
      </defs>
      <use xlink:href="#DejaVuSans-66"/>
      <use x="68.603516" xlink:href="#DejaVuSans-97"/>
      <use x="129.882812" xlink:href="#DejaVuSans-99"/>
      <use x="184.863281" xlink:href="#DejaVuSans-107"/>
      <use x="242.773438" xlink:href="#DejaVuSans-108"/>
      <use x="270.556641" xlink:href="#DejaVuSans-111"/>
      <use x="331.738281" xlink:href="#DejaVuSans-103"/>
      <use x="395.214844" xlink:href="#DejaVuSans-32"/>
      <use x="427.001953" xlink:href="#DejaVuSans-40"/>
      <use x="466.015625" xlink:href="#DejaVuSans-98"/>
      <use x="529.492188" xlink:href="#DejaVuSans-121"/>
      <use x="588.671875" xlink:href="#DejaVuSans-116"/>
      <use x="627.880859" xlink:href="#DejaVuSans-101"/>
      <use x="689.404297" xlink:href="#DejaVuSans-115"/>
      <use x="741.503906" xlink:href="#DejaVuSans-41"/>
      <use x="780.517578" xlink:href="#DejaVuSans-32"/>
      <use x="812.304688" xlink:href="#DejaVuSans-45"/>
      <use x="848.388672" xlink:href="#DejaVuSans-45"/>
      <use x="884.472656" xlink:href="#DejaVuSans-32"/>
      <use x="916.259766" xlink:href="#DejaVuSans-108"/>
      <use x="944.042969" xlink:href="#DejaVuSans-111"/>
      <use x="1005.224609" xlink:href="#DejaVuSans-99"/>
      <use x="1060.205078" xlink:href="#DejaVuSans-97"/>
      <use x="1121.484375" xlink:href="#DejaVuSans-108"/>
      <use x="1149.267578" xlink:href="#DejaVuSans-104"/>
      <use x="1212.646484" xlink:href="#DejaVuSans-111"/>
      <use x="1273.828125" xlink:href="#DejaVuSans-115"/>
      <use x="1325.927734" xlink:href="#DejaVuSans-116"/>
      <use x="1365.136719" xlink:href="#DejaVuSans-32"/>
      <use x="1396.923828" xlink:href="#DejaVuSans-40"/>
      <use x="1435.9375" xlink:href="#DejaVuSans-101"/>
      <use x="1497.460938" xlink:href="#DejaVuSans-110"/>
      <use x="1560.839844" xlink:href="#DejaVuSans-115"/>
      <use x="1612.939453" xlink:href="#DejaVuSans-51"/>
      <use x="1676.5625" xlink:href="#DejaVuSans-51"/>
      <use x="1740.185547" xlink:href="#DejaVuSans-41"/>
      <use x="1779.199219" xlink:href="#DejaVuSans-32"/>
      <use x="1810.986328" xlink:href="#DejaVuSans-45"/>
      <use x="1847.070312" xlink:href="#DejaVuSans-32"/>
      <use x="1878.857422" xlink:href="#DejaVuSans-66"/>
      <use x="1947.460938" xlink:href="#DejaVuSans-66"/>
      <use x="2016.064453" xlink:href="#DejaVuSans-82"/>
      <use x="2085.546875" xlink:href="#DejaVuSans-110"/>
      <use x="2148.925781" xlink:href="#DejaVuSans-45"/>
      <use x="2185.009766" xlink:href="#DejaVuSans-102"/>
      <use x="2220.214844" xlink:href="#DejaVuSans-113"/>
     </g>
    </g>
    <g id="line2d_78">
     <path d="M 645.34376 80.921677 
L 662.00376 80.921677 
" style="fill:none;stroke:#d95f02;stroke-dasharray:3.7,1.6;stroke-dashoffset:0;"/>
    </g>
    <g id="line2d_79"/>
    <g id="text_16">
     <!-- Backlog (bytes) - - localhost (ens33) - BBRn-codel -->
     <g transform="translate(668.66776 83.837177)scale(0.0833 -0.0833)">
      <defs>
       <path d="M 45.40625 46.390625 
L 45.40625 75.984375 
L 54.390625 75.984375 
L 54.390625 0 
L 45.40625 0 
L 45.40625 8.203125 
Q 42.578125 3.328125 38.25 0.953125 
Q 33.9375 -1.421875 27.875 -1.421875 
Q 17.96875 -1.421875 11.734375 6.484375 
Q 5.515625 14.40625 5.515625 27.296875 
Q 5.515625 40.1875 11.734375 48.09375 
Q 17.96875 56 27.875 56 
Q 33.9375 56 38.25 53.625 
Q 42.578125 51.265625 45.40625 46.390625 
z
M 14.796875 27.296875 
Q 14.796875 17.390625 18.875 11.75 
Q 22.953125 6.109375 30.078125 6.109375 
Q 37.203125 6.109375 41.296875 11.75 
Q 45.40625 17.390625 45.40625 27.296875 
Q 45.40625 37.203125 41.296875 42.84375 
Q 37.203125 48.484375 30.078125 48.484375 
Q 22.953125 48.484375 18.875 42.84375 
Q 14.796875 37.203125 14.796875 27.296875 
z
" id="DejaVuSans-100"/>
      </defs>
      <use xlink:href="#DejaVuSans-66"/>
      <use x="68.603516" xlink:href="#DejaVuSans-97"/>
      <use x="129.882812" xlink:href="#DejaVuSans-99"/>
      <use x="184.863281" xlink:href="#DejaVuSans-107"/>
      <use x="242.773438" xlink:href="#DejaVuSans-108"/>
      <use x="270.556641" xlink:href="#DejaVuSans-111"/>
      <use x="331.738281" xlink:href="#DejaVuSans-103"/>
      <use x="395.214844" xlink:href="#DejaVuSans-32"/>
      <use x="427.001953" xlink:href="#DejaVuSans-40"/>
      <use x="466.015625" xlink:href="#DejaVuSans-98"/>
      <use x="529.492188" xlink:href="#DejaVuSans-121"/>
      <use x="588.671875" xlink:href="#DejaVuSans-116"/>
      <use x="627.880859" xlink:href="#DejaVuSans-101"/>
      <use x="689.404297" xlink:href="#DejaVuSans-115"/>
      <use x="741.503906" xlink:href="#DejaVuSans-41"/>
      <use x="780.517578" xlink:href="#DejaVuSans-32"/>
      <use x="812.304688" xlink:href="#DejaVuSans-45"/>
      <use x="848.388672" xlink:href="#DejaVuSans-45"/>
      <use x="884.472656" xlink:href="#DejaVuSans-32"/>
      <use x="916.259766" xlink:href="#DejaVuSans-108"/>
      <use x="944.042969" xlink:href="#DejaVuSans-111"/>
      <use x="1005.224609" xlink:href="#DejaVuSans-99"/>
      <use x="1060.205078" xlink:href="#DejaVuSans-97"/>
      <use x="1121.484375" xlink:href="#DejaVuSans-108"/>
      <use x="1149.267578" xlink:href="#DejaVuSans-104"/>
      <use x="1212.646484" xlink:href="#DejaVuSans-111"/>
      <use x="1273.828125" xlink:href="#DejaVuSans-115"/>
      <use x="1325.927734" xlink:href="#DejaVuSans-116"/>
      <use x="1365.136719" xlink:href="#DejaVuSans-32"/>
      <use x="1396.923828" xlink:href="#DejaVuSans-40"/>
      <use x="1435.9375" xlink:href="#DejaVuSans-101"/>
      <use x="1497.460938" xlink:href="#DejaVuSans-110"/>
      <use x="1560.839844" xlink:href="#DejaVuSans-115"/>
      <use x="1612.939453" xlink:href="#DejaVuSans-51"/>
      <use x="1676.5625" xlink:href="#DejaVuSans-51"/>
      <use x="1740.185547" xlink:href="#DejaVuSans-41"/>
      <use x="1779.199219" xlink:href="#DejaVuSans-32"/>
      <use x="1810.986328" xlink:href="#DejaVuSans-45"/>
      <use x="1847.070312" xlink:href="#DejaVuSans-32"/>
      <use x="1878.857422" xlink:href="#DejaVuSans-66"/>
      <use x="1947.460938" xlink:href="#DejaVuSans-66"/>
      <use x="2016.064453" xlink:href="#DejaVuSans-82"/>
      <use x="2085.546875" xlink:href="#DejaVuSans-110"/>
      <use x="2148.925781" xlink:href="#DejaVuSans-45"/>
      <use x="2185.009766" xlink:href="#DejaVuSans-99"/>
      <use x="2239.990234" xlink:href="#DejaVuSans-111"/>
      <use x="2301.171875" xlink:href="#DejaVuSans-100"/>
      <use x="2364.648438" xlink:href="#DejaVuSans-101"/>
      <use x="2426.171875" xlink:href="#DejaVuSans-108"/>
     </g>
    </g>
    <g id="line2d_80">
     <path d="M 645.34376 93.148555 
L 662.00376 93.148555 
" style="fill:none;stroke:#7570b3;stroke-dasharray:2,4;stroke-dashoffset:0;"/>
    </g>
    <g id="line2d_81"/>
    <g id="text_17">
     <!-- Backlog (bytes) - - localhost (ens33) - BBRn-pie -->
     <g transform="translate(668.66776 96.064055)scale(0.0833 -0.0833)">
      <defs>
       <path d="M 18.109375 8.203125 
L 18.109375 -20.796875 
L 9.078125 -20.796875 
L 9.078125 54.6875 
L 18.109375 54.6875 
L 18.109375 46.390625 
Q 20.953125 51.265625 25.265625 53.625 
Q 29.59375 56 35.59375 56 
Q 45.5625 56 51.78125 48.09375 
Q 58.015625 40.1875 58.015625 27.296875 
Q 58.015625 14.40625 51.78125 6.484375 
Q 45.5625 -1.421875 35.59375 -1.421875 
Q 29.59375 -1.421875 25.265625 0.953125 
Q 20.953125 3.328125 18.109375 8.203125 
z
M 48.6875 27.296875 
Q 48.6875 37.203125 44.609375 42.84375 
Q 40.53125 48.484375 33.40625 48.484375 
Q 26.265625 48.484375 22.1875 42.84375 
Q 18.109375 37.203125 18.109375 27.296875 
Q 18.109375 17.390625 22.1875 11.75 
Q 26.265625 6.109375 33.40625 6.109375 
Q 40.53125 6.109375 44.609375 11.75 
Q 48.6875 17.390625 48.6875 27.296875 
z
" id="DejaVuSans-112"/>
      </defs>
      <use xlink:href="#DejaVuSans-66"/>
      <use x="68.603516" xlink:href="#DejaVuSans-97"/>
      <use x="129.882812" xlink:href="#DejaVuSans-99"/>
      <use x="184.863281" xlink:href="#DejaVuSans-107"/>
      <use x="242.773438" xlink:href="#DejaVuSans-108"/>
      <use x="270.556641" xlink:href="#DejaVuSans-111"/>
      <use x="331.738281" xlink:href="#DejaVuSans-103"/>
      <use x="395.214844" xlink:href="#DejaVuSans-32"/>
      <use x="427.001953" xlink:href="#DejaVuSans-40"/>
      <use x="466.015625" xlink:href="#DejaVuSans-98"/>
      <use x="529.492188" xlink:href="#DejaVuSans-121"/>
      <use x="588.671875" xlink:href="#DejaVuSans-116"/>
      <use x="627.880859" xlink:href="#DejaVuSans-101"/>
      <use x="689.404297" xlink:href="#DejaVuSans-115"/>
      <use x="741.503906" xlink:href="#DejaVuSans-41"/>
      <use x="780.517578" xlink:href="#DejaVuSans-32"/>
      <use x="812.304688" xlink:href="#DejaVuSans-45"/>
      <use x="848.388672" xlink:href="#DejaVuSans-45"/>
      <use x="884.472656" xlink:href="#DejaVuSans-32"/>
      <use x="916.259766" xlink:href="#DejaVuSans-108"/>
      <use x="944.042969" xlink:href="#DejaVuSans-111"/>
      <use x="1005.224609" xlink:href="#DejaVuSans-99"/>
      <use x="1060.205078" xlink:href="#DejaVuSans-97"/>
      <use x="1121.484375" xlink:href="#DejaVuSans-108"/>
      <use x="1149.267578" xlink:href="#DejaVuSans-104"/>
      <use x="1212.646484" xlink:href="#DejaVuSans-111"/>
      <use x="1273.828125" xlink:href="#DejaVuSans-115"/>
      <use x="1325.927734" xlink:href="#DejaVuSans-116"/>
      <use x="1365.136719" xlink:href="#DejaVuSans-32"/>
      <use x="1396.923828" xlink:href="#DejaVuSans-40"/>
      <use x="1435.9375" xlink:href="#DejaVuSans-101"/>
      <use x="1497.460938" xlink:href="#DejaVuSans-110"/>
      <use x="1560.839844" xlink:href="#DejaVuSans-115"/>
      <use x="1612.939453" xlink:href="#DejaVuSans-51"/>
      <use x="1676.5625" xlink:href="#DejaVuSans-51"/>
      <use x="1740.185547" xlink:href="#DejaVuSans-41"/>
      <use x="1779.199219" xlink:href="#DejaVuSans-32"/>
      <use x="1810.986328" xlink:href="#DejaVuSans-45"/>
      <use x="1847.070312" xlink:href="#DejaVuSans-32"/>
      <use x="1878.857422" xlink:href="#DejaVuSans-66"/>
      <use x="1947.460938" xlink:href="#DejaVuSans-66"/>
      <use x="2016.064453" xlink:href="#DejaVuSans-82"/>
      <use x="2085.546875" xlink:href="#DejaVuSans-110"/>
      <use x="2148.925781" xlink:href="#DejaVuSans-45"/>
      <use x="2185.009766" xlink:href="#DejaVuSans-112"/>
      <use x="2248.486328" xlink:href="#DejaVuSans-105"/>
      <use x="2276.269531" xlink:href="#DejaVuSans-101"/>
     </g>
    </g>
    <g id="line2d_82">
     <path d="M 645.34376 105.375433 
L 662.00376 105.375433 
" style="fill:none;stroke:#e7298a;stroke-dasharray:8,4,2,4;stroke-dashoffset:0;"/>
    </g>
    <g id="line2d_83"/>
    <g id="text_18">
     <!-- Backlog (bytes) - - localhost (ens33) - BBRn-cake -->
     <g transform="translate(668.66776 108.290933)scale(0.0833 -0.0833)">
      <use xlink:href="#DejaVuSans-66"/>
      <use x="68.603516" xlink:href="#DejaVuSans-97"/>
      <use x="129.882812" xlink:href="#DejaVuSans-99"/>
      <use x="184.863281" xlink:href="#DejaVuSans-107"/>
      <use x="242.773438" xlink:href="#DejaVuSans-108"/>
      <use x="270.556641" xlink:href="#DejaVuSans-111"/>
      <use x="331.738281" xlink:href="#DejaVuSans-103"/>
      <use x="395.214844" xlink:href="#DejaVuSans-32"/>
      <use x="427.001953" xlink:href="#DejaVuSans-40"/>
      <use x="466.015625" xlink:href="#DejaVuSans-98"/>
      <use x="529.492188" xlink:href="#DejaVuSans-121"/>
      <use x="588.671875" xlink:href="#DejaVuSans-116"/>
      <use x="627.880859" xlink:href="#DejaVuSans-101"/>
      <use x="689.404297" xlink:href="#DejaVuSans-115"/>
      <use x="741.503906" xlink:href="#DejaVuSans-41"/>
      <use x="780.517578" xlink:href="#DejaVuSans-32"/>
      <use x="812.304688" xlink:href="#DejaVuSans-45"/>
      <use x="848.388672" xlink:href="#DejaVuSans-45"/>
      <use x="884.472656" xlink:href="#DejaVuSans-32"/>
      <use x="916.259766" xlink:href="#DejaVuSans-108"/>
      <use x="944.042969" xlink:href="#DejaVuSans-111"/>
      <use x="1005.224609" xlink:href="#DejaVuSans-99"/>
      <use x="1060.205078" xlink:href="#DejaVuSans-97"/>
      <use x="1121.484375" xlink:href="#DejaVuSans-108"/>
      <use x="1149.267578" xlink:href="#DejaVuSans-104"/>
      <use x="1212.646484" xlink:href="#DejaVuSans-111"/>
      <use x="1273.828125" xlink:href="#DejaVuSans-115"/>
      <use x="1325.927734" xlink:href="#DejaVuSans-116"/>
      <use x="1365.136719" xlink:href="#DejaVuSans-32"/>
      <use x="1396.923828" xlink:href="#DejaVuSans-40"/>
      <use x="1435.9375" xlink:href="#DejaVuSans-101"/>
      <use x="1497.460938" xlink:href="#DejaVuSans-110"/>
      <use x="1560.839844" xlink:href="#DejaVuSans-115"/>
      <use x="1612.939453" xlink:href="#DejaVuSans-51"/>
      <use x="1676.5625" xlink:href="#DejaVuSans-51"/>
      <use x="1740.185547" xlink:href="#DejaVuSans-41"/>
      <use x="1779.199219" xlink:href="#DejaVuSans-32"/>
      <use x="1810.986328" xlink:href="#DejaVuSans-45"/>
      <use x="1847.070312" xlink:href="#DejaVuSans-32"/>
      <use x="1878.857422" xlink:href="#DejaVuSans-66"/>
      <use x="1947.460938" xlink:href="#DejaVuSans-66"/>
      <use x="2016.064453" xlink:href="#DejaVuSans-82"/>
      <use x="2085.546875" xlink:href="#DejaVuSans-110"/>
      <use x="2148.925781" xlink:href="#DejaVuSans-45"/>
      <use x="2185.009766" xlink:href="#DejaVuSans-99"/>
      <use x="2239.990234" xlink:href="#DejaVuSans-97"/>
      <use x="2301.269531" xlink:href="#DejaVuSans-107"/>
      <use x="2355.554688" xlink:href="#DejaVuSans-101"/>
     </g>
    </g>
    <g id="line2d_84">
     <path d="M 645.34376 117.602311 
L 662.00376 117.602311 
" style="fill:none;stroke:#66a61e;stroke-linecap:round;"/>
    </g>
    <g id="line2d_85">
     <g>
      <use style="fill:#66a61e;stroke:#66a61e;" x="653.67376" xlink:href="#m62261f74f0" y="117.602311"/>
     </g>
    </g>
    <g id="text_19">
     <!-- Backlog (bytes) - - localhost (ens33) - BBRn-fq_codel -->
     <g transform="translate(668.66776 120.517811)scale(0.0833 -0.0833)">
      <defs>
       <path d="M 50.984375 -16.609375 
L 50.984375 -23.578125 
L -0.984375 -23.578125 
L -0.984375 -16.609375 
z
" id="DejaVuSans-95"/>
      </defs>
      <use xlink:href="#DejaVuSans-66"/>
      <use x="68.603516" xlink:href="#DejaVuSans-97"/>
      <use x="129.882812" xlink:href="#DejaVuSans-99"/>
      <use x="184.863281" xlink:href="#DejaVuSans-107"/>
      <use x="242.773438" xlink:href="#DejaVuSans-108"/>
      <use x="270.556641" xlink:href="#DejaVuSans-111"/>
      <use x="331.738281" xlink:href="#DejaVuSans-103"/>
      <use x="395.214844" xlink:href="#DejaVuSans-32"/>
      <use x="427.001953" xlink:href="#DejaVuSans-40"/>
      <use x="466.015625" xlink:href="#DejaVuSans-98"/>
      <use x="529.492188" xlink:href="#DejaVuSans-121"/>
      <use x="588.671875" xlink:href="#DejaVuSans-116"/>
      <use x="627.880859" xlink:href="#DejaVuSans-101"/>
      <use x="689.404297" xlink:href="#DejaVuSans-115"/>
      <use x="741.503906" xlink:href="#DejaVuSans-41"/>
      <use x="780.517578" xlink:href="#DejaVuSans-32"/>
      <use x="812.304688" xlink:href="#DejaVuSans-45"/>
      <use x="848.388672" xlink:href="#DejaVuSans-45"/>
      <use x="884.472656" xlink:href="#DejaVuSans-32"/>
      <use x="916.259766" xlink:href="#DejaVuSans-108"/>
      <use x="944.042969" xlink:href="#DejaVuSans-111"/>
      <use x="1005.224609" xlink:href="#DejaVuSans-99"/>
      <use x="1060.205078" xlink:href="#DejaVuSans-97"/>
      <use x="1121.484375" xlink:href="#DejaVuSans-108"/>
      <use x="1149.267578" xlink:href="#DejaVuSans-104"/>
      <use x="1212.646484" xlink:href="#DejaVuSans-111"/>
      <use x="1273.828125" xlink:href="#DejaVuSans-115"/>
      <use x="1325.927734" xlink:href="#DejaVuSans-116"/>
      <use x="1365.136719" xlink:href="#DejaVuSans-32"/>
      <use x="1396.923828" xlink:href="#DejaVuSans-40"/>
      <use x="1435.9375" xlink:href="#DejaVuSans-101"/>
      <use x="1497.460938" xlink:href="#DejaVuSans-110"/>
      <use x="1560.839844" xlink:href="#DejaVuSans-115"/>
      <use x="1612.939453" xlink:href="#DejaVuSans-51"/>
      <use x="1676.5625" xlink:href="#DejaVuSans-51"/>
      <use x="1740.185547" xlink:href="#DejaVuSans-41"/>
      <use x="1779.199219" xlink:href="#DejaVuSans-32"/>
      <use x="1810.986328" xlink:href="#DejaVuSans-45"/>
      <use x="1847.070312" xlink:href="#DejaVuSans-32"/>
      <use x="1878.857422" xlink:href="#DejaVuSans-66"/>
      <use x="1947.460938" xlink:href="#DejaVuSans-66"/>
      <use x="2016.064453" xlink:href="#DejaVuSans-82"/>
      <use x="2085.546875" xlink:href="#DejaVuSans-110"/>
      <use x="2148.925781" xlink:href="#DejaVuSans-45"/>
      <use x="2185.009766" xlink:href="#DejaVuSans-102"/>
      <use x="2220.214844" xlink:href="#DejaVuSans-113"/>
      <use x="2283.691406" xlink:href="#DejaVuSans-95"/>
      <use x="2333.691406" xlink:href="#DejaVuSans-99"/>
      <use x="2388.671875" xlink:href="#DejaVuSans-111"/>
      <use x="2449.853516" xlink:href="#DejaVuSans-100"/>
      <use x="2513.330078" xlink:href="#DejaVuSans-101"/>
      <use x="2574.853516" xlink:href="#DejaVuSans-108"/>
     </g>
    </g>
   </g>
  </g>
  <g id="text_20">
   <!-- TCP upload - 4 streams w/ping -->
   <g transform="translate(382.078437 14.939812)scale(0.14 -0.14)">
    <defs>
     <path d="M 64.40625 67.28125 
L 64.40625 56.890625 
Q 59.421875 61.53125 53.78125 63.8125 
Q 48.140625 66.109375 41.796875 66.109375 
Q 29.296875 66.109375 22.65625 58.46875 
Q 16.015625 50.828125 16.015625 36.375 
Q 16.015625 21.96875 22.65625 14.328125 
Q 29.296875 6.6875 41.796875 6.6875 
Q 48.140625 6.6875 53.78125 8.984375 
Q 59.421875 11.28125 64.40625 15.921875 
L 64.40625 5.609375 
Q 59.234375 2.09375 53.4375 0.328125 
Q 47.65625 -1.421875 41.21875 -1.421875 
Q 24.65625 -1.421875 15.125 8.703125 
Q 5.609375 18.84375 5.609375 36.375 
Q 5.609375 53.953125 15.125 64.078125 
Q 24.65625 74.21875 41.21875 74.21875 
Q 47.75 74.21875 53.53125 72.484375 
Q 59.328125 70.75 64.40625 67.28125 
z
" id="DejaVuSans-67"/>
     <path d="M 19.671875 64.796875 
L 19.671875 37.40625 
L 32.078125 37.40625 
Q 38.96875 37.40625 42.71875 40.96875 
Q 46.484375 44.53125 46.484375 51.125 
Q 46.484375 57.671875 42.71875 61.234375 
Q 38.96875 64.796875 32.078125 64.796875 
z
M 9.8125 72.90625 
L 32.078125 72.90625 
Q 44.34375 72.90625 50.609375 67.359375 
Q 56.890625 61.8125 56.890625 51.125 
Q 56.890625 40.328125 50.609375 34.8125 
Q 44.34375 29.296875 32.078125 29.296875 
L 19.671875 29.296875 
L 19.671875 0 
L 9.8125 0 
z
" id="DejaVuSans-80"/>
     <path d="M 8.5 21.578125 
L 8.5 54.6875 
L 17.484375 54.6875 
L 17.484375 21.921875 
Q 17.484375 14.15625 20.5 10.265625 
Q 23.53125 6.390625 29.59375 6.390625 
Q 36.859375 6.390625 41.078125 11.03125 
Q 45.3125 15.671875 45.3125 23.6875 
L 45.3125 54.6875 
L 54.296875 54.6875 
L 54.296875 0 
L 45.3125 0 
L 45.3125 8.40625 
Q 42.046875 3.421875 37.71875 1 
Q 33.40625 -1.421875 27.6875 -1.421875 
Q 18.265625 -1.421875 13.375 4.4375 
Q 8.5 10.296875 8.5 21.578125 
z
M 31.109375 56 
z
" id="DejaVuSans-117"/>
     <path d="M 41.109375 46.296875 
Q 39.59375 47.171875 37.8125 47.578125 
Q 36.03125 48 33.890625 48 
Q 26.265625 48 22.1875 43.046875 
Q 18.109375 38.09375 18.109375 28.8125 
L 18.109375 0 
L 9.078125 0 
L 9.078125 54.6875 
L 18.109375 54.6875 
L 18.109375 46.1875 
Q 20.953125 51.171875 25.484375 53.578125 
Q 30.03125 56 36.53125 56 
Q 37.453125 56 38.578125 55.875 
Q 39.703125 55.765625 41.0625 55.515625 
z
" id="DejaVuSans-114"/>
     <path d="M 4.203125 54.6875 
L 13.1875 54.6875 
L 24.421875 12.015625 
L 35.59375 54.6875 
L 46.1875 54.6875 
L 57.421875 12.015625 
L 68.609375 54.6875 
L 77.59375 54.6875 
L 63.28125 0 
L 52.6875 0 
L 40.921875 44.828125 
L 29.109375 0 
L 18.5 0 
z
" id="DejaVuSans-119"/>
     <path d="M 25.390625 72.90625 
L 33.6875 72.90625 
L 8.296875 -9.28125 
L 0 -9.28125 
z
" id="DejaVuSans-47"/>
    </defs>
    <use xlink:href="#DejaVuSans-84"/>
    <use x="55.208984" xlink:href="#DejaVuSans-67"/>
    <use x="125.033203" xlink:href="#DejaVuSans-80"/>
    <use x="185.335938" xlink:href="#DejaVuSans-32"/>
    <use x="217.123047" xlink:href="#DejaVuSans-117"/>
    <use x="280.501953" xlink:href="#DejaVuSans-112"/>
    <use x="343.978516" xlink:href="#DejaVuSans-108"/>
    <use x="371.761719" xlink:href="#DejaVuSans-111"/>
    <use x="432.943359" xlink:href="#DejaVuSans-97"/>
    <use x="494.222656" xlink:href="#DejaVuSans-100"/>
    <use x="557.699219" xlink:href="#DejaVuSans-32"/>
    <use x="589.486328" xlink:href="#DejaVuSans-45"/>
    <use x="625.570312" xlink:href="#DejaVuSans-32"/>
    <use x="657.357422" xlink:href="#DejaVuSans-52"/>
    <use x="720.980469" xlink:href="#DejaVuSans-32"/>
    <use x="752.767578" xlink:href="#DejaVuSans-115"/>
    <use x="804.867188" xlink:href="#DejaVuSans-116"/>
    <use x="844.076172" xlink:href="#DejaVuSans-114"/>
    <use x="882.939453" xlink:href="#DejaVuSans-101"/>
    <use x="944.462891" xlink:href="#DejaVuSans-97"/>
    <use x="1005.742188" xlink:href="#DejaVuSans-109"/>
    <use x="1103.154297" xlink:href="#DejaVuSans-115"/>
    <use x="1155.253906" xlink:href="#DejaVuSans-32"/>
    <use x="1187.041016" xlink:href="#DejaVuSans-119"/>
    <use x="1268.828125" xlink:href="#DejaVuSans-47"/>
    <use x="1302.519531" xlink:href="#DejaVuSans-112"/>
    <use x="1365.996094" xlink:href="#DejaVuSans-105"/>
    <use x="1393.779297" xlink:href="#DejaVuSans-110"/>
    <use x="1457.158203" xlink:href="#DejaVuSans-103"/>
   </g>
   <!-- Queue backlog -->
   <g transform="translate(435.990469 30.61675)scale(0.14 -0.14)">
    <defs>
     <path d="M 39.40625 66.21875 
Q 28.65625 66.21875 22.328125 58.203125 
Q 16.015625 50.203125 16.015625 36.375 
Q 16.015625 22.609375 22.328125 14.59375 
Q 28.65625 6.59375 39.40625 6.59375 
Q 50.140625 6.59375 56.421875 14.59375 
Q 62.703125 22.609375 62.703125 36.375 
Q 62.703125 50.203125 56.421875 58.203125 
Q 50.140625 66.21875 39.40625 66.21875 
z
M 53.21875 1.3125 
L 66.21875 -12.890625 
L 54.296875 -12.890625 
L 43.5 -1.21875 
Q 41.890625 -1.3125 41.03125 -1.359375 
Q 40.1875 -1.421875 39.40625 -1.421875 
Q 24.03125 -1.421875 14.8125 8.859375 
Q 5.609375 19.140625 5.609375 36.375 
Q 5.609375 53.65625 14.8125 63.9375 
Q 24.03125 74.21875 39.40625 74.21875 
Q 54.734375 74.21875 63.90625 63.9375 
Q 73.09375 53.65625 73.09375 36.375 
Q 73.09375 23.6875 67.984375 14.640625 
Q 62.890625 5.609375 53.21875 1.3125 
z
" id="DejaVuSans-81"/>
    </defs>
    <use xlink:href="#DejaVuSans-81"/>
    <use x="78.710938" xlink:href="#DejaVuSans-117"/>
    <use x="142.089844" xlink:href="#DejaVuSans-101"/>
    <use x="203.613281" xlink:href="#DejaVuSans-117"/>
    <use x="266.992188" xlink:href="#DejaVuSans-101"/>
    <use x="328.515625" xlink:href="#DejaVuSans-32"/>
    <use x="360.302734" xlink:href="#DejaVuSans-98"/>
    <use x="423.779297" xlink:href="#DejaVuSans-97"/>
    <use x="485.058594" xlink:href="#DejaVuSans-99"/>
    <use x="540.039062" xlink:href="#DejaVuSans-107"/>
    <use x="597.949219" xlink:href="#DejaVuSans-108"/>
    <use x="625.732422" xlink:href="#DejaVuSans-111"/>
    <use x="686.914062" xlink:href="#DejaVuSans-103"/>
   </g>
  </g>
 </g>
 <defs>
  <clipPath id="pf61be1398e">
   <rect height="397.5048" width="509.688" x="122.13" y="61.9488"/>
  </clipPath>
 </defs>
</svg>
