<?xml version="1.0" encoding="utf-8" standalone="no"?>
<!DOCTYPE svg PUBLIC "-//W3C//DTD SVG 1.1//EN"
  "http://www.w3.org/Graphics/SVG/1.1/DTD/svg11.dtd">
<!-- Created with matplotlib (https://matplotlib.org/) -->
<svg height="516.24pt" version="1.1" viewBox="0 0 977.04 516.24" width="977.04pt" xmlns="http://www.w3.org/2000/svg" xmlns:xlink="http://www.w3.org/1999/xlink">
 <metadata>
  <rdf:RDF xmlns:cc="http://creativecommons.org/ns#" xmlns:dc="http://purl.org/dc/elements/1.1/" xmlns:rdf="http://www.w3.org/1999/02/22-rdf-syntax-ns#">
   <cc:Work>
    <dc:type rdf:resource="http://purl.org/dc/dcmitype/StillImage"/>
    <dc:date>2023-09-14T12:19:58.070919</dc:date>
    <dc:format>image/svg+xml</dc:format>
    <dc:creator>
     <cc:Agent>
      <dc:title>Matplotlib v3.3.4, https://matplotlib.org/</dc:title>
     </cc:Agent>
    </dc:creator>
   </cc:Work>
  </rdf:RDF>
 </metadata>
 <defs>
  <style type="text/css">*{stroke-linecap:butt;stroke-linejoin:round;}</style>
 </defs>
 <g id="figure_1">
  <g id="patch_1">
   <path d="M 0 516.24 
L 977.04 516.24 
L 977.04 0 
L 0 0 
z
" style="fill:#ffffff;"/>
  </g>
  <g id="axes_1">
   <g id="patch_2">
    <path d="M 122.13 459.4536 
L 741.168 459.4536 
L 741.168 61.9488 
L 122.13 61.9488 
z
" style="fill:#e6e6e6;"/>
   </g>
   <g id="matplotlib.axis_1">
    <g id="xtick_1">
     <g id="line2d_1">
      <path clip-path="url(#p21afbe64d4)" d="M 138.677404 459.4536 
L 138.677404 61.9488 
" style="fill:none;stroke:#ffffff;stroke-linecap:round;"/>
     </g>
     <g id="line2d_2"/>
     <g id="text_1">
      <!-- 0 -->
      <g transform="translate(135.496154 470.552038)scale(0.1 -0.1)">
       <defs>
        <path d="M 31.78125 66.40625 
Q 24.171875 66.40625 20.328125 58.90625 
Q 16.5 51.421875 16.5 36.375 
Q 16.5 21.390625 20.328125 13.890625 
Q 24.171875 6.390625 31.78125 6.390625 
Q 39.453125 6.390625 43.28125 13.890625 
Q 47.125 21.390625 47.125 36.375 
Q 47.125 51.421875 43.28125 58.90625 
Q 39.453125 66.40625 31.78125 66.40625 
z
M 31.78125 74.21875 
Q 44.046875 74.21875 50.515625 64.515625 
Q 56.984375 54.828125 56.984375 36.375 
Q 56.984375 17.96875 50.515625 8.265625 
Q 44.046875 -1.421875 31.78125 -1.421875 
Q 19.53125 -1.421875 13.0625 8.265625 
Q 6.59375 17.96875 6.59375 36.375 
Q 6.59375 54.828125 13.0625 64.515625 
Q 19.53125 74.21875 31.78125 74.21875 
z
" id="DejaVuSans-48"/>
       </defs>
       <use xlink:href="#DejaVuSans-48"/>
      </g>
     </g>
    </g>
    <g id="xtick_2">
     <g id="line2d_3">
      <path clip-path="url(#p21afbe64d4)" d="M 213.988729 459.4536 
L 213.988729 61.9488 
" style="fill:none;stroke:#ffffff;stroke-linecap:round;"/>
     </g>
     <g id="line2d_4"/>
     <g id="text_2">
      <!-- 25 -->
      <g transform="translate(207.626229 470.552038)scale(0.1 -0.1)">
       <defs>
        <path d="M 19.1875 8.296875 
L 53.609375 8.296875 
L 53.609375 0 
L 7.328125 0 
L 7.328125 8.296875 
Q 12.9375 14.109375 22.625 23.890625 
Q 32.328125 33.6875 34.8125 36.53125 
Q 39.546875 41.84375 41.421875 45.53125 
Q 43.3125 49.21875 43.3125 52.78125 
Q 43.3125 58.59375 39.234375 62.25 
Q 35.15625 65.921875 28.609375 65.921875 
Q 23.96875 65.921875 18.8125 64.3125 
Q 13.671875 62.703125 7.8125 59.421875 
L 7.8125 69.390625 
Q 13.765625 71.78125 18.9375 73 
Q 24.125 74.21875 28.421875 74.21875 
Q 39.75 74.21875 46.484375 68.546875 
Q 53.21875 62.890625 53.21875 53.421875 
Q 53.21875 48.921875 51.53125 44.890625 
Q 49.859375 40.875 45.40625 35.40625 
Q 44.1875 33.984375 37.640625 27.21875 
Q 31.109375 20.453125 19.1875 8.296875 
z
" id="DejaVuSans-50"/>
        <path d="M 10.796875 72.90625 
L 49.515625 72.90625 
L 49.515625 64.59375 
L 19.828125 64.59375 
L 19.828125 46.734375 
Q 21.96875 47.46875 24.109375 47.828125 
Q 26.265625 48.1875 28.421875 48.1875 
Q 40.625 48.1875 47.75 41.5 
Q 54.890625 34.8125 54.890625 23.390625 
Q 54.890625 11.625 47.5625 5.09375 
Q 40.234375 -1.421875 26.90625 -1.421875 
Q 22.3125 -1.421875 17.546875 -0.640625 
Q 12.796875 0.140625 7.71875 1.703125 
L 7.71875 11.625 
Q 12.109375 9.234375 16.796875 8.0625 
Q 21.484375 6.890625 26.703125 6.890625 
Q 35.15625 6.890625 40.078125 11.328125 
Q 45.015625 15.765625 45.015625 23.390625 
Q 45.015625 31 40.078125 35.4375 
Q 35.15625 39.890625 26.703125 39.890625 
Q 22.75 39.890625 18.8125 39.015625 
Q 14.890625 38.140625 10.796875 36.28125 
z
" id="DejaVuSans-53"/>
       </defs>
       <use xlink:href="#DejaVuSans-50"/>
       <use x="63.623047" xlink:href="#DejaVuSans-53"/>
      </g>
     </g>
    </g>
    <g id="xtick_3">
     <g id="line2d_5">
      <path clip-path="url(#p21afbe64d4)" d="M 289.300053 459.4536 
L 289.300053 61.9488 
" style="fill:none;stroke:#ffffff;stroke-linecap:round;"/>
     </g>
     <g id="line2d_6"/>
     <g id="text_3">
      <!-- 50 -->
      <g transform="translate(282.937553 470.552038)scale(0.1 -0.1)">
       <use xlink:href="#DejaVuSans-53"/>
       <use x="63.623047" xlink:href="#DejaVuSans-48"/>
      </g>
     </g>
    </g>
    <g id="xtick_4">
     <g id="line2d_7">
      <path clip-path="url(#p21afbe64d4)" d="M 364.611378 459.4536 
L 364.611378 61.9488 
" style="fill:none;stroke:#ffffff;stroke-linecap:round;"/>
     </g>
     <g id="line2d_8"/>
     <g id="text_4">
      <!-- 75 -->
      <g transform="translate(358.248878 470.552038)scale(0.1 -0.1)">
       <defs>
        <path d="M 8.203125 72.90625 
L 55.078125 72.90625 
L 55.078125 68.703125 
L 28.609375 0 
L 18.3125 0 
L 43.21875 64.59375 
L 8.203125 64.59375 
z
" id="DejaVuSans-55"/>
       </defs>
       <use xlink:href="#DejaVuSans-55"/>
       <use x="63.623047" xlink:href="#DejaVuSans-53"/>
      </g>
     </g>
    </g>
    <g id="xtick_5">
     <g id="line2d_9">
      <path clip-path="url(#p21afbe64d4)" d="M 439.922702 459.4536 
L 439.922702 61.9488 
" style="fill:none;stroke:#ffffff;stroke-linecap:round;"/>
     </g>
     <g id="line2d_10"/>
     <g id="text_5">
      <!-- 100 -->
      <g transform="translate(430.378952 470.552038)scale(0.1 -0.1)">
       <defs>
        <path d="M 12.40625 8.296875 
L 28.515625 8.296875 
L 28.515625 63.921875 
L 10.984375 60.40625 
L 10.984375 69.390625 
L 28.421875 72.90625 
L 38.28125 72.90625 
L 38.28125 8.296875 
L 54.390625 8.296875 
L 54.390625 0 
L 12.40625 0 
z
" id="DejaVuSans-49"/>
       </defs>
       <use xlink:href="#DejaVuSans-49"/>
       <use x="63.623047" xlink:href="#DejaVuSans-48"/>
       <use x="127.246094" xlink:href="#DejaVuSans-48"/>
      </g>
     </g>
    </g>
    <g id="xtick_6">
     <g id="line2d_11">
      <path clip-path="url(#p21afbe64d4)" d="M 515.234027 459.4536 
L 515.234027 61.9488 
" style="fill:none;stroke:#ffffff;stroke-linecap:round;"/>
     </g>
     <g id="line2d_12"/>
     <g id="text_6">
      <!-- 125 -->
      <g transform="translate(505.690277 470.552038)scale(0.1 -0.1)">
       <use xlink:href="#DejaVuSans-49"/>
       <use x="63.623047" xlink:href="#DejaVuSans-50"/>
       <use x="127.246094" xlink:href="#DejaVuSans-53"/>
      </g>
     </g>
    </g>
    <g id="xtick_7">
     <g id="line2d_13">
      <path clip-path="url(#p21afbe64d4)" d="M 590.545351 459.4536 
L 590.545351 61.9488 
" style="fill:none;stroke:#ffffff;stroke-linecap:round;"/>
     </g>
     <g id="line2d_14"/>
     <g id="text_7">
      <!-- 150 -->
      <g transform="translate(581.001601 470.552038)scale(0.1 -0.1)">
       <use xlink:href="#DejaVuSans-49"/>
       <use x="63.623047" xlink:href="#DejaVuSans-53"/>
       <use x="127.246094" xlink:href="#DejaVuSans-48"/>
      </g>
     </g>
    </g>
    <g id="xtick_8">
     <g id="line2d_15">
      <path clip-path="url(#p21afbe64d4)" d="M 665.856676 459.4536 
L 665.856676 61.9488 
" style="fill:none;stroke:#ffffff;stroke-linecap:round;"/>
     </g>
     <g id="line2d_16"/>
     <g id="text_8">
      <!-- 175 -->
      <g transform="translate(656.312926 470.552038)scale(0.1 -0.1)">
       <use xlink:href="#DejaVuSans-49"/>
       <use x="63.623047" xlink:href="#DejaVuSans-55"/>
       <use x="127.246094" xlink:href="#DejaVuSans-53"/>
      </g>
     </g>
    </g>
    <g id="xtick_9">
     <g id="line2d_17">
      <path clip-path="url(#p21afbe64d4)" d="M 741.168 459.4536 
L 741.168 61.9488 
" style="fill:none;stroke:#ffffff;stroke-linecap:round;"/>
     </g>
     <g id="line2d_18"/>
     <g id="text_9">
      <!-- 200 -->
      <g transform="translate(731.62425 470.552038)scale(0.1 -0.1)">
       <use xlink:href="#DejaVuSans-50"/>
       <use x="63.623047" xlink:href="#DejaVuSans-48"/>
       <use x="127.246094" xlink:href="#DejaVuSans-48"/>
      </g>
     </g>
    </g>
    <g id="xtick_10">
     <g id="line2d_19"/>
    </g>
    <g id="xtick_11">
     <g id="line2d_20"/>
    </g>
    <g id="xtick_12">
     <g id="line2d_21"/>
    </g>
    <g id="xtick_13">
     <g id="line2d_22"/>
    </g>
    <g id="xtick_14">
     <g id="line2d_23"/>
    </g>
    <g id="xtick_15">
     <g id="line2d_24"/>
    </g>
    <g id="xtick_16">
     <g id="line2d_25"/>
    </g>
    <g id="xtick_17">
     <g id="line2d_26"/>
    </g>
    <g id="xtick_18">
     <g id="line2d_27"/>
    </g>
    <g id="xtick_19">
     <g id="line2d_28"/>
    </g>
    <g id="xtick_20">
     <g id="line2d_29"/>
    </g>
    <g id="xtick_21">
     <g id="line2d_30"/>
    </g>
    <g id="xtick_22">
     <g id="line2d_31"/>
    </g>
    <g id="xtick_23">
     <g id="line2d_32"/>
    </g>
    <g id="xtick_24">
     <g id="line2d_33"/>
    </g>
    <g id="xtick_25">
     <g id="line2d_34"/>
    </g>
    <g id="xtick_26">
     <g id="line2d_35"/>
    </g>
    <g id="xtick_27">
     <g id="line2d_36"/>
    </g>
    <g id="xtick_28">
     <g id="line2d_37"/>
    </g>
    <g id="xtick_29">
     <g id="line2d_38"/>
    </g>
    <g id="xtick_30">
     <g id="line2d_39"/>
    </g>
    <g id="xtick_31">
     <g id="line2d_40"/>
    </g>
    <g id="xtick_32">
     <g id="line2d_41"/>
    </g>
    <g id="xtick_33">
     <g id="line2d_42"/>
    </g>
    <g id="xtick_34">
     <g id="line2d_43"/>
    </g>
    <g id="xtick_35">
     <g id="line2d_44"/>
    </g>
    <g id="xtick_36">
     <g id="line2d_45"/>
    </g>
    <g id="xtick_37">
     <g id="line2d_46"/>
    </g>
    <g id="xtick_38">
     <g id="line2d_47"/>
    </g>
    <g id="xtick_39">
     <g id="line2d_48"/>
    </g>
    <g id="xtick_40">
     <g id="line2d_49"/>
    </g>
    <g id="xtick_41">
     <g id="line2d_50"/>
    </g>
    <g id="xtick_42">
     <g id="line2d_51"/>
    </g>
    <g id="text_10">
     <!-- ms -->
     <g transform="translate(424.174 484.230163)scale(0.1 -0.1)">
      <defs>
       <path d="M 52 44.1875 
Q 55.375 50.25 60.0625 53.125 
Q 64.75 56 71.09375 56 
Q 79.640625 56 84.28125 50.015625 
Q 88.921875 44.046875 88.921875 33.015625 
L 88.921875 0 
L 79.890625 0 
L 79.890625 32.71875 
Q 79.890625 40.578125 77.09375 44.375 
Q 74.3125 48.1875 68.609375 48.1875 
Q 61.625 48.1875 57.5625 43.546875 
Q 53.515625 38.921875 53.515625 30.90625 
L 53.515625 0 
L 44.484375 0 
L 44.484375 32.71875 
Q 44.484375 40.625 41.703125 44.40625 
Q 38.921875 48.1875 33.109375 48.1875 
Q 26.21875 48.1875 22.15625 43.53125 
Q 18.109375 38.875 18.109375 30.90625 
L 18.109375 0 
L 9.078125 0 
L 9.078125 54.6875 
L 18.109375 54.6875 
L 18.109375 46.1875 
Q 21.1875 51.21875 25.484375 53.609375 
Q 29.78125 56 35.6875 56 
Q 41.65625 56 45.828125 52.96875 
Q 50 49.953125 52 44.1875 
z
" id="DejaVuSans-109"/>
       <path d="M 44.28125 53.078125 
L 44.28125 44.578125 
Q 40.484375 46.53125 36.375 47.5 
Q 32.28125 48.484375 27.875 48.484375 
Q 21.1875 48.484375 17.84375 46.4375 
Q 14.5 44.390625 14.5 40.28125 
Q 14.5 37.15625 16.890625 35.375 
Q 19.28125 33.59375 26.515625 31.984375 
L 29.59375 31.296875 
Q 39.15625 29.25 43.1875 25.515625 
Q 47.21875 21.78125 47.21875 15.09375 
Q 47.21875 7.46875 41.1875 3.015625 
Q 35.15625 -1.421875 24.609375 -1.421875 
Q 20.21875 -1.421875 15.453125 -0.5625 
Q 10.6875 0.296875 5.421875 2 
L 5.421875 11.28125 
Q 10.40625 8.6875 15.234375 7.390625 
Q 20.0625 6.109375 24.8125 6.109375 
Q 31.15625 6.109375 34.5625 8.28125 
Q 37.984375 10.453125 37.984375 14.40625 
Q 37.984375 18.0625 35.515625 20.015625 
Q 33.0625 21.96875 24.703125 23.78125 
L 21.578125 24.515625 
Q 13.234375 26.265625 9.515625 29.90625 
Q 5.8125 33.546875 5.8125 39.890625 
Q 5.8125 47.609375 11.28125 51.796875 
Q 16.75 56 26.8125 56 
Q 31.78125 56 36.171875 55.265625 
Q 40.578125 54.546875 44.28125 53.078125 
z
" id="DejaVuSans-115"/>
      </defs>
      <use xlink:href="#DejaVuSans-109"/>
      <use x="97.412109" xlink:href="#DejaVuSans-115"/>
     </g>
    </g>
   </g>
   <g id="matplotlib.axis_2">
    <g id="ytick_1">
     <g id="line2d_52">
      <path clip-path="url(#p21afbe64d4)" d="M 122.13 459.4536 
L 741.168 459.4536 
" style="fill:none;stroke:#ffffff;stroke-linecap:round;"/>
     </g>
     <g id="line2d_53"/>
     <g id="text_11">
      <!-- 0.0 -->
      <g transform="translate(102.726875 463.252819)scale(0.1 -0.1)">
       <defs>
        <path d="M 10.6875 12.40625 
L 21 12.40625 
L 21 0 
L 10.6875 0 
z
" id="DejaVuSans-46"/>
       </defs>
       <use xlink:href="#DejaVuSans-48"/>
       <use x="63.623047" xlink:href="#DejaVuSans-46"/>
       <use x="95.410156" xlink:href="#DejaVuSans-48"/>
      </g>
     </g>
    </g>
    <g id="ytick_2">
     <g id="line2d_54">
      <path clip-path="url(#p21afbe64d4)" d="M 122.13 379.95264 
L 741.168 379.95264 
" style="fill:none;stroke:#ffffff;stroke-linecap:round;"/>
     </g>
     <g id="line2d_55"/>
     <g id="text_12">
      <!-- 0.2 -->
      <g transform="translate(102.726875 383.751859)scale(0.1 -0.1)">
       <use xlink:href="#DejaVuSans-48"/>
       <use x="63.623047" xlink:href="#DejaVuSans-46"/>
       <use x="95.410156" xlink:href="#DejaVuSans-50"/>
      </g>
     </g>
    </g>
    <g id="ytick_3">
     <g id="line2d_56">
      <path clip-path="url(#p21afbe64d4)" d="M 122.13 300.45168 
L 741.168 300.45168 
" style="fill:none;stroke:#ffffff;stroke-linecap:round;"/>
     </g>
     <g id="line2d_57"/>
     <g id="text_13">
      <!-- 0.4 -->
      <g transform="translate(102.726875 304.250899)scale(0.1 -0.1)">
       <defs>
        <path d="M 37.796875 64.3125 
L 12.890625 25.390625 
L 37.796875 25.390625 
z
M 35.203125 72.90625 
L 47.609375 72.90625 
L 47.609375 25.390625 
L 58.015625 25.390625 
L 58.015625 17.1875 
L 47.609375 17.1875 
L 47.609375 0 
L 37.796875 0 
L 37.796875 17.1875 
L 4.890625 17.1875 
L 4.890625 26.703125 
z
" id="DejaVuSans-52"/>
       </defs>
       <use xlink:href="#DejaVuSans-48"/>
       <use x="63.623047" xlink:href="#DejaVuSans-46"/>
       <use x="95.410156" xlink:href="#DejaVuSans-52"/>
      </g>
     </g>
    </g>
    <g id="ytick_4">
     <g id="line2d_58">
      <path clip-path="url(#p21afbe64d4)" d="M 122.13 220.95072 
L 741.168 220.95072 
" style="fill:none;stroke:#ffffff;stroke-linecap:round;"/>
     </g>
     <g id="line2d_59"/>
     <g id="text_14">
      <!-- 0.6 -->
      <g transform="translate(102.726875 224.749939)scale(0.1 -0.1)">
       <defs>
        <path d="M 33.015625 40.375 
Q 26.375 40.375 22.484375 35.828125 
Q 18.609375 31.296875 18.609375 23.390625 
Q 18.609375 15.53125 22.484375 10.953125 
Q 26.375 6.390625 33.015625 6.390625 
Q 39.65625 6.390625 43.53125 10.953125 
Q 47.40625 15.53125 47.40625 23.390625 
Q 47.40625 31.296875 43.53125 35.828125 
Q 39.65625 40.375 33.015625 40.375 
z
M 52.59375 71.296875 
L 52.59375 62.3125 
Q 48.875 64.0625 45.09375 64.984375 
Q 41.3125 65.921875 37.59375 65.921875 
Q 27.828125 65.921875 22.671875 59.328125 
Q 17.53125 52.734375 16.796875 39.40625 
Q 19.671875 43.65625 24.015625 45.921875 
Q 28.375 48.1875 33.59375 48.1875 
Q 44.578125 48.1875 50.953125 41.515625 
Q 57.328125 34.859375 57.328125 23.390625 
Q 57.328125 12.15625 50.6875 5.359375 
Q 44.046875 -1.421875 33.015625 -1.421875 
Q 20.359375 -1.421875 13.671875 8.265625 
Q 6.984375 17.96875 6.984375 36.375 
Q 6.984375 53.65625 15.1875 63.9375 
Q 23.390625 74.21875 37.203125 74.21875 
Q 40.921875 74.21875 44.703125 73.484375 
Q 48.484375 72.75 52.59375 71.296875 
z
" id="DejaVuSans-54"/>
       </defs>
       <use xlink:href="#DejaVuSans-48"/>
       <use x="63.623047" xlink:href="#DejaVuSans-46"/>
       <use x="95.410156" xlink:href="#DejaVuSans-54"/>
      </g>
     </g>
    </g>
    <g id="ytick_5">
     <g id="line2d_60">
      <path clip-path="url(#p21afbe64d4)" d="M 122.13 141.44976 
L 741.168 141.44976 
" style="fill:none;stroke:#ffffff;stroke-linecap:round;"/>
     </g>
     <g id="line2d_61"/>
     <g id="text_15">
      <!-- 0.8 -->
      <g transform="translate(102.726875 145.248979)scale(0.1 -0.1)">
       <defs>
        <path d="M 31.78125 34.625 
Q 24.75 34.625 20.71875 30.859375 
Q 16.703125 27.09375 16.703125 20.515625 
Q 16.703125 13.921875 20.71875 10.15625 
Q 24.75 6.390625 31.78125 6.390625 
Q 38.8125 6.390625 42.859375 10.171875 
Q 46.921875 13.96875 46.921875 20.515625 
Q 46.921875 27.09375 42.890625 30.859375 
Q 38.875 34.625 31.78125 34.625 
z
M 21.921875 38.8125 
Q 15.578125 40.375 12.03125 44.71875 
Q 8.5 49.078125 8.5 55.328125 
Q 8.5 64.0625 14.71875 69.140625 
Q 20.953125 74.21875 31.78125 74.21875 
Q 42.671875 74.21875 48.875 69.140625 
Q 55.078125 64.0625 55.078125 55.328125 
Q 55.078125 49.078125 51.53125 44.71875 
Q 48 40.375 41.703125 38.8125 
Q 48.828125 37.15625 52.796875 32.3125 
Q 56.78125 27.484375 56.78125 20.515625 
Q 56.78125 9.90625 50.3125 4.234375 
Q 43.84375 -1.421875 31.78125 -1.421875 
Q 19.734375 -1.421875 13.25 4.234375 
Q 6.78125 9.90625 6.78125 20.515625 
Q 6.78125 27.484375 10.78125 32.3125 
Q 14.796875 37.15625 21.921875 38.8125 
z
M 18.3125 54.390625 
Q 18.3125 48.734375 21.84375 45.5625 
Q 25.390625 42.390625 31.78125 42.390625 
Q 38.140625 42.390625 41.71875 45.5625 
Q 45.3125 48.734375 45.3125 54.390625 
Q 45.3125 60.0625 41.71875 63.234375 
Q 38.140625 66.40625 31.78125 66.40625 
Q 25.390625 66.40625 21.84375 63.234375 
Q 18.3125 60.0625 18.3125 54.390625 
z
" id="DejaVuSans-56"/>
       </defs>
       <use xlink:href="#DejaVuSans-48"/>
       <use x="63.623047" xlink:href="#DejaVuSans-46"/>
       <use x="95.410156" xlink:href="#DejaVuSans-56"/>
      </g>
     </g>
    </g>
    <g id="ytick_6">
     <g id="line2d_62">
      <path clip-path="url(#p21afbe64d4)" d="M 122.13 61.9488 
L 741.168 61.9488 
" style="fill:none;stroke:#ffffff;stroke-linecap:round;"/>
     </g>
     <g id="line2d_63"/>
     <g id="text_16">
      <!-- 1.0 -->
      <g transform="translate(102.726875 65.748019)scale(0.1 -0.1)">
       <use xlink:href="#DejaVuSans-49"/>
       <use x="63.623047" xlink:href="#DejaVuSans-46"/>
       <use x="95.410156" xlink:href="#DejaVuSans-48"/>
      </g>
     </g>
    </g>
    <g id="ytick_7">
     <g id="line2d_64"/>
    </g>
    <g id="ytick_8">
     <g id="line2d_65"/>
    </g>
    <g id="ytick_9">
     <g id="line2d_66"/>
    </g>
    <g id="ytick_10">
     <g id="line2d_67"/>
    </g>
    <g id="ytick_11">
     <g id="line2d_68"/>
    </g>
    <g id="ytick_12">
     <g id="line2d_69"/>
    </g>
    <g id="ytick_13">
     <g id="line2d_70"/>
    </g>
    <g id="ytick_14">
     <g id="line2d_71"/>
    </g>
    <g id="ytick_15">
     <g id="line2d_72"/>
    </g>
    <g id="ytick_16">
     <g id="line2d_73"/>
    </g>
    <g id="ytick_17">
     <g id="line2d_74"/>
    </g>
    <g id="ytick_18">
     <g id="line2d_75"/>
    </g>
    <g id="ytick_19">
     <g id="line2d_76"/>
    </g>
    <g id="ytick_20">
     <g id="line2d_77"/>
    </g>
    <g id="ytick_21">
     <g id="line2d_78"/>
    </g>
    <g id="text_17">
     <!-- Cumulative probability -->
     <g transform="translate(96.647187 317.503544)rotate(-90)scale(0.1 -0.1)">
      <defs>
       <path d="M 64.40625 67.28125 
L 64.40625 56.890625 
Q 59.421875 61.53125 53.78125 63.8125 
Q 48.140625 66.109375 41.796875 66.109375 
Q 29.296875 66.109375 22.65625 58.46875 
Q 16.015625 50.828125 16.015625 36.375 
Q 16.015625 21.96875 22.65625 14.328125 
Q 29.296875 6.6875 41.796875 6.6875 
Q 48.140625 6.6875 53.78125 8.984375 
Q 59.421875 11.28125 64.40625 15.921875 
L 64.40625 5.609375 
Q 59.234375 2.09375 53.4375 0.328125 
Q 47.65625 -1.421875 41.21875 -1.421875 
Q 24.65625 -1.421875 15.125 8.703125 
Q 5.609375 18.84375 5.609375 36.375 
Q 5.609375 53.953125 15.125 64.078125 
Q 24.65625 74.21875 41.21875 74.21875 
Q 47.75 74.21875 53.53125 72.484375 
Q 59.328125 70.75 64.40625 67.28125 
z
" id="DejaVuSans-67"/>
       <path d="M 8.5 21.578125 
L 8.5 54.6875 
L 17.484375 54.6875 
L 17.484375 21.921875 
Q 17.484375 14.15625 20.5 10.265625 
Q 23.53125 6.390625 29.59375 6.390625 
Q 36.859375 6.390625 41.078125 11.03125 
Q 45.3125 15.671875 45.3125 23.6875 
L 45.3125 54.6875 
L 54.296875 54.6875 
L 54.296875 0 
L 45.3125 0 
L 45.3125 8.40625 
Q 42.046875 3.421875 37.71875 1 
Q 33.40625 -1.421875 27.6875 -1.421875 
Q 18.265625 -1.421875 13.375 4.4375 
Q 8.5 10.296875 8.5 21.578125 
z
M 31.109375 56 
z
" id="DejaVuSans-117"/>
       <path d="M 9.421875 75.984375 
L 18.40625 75.984375 
L 18.40625 0 
L 9.421875 0 
z
" id="DejaVuSans-108"/>
       <path d="M 34.28125 27.484375 
Q 23.390625 27.484375 19.1875 25 
Q 14.984375 22.515625 14.984375 16.5 
Q 14.984375 11.71875 18.140625 8.90625 
Q 21.296875 6.109375 26.703125 6.109375 
Q 34.1875 6.109375 38.703125 11.40625 
Q 43.21875 16.703125 43.21875 25.484375 
L 43.21875 27.484375 
z
M 52.203125 31.203125 
L 52.203125 0 
L 43.21875 0 
L 43.21875 8.296875 
Q 40.140625 3.328125 35.546875 0.953125 
Q 30.953125 -1.421875 24.3125 -1.421875 
Q 15.921875 -1.421875 10.953125 3.296875 
Q 6 8.015625 6 15.921875 
Q 6 25.140625 12.171875 29.828125 
Q 18.359375 34.515625 30.609375 34.515625 
L 43.21875 34.515625 
L 43.21875 35.40625 
Q 43.21875 41.609375 39.140625 45 
Q 35.0625 48.390625 27.6875 48.390625 
Q 23 48.390625 18.546875 47.265625 
Q 14.109375 46.140625 10.015625 43.890625 
L 10.015625 52.203125 
Q 14.9375 54.109375 19.578125 55.046875 
Q 24.21875 56 28.609375 56 
Q 40.484375 56 46.34375 49.84375 
Q 52.203125 43.703125 52.203125 31.203125 
z
" id="DejaVuSans-97"/>
       <path d="M 18.3125 70.21875 
L 18.3125 54.6875 
L 36.8125 54.6875 
L 36.8125 47.703125 
L 18.3125 47.703125 
L 18.3125 18.015625 
Q 18.3125 11.328125 20.140625 9.421875 
Q 21.96875 7.515625 27.59375 7.515625 
L 36.8125 7.515625 
L 36.8125 0 
L 27.59375 0 
Q 17.1875 0 13.234375 3.875 
Q 9.28125 7.765625 9.28125 18.015625 
L 9.28125 47.703125 
L 2.6875 47.703125 
L 2.6875 54.6875 
L 9.28125 54.6875 
L 9.28125 70.21875 
z
" id="DejaVuSans-116"/>
       <path d="M 9.421875 54.6875 
L 18.40625 54.6875 
L 18.40625 0 
L 9.421875 0 
z
M 9.421875 75.984375 
L 18.40625 75.984375 
L 18.40625 64.59375 
L 9.421875 64.59375 
z
" id="DejaVuSans-105"/>
       <path d="M 2.984375 54.6875 
L 12.5 54.6875 
L 29.59375 8.796875 
L 46.6875 54.6875 
L 56.203125 54.6875 
L 35.6875 0 
L 23.484375 0 
z
" id="DejaVuSans-118"/>
       <path d="M 56.203125 29.59375 
L 56.203125 25.203125 
L 14.890625 25.203125 
Q 15.484375 15.921875 20.484375 11.0625 
Q 25.484375 6.203125 34.421875 6.203125 
Q 39.59375 6.203125 44.453125 7.46875 
Q 49.3125 8.734375 54.109375 11.28125 
L 54.109375 2.78125 
Q 49.265625 0.734375 44.1875 -0.34375 
Q 39.109375 -1.421875 33.890625 -1.421875 
Q 20.796875 -1.421875 13.15625 6.1875 
Q 5.515625 13.8125 5.515625 26.8125 
Q 5.515625 40.234375 12.765625 48.109375 
Q 20.015625 56 32.328125 56 
Q 43.359375 56 49.78125 48.890625 
Q 56.203125 41.796875 56.203125 29.59375 
z
M 47.21875 32.234375 
Q 47.125 39.59375 43.09375 43.984375 
Q 39.0625 48.390625 32.421875 48.390625 
Q 24.90625 48.390625 20.390625 44.140625 
Q 15.875 39.890625 15.1875 32.171875 
z
" id="DejaVuSans-101"/>
       <path id="DejaVuSans-32"/>
       <path d="M 18.109375 8.203125 
L 18.109375 -20.796875 
L 9.078125 -20.796875 
L 9.078125 54.6875 
L 18.109375 54.6875 
L 18.109375 46.390625 
Q 20.953125 51.265625 25.265625 53.625 
Q 29.59375 56 35.59375 56 
Q 45.5625 56 51.78125 48.09375 
Q 58.015625 40.1875 58.015625 27.296875 
Q 58.015625 14.40625 51.78125 6.484375 
Q 45.5625 -1.421875 35.59375 -1.421875 
Q 29.59375 -1.421875 25.265625 0.953125 
Q 20.953125 3.328125 18.109375 8.203125 
z
M 48.6875 27.296875 
Q 48.6875 37.203125 44.609375 42.84375 
Q 40.53125 48.484375 33.40625 48.484375 
Q 26.265625 48.484375 22.1875 42.84375 
Q 18.109375 37.203125 18.109375 27.296875 
Q 18.109375 17.390625 22.1875 11.75 
Q 26.265625 6.109375 33.40625 6.109375 
Q 40.53125 6.109375 44.609375 11.75 
Q 48.6875 17.390625 48.6875 27.296875 
z
" id="DejaVuSans-112"/>
       <path d="M 41.109375 46.296875 
Q 39.59375 47.171875 37.8125 47.578125 
Q 36.03125 48 33.890625 48 
Q 26.265625 48 22.1875 43.046875 
Q 18.109375 38.09375 18.109375 28.8125 
L 18.109375 0 
L 9.078125 0 
L 9.078125 54.6875 
L 18.109375 54.6875 
L 18.109375 46.1875 
Q 20.953125 51.171875 25.484375 53.578125 
Q 30.03125 56 36.53125 56 
Q 37.453125 56 38.578125 55.875 
Q 39.703125 55.765625 41.0625 55.515625 
z
" id="DejaVuSans-114"/>
       <path d="M 30.609375 48.390625 
Q 23.390625 48.390625 19.1875 42.75 
Q 14.984375 37.109375 14.984375 27.296875 
Q 14.984375 17.484375 19.15625 11.84375 
Q 23.34375 6.203125 30.609375 6.203125 
Q 37.796875 6.203125 41.984375 11.859375 
Q 46.1875 17.53125 46.1875 27.296875 
Q 46.1875 37.015625 41.984375 42.703125 
Q 37.796875 48.390625 30.609375 48.390625 
z
M 30.609375 56 
Q 42.328125 56 49.015625 48.375 
Q 55.71875 40.765625 55.71875 27.296875 
Q 55.71875 13.875 49.015625 6.21875 
Q 42.328125 -1.421875 30.609375 -1.421875 
Q 18.84375 -1.421875 12.171875 6.21875 
Q 5.515625 13.875 5.515625 27.296875 
Q 5.515625 40.765625 12.171875 48.375 
Q 18.84375 56 30.609375 56 
z
" id="DejaVuSans-111"/>
       <path d="M 48.6875 27.296875 
Q 48.6875 37.203125 44.609375 42.84375 
Q 40.53125 48.484375 33.40625 48.484375 
Q 26.265625 48.484375 22.1875 42.84375 
Q 18.109375 37.203125 18.109375 27.296875 
Q 18.109375 17.390625 22.1875 11.75 
Q 26.265625 6.109375 33.40625 6.109375 
Q 40.53125 6.109375 44.609375 11.75 
Q 48.6875 17.390625 48.6875 27.296875 
z
M 18.109375 46.390625 
Q 20.953125 51.265625 25.265625 53.625 
Q 29.59375 56 35.59375 56 
Q 45.5625 56 51.78125 48.09375 
Q 58.015625 40.1875 58.015625 27.296875 
Q 58.015625 14.40625 51.78125 6.484375 
Q 45.5625 -1.421875 35.59375 -1.421875 
Q 29.59375 -1.421875 25.265625 0.953125 
Q 20.953125 3.328125 18.109375 8.203125 
L 18.109375 0 
L 9.078125 0 
L 9.078125 75.984375 
L 18.109375 75.984375 
z
" id="DejaVuSans-98"/>
       <path d="M 32.171875 -5.078125 
Q 28.375 -14.84375 24.75 -17.8125 
Q 21.140625 -20.796875 15.09375 -20.796875 
L 7.90625 -20.796875 
L 7.90625 -13.28125 
L 13.1875 -13.28125 
Q 16.890625 -13.28125 18.9375 -11.515625 
Q 21 -9.765625 23.484375 -3.21875 
L 25.09375 0.875 
L 2.984375 54.6875 
L 12.5 54.6875 
L 29.59375 11.921875 
L 46.6875 54.6875 
L 56.203125 54.6875 
z
" id="DejaVuSans-121"/>
      </defs>
      <use xlink:href="#DejaVuSans-67"/>
      <use x="69.824219" xlink:href="#DejaVuSans-117"/>
      <use x="133.203125" xlink:href="#DejaVuSans-109"/>
      <use x="230.615234" xlink:href="#DejaVuSans-117"/>
      <use x="293.994141" xlink:href="#DejaVuSans-108"/>
      <use x="321.777344" xlink:href="#DejaVuSans-97"/>
      <use x="383.056641" xlink:href="#DejaVuSans-116"/>
      <use x="422.265625" xlink:href="#DejaVuSans-105"/>
      <use x="450.048828" xlink:href="#DejaVuSans-118"/>
      <use x="509.228516" xlink:href="#DejaVuSans-101"/>
      <use x="570.751953" xlink:href="#DejaVuSans-32"/>
      <use x="602.539062" xlink:href="#DejaVuSans-112"/>
      <use x="666.015625" xlink:href="#DejaVuSans-114"/>
      <use x="704.878906" xlink:href="#DejaVuSans-111"/>
      <use x="766.060547" xlink:href="#DejaVuSans-98"/>
      <use x="829.537109" xlink:href="#DejaVuSans-97"/>
      <use x="890.816406" xlink:href="#DejaVuSans-98"/>
      <use x="954.292969" xlink:href="#DejaVuSans-105"/>
      <use x="982.076172" xlink:href="#DejaVuSans-108"/>
      <use x="1009.859375" xlink:href="#DejaVuSans-105"/>
      <use x="1037.642578" xlink:href="#DejaVuSans-116"/>
      <use x="1076.851562" xlink:href="#DejaVuSans-121"/>
     </g>
    </g>
   </g>
   <g id="line2d_79">
    <path clip-path="url(#p21afbe64d4)" d="M 145.726544 458.128584 
L 146.29891 455.478552 
L 146.660405 454.153536 
L 147.564141 443.553408 
L 147.564141 442.228392 
L 147.775012 440.903376 
L 148.467876 439.57836 
L 148.498001 438.253344 
L 150.004227 436.928328 
L 150.48622 435.603312 
L 150.606718 434.278296 
L 151.42008 432.95328 
L 151.480329 431.628264 
L 151.932197 430.303248 
L 152.534688 428.978232 
L 153.438424 427.653216 
L 154.251786 423.678168 
L 155.336269 422.353152 
L 155.577265 421.028136 
L 155.848386 415.728072 
L 156.481001 413.07804 
L 156.571375 411.753024 
L 156.782247 410.428008 
L 156.993118 406.45296 
L 157.264239 405.127944 
L 157.86673 403.802928 
L 158.529469 401.152896 
L 158.680092 399.82788 
L 158.710217 398.502864 
L 158.921088 397.177848 
L 158.951213 395.852832 
L 159.945322 390.552768 
L 160.156194 389.227752 
L 160.306817 386.57772 
L 160.517688 385.252704 
L 160.638186 379.95264 
L 161.240677 378.627624 
L 161.421424 377.302608 
L 161.873292 375.977592 
L 161.903417 373.32756 
L 162.054039 372.002544 
L 162.054039 369.352512 
L 162.807153 360.0774 
L 162.867402 356.102352 
L 163.289145 354.777336 
L 163.349394 352.127304 
L 163.59039 350.802288 
L 163.680764 349.477272 
L 164.012134 348.152256 
L 164.223005 346.82724 
L 164.644749 338.877144 
L 164.765247 337.552128 
L 165.277364 336.227112 
L 165.638858 334.902096 
L 165.789481 333.57708 
L 165.819606 330.927048 
L 165.909979 328.277016 
L 166.211224 326.952 
L 166.51247 324.301968 
L 166.542594 321.651936 
L 167.11496 317.676888 
L 168.139194 315.026856 
L 168.621187 313.70184 
L 168.771809 312.376824 
L 169.103179 311.051808 
L 170.30816 308.401776 
L 171.513142 303.101712 
L 171.513142 300.45168 
L 172.115632 299.126664 
L 172.416878 297.801648 
L 173.320613 296.476632 
L 173.320613 291.176568 
L 173.923104 289.851552 
L 174.224349 288.526536 
L 174.224349 287.20152 
L 174.525595 285.876504 
L 174.525595 283.226472 
L 175.128085 281.901456 
L 175.429331 280.57644 
L 175.429331 279.251424 
L 176.333066 275.276376 
L 176.333066 273.95136 
L 176.634312 272.626344 
L 176.634312 269.976312 
L 177.538048 266.001264 
L 177.538048 264.676248 
L 178.140538 263.351232 
L 178.441784 262.026216 
L 178.441784 259.376184 
L 178.743029 258.051168 
L 178.743029 254.07612 
L 179.044274 252.751104 
L 179.044274 250.101072 
L 179.94801 246.126024 
L 179.94801 243.475992 
L 180.851746 239.500944 
L 181.454237 238.175928 
L 181.454237 236.850912 
L 182.056727 235.525896 
L 182.056727 234.20088 
L 182.659218 232.875864 
L 182.659218 231.550848 
L 183.562954 230.225832 
L 183.562954 227.5758 
L 183.864199 226.250784 
L 184.767935 224.925768 
L 185.06918 223.600752 
L 185.671671 222.275736 
L 185.671671 220.95072 
L 185.972916 219.625704 
L 185.972916 218.300688 
L 186.274161 216.975672 
L 186.274161 215.650656 
L 186.575407 214.32564 
L 187.177897 213.000624 
L 187.479142 211.675608 
L 187.479142 207.70056 
L 188.382878 206.375544 
L 188.985369 205.050528 
L 189.889105 201.07548 
L 191.997822 199.750464 
L 191.997822 198.425448 
L 192.299067 197.100432 
L 192.299067 193.125384 
L 192.600313 191.800368 
L 192.600313 190.475352 
L 193.805294 187.82532 
L 195.31152 181.20024 
L 195.31152 178.550208 
L 196.516501 175.900176 
L 196.516501 174.57516 
L 197.420237 173.250144 
L 197.721483 171.925128 
L 197.721483 170.600112 
L 198.022728 169.275096 
L 199.227709 166.625064 
L 199.8302 163.975032 
L 201.035181 161.325 
L 202.240162 159.999984 
L 202.842653 158.674968 
L 202.842653 157.349952 
L 204.348879 150.724872 
L 204.95137 149.399856 
L 204.95137 148.07484 
L 205.252615 146.749824 
L 205.855106 145.424808 
L 206.156351 144.099792 
L 206.758842 142.774776 
L 207.662577 141.44976 
L 210.07254 140.124744 
L 210.373785 138.799728 
L 210.373785 137.474712 
L 210.67503 136.149696 
L 210.67503 134.82468 
L 210.976276 133.499664 
L 212.181257 132.174648 
L 213.687483 130.849632 
L 213.687483 129.524616 
L 214.289974 128.1996 
L 214.289974 126.874584 
L 215.494955 125.549568 
L 216.097446 122.899536 
L 216.699936 121.57452 
L 217.001182 120.249504 
L 217.603672 118.924488 
L 218.206163 116.274456 
L 218.206163 113.624424 
L 220.013635 110.974392 
L 223.026088 109.649376 
L 223.929824 108.32436 
L 224.532314 106.999344 
L 224.532314 105.674328 
L 225.737295 104.349312 
L 226.339786 101.69928 
L 228.147258 100.374264 
L 229.352239 99.049248 
L 231.159711 97.724232 
L 232.364692 96.399216 
L 232.364692 95.0742 
L 235.67839 93.749184 
L 237.485862 92.424168 
L 237.787107 91.099152 
L 238.992088 89.774136 
L 239.895824 88.44912 
L 240.19707 87.124104 
L 242.305787 85.799088 
L 243.510768 84.474072 
L 252.246882 83.149056 
L 253.753108 81.82404 
L 259.778014 80.499024 
L 265.200429 79.174008 
L 266.405411 77.848992 
L 277.551487 76.523976 
L 279.660204 75.19896 
L 279.961449 73.873944 
L 282.973902 72.548928 
L 299.843639 71.223912 
L 302.856092 69.898896 
L 341.41549 68.57388 
L 345.632924 67.248864 
L 374.853718 64.598832 
L 399.555832 63.273816 
L 617.657428 61.9488 
L 617.657428 61.9488 
" style="fill:none;stroke:#1b9e77;stroke-linecap:round;"/>
   </g>
   <g id="line2d_80">
    <path clip-path="url(#p21afbe64d4)" d="M 147.714763 458.128584 
L 147.985884 456.803568 
L 148.799246 455.478552 
L 149.371612 454.153536 
L 150.847714 452.82852 
L 151.058586 450.178488 
L 151.630952 447.528456 
L 152.173194 440.903376 
L 152.353941 439.57836 
L 152.41419 435.603312 
L 152.534688 434.278296 
L 153.046805 432.95328 
L 153.076929 431.628264 
L 153.287801 430.303248 
L 153.287801 428.978232 
L 153.498673 427.653216 
L 153.799918 422.353152 
L 153.890292 419.70312 
L 154.040914 417.053088 
L 154.372284 413.07804 
L 155.035024 406.45296 
L 155.065148 405.127944 
L 155.727888 402.477912 
L 155.818262 401.152896 
L 156.059258 399.82788 
L 156.209881 394.527816 
L 156.691873 393.2028 
L 156.842496 391.877784 
L 156.842496 389.227752 
L 156.993118 387.902736 
L 157.173866 379.95264 
L 157.475111 378.627624 
L 157.53536 374.652576 
L 157.716107 370.677528 
L 157.926979 369.352512 
L 158.167975 365.377464 
L 158.167975 364.052448 
L 158.318598 362.727432 
L 158.589718 361.402416 
L 158.770466 358.752384 
L 159.252458 356.102352 
L 159.613952 344.177208 
L 159.824824 340.20216 
L 160.216443 337.552128 
L 160.367066 333.57708 
L 160.547813 332.252064 
L 160.668311 328.277016 
L 160.788809 326.952 
L 160.788809 325.626984 
L 160.969556 322.976952 
L 160.969556 321.651936 
L 161.240677 319.001904 
L 161.451549 316.351872 
L 161.72267 311.051808 
L 161.813043 308.401776 
L 162.174537 304.426728 
L 162.566156 303.101712 
L 163.108398 297.801648 
L 163.138522 295.151616 
L 163.500017 293.8266 
L 163.59039 291.176568 
L 163.831387 289.851552 
L 163.891636 287.20152 
L 164.192881 285.876504 
L 164.283255 283.226472 
L 164.735122 281.901456 
L 165.217115 275.276376 
L 166.060602 273.95136 
L 166.271474 271.301328 
L 166.361847 268.651296 
L 166.482345 267.32628 
L 166.753466 266.001264 
L 166.873964 264.676248 
L 167.175209 263.351232 
L 167.265583 260.7012 
L 167.506579 255.401136 
L 167.717451 254.07612 
L 167.717451 252.751104 
L 167.988572 250.101072 
L 168.10907 247.45104 
L 168.410315 243.475992 
L 169.404425 239.500944 
L 169.404425 234.20088 
L 170.006915 231.550848 
L 170.006915 228.900816 
L 170.30816 227.5758 
L 170.30816 226.250784 
L 171.211896 222.275736 
L 171.211896 220.95072 
L 172.115632 216.975672 
L 172.115632 213.000624 
L 172.416878 211.675608 
L 172.416878 207.70056 
L 173.019368 206.375544 
L 173.019368 205.050528 
L 173.320613 203.725512 
L 173.320613 201.07548 
L 173.621859 199.750464 
L 174.224349 198.425448 
L 174.224349 197.100432 
L 174.525595 195.775416 
L 174.525595 194.4504 
L 175.128085 191.800368 
L 175.128085 190.475352 
L 175.730576 187.82532 
L 175.730576 185.175288 
L 176.031821 183.850272 
L 176.031821 182.525256 
L 176.333066 181.20024 
L 176.333066 177.225192 
L 176.634312 175.900176 
L 176.634312 174.57516 
L 177.236802 173.250144 
L 177.538048 171.925128 
L 177.538048 170.600112 
L 177.839293 169.275096 
L 177.839293 166.625064 
L 178.140538 165.300048 
L 178.140538 163.975032 
L 178.743029 161.325 
L 178.743029 157.349952 
L 179.646765 153.374904 
L 179.646765 152.049888 
L 179.94801 150.724872 
L 179.94801 146.749824 
L 180.249255 145.424808 
L 180.851746 144.099792 
L 181.152991 142.774776 
L 181.152991 141.44976 
L 181.454237 140.124744 
L 181.454237 138.799728 
L 181.755482 137.474712 
L 181.755482 136.149696 
L 182.659218 134.82468 
L 183.261708 132.174648 
L 183.261708 129.524616 
L 183.562954 128.1996 
L 185.370425 125.549568 
L 185.370425 124.224552 
L 185.671671 122.899536 
L 185.671671 120.249504 
L 186.274161 117.599472 
L 186.274161 114.94944 
L 186.575407 113.624424 
L 186.575407 112.299408 
L 187.177897 110.974392 
L 187.177897 109.649376 
L 188.985369 105.674328 
L 189.889105 104.349312 
L 190.19035 103.024296 
L 191.395331 100.374264 
L 191.696577 99.049248 
L 191.696577 97.724232 
L 192.901558 96.399216 
L 192.901558 95.0742 
L 193.805294 93.749184 
L 193.805294 91.099152 
L 194.70903 89.774136 
L 196.516501 88.44912 
L 197.118992 85.799088 
L 198.022728 84.474072 
L 198.625218 81.82404 
L 198.625218 80.499024 
L 199.528954 79.174008 
L 199.528954 77.848992 
L 200.733936 76.523976 
L 202.541407 73.873944 
L 203.746389 72.548928 
L 204.650124 71.223912 
L 223.327333 69.898896 
L 225.134805 68.57388 
L 225.737295 67.248864 
L 229.352239 65.923848 
L 249.836919 64.598832 
L 286.890091 63.273816 
L 738.155547 61.9488 
L 738.155547 61.9488 
" style="fill:none;stroke:#d95f02;stroke-dasharray:3.7,1.6;stroke-dashoffset:0;"/>
   </g>
   <g id="line2d_81">
    <path clip-path="url(#p21afbe64d4)" d="M 146.088039 458.128584 
L 146.359159 456.803568 
L 146.780903 455.478552 
L 147.473767 454.153536 
L 147.925635 451.503504 
L 147.985884 448.853472 
L 149.582484 447.528456 
L 149.793356 444.878424 
L 150.064476 443.553408 
L 150.184975 442.228392 
L 150.81759 440.903376 
L 150.907963 439.57836 
L 151.540578 438.253344 
L 152.052695 432.95328 
L 152.323816 431.628264 
L 152.504563 426.3282 
L 152.594937 425.003184 
L 152.896182 423.678168 
L 153.167303 419.70312 
L 153.257677 418.378104 
L 153.709545 417.053088 
L 154.01079 413.07804 
L 154.040914 411.753024 
L 154.733779 407.777976 
L 154.854277 405.127944 
L 155.065148 399.82788 
L 155.155522 397.177848 
L 155.245896 394.527816 
L 155.366394 393.2028 
L 155.456767 389.227752 
L 155.999009 383.927688 
L 156.059258 381.277656 
L 156.481001 377.302608 
L 156.812371 375.977592 
L 157.234115 369.352512 
L 157.716107 366.70248 
L 157.836605 364.052448 
L 157.987228 361.402416 
L 158.258349 357.427368 
L 158.529469 356.102352 
L 158.589718 352.127304 
L 158.890964 348.152256 
L 159.433205 345.502224 
L 159.734451 338.877144 
L 160.306817 337.552128 
L 160.367066 332.252064 
L 160.668311 330.927048 
L 161.090054 328.277016 
L 161.180428 322.976952 
L 161.331051 320.32692 
L 161.72267 319.001904 
L 161.99379 317.676888 
L 162.264911 312.376824 
L 162.295036 308.401776 
L 162.596281 307.07676 
L 162.596281 305.751744 
L 162.716779 304.426728 
L 163.018024 303.101712 
L 163.228896 296.476632 
L 163.379519 293.8266 
L 163.620515 287.20152 
L 164.162756 285.876504 
L 164.554375 279.251424 
L 164.976119 263.351232 
L 165.427987 259.376184 
L 165.458111 258.051168 
L 165.608734 256.726152 
L 165.638858 255.401136 
L 165.84973 254.07612 
L 165.879855 250.101072 
L 165.970228 247.45104 
L 166.391972 246.126024 
L 166.572719 242.150976 
L 167.11496 240.82596 
L 167.295708 239.500944 
L 167.566828 235.525896 
L 168.078945 232.875864 
L 168.530813 227.5758 
L 169.103179 224.925768 
L 169.70567 223.600752 
L 170.006915 222.275736 
L 170.006915 215.650656 
L 170.609406 213.000624 
L 170.609406 209.025576 
L 170.910651 207.70056 
L 170.910651 203.725512 
L 171.513142 202.400496 
L 171.513142 201.07548 
L 171.814387 199.750464 
L 171.814387 197.100432 
L 172.115632 195.775416 
L 172.115632 194.4504 
L 172.416878 193.125384 
L 172.416878 191.800368 
L 173.320613 187.82532 
L 173.320613 185.175288 
L 174.224349 181.20024 
L 174.224349 178.550208 
L 174.525595 177.225192 
L 174.525595 175.900176 
L 174.82684 174.57516 
L 175.429331 173.250144 
L 175.429331 171.925128 
L 175.730576 170.600112 
L 176.333066 169.275096 
L 176.333066 166.625064 
L 176.634312 165.300048 
L 176.634312 163.975032 
L 177.538048 159.999984 
L 177.538048 157.349952 
L 177.839293 156.024936 
L 177.839293 153.374904 
L 178.140538 152.049888 
L 178.140538 148.07484 
L 178.743029 145.424808 
L 178.743029 142.774776 
L 179.646765 141.44976 
L 180.249255 138.799728 
L 180.249255 137.474712 
L 180.851746 136.149696 
L 182.056727 134.82468 
L 182.357972 133.499664 
L 182.357972 132.174648 
L 182.960463 130.849632 
L 182.960463 129.524616 
L 183.562954 126.874584 
L 185.06918 125.549568 
L 185.370425 124.224552 
L 185.370425 122.899536 
L 185.671671 121.57452 
L 185.671671 120.249504 
L 186.575407 118.924488 
L 186.876652 117.599472 
L 186.876652 116.274456 
L 187.177897 114.94944 
L 187.177897 113.624424 
L 187.479142 112.299408 
L 187.479142 110.974392 
L 188.081633 108.32436 
L 189.286614 106.999344 
L 190.792841 105.674328 
L 191.094086 104.349312 
L 191.997822 103.024296 
L 191.997822 101.69928 
L 192.600313 100.374264 
L 193.504048 96.399216 
L 193.504048 95.0742 
L 194.106539 93.749184 
L 194.106539 92.424168 
L 195.31152 91.099152 
L 195.914011 88.44912 
L 195.914011 85.799088 
L 197.721483 84.474072 
L 197.721483 83.149056 
L 199.227709 81.82404 
L 201.938917 80.499024 
L 202.842653 79.174008 
L 203.143898 77.848992 
L 203.746389 76.523976 
L 206.156351 73.873944 
L 207.662577 72.548928 
L 210.976276 71.223912 
L 213.687483 69.898896 
L 213.988729 68.57388 
L 214.591219 67.248864 
L 214.591219 65.923848 
L 216.699936 64.598832 
L 224.231069 63.273816 
L 285.986355 61.9488 
L 285.986355 61.9488 
" style="fill:none;stroke:#7570b3;stroke-dasharray:2,4;stroke-dashoffset:0;"/>
   </g>
   <g id="line2d_82">
    <path clip-path="url(#p21afbe64d4)" d="M 145.154178 458.128584 
L 145.184303 456.803568 
L 145.455423 455.478552 
L 145.907291 454.153536 
L 146.539906 452.82852 
L 146.570031 451.503504 
L 146.750778 450.178488 
L 148.738997 447.528456 
L 150.124726 446.20344 
L 151.239333 444.878424 
L 151.359831 443.553408 
L 152.203318 442.228392 
L 152.233443 440.903376 
L 152.534688 438.253344 
L 152.534688 436.928328 
L 152.896182 435.603312 
L 153.709545 434.278296 
L 153.709545 432.95328 
L 153.860167 431.628264 
L 154.221662 430.303248 
L 154.312035 428.978232 
L 154.522907 427.653216 
L 155.27602 425.003184 
L 155.667639 418.378104 
L 156.059258 417.053088 
L 156.149631 414.403056 
L 156.631624 411.753024 
L 156.661748 410.428008 
L 156.812371 409.102992 
L 157.20399 407.777976 
L 157.294364 405.127944 
L 157.414862 402.477912 
L 157.625733 401.152896 
L 157.625733 399.82788 
L 158.077601 394.527816 
L 158.167975 391.877784 
L 158.288473 389.227752 
L 158.408971 387.902736 
L 158.981337 385.252704 
L 159.071711 383.927688 
L 159.312707 382.602672 
L 159.433205 381.277656 
L 159.523579 377.302608 
L 159.7947 374.652576 
L 160.276692 373.32756 
L 160.517688 372.002544 
L 160.909307 370.677528 
L 161.090054 366.70248 
L 161.150303 365.377464 
L 161.3913 364.052448 
L 161.481673 361.402416 
L 162.023915 358.752384 
L 162.264911 353.45232 
L 162.445658 352.127304 
L 162.777028 346.82724 
L 162.897526 345.502224 
L 162.9879 341.527176 
L 163.31927 340.20216 
L 163.439768 336.227112 
L 163.530141 333.57708 
L 163.650639 332.252064 
L 163.92176 330.927048 
L 164.072383 328.277016 
L 165.427987 325.626984 
L 165.699107 324.301968 
L 166.422096 322.976952 
L 166.632968 319.001904 
L 166.964338 317.676888 
L 166.994462 316.351872 
L 167.325832 313.70184 
L 167.596953 309.726792 
L 167.988572 304.426728 
L 168.319942 301.776696 
L 168.380191 299.126664 
L 168.530813 297.801648 
L 168.560938 296.476632 
L 169.103179 293.8266 
L 169.103179 291.176568 
L 169.404425 289.851552 
L 169.404425 288.526536 
L 169.70567 287.20152 
L 169.70567 280.57644 
L 170.006915 279.251424 
L 170.006915 273.95136 
L 170.30816 272.626344 
L 170.30816 267.32628 
L 170.609406 266.001264 
L 171.513142 264.676248 
L 171.513142 260.7012 
L 172.115632 258.051168 
L 172.115632 255.401136 
L 172.416878 254.07612 
L 173.019368 252.751104 
L 173.019368 248.776056 
L 173.320613 247.45104 
L 173.320613 246.126024 
L 173.621859 244.801008 
L 173.621859 242.150976 
L 174.224349 239.500944 
L 174.224349 238.175928 
L 174.525595 236.850912 
L 174.525595 234.20088 
L 175.128085 231.550848 
L 175.128085 230.225832 
L 176.935557 222.275736 
L 176.935557 220.95072 
L 177.538048 219.625704 
L 177.839293 218.300688 
L 177.839293 216.975672 
L 178.140538 215.650656 
L 178.140538 214.32564 
L 178.441784 213.000624 
L 178.441784 211.675608 
L 178.743029 210.350592 
L 178.743029 209.025576 
L 179.044274 207.70056 
L 179.044274 202.400496 
L 179.345519 201.07548 
L 179.345519 199.750464 
L 179.94801 198.425448 
L 180.249255 197.100432 
L 180.249255 190.475352 
L 180.851746 187.82532 
L 180.851746 186.500304 
L 181.152991 185.175288 
L 181.755482 183.850272 
L 182.056727 182.525256 
L 182.056727 181.20024 
L 182.357972 179.875224 
L 182.357972 178.550208 
L 182.659218 177.225192 
L 182.659218 175.900176 
L 182.960463 174.57516 
L 182.960463 171.925128 
L 183.261708 170.600112 
L 183.864199 169.275096 
L 183.864199 167.95008 
L 185.06918 162.650016 
L 185.06918 161.325 
L 185.370425 159.999984 
L 185.370425 158.674968 
L 185.671671 157.349952 
L 185.671671 153.374904 
L 186.274161 150.724872 
L 186.274161 149.399856 
L 186.575407 148.07484 
L 186.575407 146.749824 
L 186.876652 145.424808 
L 186.876652 144.099792 
L 187.479142 142.774776 
L 187.479142 141.44976 
L 188.985369 140.124744 
L 188.985369 138.799728 
L 189.58786 136.149696 
L 189.58786 134.82468 
L 190.491595 133.499664 
L 190.491595 132.174648 
L 191.094086 130.849632 
L 191.997822 129.524616 
L 191.997822 128.1996 
L 192.901558 126.874584 
L 193.504048 125.549568 
L 193.805294 124.224552 
L 193.805294 122.899536 
L 194.106539 121.57452 
L 194.106539 120.249504 
L 194.70903 117.599472 
L 194.70903 116.274456 
L 195.010275 114.94944 
L 195.010275 113.624424 
L 195.31152 112.299408 
L 196.516501 110.974392 
L 196.817747 109.649376 
L 197.420237 108.32436 
L 197.721483 106.999344 
L 198.323973 105.674328 
L 199.227709 104.349312 
L 199.528954 103.024296 
L 200.131445 101.69928 
L 200.131445 99.049248 
L 200.43269 97.724232 
L 201.637671 96.399216 
L 201.938917 95.0742 
L 201.938917 93.749184 
L 202.541407 92.424168 
L 202.842653 91.099152 
L 202.842653 89.774136 
L 204.348879 88.44912 
L 204.650124 87.124104 
L 205.855106 84.474072 
L 206.758842 80.499024 
L 207.361332 79.174008 
L 207.662577 77.848992 
L 207.662577 76.523976 
L 209.470049 72.548928 
L 211.277521 71.223912 
L 211.277521 69.898896 
L 215.7962 68.57388 
L 218.507408 67.248864 
L 228.749748 65.923848 
L 229.954729 64.598832 
L 248.330693 63.273816 
L 251.644391 61.9488 
L 251.644391 61.9488 
" style="fill:none;stroke:#e7298a;stroke-dasharray:8,4,2,4;stroke-dashoffset:0;"/>
   </g>
   <g id="line2d_83">
    <path clip-path="url(#p21afbe64d4)" d="M 145.69642 458.124153 
L 148.407627 456.794705 
L 148.919744 455.465258 
L 148.949869 454.13581 
L 150.094601 452.806363 
L 150.215099 451.476915 
L 151.570703 448.81802 
L 151.721326 447.488573 
L 152.323816 446.159125 
L 152.323816 444.829678 
L 153.137179 443.50023 
L 153.227552 442.170783 
L 154.312035 439.511888 
L 154.61328 438.18244 
L 154.643405 436.852993 
L 155.245896 435.523545 
L 155.366394 434.194098 
L 155.697764 432.86465 
L 155.93876 430.205755 
L 156.179756 428.876308 
L 156.179756 427.54686 
L 156.420752 426.217413 
L 156.420752 424.887965 
L 156.661748 423.558518 
L 156.752122 422.22907 
L 157.143741 419.570175 
L 157.173866 416.91128 
L 157.414862 415.581833 
L 157.926979 406.2757 
L 158.167975 402.287358 
L 158.439096 400.95791 
L 158.589718 399.628463 
L 158.589718 398.299015 
L 158.710217 396.969568 
L 159.041586 395.64012 
L 159.553703 394.310673 
L 159.644077 391.651778 
L 159.854949 390.32233 
L 159.885073 388.992883 
L 160.095945 387.663435 
L 160.186318 386.333988 
L 160.909307 383.675093 
L 160.939432 382.345645 
L 161.331051 379.686751 
L 161.66242 377.027856 
L 161.72267 375.698408 
L 161.99379 374.368961 
L 162.114288 371.710066 
L 162.114288 370.380618 
L 162.566156 369.051171 
L 162.626405 366.392276 
L 162.957775 363.733381 
L 163.018024 362.403933 
L 163.31927 361.074486 
L 163.831387 354.427248 
L 164.012134 351.768353 
L 164.283255 350.438906 
L 164.855621 345.121116 
L 164.885745 342.462221 
L 165.096617 341.132773 
L 165.638858 339.803326 
L 166.000353 334.485536 
L 166.211224 333.156088 
L 166.301598 331.826641 
L 166.783591 330.497193 
L 167.024587 329.167746 
L 167.054711 326.508851 
L 167.145085 325.179403 
L 167.416206 323.849956 
L 167.717451 318.532166 
L 167.898198 317.202718 
L 167.898198 315.873271 
L 168.470564 314.543823 
L 169.404425 313.214376 
L 169.404425 309.226033 
L 170.006915 306.567138 
L 170.006915 305.237691 
L 170.30816 303.908243 
L 170.30816 302.578796 
L 170.609406 301.249348 
L 170.609406 298.590454 
L 171.211896 295.931559 
L 171.211896 293.272664 
L 171.513142 291.943216 
L 171.513142 287.954874 
L 171.814387 286.625426 
L 171.814387 285.295979 
L 172.115632 283.966531 
L 172.115632 281.307636 
L 173.019368 277.319294 
L 173.019368 273.330951 
L 173.320613 272.001504 
L 173.320613 270.672056 
L 173.923104 268.013161 
L 173.923104 266.683714 
L 174.525595 265.354266 
L 174.525595 264.024819 
L 174.82684 262.695371 
L 174.82684 261.365924 
L 175.429331 258.707029 
L 175.429331 257.377581 
L 176.031821 254.718686 
L 176.031821 253.389239 
L 176.634312 250.730344 
L 176.634312 248.071449 
L 176.935557 246.742001 
L 176.935557 244.083106 
L 177.538048 241.424211 
L 177.538048 238.765316 
L 177.839293 237.435869 
L 177.839293 236.106421 
L 178.140538 234.776974 
L 178.140538 230.788631 
L 178.743029 228.129736 
L 178.743029 226.800289 
L 179.345519 225.470841 
L 179.646765 224.141394 
L 179.646765 221.482499 
L 180.249255 220.153052 
L 180.249255 216.164709 
L 181.152991 214.835262 
L 181.152991 213.505814 
L 181.454237 212.176367 
L 182.357972 210.846919 
L 182.659218 209.517472 
L 182.659218 208.188024 
L 183.562954 206.858577 
L 183.562954 202.870234 
L 184.165444 200.211339 
L 184.165444 197.552444 
L 184.466689 196.222997 
L 185.06918 194.893549 
L 185.06918 190.905207 
L 185.671671 189.575759 
L 185.671671 188.246312 
L 185.972916 186.916864 
L 186.876652 185.587417 
L 186.876652 184.257969 
L 187.177897 182.928522 
L 187.177897 180.269627 
L 187.479142 178.940179 
L 187.479142 174.951837 
L 188.081633 173.622389 
L 188.081633 172.292942 
L 188.684124 170.963494 
L 188.684124 166.975152 
L 189.286614 165.645704 
L 189.286614 164.316257 
L 189.58786 162.986809 
L 189.58786 161.657362 
L 189.889105 160.327914 
L 189.889105 155.010124 
L 190.792841 153.680677 
L 191.696577 149.692334 
L 191.696577 147.033439 
L 192.901558 141.715649 
L 192.901558 140.386202 
L 193.504048 139.056755 
L 194.407784 137.727307 
L 194.407784 136.39786 
L 194.70903 135.068412 
L 194.70903 132.409517 
L 195.31152 131.08007 
L 195.31152 129.750622 
L 195.612766 128.421175 
L 196.215256 127.091727 
L 197.118992 125.76228 
L 197.721483 123.103385 
L 197.721483 120.44449 
L 198.323973 117.785595 
L 198.323973 116.456147 
L 198.625218 115.1267 
L 198.625218 113.797252 
L 199.227709 112.467805 
L 200.131445 111.138357 
L 200.43269 109.80891 
L 201.336426 108.479462 
L 201.336426 107.150015 
L 201.637671 105.820567 
L 201.637671 103.161672 
L 202.842653 101.832225 
L 202.842653 100.502777 
L 203.445143 97.843882 
L 203.445143 96.514435 
L 205.855106 95.184987 
L 206.457596 93.85554 
L 206.758842 92.526092 
L 207.662577 91.196645 
L 208.265068 89.867197 
L 208.566313 88.53775 
L 209.168804 87.208302 
L 209.470049 85.878855 
L 210.67503 84.549407 
L 210.67503 83.21996 
L 210.976276 81.890512 
L 211.578766 80.561065 
L 212.482502 79.231617 
L 213.687483 76.572722 
L 215.494955 75.243275 
L 216.398691 73.913827 
L 217.603672 72.58438 
L 219.109899 71.254932 
L 219.411144 69.925485 
L 222.724842 68.596037 
L 223.628578 67.26659 
L 226.339786 65.937142 
L 227.846012 64.607695 
L 232.665937 63.278247 
L 247.426957 61.9488 
L 247.426957 61.9488 
" style="fill:none;stroke:#66a61e;stroke-linecap:round;"/>
    <defs>
     <path d="M 0 3 
C 0.795609 3 1.55874 2.683901 2.12132 2.12132 
C 2.683901 1.55874 3 0.795609 3 0 
C 3 -0.795609 2.683901 -1.55874 2.12132 -2.12132 
C 1.55874 -2.683901 0.795609 -3 0 -3 
C -0.795609 -3 -1.55874 -2.683901 -2.12132 -2.12132 
C -2.683901 -1.55874 -3 -0.795609 -3 0 
C -3 0.795609 -2.683901 1.55874 -2.12132 2.12132 
C -1.55874 2.683901 -0.795609 3 0 3 
z
" id="m4a3b4b7159" style="stroke:#66a61e;"/>
    </defs>
    <g clip-path="url(#p21afbe64d4)">
     <use style="fill:#66a61e;stroke:#66a61e;" x="145.69642" xlink:href="#m4a3b4b7159" y="458.124153"/>
     <use style="fill:#66a61e;stroke:#66a61e;" x="152.323816" xlink:href="#m4a3b4b7159" y="444.829678"/>
     <use style="fill:#66a61e;stroke:#66a61e;" x="155.788137" xlink:href="#m4a3b4b7159" y="431.535203"/>
     <use style="fill:#66a61e;stroke:#66a61e;" x="157.173866" xlink:href="#m4a3b4b7159" y="418.240728"/>
     <use style="fill:#66a61e;stroke:#66a61e;" x="158.017352" xlink:href="#m4a3b4b7159" y="404.946253"/>
     <use style="fill:#66a61e;stroke:#66a61e;" x="159.644077" xlink:href="#m4a3b4b7159" y="391.651778"/>
     <use style="fill:#66a61e;stroke:#66a61e;" x="161.541922" xlink:href="#m4a3b4b7159" y="378.357303"/>
     <use style="fill:#66a61e;stroke:#66a61e;" x="162.837277" xlink:href="#m4a3b4b7159" y="365.062828"/>
     <use style="fill:#66a61e;stroke:#66a61e;" x="164.012134" xlink:href="#m4a3b4b7159" y="351.768353"/>
     <use style="fill:#66a61e;stroke:#66a61e;" x="165.729232" xlink:href="#m4a3b4b7159" y="338.473878"/>
     <use style="fill:#66a61e;stroke:#66a61e;" x="167.145085" xlink:href="#m4a3b4b7159" y="325.179403"/>
     <use style="fill:#66a61e;stroke:#66a61e;" x="169.404425" xlink:href="#m4a3b4b7159" y="311.884928"/>
     <use style="fill:#66a61e;stroke:#66a61e;" x="170.609406" xlink:href="#m4a3b4b7159" y="298.590454"/>
     <use style="fill:#66a61e;stroke:#66a61e;" x="171.814387" xlink:href="#m4a3b4b7159" y="285.295979"/>
     <use style="fill:#66a61e;stroke:#66a61e;" x="173.320613" xlink:href="#m4a3b4b7159" y="272.001504"/>
     <use style="fill:#66a61e;stroke:#66a61e;" x="175.429331" xlink:href="#m4a3b4b7159" y="258.707029"/>
     <use style="fill:#66a61e;stroke:#66a61e;" x="176.935557" xlink:href="#m4a3b4b7159" y="245.412554"/>
     <use style="fill:#66a61e;stroke:#66a61e;" x="178.140538" xlink:href="#m4a3b4b7159" y="232.118079"/>
     <use style="fill:#66a61e;stroke:#66a61e;" x="180.249255" xlink:href="#m4a3b4b7159" y="218.823604"/>
     <use style="fill:#66a61e;stroke:#66a61e;" x="183.562954" xlink:href="#m4a3b4b7159" y="205.529129"/>
     <use style="fill:#66a61e;stroke:#66a61e;" x="185.06918" xlink:href="#m4a3b4b7159" y="192.234654"/>
     <use style="fill:#66a61e;stroke:#66a61e;" x="187.479142" xlink:href="#m4a3b4b7159" y="178.940179"/>
     <use style="fill:#66a61e;stroke:#66a61e;" x="189.286614" xlink:href="#m4a3b4b7159" y="165.645704"/>
     <use style="fill:#66a61e;stroke:#66a61e;" x="191.094086" xlink:href="#m4a3b4b7159" y="152.351229"/>
     <use style="fill:#66a61e;stroke:#66a61e;" x="193.504048" xlink:href="#m4a3b4b7159" y="139.056755"/>
     <use style="fill:#66a61e;stroke:#66a61e;" x="197.118992" xlink:href="#m4a3b4b7159" y="125.76228"/>
     <use style="fill:#66a61e;stroke:#66a61e;" x="199.227709" xlink:href="#m4a3b4b7159" y="112.467805"/>
     <use style="fill:#66a61e;stroke:#66a61e;" x="203.143898" xlink:href="#m4a3b4b7159" y="99.17333"/>
     <use style="fill:#66a61e;stroke:#66a61e;" x="209.470049" xlink:href="#m4a3b4b7159" y="85.878855"/>
     <use style="fill:#66a61e;stroke:#66a61e;" x="217.603672" xlink:href="#m4a3b4b7159" y="72.58438"/>
    </g>
   </g>
   <g id="patch_3">
    <path d="M 122.13 459.4536 
L 122.13 61.9488 
" style="fill:none;"/>
   </g>
   <g id="patch_4">
    <path d="M 741.168 459.4536 
L 741.168 61.9488 
" style="fill:none;"/>
   </g>
   <g id="patch_5">
    <path d="M 122.13 459.4536 
L 741.168 459.4536 
" style="fill:none;"/>
   </g>
   <g id="patch_6">
    <path d="M 122.13 61.9488 
L 741.168 61.9488 
" style="fill:none;"/>
   </g>
   <g id="legend_1">
    <g id="line2d_84">
     <path d="M 756.88076 68.694798 
L 773.54076 68.694798 
" style="fill:none;stroke:#1b9e77;stroke-linecap:round;"/>
    </g>
    <g id="line2d_85"/>
    <g id="text_18">
     <!-- Ping (ms) - BBRn-fq -->
     <g transform="translate(780.20476 71.610298)scale(0.0833 -0.0833)">
      <defs>
       <path d="M 19.671875 64.796875 
L 19.671875 37.40625 
L 32.078125 37.40625 
Q 38.96875 37.40625 42.71875 40.96875 
Q 46.484375 44.53125 46.484375 51.125 
Q 46.484375 57.671875 42.71875 61.234375 
Q 38.96875 64.796875 32.078125 64.796875 
z
M 9.8125 72.90625 
L 32.078125 72.90625 
Q 44.34375 72.90625 50.609375 67.359375 
Q 56.890625 61.8125 56.890625 51.125 
Q 56.890625 40.328125 50.609375 34.8125 
Q 44.34375 29.296875 32.078125 29.296875 
L 19.671875 29.296875 
L 19.671875 0 
L 9.8125 0 
z
" id="DejaVuSans-80"/>
       <path d="M 54.890625 33.015625 
L 54.890625 0 
L 45.90625 0 
L 45.90625 32.71875 
Q 45.90625 40.484375 42.875 44.328125 
Q 39.84375 48.1875 33.796875 48.1875 
Q 26.515625 48.1875 22.3125 43.546875 
Q 18.109375 38.921875 18.109375 30.90625 
L 18.109375 0 
L 9.078125 0 
L 9.078125 54.6875 
L 18.109375 54.6875 
L 18.109375 46.1875 
Q 21.34375 51.125 25.703125 53.5625 
Q 30.078125 56 35.796875 56 
Q 45.21875 56 50.046875 50.171875 
Q 54.890625 44.34375 54.890625 33.015625 
z
" id="DejaVuSans-110"/>
       <path d="M 45.40625 27.984375 
Q 45.40625 37.75 41.375 43.109375 
Q 37.359375 48.484375 30.078125 48.484375 
Q 22.859375 48.484375 18.828125 43.109375 
Q 14.796875 37.75 14.796875 27.984375 
Q 14.796875 18.265625 18.828125 12.890625 
Q 22.859375 7.515625 30.078125 7.515625 
Q 37.359375 7.515625 41.375 12.890625 
Q 45.40625 18.265625 45.40625 27.984375 
z
M 54.390625 6.78125 
Q 54.390625 -7.171875 48.1875 -13.984375 
Q 42 -20.796875 29.203125 -20.796875 
Q 24.46875 -20.796875 20.265625 -20.09375 
Q 16.0625 -19.390625 12.109375 -17.921875 
L 12.109375 -9.1875 
Q 16.0625 -11.328125 19.921875 -12.34375 
Q 23.78125 -13.375 27.78125 -13.375 
Q 36.625 -13.375 41.015625 -8.765625 
Q 45.40625 -4.15625 45.40625 5.171875 
L 45.40625 9.625 
Q 42.625 4.78125 38.28125 2.390625 
Q 33.9375 0 27.875 0 
Q 17.828125 0 11.671875 7.65625 
Q 5.515625 15.328125 5.515625 27.984375 
Q 5.515625 40.671875 11.671875 48.328125 
Q 17.828125 56 27.875 56 
Q 33.9375 56 38.28125 53.609375 
Q 42.625 51.21875 45.40625 46.390625 
L 45.40625 54.6875 
L 54.390625 54.6875 
z
" id="DejaVuSans-103"/>
       <path d="M 31 75.875 
Q 24.46875 64.65625 21.28125 53.65625 
Q 18.109375 42.671875 18.109375 31.390625 
Q 18.109375 20.125 21.3125 9.0625 
Q 24.515625 -2 31 -13.1875 
L 23.1875 -13.1875 
Q 15.875 -1.703125 12.234375 9.375 
Q 8.59375 20.453125 8.59375 31.390625 
Q 8.59375 42.28125 12.203125 53.3125 
Q 15.828125 64.359375 23.1875 75.875 
z
" id="DejaVuSans-40"/>
       <path d="M 8.015625 75.875 
L 15.828125 75.875 
Q 23.140625 64.359375 26.78125 53.3125 
Q 30.421875 42.28125 30.421875 31.390625 
Q 30.421875 20.453125 26.78125 9.375 
Q 23.140625 -1.703125 15.828125 -13.1875 
L 8.015625 -13.1875 
Q 14.5 -2 17.703125 9.0625 
Q 20.90625 20.125 20.90625 31.390625 
Q 20.90625 42.671875 17.703125 53.65625 
Q 14.5 64.65625 8.015625 75.875 
z
" id="DejaVuSans-41"/>
       <path d="M 4.890625 31.390625 
L 31.203125 31.390625 
L 31.203125 23.390625 
L 4.890625 23.390625 
z
" id="DejaVuSans-45"/>
       <path d="M 19.671875 34.8125 
L 19.671875 8.109375 
L 35.5 8.109375 
Q 43.453125 8.109375 47.28125 11.40625 
Q 51.125 14.703125 51.125 21.484375 
Q 51.125 28.328125 47.28125 31.5625 
Q 43.453125 34.8125 35.5 34.8125 
z
M 19.671875 64.796875 
L 19.671875 42.828125 
L 34.28125 42.828125 
Q 41.5 42.828125 45.03125 45.53125 
Q 48.578125 48.25 48.578125 53.8125 
Q 48.578125 59.328125 45.03125 62.0625 
Q 41.5 64.796875 34.28125 64.796875 
z
M 9.8125 72.90625 
L 35.015625 72.90625 
Q 46.296875 72.90625 52.390625 68.21875 
Q 58.5 63.53125 58.5 54.890625 
Q 58.5 48.1875 55.375 44.234375 
Q 52.25 40.28125 46.1875 39.3125 
Q 53.46875 37.75 57.5 32.78125 
Q 61.53125 27.828125 61.53125 20.40625 
Q 61.53125 10.640625 54.890625 5.3125 
Q 48.25 0 35.984375 0 
L 9.8125 0 
z
" id="DejaVuSans-66"/>
       <path d="M 44.390625 34.1875 
Q 47.5625 33.109375 50.5625 29.59375 
Q 53.5625 26.078125 56.59375 19.921875 
L 66.609375 0 
L 56 0 
L 46.6875 18.703125 
Q 43.0625 26.03125 39.671875 28.421875 
Q 36.28125 30.8125 30.421875 30.8125 
L 19.671875 30.8125 
L 19.671875 0 
L 9.8125 0 
L 9.8125 72.90625 
L 32.078125 72.90625 
Q 44.578125 72.90625 50.734375 67.671875 
Q 56.890625 62.453125 56.890625 51.90625 
Q 56.890625 45.015625 53.6875 40.46875 
Q 50.484375 35.9375 44.390625 34.1875 
z
M 19.671875 64.796875 
L 19.671875 38.921875 
L 32.078125 38.921875 
Q 39.203125 38.921875 42.84375 42.21875 
Q 46.484375 45.515625 46.484375 51.90625 
Q 46.484375 58.296875 42.84375 61.546875 
Q 39.203125 64.796875 32.078125 64.796875 
z
" id="DejaVuSans-82"/>
       <path d="M 37.109375 75.984375 
L 37.109375 68.5 
L 28.515625 68.5 
Q 23.6875 68.5 21.796875 66.546875 
Q 19.921875 64.59375 19.921875 59.515625 
L 19.921875 54.6875 
L 34.71875 54.6875 
L 34.71875 47.703125 
L 19.921875 47.703125 
L 19.921875 0 
L 10.890625 0 
L 10.890625 47.703125 
L 2.296875 47.703125 
L 2.296875 54.6875 
L 10.890625 54.6875 
L 10.890625 58.5 
Q 10.890625 67.625 15.140625 71.796875 
Q 19.390625 75.984375 28.609375 75.984375 
z
" id="DejaVuSans-102"/>
       <path d="M 14.796875 27.296875 
Q 14.796875 17.390625 18.875 11.75 
Q 22.953125 6.109375 30.078125 6.109375 
Q 37.203125 6.109375 41.296875 11.75 
Q 45.40625 17.390625 45.40625 27.296875 
Q 45.40625 37.203125 41.296875 42.84375 
Q 37.203125 48.484375 30.078125 48.484375 
Q 22.953125 48.484375 18.875 42.84375 
Q 14.796875 37.203125 14.796875 27.296875 
z
M 45.40625 8.203125 
Q 42.578125 3.328125 38.25 0.953125 
Q 33.9375 -1.421875 27.875 -1.421875 
Q 17.96875 -1.421875 11.734375 6.484375 
Q 5.515625 14.40625 5.515625 27.296875 
Q 5.515625 40.1875 11.734375 48.09375 
Q 17.96875 56 27.875 56 
Q 33.9375 56 38.25 53.625 
Q 42.578125 51.265625 45.40625 46.390625 
L 45.40625 54.6875 
L 54.390625 54.6875 
L 54.390625 -20.796875 
L 45.40625 -20.796875 
z
" id="DejaVuSans-113"/>
      </defs>
      <use xlink:href="#DejaVuSans-80"/>
      <use x="58.052734" xlink:href="#DejaVuSans-105"/>
      <use x="85.835938" xlink:href="#DejaVuSans-110"/>
      <use x="149.214844" xlink:href="#DejaVuSans-103"/>
      <use x="212.691406" xlink:href="#DejaVuSans-32"/>
      <use x="244.478516" xlink:href="#DejaVuSans-40"/>
      <use x="283.492188" xlink:href="#DejaVuSans-109"/>
      <use x="380.904297" xlink:href="#DejaVuSans-115"/>
      <use x="433.003906" xlink:href="#DejaVuSans-41"/>
      <use x="472.017578" xlink:href="#DejaVuSans-32"/>
      <use x="503.804688" xlink:href="#DejaVuSans-45"/>
      <use x="539.888672" xlink:href="#DejaVuSans-32"/>
      <use x="571.675781" xlink:href="#DejaVuSans-66"/>
      <use x="640.279297" xlink:href="#DejaVuSans-66"/>
      <use x="708.882812" xlink:href="#DejaVuSans-82"/>
      <use x="778.365234" xlink:href="#DejaVuSans-110"/>
      <use x="841.744141" xlink:href="#DejaVuSans-45"/>
      <use x="877.828125" xlink:href="#DejaVuSans-102"/>
      <use x="913.033203" xlink:href="#DejaVuSans-113"/>
     </g>
    </g>
    <g id="line2d_86">
     <path d="M 756.88076 80.921677 
L 773.54076 80.921677 
" style="fill:none;stroke:#d95f02;stroke-dasharray:3.7,1.6;stroke-dashoffset:0;"/>
    </g>
    <g id="line2d_87"/>
    <g id="text_19">
     <!-- Ping (ms) - BBRn-codel -->
     <g transform="translate(780.20476 83.837177)scale(0.0833 -0.0833)">
      <defs>
       <path d="M 48.78125 52.59375 
L 48.78125 44.1875 
Q 44.96875 46.296875 41.140625 47.34375 
Q 37.3125 48.390625 33.40625 48.390625 
Q 24.65625 48.390625 19.8125 42.84375 
Q 14.984375 37.3125 14.984375 27.296875 
Q 14.984375 17.28125 19.8125 11.734375 
Q 24.65625 6.203125 33.40625 6.203125 
Q 37.3125 6.203125 41.140625 7.25 
Q 44.96875 8.296875 48.78125 10.40625 
L 48.78125 2.09375 
Q 45.015625 0.34375 40.984375 -0.53125 
Q 36.96875 -1.421875 32.421875 -1.421875 
Q 20.0625 -1.421875 12.78125 6.34375 
Q 5.515625 14.109375 5.515625 27.296875 
Q 5.515625 40.671875 12.859375 48.328125 
Q 20.21875 56 33.015625 56 
Q 37.15625 56 41.109375 55.140625 
Q 45.0625 54.296875 48.78125 52.59375 
z
" id="DejaVuSans-99"/>
       <path d="M 45.40625 46.390625 
L 45.40625 75.984375 
L 54.390625 75.984375 
L 54.390625 0 
L 45.40625 0 
L 45.40625 8.203125 
Q 42.578125 3.328125 38.25 0.953125 
Q 33.9375 -1.421875 27.875 -1.421875 
Q 17.96875 -1.421875 11.734375 6.484375 
Q 5.515625 14.40625 5.515625 27.296875 
Q 5.515625 40.1875 11.734375 48.09375 
Q 17.96875 56 27.875 56 
Q 33.9375 56 38.25 53.625 
Q 42.578125 51.265625 45.40625 46.390625 
z
M 14.796875 27.296875 
Q 14.796875 17.390625 18.875 11.75 
Q 22.953125 6.109375 30.078125 6.109375 
Q 37.203125 6.109375 41.296875 11.75 
Q 45.40625 17.390625 45.40625 27.296875 
Q 45.40625 37.203125 41.296875 42.84375 
Q 37.203125 48.484375 30.078125 48.484375 
Q 22.953125 48.484375 18.875 42.84375 
Q 14.796875 37.203125 14.796875 27.296875 
z
" id="DejaVuSans-100"/>
      </defs>
      <use xlink:href="#DejaVuSans-80"/>
      <use x="58.052734" xlink:href="#DejaVuSans-105"/>
      <use x="85.835938" xlink:href="#DejaVuSans-110"/>
      <use x="149.214844" xlink:href="#DejaVuSans-103"/>
      <use x="212.691406" xlink:href="#DejaVuSans-32"/>
      <use x="244.478516" xlink:href="#DejaVuSans-40"/>
      <use x="283.492188" xlink:href="#DejaVuSans-109"/>
      <use x="380.904297" xlink:href="#DejaVuSans-115"/>
      <use x="433.003906" xlink:href="#DejaVuSans-41"/>
      <use x="472.017578" xlink:href="#DejaVuSans-32"/>
      <use x="503.804688" xlink:href="#DejaVuSans-45"/>
      <use x="539.888672" xlink:href="#DejaVuSans-32"/>
      <use x="571.675781" xlink:href="#DejaVuSans-66"/>
      <use x="640.279297" xlink:href="#DejaVuSans-66"/>
      <use x="708.882812" xlink:href="#DejaVuSans-82"/>
      <use x="778.365234" xlink:href="#DejaVuSans-110"/>
      <use x="841.744141" xlink:href="#DejaVuSans-45"/>
      <use x="877.828125" xlink:href="#DejaVuSans-99"/>
      <use x="932.808594" xlink:href="#DejaVuSans-111"/>
      <use x="993.990234" xlink:href="#DejaVuSans-100"/>
      <use x="1057.466797" xlink:href="#DejaVuSans-101"/>
      <use x="1118.990234" xlink:href="#DejaVuSans-108"/>
     </g>
    </g>
    <g id="line2d_88">
     <path d="M 756.88076 93.148555 
L 773.54076 93.148555 
" style="fill:none;stroke:#7570b3;stroke-dasharray:2,4;stroke-dashoffset:0;"/>
    </g>
    <g id="line2d_89"/>
    <g id="text_20">
     <!-- Ping (ms) - BBRn-pie -->
     <g transform="translate(780.20476 96.064055)scale(0.0833 -0.0833)">
      <use xlink:href="#DejaVuSans-80"/>
      <use x="58.052734" xlink:href="#DejaVuSans-105"/>
      <use x="85.835938" xlink:href="#DejaVuSans-110"/>
      <use x="149.214844" xlink:href="#DejaVuSans-103"/>
      <use x="212.691406" xlink:href="#DejaVuSans-32"/>
      <use x="244.478516" xlink:href="#DejaVuSans-40"/>
      <use x="283.492188" xlink:href="#DejaVuSans-109"/>
      <use x="380.904297" xlink:href="#DejaVuSans-115"/>
      <use x="433.003906" xlink:href="#DejaVuSans-41"/>
      <use x="472.017578" xlink:href="#DejaVuSans-32"/>
      <use x="503.804688" xlink:href="#DejaVuSans-45"/>
      <use x="539.888672" xlink:href="#DejaVuSans-32"/>
      <use x="571.675781" xlink:href="#DejaVuSans-66"/>
      <use x="640.279297" xlink:href="#DejaVuSans-66"/>
      <use x="708.882812" xlink:href="#DejaVuSans-82"/>
      <use x="778.365234" xlink:href="#DejaVuSans-110"/>
      <use x="841.744141" xlink:href="#DejaVuSans-45"/>
      <use x="877.828125" xlink:href="#DejaVuSans-112"/>
      <use x="941.304688" xlink:href="#DejaVuSans-105"/>
      <use x="969.087891" xlink:href="#DejaVuSans-101"/>
     </g>
    </g>
    <g id="line2d_90">
     <path d="M 756.88076 105.375433 
L 773.54076 105.375433 
" style="fill:none;stroke:#e7298a;stroke-dasharray:8,4,2,4;stroke-dashoffset:0;"/>
    </g>
    <g id="line2d_91"/>
    <g id="text_21">
     <!-- Ping (ms) - BBRn-cake -->
     <g transform="translate(780.20476 108.290933)scale(0.0833 -0.0833)">
      <defs>
       <path d="M 9.078125 75.984375 
L 18.109375 75.984375 
L 18.109375 31.109375 
L 44.921875 54.6875 
L 56.390625 54.6875 
L 27.390625 29.109375 
L 57.625 0 
L 45.90625 0 
L 18.109375 26.703125 
L 18.109375 0 
L 9.078125 0 
z
" id="DejaVuSans-107"/>
      </defs>
      <use xlink:href="#DejaVuSans-80"/>
      <use x="58.052734" xlink:href="#DejaVuSans-105"/>
      <use x="85.835938" xlink:href="#DejaVuSans-110"/>
      <use x="149.214844" xlink:href="#DejaVuSans-103"/>
      <use x="212.691406" xlink:href="#DejaVuSans-32"/>
      <use x="244.478516" xlink:href="#DejaVuSans-40"/>
      <use x="283.492188" xlink:href="#DejaVuSans-109"/>
      <use x="380.904297" xlink:href="#DejaVuSans-115"/>
      <use x="433.003906" xlink:href="#DejaVuSans-41"/>
      <use x="472.017578" xlink:href="#DejaVuSans-32"/>
      <use x="503.804688" xlink:href="#DejaVuSans-45"/>
      <use x="539.888672" xlink:href="#DejaVuSans-32"/>
      <use x="571.675781" xlink:href="#DejaVuSans-66"/>
      <use x="640.279297" xlink:href="#DejaVuSans-66"/>
      <use x="708.882812" xlink:href="#DejaVuSans-82"/>
      <use x="778.365234" xlink:href="#DejaVuSans-110"/>
      <use x="841.744141" xlink:href="#DejaVuSans-45"/>
      <use x="877.828125" xlink:href="#DejaVuSans-99"/>
      <use x="932.808594" xlink:href="#DejaVuSans-97"/>
      <use x="994.087891" xlink:href="#DejaVuSans-107"/>
      <use x="1048.373047" xlink:href="#DejaVuSans-101"/>
     </g>
    </g>
    <g id="line2d_92">
     <path d="M 756.88076 117.602311 
L 773.54076 117.602311 
" style="fill:none;stroke:#66a61e;stroke-linecap:round;"/>
    </g>
    <g id="line2d_93">
     <g>
      <use style="fill:#66a61e;stroke:#66a61e;" x="765.21076" xlink:href="#m4a3b4b7159" y="117.602311"/>
     </g>
    </g>
    <g id="text_22">
     <!-- Ping (ms) - BBRn-fq_codel -->
     <g transform="translate(780.20476 120.517811)scale(0.0833 -0.0833)">
      <defs>
       <path d="M 50.984375 -16.609375 
L 50.984375 -23.578125 
L -0.984375 -23.578125 
L -0.984375 -16.609375 
z
" id="DejaVuSans-95"/>
      </defs>
      <use xlink:href="#DejaVuSans-80"/>
      <use x="58.052734" xlink:href="#DejaVuSans-105"/>
      <use x="85.835938" xlink:href="#DejaVuSans-110"/>
      <use x="149.214844" xlink:href="#DejaVuSans-103"/>
      <use x="212.691406" xlink:href="#DejaVuSans-32"/>
      <use x="244.478516" xlink:href="#DejaVuSans-40"/>
      <use x="283.492188" xlink:href="#DejaVuSans-109"/>
      <use x="380.904297" xlink:href="#DejaVuSans-115"/>
      <use x="433.003906" xlink:href="#DejaVuSans-41"/>
      <use x="472.017578" xlink:href="#DejaVuSans-32"/>
      <use x="503.804688" xlink:href="#DejaVuSans-45"/>
      <use x="539.888672" xlink:href="#DejaVuSans-32"/>
      <use x="571.675781" xlink:href="#DejaVuSans-66"/>
      <use x="640.279297" xlink:href="#DejaVuSans-66"/>
      <use x="708.882812" xlink:href="#DejaVuSans-82"/>
      <use x="778.365234" xlink:href="#DejaVuSans-110"/>
      <use x="841.744141" xlink:href="#DejaVuSans-45"/>
      <use x="877.828125" xlink:href="#DejaVuSans-102"/>
      <use x="913.033203" xlink:href="#DejaVuSans-113"/>
      <use x="976.509766" xlink:href="#DejaVuSans-95"/>
      <use x="1026.509766" xlink:href="#DejaVuSans-99"/>
      <use x="1081.490234" xlink:href="#DejaVuSans-111"/>
      <use x="1142.671875" xlink:href="#DejaVuSans-100"/>
      <use x="1206.148438" xlink:href="#DejaVuSans-101"/>
      <use x="1267.671875" xlink:href="#DejaVuSans-108"/>
     </g>
    </g>
   </g>
  </g>
  <g id="text_23">
   <!-- TCP upload - 4 streams w/ping -->
   <g transform="translate(382.078437 14.939812)scale(0.14 -0.14)">
    <defs>
     <path d="M -0.296875 72.90625 
L 61.375 72.90625 
L 61.375 64.59375 
L 35.5 64.59375 
L 35.5 0 
L 25.59375 0 
L 25.59375 64.59375 
L -0.296875 64.59375 
z
" id="DejaVuSans-84"/>
     <path d="M 4.203125 54.6875 
L 13.1875 54.6875 
L 24.421875 12.015625 
L 35.59375 54.6875 
L 46.1875 54.6875 
L 57.421875 12.015625 
L 68.609375 54.6875 
L 77.59375 54.6875 
L 63.28125 0 
L 52.6875 0 
L 40.921875 44.828125 
L 29.109375 0 
L 18.5 0 
z
" id="DejaVuSans-119"/>
     <path d="M 25.390625 72.90625 
L 33.6875 72.90625 
L 8.296875 -9.28125 
L 0 -9.28125 
z
" id="DejaVuSans-47"/>
    </defs>
    <use xlink:href="#DejaVuSans-84"/>
    <use x="55.208984" xlink:href="#DejaVuSans-67"/>
    <use x="125.033203" xlink:href="#DejaVuSans-80"/>
    <use x="185.335938" xlink:href="#DejaVuSans-32"/>
    <use x="217.123047" xlink:href="#DejaVuSans-117"/>
    <use x="280.501953" xlink:href="#DejaVuSans-112"/>
    <use x="343.978516" xlink:href="#DejaVuSans-108"/>
    <use x="371.761719" xlink:href="#DejaVuSans-111"/>
    <use x="432.943359" xlink:href="#DejaVuSans-97"/>
    <use x="494.222656" xlink:href="#DejaVuSans-100"/>
    <use x="557.699219" xlink:href="#DejaVuSans-32"/>
    <use x="589.486328" xlink:href="#DejaVuSans-45"/>
    <use x="625.570312" xlink:href="#DejaVuSans-32"/>
    <use x="657.357422" xlink:href="#DejaVuSans-52"/>
    <use x="720.980469" xlink:href="#DejaVuSans-32"/>
    <use x="752.767578" xlink:href="#DejaVuSans-115"/>
    <use x="804.867188" xlink:href="#DejaVuSans-116"/>
    <use x="844.076172" xlink:href="#DejaVuSans-114"/>
    <use x="882.939453" xlink:href="#DejaVuSans-101"/>
    <use x="944.462891" xlink:href="#DejaVuSans-97"/>
    <use x="1005.742188" xlink:href="#DejaVuSans-109"/>
    <use x="1103.154297" xlink:href="#DejaVuSans-115"/>
    <use x="1155.253906" xlink:href="#DejaVuSans-32"/>
    <use x="1187.041016" xlink:href="#DejaVuSans-119"/>
    <use x="1268.828125" xlink:href="#DejaVuSans-47"/>
    <use x="1302.519531" xlink:href="#DejaVuSans-112"/>
    <use x="1365.996094" xlink:href="#DejaVuSans-105"/>
    <use x="1393.779297" xlink:href="#DejaVuSans-110"/>
    <use x="1457.158203" xlink:href="#DejaVuSans-103"/>
   </g>
   <!-- Ping CDF plot -->
   <g transform="translate(441.4625 30.61675)scale(0.14 -0.14)">
    <defs>
     <path d="M 19.671875 64.796875 
L 19.671875 8.109375 
L 31.59375 8.109375 
Q 46.6875 8.109375 53.6875 14.9375 
Q 60.6875 21.78125 60.6875 36.53125 
Q 60.6875 51.171875 53.6875 57.984375 
Q 46.6875 64.796875 31.59375 64.796875 
z
M 9.8125 72.90625 
L 30.078125 72.90625 
Q 51.265625 72.90625 61.171875 64.09375 
Q 71.09375 55.28125 71.09375 36.53125 
Q 71.09375 17.671875 61.125 8.828125 
Q 51.171875 0 30.078125 0 
L 9.8125 0 
z
" id="DejaVuSans-68"/>
     <path d="M 9.8125 72.90625 
L 51.703125 72.90625 
L 51.703125 64.59375 
L 19.671875 64.59375 
L 19.671875 43.109375 
L 48.578125 43.109375 
L 48.578125 34.8125 
L 19.671875 34.8125 
L 19.671875 0 
L 9.8125 0 
z
" id="DejaVuSans-70"/>
    </defs>
    <use xlink:href="#DejaVuSans-80"/>
    <use x="58.052734" xlink:href="#DejaVuSans-105"/>
    <use x="85.835938" xlink:href="#DejaVuSans-110"/>
    <use x="149.214844" xlink:href="#DejaVuSans-103"/>
    <use x="212.691406" xlink:href="#DejaVuSans-32"/>
    <use x="244.478516" xlink:href="#DejaVuSans-67"/>
    <use x="314.302734" xlink:href="#DejaVuSans-68"/>
    <use x="391.304688" xlink:href="#DejaVuSans-70"/>
    <use x="448.824219" xlink:href="#DejaVuSans-32"/>
    <use x="480.611328" xlink:href="#DejaVuSans-112"/>
    <use x="544.087891" xlink:href="#DejaVuSans-108"/>
    <use x="571.871094" xlink:href="#DejaVuSans-111"/>
    <use x="633.052734" xlink:href="#DejaVuSans-116"/>
   </g>
  </g>
 </g>
 <defs>
  <clipPath id="p21afbe64d4">
   <rect height="397.5048" width="619.038" x="122.13" y="61.9488"/>
  </clipPath>
 </defs>
</svg>
