<?xml version="1.0" encoding="utf-8" standalone="no"?>
<!DOCTYPE svg PUBLIC "-//W3C//DTD SVG 1.1//EN"
  "http://www.w3.org/Graphics/SVG/1.1/DTD/svg11.dtd">
<!-- Created with matplotlib (https://matplotlib.org/) -->
<svg height="516.24pt" version="1.1" viewBox="0 0 977.04 516.24" width="977.04pt" xmlns="http://www.w3.org/2000/svg" xmlns:xlink="http://www.w3.org/1999/xlink">
 <metadata>
  <rdf:RDF xmlns:cc="http://creativecommons.org/ns#" xmlns:dc="http://purl.org/dc/elements/1.1/" xmlns:rdf="http://www.w3.org/1999/02/22-rdf-syntax-ns#">
   <cc:Work>
    <dc:type rdf:resource="http://purl.org/dc/dcmitype/StillImage"/>
    <dc:date>2023-09-14T13:13:31.933373</dc:date>
    <dc:format>image/svg+xml</dc:format>
    <dc:creator>
     <cc:Agent>
      <dc:title>Matplotlib v3.3.4, https://matplotlib.org/</dc:title>
     </cc:Agent>
    </dc:creator>
   </cc:Work>
  </rdf:RDF>
 </metadata>
 <defs>
  <style type="text/css">*{stroke-linecap:butt;stroke-linejoin:round;}</style>
 </defs>
 <g id="figure_1">
  <g id="patch_1">
   <path d="M 0 516.24 
L 977.04 516.24 
L 977.04 0 
L 0 0 
z
" style="fill:#ffffff;"/>
  </g>
  <g id="axes_1">
   <g id="patch_2">
    <path d="M 122.13 459.4536 
L 631.818 459.4536 
L 631.818 61.9488 
L 122.13 61.9488 
z
" style="fill:#e6e6e6;"/>
   </g>
   <g id="matplotlib.axis_1">
    <g id="xtick_1">
     <g id="line2d_1">
      <path clip-path="url(#p7746065e0f)" d="M 186.794862 459.4536 
L 186.794862 61.9488 
" style="fill:none;stroke:#ffffff;stroke-linecap:round;"/>
     </g>
     <g id="line2d_2"/>
     <g id="text_1">
      <!-- 10 -->
      <g transform="translate(180.432362 470.552038)scale(0.1 -0.1)">
       <defs>
        <path d="M 12.40625 8.296875 
L 28.515625 8.296875 
L 28.515625 63.921875 
L 10.984375 60.40625 
L 10.984375 69.390625 
L 28.421875 72.90625 
L 38.28125 72.90625 
L 38.28125 8.296875 
L 54.390625 8.296875 
L 54.390625 0 
L 12.40625 0 
z
" id="DejaVuSans-49"/>
        <path d="M 31.78125 66.40625 
Q 24.171875 66.40625 20.328125 58.90625 
Q 16.5 51.421875 16.5 36.375 
Q 16.5 21.390625 20.328125 13.890625 
Q 24.171875 6.390625 31.78125 6.390625 
Q 39.453125 6.390625 43.28125 13.890625 
Q 47.125 21.390625 47.125 36.375 
Q 47.125 51.421875 43.28125 58.90625 
Q 39.453125 66.40625 31.78125 66.40625 
z
M 31.78125 74.21875 
Q 44.046875 74.21875 50.515625 64.515625 
Q 56.984375 54.828125 56.984375 36.375 
Q 56.984375 17.96875 50.515625 8.265625 
Q 44.046875 -1.421875 31.78125 -1.421875 
Q 19.53125 -1.421875 13.0625 8.265625 
Q 6.59375 17.96875 6.59375 36.375 
Q 6.59375 54.828125 13.0625 64.515625 
Q 19.53125 74.21875 31.78125 74.21875 
z
" id="DejaVuSans-48"/>
       </defs>
       <use xlink:href="#DejaVuSans-49"/>
       <use x="63.623047" xlink:href="#DejaVuSans-48"/>
      </g>
     </g>
    </g>
    <g id="xtick_2">
     <g id="line2d_3">
      <path clip-path="url(#p7746065e0f)" d="M 251.778271 459.4536 
L 251.778271 61.9488 
" style="fill:none;stroke:#ffffff;stroke-linecap:round;"/>
     </g>
     <g id="line2d_4"/>
     <g id="text_2">
      <!-- 20 -->
      <g transform="translate(245.415771 470.552038)scale(0.1 -0.1)">
       <defs>
        <path d="M 19.1875 8.296875 
L 53.609375 8.296875 
L 53.609375 0 
L 7.328125 0 
L 7.328125 8.296875 
Q 12.9375 14.109375 22.625 23.890625 
Q 32.328125 33.6875 34.8125 36.53125 
Q 39.546875 41.84375 41.421875 45.53125 
Q 43.3125 49.21875 43.3125 52.78125 
Q 43.3125 58.59375 39.234375 62.25 
Q 35.15625 65.921875 28.609375 65.921875 
Q 23.96875 65.921875 18.8125 64.3125 
Q 13.671875 62.703125 7.8125 59.421875 
L 7.8125 69.390625 
Q 13.765625 71.78125 18.9375 73 
Q 24.125 74.21875 28.421875 74.21875 
Q 39.75 74.21875 46.484375 68.546875 
Q 53.21875 62.890625 53.21875 53.421875 
Q 53.21875 48.921875 51.53125 44.890625 
Q 49.859375 40.875 45.40625 35.40625 
Q 44.1875 33.984375 37.640625 27.21875 
Q 31.109375 20.453125 19.1875 8.296875 
z
" id="DejaVuSans-50"/>
       </defs>
       <use xlink:href="#DejaVuSans-50"/>
       <use x="63.623047" xlink:href="#DejaVuSans-48"/>
      </g>
     </g>
    </g>
    <g id="xtick_3">
     <g id="line2d_5">
      <path clip-path="url(#p7746065e0f)" d="M 316.761681 459.4536 
L 316.761681 61.9488 
" style="fill:none;stroke:#ffffff;stroke-linecap:round;"/>
     </g>
     <g id="line2d_6"/>
     <g id="text_3">
      <!-- 30 -->
      <g transform="translate(310.399181 470.552038)scale(0.1 -0.1)">
       <defs>
        <path d="M 40.578125 39.3125 
Q 47.65625 37.796875 51.625 33 
Q 55.609375 28.21875 55.609375 21.1875 
Q 55.609375 10.40625 48.1875 4.484375 
Q 40.765625 -1.421875 27.09375 -1.421875 
Q 22.515625 -1.421875 17.65625 -0.515625 
Q 12.796875 0.390625 7.625 2.203125 
L 7.625 11.71875 
Q 11.71875 9.328125 16.59375 8.109375 
Q 21.484375 6.890625 26.8125 6.890625 
Q 36.078125 6.890625 40.9375 10.546875 
Q 45.796875 14.203125 45.796875 21.1875 
Q 45.796875 27.640625 41.28125 31.265625 
Q 36.765625 34.90625 28.71875 34.90625 
L 20.21875 34.90625 
L 20.21875 43.015625 
L 29.109375 43.015625 
Q 36.375 43.015625 40.234375 45.921875 
Q 44.09375 48.828125 44.09375 54.296875 
Q 44.09375 59.90625 40.109375 62.90625 
Q 36.140625 65.921875 28.71875 65.921875 
Q 24.65625 65.921875 20.015625 65.03125 
Q 15.375 64.15625 9.8125 62.3125 
L 9.8125 71.09375 
Q 15.4375 72.65625 20.34375 73.4375 
Q 25.25 74.21875 29.59375 74.21875 
Q 40.828125 74.21875 47.359375 69.109375 
Q 53.90625 64.015625 53.90625 55.328125 
Q 53.90625 49.265625 50.4375 45.09375 
Q 46.96875 40.921875 40.578125 39.3125 
z
" id="DejaVuSans-51"/>
       </defs>
       <use xlink:href="#DejaVuSans-51"/>
       <use x="63.623047" xlink:href="#DejaVuSans-48"/>
      </g>
     </g>
    </g>
    <g id="xtick_4">
     <g id="line2d_7">
      <path clip-path="url(#p7746065e0f)" d="M 381.74509 459.4536 
L 381.74509 61.9488 
" style="fill:none;stroke:#ffffff;stroke-linecap:round;"/>
     </g>
     <g id="line2d_8"/>
     <g id="text_4">
      <!-- 40 -->
      <g transform="translate(375.38259 470.552038)scale(0.1 -0.1)">
       <defs>
        <path d="M 37.796875 64.3125 
L 12.890625 25.390625 
L 37.796875 25.390625 
z
M 35.203125 72.90625 
L 47.609375 72.90625 
L 47.609375 25.390625 
L 58.015625 25.390625 
L 58.015625 17.1875 
L 47.609375 17.1875 
L 47.609375 0 
L 37.796875 0 
L 37.796875 17.1875 
L 4.890625 17.1875 
L 4.890625 26.703125 
z
" id="DejaVuSans-52"/>
       </defs>
       <use xlink:href="#DejaVuSans-52"/>
       <use x="63.623047" xlink:href="#DejaVuSans-48"/>
      </g>
     </g>
    </g>
    <g id="xtick_5">
     <g id="line2d_9">
      <path clip-path="url(#p7746065e0f)" d="M 446.7285 459.4536 
L 446.7285 61.9488 
" style="fill:none;stroke:#ffffff;stroke-linecap:round;"/>
     </g>
     <g id="line2d_10"/>
     <g id="text_5">
      <!-- 50 -->
      <g transform="translate(440.366 470.552038)scale(0.1 -0.1)">
       <defs>
        <path d="M 10.796875 72.90625 
L 49.515625 72.90625 
L 49.515625 64.59375 
L 19.828125 64.59375 
L 19.828125 46.734375 
Q 21.96875 47.46875 24.109375 47.828125 
Q 26.265625 48.1875 28.421875 48.1875 
Q 40.625 48.1875 47.75 41.5 
Q 54.890625 34.8125 54.890625 23.390625 
Q 54.890625 11.625 47.5625 5.09375 
Q 40.234375 -1.421875 26.90625 -1.421875 
Q 22.3125 -1.421875 17.546875 -0.640625 
Q 12.796875 0.140625 7.71875 1.703125 
L 7.71875 11.625 
Q 12.109375 9.234375 16.796875 8.0625 
Q 21.484375 6.890625 26.703125 6.890625 
Q 35.15625 6.890625 40.078125 11.328125 
Q 45.015625 15.765625 45.015625 23.390625 
Q 45.015625 31 40.078125 35.4375 
Q 35.15625 39.890625 26.703125 39.890625 
Q 22.75 39.890625 18.8125 39.015625 
Q 14.890625 38.140625 10.796875 36.28125 
z
" id="DejaVuSans-53"/>
       </defs>
       <use xlink:href="#DejaVuSans-53"/>
       <use x="63.623047" xlink:href="#DejaVuSans-48"/>
      </g>
     </g>
    </g>
    <g id="xtick_6">
     <g id="line2d_11">
      <path clip-path="url(#p7746065e0f)" d="M 511.711909 459.4536 
L 511.711909 61.9488 
" style="fill:none;stroke:#ffffff;stroke-linecap:round;"/>
     </g>
     <g id="line2d_12"/>
     <g id="text_6">
      <!-- 60 -->
      <g transform="translate(505.349409 470.552038)scale(0.1 -0.1)">
       <defs>
        <path d="M 33.015625 40.375 
Q 26.375 40.375 22.484375 35.828125 
Q 18.609375 31.296875 18.609375 23.390625 
Q 18.609375 15.53125 22.484375 10.953125 
Q 26.375 6.390625 33.015625 6.390625 
Q 39.65625 6.390625 43.53125 10.953125 
Q 47.40625 15.53125 47.40625 23.390625 
Q 47.40625 31.296875 43.53125 35.828125 
Q 39.65625 40.375 33.015625 40.375 
z
M 52.59375 71.296875 
L 52.59375 62.3125 
Q 48.875 64.0625 45.09375 64.984375 
Q 41.3125 65.921875 37.59375 65.921875 
Q 27.828125 65.921875 22.671875 59.328125 
Q 17.53125 52.734375 16.796875 39.40625 
Q 19.671875 43.65625 24.015625 45.921875 
Q 28.375 48.1875 33.59375 48.1875 
Q 44.578125 48.1875 50.953125 41.515625 
Q 57.328125 34.859375 57.328125 23.390625 
Q 57.328125 12.15625 50.6875 5.359375 
Q 44.046875 -1.421875 33.015625 -1.421875 
Q 20.359375 -1.421875 13.671875 8.265625 
Q 6.984375 17.96875 6.984375 36.375 
Q 6.984375 53.65625 15.1875 63.9375 
Q 23.390625 74.21875 37.203125 74.21875 
Q 40.921875 74.21875 44.703125 73.484375 
Q 48.484375 72.75 52.59375 71.296875 
z
" id="DejaVuSans-54"/>
       </defs>
       <use xlink:href="#DejaVuSans-54"/>
       <use x="63.623047" xlink:href="#DejaVuSans-48"/>
      </g>
     </g>
    </g>
    <g id="xtick_7">
     <g id="line2d_13">
      <path clip-path="url(#p7746065e0f)" d="M 576.695319 459.4536 
L 576.695319 61.9488 
" style="fill:none;stroke:#ffffff;stroke-linecap:round;"/>
     </g>
     <g id="line2d_14"/>
     <g id="text_7">
      <!-- 70 -->
      <g transform="translate(570.332819 470.552038)scale(0.1 -0.1)">
       <defs>
        <path d="M 8.203125 72.90625 
L 55.078125 72.90625 
L 55.078125 68.703125 
L 28.609375 0 
L 18.3125 0 
L 43.21875 64.59375 
L 8.203125 64.59375 
z
" id="DejaVuSans-55"/>
       </defs>
       <use xlink:href="#DejaVuSans-55"/>
       <use x="63.623047" xlink:href="#DejaVuSans-48"/>
      </g>
     </g>
    </g>
    <g id="xtick_8">
     <g id="line2d_15"/>
    </g>
    <g id="xtick_9">
     <g id="line2d_16"/>
    </g>
    <g id="xtick_10">
     <g id="line2d_17"/>
    </g>
    <g id="xtick_11">
     <g id="line2d_18"/>
    </g>
    <g id="xtick_12">
     <g id="line2d_19"/>
    </g>
    <g id="xtick_13">
     <g id="line2d_20"/>
    </g>
    <g id="xtick_14">
     <g id="line2d_21"/>
    </g>
    <g id="xtick_15">
     <g id="line2d_22"/>
    </g>
    <g id="xtick_16">
     <g id="line2d_23"/>
    </g>
    <g id="xtick_17">
     <g id="line2d_24"/>
    </g>
    <g id="xtick_18">
     <g id="line2d_25"/>
    </g>
    <g id="xtick_19">
     <g id="line2d_26"/>
    </g>
    <g id="xtick_20">
     <g id="line2d_27"/>
    </g>
    <g id="xtick_21">
     <g id="line2d_28"/>
    </g>
    <g id="xtick_22">
     <g id="line2d_29"/>
    </g>
    <g id="xtick_23">
     <g id="line2d_30"/>
    </g>
    <g id="xtick_24">
     <g id="line2d_31"/>
    </g>
    <g id="xtick_25">
     <g id="line2d_32"/>
    </g>
    <g id="xtick_26">
     <g id="line2d_33"/>
    </g>
    <g id="xtick_27">
     <g id="line2d_34"/>
    </g>
    <g id="xtick_28">
     <g id="line2d_35"/>
    </g>
    <g id="xtick_29">
     <g id="line2d_36"/>
    </g>
    <g id="xtick_30">
     <g id="line2d_37"/>
    </g>
    <g id="xtick_31">
     <g id="line2d_38"/>
    </g>
    <g id="xtick_32">
     <g id="line2d_39"/>
    </g>
    <g id="xtick_33">
     <g id="line2d_40"/>
    </g>
    <g id="xtick_34">
     <g id="line2d_41"/>
    </g>
    <g id="xtick_35">
     <g id="line2d_42"/>
    </g>
    <g id="xtick_36">
     <g id="line2d_43"/>
    </g>
    <g id="xtick_37">
     <g id="line2d_44"/>
    </g>
    <g id="xtick_38">
     <g id="line2d_45"/>
    </g>
    <g id="xtick_39">
     <g id="line2d_46"/>
    </g>
    <g id="text_8">
     <!-- Time (s) -->
     <g transform="translate(356.645094 484.230163)scale(0.1 -0.1)">
      <defs>
       <path d="M -0.296875 72.90625 
L 61.375 72.90625 
L 61.375 64.59375 
L 35.5 64.59375 
L 35.5 0 
L 25.59375 0 
L 25.59375 64.59375 
L -0.296875 64.59375 
z
" id="DejaVuSans-84"/>
       <path d="M 9.421875 54.6875 
L 18.40625 54.6875 
L 18.40625 0 
L 9.421875 0 
z
M 9.421875 75.984375 
L 18.40625 75.984375 
L 18.40625 64.59375 
L 9.421875 64.59375 
z
" id="DejaVuSans-105"/>
       <path d="M 52 44.1875 
Q 55.375 50.25 60.0625 53.125 
Q 64.75 56 71.09375 56 
Q 79.640625 56 84.28125 50.015625 
Q 88.921875 44.046875 88.921875 33.015625 
L 88.921875 0 
L 79.890625 0 
L 79.890625 32.71875 
Q 79.890625 40.578125 77.09375 44.375 
Q 74.3125 48.1875 68.609375 48.1875 
Q 61.625 48.1875 57.5625 43.546875 
Q 53.515625 38.921875 53.515625 30.90625 
L 53.515625 0 
L 44.484375 0 
L 44.484375 32.71875 
Q 44.484375 40.625 41.703125 44.40625 
Q 38.921875 48.1875 33.109375 48.1875 
Q 26.21875 48.1875 22.15625 43.53125 
Q 18.109375 38.875 18.109375 30.90625 
L 18.109375 0 
L 9.078125 0 
L 9.078125 54.6875 
L 18.109375 54.6875 
L 18.109375 46.1875 
Q 21.1875 51.21875 25.484375 53.609375 
Q 29.78125 56 35.6875 56 
Q 41.65625 56 45.828125 52.96875 
Q 50 49.953125 52 44.1875 
z
" id="DejaVuSans-109"/>
       <path d="M 56.203125 29.59375 
L 56.203125 25.203125 
L 14.890625 25.203125 
Q 15.484375 15.921875 20.484375 11.0625 
Q 25.484375 6.203125 34.421875 6.203125 
Q 39.59375 6.203125 44.453125 7.46875 
Q 49.3125 8.734375 54.109375 11.28125 
L 54.109375 2.78125 
Q 49.265625 0.734375 44.1875 -0.34375 
Q 39.109375 -1.421875 33.890625 -1.421875 
Q 20.796875 -1.421875 13.15625 6.1875 
Q 5.515625 13.8125 5.515625 26.8125 
Q 5.515625 40.234375 12.765625 48.109375 
Q 20.015625 56 32.328125 56 
Q 43.359375 56 49.78125 48.890625 
Q 56.203125 41.796875 56.203125 29.59375 
z
M 47.21875 32.234375 
Q 47.125 39.59375 43.09375 43.984375 
Q 39.0625 48.390625 32.421875 48.390625 
Q 24.90625 48.390625 20.390625 44.140625 
Q 15.875 39.890625 15.1875 32.171875 
z
" id="DejaVuSans-101"/>
       <path id="DejaVuSans-32"/>
       <path d="M 31 75.875 
Q 24.46875 64.65625 21.28125 53.65625 
Q 18.109375 42.671875 18.109375 31.390625 
Q 18.109375 20.125 21.3125 9.0625 
Q 24.515625 -2 31 -13.1875 
L 23.1875 -13.1875 
Q 15.875 -1.703125 12.234375 9.375 
Q 8.59375 20.453125 8.59375 31.390625 
Q 8.59375 42.28125 12.203125 53.3125 
Q 15.828125 64.359375 23.1875 75.875 
z
" id="DejaVuSans-40"/>
       <path d="M 44.28125 53.078125 
L 44.28125 44.578125 
Q 40.484375 46.53125 36.375 47.5 
Q 32.28125 48.484375 27.875 48.484375 
Q 21.1875 48.484375 17.84375 46.4375 
Q 14.5 44.390625 14.5 40.28125 
Q 14.5 37.15625 16.890625 35.375 
Q 19.28125 33.59375 26.515625 31.984375 
L 29.59375 31.296875 
Q 39.15625 29.25 43.1875 25.515625 
Q 47.21875 21.78125 47.21875 15.09375 
Q 47.21875 7.46875 41.1875 3.015625 
Q 35.15625 -1.421875 24.609375 -1.421875 
Q 20.21875 -1.421875 15.453125 -0.5625 
Q 10.6875 0.296875 5.421875 2 
L 5.421875 11.28125 
Q 10.40625 8.6875 15.234375 7.390625 
Q 20.0625 6.109375 24.8125 6.109375 
Q 31.15625 6.109375 34.5625 8.28125 
Q 37.984375 10.453125 37.984375 14.40625 
Q 37.984375 18.0625 35.515625 20.015625 
Q 33.0625 21.96875 24.703125 23.78125 
L 21.578125 24.515625 
Q 13.234375 26.265625 9.515625 29.90625 
Q 5.8125 33.546875 5.8125 39.890625 
Q 5.8125 47.609375 11.28125 51.796875 
Q 16.75 56 26.8125 56 
Q 31.78125 56 36.171875 55.265625 
Q 40.578125 54.546875 44.28125 53.078125 
z
" id="DejaVuSans-115"/>
       <path d="M 8.015625 75.875 
L 15.828125 75.875 
Q 23.140625 64.359375 26.78125 53.3125 
Q 30.421875 42.28125 30.421875 31.390625 
Q 30.421875 20.453125 26.78125 9.375 
Q 23.140625 -1.703125 15.828125 -13.1875 
L 8.015625 -13.1875 
Q 14.5 -2 17.703125 9.0625 
Q 20.90625 20.125 20.90625 31.390625 
Q 20.90625 42.671875 17.703125 53.65625 
Q 14.5 64.65625 8.015625 75.875 
z
" id="DejaVuSans-41"/>
      </defs>
      <use xlink:href="#DejaVuSans-84"/>
      <use x="57.958984" xlink:href="#DejaVuSans-105"/>
      <use x="85.742188" xlink:href="#DejaVuSans-109"/>
      <use x="183.154297" xlink:href="#DejaVuSans-101"/>
      <use x="244.677734" xlink:href="#DejaVuSans-32"/>
      <use x="276.464844" xlink:href="#DejaVuSans-40"/>
      <use x="315.478516" xlink:href="#DejaVuSans-115"/>
      <use x="367.578125" xlink:href="#DejaVuSans-41"/>
     </g>
    </g>
   </g>
   <g id="matplotlib.axis_2">
    <g id="ytick_1">
     <g id="line2d_47">
      <path clip-path="url(#p7746065e0f)" d="M 122.13 455.556494 
L 631.818 455.556494 
" style="fill:none;stroke:#ffffff;stroke-linecap:round;"/>
     </g>
     <g id="line2d_48"/>
     <g id="text_9">
      <!-- 0 -->
      <g transform="translate(112.2675 459.355713)scale(0.1 -0.1)">
       <use xlink:href="#DejaVuSans-48"/>
      </g>
     </g>
    </g>
    <g id="ytick_2">
     <g id="line2d_49">
      <path clip-path="url(#p7746065e0f)" d="M 122.13 401.930533 
L 631.818 401.930533 
" style="fill:none;stroke:#ffffff;stroke-linecap:round;"/>
     </g>
     <g id="line2d_50"/>
     <g id="text_10">
      <!-- 20000 -->
      <g transform="translate(86.8175 405.729751)scale(0.1 -0.1)">
       <use xlink:href="#DejaVuSans-50"/>
       <use x="63.623047" xlink:href="#DejaVuSans-48"/>
       <use x="127.246094" xlink:href="#DejaVuSans-48"/>
       <use x="190.869141" xlink:href="#DejaVuSans-48"/>
       <use x="254.492188" xlink:href="#DejaVuSans-48"/>
      </g>
     </g>
    </g>
    <g id="ytick_3">
     <g id="line2d_51">
      <path clip-path="url(#p7746065e0f)" d="M 122.13 348.304571 
L 631.818 348.304571 
" style="fill:none;stroke:#ffffff;stroke-linecap:round;"/>
     </g>
     <g id="line2d_52"/>
     <g id="text_11">
      <!-- 40000 -->
      <g transform="translate(86.8175 352.10379)scale(0.1 -0.1)">
       <use xlink:href="#DejaVuSans-52"/>
       <use x="63.623047" xlink:href="#DejaVuSans-48"/>
       <use x="127.246094" xlink:href="#DejaVuSans-48"/>
       <use x="190.869141" xlink:href="#DejaVuSans-48"/>
       <use x="254.492188" xlink:href="#DejaVuSans-48"/>
      </g>
     </g>
    </g>
    <g id="ytick_4">
     <g id="line2d_53">
      <path clip-path="url(#p7746065e0f)" d="M 122.13 294.678609 
L 631.818 294.678609 
" style="fill:none;stroke:#ffffff;stroke-linecap:round;"/>
     </g>
     <g id="line2d_54"/>
     <g id="text_12">
      <!-- 60000 -->
      <g transform="translate(86.8175 298.477828)scale(0.1 -0.1)">
       <use xlink:href="#DejaVuSans-54"/>
       <use x="63.623047" xlink:href="#DejaVuSans-48"/>
       <use x="127.246094" xlink:href="#DejaVuSans-48"/>
       <use x="190.869141" xlink:href="#DejaVuSans-48"/>
       <use x="254.492188" xlink:href="#DejaVuSans-48"/>
      </g>
     </g>
    </g>
    <g id="ytick_5">
     <g id="line2d_55">
      <path clip-path="url(#p7746065e0f)" d="M 122.13 241.052648 
L 631.818 241.052648 
" style="fill:none;stroke:#ffffff;stroke-linecap:round;"/>
     </g>
     <g id="line2d_56"/>
     <g id="text_13">
      <!-- 80000 -->
      <g transform="translate(86.8175 244.851866)scale(0.1 -0.1)">
       <defs>
        <path d="M 31.78125 34.625 
Q 24.75 34.625 20.71875 30.859375 
Q 16.703125 27.09375 16.703125 20.515625 
Q 16.703125 13.921875 20.71875 10.15625 
Q 24.75 6.390625 31.78125 6.390625 
Q 38.8125 6.390625 42.859375 10.171875 
Q 46.921875 13.96875 46.921875 20.515625 
Q 46.921875 27.09375 42.890625 30.859375 
Q 38.875 34.625 31.78125 34.625 
z
M 21.921875 38.8125 
Q 15.578125 40.375 12.03125 44.71875 
Q 8.5 49.078125 8.5 55.328125 
Q 8.5 64.0625 14.71875 69.140625 
Q 20.953125 74.21875 31.78125 74.21875 
Q 42.671875 74.21875 48.875 69.140625 
Q 55.078125 64.0625 55.078125 55.328125 
Q 55.078125 49.078125 51.53125 44.71875 
Q 48 40.375 41.703125 38.8125 
Q 48.828125 37.15625 52.796875 32.3125 
Q 56.78125 27.484375 56.78125 20.515625 
Q 56.78125 9.90625 50.3125 4.234375 
Q 43.84375 -1.421875 31.78125 -1.421875 
Q 19.734375 -1.421875 13.25 4.234375 
Q 6.78125 9.90625 6.78125 20.515625 
Q 6.78125 27.484375 10.78125 32.3125 
Q 14.796875 37.15625 21.921875 38.8125 
z
M 18.3125 54.390625 
Q 18.3125 48.734375 21.84375 45.5625 
Q 25.390625 42.390625 31.78125 42.390625 
Q 38.140625 42.390625 41.71875 45.5625 
Q 45.3125 48.734375 45.3125 54.390625 
Q 45.3125 60.0625 41.71875 63.234375 
Q 38.140625 66.40625 31.78125 66.40625 
Q 25.390625 66.40625 21.84375 63.234375 
Q 18.3125 60.0625 18.3125 54.390625 
z
" id="DejaVuSans-56"/>
       </defs>
       <use xlink:href="#DejaVuSans-56"/>
       <use x="63.623047" xlink:href="#DejaVuSans-48"/>
       <use x="127.246094" xlink:href="#DejaVuSans-48"/>
       <use x="190.869141" xlink:href="#DejaVuSans-48"/>
       <use x="254.492188" xlink:href="#DejaVuSans-48"/>
      </g>
     </g>
    </g>
    <g id="ytick_6">
     <g id="line2d_57">
      <path clip-path="url(#p7746065e0f)" d="M 122.13 187.426686 
L 631.818 187.426686 
" style="fill:none;stroke:#ffffff;stroke-linecap:round;"/>
     </g>
     <g id="line2d_58"/>
     <g id="text_14">
      <!-- 100000 -->
      <g transform="translate(80.455 191.225905)scale(0.1 -0.1)">
       <use xlink:href="#DejaVuSans-49"/>
       <use x="63.623047" xlink:href="#DejaVuSans-48"/>
       <use x="127.246094" xlink:href="#DejaVuSans-48"/>
       <use x="190.869141" xlink:href="#DejaVuSans-48"/>
       <use x="254.492188" xlink:href="#DejaVuSans-48"/>
       <use x="318.115234" xlink:href="#DejaVuSans-48"/>
      </g>
     </g>
    </g>
    <g id="ytick_7">
     <g id="line2d_59">
      <path clip-path="url(#p7746065e0f)" d="M 122.13 133.800724 
L 631.818 133.800724 
" style="fill:none;stroke:#ffffff;stroke-linecap:round;"/>
     </g>
     <g id="line2d_60"/>
     <g id="text_15">
      <!-- 120000 -->
      <g transform="translate(80.455 137.599943)scale(0.1 -0.1)">
       <use xlink:href="#DejaVuSans-49"/>
       <use x="63.623047" xlink:href="#DejaVuSans-50"/>
       <use x="127.246094" xlink:href="#DejaVuSans-48"/>
       <use x="190.869141" xlink:href="#DejaVuSans-48"/>
       <use x="254.492188" xlink:href="#DejaVuSans-48"/>
       <use x="318.115234" xlink:href="#DejaVuSans-48"/>
      </g>
     </g>
    </g>
    <g id="ytick_8">
     <g id="line2d_61">
      <path clip-path="url(#p7746065e0f)" d="M 122.13 80.174763 
L 631.818 80.174763 
" style="fill:none;stroke:#ffffff;stroke-linecap:round;"/>
     </g>
     <g id="line2d_62"/>
     <g id="text_16">
      <!-- 140000 -->
      <g transform="translate(80.455 83.973982)scale(0.1 -0.1)">
       <use xlink:href="#DejaVuSans-49"/>
       <use x="63.623047" xlink:href="#DejaVuSans-52"/>
       <use x="127.246094" xlink:href="#DejaVuSans-48"/>
       <use x="190.869141" xlink:href="#DejaVuSans-48"/>
       <use x="254.492188" xlink:href="#DejaVuSans-48"/>
       <use x="318.115234" xlink:href="#DejaVuSans-48"/>
      </g>
     </g>
    </g>
    <g id="ytick_9">
     <g id="line2d_63"/>
    </g>
    <g id="ytick_10">
     <g id="line2d_64"/>
    </g>
    <g id="ytick_11">
     <g id="line2d_65"/>
    </g>
    <g id="ytick_12">
     <g id="line2d_66"/>
    </g>
    <g id="ytick_13">
     <g id="line2d_67"/>
    </g>
    <g id="ytick_14">
     <g id="line2d_68"/>
    </g>
    <g id="ytick_15">
     <g id="line2d_69"/>
    </g>
    <g id="ytick_16">
     <g id="line2d_70"/>
    </g>
    <g id="ytick_17">
     <g id="line2d_71"/>
    </g>
    <g id="ytick_18">
     <g id="line2d_72"/>
    </g>
    <g id="ytick_19">
     <g id="line2d_73"/>
    </g>
    <g id="ytick_20">
     <g id="line2d_74"/>
    </g>
    <g id="ytick_21">
     <g id="line2d_75"/>
    </g>
    <g id="ytick_22">
     <g id="line2d_76"/>
    </g>
    <g id="ytick_23">
     <g id="line2d_77"/>
    </g>
    <g id="ytick_24">
     <g id="line2d_78"/>
    </g>
    <g id="ytick_25">
     <g id="line2d_79"/>
    </g>
    <g id="ytick_26">
     <g id="line2d_80"/>
    </g>
    <g id="ytick_27">
     <g id="line2d_81"/>
    </g>
    <g id="ytick_28">
     <g id="line2d_82"/>
    </g>
    <g id="ytick_29">
     <g id="line2d_83"/>
    </g>
    <g id="ytick_30">
     <g id="line2d_84"/>
    </g>
    <g id="text_17">
     <!-- Bytes -->
     <g transform="translate(74.375312 274.73245)rotate(-90)scale(0.1 -0.1)">
      <defs>
       <path d="M 19.671875 34.8125 
L 19.671875 8.109375 
L 35.5 8.109375 
Q 43.453125 8.109375 47.28125 11.40625 
Q 51.125 14.703125 51.125 21.484375 
Q 51.125 28.328125 47.28125 31.5625 
Q 43.453125 34.8125 35.5 34.8125 
z
M 19.671875 64.796875 
L 19.671875 42.828125 
L 34.28125 42.828125 
Q 41.5 42.828125 45.03125 45.53125 
Q 48.578125 48.25 48.578125 53.8125 
Q 48.578125 59.328125 45.03125 62.0625 
Q 41.5 64.796875 34.28125 64.796875 
z
M 9.8125 72.90625 
L 35.015625 72.90625 
Q 46.296875 72.90625 52.390625 68.21875 
Q 58.5 63.53125 58.5 54.890625 
Q 58.5 48.1875 55.375 44.234375 
Q 52.25 40.28125 46.1875 39.3125 
Q 53.46875 37.75 57.5 32.78125 
Q 61.53125 27.828125 61.53125 20.40625 
Q 61.53125 10.640625 54.890625 5.3125 
Q 48.25 0 35.984375 0 
L 9.8125 0 
z
" id="DejaVuSans-66"/>
       <path d="M 32.171875 -5.078125 
Q 28.375 -14.84375 24.75 -17.8125 
Q 21.140625 -20.796875 15.09375 -20.796875 
L 7.90625 -20.796875 
L 7.90625 -13.28125 
L 13.1875 -13.28125 
Q 16.890625 -13.28125 18.9375 -11.515625 
Q 21 -9.765625 23.484375 -3.21875 
L 25.09375 0.875 
L 2.984375 54.6875 
L 12.5 54.6875 
L 29.59375 11.921875 
L 46.6875 54.6875 
L 56.203125 54.6875 
z
" id="DejaVuSans-121"/>
       <path d="M 18.3125 70.21875 
L 18.3125 54.6875 
L 36.8125 54.6875 
L 36.8125 47.703125 
L 18.3125 47.703125 
L 18.3125 18.015625 
Q 18.3125 11.328125 20.140625 9.421875 
Q 21.96875 7.515625 27.59375 7.515625 
L 36.8125 7.515625 
L 36.8125 0 
L 27.59375 0 
Q 17.1875 0 13.234375 3.875 
Q 9.28125 7.765625 9.28125 18.015625 
L 9.28125 47.703125 
L 2.6875 47.703125 
L 2.6875 54.6875 
L 9.28125 54.6875 
L 9.28125 70.21875 
z
" id="DejaVuSans-116"/>
      </defs>
      <use xlink:href="#DejaVuSans-66"/>
      <use x="68.603516" xlink:href="#DejaVuSans-121"/>
      <use x="127.783203" xlink:href="#DejaVuSans-116"/>
      <use x="166.992188" xlink:href="#DejaVuSans-101"/>
      <use x="228.515625" xlink:href="#DejaVuSans-115"/>
     </g>
    </g>
   </g>
   <g id="line2d_85">
    <path clip-path="url(#p7746065e0f)" d="M 122.150185 455.556494 
L 153.520461 455.556494 
L 154.896896 435.259068 
L 156.239175 350.009876 
L 157.588723 455.556494 
L 158.941536 358.128847 
L 161.619062 455.556494 
L 163.052477 366.247818 
L 164.481973 439.318553 
L 165.858344 374.366788 
L 167.219521 390.604729 
L 168.627079 439.318553 
L 169.966315 280.998626 
L 171.350308 455.556494 
L 172.81498 398.7237 
L 174.238884 439.318553 
L 175.574979 354.069362 
L 176.962431 455.556494 
L 178.33697 410.902156 
L 179.782371 414.961641 
L 181.283853 455.556494 
L 182.717241 439.318553 
L 184.076321 333.771935 
L 185.443105 305.355538 
L 186.837626 398.7237 
L 188.191608 285.058112 
L 189.572272 455.556494 
L 190.922549 439.318553 
L 192.369432 301.296053 
L 193.716178 455.556494 
L 200.685949 455.556494 
L 202.077057 439.318553 
L 203.423669 439.318553 
L 204.774931 427.140097 
L 206.117163 232.284803 
L 207.470574 455.556494 
L 208.829303 455.556494 
L 210.226234 398.7237 
L 211.604538 455.556494 
L 212.947799 406.842671 
L 214.365478 455.556494 
L 215.720009 423.080612 
L 217.071487 455.556494 
L 218.437817 423.080612 
L 219.827834 293.177082 
L 221.211972 390.604729 
L 222.555143 439.318553 
L 223.912891 321.593479 
L 225.262199 423.080612 
L 226.663879 423.080612 
L 228.032367 402.783185 
L 229.496243 455.556494 
L 230.886527 309.415024 
L 232.224974 199.808921 
L 233.567002 423.080612 
L 234.976109 439.318553 
L 236.385507 406.842671 
L 237.942478 455.556494 
L 239.416921 224.165832 
L 240.774735 341.890906 
L 242.132743 410.902156 
L 243.492465 423.080612 
L 244.926164 333.771935 
L 246.330382 455.556494 
L 247.720655 366.247818 
L 249.083572 455.556494 
L 250.437337 419.021126 
L 252.020039 455.556494 
L 253.429265 423.080612 
L 255.379494 455.556494 
L 257.190582 406.842671 
L 258.617827 333.771935 
L 259.9559 455.556494 
L 266.863726 455.556494 
L 268.344645 398.7237 
L 269.696619 423.080612 
L 271.035919 427.140097 
L 272.37328 276.939141 
L 273.731413 366.247818 
L 275.34844 354.069362 
L 276.773109 423.080612 
L 278.264883 350.009876 
L 280.988922 455.556494 
L 282.35402 382.485759 
L 283.723128 455.556494 
L 285.084539 374.366788 
L 286.516592 431.199582 
L 287.908675 423.080612 
L 289.250783 455.556494 
L 290.585898 321.593479 
L 291.924481 414.961641 
L 293.419161 455.556494 
L 294.870343 317.533994 
L 296.263721 406.842671 
L 297.598079 358.128847 
L 298.931878 439.318553 
L 300.286956 455.556494 
L 301.630044 455.556494 
L 302.974676 402.783185 
L 304.409191 394.664215 
L 305.805637 455.556494 
L 307.141629 374.366788 
L 308.490518 439.318553 
L 309.839767 423.080612 
L 311.219009 423.080612 
L 312.861493 439.318553 
L 314.252789 423.080612 
L 315.635103 151.095097 
L 317.055978 350.009876 
L 318.404688 455.556494 
L 319.76216 374.366788 
L 321.119744 455.556494 
L 322.480697 309.415024 
L 323.887629 455.556494 
L 325.241688 414.961641 
L 326.588772 455.556494 
L 327.950711 455.556494 
L 329.314037 240.403774 
L 330.689247 134.857156 
L 332.108499 423.080612 
L 333.560996 398.7237 
L 334.919164 390.604729 
L 336.335932 423.080612 
L 337.675881 313.474509 
L 339.011144 374.366788 
L 340.371867 423.080612 
L 342.009688 439.318553 
L 343.41639 439.318553 
L 344.84021 406.842671 
L 346.187452 455.556494 
L 347.531489 431.199582 
L 348.912644 439.318553 
L 350.262591 374.366788 
L 351.642532 455.556494 
L 353.01077 402.783185 
L 354.365449 423.080612 
L 355.818434 350.009876 
L 357.174822 374.366788 
L 358.538439 439.318553 
L 359.913964 419.021126 
L 361.266861 366.247818 
L 362.613738 439.318553 
L 364.031942 220.106347 
L 366.802156 455.556494 
L 368.135869 419.021126 
L 369.499727 394.664215 
L 370.959003 455.556494 
L 372.490534 455.556494 
L 375.290992 423.080612 
L 376.62885 220.106347 
L 377.963742 402.783185 
L 379.315753 354.069362 
L 380.734785 382.485759 
L 382.237781 423.080612 
L 383.624775 455.556494 
L 384.978402 455.556494 
L 386.319826 256.641715 
L 387.671661 455.556494 
L 389.069322 455.556494 
L 390.540568 358.128847 
L 391.934722 455.556494 
L 394.633828 423.080612 
L 396.039554 455.556494 
L 397.498116 252.582229 
L 398.874656 455.556494 
L 400.216469 423.080612 
L 401.567538 455.556494 
L 402.908603 402.783185 
L 404.276475 455.556494 
L 405.776692 406.842671 
L 407.129247 406.842671 
L 408.480555 423.080612 
L 409.827874 305.355538 
L 411.168818 439.318553 
L 412.622019 435.259068 
L 414.114381 455.556494 
L 415.458457 337.831421 
L 416.805552 455.556494 
L 418.152377 390.604729 
L 419.563284 402.783185 
L 421.041066 455.556494 
L 422.424547 390.604729 
L 423.860711 439.318553 
L 425.200815 179.511494 
L 426.55854 350.009876 
L 427.898736 402.783185 
L 429.352447 455.556494 
L 430.765012 439.318553 
L 432.102778 305.355538 
L 433.43879 455.556494 
L 434.79763 366.247818 
L 436.141262 159.214068 
L 437.555827 406.842671 
L 438.987724 455.556494 
L 440.394559 321.593479 
L 441.741143 374.366788 
L 443.155476 159.214068 
L 444.51917 455.556494 
L 445.865242 439.318553 
L 447.469694 439.318553 
L 448.909014 366.247818 
L 450.282441 431.199582 
L 451.629434 305.355538 
L 452.985337 439.318553 
L 454.345437 419.021126 
L 455.702108 366.247818 
L 457.040596 455.556494 
L 458.378059 455.556494 
L 459.792942 431.199582 
L 461.135003 414.961641 
L 462.479005 455.556494 
L 463.829327 321.593479 
L 465.181107 337.831421 
L 466.521523 394.664215 
L 467.858473 337.831421 
L 469.26648 439.318553 
L 470.678011 350.009876 
L 472.067285 329.71245 
L 473.406501 455.556494 
L 474.746932 439.318553 
L 476.089683 341.890906 
L 478.881807 366.247818 
L 480.296956 337.831421 
L 481.692605 439.318553 
L 483.047951 345.950391 
L 484.384192 163.273553 
L 485.725061 455.556494 
L 487.080616 455.556494 
L 488.525237 439.318553 
L 489.940878 455.556494 
L 491.29556 370.307303 
L 492.641744 406.842671 
L 493.979783 374.366788 
L 495.453684 435.259068 
L 496.870776 402.783185 
L 498.218618 419.021126 
L 499.577393 455.556494 
L 500.980271 321.593479 
L 502.335733 406.842671 
L 503.743877 423.080612 
L 505.119981 455.556494 
L 506.542511 455.556494 
L 507.889049 382.485759 
L 509.25294 321.593479 
L 510.589306 410.902156 
L 512.007186 406.842671 
L 513.450269 236.344288 
L 514.797809 256.641715 
L 516.158491 386.545244 
L 517.868314 455.556494 
L 519.551862 378.426274 
L 521.100162 406.842671 
L 524.173656 65.845906 
L 525.574686 350.009876 
L 526.973579 455.556494 
L 528.341615 329.71245 
L 529.787687 419.021126 
L 531.274522 455.556494 
L 532.666451 455.556494 
L 534.038185 390.604729 
L 535.760497 455.556494 
L 537.360211 350.009876 
L 538.779267 329.71245 
L 540.140332 366.247818 
L 541.508278 345.950391 
L 542.884105 439.318553 
L 544.366282 333.771935 
L 545.781943 455.556494 
L 547.162316 455.556494 
L 548.525051 427.140097 
L 549.954779 374.366788 
L 551.337855 455.556494 
L 607.548104 455.556494 
L 607.548104 455.556494 
" style="fill:none;stroke:#1b9e77;stroke-linecap:round;"/>
   </g>
   <g id="line2d_86">
    <path clip-path="url(#p7746065e0f)" d="M 122.16671 455.556494 
L 154.276703 455.556494 
L 155.680968 398.7237 
L 157.033377 455.556494 
L 193.220174 455.556494 
L 194.56699 455.293727 
L 195.930457 455.556494 
L 247.049829 455.556494 
L 248.398471 439.318553 
L 249.744028 455.556494 
L 308.926401 455.556494 
L 310.269568 427.140097 
L 311.612133 455.556494 
L 396.049547 455.556494 
L 397.394305 431.199582 
L 398.800688 455.556494 
L 602.773713 455.556494 
L 602.773713 455.556494 
" style="fill:none;stroke:#d95f02;stroke-dasharray:3.7,1.6;stroke-dashoffset:0;"/>
   </g>
   <g id="line2d_87">
    <path clip-path="url(#p7746065e0f)" d="M 122.144807 455.556494 
L 163.755573 455.556494 
L 165.098129 439.318553 
L 166.43741 455.556494 
L 605.110997 455.556494 
L 605.110997 455.556494 
" style="fill:none;stroke:#7570b3;stroke-dasharray:2,4;stroke-dashoffset:0;"/>
   </g>
   <g id="line2d_88">
    <path clip-path="url(#p7746065e0f)" d="M 122.372945 455.556494 
L 206.68207 455.556494 
L 208.196159 435.259068 
L 209.634371 455.556494 
L 287.11145 455.556494 
L 288.453044 435.259068 
L 289.819932 455.556494 
L 296.672559 455.556494 
L 298.012325 435.259068 
L 299.376142 455.556494 
L 602.671869 455.556494 
L 602.671869 455.556494 
" style="fill:none;stroke:#e7298a;stroke-dasharray:8,4,2,4;stroke-dashoffset:0;"/>
   </g>
   <g id="line2d_89">
    <path clip-path="url(#p7746065e0f)" d="M 122.13 455.556494 
L 182.642886 455.556494 
L 184.029653 439.318553 
L 185.456859 455.556494 
L 203.120674 455.556494 
L 204.662165 394.664215 
L 206.101746 455.556494 
L 210.256088 455.556494 
L 211.598688 394.664215 
L 212.971604 406.842671 
L 214.31175 382.485759 
L 215.658755 455.556494 
L 221.161058 455.556494 
L 222.898447 394.664215 
L 224.319754 455.556494 
L 255.268825 455.556494 
L 256.621567 341.890906 
L 257.972446 455.556494 
L 286.89796 455.556494 
L 288.455982 423.080612 
L 289.799056 455.556494 
L 332.082422 455.556494 
L 333.429092 447.437524 
L 334.782095 455.556494 
L 378.530744 455.556494 
L 379.888034 358.128847 
L 381.235476 455.556494 
L 411.233805 455.556494 
L 412.604756 423.080612 
L 413.946001 455.556494 
L 415.284991 455.556494 
L 416.626659 313.474509 
L 417.961746 455.556494 
L 426.246743 455.556494 
L 427.588874 366.247818 
L 428.925432 455.556494 
L 437.124464 455.556494 
L 438.517067 341.890906 
L 439.999495 370.307303 
L 441.402368 455.556494 
L 475.268759 455.556494 
L 476.60658 419.021126 
L 478.03452 455.556494 
L 479.432939 423.080612 
L 480.795244 455.556494 
L 528.602588 455.556494 
L 529.96228 435.259068 
L 531.31609 455.556494 
L 538.163791 455.556494 
L 539.505885 374.366788 
L 540.84385 455.556494 
L 599.96539 455.556494 
L 599.96539 455.556494 
" style="fill:none;stroke:#66a61e;stroke-linecap:round;"/>
    <defs>
     <path d="M 0 3 
C 0.795609 3 1.55874 2.683901 2.12132 2.12132 
C 2.683901 1.55874 3 0.795609 3 0 
C 3 -0.795609 2.683901 -1.55874 2.12132 -2.12132 
C 1.55874 -2.683901 0.795609 -3 0 -3 
C -0.795609 -3 -1.55874 -2.683901 -2.12132 -2.12132 
C -2.683901 -1.55874 -3 -0.795609 -3 0 
C -3 0.795609 -2.683901 1.55874 -2.12132 2.12132 
C -1.55874 2.683901 -0.795609 3 0 3 
z
" id="mc6098f5454" style="stroke:#66a61e;"/>
    </defs>
    <g clip-path="url(#p7746065e0f)">
     <use style="fill:#66a61e;stroke:#66a61e;" x="122.13" xlink:href="#mc6098f5454" y="455.556494"/>
     <use style="fill:#66a61e;stroke:#66a61e;" x="135.51164" xlink:href="#mc6098f5454" y="455.556494"/>
     <use style="fill:#66a61e;stroke:#66a61e;" x="148.89798" xlink:href="#mc6098f5454" y="455.556494"/>
     <use style="fill:#66a61e;stroke:#66a61e;" x="162.669772" xlink:href="#mc6098f5454" y="455.556494"/>
     <use style="fill:#66a61e;stroke:#66a61e;" x="176.705177" xlink:href="#mc6098f5454" y="455.556494"/>
     <use style="fill:#66a61e;stroke:#66a61e;" x="190.841995" xlink:href="#mc6098f5454" y="455.556494"/>
     <use style="fill:#66a61e;stroke:#66a61e;" x="204.662165" xlink:href="#mc6098f5454" y="394.664215"/>
     <use style="fill:#66a61e;stroke:#66a61e;" x="218.422429" xlink:href="#mc6098f5454" y="455.556494"/>
     <use style="fill:#66a61e;stroke:#66a61e;" x="232.614075" xlink:href="#mc6098f5454" y="455.556494"/>
     <use style="fill:#66a61e;stroke:#66a61e;" x="246.980396" xlink:href="#mc6098f5454" y="455.556494"/>
     <use style="fill:#66a61e;stroke:#66a61e;" x="260.85598" xlink:href="#mc6098f5454" y="455.556494"/>
     <use style="fill:#66a61e;stroke:#66a61e;" x="274.623991" xlink:href="#mc6098f5454" y="455.556494"/>
     <use style="fill:#66a61e;stroke:#66a61e;" x="288.455982" xlink:href="#mc6098f5454" y="423.080612"/>
     <use style="fill:#66a61e;stroke:#66a61e;" x="302.06783" xlink:href="#mc6098f5454" y="455.556494"/>
     <use style="fill:#66a61e;stroke:#66a61e;" x="315.649166" xlink:href="#mc6098f5454" y="455.556494"/>
     <use style="fill:#66a61e;stroke:#66a61e;" x="329.397841" xlink:href="#mc6098f5454" y="455.556494"/>
     <use style="fill:#66a61e;stroke:#66a61e;" x="342.922126" xlink:href="#mc6098f5454" y="455.556494"/>
     <use style="fill:#66a61e;stroke:#66a61e;" x="356.704306" xlink:href="#mc6098f5454" y="455.556494"/>
     <use style="fill:#66a61e;stroke:#66a61e;" x="370.253521" xlink:href="#mc6098f5454" y="455.556494"/>
     <use style="fill:#66a61e;stroke:#66a61e;" x="383.923205" xlink:href="#mc6098f5454" y="455.556494"/>
     <use style="fill:#66a61e;stroke:#66a61e;" x="397.438889" xlink:href="#mc6098f5454" y="455.556494"/>
     <use style="fill:#66a61e;stroke:#66a61e;" x="411.233805" xlink:href="#mc6098f5454" y="455.556494"/>
     <use style="fill:#66a61e;stroke:#66a61e;" x="424.893328" xlink:href="#mc6098f5454" y="455.556494"/>
     <use style="fill:#66a61e;stroke:#66a61e;" x="438.517067" xlink:href="#mc6098f5454" y="341.890906"/>
     <use style="fill:#66a61e;stroke:#66a61e;" x="452.238314" xlink:href="#mc6098f5454" y="455.556494"/>
     <use style="fill:#66a61e;stroke:#66a61e;" x="465.741209" xlink:href="#mc6098f5454" y="455.556494"/>
     <use style="fill:#66a61e;stroke:#66a61e;" x="479.432939" xlink:href="#mc6098f5454" y="423.080612"/>
     <use style="fill:#66a61e;stroke:#66a61e;" x="493.092023" xlink:href="#mc6098f5454" y="455.556494"/>
     <use style="fill:#66a61e;stroke:#66a61e;" x="506.565071" xlink:href="#mc6098f5454" y="455.556494"/>
     <use style="fill:#66a61e;stroke:#66a61e;" x="520.473605" xlink:href="#mc6098f5454" y="455.556494"/>
     <use style="fill:#66a61e;stroke:#66a61e;" x="534.047693" xlink:href="#mc6098f5454" y="455.556494"/>
     <use style="fill:#66a61e;stroke:#66a61e;" x="547.744543" xlink:href="#mc6098f5454" y="455.556494"/>
     <use style="fill:#66a61e;stroke:#66a61e;" x="561.194033" xlink:href="#mc6098f5454" y="455.556494"/>
     <use style="fill:#66a61e;stroke:#66a61e;" x="574.561774" xlink:href="#mc6098f5454" y="455.556494"/>
     <use style="fill:#66a61e;stroke:#66a61e;" x="587.935009" xlink:href="#mc6098f5454" y="455.556494"/>
    </g>
   </g>
   <g id="patch_3">
    <path d="M 122.13 459.4536 
L 122.13 61.9488 
" style="fill:none;"/>
   </g>
   <g id="patch_4">
    <path d="M 631.818 459.4536 
L 631.818 61.9488 
" style="fill:none;"/>
   </g>
   <g id="patch_5">
    <path d="M 122.13 459.4536 
L 631.818 459.4536 
" style="fill:none;"/>
   </g>
   <g id="patch_6">
    <path d="M 122.13 61.9488 
L 631.818 61.9488 
" style="fill:none;"/>
   </g>
   <g id="legend_1">
    <g id="line2d_90">
     <path d="M 645.34376 68.694798 
L 662.00376 68.694798 
" style="fill:none;stroke:#1b9e77;stroke-linecap:round;"/>
    </g>
    <g id="line2d_91"/>
    <g id="text_18">
     <!-- Backlog (bytes) - - localhost (ens33) - BBRn-fq -->
     <g transform="translate(668.66776 71.610298)scale(0.0833 -0.0833)">
      <defs>
       <path d="M 34.28125 27.484375 
Q 23.390625 27.484375 19.1875 25 
Q 14.984375 22.515625 14.984375 16.5 
Q 14.984375 11.71875 18.140625 8.90625 
Q 21.296875 6.109375 26.703125 6.109375 
Q 34.1875 6.109375 38.703125 11.40625 
Q 43.21875 16.703125 43.21875 25.484375 
L 43.21875 27.484375 
z
M 52.203125 31.203125 
L 52.203125 0 
L 43.21875 0 
L 43.21875 8.296875 
Q 40.140625 3.328125 35.546875 0.953125 
Q 30.953125 -1.421875 24.3125 -1.421875 
Q 15.921875 -1.421875 10.953125 3.296875 
Q 6 8.015625 6 15.921875 
Q 6 25.140625 12.171875 29.828125 
Q 18.359375 34.515625 30.609375 34.515625 
L 43.21875 34.515625 
L 43.21875 35.40625 
Q 43.21875 41.609375 39.140625 45 
Q 35.0625 48.390625 27.6875 48.390625 
Q 23 48.390625 18.546875 47.265625 
Q 14.109375 46.140625 10.015625 43.890625 
L 10.015625 52.203125 
Q 14.9375 54.109375 19.578125 55.046875 
Q 24.21875 56 28.609375 56 
Q 40.484375 56 46.34375 49.84375 
Q 52.203125 43.703125 52.203125 31.203125 
z
" id="DejaVuSans-97"/>
       <path d="M 48.78125 52.59375 
L 48.78125 44.1875 
Q 44.96875 46.296875 41.140625 47.34375 
Q 37.3125 48.390625 33.40625 48.390625 
Q 24.65625 48.390625 19.8125 42.84375 
Q 14.984375 37.3125 14.984375 27.296875 
Q 14.984375 17.28125 19.8125 11.734375 
Q 24.65625 6.203125 33.40625 6.203125 
Q 37.3125 6.203125 41.140625 7.25 
Q 44.96875 8.296875 48.78125 10.40625 
L 48.78125 2.09375 
Q 45.015625 0.34375 40.984375 -0.53125 
Q 36.96875 -1.421875 32.421875 -1.421875 
Q 20.0625 -1.421875 12.78125 6.34375 
Q 5.515625 14.109375 5.515625 27.296875 
Q 5.515625 40.671875 12.859375 48.328125 
Q 20.21875 56 33.015625 56 
Q 37.15625 56 41.109375 55.140625 
Q 45.0625 54.296875 48.78125 52.59375 
z
" id="DejaVuSans-99"/>
       <path d="M 9.078125 75.984375 
L 18.109375 75.984375 
L 18.109375 31.109375 
L 44.921875 54.6875 
L 56.390625 54.6875 
L 27.390625 29.109375 
L 57.625 0 
L 45.90625 0 
L 18.109375 26.703125 
L 18.109375 0 
L 9.078125 0 
z
" id="DejaVuSans-107"/>
       <path d="M 9.421875 75.984375 
L 18.40625 75.984375 
L 18.40625 0 
L 9.421875 0 
z
" id="DejaVuSans-108"/>
       <path d="M 30.609375 48.390625 
Q 23.390625 48.390625 19.1875 42.75 
Q 14.984375 37.109375 14.984375 27.296875 
Q 14.984375 17.484375 19.15625 11.84375 
Q 23.34375 6.203125 30.609375 6.203125 
Q 37.796875 6.203125 41.984375 11.859375 
Q 46.1875 17.53125 46.1875 27.296875 
Q 46.1875 37.015625 41.984375 42.703125 
Q 37.796875 48.390625 30.609375 48.390625 
z
M 30.609375 56 
Q 42.328125 56 49.015625 48.375 
Q 55.71875 40.765625 55.71875 27.296875 
Q 55.71875 13.875 49.015625 6.21875 
Q 42.328125 -1.421875 30.609375 -1.421875 
Q 18.84375 -1.421875 12.171875 6.21875 
Q 5.515625 13.875 5.515625 27.296875 
Q 5.515625 40.765625 12.171875 48.375 
Q 18.84375 56 30.609375 56 
z
" id="DejaVuSans-111"/>
       <path d="M 45.40625 27.984375 
Q 45.40625 37.75 41.375 43.109375 
Q 37.359375 48.484375 30.078125 48.484375 
Q 22.859375 48.484375 18.828125 43.109375 
Q 14.796875 37.75 14.796875 27.984375 
Q 14.796875 18.265625 18.828125 12.890625 
Q 22.859375 7.515625 30.078125 7.515625 
Q 37.359375 7.515625 41.375 12.890625 
Q 45.40625 18.265625 45.40625 27.984375 
z
M 54.390625 6.78125 
Q 54.390625 -7.171875 48.1875 -13.984375 
Q 42 -20.796875 29.203125 -20.796875 
Q 24.46875 -20.796875 20.265625 -20.09375 
Q 16.0625 -19.390625 12.109375 -17.921875 
L 12.109375 -9.1875 
Q 16.0625 -11.328125 19.921875 -12.34375 
Q 23.78125 -13.375 27.78125 -13.375 
Q 36.625 -13.375 41.015625 -8.765625 
Q 45.40625 -4.15625 45.40625 5.171875 
L 45.40625 9.625 
Q 42.625 4.78125 38.28125 2.390625 
Q 33.9375 0 27.875 0 
Q 17.828125 0 11.671875 7.65625 
Q 5.515625 15.328125 5.515625 27.984375 
Q 5.515625 40.671875 11.671875 48.328125 
Q 17.828125 56 27.875 56 
Q 33.9375 56 38.28125 53.609375 
Q 42.625 51.21875 45.40625 46.390625 
L 45.40625 54.6875 
L 54.390625 54.6875 
z
" id="DejaVuSans-103"/>
       <path d="M 48.6875 27.296875 
Q 48.6875 37.203125 44.609375 42.84375 
Q 40.53125 48.484375 33.40625 48.484375 
Q 26.265625 48.484375 22.1875 42.84375 
Q 18.109375 37.203125 18.109375 27.296875 
Q 18.109375 17.390625 22.1875 11.75 
Q 26.265625 6.109375 33.40625 6.109375 
Q 40.53125 6.109375 44.609375 11.75 
Q 48.6875 17.390625 48.6875 27.296875 
z
M 18.109375 46.390625 
Q 20.953125 51.265625 25.265625 53.625 
Q 29.59375 56 35.59375 56 
Q 45.5625 56 51.78125 48.09375 
Q 58.015625 40.1875 58.015625 27.296875 
Q 58.015625 14.40625 51.78125 6.484375 
Q 45.5625 -1.421875 35.59375 -1.421875 
Q 29.59375 -1.421875 25.265625 0.953125 
Q 20.953125 3.328125 18.109375 8.203125 
L 18.109375 0 
L 9.078125 0 
L 9.078125 75.984375 
L 18.109375 75.984375 
z
" id="DejaVuSans-98"/>
       <path d="M 4.890625 31.390625 
L 31.203125 31.390625 
L 31.203125 23.390625 
L 4.890625 23.390625 
z
" id="DejaVuSans-45"/>
       <path d="M 54.890625 33.015625 
L 54.890625 0 
L 45.90625 0 
L 45.90625 32.71875 
Q 45.90625 40.484375 42.875 44.328125 
Q 39.84375 48.1875 33.796875 48.1875 
Q 26.515625 48.1875 22.3125 43.546875 
Q 18.109375 38.921875 18.109375 30.90625 
L 18.109375 0 
L 9.078125 0 
L 9.078125 75.984375 
L 18.109375 75.984375 
L 18.109375 46.1875 
Q 21.34375 51.125 25.703125 53.5625 
Q 30.078125 56 35.796875 56 
Q 45.21875 56 50.046875 50.171875 
Q 54.890625 44.34375 54.890625 33.015625 
z
" id="DejaVuSans-104"/>
       <path d="M 54.890625 33.015625 
L 54.890625 0 
L 45.90625 0 
L 45.90625 32.71875 
Q 45.90625 40.484375 42.875 44.328125 
Q 39.84375 48.1875 33.796875 48.1875 
Q 26.515625 48.1875 22.3125 43.546875 
Q 18.109375 38.921875 18.109375 30.90625 
L 18.109375 0 
L 9.078125 0 
L 9.078125 54.6875 
L 18.109375 54.6875 
L 18.109375 46.1875 
Q 21.34375 51.125 25.703125 53.5625 
Q 30.078125 56 35.796875 56 
Q 45.21875 56 50.046875 50.171875 
Q 54.890625 44.34375 54.890625 33.015625 
z
" id="DejaVuSans-110"/>
       <path d="M 44.390625 34.1875 
Q 47.5625 33.109375 50.5625 29.59375 
Q 53.5625 26.078125 56.59375 19.921875 
L 66.609375 0 
L 56 0 
L 46.6875 18.703125 
Q 43.0625 26.03125 39.671875 28.421875 
Q 36.28125 30.8125 30.421875 30.8125 
L 19.671875 30.8125 
L 19.671875 0 
L 9.8125 0 
L 9.8125 72.90625 
L 32.078125 72.90625 
Q 44.578125 72.90625 50.734375 67.671875 
Q 56.890625 62.453125 56.890625 51.90625 
Q 56.890625 45.015625 53.6875 40.46875 
Q 50.484375 35.9375 44.390625 34.1875 
z
M 19.671875 64.796875 
L 19.671875 38.921875 
L 32.078125 38.921875 
Q 39.203125 38.921875 42.84375 42.21875 
Q 46.484375 45.515625 46.484375 51.90625 
Q 46.484375 58.296875 42.84375 61.546875 
Q 39.203125 64.796875 32.078125 64.796875 
z
" id="DejaVuSans-82"/>
       <path d="M 37.109375 75.984375 
L 37.109375 68.5 
L 28.515625 68.5 
Q 23.6875 68.5 21.796875 66.546875 
Q 19.921875 64.59375 19.921875 59.515625 
L 19.921875 54.6875 
L 34.71875 54.6875 
L 34.71875 47.703125 
L 19.921875 47.703125 
L 19.921875 0 
L 10.890625 0 
L 10.890625 47.703125 
L 2.296875 47.703125 
L 2.296875 54.6875 
L 10.890625 54.6875 
L 10.890625 58.5 
Q 10.890625 67.625 15.140625 71.796875 
Q 19.390625 75.984375 28.609375 75.984375 
z
" id="DejaVuSans-102"/>
       <path d="M 14.796875 27.296875 
Q 14.796875 17.390625 18.875 11.75 
Q 22.953125 6.109375 30.078125 6.109375 
Q 37.203125 6.109375 41.296875 11.75 
Q 45.40625 17.390625 45.40625 27.296875 
Q 45.40625 37.203125 41.296875 42.84375 
Q 37.203125 48.484375 30.078125 48.484375 
Q 22.953125 48.484375 18.875 42.84375 
Q 14.796875 37.203125 14.796875 27.296875 
z
M 45.40625 8.203125 
Q 42.578125 3.328125 38.25 0.953125 
Q 33.9375 -1.421875 27.875 -1.421875 
Q 17.96875 -1.421875 11.734375 6.484375 
Q 5.515625 14.40625 5.515625 27.296875 
Q 5.515625 40.1875 11.734375 48.09375 
Q 17.96875 56 27.875 56 
Q 33.9375 56 38.25 53.625 
Q 42.578125 51.265625 45.40625 46.390625 
L 45.40625 54.6875 
L 54.390625 54.6875 
L 54.390625 -20.796875 
L 45.40625 -20.796875 
z
" id="DejaVuSans-113"/>
      </defs>
      <use xlink:href="#DejaVuSans-66"/>
      <use x="68.603516" xlink:href="#DejaVuSans-97"/>
      <use x="129.882812" xlink:href="#DejaVuSans-99"/>
      <use x="184.863281" xlink:href="#DejaVuSans-107"/>
      <use x="242.773438" xlink:href="#DejaVuSans-108"/>
      <use x="270.556641" xlink:href="#DejaVuSans-111"/>
      <use x="331.738281" xlink:href="#DejaVuSans-103"/>
      <use x="395.214844" xlink:href="#DejaVuSans-32"/>
      <use x="427.001953" xlink:href="#DejaVuSans-40"/>
      <use x="466.015625" xlink:href="#DejaVuSans-98"/>
      <use x="529.492188" xlink:href="#DejaVuSans-121"/>
      <use x="588.671875" xlink:href="#DejaVuSans-116"/>
      <use x="627.880859" xlink:href="#DejaVuSans-101"/>
      <use x="689.404297" xlink:href="#DejaVuSans-115"/>
      <use x="741.503906" xlink:href="#DejaVuSans-41"/>
      <use x="780.517578" xlink:href="#DejaVuSans-32"/>
      <use x="812.304688" xlink:href="#DejaVuSans-45"/>
      <use x="848.388672" xlink:href="#DejaVuSans-45"/>
      <use x="884.472656" xlink:href="#DejaVuSans-32"/>
      <use x="916.259766" xlink:href="#DejaVuSans-108"/>
      <use x="944.042969" xlink:href="#DejaVuSans-111"/>
      <use x="1005.224609" xlink:href="#DejaVuSans-99"/>
      <use x="1060.205078" xlink:href="#DejaVuSans-97"/>
      <use x="1121.484375" xlink:href="#DejaVuSans-108"/>
      <use x="1149.267578" xlink:href="#DejaVuSans-104"/>
      <use x="1212.646484" xlink:href="#DejaVuSans-111"/>
      <use x="1273.828125" xlink:href="#DejaVuSans-115"/>
      <use x="1325.927734" xlink:href="#DejaVuSans-116"/>
      <use x="1365.136719" xlink:href="#DejaVuSans-32"/>
      <use x="1396.923828" xlink:href="#DejaVuSans-40"/>
      <use x="1435.9375" xlink:href="#DejaVuSans-101"/>
      <use x="1497.460938" xlink:href="#DejaVuSans-110"/>
      <use x="1560.839844" xlink:href="#DejaVuSans-115"/>
      <use x="1612.939453" xlink:href="#DejaVuSans-51"/>
      <use x="1676.5625" xlink:href="#DejaVuSans-51"/>
      <use x="1740.185547" xlink:href="#DejaVuSans-41"/>
      <use x="1779.199219" xlink:href="#DejaVuSans-32"/>
      <use x="1810.986328" xlink:href="#DejaVuSans-45"/>
      <use x="1847.070312" xlink:href="#DejaVuSans-32"/>
      <use x="1878.857422" xlink:href="#DejaVuSans-66"/>
      <use x="1947.460938" xlink:href="#DejaVuSans-66"/>
      <use x="2016.064453" xlink:href="#DejaVuSans-82"/>
      <use x="2085.546875" xlink:href="#DejaVuSans-110"/>
      <use x="2148.925781" xlink:href="#DejaVuSans-45"/>
      <use x="2185.009766" xlink:href="#DejaVuSans-102"/>
      <use x="2220.214844" xlink:href="#DejaVuSans-113"/>
     </g>
    </g>
    <g id="line2d_92">
     <path d="M 645.34376 80.921677 
L 662.00376 80.921677 
" style="fill:none;stroke:#d95f02;stroke-dasharray:3.7,1.6;stroke-dashoffset:0;"/>
    </g>
    <g id="line2d_93"/>
    <g id="text_19">
     <!-- Backlog (bytes) - - localhost (ens33) - BBRn-fq_codel -->
     <g transform="translate(668.66776 83.837177)scale(0.0833 -0.0833)">
      <defs>
       <path d="M 50.984375 -16.609375 
L 50.984375 -23.578125 
L -0.984375 -23.578125 
L -0.984375 -16.609375 
z
" id="DejaVuSans-95"/>
       <path d="M 45.40625 46.390625 
L 45.40625 75.984375 
L 54.390625 75.984375 
L 54.390625 0 
L 45.40625 0 
L 45.40625 8.203125 
Q 42.578125 3.328125 38.25 0.953125 
Q 33.9375 -1.421875 27.875 -1.421875 
Q 17.96875 -1.421875 11.734375 6.484375 
Q 5.515625 14.40625 5.515625 27.296875 
Q 5.515625 40.1875 11.734375 48.09375 
Q 17.96875 56 27.875 56 
Q 33.9375 56 38.25 53.625 
Q 42.578125 51.265625 45.40625 46.390625 
z
M 14.796875 27.296875 
Q 14.796875 17.390625 18.875 11.75 
Q 22.953125 6.109375 30.078125 6.109375 
Q 37.203125 6.109375 41.296875 11.75 
Q 45.40625 17.390625 45.40625 27.296875 
Q 45.40625 37.203125 41.296875 42.84375 
Q 37.203125 48.484375 30.078125 48.484375 
Q 22.953125 48.484375 18.875 42.84375 
Q 14.796875 37.203125 14.796875 27.296875 
z
" id="DejaVuSans-100"/>
      </defs>
      <use xlink:href="#DejaVuSans-66"/>
      <use x="68.603516" xlink:href="#DejaVuSans-97"/>
      <use x="129.882812" xlink:href="#DejaVuSans-99"/>
      <use x="184.863281" xlink:href="#DejaVuSans-107"/>
      <use x="242.773438" xlink:href="#DejaVuSans-108"/>
      <use x="270.556641" xlink:href="#DejaVuSans-111"/>
      <use x="331.738281" xlink:href="#DejaVuSans-103"/>
      <use x="395.214844" xlink:href="#DejaVuSans-32"/>
      <use x="427.001953" xlink:href="#DejaVuSans-40"/>
      <use x="466.015625" xlink:href="#DejaVuSans-98"/>
      <use x="529.492188" xlink:href="#DejaVuSans-121"/>
      <use x="588.671875" xlink:href="#DejaVuSans-116"/>
      <use x="627.880859" xlink:href="#DejaVuSans-101"/>
      <use x="689.404297" xlink:href="#DejaVuSans-115"/>
      <use x="741.503906" xlink:href="#DejaVuSans-41"/>
      <use x="780.517578" xlink:href="#DejaVuSans-32"/>
      <use x="812.304688" xlink:href="#DejaVuSans-45"/>
      <use x="848.388672" xlink:href="#DejaVuSans-45"/>
      <use x="884.472656" xlink:href="#DejaVuSans-32"/>
      <use x="916.259766" xlink:href="#DejaVuSans-108"/>
      <use x="944.042969" xlink:href="#DejaVuSans-111"/>
      <use x="1005.224609" xlink:href="#DejaVuSans-99"/>
      <use x="1060.205078" xlink:href="#DejaVuSans-97"/>
      <use x="1121.484375" xlink:href="#DejaVuSans-108"/>
      <use x="1149.267578" xlink:href="#DejaVuSans-104"/>
      <use x="1212.646484" xlink:href="#DejaVuSans-111"/>
      <use x="1273.828125" xlink:href="#DejaVuSans-115"/>
      <use x="1325.927734" xlink:href="#DejaVuSans-116"/>
      <use x="1365.136719" xlink:href="#DejaVuSans-32"/>
      <use x="1396.923828" xlink:href="#DejaVuSans-40"/>
      <use x="1435.9375" xlink:href="#DejaVuSans-101"/>
      <use x="1497.460938" xlink:href="#DejaVuSans-110"/>
      <use x="1560.839844" xlink:href="#DejaVuSans-115"/>
      <use x="1612.939453" xlink:href="#DejaVuSans-51"/>
      <use x="1676.5625" xlink:href="#DejaVuSans-51"/>
      <use x="1740.185547" xlink:href="#DejaVuSans-41"/>
      <use x="1779.199219" xlink:href="#DejaVuSans-32"/>
      <use x="1810.986328" xlink:href="#DejaVuSans-45"/>
      <use x="1847.070312" xlink:href="#DejaVuSans-32"/>
      <use x="1878.857422" xlink:href="#DejaVuSans-66"/>
      <use x="1947.460938" xlink:href="#DejaVuSans-66"/>
      <use x="2016.064453" xlink:href="#DejaVuSans-82"/>
      <use x="2085.546875" xlink:href="#DejaVuSans-110"/>
      <use x="2148.925781" xlink:href="#DejaVuSans-45"/>
      <use x="2185.009766" xlink:href="#DejaVuSans-102"/>
      <use x="2220.214844" xlink:href="#DejaVuSans-113"/>
      <use x="2283.691406" xlink:href="#DejaVuSans-95"/>
      <use x="2333.691406" xlink:href="#DejaVuSans-99"/>
      <use x="2388.671875" xlink:href="#DejaVuSans-111"/>
      <use x="2449.853516" xlink:href="#DejaVuSans-100"/>
      <use x="2513.330078" xlink:href="#DejaVuSans-101"/>
      <use x="2574.853516" xlink:href="#DejaVuSans-108"/>
     </g>
    </g>
    <g id="line2d_94">
     <path d="M 645.34376 93.380233 
L 662.00376 93.380233 
" style="fill:none;stroke:#7570b3;stroke-dasharray:2,4;stroke-dashoffset:0;"/>
    </g>
    <g id="line2d_95"/>
    <g id="text_20">
     <!-- Backlog (bytes) - - localhost (ens33) - BBRn-pie -->
     <g transform="translate(668.66776 96.295733)scale(0.0833 -0.0833)">
      <defs>
       <path d="M 18.109375 8.203125 
L 18.109375 -20.796875 
L 9.078125 -20.796875 
L 9.078125 54.6875 
L 18.109375 54.6875 
L 18.109375 46.390625 
Q 20.953125 51.265625 25.265625 53.625 
Q 29.59375 56 35.59375 56 
Q 45.5625 56 51.78125 48.09375 
Q 58.015625 40.1875 58.015625 27.296875 
Q 58.015625 14.40625 51.78125 6.484375 
Q 45.5625 -1.421875 35.59375 -1.421875 
Q 29.59375 -1.421875 25.265625 0.953125 
Q 20.953125 3.328125 18.109375 8.203125 
z
M 48.6875 27.296875 
Q 48.6875 37.203125 44.609375 42.84375 
Q 40.53125 48.484375 33.40625 48.484375 
Q 26.265625 48.484375 22.1875 42.84375 
Q 18.109375 37.203125 18.109375 27.296875 
Q 18.109375 17.390625 22.1875 11.75 
Q 26.265625 6.109375 33.40625 6.109375 
Q 40.53125 6.109375 44.609375 11.75 
Q 48.6875 17.390625 48.6875 27.296875 
z
" id="DejaVuSans-112"/>
      </defs>
      <use xlink:href="#DejaVuSans-66"/>
      <use x="68.603516" xlink:href="#DejaVuSans-97"/>
      <use x="129.882812" xlink:href="#DejaVuSans-99"/>
      <use x="184.863281" xlink:href="#DejaVuSans-107"/>
      <use x="242.773438" xlink:href="#DejaVuSans-108"/>
      <use x="270.556641" xlink:href="#DejaVuSans-111"/>
      <use x="331.738281" xlink:href="#DejaVuSans-103"/>
      <use x="395.214844" xlink:href="#DejaVuSans-32"/>
      <use x="427.001953" xlink:href="#DejaVuSans-40"/>
      <use x="466.015625" xlink:href="#DejaVuSans-98"/>
      <use x="529.492188" xlink:href="#DejaVuSans-121"/>
      <use x="588.671875" xlink:href="#DejaVuSans-116"/>
      <use x="627.880859" xlink:href="#DejaVuSans-101"/>
      <use x="689.404297" xlink:href="#DejaVuSans-115"/>
      <use x="741.503906" xlink:href="#DejaVuSans-41"/>
      <use x="780.517578" xlink:href="#DejaVuSans-32"/>
      <use x="812.304688" xlink:href="#DejaVuSans-45"/>
      <use x="848.388672" xlink:href="#DejaVuSans-45"/>
      <use x="884.472656" xlink:href="#DejaVuSans-32"/>
      <use x="916.259766" xlink:href="#DejaVuSans-108"/>
      <use x="944.042969" xlink:href="#DejaVuSans-111"/>
      <use x="1005.224609" xlink:href="#DejaVuSans-99"/>
      <use x="1060.205078" xlink:href="#DejaVuSans-97"/>
      <use x="1121.484375" xlink:href="#DejaVuSans-108"/>
      <use x="1149.267578" xlink:href="#DejaVuSans-104"/>
      <use x="1212.646484" xlink:href="#DejaVuSans-111"/>
      <use x="1273.828125" xlink:href="#DejaVuSans-115"/>
      <use x="1325.927734" xlink:href="#DejaVuSans-116"/>
      <use x="1365.136719" xlink:href="#DejaVuSans-32"/>
      <use x="1396.923828" xlink:href="#DejaVuSans-40"/>
      <use x="1435.9375" xlink:href="#DejaVuSans-101"/>
      <use x="1497.460938" xlink:href="#DejaVuSans-110"/>
      <use x="1560.839844" xlink:href="#DejaVuSans-115"/>
      <use x="1612.939453" xlink:href="#DejaVuSans-51"/>
      <use x="1676.5625" xlink:href="#DejaVuSans-51"/>
      <use x="1740.185547" xlink:href="#DejaVuSans-41"/>
      <use x="1779.199219" xlink:href="#DejaVuSans-32"/>
      <use x="1810.986328" xlink:href="#DejaVuSans-45"/>
      <use x="1847.070312" xlink:href="#DejaVuSans-32"/>
      <use x="1878.857422" xlink:href="#DejaVuSans-66"/>
      <use x="1947.460938" xlink:href="#DejaVuSans-66"/>
      <use x="2016.064453" xlink:href="#DejaVuSans-82"/>
      <use x="2085.546875" xlink:href="#DejaVuSans-110"/>
      <use x="2148.925781" xlink:href="#DejaVuSans-45"/>
      <use x="2185.009766" xlink:href="#DejaVuSans-112"/>
      <use x="2248.486328" xlink:href="#DejaVuSans-105"/>
      <use x="2276.269531" xlink:href="#DejaVuSans-101"/>
     </g>
    </g>
    <g id="line2d_96">
     <path d="M 645.34376 105.607111 
L 662.00376 105.607111 
" style="fill:none;stroke:#e7298a;stroke-dasharray:8,4,2,4;stroke-dashoffset:0;"/>
    </g>
    <g id="line2d_97"/>
    <g id="text_21">
     <!-- Backlog (bytes) - - localhost (ens33) - BBRn-codel -->
     <g transform="translate(668.66776 108.522611)scale(0.0833 -0.0833)">
      <use xlink:href="#DejaVuSans-66"/>
      <use x="68.603516" xlink:href="#DejaVuSans-97"/>
      <use x="129.882812" xlink:href="#DejaVuSans-99"/>
      <use x="184.863281" xlink:href="#DejaVuSans-107"/>
      <use x="242.773438" xlink:href="#DejaVuSans-108"/>
      <use x="270.556641" xlink:href="#DejaVuSans-111"/>
      <use x="331.738281" xlink:href="#DejaVuSans-103"/>
      <use x="395.214844" xlink:href="#DejaVuSans-32"/>
      <use x="427.001953" xlink:href="#DejaVuSans-40"/>
      <use x="466.015625" xlink:href="#DejaVuSans-98"/>
      <use x="529.492188" xlink:href="#DejaVuSans-121"/>
      <use x="588.671875" xlink:href="#DejaVuSans-116"/>
      <use x="627.880859" xlink:href="#DejaVuSans-101"/>
      <use x="689.404297" xlink:href="#DejaVuSans-115"/>
      <use x="741.503906" xlink:href="#DejaVuSans-41"/>
      <use x="780.517578" xlink:href="#DejaVuSans-32"/>
      <use x="812.304688" xlink:href="#DejaVuSans-45"/>
      <use x="848.388672" xlink:href="#DejaVuSans-45"/>
      <use x="884.472656" xlink:href="#DejaVuSans-32"/>
      <use x="916.259766" xlink:href="#DejaVuSans-108"/>
      <use x="944.042969" xlink:href="#DejaVuSans-111"/>
      <use x="1005.224609" xlink:href="#DejaVuSans-99"/>
      <use x="1060.205078" xlink:href="#DejaVuSans-97"/>
      <use x="1121.484375" xlink:href="#DejaVuSans-108"/>
      <use x="1149.267578" xlink:href="#DejaVuSans-104"/>
      <use x="1212.646484" xlink:href="#DejaVuSans-111"/>
      <use x="1273.828125" xlink:href="#DejaVuSans-115"/>
      <use x="1325.927734" xlink:href="#DejaVuSans-116"/>
      <use x="1365.136719" xlink:href="#DejaVuSans-32"/>
      <use x="1396.923828" xlink:href="#DejaVuSans-40"/>
      <use x="1435.9375" xlink:href="#DejaVuSans-101"/>
      <use x="1497.460938" xlink:href="#DejaVuSans-110"/>
      <use x="1560.839844" xlink:href="#DejaVuSans-115"/>
      <use x="1612.939453" xlink:href="#DejaVuSans-51"/>
      <use x="1676.5625" xlink:href="#DejaVuSans-51"/>
      <use x="1740.185547" xlink:href="#DejaVuSans-41"/>
      <use x="1779.199219" xlink:href="#DejaVuSans-32"/>
      <use x="1810.986328" xlink:href="#DejaVuSans-45"/>
      <use x="1847.070312" xlink:href="#DejaVuSans-32"/>
      <use x="1878.857422" xlink:href="#DejaVuSans-66"/>
      <use x="1947.460938" xlink:href="#DejaVuSans-66"/>
      <use x="2016.064453" xlink:href="#DejaVuSans-82"/>
      <use x="2085.546875" xlink:href="#DejaVuSans-110"/>
      <use x="2148.925781" xlink:href="#DejaVuSans-45"/>
      <use x="2185.009766" xlink:href="#DejaVuSans-99"/>
      <use x="2239.990234" xlink:href="#DejaVuSans-111"/>
      <use x="2301.171875" xlink:href="#DejaVuSans-100"/>
      <use x="2364.648438" xlink:href="#DejaVuSans-101"/>
      <use x="2426.171875" xlink:href="#DejaVuSans-108"/>
     </g>
    </g>
    <g id="line2d_98">
     <path d="M 645.34376 117.833989 
L 662.00376 117.833989 
" style="fill:none;stroke:#66a61e;stroke-linecap:round;"/>
    </g>
    <g id="line2d_99">
     <g>
      <use style="fill:#66a61e;stroke:#66a61e;" x="653.67376" xlink:href="#mc6098f5454" y="117.833989"/>
     </g>
    </g>
    <g id="text_22">
     <!-- Backlog (bytes) - - localhost (ens33) - BBRn-cake -->
     <g transform="translate(668.66776 120.749489)scale(0.0833 -0.0833)">
      <use xlink:href="#DejaVuSans-66"/>
      <use x="68.603516" xlink:href="#DejaVuSans-97"/>
      <use x="129.882812" xlink:href="#DejaVuSans-99"/>
      <use x="184.863281" xlink:href="#DejaVuSans-107"/>
      <use x="242.773438" xlink:href="#DejaVuSans-108"/>
      <use x="270.556641" xlink:href="#DejaVuSans-111"/>
      <use x="331.738281" xlink:href="#DejaVuSans-103"/>
      <use x="395.214844" xlink:href="#DejaVuSans-32"/>
      <use x="427.001953" xlink:href="#DejaVuSans-40"/>
      <use x="466.015625" xlink:href="#DejaVuSans-98"/>
      <use x="529.492188" xlink:href="#DejaVuSans-121"/>
      <use x="588.671875" xlink:href="#DejaVuSans-116"/>
      <use x="627.880859" xlink:href="#DejaVuSans-101"/>
      <use x="689.404297" xlink:href="#DejaVuSans-115"/>
      <use x="741.503906" xlink:href="#DejaVuSans-41"/>
      <use x="780.517578" xlink:href="#DejaVuSans-32"/>
      <use x="812.304688" xlink:href="#DejaVuSans-45"/>
      <use x="848.388672" xlink:href="#DejaVuSans-45"/>
      <use x="884.472656" xlink:href="#DejaVuSans-32"/>
      <use x="916.259766" xlink:href="#DejaVuSans-108"/>
      <use x="944.042969" xlink:href="#DejaVuSans-111"/>
      <use x="1005.224609" xlink:href="#DejaVuSans-99"/>
      <use x="1060.205078" xlink:href="#DejaVuSans-97"/>
      <use x="1121.484375" xlink:href="#DejaVuSans-108"/>
      <use x="1149.267578" xlink:href="#DejaVuSans-104"/>
      <use x="1212.646484" xlink:href="#DejaVuSans-111"/>
      <use x="1273.828125" xlink:href="#DejaVuSans-115"/>
      <use x="1325.927734" xlink:href="#DejaVuSans-116"/>
      <use x="1365.136719" xlink:href="#DejaVuSans-32"/>
      <use x="1396.923828" xlink:href="#DejaVuSans-40"/>
      <use x="1435.9375" xlink:href="#DejaVuSans-101"/>
      <use x="1497.460938" xlink:href="#DejaVuSans-110"/>
      <use x="1560.839844" xlink:href="#DejaVuSans-115"/>
      <use x="1612.939453" xlink:href="#DejaVuSans-51"/>
      <use x="1676.5625" xlink:href="#DejaVuSans-51"/>
      <use x="1740.185547" xlink:href="#DejaVuSans-41"/>
      <use x="1779.199219" xlink:href="#DejaVuSans-32"/>
      <use x="1810.986328" xlink:href="#DejaVuSans-45"/>
      <use x="1847.070312" xlink:href="#DejaVuSans-32"/>
      <use x="1878.857422" xlink:href="#DejaVuSans-66"/>
      <use x="1947.460938" xlink:href="#DejaVuSans-66"/>
      <use x="2016.064453" xlink:href="#DejaVuSans-82"/>
      <use x="2085.546875" xlink:href="#DejaVuSans-110"/>
      <use x="2148.925781" xlink:href="#DejaVuSans-45"/>
      <use x="2185.009766" xlink:href="#DejaVuSans-99"/>
      <use x="2239.990234" xlink:href="#DejaVuSans-97"/>
      <use x="2301.269531" xlink:href="#DejaVuSans-107"/>
      <use x="2355.554688" xlink:href="#DejaVuSans-101"/>
     </g>
    </g>
   </g>
  </g>
  <g id="text_23">
   <!-- TCP upload - 8 streams w/ping -->
   <g transform="translate(382.078437 14.939812)scale(0.14 -0.14)">
    <defs>
     <path d="M 64.40625 67.28125 
L 64.40625 56.890625 
Q 59.421875 61.53125 53.78125 63.8125 
Q 48.140625 66.109375 41.796875 66.109375 
Q 29.296875 66.109375 22.65625 58.46875 
Q 16.015625 50.828125 16.015625 36.375 
Q 16.015625 21.96875 22.65625 14.328125 
Q 29.296875 6.6875 41.796875 6.6875 
Q 48.140625 6.6875 53.78125 8.984375 
Q 59.421875 11.28125 64.40625 15.921875 
L 64.40625 5.609375 
Q 59.234375 2.09375 53.4375 0.328125 
Q 47.65625 -1.421875 41.21875 -1.421875 
Q 24.65625 -1.421875 15.125 8.703125 
Q 5.609375 18.84375 5.609375 36.375 
Q 5.609375 53.953125 15.125 64.078125 
Q 24.65625 74.21875 41.21875 74.21875 
Q 47.75 74.21875 53.53125 72.484375 
Q 59.328125 70.75 64.40625 67.28125 
z
" id="DejaVuSans-67"/>
     <path d="M 19.671875 64.796875 
L 19.671875 37.40625 
L 32.078125 37.40625 
Q 38.96875 37.40625 42.71875 40.96875 
Q 46.484375 44.53125 46.484375 51.125 
Q 46.484375 57.671875 42.71875 61.234375 
Q 38.96875 64.796875 32.078125 64.796875 
z
M 9.8125 72.90625 
L 32.078125 72.90625 
Q 44.34375 72.90625 50.609375 67.359375 
Q 56.890625 61.8125 56.890625 51.125 
Q 56.890625 40.328125 50.609375 34.8125 
Q 44.34375 29.296875 32.078125 29.296875 
L 19.671875 29.296875 
L 19.671875 0 
L 9.8125 0 
z
" id="DejaVuSans-80"/>
     <path d="M 8.5 21.578125 
L 8.5 54.6875 
L 17.484375 54.6875 
L 17.484375 21.921875 
Q 17.484375 14.15625 20.5 10.265625 
Q 23.53125 6.390625 29.59375 6.390625 
Q 36.859375 6.390625 41.078125 11.03125 
Q 45.3125 15.671875 45.3125 23.6875 
L 45.3125 54.6875 
L 54.296875 54.6875 
L 54.296875 0 
L 45.3125 0 
L 45.3125 8.40625 
Q 42.046875 3.421875 37.71875 1 
Q 33.40625 -1.421875 27.6875 -1.421875 
Q 18.265625 -1.421875 13.375 4.4375 
Q 8.5 10.296875 8.5 21.578125 
z
M 31.109375 56 
z
" id="DejaVuSans-117"/>
     <path d="M 41.109375 46.296875 
Q 39.59375 47.171875 37.8125 47.578125 
Q 36.03125 48 33.890625 48 
Q 26.265625 48 22.1875 43.046875 
Q 18.109375 38.09375 18.109375 28.8125 
L 18.109375 0 
L 9.078125 0 
L 9.078125 54.6875 
L 18.109375 54.6875 
L 18.109375 46.1875 
Q 20.953125 51.171875 25.484375 53.578125 
Q 30.03125 56 36.53125 56 
Q 37.453125 56 38.578125 55.875 
Q 39.703125 55.765625 41.0625 55.515625 
z
" id="DejaVuSans-114"/>
     <path d="M 4.203125 54.6875 
L 13.1875 54.6875 
L 24.421875 12.015625 
L 35.59375 54.6875 
L 46.1875 54.6875 
L 57.421875 12.015625 
L 68.609375 54.6875 
L 77.59375 54.6875 
L 63.28125 0 
L 52.6875 0 
L 40.921875 44.828125 
L 29.109375 0 
L 18.5 0 
z
" id="DejaVuSans-119"/>
     <path d="M 25.390625 72.90625 
L 33.6875 72.90625 
L 8.296875 -9.28125 
L 0 -9.28125 
z
" id="DejaVuSans-47"/>
    </defs>
    <use xlink:href="#DejaVuSans-84"/>
    <use x="55.208984" xlink:href="#DejaVuSans-67"/>
    <use x="125.033203" xlink:href="#DejaVuSans-80"/>
    <use x="185.335938" xlink:href="#DejaVuSans-32"/>
    <use x="217.123047" xlink:href="#DejaVuSans-117"/>
    <use x="280.501953" xlink:href="#DejaVuSans-112"/>
    <use x="343.978516" xlink:href="#DejaVuSans-108"/>
    <use x="371.761719" xlink:href="#DejaVuSans-111"/>
    <use x="432.943359" xlink:href="#DejaVuSans-97"/>
    <use x="494.222656" xlink:href="#DejaVuSans-100"/>
    <use x="557.699219" xlink:href="#DejaVuSans-32"/>
    <use x="589.486328" xlink:href="#DejaVuSans-45"/>
    <use x="625.570312" xlink:href="#DejaVuSans-32"/>
    <use x="657.357422" xlink:href="#DejaVuSans-56"/>
    <use x="720.980469" xlink:href="#DejaVuSans-32"/>
    <use x="752.767578" xlink:href="#DejaVuSans-115"/>
    <use x="804.867188" xlink:href="#DejaVuSans-116"/>
    <use x="844.076172" xlink:href="#DejaVuSans-114"/>
    <use x="882.939453" xlink:href="#DejaVuSans-101"/>
    <use x="944.462891" xlink:href="#DejaVuSans-97"/>
    <use x="1005.742188" xlink:href="#DejaVuSans-109"/>
    <use x="1103.154297" xlink:href="#DejaVuSans-115"/>
    <use x="1155.253906" xlink:href="#DejaVuSans-32"/>
    <use x="1187.041016" xlink:href="#DejaVuSans-119"/>
    <use x="1268.828125" xlink:href="#DejaVuSans-47"/>
    <use x="1302.519531" xlink:href="#DejaVuSans-112"/>
    <use x="1365.996094" xlink:href="#DejaVuSans-105"/>
    <use x="1393.779297" xlink:href="#DejaVuSans-110"/>
    <use x="1457.158203" xlink:href="#DejaVuSans-103"/>
   </g>
   <!-- Queue backlog -->
   <g transform="translate(435.990469 30.61675)scale(0.14 -0.14)">
    <defs>
     <path d="M 39.40625 66.21875 
Q 28.65625 66.21875 22.328125 58.203125 
Q 16.015625 50.203125 16.015625 36.375 
Q 16.015625 22.609375 22.328125 14.59375 
Q 28.65625 6.59375 39.40625 6.59375 
Q 50.140625 6.59375 56.421875 14.59375 
Q 62.703125 22.609375 62.703125 36.375 
Q 62.703125 50.203125 56.421875 58.203125 
Q 50.140625 66.21875 39.40625 66.21875 
z
M 53.21875 1.3125 
L 66.21875 -12.890625 
L 54.296875 -12.890625 
L 43.5 -1.21875 
Q 41.890625 -1.3125 41.03125 -1.359375 
Q 40.1875 -1.421875 39.40625 -1.421875 
Q 24.03125 -1.421875 14.8125 8.859375 
Q 5.609375 19.140625 5.609375 36.375 
Q 5.609375 53.65625 14.8125 63.9375 
Q 24.03125 74.21875 39.40625 74.21875 
Q 54.734375 74.21875 63.90625 63.9375 
Q 73.09375 53.65625 73.09375 36.375 
Q 73.09375 23.6875 67.984375 14.640625 
Q 62.890625 5.609375 53.21875 1.3125 
z
" id="DejaVuSans-81"/>
    </defs>
    <use xlink:href="#DejaVuSans-81"/>
    <use x="78.710938" xlink:href="#DejaVuSans-117"/>
    <use x="142.089844" xlink:href="#DejaVuSans-101"/>
    <use x="203.613281" xlink:href="#DejaVuSans-117"/>
    <use x="266.992188" xlink:href="#DejaVuSans-101"/>
    <use x="328.515625" xlink:href="#DejaVuSans-32"/>
    <use x="360.302734" xlink:href="#DejaVuSans-98"/>
    <use x="423.779297" xlink:href="#DejaVuSans-97"/>
    <use x="485.058594" xlink:href="#DejaVuSans-99"/>
    <use x="540.039062" xlink:href="#DejaVuSans-107"/>
    <use x="597.949219" xlink:href="#DejaVuSans-108"/>
    <use x="625.732422" xlink:href="#DejaVuSans-111"/>
    <use x="686.914062" xlink:href="#DejaVuSans-103"/>
   </g>
  </g>
 </g>
 <defs>
  <clipPath id="p7746065e0f">
   <rect height="397.5048" width="509.688" x="122.13" y="61.9488"/>
  </clipPath>
 </defs>
</svg>
