<?xml version="1.0" encoding="utf-8" standalone="no"?>
<!DOCTYPE svg PUBLIC "-//W3C//DTD SVG 1.1//EN"
  "http://www.w3.org/Graphics/SVG/1.1/DTD/svg11.dtd">
<!-- Created with matplotlib (https://matplotlib.org/) -->
<svg height="516.24pt" version="1.1" viewBox="0 0 977.04 516.24" width="977.04pt" xmlns="http://www.w3.org/2000/svg" xmlns:xlink="http://www.w3.org/1999/xlink">
 <metadata>
  <rdf:RDF xmlns:cc="http://creativecommons.org/ns#" xmlns:dc="http://purl.org/dc/elements/1.1/" xmlns:rdf="http://www.w3.org/1999/02/22-rdf-syntax-ns#">
   <cc:Work>
    <dc:type rdf:resource="http://purl.org/dc/dcmitype/StillImage"/>
    <dc:date>2023-09-14T13:13:15.532861</dc:date>
    <dc:format>image/svg+xml</dc:format>
    <dc:creator>
     <cc:Agent>
      <dc:title>Matplotlib v3.3.4, https://matplotlib.org/</dc:title>
     </cc:Agent>
    </dc:creator>
   </cc:Work>
  </rdf:RDF>
 </metadata>
 <defs>
  <style type="text/css">*{stroke-linecap:butt;stroke-linejoin:round;}</style>
 </defs>
 <g id="figure_1">
  <g id="patch_1">
   <path d="M 0 516.24 
L 977.04 516.24 
L 977.04 0 
L 0 0 
z
" style="fill:#ffffff;"/>
  </g>
  <g id="axes_1">
   <g id="patch_2">
    <path d="M 122.13 459.4536 
L 741.168 459.4536 
L 741.168 61.9488 
L 122.13 61.9488 
z
" style="fill:#e6e6e6;"/>
   </g>
   <g id="matplotlib.axis_1">
    <g id="xtick_1">
     <g id="line2d_1">
      <path clip-path="url(#p7ef278bfb8)" d="M 205.722039 459.4536 
L 205.722039 61.9488 
" style="fill:none;stroke:#ffffff;stroke-linecap:round;"/>
     </g>
     <g id="line2d_2"/>
     <g id="text_1">
      <!-- 10 -->
      <g transform="translate(199.359539 470.552038)scale(0.1 -0.1)">
       <defs>
        <path d="M 12.40625 8.296875 
L 28.515625 8.296875 
L 28.515625 63.921875 
L 10.984375 60.40625 
L 10.984375 69.390625 
L 28.421875 72.90625 
L 38.28125 72.90625 
L 38.28125 8.296875 
L 54.390625 8.296875 
L 54.390625 0 
L 12.40625 0 
z
" id="DejaVuSans-49"/>
        <path d="M 31.78125 66.40625 
Q 24.171875 66.40625 20.328125 58.90625 
Q 16.5 51.421875 16.5 36.375 
Q 16.5 21.390625 20.328125 13.890625 
Q 24.171875 6.390625 31.78125 6.390625 
Q 39.453125 6.390625 43.28125 13.890625 
Q 47.125 21.390625 47.125 36.375 
Q 47.125 51.421875 43.28125 58.90625 
Q 39.453125 66.40625 31.78125 66.40625 
z
M 31.78125 74.21875 
Q 44.046875 74.21875 50.515625 64.515625 
Q 56.984375 54.828125 56.984375 36.375 
Q 56.984375 17.96875 50.515625 8.265625 
Q 44.046875 -1.421875 31.78125 -1.421875 
Q 19.53125 -1.421875 13.0625 8.265625 
Q 6.59375 17.96875 6.59375 36.375 
Q 6.59375 54.828125 13.0625 64.515625 
Q 19.53125 74.21875 31.78125 74.21875 
z
" id="DejaVuSans-48"/>
       </defs>
       <use xlink:href="#DejaVuSans-49"/>
       <use x="63.623047" xlink:href="#DejaVuSans-48"/>
      </g>
     </g>
    </g>
    <g id="xtick_2">
     <g id="line2d_3">
      <path clip-path="url(#p7ef278bfb8)" d="M 294.963032 459.4536 
L 294.963032 61.9488 
" style="fill:none;stroke:#ffffff;stroke-linecap:round;"/>
     </g>
     <g id="line2d_4"/>
     <g id="text_2">
      <!-- 20 -->
      <g transform="translate(288.600532 470.552038)scale(0.1 -0.1)">
       <defs>
        <path d="M 19.1875 8.296875 
L 53.609375 8.296875 
L 53.609375 0 
L 7.328125 0 
L 7.328125 8.296875 
Q 12.9375 14.109375 22.625 23.890625 
Q 32.328125 33.6875 34.8125 36.53125 
Q 39.546875 41.84375 41.421875 45.53125 
Q 43.3125 49.21875 43.3125 52.78125 
Q 43.3125 58.59375 39.234375 62.25 
Q 35.15625 65.921875 28.609375 65.921875 
Q 23.96875 65.921875 18.8125 64.3125 
Q 13.671875 62.703125 7.8125 59.421875 
L 7.8125 69.390625 
Q 13.765625 71.78125 18.9375 73 
Q 24.125 74.21875 28.421875 74.21875 
Q 39.75 74.21875 46.484375 68.546875 
Q 53.21875 62.890625 53.21875 53.421875 
Q 53.21875 48.921875 51.53125 44.890625 
Q 49.859375 40.875 45.40625 35.40625 
Q 44.1875 33.984375 37.640625 27.21875 
Q 31.109375 20.453125 19.1875 8.296875 
z
" id="DejaVuSans-50"/>
       </defs>
       <use xlink:href="#DejaVuSans-50"/>
       <use x="63.623047" xlink:href="#DejaVuSans-48"/>
      </g>
     </g>
    </g>
    <g id="xtick_3">
     <g id="line2d_5">
      <path clip-path="url(#p7ef278bfb8)" d="M 384.204026 459.4536 
L 384.204026 61.9488 
" style="fill:none;stroke:#ffffff;stroke-linecap:round;"/>
     </g>
     <g id="line2d_6"/>
     <g id="text_3">
      <!-- 30 -->
      <g transform="translate(377.841526 470.552038)scale(0.1 -0.1)">
       <defs>
        <path d="M 40.578125 39.3125 
Q 47.65625 37.796875 51.625 33 
Q 55.609375 28.21875 55.609375 21.1875 
Q 55.609375 10.40625 48.1875 4.484375 
Q 40.765625 -1.421875 27.09375 -1.421875 
Q 22.515625 -1.421875 17.65625 -0.515625 
Q 12.796875 0.390625 7.625 2.203125 
L 7.625 11.71875 
Q 11.71875 9.328125 16.59375 8.109375 
Q 21.484375 6.890625 26.8125 6.890625 
Q 36.078125 6.890625 40.9375 10.546875 
Q 45.796875 14.203125 45.796875 21.1875 
Q 45.796875 27.640625 41.28125 31.265625 
Q 36.765625 34.90625 28.71875 34.90625 
L 20.21875 34.90625 
L 20.21875 43.015625 
L 29.109375 43.015625 
Q 36.375 43.015625 40.234375 45.921875 
Q 44.09375 48.828125 44.09375 54.296875 
Q 44.09375 59.90625 40.109375 62.90625 
Q 36.140625 65.921875 28.71875 65.921875 
Q 24.65625 65.921875 20.015625 65.03125 
Q 15.375 64.15625 9.8125 62.3125 
L 9.8125 71.09375 
Q 15.4375 72.65625 20.34375 73.4375 
Q 25.25 74.21875 29.59375 74.21875 
Q 40.828125 74.21875 47.359375 69.109375 
Q 53.90625 64.015625 53.90625 55.328125 
Q 53.90625 49.265625 50.4375 45.09375 
Q 46.96875 40.921875 40.578125 39.3125 
z
" id="DejaVuSans-51"/>
       </defs>
       <use xlink:href="#DejaVuSans-51"/>
       <use x="63.623047" xlink:href="#DejaVuSans-48"/>
      </g>
     </g>
    </g>
    <g id="xtick_4">
     <g id="line2d_7">
      <path clip-path="url(#p7ef278bfb8)" d="M 473.445019 459.4536 
L 473.445019 61.9488 
" style="fill:none;stroke:#ffffff;stroke-linecap:round;"/>
     </g>
     <g id="line2d_8"/>
     <g id="text_4">
      <!-- 40 -->
      <g transform="translate(467.082519 470.552038)scale(0.1 -0.1)">
       <defs>
        <path d="M 37.796875 64.3125 
L 12.890625 25.390625 
L 37.796875 25.390625 
z
M 35.203125 72.90625 
L 47.609375 72.90625 
L 47.609375 25.390625 
L 58.015625 25.390625 
L 58.015625 17.1875 
L 47.609375 17.1875 
L 47.609375 0 
L 37.796875 0 
L 37.796875 17.1875 
L 4.890625 17.1875 
L 4.890625 26.703125 
z
" id="DejaVuSans-52"/>
       </defs>
       <use xlink:href="#DejaVuSans-52"/>
       <use x="63.623047" xlink:href="#DejaVuSans-48"/>
      </g>
     </g>
    </g>
    <g id="xtick_5">
     <g id="line2d_9">
      <path clip-path="url(#p7ef278bfb8)" d="M 562.686013 459.4536 
L 562.686013 61.9488 
" style="fill:none;stroke:#ffffff;stroke-linecap:round;"/>
     </g>
     <g id="line2d_10"/>
     <g id="text_5">
      <!-- 50 -->
      <g transform="translate(556.323513 470.552038)scale(0.1 -0.1)">
       <defs>
        <path d="M 10.796875 72.90625 
L 49.515625 72.90625 
L 49.515625 64.59375 
L 19.828125 64.59375 
L 19.828125 46.734375 
Q 21.96875 47.46875 24.109375 47.828125 
Q 26.265625 48.1875 28.421875 48.1875 
Q 40.625 48.1875 47.75 41.5 
Q 54.890625 34.8125 54.890625 23.390625 
Q 54.890625 11.625 47.5625 5.09375 
Q 40.234375 -1.421875 26.90625 -1.421875 
Q 22.3125 -1.421875 17.546875 -0.640625 
Q 12.796875 0.140625 7.71875 1.703125 
L 7.71875 11.625 
Q 12.109375 9.234375 16.796875 8.0625 
Q 21.484375 6.890625 26.703125 6.890625 
Q 35.15625 6.890625 40.078125 11.328125 
Q 45.015625 15.765625 45.015625 23.390625 
Q 45.015625 31 40.078125 35.4375 
Q 35.15625 39.890625 26.703125 39.890625 
Q 22.75 39.890625 18.8125 39.015625 
Q 14.890625 38.140625 10.796875 36.28125 
z
" id="DejaVuSans-53"/>
       </defs>
       <use xlink:href="#DejaVuSans-53"/>
       <use x="63.623047" xlink:href="#DejaVuSans-48"/>
      </g>
     </g>
    </g>
    <g id="xtick_6">
     <g id="line2d_11">
      <path clip-path="url(#p7ef278bfb8)" d="M 651.927006 459.4536 
L 651.927006 61.9488 
" style="fill:none;stroke:#ffffff;stroke-linecap:round;"/>
     </g>
     <g id="line2d_12"/>
     <g id="text_6">
      <!-- 60 -->
      <g transform="translate(645.564506 470.552038)scale(0.1 -0.1)">
       <defs>
        <path d="M 33.015625 40.375 
Q 26.375 40.375 22.484375 35.828125 
Q 18.609375 31.296875 18.609375 23.390625 
Q 18.609375 15.53125 22.484375 10.953125 
Q 26.375 6.390625 33.015625 6.390625 
Q 39.65625 6.390625 43.53125 10.953125 
Q 47.40625 15.53125 47.40625 23.390625 
Q 47.40625 31.296875 43.53125 35.828125 
Q 39.65625 40.375 33.015625 40.375 
z
M 52.59375 71.296875 
L 52.59375 62.3125 
Q 48.875 64.0625 45.09375 64.984375 
Q 41.3125 65.921875 37.59375 65.921875 
Q 27.828125 65.921875 22.671875 59.328125 
Q 17.53125 52.734375 16.796875 39.40625 
Q 19.671875 43.65625 24.015625 45.921875 
Q 28.375 48.1875 33.59375 48.1875 
Q 44.578125 48.1875 50.953125 41.515625 
Q 57.328125 34.859375 57.328125 23.390625 
Q 57.328125 12.15625 50.6875 5.359375 
Q 44.046875 -1.421875 33.015625 -1.421875 
Q 20.359375 -1.421875 13.671875 8.265625 
Q 6.984375 17.96875 6.984375 36.375 
Q 6.984375 53.65625 15.1875 63.9375 
Q 23.390625 74.21875 37.203125 74.21875 
Q 40.921875 74.21875 44.703125 73.484375 
Q 48.484375 72.75 52.59375 71.296875 
z
" id="DejaVuSans-54"/>
       </defs>
       <use xlink:href="#DejaVuSans-54"/>
       <use x="63.623047" xlink:href="#DejaVuSans-48"/>
      </g>
     </g>
    </g>
    <g id="xtick_7">
     <g id="line2d_13">
      <path clip-path="url(#p7ef278bfb8)" d="M 741.168 459.4536 
L 741.168 61.9488 
" style="fill:none;stroke:#ffffff;stroke-linecap:round;"/>
     </g>
     <g id="line2d_14"/>
     <g id="text_7">
      <!-- 70 -->
      <g transform="translate(734.8055 470.552038)scale(0.1 -0.1)">
       <defs>
        <path d="M 8.203125 72.90625 
L 55.078125 72.90625 
L 55.078125 68.703125 
L 28.609375 0 
L 18.3125 0 
L 43.21875 64.59375 
L 8.203125 64.59375 
z
" id="DejaVuSans-55"/>
       </defs>
       <use xlink:href="#DejaVuSans-55"/>
       <use x="63.623047" xlink:href="#DejaVuSans-48"/>
      </g>
     </g>
    </g>
    <g id="xtick_8">
     <g id="line2d_15"/>
    </g>
    <g id="xtick_9">
     <g id="line2d_16"/>
    </g>
    <g id="xtick_10">
     <g id="line2d_17"/>
    </g>
    <g id="xtick_11">
     <g id="line2d_18"/>
    </g>
    <g id="xtick_12">
     <g id="line2d_19"/>
    </g>
    <g id="xtick_13">
     <g id="line2d_20"/>
    </g>
    <g id="xtick_14">
     <g id="line2d_21"/>
    </g>
    <g id="xtick_15">
     <g id="line2d_22"/>
    </g>
    <g id="xtick_16">
     <g id="line2d_23"/>
    </g>
    <g id="xtick_17">
     <g id="line2d_24"/>
    </g>
    <g id="xtick_18">
     <g id="line2d_25"/>
    </g>
    <g id="xtick_19">
     <g id="line2d_26"/>
    </g>
    <g id="xtick_20">
     <g id="line2d_27"/>
    </g>
    <g id="xtick_21">
     <g id="line2d_28"/>
    </g>
    <g id="xtick_22">
     <g id="line2d_29"/>
    </g>
    <g id="xtick_23">
     <g id="line2d_30"/>
    </g>
    <g id="xtick_24">
     <g id="line2d_31"/>
    </g>
    <g id="xtick_25">
     <g id="line2d_32"/>
    </g>
    <g id="xtick_26">
     <g id="line2d_33"/>
    </g>
    <g id="xtick_27">
     <g id="line2d_34"/>
    </g>
    <g id="xtick_28">
     <g id="line2d_35"/>
    </g>
    <g id="xtick_29">
     <g id="line2d_36"/>
    </g>
    <g id="xtick_30">
     <g id="line2d_37"/>
    </g>
    <g id="xtick_31">
     <g id="line2d_38"/>
    </g>
    <g id="xtick_32">
     <g id="line2d_39"/>
    </g>
    <g id="xtick_33">
     <g id="line2d_40"/>
    </g>
    <g id="xtick_34">
     <g id="line2d_41"/>
    </g>
    <g id="xtick_35">
     <g id="line2d_42"/>
    </g>
    <g id="text_8">
     <!-- ms -->
     <g transform="translate(424.174 484.230163)scale(0.1 -0.1)">
      <defs>
       <path d="M 52 44.1875 
Q 55.375 50.25 60.0625 53.125 
Q 64.75 56 71.09375 56 
Q 79.640625 56 84.28125 50.015625 
Q 88.921875 44.046875 88.921875 33.015625 
L 88.921875 0 
L 79.890625 0 
L 79.890625 32.71875 
Q 79.890625 40.578125 77.09375 44.375 
Q 74.3125 48.1875 68.609375 48.1875 
Q 61.625 48.1875 57.5625 43.546875 
Q 53.515625 38.921875 53.515625 30.90625 
L 53.515625 0 
L 44.484375 0 
L 44.484375 32.71875 
Q 44.484375 40.625 41.703125 44.40625 
Q 38.921875 48.1875 33.109375 48.1875 
Q 26.21875 48.1875 22.15625 43.53125 
Q 18.109375 38.875 18.109375 30.90625 
L 18.109375 0 
L 9.078125 0 
L 9.078125 54.6875 
L 18.109375 54.6875 
L 18.109375 46.1875 
Q 21.1875 51.21875 25.484375 53.609375 
Q 29.78125 56 35.6875 56 
Q 41.65625 56 45.828125 52.96875 
Q 50 49.953125 52 44.1875 
z
" id="DejaVuSans-109"/>
       <path d="M 44.28125 53.078125 
L 44.28125 44.578125 
Q 40.484375 46.53125 36.375 47.5 
Q 32.28125 48.484375 27.875 48.484375 
Q 21.1875 48.484375 17.84375 46.4375 
Q 14.5 44.390625 14.5 40.28125 
Q 14.5 37.15625 16.890625 35.375 
Q 19.28125 33.59375 26.515625 31.984375 
L 29.59375 31.296875 
Q 39.15625 29.25 43.1875 25.515625 
Q 47.21875 21.78125 47.21875 15.09375 
Q 47.21875 7.46875 41.1875 3.015625 
Q 35.15625 -1.421875 24.609375 -1.421875 
Q 20.21875 -1.421875 15.453125 -0.5625 
Q 10.6875 0.296875 5.421875 2 
L 5.421875 11.28125 
Q 10.40625 8.6875 15.234375 7.390625 
Q 20.0625 6.109375 24.8125 6.109375 
Q 31.15625 6.109375 34.5625 8.28125 
Q 37.984375 10.453125 37.984375 14.40625 
Q 37.984375 18.0625 35.515625 20.015625 
Q 33.0625 21.96875 24.703125 23.78125 
L 21.578125 24.515625 
Q 13.234375 26.265625 9.515625 29.90625 
Q 5.8125 33.546875 5.8125 39.890625 
Q 5.8125 47.609375 11.28125 51.796875 
Q 16.75 56 26.8125 56 
Q 31.78125 56 36.171875 55.265625 
Q 40.578125 54.546875 44.28125 53.078125 
z
" id="DejaVuSans-115"/>
      </defs>
      <use xlink:href="#DejaVuSans-109"/>
      <use x="97.412109" xlink:href="#DejaVuSans-115"/>
     </g>
    </g>
   </g>
   <g id="matplotlib.axis_2">
    <g id="ytick_1">
     <g id="line2d_43">
      <path clip-path="url(#p7ef278bfb8)" d="M 122.13 459.4536 
L 741.168 459.4536 
" style="fill:none;stroke:#ffffff;stroke-linecap:round;"/>
     </g>
     <g id="line2d_44"/>
     <g id="text_9">
      <!-- 0.0 -->
      <g transform="translate(102.726875 463.252819)scale(0.1 -0.1)">
       <defs>
        <path d="M 10.6875 12.40625 
L 21 12.40625 
L 21 0 
L 10.6875 0 
z
" id="DejaVuSans-46"/>
       </defs>
       <use xlink:href="#DejaVuSans-48"/>
       <use x="63.623047" xlink:href="#DejaVuSans-46"/>
       <use x="95.410156" xlink:href="#DejaVuSans-48"/>
      </g>
     </g>
    </g>
    <g id="ytick_2">
     <g id="line2d_45">
      <path clip-path="url(#p7ef278bfb8)" d="M 122.13 379.95264 
L 741.168 379.95264 
" style="fill:none;stroke:#ffffff;stroke-linecap:round;"/>
     </g>
     <g id="line2d_46"/>
     <g id="text_10">
      <!-- 0.2 -->
      <g transform="translate(102.726875 383.751859)scale(0.1 -0.1)">
       <use xlink:href="#DejaVuSans-48"/>
       <use x="63.623047" xlink:href="#DejaVuSans-46"/>
       <use x="95.410156" xlink:href="#DejaVuSans-50"/>
      </g>
     </g>
    </g>
    <g id="ytick_3">
     <g id="line2d_47">
      <path clip-path="url(#p7ef278bfb8)" d="M 122.13 300.45168 
L 741.168 300.45168 
" style="fill:none;stroke:#ffffff;stroke-linecap:round;"/>
     </g>
     <g id="line2d_48"/>
     <g id="text_11">
      <!-- 0.4 -->
      <g transform="translate(102.726875 304.250899)scale(0.1 -0.1)">
       <use xlink:href="#DejaVuSans-48"/>
       <use x="63.623047" xlink:href="#DejaVuSans-46"/>
       <use x="95.410156" xlink:href="#DejaVuSans-52"/>
      </g>
     </g>
    </g>
    <g id="ytick_4">
     <g id="line2d_49">
      <path clip-path="url(#p7ef278bfb8)" d="M 122.13 220.95072 
L 741.168 220.95072 
" style="fill:none;stroke:#ffffff;stroke-linecap:round;"/>
     </g>
     <g id="line2d_50"/>
     <g id="text_12">
      <!-- 0.6 -->
      <g transform="translate(102.726875 224.749939)scale(0.1 -0.1)">
       <use xlink:href="#DejaVuSans-48"/>
       <use x="63.623047" xlink:href="#DejaVuSans-46"/>
       <use x="95.410156" xlink:href="#DejaVuSans-54"/>
      </g>
     </g>
    </g>
    <g id="ytick_5">
     <g id="line2d_51">
      <path clip-path="url(#p7ef278bfb8)" d="M 122.13 141.44976 
L 741.168 141.44976 
" style="fill:none;stroke:#ffffff;stroke-linecap:round;"/>
     </g>
     <g id="line2d_52"/>
     <g id="text_13">
      <!-- 0.8 -->
      <g transform="translate(102.726875 145.248979)scale(0.1 -0.1)">
       <defs>
        <path d="M 31.78125 34.625 
Q 24.75 34.625 20.71875 30.859375 
Q 16.703125 27.09375 16.703125 20.515625 
Q 16.703125 13.921875 20.71875 10.15625 
Q 24.75 6.390625 31.78125 6.390625 
Q 38.8125 6.390625 42.859375 10.171875 
Q 46.921875 13.96875 46.921875 20.515625 
Q 46.921875 27.09375 42.890625 30.859375 
Q 38.875 34.625 31.78125 34.625 
z
M 21.921875 38.8125 
Q 15.578125 40.375 12.03125 44.71875 
Q 8.5 49.078125 8.5 55.328125 
Q 8.5 64.0625 14.71875 69.140625 
Q 20.953125 74.21875 31.78125 74.21875 
Q 42.671875 74.21875 48.875 69.140625 
Q 55.078125 64.0625 55.078125 55.328125 
Q 55.078125 49.078125 51.53125 44.71875 
Q 48 40.375 41.703125 38.8125 
Q 48.828125 37.15625 52.796875 32.3125 
Q 56.78125 27.484375 56.78125 20.515625 
Q 56.78125 9.90625 50.3125 4.234375 
Q 43.84375 -1.421875 31.78125 -1.421875 
Q 19.734375 -1.421875 13.25 4.234375 
Q 6.78125 9.90625 6.78125 20.515625 
Q 6.78125 27.484375 10.78125 32.3125 
Q 14.796875 37.15625 21.921875 38.8125 
z
M 18.3125 54.390625 
Q 18.3125 48.734375 21.84375 45.5625 
Q 25.390625 42.390625 31.78125 42.390625 
Q 38.140625 42.390625 41.71875 45.5625 
Q 45.3125 48.734375 45.3125 54.390625 
Q 45.3125 60.0625 41.71875 63.234375 
Q 38.140625 66.40625 31.78125 66.40625 
Q 25.390625 66.40625 21.84375 63.234375 
Q 18.3125 60.0625 18.3125 54.390625 
z
" id="DejaVuSans-56"/>
       </defs>
       <use xlink:href="#DejaVuSans-48"/>
       <use x="63.623047" xlink:href="#DejaVuSans-46"/>
       <use x="95.410156" xlink:href="#DejaVuSans-56"/>
      </g>
     </g>
    </g>
    <g id="ytick_6">
     <g id="line2d_53">
      <path clip-path="url(#p7ef278bfb8)" d="M 122.13 61.9488 
L 741.168 61.9488 
" style="fill:none;stroke:#ffffff;stroke-linecap:round;"/>
     </g>
     <g id="line2d_54"/>
     <g id="text_14">
      <!-- 1.0 -->
      <g transform="translate(102.726875 65.748019)scale(0.1 -0.1)">
       <use xlink:href="#DejaVuSans-49"/>
       <use x="63.623047" xlink:href="#DejaVuSans-46"/>
       <use x="95.410156" xlink:href="#DejaVuSans-48"/>
      </g>
     </g>
    </g>
    <g id="ytick_7">
     <g id="line2d_55"/>
    </g>
    <g id="ytick_8">
     <g id="line2d_56"/>
    </g>
    <g id="ytick_9">
     <g id="line2d_57"/>
    </g>
    <g id="ytick_10">
     <g id="line2d_58"/>
    </g>
    <g id="ytick_11">
     <g id="line2d_59"/>
    </g>
    <g id="ytick_12">
     <g id="line2d_60"/>
    </g>
    <g id="ytick_13">
     <g id="line2d_61"/>
    </g>
    <g id="ytick_14">
     <g id="line2d_62"/>
    </g>
    <g id="ytick_15">
     <g id="line2d_63"/>
    </g>
    <g id="ytick_16">
     <g id="line2d_64"/>
    </g>
    <g id="ytick_17">
     <g id="line2d_65"/>
    </g>
    <g id="ytick_18">
     <g id="line2d_66"/>
    </g>
    <g id="ytick_19">
     <g id="line2d_67"/>
    </g>
    <g id="ytick_20">
     <g id="line2d_68"/>
    </g>
    <g id="ytick_21">
     <g id="line2d_69"/>
    </g>
    <g id="text_15">
     <!-- Cumulative probability -->
     <g transform="translate(96.647187 317.503544)rotate(-90)scale(0.1 -0.1)">
      <defs>
       <path d="M 64.40625 67.28125 
L 64.40625 56.890625 
Q 59.421875 61.53125 53.78125 63.8125 
Q 48.140625 66.109375 41.796875 66.109375 
Q 29.296875 66.109375 22.65625 58.46875 
Q 16.015625 50.828125 16.015625 36.375 
Q 16.015625 21.96875 22.65625 14.328125 
Q 29.296875 6.6875 41.796875 6.6875 
Q 48.140625 6.6875 53.78125 8.984375 
Q 59.421875 11.28125 64.40625 15.921875 
L 64.40625 5.609375 
Q 59.234375 2.09375 53.4375 0.328125 
Q 47.65625 -1.421875 41.21875 -1.421875 
Q 24.65625 -1.421875 15.125 8.703125 
Q 5.609375 18.84375 5.609375 36.375 
Q 5.609375 53.953125 15.125 64.078125 
Q 24.65625 74.21875 41.21875 74.21875 
Q 47.75 74.21875 53.53125 72.484375 
Q 59.328125 70.75 64.40625 67.28125 
z
" id="DejaVuSans-67"/>
       <path d="M 8.5 21.578125 
L 8.5 54.6875 
L 17.484375 54.6875 
L 17.484375 21.921875 
Q 17.484375 14.15625 20.5 10.265625 
Q 23.53125 6.390625 29.59375 6.390625 
Q 36.859375 6.390625 41.078125 11.03125 
Q 45.3125 15.671875 45.3125 23.6875 
L 45.3125 54.6875 
L 54.296875 54.6875 
L 54.296875 0 
L 45.3125 0 
L 45.3125 8.40625 
Q 42.046875 3.421875 37.71875 1 
Q 33.40625 -1.421875 27.6875 -1.421875 
Q 18.265625 -1.421875 13.375 4.4375 
Q 8.5 10.296875 8.5 21.578125 
z
M 31.109375 56 
z
" id="DejaVuSans-117"/>
       <path d="M 9.421875 75.984375 
L 18.40625 75.984375 
L 18.40625 0 
L 9.421875 0 
z
" id="DejaVuSans-108"/>
       <path d="M 34.28125 27.484375 
Q 23.390625 27.484375 19.1875 25 
Q 14.984375 22.515625 14.984375 16.5 
Q 14.984375 11.71875 18.140625 8.90625 
Q 21.296875 6.109375 26.703125 6.109375 
Q 34.1875 6.109375 38.703125 11.40625 
Q 43.21875 16.703125 43.21875 25.484375 
L 43.21875 27.484375 
z
M 52.203125 31.203125 
L 52.203125 0 
L 43.21875 0 
L 43.21875 8.296875 
Q 40.140625 3.328125 35.546875 0.953125 
Q 30.953125 -1.421875 24.3125 -1.421875 
Q 15.921875 -1.421875 10.953125 3.296875 
Q 6 8.015625 6 15.921875 
Q 6 25.140625 12.171875 29.828125 
Q 18.359375 34.515625 30.609375 34.515625 
L 43.21875 34.515625 
L 43.21875 35.40625 
Q 43.21875 41.609375 39.140625 45 
Q 35.0625 48.390625 27.6875 48.390625 
Q 23 48.390625 18.546875 47.265625 
Q 14.109375 46.140625 10.015625 43.890625 
L 10.015625 52.203125 
Q 14.9375 54.109375 19.578125 55.046875 
Q 24.21875 56 28.609375 56 
Q 40.484375 56 46.34375 49.84375 
Q 52.203125 43.703125 52.203125 31.203125 
z
" id="DejaVuSans-97"/>
       <path d="M 18.3125 70.21875 
L 18.3125 54.6875 
L 36.8125 54.6875 
L 36.8125 47.703125 
L 18.3125 47.703125 
L 18.3125 18.015625 
Q 18.3125 11.328125 20.140625 9.421875 
Q 21.96875 7.515625 27.59375 7.515625 
L 36.8125 7.515625 
L 36.8125 0 
L 27.59375 0 
Q 17.1875 0 13.234375 3.875 
Q 9.28125 7.765625 9.28125 18.015625 
L 9.28125 47.703125 
L 2.6875 47.703125 
L 2.6875 54.6875 
L 9.28125 54.6875 
L 9.28125 70.21875 
z
" id="DejaVuSans-116"/>
       <path d="M 9.421875 54.6875 
L 18.40625 54.6875 
L 18.40625 0 
L 9.421875 0 
z
M 9.421875 75.984375 
L 18.40625 75.984375 
L 18.40625 64.59375 
L 9.421875 64.59375 
z
" id="DejaVuSans-105"/>
       <path d="M 2.984375 54.6875 
L 12.5 54.6875 
L 29.59375 8.796875 
L 46.6875 54.6875 
L 56.203125 54.6875 
L 35.6875 0 
L 23.484375 0 
z
" id="DejaVuSans-118"/>
       <path d="M 56.203125 29.59375 
L 56.203125 25.203125 
L 14.890625 25.203125 
Q 15.484375 15.921875 20.484375 11.0625 
Q 25.484375 6.203125 34.421875 6.203125 
Q 39.59375 6.203125 44.453125 7.46875 
Q 49.3125 8.734375 54.109375 11.28125 
L 54.109375 2.78125 
Q 49.265625 0.734375 44.1875 -0.34375 
Q 39.109375 -1.421875 33.890625 -1.421875 
Q 20.796875 -1.421875 13.15625 6.1875 
Q 5.515625 13.8125 5.515625 26.8125 
Q 5.515625 40.234375 12.765625 48.109375 
Q 20.015625 56 32.328125 56 
Q 43.359375 56 49.78125 48.890625 
Q 56.203125 41.796875 56.203125 29.59375 
z
M 47.21875 32.234375 
Q 47.125 39.59375 43.09375 43.984375 
Q 39.0625 48.390625 32.421875 48.390625 
Q 24.90625 48.390625 20.390625 44.140625 
Q 15.875 39.890625 15.1875 32.171875 
z
" id="DejaVuSans-101"/>
       <path id="DejaVuSans-32"/>
       <path d="M 18.109375 8.203125 
L 18.109375 -20.796875 
L 9.078125 -20.796875 
L 9.078125 54.6875 
L 18.109375 54.6875 
L 18.109375 46.390625 
Q 20.953125 51.265625 25.265625 53.625 
Q 29.59375 56 35.59375 56 
Q 45.5625 56 51.78125 48.09375 
Q 58.015625 40.1875 58.015625 27.296875 
Q 58.015625 14.40625 51.78125 6.484375 
Q 45.5625 -1.421875 35.59375 -1.421875 
Q 29.59375 -1.421875 25.265625 0.953125 
Q 20.953125 3.328125 18.109375 8.203125 
z
M 48.6875 27.296875 
Q 48.6875 37.203125 44.609375 42.84375 
Q 40.53125 48.484375 33.40625 48.484375 
Q 26.265625 48.484375 22.1875 42.84375 
Q 18.109375 37.203125 18.109375 27.296875 
Q 18.109375 17.390625 22.1875 11.75 
Q 26.265625 6.109375 33.40625 6.109375 
Q 40.53125 6.109375 44.609375 11.75 
Q 48.6875 17.390625 48.6875 27.296875 
z
" id="DejaVuSans-112"/>
       <path d="M 41.109375 46.296875 
Q 39.59375 47.171875 37.8125 47.578125 
Q 36.03125 48 33.890625 48 
Q 26.265625 48 22.1875 43.046875 
Q 18.109375 38.09375 18.109375 28.8125 
L 18.109375 0 
L 9.078125 0 
L 9.078125 54.6875 
L 18.109375 54.6875 
L 18.109375 46.1875 
Q 20.953125 51.171875 25.484375 53.578125 
Q 30.03125 56 36.53125 56 
Q 37.453125 56 38.578125 55.875 
Q 39.703125 55.765625 41.0625 55.515625 
z
" id="DejaVuSans-114"/>
       <path d="M 30.609375 48.390625 
Q 23.390625 48.390625 19.1875 42.75 
Q 14.984375 37.109375 14.984375 27.296875 
Q 14.984375 17.484375 19.15625 11.84375 
Q 23.34375 6.203125 30.609375 6.203125 
Q 37.796875 6.203125 41.984375 11.859375 
Q 46.1875 17.53125 46.1875 27.296875 
Q 46.1875 37.015625 41.984375 42.703125 
Q 37.796875 48.390625 30.609375 48.390625 
z
M 30.609375 56 
Q 42.328125 56 49.015625 48.375 
Q 55.71875 40.765625 55.71875 27.296875 
Q 55.71875 13.875 49.015625 6.21875 
Q 42.328125 -1.421875 30.609375 -1.421875 
Q 18.84375 -1.421875 12.171875 6.21875 
Q 5.515625 13.875 5.515625 27.296875 
Q 5.515625 40.765625 12.171875 48.375 
Q 18.84375 56 30.609375 56 
z
" id="DejaVuSans-111"/>
       <path d="M 48.6875 27.296875 
Q 48.6875 37.203125 44.609375 42.84375 
Q 40.53125 48.484375 33.40625 48.484375 
Q 26.265625 48.484375 22.1875 42.84375 
Q 18.109375 37.203125 18.109375 27.296875 
Q 18.109375 17.390625 22.1875 11.75 
Q 26.265625 6.109375 33.40625 6.109375 
Q 40.53125 6.109375 44.609375 11.75 
Q 48.6875 17.390625 48.6875 27.296875 
z
M 18.109375 46.390625 
Q 20.953125 51.265625 25.265625 53.625 
Q 29.59375 56 35.59375 56 
Q 45.5625 56 51.78125 48.09375 
Q 58.015625 40.1875 58.015625 27.296875 
Q 58.015625 14.40625 51.78125 6.484375 
Q 45.5625 -1.421875 35.59375 -1.421875 
Q 29.59375 -1.421875 25.265625 0.953125 
Q 20.953125 3.328125 18.109375 8.203125 
L 18.109375 0 
L 9.078125 0 
L 9.078125 75.984375 
L 18.109375 75.984375 
z
" id="DejaVuSans-98"/>
       <path d="M 32.171875 -5.078125 
Q 28.375 -14.84375 24.75 -17.8125 
Q 21.140625 -20.796875 15.09375 -20.796875 
L 7.90625 -20.796875 
L 7.90625 -13.28125 
L 13.1875 -13.28125 
Q 16.890625 -13.28125 18.9375 -11.515625 
Q 21 -9.765625 23.484375 -3.21875 
L 25.09375 0.875 
L 2.984375 54.6875 
L 12.5 54.6875 
L 29.59375 11.921875 
L 46.6875 54.6875 
L 56.203125 54.6875 
z
" id="DejaVuSans-121"/>
      </defs>
      <use xlink:href="#DejaVuSans-67"/>
      <use x="69.824219" xlink:href="#DejaVuSans-117"/>
      <use x="133.203125" xlink:href="#DejaVuSans-109"/>
      <use x="230.615234" xlink:href="#DejaVuSans-117"/>
      <use x="293.994141" xlink:href="#DejaVuSans-108"/>
      <use x="321.777344" xlink:href="#DejaVuSans-97"/>
      <use x="383.056641" xlink:href="#DejaVuSans-116"/>
      <use x="422.265625" xlink:href="#DejaVuSans-105"/>
      <use x="450.048828" xlink:href="#DejaVuSans-118"/>
      <use x="509.228516" xlink:href="#DejaVuSans-101"/>
      <use x="570.751953" xlink:href="#DejaVuSans-32"/>
      <use x="602.539062" xlink:href="#DejaVuSans-112"/>
      <use x="666.015625" xlink:href="#DejaVuSans-114"/>
      <use x="704.878906" xlink:href="#DejaVuSans-111"/>
      <use x="766.060547" xlink:href="#DejaVuSans-98"/>
      <use x="829.537109" xlink:href="#DejaVuSans-97"/>
      <use x="890.816406" xlink:href="#DejaVuSans-98"/>
      <use x="954.292969" xlink:href="#DejaVuSans-105"/>
      <use x="982.076172" xlink:href="#DejaVuSans-108"/>
      <use x="1009.859375" xlink:href="#DejaVuSans-105"/>
      <use x="1037.642578" xlink:href="#DejaVuSans-116"/>
      <use x="1076.851562" xlink:href="#DejaVuSans-121"/>
     </g>
    </g>
   </g>
   <g id="line2d_70">
    <path clip-path="url(#p7ef278bfb8)" d="M 144.681199 458.124153 
L 147.179947 456.794705 
L 155.5686 455.465258 
L 157.978107 452.806363 
L 158.870517 451.476915 
L 159.048999 450.147468 
L 160.833819 448.81802 
L 163.154085 447.488573 
L 165.206628 446.159125 
L 165.563592 444.829678 
L 166.723724 443.50023 
L 167.080688 442.170783 
L 168.15158 440.841335 
L 168.419303 439.511888 
L 170.204123 438.18244 
L 171.185774 435.523545 
L 172.61363 434.194098 
L 173.238317 432.86465 
L 175.558583 431.535203 
L 175.915547 430.205755 
L 177.254162 428.876308 
L 177.343403 426.217413 
L 178.8605 424.887965 
L 179.128223 423.558518 
L 182.787103 422.22907 
L 183.590272 420.899623 
L 183.679513 419.570175 
L 185.910538 416.91128 
L 187.427635 415.581833 
L 187.963081 414.252385 
L 188.409286 411.59349 
L 188.944732 410.264043 
L 188.944732 408.934595 
L 189.837142 407.605148 
L 190.372588 404.946253 
L 191.44348 403.616805 
L 191.44348 402.287358 
L 191.711203 400.95791 
L 192.871336 399.628463 
L 193.406782 398.299015 
L 194.923878 396.969568 
L 195.10236 392.981225 
L 195.727047 391.651778 
L 196.351734 388.992883 
L 196.88718 387.663435 
L 197.065662 385.00454 
L 197.77959 383.675093 
L 198.136554 382.345645 
L 198.225795 381.016198 
L 199.028964 377.027856 
L 199.118205 374.368961 
L 199.385928 373.039513 
L 200.45682 371.710066 
L 201.706194 370.380618 
L 201.973917 369.051171 
L 202.063158 367.721723 
L 202.420122 366.392276 
L 202.687845 363.733381 
L 203.13405 362.403933 
L 203.758737 361.074486 
L 204.383424 358.415591 
L 204.383424 357.086143 
L 204.561906 355.756696 
L 205.454316 353.097801 
L 206.614449 351.768353 
L 206.614449 349.109458 
L 207.506859 347.780011 
L 207.506859 346.450563 
L 209.291678 343.791668 
L 209.291678 342.462221 
L 210.184088 341.132773 
L 210.184088 338.473878 
L 211.076498 337.144431 
L 211.076498 334.485536 
L 212.861318 331.826641 
L 212.861318 330.497193 
L 216.430958 327.838298 
L 216.430958 323.849956 
L 217.323368 322.520508 
L 217.323368 321.191061 
L 218.215778 319.861613 
L 218.215778 315.873271 
L 219.108188 314.543823 
L 220.893008 313.214376 
L 220.893008 307.896586 
L 223.570237 303.908243 
L 223.570237 301.249348 
L 224.462647 299.919901 
L 224.462647 295.931559 
L 225.355057 294.602111 
L 225.355057 293.272664 
L 228.924697 287.954874 
L 228.924697 286.625426 
L 229.817107 285.295979 
L 229.817107 282.637084 
L 231.601927 281.307636 
L 234.279157 277.319294 
L 234.279157 275.989846 
L 235.171567 274.660399 
L 235.171567 272.001504 
L 236.956386 269.342609 
L 236.956386 268.013161 
L 240.526026 262.695371 
L 240.526026 261.365924 
L 242.310846 258.707029 
L 242.310846 256.048134 
L 246.772896 249.400896 
L 246.772896 248.071449 
L 247.665306 246.742001 
L 247.665306 242.753659 
L 249.450126 241.424211 
L 250.342535 240.094764 
L 250.342535 238.765316 
L 251.234945 237.435869 
L 253.019765 236.106421 
L 253.019765 234.776974 
L 255.696995 233.447526 
L 255.696995 230.788631 
L 256.589405 229.459184 
L 256.589405 228.129736 
L 260.159045 222.811946 
L 260.159045 221.482499 
L 261.051455 220.153052 
L 261.051455 218.823604 
L 261.943865 217.494157 
L 261.943865 216.164709 
L 262.836275 214.835262 
L 262.836275 212.176367 
L 263.728684 210.846919 
L 263.728684 209.517472 
L 265.513504 206.858577 
L 265.513504 205.529129 
L 266.405914 204.199682 
L 266.405914 201.540787 
L 267.298324 200.211339 
L 270.867964 198.881892 
L 270.867964 196.222997 
L 275.330014 194.893549 
L 275.330014 193.564102 
L 276.222424 192.234654 
L 276.222424 189.575759 
L 278.899653 185.587417 
L 278.899653 184.257969 
L 279.792063 182.928522 
L 279.792063 178.940179 
L 280.684473 177.610732 
L 285.146523 176.281284 
L 286.931343 174.951837 
L 287.823753 173.622389 
L 287.823753 170.963494 
L 290.500983 169.634047 
L 290.500983 166.975152 
L 291.393392 165.645704 
L 291.393392 164.316257 
L 292.285802 162.986809 
L 292.285802 160.327914 
L 294.070622 158.998467 
L 294.070622 157.669019 
L 296.747852 153.680677 
L 296.747852 152.351229 
L 297.640262 151.021782 
L 297.640262 149.692334 
L 299.425082 147.033439 
L 299.425082 145.703992 
L 300.317492 144.374544 
L 300.317492 141.715649 
L 301.209902 140.386202 
L 301.209902 139.056755 
L 306.564361 135.068412 
L 307.456771 133.738965 
L 309.241591 132.409517 
L 310.134001 131.08007 
L 313.703641 129.750622 
L 313.703641 128.421175 
L 317.273281 125.76228 
L 317.273281 123.103385 
L 319.0581 120.44449 
L 319.0581 117.785595 
L 320.84292 116.456147 
L 328.87461 115.1267 
L 330.65943 113.797252 
L 330.65943 112.467805 
L 332.44425 111.138357 
L 333.336659 109.80891 
L 333.336659 108.479462 
L 335.121479 107.150015 
L 342.260759 105.820567 
L 343.153169 104.49112 
L 343.153169 103.161672 
L 346.722808 101.832225 
L 349.400038 100.502777 
L 349.400038 99.17333 
L 350.292448 97.843882 
L 353.862088 96.514435 
L 355.646908 93.85554 
L 357.431728 92.526092 
L 362.786187 91.196645 
L 363.678597 89.867197 
L 368.140647 88.53775 
L 369.925467 87.208302 
L 374.387516 85.878855 
L 379.741976 84.549407 
L 381.526796 83.21996 
L 390.450895 80.561065 
L 390.450895 79.231617 
L 391.343305 77.90217 
L 393.128125 76.572722 
L 401.159815 75.243275 
L 401.159815 73.913827 
L 404.729454 72.58438 
L 412.761144 71.254932 
L 414.545964 69.925485 
L 420.792833 68.596037 
L 430.609342 67.26659 
L 434.178982 65.937142 
L 435.071392 64.607695 
L 492.185628 63.278247 
L 595.705181 61.9488 
L 595.705181 61.9488 
" style="fill:none;stroke:#1b9e77;stroke-linecap:round;"/>
   </g>
   <g id="line2d_71">
    <path clip-path="url(#p7ef278bfb8)" d="M 138.702053 458.124153 
L 146.55526 456.794705 
L 146.912224 455.465258 
L 152.177443 454.13581 
L 153.069852 452.806363 
L 154.497708 451.476915 
L 154.67619 450.147468 
L 155.836323 448.81802 
L 157.174938 447.488573 
L 157.888866 446.159125 
L 159.048999 444.829678 
L 160.476855 443.50023 
L 160.566096 442.170783 
L 167.080688 440.841335 
L 167.705375 439.511888 
L 168.776267 438.18244 
L 168.865508 436.852993 
L 170.918051 434.194098 
L 172.256666 432.86465 
L 172.435148 430.205755 
L 172.792112 428.876308 
L 173.50604 427.54686 
L 173.863004 426.217413 
L 174.041486 424.887965 
L 174.39845 423.558518 
L 175.201619 422.22907 
L 175.647824 420.899623 
L 176.540234 419.570175 
L 177.254162 416.91128 
L 180.73456 412.922938 
L 181.448488 411.59349 
L 182.51938 410.264043 
L 182.965585 408.934595 
L 183.144067 406.2757 
L 184.482682 404.946253 
L 185.642815 403.616805 
L 185.910538 400.95791 
L 187.070671 396.969568 
L 187.070671 394.310673 
L 187.516876 392.981225 
L 187.87384 390.32233 
L 189.65866 388.992883 
L 190.283347 386.333988 
L 190.997275 385.00454 
L 191.175757 383.675093 
L 191.175757 382.345645 
L 192.960577 379.686751 
L 193.674505 375.698408 
L 194.834637 373.039513 
L 196.619457 371.710066 
L 196.708698 369.051171 
L 196.88718 367.721723 
L 197.601108 366.392276 
L 197.690349 365.062828 
L 198.672 363.733381 
L 200.367579 361.074486 
L 200.635302 359.745038 
L 201.259989 358.415591 
L 202.24164 357.086143 
L 202.866327 354.427248 
L 203.758737 353.097801 
L 204.115701 351.768353 
L 204.829629 350.438906 
L 205.186593 349.109458 
L 205.722039 347.780011 
L 205.722039 346.450563 
L 207.506859 343.791668 
L 210.184088 342.462221 
L 210.184088 338.473878 
L 211.076498 337.144431 
L 211.076498 335.814983 
L 212.861318 334.485536 
L 213.753728 333.156088 
L 213.753728 330.497193 
L 214.646138 329.167746 
L 214.646138 327.838298 
L 217.323368 323.849956 
L 217.323368 319.861613 
L 219.108188 317.202718 
L 219.108188 313.214376 
L 220.000598 311.884928 
L 220.000598 307.896586 
L 220.893008 306.567138 
L 220.893008 305.237691 
L 221.785418 303.908243 
L 221.785418 302.578796 
L 222.677827 301.249348 
L 222.677827 299.919901 
L 226.247467 294.602111 
L 226.247467 290.613769 
L 227.139877 289.284321 
L 227.139877 287.954874 
L 229.817107 283.966531 
L 229.817107 279.978189 
L 230.709517 278.648741 
L 230.709517 277.319294 
L 233.386747 273.330951 
L 233.386747 272.001504 
L 235.171567 270.672056 
L 235.171567 269.342609 
L 236.063976 268.013161 
L 236.063976 266.683714 
L 236.956386 265.354266 
L 236.956386 264.024819 
L 238.741206 262.695371 
L 238.741206 261.365924 
L 240.526026 258.707029 
L 240.526026 257.377581 
L 241.418436 256.048134 
L 243.203256 254.718686 
L 244.095666 253.389239 
L 244.095666 250.730344 
L 245.880486 248.071449 
L 245.880486 246.742001 
L 247.665306 245.412554 
L 248.557716 244.083106 
L 248.557716 241.424211 
L 249.450126 240.094764 
L 252.127355 238.765316 
L 253.019765 237.435869 
L 253.019765 236.106421 
L 253.912175 234.776974 
L 253.912175 233.447526 
L 254.804585 232.118079 
L 256.589405 230.788631 
L 259.266635 226.800289 
L 259.266635 225.470841 
L 261.051455 222.811946 
L 261.051455 218.823604 
L 261.943865 217.494157 
L 269.083144 216.164709 
L 269.975554 214.835262 
L 272.652784 213.505814 
L 276.222424 210.846919 
L 277.114834 209.517472 
L 277.114834 208.188024 
L 278.007243 206.858577 
L 278.007243 204.199682 
L 278.899653 202.870234 
L 278.899653 201.540787 
L 280.684473 200.211339 
L 280.684473 198.881892 
L 281.576883 197.552444 
L 281.576883 196.222997 
L 282.469293 194.893549 
L 282.469293 190.905207 
L 283.361703 189.575759 
L 285.146523 188.246312 
L 287.823753 186.916864 
L 287.823753 185.587417 
L 288.716163 184.257969 
L 288.716163 182.928522 
L 292.285802 177.610732 
L 292.285802 176.281284 
L 293.178212 174.951837 
L 293.178212 173.622389 
L 294.070622 172.292942 
L 294.070622 170.963494 
L 295.855442 169.634047 
L 301.209902 168.304599 
L 301.209902 166.975152 
L 302.102312 165.645704 
L 302.102312 164.316257 
L 303.887132 161.657362 
L 303.887132 160.327914 
L 305.671951 157.669019 
L 305.671951 156.339572 
L 306.564361 155.010124 
L 306.564361 153.680677 
L 310.134001 152.351229 
L 310.134001 151.021782 
L 311.026411 149.692334 
L 311.026411 148.362887 
L 311.918821 147.033439 
L 314.596051 145.703992 
L 315.488461 144.374544 
L 315.488461 143.045097 
L 319.95051 141.715649 
L 321.73533 139.056755 
L 321.73533 137.727307 
L 324.41256 133.738965 
L 329.76702 131.08007 
L 336.013889 129.750622 
L 336.013889 128.421175 
L 343.153169 123.103385 
L 348.507628 121.773937 
L 348.507628 120.44449 
L 349.400038 119.115042 
L 349.400038 117.785595 
L 351.184858 116.456147 
L 351.184858 115.1267 
L 352.077268 113.797252 
L 354.754498 112.467805 
L 358.324138 111.138357 
L 358.324138 107.150015 
L 361.893777 105.820567 
L 362.786187 104.49112 
L 364.571007 103.161672 
L 369.033057 101.832225 
L 371.710287 100.502777 
L 373.495107 99.17333 
L 377.957156 97.843882 
L 379.741976 96.514435 
L 380.634386 95.184987 
L 382.419206 93.85554 
L 385.096436 92.526092 
L 385.988846 91.196645 
L 385.988846 89.867197 
L 391.343305 87.208302 
L 391.343305 85.878855 
L 392.235715 84.549407 
L 394.020535 83.21996 
L 394.912945 81.890512 
L 397.590175 80.561065 
L 401.159815 79.231617 
L 417.223193 77.90217 
L 417.223193 76.572722 
L 418.115603 75.243275 
L 418.115603 73.913827 
L 426.147293 72.58438 
L 429.716932 69.925485 
L 443.103082 68.596037 
L 451.134771 67.26659 
L 453.812001 65.937142 
L 477.014659 64.607695 
L 589.458311 63.278247 
L 657.281466 61.9488 
L 657.281466 61.9488 
" style="fill:none;stroke:#d95f02;stroke-dasharray:3.7,1.6;stroke-dashoffset:0;"/>
   </g>
   <g id="line2d_72">
    <path clip-path="url(#p7ef278bfb8)" d="M 145.216645 458.124153 
L 145.841332 456.794705 
L 146.109055 455.465258 
L 152.088202 454.13581 
L 152.534407 452.806363 
L 154.051503 450.147468 
L 156.728733 448.81802 
L 156.817974 446.159125 
L 157.264179 444.829678 
L 157.264179 443.50023 
L 157.442661 442.170783 
L 158.067348 440.841335 
L 158.156589 439.511888 
L 158.692035 438.18244 
L 159.584445 436.852993 
L 159.673686 435.523545 
L 161.012301 432.86465 
L 161.280024 431.535203 
L 162.440157 430.205755 
L 162.618639 427.54686 
L 162.886362 426.217413 
L 162.975603 424.887965 
L 164.671182 422.22907 
L 166.099038 418.240728 
L 169.311713 415.581833 
L 169.668677 414.252385 
L 169.847159 412.922938 
L 169.9364 408.934595 
L 170.918051 407.605148 
L 171.631979 406.2757 
L 171.72122 403.616805 
L 172.702871 400.95791 
L 173.238317 399.628463 
L 173.50604 396.969568 
L 173.50604 395.64012 
L 174.844655 392.981225 
L 174.933896 391.651778 
L 175.29086 390.32233 
L 175.380101 388.992883 
L 176.094029 387.663435 
L 176.540234 385.00454 
L 177.254162 383.675093 
L 178.592777 382.345645 
L 178.592777 381.016198 
L 178.949741 379.686751 
L 179.038982 378.357303 
L 179.306705 377.027856 
L 179.485187 374.368961 
L 179.842151 373.039513 
L 180.199115 370.380618 
L 180.199115 369.051171 
L 180.645319 367.721723 
L 180.823801 365.062828 
L 181.359247 362.403933 
L 181.537729 359.745038 
L 182.162416 358.415591 
L 182.608621 355.756696 
L 183.054826 354.427248 
L 183.233308 351.768353 
L 183.857995 349.109458 
L 183.857995 347.780011 
L 184.214959 346.450563 
L 185.464333 345.121116 
L 186.267502 343.791668 
L 186.445984 342.462221 
L 186.98143 341.132773 
L 187.159912 339.803326 
L 187.784599 338.473878 
L 188.141563 337.144431 
L 188.230804 334.485536 
L 188.230804 333.156088 
L 188.76625 331.826641 
L 189.123214 330.497193 
L 189.65866 329.167746 
L 189.747901 326.508851 
L 190.729552 319.861613 
L 191.264998 317.202718 
L 191.354239 314.543823 
L 191.44348 313.214376 
L 191.889685 310.555481 
L 191.889685 309.226033 
L 192.425131 307.896586 
L 192.603613 306.567138 
L 192.960577 305.237691 
L 193.139059 303.908243 
L 193.496023 302.578796 
L 194.20995 301.249348 
L 194.566914 299.919901 
L 194.745396 297.261006 
L 195.370083 295.931559 
L 195.637806 294.602111 
L 195.637806 293.272664 
L 196.619457 289.284321 
L 196.976421 286.625426 
L 198.136554 285.295979 
L 198.672 283.966531 
L 199.475169 282.637084 
L 199.832133 279.978189 
L 199.921374 277.319294 
L 200.189097 275.989846 
L 200.635302 274.660399 
L 200.635302 273.330951 
L 200.903025 270.672056 
L 201.259989 266.683714 
L 203.13405 264.024819 
L 204.294183 262.695371 
L 204.383424 261.365924 
L 205.722039 260.036476 
L 205.722039 258.707029 
L 206.614449 257.377581 
L 206.614449 252.059791 
L 207.506859 250.730344 
L 207.506859 249.400896 
L 208.399268 248.071449 
L 208.399268 244.083106 
L 210.184088 241.424211 
L 210.184088 238.765316 
L 211.076498 237.435869 
L 212.861318 236.106421 
L 212.861318 234.776974 
L 214.646138 233.447526 
L 215.538548 232.118079 
L 215.538548 229.459184 
L 217.323368 228.129736 
L 217.323368 226.800289 
L 218.215778 225.470841 
L 218.215778 224.141394 
L 220.000598 221.482499 
L 220.000598 218.823604 
L 220.893008 217.494157 
L 220.893008 213.505814 
L 221.785418 212.176367 
L 221.785418 210.846919 
L 223.570237 209.517472 
L 225.355057 206.858577 
L 225.355057 204.199682 
L 226.247467 202.870234 
L 226.247467 200.211339 
L 227.139877 198.881892 
L 227.139877 197.552444 
L 228.032287 196.222997 
L 228.032287 193.564102 
L 228.924697 192.234654 
L 228.924697 189.575759 
L 230.709517 188.246312 
L 230.709517 185.587417 
L 232.494337 182.928522 
L 232.494337 181.599074 
L 235.171567 177.610732 
L 235.171567 176.281284 
L 236.956386 173.622389 
L 236.956386 169.634047 
L 238.741206 166.975152 
L 238.741206 165.645704 
L 239.633616 164.316257 
L 242.310846 162.986809 
L 245.880486 157.669019 
L 245.880486 156.339572 
L 246.772896 155.010124 
L 246.772896 151.021782 
L 247.665306 149.692334 
L 247.665306 148.362887 
L 249.450126 147.033439 
L 250.342535 145.703992 
L 250.342535 144.374544 
L 251.234945 143.045097 
L 251.234945 141.715649 
L 253.019765 140.386202 
L 255.696995 139.056755 
L 255.696995 137.727307 
L 257.481815 135.068412 
L 257.481815 133.738965 
L 258.374225 132.409517 
L 258.374225 131.08007 
L 259.266635 129.750622 
L 259.266635 125.76228 
L 260.159045 124.432832 
L 260.159045 121.773937 
L 262.836275 120.44449 
L 262.836275 119.115042 
L 263.728684 117.785595 
L 267.298324 116.456147 
L 267.298324 115.1267 
L 269.975554 113.797252 
L 270.867964 112.467805 
L 270.867964 111.138357 
L 276.222424 107.150015 
L 278.899653 105.820567 
L 278.899653 104.49112 
L 280.684473 103.161672 
L 280.684473 101.832225 
L 282.469293 100.502777 
L 285.146523 99.17333 
L 285.146523 97.843882 
L 288.716163 96.514435 
L 290.500983 93.85554 
L 294.070622 92.526092 
L 295.855442 89.867197 
L 299.425082 88.53775 
L 299.425082 87.208302 
L 302.994722 85.878855 
L 303.887132 84.549407 
L 305.671951 83.21996 
L 305.671951 81.890512 
L 308.349181 80.561065 
L 316.380871 79.231617 
L 328.87461 77.90217 
L 331.55184 76.572722 
L 340.475939 75.243275 
L 344.045579 73.913827 
L 346.722808 72.58438 
L 350.292448 71.254932 
L 351.184858 69.925485 
L 351.184858 68.596037 
L 375.279926 67.26659 
L 411.868734 65.937142 
L 461.84369 64.607695 
L 472.552609 63.278247 
L 504.679367 61.9488 
L 504.679367 61.9488 
" style="fill:none;stroke:#7570b3;stroke-dasharray:2,4;stroke-dashoffset:0;"/>
   </g>
   <g id="line2d_73">
    <path clip-path="url(#p7ef278bfb8)" d="M 150.392623 458.128584 
L 150.928069 456.803568 
L 152.355925 455.478552 
L 154.854672 454.153536 
L 154.854672 452.82852 
L 155.836323 451.503504 
L 156.104046 450.178488 
L 156.996456 448.853472 
L 160.209132 447.528456 
L 160.476855 446.20344 
L 161.636988 444.878424 
L 162.083193 443.553408 
L 162.797121 442.228392 
L 163.064844 439.57836 
L 164.4927 438.253344 
L 166.27752 436.928328 
L 167.25917 435.603312 
L 167.616134 434.278296 
L 168.15158 432.95328 
L 168.240821 428.978232 
L 170.114882 427.653216 
L 170.114882 426.3282 
L 170.471846 425.003184 
L 171.810461 423.678168 
L 172.167425 422.353152 
L 172.970594 421.028136 
L 173.149076 419.70312 
L 174.041486 418.378104 
L 174.041486 417.053088 
L 174.39845 415.728072 
L 174.933896 414.403056 
L 174.933896 413.07804 
L 176.094029 411.753024 
L 177.07568 410.428008 
L 177.611126 409.102992 
L 177.611126 407.777976 
L 178.414295 406.45296 
L 179.75291 405.127944 
L 181.448488 403.802928 
L 182.697862 402.477912 
L 182.787103 401.152896 
L 183.233308 399.82788 
L 183.857995 398.502864 
L 184.125718 397.177848 
L 184.125718 394.527816 
L 184.750405 393.2028 
L 184.750405 391.877784 
L 185.107369 390.552768 
L 185.285851 389.227752 
L 185.821297 387.902736 
L 185.821297 386.57772 
L 188.409286 385.252704 
L 189.837142 383.927688 
L 190.283347 382.602672 
L 190.461829 381.277656 
L 191.086516 379.95264 
L 191.44348 378.627624 
L 192.068167 373.32756 
L 192.157408 372.002544 
L 192.425131 370.677528 
L 192.692854 368.027496 
L 193.852987 365.377464 
L 194.388432 364.052448 
L 194.656155 362.727432 
L 194.745396 361.402416 
L 195.191601 360.0774 
L 195.280842 358.752384 
L 195.727047 357.427368 
L 195.727047 356.102352 
L 196.530216 350.802288 
L 196.88718 349.477272 
L 196.88718 348.152256 
L 197.244144 346.82724 
L 197.244144 345.502224 
L 197.958072 340.20216 
L 198.315036 338.877144 
L 198.850482 337.552128 
L 199.921374 336.227112 
L 202.063158 334.902096 
L 202.509363 333.57708 
L 202.687845 332.252064 
L 203.847978 330.927048 
L 203.847978 328.277016 
L 204.561906 326.952 
L 204.651147 325.626984 
L 205.722039 322.976952 
L 206.614449 321.651936 
L 206.614449 319.001904 
L 207.506859 317.676888 
L 207.506859 315.026856 
L 209.291678 313.70184 
L 209.291678 309.726792 
L 210.184088 308.401776 
L 210.184088 307.07676 
L 211.968908 304.426728 
L 211.968908 303.101712 
L 212.861318 301.776696 
L 212.861318 299.126664 
L 214.646138 296.476632 
L 214.646138 293.8266 
L 215.538548 292.501584 
L 215.538548 289.851552 
L 216.430958 288.526536 
L 218.215778 287.20152 
L 218.215778 284.551488 
L 219.108188 283.226472 
L 219.108188 279.251424 
L 220.000598 277.926408 
L 220.000598 276.601392 
L 222.677827 275.276376 
L 222.677827 273.95136 
L 224.462647 272.626344 
L 224.462647 271.301328 
L 226.247467 269.976312 
L 227.139877 268.651296 
L 227.139877 267.32628 
L 228.924697 264.676248 
L 228.924697 263.351232 
L 229.817107 262.026216 
L 229.817107 260.7012 
L 231.601927 258.051168 
L 231.601927 256.726152 
L 232.494337 255.401136 
L 234.279157 254.07612 
L 234.279157 251.426088 
L 235.171567 250.101072 
L 235.171567 247.45104 
L 237.848796 243.475992 
L 237.848796 240.82596 
L 238.741206 239.500944 
L 241.418436 238.175928 
L 241.418436 234.20088 
L 244.095666 230.225832 
L 244.095666 228.900816 
L 244.988076 227.5758 
L 244.988076 226.250784 
L 245.880486 224.925768 
L 245.880486 220.95072 
L 247.665306 218.300688 
L 249.450126 216.975672 
L 251.234945 214.32564 
L 251.234945 213.000624 
L 252.127355 211.675608 
L 252.127355 210.350592 
L 253.019765 209.025576 
L 253.019765 206.375544 
L 253.912175 205.050528 
L 253.912175 203.725512 
L 255.696995 202.400496 
L 256.589405 201.07548 
L 256.589405 199.750464 
L 257.481815 198.425448 
L 257.481815 195.775416 
L 258.374225 194.4504 
L 258.374225 191.800368 
L 261.943865 189.150336 
L 262.836275 187.82532 
L 266.405914 186.500304 
L 266.405914 185.175288 
L 268.190734 183.850272 
L 268.190734 181.20024 
L 269.975554 178.550208 
L 269.975554 177.225192 
L 270.867964 175.900176 
L 270.867964 174.57516 
L 271.760374 173.250144 
L 273.545194 171.925128 
L 273.545194 170.600112 
L 274.437604 169.275096 
L 277.114834 167.95008 
L 278.007243 166.625064 
L 278.007243 165.300048 
L 278.899653 163.975032 
L 278.899653 162.650016 
L 279.792063 161.325 
L 279.792063 159.999984 
L 282.469293 156.024936 
L 282.469293 154.69992 
L 284.254113 153.374904 
L 286.038933 150.724872 
L 286.038933 149.399856 
L 288.716163 148.07484 
L 288.716163 146.749824 
L 289.608573 145.424808 
L 289.608573 144.099792 
L 294.963032 136.149696 
L 294.963032 133.499664 
L 295.855442 132.174648 
L 295.855442 130.849632 
L 297.640262 129.524616 
L 299.425082 126.874584 
L 299.425082 124.224552 
L 304.779542 120.249504 
L 304.779542 118.924488 
L 310.134001 116.274456 
L 311.918821 114.94944 
L 313.703641 112.299408 
L 317.273281 110.974392 
L 319.0581 109.649376 
L 321.73533 108.32436 
L 321.73533 106.999344 
L 325.30497 101.69928 
L 327.9822 100.374264 
L 327.9822 99.049248 
L 334.229069 97.724232 
L 335.121479 96.399216 
L 339.583529 95.0742 
L 339.583529 93.749184 
L 340.475939 92.424168 
L 340.475939 91.099152 
L 343.153169 89.774136 
L 344.937989 88.44912 
L 344.937989 87.124104 
L 350.292448 85.799088 
L 352.969678 84.474072 
L 364.571007 83.149056 
L 370.817877 81.82404 
L 371.710287 80.499024 
L 374.387516 79.174008 
L 378.849566 77.848992 
L 389.558485 76.523976 
L 391.343305 75.19896 
L 398.482585 73.873944 
L 403.837044 72.548928 
L 408.299094 71.223912 
L 427.932113 69.898896 
L 427.932113 68.57388 
L 432.394162 67.248864 
L 434.178982 65.923848 
L 436.856212 64.598832 
L 623.369889 63.273816 
L 733.136311 61.9488 
L 733.136311 61.9488 
" style="fill:none;stroke:#e7298a;stroke-dasharray:8,4,2,4;stroke-dashoffset:0;"/>
   </g>
   <g id="line2d_74">
    <path clip-path="url(#p7ef278bfb8)" d="M 140.576113 458.124153 
L 149.321731 456.794705 
L 151.374274 455.465258 
L 151.90972 454.13581 
L 154.140744 452.806363 
L 155.211636 451.476915 
L 155.5686 450.147468 
L 156.193287 448.81802 
L 156.282528 446.159125 
L 156.550251 444.829678 
L 156.639492 443.50023 
L 157.174938 442.170783 
L 157.978107 440.841335 
L 159.048999 439.511888 
L 159.405963 438.18244 
L 159.405963 436.852993 
L 161.904711 435.523545 
L 162.350916 434.194098 
L 162.618639 432.86465 
L 162.886362 430.205755 
L 163.154085 428.876308 
L 163.243326 427.54686 
L 163.778772 426.217413 
L 164.4927 424.887965 
L 164.760423 423.558518 
L 165.652833 422.22907 
L 165.742074 420.899623 
L 167.348411 418.240728 
L 168.15158 415.581833 
L 169.222472 414.252385 
L 169.222472 411.59349 
L 169.757918 410.264043 
L 170.114882 408.934595 
L 170.561087 406.2757 
L 170.918051 404.946253 
L 171.275015 400.95791 
L 171.542738 399.628463 
L 171.631979 396.969568 
L 172.167425 395.64012 
L 172.167425 392.981225 
L 172.345907 391.651778 
L 172.792112 390.32233 
L 172.970594 388.992883 
L 173.50604 387.663435 
L 173.863004 383.675093 
L 174.576932 382.345645 
L 175.023137 381.016198 
L 175.112378 379.686751 
L 175.558583 378.357303 
L 175.826306 377.027856 
L 176.986439 375.698408 
L 176.986439 374.368961 
L 177.878849 373.039513 
L 177.96809 371.710066 
L 178.592777 369.051171 
L 178.949741 366.392276 
L 179.574428 365.062828 
L 180.645319 363.733381 
L 180.73456 362.403933 
L 181.270006 361.074486 
L 182.162416 357.086143 
L 182.162416 355.756696 
L 182.340898 354.427248 
L 183.233308 353.097801 
L 184.036477 350.438906 
L 185.107369 349.109458 
L 185.642815 345.121116 
L 185.642815 342.462221 
L 186.178261 341.132773 
L 186.624466 337.144431 
L 186.713707 335.814983 
L 187.338394 333.156088 
L 187.516876 331.826641 
L 187.606117 329.167746 
L 188.052322 327.838298 
L 189.123214 326.508851 
L 189.480178 323.849956 
L 189.480178 322.520508 
L 189.926383 319.861613 
L 190.908034 317.202718 
L 190.908034 315.873271 
L 191.175757 314.543823 
L 191.264998 313.214376 
L 191.621962 311.884928 
L 192.157408 310.555481 
L 193.049818 309.226033 
L 194.299191 299.919901 
L 194.834637 298.590454 
L 195.280842 295.931559 
L 195.727047 293.272664 
L 196.262493 291.943216 
L 197.065662 286.625426 
L 197.601108 283.966531 
L 198.582759 282.637084 
L 198.582759 281.307636 
L 199.653651 279.978189 
L 199.921374 278.648741 
L 201.170748 277.319294 
L 201.884676 274.660399 
L 202.063158 273.330951 
L 202.598604 272.001504 
L 202.866327 270.672056 
L 203.044809 268.013161 
L 204.829629 266.683714 
L 204.91887 264.024819 
L 205.722039 261.365924 
L 206.614449 260.036476 
L 206.614449 258.707029 
L 207.506859 257.377581 
L 207.506859 254.718686 
L 208.399268 253.389239 
L 208.399268 250.730344 
L 209.291678 249.400896 
L 209.291678 246.742001 
L 210.184088 245.412554 
L 210.184088 242.753659 
L 211.968908 241.424211 
L 212.861318 240.094764 
L 212.861318 234.776974 
L 213.753728 233.447526 
L 213.753728 228.129736 
L 214.646138 226.800289 
L 214.646138 224.141394 
L 215.538548 222.811946 
L 215.538548 220.153052 
L 218.215778 218.823604 
L 218.215778 214.835262 
L 219.108188 213.505814 
L 219.108188 209.517472 
L 220.000598 208.188024 
L 220.000598 206.858577 
L 221.785418 205.529129 
L 221.785418 204.199682 
L 222.677827 202.870234 
L 222.677827 198.881892 
L 224.462647 197.552444 
L 227.139877 193.564102 
L 227.139877 192.234654 
L 230.709517 186.916864 
L 230.709517 184.257969 
L 231.601927 182.928522 
L 231.601927 181.599074 
L 233.386747 180.269627 
L 234.279157 178.940179 
L 234.279157 174.951837 
L 235.171567 173.622389 
L 235.171567 169.634047 
L 236.956386 168.304599 
L 236.956386 166.975152 
L 237.848796 165.645704 
L 237.848796 162.986809 
L 238.741206 161.657362 
L 238.741206 157.669019 
L 239.633616 156.339572 
L 239.633616 155.010124 
L 243.203256 149.692334 
L 243.203256 147.033439 
L 244.988076 144.374544 
L 247.665306 143.045097 
L 247.665306 141.715649 
L 249.450126 139.056755 
L 249.450126 137.727307 
L 250.342535 136.39786 
L 250.342535 135.068412 
L 254.804585 128.421175 
L 254.804585 125.76228 
L 255.696995 124.432832 
L 257.481815 123.103385 
L 260.159045 119.115042 
L 260.159045 117.785595 
L 261.943865 115.1267 
L 261.943865 113.797252 
L 264.621094 112.467805 
L 264.621094 108.479462 
L 266.405914 107.150015 
L 267.298324 105.820567 
L 267.298324 104.49112 
L 268.190734 103.161672 
L 268.190734 100.502777 
L 270.867964 96.514435 
L 272.652784 95.184987 
L 272.652784 93.85554 
L 274.437604 92.526092 
L 274.437604 91.196645 
L 275.330014 89.867197 
L 277.114834 88.53775 
L 278.007243 87.208302 
L 283.361703 84.549407 
L 283.361703 83.21996 
L 286.038933 81.890512 
L 289.608573 79.231617 
L 289.608573 77.90217 
L 292.285802 76.572722 
L 293.178212 75.243275 
L 298.532672 72.58438 
L 310.134001 71.254932 
L 315.488461 69.925485 
L 318.165691 68.596037 
L 334.229069 67.26659 
L 373.495107 65.937142 
L 377.064746 64.607695 
L 427.039703 63.278247 
L 703.686783 61.9488 
L 703.686783 61.9488 
" style="fill:none;stroke:#66a61e;stroke-linecap:round;"/>
    <defs>
     <path d="M 0 3 
C 0.795609 3 1.55874 2.683901 2.12132 2.12132 
C 2.683901 1.55874 3 0.795609 3 0 
C 3 -0.795609 2.683901 -1.55874 2.12132 -2.12132 
C 1.55874 -2.683901 0.795609 -3 0 -3 
C -0.795609 -3 -1.55874 -2.683901 -2.12132 -2.12132 
C -2.683901 -1.55874 -3 -0.795609 -3 0 
C -3 0.795609 -2.683901 1.55874 -2.12132 2.12132 
C -1.55874 2.683901 -0.795609 3 0 3 
z
" id="m0fdf4e8eb0" style="stroke:#66a61e;"/>
    </defs>
    <g clip-path="url(#p7ef278bfb8)">
     <use style="fill:#66a61e;stroke:#66a61e;" x="140.576113" xlink:href="#m0fdf4e8eb0" y="458.124153"/>
     <use style="fill:#66a61e;stroke:#66a61e;" x="156.550251" xlink:href="#m0fdf4e8eb0" y="444.829678"/>
     <use style="fill:#66a61e;stroke:#66a61e;" x="162.70788" xlink:href="#m0fdf4e8eb0" y="431.535203"/>
     <use style="fill:#66a61e;stroke:#66a61e;" x="167.348411" xlink:href="#m0fdf4e8eb0" y="418.240728"/>
     <use style="fill:#66a61e;stroke:#66a61e;" x="170.918051" xlink:href="#m0fdf4e8eb0" y="404.946253"/>
     <use style="fill:#66a61e;stroke:#66a61e;" x="172.345907" xlink:href="#m0fdf4e8eb0" y="391.651778"/>
     <use style="fill:#66a61e;stroke:#66a61e;" x="175.558583" xlink:href="#m0fdf4e8eb0" y="378.357303"/>
     <use style="fill:#66a61e;stroke:#66a61e;" x="179.574428" xlink:href="#m0fdf4e8eb0" y="365.062828"/>
     <use style="fill:#66a61e;stroke:#66a61e;" x="183.590272" xlink:href="#m0fdf4e8eb0" y="351.768353"/>
     <use style="fill:#66a61e;stroke:#66a61e;" x="186.624466" xlink:href="#m0fdf4e8eb0" y="338.473878"/>
     <use style="fill:#66a61e;stroke:#66a61e;" x="189.301696" xlink:href="#m0fdf4e8eb0" y="325.179403"/>
     <use style="fill:#66a61e;stroke:#66a61e;" x="191.621962" xlink:href="#m0fdf4e8eb0" y="311.884928"/>
     <use style="fill:#66a61e;stroke:#66a61e;" x="194.834637" xlink:href="#m0fdf4e8eb0" y="298.590454"/>
     <use style="fill:#66a61e;stroke:#66a61e;" x="197.333385" xlink:href="#m0fdf4e8eb0" y="285.295979"/>
     <use style="fill:#66a61e;stroke:#66a61e;" x="202.598604" xlink:href="#m0fdf4e8eb0" y="272.001504"/>
     <use style="fill:#66a61e;stroke:#66a61e;" x="206.614449" xlink:href="#m0fdf4e8eb0" y="258.707029"/>
     <use style="fill:#66a61e;stroke:#66a61e;" x="210.184088" xlink:href="#m0fdf4e8eb0" y="245.412554"/>
     <use style="fill:#66a61e;stroke:#66a61e;" x="213.753728" xlink:href="#m0fdf4e8eb0" y="232.118079"/>
     <use style="fill:#66a61e;stroke:#66a61e;" x="218.215778" xlink:href="#m0fdf4e8eb0" y="218.823604"/>
     <use style="fill:#66a61e;stroke:#66a61e;" x="221.785418" xlink:href="#m0fdf4e8eb0" y="205.529129"/>
     <use style="fill:#66a61e;stroke:#66a61e;" x="227.139877" xlink:href="#m0fdf4e8eb0" y="192.234654"/>
     <use style="fill:#66a61e;stroke:#66a61e;" x="234.279157" xlink:href="#m0fdf4e8eb0" y="178.940179"/>
     <use style="fill:#66a61e;stroke:#66a61e;" x="237.848796" xlink:href="#m0fdf4e8eb0" y="165.645704"/>
     <use style="fill:#66a61e;stroke:#66a61e;" x="241.418436" xlink:href="#m0fdf4e8eb0" y="152.351229"/>
     <use style="fill:#66a61e;stroke:#66a61e;" x="249.450126" xlink:href="#m0fdf4e8eb0" y="139.056755"/>
     <use style="fill:#66a61e;stroke:#66a61e;" x="254.804585" xlink:href="#m0fdf4e8eb0" y="125.76228"/>
     <use style="fill:#66a61e;stroke:#66a61e;" x="264.621094" xlink:href="#m0fdf4e8eb0" y="112.467805"/>
     <use style="fill:#66a61e;stroke:#66a61e;" x="269.083144" xlink:href="#m0fdf4e8eb0" y="99.17333"/>
     <use style="fill:#66a61e;stroke:#66a61e;" x="280.684473" xlink:href="#m0fdf4e8eb0" y="85.878855"/>
     <use style="fill:#66a61e;stroke:#66a61e;" x="298.532672" xlink:href="#m0fdf4e8eb0" y="72.58438"/>
    </g>
   </g>
   <g id="patch_3">
    <path d="M 122.13 459.4536 
L 122.13 61.9488 
" style="fill:none;"/>
   </g>
   <g id="patch_4">
    <path d="M 741.168 459.4536 
L 741.168 61.9488 
" style="fill:none;"/>
   </g>
   <g id="patch_5">
    <path d="M 122.13 459.4536 
L 741.168 459.4536 
" style="fill:none;"/>
   </g>
   <g id="patch_6">
    <path d="M 122.13 61.9488 
L 741.168 61.9488 
" style="fill:none;"/>
   </g>
   <g id="legend_1">
    <g id="line2d_75">
     <path d="M 756.88076 68.694798 
L 773.54076 68.694798 
" style="fill:none;stroke:#1b9e77;stroke-linecap:round;"/>
    </g>
    <g id="line2d_76"/>
    <g id="text_16">
     <!-- Ping (ms) - BBRn-fq -->
     <g transform="translate(780.20476 71.610298)scale(0.0833 -0.0833)">
      <defs>
       <path d="M 19.671875 64.796875 
L 19.671875 37.40625 
L 32.078125 37.40625 
Q 38.96875 37.40625 42.71875 40.96875 
Q 46.484375 44.53125 46.484375 51.125 
Q 46.484375 57.671875 42.71875 61.234375 
Q 38.96875 64.796875 32.078125 64.796875 
z
M 9.8125 72.90625 
L 32.078125 72.90625 
Q 44.34375 72.90625 50.609375 67.359375 
Q 56.890625 61.8125 56.890625 51.125 
Q 56.890625 40.328125 50.609375 34.8125 
Q 44.34375 29.296875 32.078125 29.296875 
L 19.671875 29.296875 
L 19.671875 0 
L 9.8125 0 
z
" id="DejaVuSans-80"/>
       <path d="M 54.890625 33.015625 
L 54.890625 0 
L 45.90625 0 
L 45.90625 32.71875 
Q 45.90625 40.484375 42.875 44.328125 
Q 39.84375 48.1875 33.796875 48.1875 
Q 26.515625 48.1875 22.3125 43.546875 
Q 18.109375 38.921875 18.109375 30.90625 
L 18.109375 0 
L 9.078125 0 
L 9.078125 54.6875 
L 18.109375 54.6875 
L 18.109375 46.1875 
Q 21.34375 51.125 25.703125 53.5625 
Q 30.078125 56 35.796875 56 
Q 45.21875 56 50.046875 50.171875 
Q 54.890625 44.34375 54.890625 33.015625 
z
" id="DejaVuSans-110"/>
       <path d="M 45.40625 27.984375 
Q 45.40625 37.75 41.375 43.109375 
Q 37.359375 48.484375 30.078125 48.484375 
Q 22.859375 48.484375 18.828125 43.109375 
Q 14.796875 37.75 14.796875 27.984375 
Q 14.796875 18.265625 18.828125 12.890625 
Q 22.859375 7.515625 30.078125 7.515625 
Q 37.359375 7.515625 41.375 12.890625 
Q 45.40625 18.265625 45.40625 27.984375 
z
M 54.390625 6.78125 
Q 54.390625 -7.171875 48.1875 -13.984375 
Q 42 -20.796875 29.203125 -20.796875 
Q 24.46875 -20.796875 20.265625 -20.09375 
Q 16.0625 -19.390625 12.109375 -17.921875 
L 12.109375 -9.1875 
Q 16.0625 -11.328125 19.921875 -12.34375 
Q 23.78125 -13.375 27.78125 -13.375 
Q 36.625 -13.375 41.015625 -8.765625 
Q 45.40625 -4.15625 45.40625 5.171875 
L 45.40625 9.625 
Q 42.625 4.78125 38.28125 2.390625 
Q 33.9375 0 27.875 0 
Q 17.828125 0 11.671875 7.65625 
Q 5.515625 15.328125 5.515625 27.984375 
Q 5.515625 40.671875 11.671875 48.328125 
Q 17.828125 56 27.875 56 
Q 33.9375 56 38.28125 53.609375 
Q 42.625 51.21875 45.40625 46.390625 
L 45.40625 54.6875 
L 54.390625 54.6875 
z
" id="DejaVuSans-103"/>
       <path d="M 31 75.875 
Q 24.46875 64.65625 21.28125 53.65625 
Q 18.109375 42.671875 18.109375 31.390625 
Q 18.109375 20.125 21.3125 9.0625 
Q 24.515625 -2 31 -13.1875 
L 23.1875 -13.1875 
Q 15.875 -1.703125 12.234375 9.375 
Q 8.59375 20.453125 8.59375 31.390625 
Q 8.59375 42.28125 12.203125 53.3125 
Q 15.828125 64.359375 23.1875 75.875 
z
" id="DejaVuSans-40"/>
       <path d="M 8.015625 75.875 
L 15.828125 75.875 
Q 23.140625 64.359375 26.78125 53.3125 
Q 30.421875 42.28125 30.421875 31.390625 
Q 30.421875 20.453125 26.78125 9.375 
Q 23.140625 -1.703125 15.828125 -13.1875 
L 8.015625 -13.1875 
Q 14.5 -2 17.703125 9.0625 
Q 20.90625 20.125 20.90625 31.390625 
Q 20.90625 42.671875 17.703125 53.65625 
Q 14.5 64.65625 8.015625 75.875 
z
" id="DejaVuSans-41"/>
       <path d="M 4.890625 31.390625 
L 31.203125 31.390625 
L 31.203125 23.390625 
L 4.890625 23.390625 
z
" id="DejaVuSans-45"/>
       <path d="M 19.671875 34.8125 
L 19.671875 8.109375 
L 35.5 8.109375 
Q 43.453125 8.109375 47.28125 11.40625 
Q 51.125 14.703125 51.125 21.484375 
Q 51.125 28.328125 47.28125 31.5625 
Q 43.453125 34.8125 35.5 34.8125 
z
M 19.671875 64.796875 
L 19.671875 42.828125 
L 34.28125 42.828125 
Q 41.5 42.828125 45.03125 45.53125 
Q 48.578125 48.25 48.578125 53.8125 
Q 48.578125 59.328125 45.03125 62.0625 
Q 41.5 64.796875 34.28125 64.796875 
z
M 9.8125 72.90625 
L 35.015625 72.90625 
Q 46.296875 72.90625 52.390625 68.21875 
Q 58.5 63.53125 58.5 54.890625 
Q 58.5 48.1875 55.375 44.234375 
Q 52.25 40.28125 46.1875 39.3125 
Q 53.46875 37.75 57.5 32.78125 
Q 61.53125 27.828125 61.53125 20.40625 
Q 61.53125 10.640625 54.890625 5.3125 
Q 48.25 0 35.984375 0 
L 9.8125 0 
z
" id="DejaVuSans-66"/>
       <path d="M 44.390625 34.1875 
Q 47.5625 33.109375 50.5625 29.59375 
Q 53.5625 26.078125 56.59375 19.921875 
L 66.609375 0 
L 56 0 
L 46.6875 18.703125 
Q 43.0625 26.03125 39.671875 28.421875 
Q 36.28125 30.8125 30.421875 30.8125 
L 19.671875 30.8125 
L 19.671875 0 
L 9.8125 0 
L 9.8125 72.90625 
L 32.078125 72.90625 
Q 44.578125 72.90625 50.734375 67.671875 
Q 56.890625 62.453125 56.890625 51.90625 
Q 56.890625 45.015625 53.6875 40.46875 
Q 50.484375 35.9375 44.390625 34.1875 
z
M 19.671875 64.796875 
L 19.671875 38.921875 
L 32.078125 38.921875 
Q 39.203125 38.921875 42.84375 42.21875 
Q 46.484375 45.515625 46.484375 51.90625 
Q 46.484375 58.296875 42.84375 61.546875 
Q 39.203125 64.796875 32.078125 64.796875 
z
" id="DejaVuSans-82"/>
       <path d="M 37.109375 75.984375 
L 37.109375 68.5 
L 28.515625 68.5 
Q 23.6875 68.5 21.796875 66.546875 
Q 19.921875 64.59375 19.921875 59.515625 
L 19.921875 54.6875 
L 34.71875 54.6875 
L 34.71875 47.703125 
L 19.921875 47.703125 
L 19.921875 0 
L 10.890625 0 
L 10.890625 47.703125 
L 2.296875 47.703125 
L 2.296875 54.6875 
L 10.890625 54.6875 
L 10.890625 58.5 
Q 10.890625 67.625 15.140625 71.796875 
Q 19.390625 75.984375 28.609375 75.984375 
z
" id="DejaVuSans-102"/>
       <path d="M 14.796875 27.296875 
Q 14.796875 17.390625 18.875 11.75 
Q 22.953125 6.109375 30.078125 6.109375 
Q 37.203125 6.109375 41.296875 11.75 
Q 45.40625 17.390625 45.40625 27.296875 
Q 45.40625 37.203125 41.296875 42.84375 
Q 37.203125 48.484375 30.078125 48.484375 
Q 22.953125 48.484375 18.875 42.84375 
Q 14.796875 37.203125 14.796875 27.296875 
z
M 45.40625 8.203125 
Q 42.578125 3.328125 38.25 0.953125 
Q 33.9375 -1.421875 27.875 -1.421875 
Q 17.96875 -1.421875 11.734375 6.484375 
Q 5.515625 14.40625 5.515625 27.296875 
Q 5.515625 40.1875 11.734375 48.09375 
Q 17.96875 56 27.875 56 
Q 33.9375 56 38.25 53.625 
Q 42.578125 51.265625 45.40625 46.390625 
L 45.40625 54.6875 
L 54.390625 54.6875 
L 54.390625 -20.796875 
L 45.40625 -20.796875 
z
" id="DejaVuSans-113"/>
      </defs>
      <use xlink:href="#DejaVuSans-80"/>
      <use x="58.052734" xlink:href="#DejaVuSans-105"/>
      <use x="85.835938" xlink:href="#DejaVuSans-110"/>
      <use x="149.214844" xlink:href="#DejaVuSans-103"/>
      <use x="212.691406" xlink:href="#DejaVuSans-32"/>
      <use x="244.478516" xlink:href="#DejaVuSans-40"/>
      <use x="283.492188" xlink:href="#DejaVuSans-109"/>
      <use x="380.904297" xlink:href="#DejaVuSans-115"/>
      <use x="433.003906" xlink:href="#DejaVuSans-41"/>
      <use x="472.017578" xlink:href="#DejaVuSans-32"/>
      <use x="503.804688" xlink:href="#DejaVuSans-45"/>
      <use x="539.888672" xlink:href="#DejaVuSans-32"/>
      <use x="571.675781" xlink:href="#DejaVuSans-66"/>
      <use x="640.279297" xlink:href="#DejaVuSans-66"/>
      <use x="708.882812" xlink:href="#DejaVuSans-82"/>
      <use x="778.365234" xlink:href="#DejaVuSans-110"/>
      <use x="841.744141" xlink:href="#DejaVuSans-45"/>
      <use x="877.828125" xlink:href="#DejaVuSans-102"/>
      <use x="913.033203" xlink:href="#DejaVuSans-113"/>
     </g>
    </g>
    <g id="line2d_77">
     <path d="M 756.88076 80.921677 
L 773.54076 80.921677 
" style="fill:none;stroke:#d95f02;stroke-dasharray:3.7,1.6;stroke-dashoffset:0;"/>
    </g>
    <g id="line2d_78"/>
    <g id="text_17">
     <!-- Ping (ms) - BBRn-fq_codel -->
     <g transform="translate(780.20476 83.837177)scale(0.0833 -0.0833)">
      <defs>
       <path d="M 50.984375 -16.609375 
L 50.984375 -23.578125 
L -0.984375 -23.578125 
L -0.984375 -16.609375 
z
" id="DejaVuSans-95"/>
       <path d="M 48.78125 52.59375 
L 48.78125 44.1875 
Q 44.96875 46.296875 41.140625 47.34375 
Q 37.3125 48.390625 33.40625 48.390625 
Q 24.65625 48.390625 19.8125 42.84375 
Q 14.984375 37.3125 14.984375 27.296875 
Q 14.984375 17.28125 19.8125 11.734375 
Q 24.65625 6.203125 33.40625 6.203125 
Q 37.3125 6.203125 41.140625 7.25 
Q 44.96875 8.296875 48.78125 10.40625 
L 48.78125 2.09375 
Q 45.015625 0.34375 40.984375 -0.53125 
Q 36.96875 -1.421875 32.421875 -1.421875 
Q 20.0625 -1.421875 12.78125 6.34375 
Q 5.515625 14.109375 5.515625 27.296875 
Q 5.515625 40.671875 12.859375 48.328125 
Q 20.21875 56 33.015625 56 
Q 37.15625 56 41.109375 55.140625 
Q 45.0625 54.296875 48.78125 52.59375 
z
" id="DejaVuSans-99"/>
       <path d="M 45.40625 46.390625 
L 45.40625 75.984375 
L 54.390625 75.984375 
L 54.390625 0 
L 45.40625 0 
L 45.40625 8.203125 
Q 42.578125 3.328125 38.25 0.953125 
Q 33.9375 -1.421875 27.875 -1.421875 
Q 17.96875 -1.421875 11.734375 6.484375 
Q 5.515625 14.40625 5.515625 27.296875 
Q 5.515625 40.1875 11.734375 48.09375 
Q 17.96875 56 27.875 56 
Q 33.9375 56 38.25 53.625 
Q 42.578125 51.265625 45.40625 46.390625 
z
M 14.796875 27.296875 
Q 14.796875 17.390625 18.875 11.75 
Q 22.953125 6.109375 30.078125 6.109375 
Q 37.203125 6.109375 41.296875 11.75 
Q 45.40625 17.390625 45.40625 27.296875 
Q 45.40625 37.203125 41.296875 42.84375 
Q 37.203125 48.484375 30.078125 48.484375 
Q 22.953125 48.484375 18.875 42.84375 
Q 14.796875 37.203125 14.796875 27.296875 
z
" id="DejaVuSans-100"/>
      </defs>
      <use xlink:href="#DejaVuSans-80"/>
      <use x="58.052734" xlink:href="#DejaVuSans-105"/>
      <use x="85.835938" xlink:href="#DejaVuSans-110"/>
      <use x="149.214844" xlink:href="#DejaVuSans-103"/>
      <use x="212.691406" xlink:href="#DejaVuSans-32"/>
      <use x="244.478516" xlink:href="#DejaVuSans-40"/>
      <use x="283.492188" xlink:href="#DejaVuSans-109"/>
      <use x="380.904297" xlink:href="#DejaVuSans-115"/>
      <use x="433.003906" xlink:href="#DejaVuSans-41"/>
      <use x="472.017578" xlink:href="#DejaVuSans-32"/>
      <use x="503.804688" xlink:href="#DejaVuSans-45"/>
      <use x="539.888672" xlink:href="#DejaVuSans-32"/>
      <use x="571.675781" xlink:href="#DejaVuSans-66"/>
      <use x="640.279297" xlink:href="#DejaVuSans-66"/>
      <use x="708.882812" xlink:href="#DejaVuSans-82"/>
      <use x="778.365234" xlink:href="#DejaVuSans-110"/>
      <use x="841.744141" xlink:href="#DejaVuSans-45"/>
      <use x="877.828125" xlink:href="#DejaVuSans-102"/>
      <use x="913.033203" xlink:href="#DejaVuSans-113"/>
      <use x="976.509766" xlink:href="#DejaVuSans-95"/>
      <use x="1026.509766" xlink:href="#DejaVuSans-99"/>
      <use x="1081.490234" xlink:href="#DejaVuSans-111"/>
      <use x="1142.671875" xlink:href="#DejaVuSans-100"/>
      <use x="1206.148438" xlink:href="#DejaVuSans-101"/>
      <use x="1267.671875" xlink:href="#DejaVuSans-108"/>
     </g>
    </g>
    <g id="line2d_79">
     <path d="M 756.88076 93.380233 
L 773.54076 93.380233 
" style="fill:none;stroke:#7570b3;stroke-dasharray:2,4;stroke-dashoffset:0;"/>
    </g>
    <g id="line2d_80"/>
    <g id="text_18">
     <!-- Ping (ms) - BBRn-pie -->
     <g transform="translate(780.20476 96.295733)scale(0.0833 -0.0833)">
      <use xlink:href="#DejaVuSans-80"/>
      <use x="58.052734" xlink:href="#DejaVuSans-105"/>
      <use x="85.835938" xlink:href="#DejaVuSans-110"/>
      <use x="149.214844" xlink:href="#DejaVuSans-103"/>
      <use x="212.691406" xlink:href="#DejaVuSans-32"/>
      <use x="244.478516" xlink:href="#DejaVuSans-40"/>
      <use x="283.492188" xlink:href="#DejaVuSans-109"/>
      <use x="380.904297" xlink:href="#DejaVuSans-115"/>
      <use x="433.003906" xlink:href="#DejaVuSans-41"/>
      <use x="472.017578" xlink:href="#DejaVuSans-32"/>
      <use x="503.804688" xlink:href="#DejaVuSans-45"/>
      <use x="539.888672" xlink:href="#DejaVuSans-32"/>
      <use x="571.675781" xlink:href="#DejaVuSans-66"/>
      <use x="640.279297" xlink:href="#DejaVuSans-66"/>
      <use x="708.882812" xlink:href="#DejaVuSans-82"/>
      <use x="778.365234" xlink:href="#DejaVuSans-110"/>
      <use x="841.744141" xlink:href="#DejaVuSans-45"/>
      <use x="877.828125" xlink:href="#DejaVuSans-112"/>
      <use x="941.304688" xlink:href="#DejaVuSans-105"/>
      <use x="969.087891" xlink:href="#DejaVuSans-101"/>
     </g>
    </g>
    <g id="line2d_81">
     <path d="M 756.88076 105.607111 
L 773.54076 105.607111 
" style="fill:none;stroke:#e7298a;stroke-dasharray:8,4,2,4;stroke-dashoffset:0;"/>
    </g>
    <g id="line2d_82"/>
    <g id="text_19">
     <!-- Ping (ms) - BBRn-codel -->
     <g transform="translate(780.20476 108.522611)scale(0.0833 -0.0833)">
      <use xlink:href="#DejaVuSans-80"/>
      <use x="58.052734" xlink:href="#DejaVuSans-105"/>
      <use x="85.835938" xlink:href="#DejaVuSans-110"/>
      <use x="149.214844" xlink:href="#DejaVuSans-103"/>
      <use x="212.691406" xlink:href="#DejaVuSans-32"/>
      <use x="244.478516" xlink:href="#DejaVuSans-40"/>
      <use x="283.492188" xlink:href="#DejaVuSans-109"/>
      <use x="380.904297" xlink:href="#DejaVuSans-115"/>
      <use x="433.003906" xlink:href="#DejaVuSans-41"/>
      <use x="472.017578" xlink:href="#DejaVuSans-32"/>
      <use x="503.804688" xlink:href="#DejaVuSans-45"/>
      <use x="539.888672" xlink:href="#DejaVuSans-32"/>
      <use x="571.675781" xlink:href="#DejaVuSans-66"/>
      <use x="640.279297" xlink:href="#DejaVuSans-66"/>
      <use x="708.882812" xlink:href="#DejaVuSans-82"/>
      <use x="778.365234" xlink:href="#DejaVuSans-110"/>
      <use x="841.744141" xlink:href="#DejaVuSans-45"/>
      <use x="877.828125" xlink:href="#DejaVuSans-99"/>
      <use x="932.808594" xlink:href="#DejaVuSans-111"/>
      <use x="993.990234" xlink:href="#DejaVuSans-100"/>
      <use x="1057.466797" xlink:href="#DejaVuSans-101"/>
      <use x="1118.990234" xlink:href="#DejaVuSans-108"/>
     </g>
    </g>
    <g id="line2d_83">
     <path d="M 756.88076 117.833989 
L 773.54076 117.833989 
" style="fill:none;stroke:#66a61e;stroke-linecap:round;"/>
    </g>
    <g id="line2d_84">
     <g>
      <use style="fill:#66a61e;stroke:#66a61e;" x="765.21076" xlink:href="#m0fdf4e8eb0" y="117.833989"/>
     </g>
    </g>
    <g id="text_20">
     <!-- Ping (ms) - BBRn-cake -->
     <g transform="translate(780.20476 120.749489)scale(0.0833 -0.0833)">
      <defs>
       <path d="M 9.078125 75.984375 
L 18.109375 75.984375 
L 18.109375 31.109375 
L 44.921875 54.6875 
L 56.390625 54.6875 
L 27.390625 29.109375 
L 57.625 0 
L 45.90625 0 
L 18.109375 26.703125 
L 18.109375 0 
L 9.078125 0 
z
" id="DejaVuSans-107"/>
      </defs>
      <use xlink:href="#DejaVuSans-80"/>
      <use x="58.052734" xlink:href="#DejaVuSans-105"/>
      <use x="85.835938" xlink:href="#DejaVuSans-110"/>
      <use x="149.214844" xlink:href="#DejaVuSans-103"/>
      <use x="212.691406" xlink:href="#DejaVuSans-32"/>
      <use x="244.478516" xlink:href="#DejaVuSans-40"/>
      <use x="283.492188" xlink:href="#DejaVuSans-109"/>
      <use x="380.904297" xlink:href="#DejaVuSans-115"/>
      <use x="433.003906" xlink:href="#DejaVuSans-41"/>
      <use x="472.017578" xlink:href="#DejaVuSans-32"/>
      <use x="503.804688" xlink:href="#DejaVuSans-45"/>
      <use x="539.888672" xlink:href="#DejaVuSans-32"/>
      <use x="571.675781" xlink:href="#DejaVuSans-66"/>
      <use x="640.279297" xlink:href="#DejaVuSans-66"/>
      <use x="708.882812" xlink:href="#DejaVuSans-82"/>
      <use x="778.365234" xlink:href="#DejaVuSans-110"/>
      <use x="841.744141" xlink:href="#DejaVuSans-45"/>
      <use x="877.828125" xlink:href="#DejaVuSans-99"/>
      <use x="932.808594" xlink:href="#DejaVuSans-97"/>
      <use x="994.087891" xlink:href="#DejaVuSans-107"/>
      <use x="1048.373047" xlink:href="#DejaVuSans-101"/>
     </g>
    </g>
   </g>
  </g>
  <g id="text_21">
   <!-- TCP upload - 8 streams w/ping -->
   <g transform="translate(382.078437 14.939812)scale(0.14 -0.14)">
    <defs>
     <path d="M -0.296875 72.90625 
L 61.375 72.90625 
L 61.375 64.59375 
L 35.5 64.59375 
L 35.5 0 
L 25.59375 0 
L 25.59375 64.59375 
L -0.296875 64.59375 
z
" id="DejaVuSans-84"/>
     <path d="M 4.203125 54.6875 
L 13.1875 54.6875 
L 24.421875 12.015625 
L 35.59375 54.6875 
L 46.1875 54.6875 
L 57.421875 12.015625 
L 68.609375 54.6875 
L 77.59375 54.6875 
L 63.28125 0 
L 52.6875 0 
L 40.921875 44.828125 
L 29.109375 0 
L 18.5 0 
z
" id="DejaVuSans-119"/>
     <path d="M 25.390625 72.90625 
L 33.6875 72.90625 
L 8.296875 -9.28125 
L 0 -9.28125 
z
" id="DejaVuSans-47"/>
    </defs>
    <use xlink:href="#DejaVuSans-84"/>
    <use x="55.208984" xlink:href="#DejaVuSans-67"/>
    <use x="125.033203" xlink:href="#DejaVuSans-80"/>
    <use x="185.335938" xlink:href="#DejaVuSans-32"/>
    <use x="217.123047" xlink:href="#DejaVuSans-117"/>
    <use x="280.501953" xlink:href="#DejaVuSans-112"/>
    <use x="343.978516" xlink:href="#DejaVuSans-108"/>
    <use x="371.761719" xlink:href="#DejaVuSans-111"/>
    <use x="432.943359" xlink:href="#DejaVuSans-97"/>
    <use x="494.222656" xlink:href="#DejaVuSans-100"/>
    <use x="557.699219" xlink:href="#DejaVuSans-32"/>
    <use x="589.486328" xlink:href="#DejaVuSans-45"/>
    <use x="625.570312" xlink:href="#DejaVuSans-32"/>
    <use x="657.357422" xlink:href="#DejaVuSans-56"/>
    <use x="720.980469" xlink:href="#DejaVuSans-32"/>
    <use x="752.767578" xlink:href="#DejaVuSans-115"/>
    <use x="804.867188" xlink:href="#DejaVuSans-116"/>
    <use x="844.076172" xlink:href="#DejaVuSans-114"/>
    <use x="882.939453" xlink:href="#DejaVuSans-101"/>
    <use x="944.462891" xlink:href="#DejaVuSans-97"/>
    <use x="1005.742188" xlink:href="#DejaVuSans-109"/>
    <use x="1103.154297" xlink:href="#DejaVuSans-115"/>
    <use x="1155.253906" xlink:href="#DejaVuSans-32"/>
    <use x="1187.041016" xlink:href="#DejaVuSans-119"/>
    <use x="1268.828125" xlink:href="#DejaVuSans-47"/>
    <use x="1302.519531" xlink:href="#DejaVuSans-112"/>
    <use x="1365.996094" xlink:href="#DejaVuSans-105"/>
    <use x="1393.779297" xlink:href="#DejaVuSans-110"/>
    <use x="1457.158203" xlink:href="#DejaVuSans-103"/>
   </g>
   <!-- Ping CDF plot -->
   <g transform="translate(441.4625 30.61675)scale(0.14 -0.14)">
    <defs>
     <path d="M 19.671875 64.796875 
L 19.671875 8.109375 
L 31.59375 8.109375 
Q 46.6875 8.109375 53.6875 14.9375 
Q 60.6875 21.78125 60.6875 36.53125 
Q 60.6875 51.171875 53.6875 57.984375 
Q 46.6875 64.796875 31.59375 64.796875 
z
M 9.8125 72.90625 
L 30.078125 72.90625 
Q 51.265625 72.90625 61.171875 64.09375 
Q 71.09375 55.28125 71.09375 36.53125 
Q 71.09375 17.671875 61.125 8.828125 
Q 51.171875 0 30.078125 0 
L 9.8125 0 
z
" id="DejaVuSans-68"/>
     <path d="M 9.8125 72.90625 
L 51.703125 72.90625 
L 51.703125 64.59375 
L 19.671875 64.59375 
L 19.671875 43.109375 
L 48.578125 43.109375 
L 48.578125 34.8125 
L 19.671875 34.8125 
L 19.671875 0 
L 9.8125 0 
z
" id="DejaVuSans-70"/>
    </defs>
    <use xlink:href="#DejaVuSans-80"/>
    <use x="58.052734" xlink:href="#DejaVuSans-105"/>
    <use x="85.835938" xlink:href="#DejaVuSans-110"/>
    <use x="149.214844" xlink:href="#DejaVuSans-103"/>
    <use x="212.691406" xlink:href="#DejaVuSans-32"/>
    <use x="244.478516" xlink:href="#DejaVuSans-67"/>
    <use x="314.302734" xlink:href="#DejaVuSans-68"/>
    <use x="391.304688" xlink:href="#DejaVuSans-70"/>
    <use x="448.824219" xlink:href="#DejaVuSans-32"/>
    <use x="480.611328" xlink:href="#DejaVuSans-112"/>
    <use x="544.087891" xlink:href="#DejaVuSans-108"/>
    <use x="571.871094" xlink:href="#DejaVuSans-111"/>
    <use x="633.052734" xlink:href="#DejaVuSans-116"/>
   </g>
  </g>
 </g>
 <defs>
  <clipPath id="p7ef278bfb8">
   <rect height="397.5048" width="619.038" x="122.13" y="61.9488"/>
  </clipPath>
 </defs>
</svg>
