<?xml version="1.0" encoding="utf-8" standalone="no"?>
<!DOCTYPE svg PUBLIC "-//W3C//DTD SVG 1.1//EN"
  "http://www.w3.org/Graphics/SVG/1.1/DTD/svg11.dtd">
<!-- Created with matplotlib (https://matplotlib.org/) -->
<svg height="394.98525pt" version="1.1" viewBox="0 0 537.350406 394.98525" width="537.350406pt" xmlns="http://www.w3.org/2000/svg" xmlns:xlink="http://www.w3.org/1999/xlink">
 <metadata>
  <rdf:RDF xmlns:cc="http://creativecommons.org/ns#" xmlns:dc="http://purl.org/dc/elements/1.1/" xmlns:rdf="http://www.w3.org/1999/02/22-rdf-syntax-ns#">
   <cc:Work>
    <dc:type rdf:resource="http://purl.org/dc/dcmitype/StillImage"/>
    <dc:date>2023-09-27T09:50:09.175120</dc:date>
    <dc:format>image/svg+xml</dc:format>
    <dc:creator>
     <cc:Agent>
      <dc:title>Matplotlib v3.3.4, https://matplotlib.org/</dc:title>
     </cc:Agent>
    </dc:creator>
   </cc:Work>
  </rdf:RDF>
 </metadata>
 <defs>
  <style type="text/css">*{stroke-linecap:butt;stroke-linejoin:round;}</style>
 </defs>
 <g id="figure_1">
  <g id="patch_1">
   <path d="M 0 394.98525 
L 537.350406 394.98525 
L 537.350406 0 
L 0 0 
z
" style="fill:#ffffff;"/>
  </g>
  <g id="axes_1">
   <g id="patch_2">
    <path d="M 43.465625 311.904 
L 400.585625 311.904 
L 400.585625 45.792 
L 43.465625 45.792 
z
" style="fill:#e6e6e6;"/>
   </g>
   <g id="matplotlib.axis_1">
    <g id="xtick_1">
     <g id="line2d_1"/>
     <g id="text_1">
      <!-- BBRn-fq -->
      <g transform="translate(75.985 355.888375)rotate(-90)scale(0.1 -0.1)">
       <defs>
        <path d="M 19.671875 34.8125 
L 19.671875 8.109375 
L 35.5 8.109375 
Q 43.453125 8.109375 47.28125 11.40625 
Q 51.125 14.703125 51.125 21.484375 
Q 51.125 28.328125 47.28125 31.5625 
Q 43.453125 34.8125 35.5 34.8125 
z
M 19.671875 64.796875 
L 19.671875 42.828125 
L 34.28125 42.828125 
Q 41.5 42.828125 45.03125 45.53125 
Q 48.578125 48.25 48.578125 53.8125 
Q 48.578125 59.328125 45.03125 62.0625 
Q 41.5 64.796875 34.28125 64.796875 
z
M 9.8125 72.90625 
L 35.015625 72.90625 
Q 46.296875 72.90625 52.390625 68.21875 
Q 58.5 63.53125 58.5 54.890625 
Q 58.5 48.1875 55.375 44.234375 
Q 52.25 40.28125 46.1875 39.3125 
Q 53.46875 37.75 57.5 32.78125 
Q 61.53125 27.828125 61.53125 20.40625 
Q 61.53125 10.640625 54.890625 5.3125 
Q 48.25 0 35.984375 0 
L 9.8125 0 
z
" id="DejaVuSans-66"/>
        <path d="M 44.390625 34.1875 
Q 47.5625 33.109375 50.5625 29.59375 
Q 53.5625 26.078125 56.59375 19.921875 
L 66.609375 0 
L 56 0 
L 46.6875 18.703125 
Q 43.0625 26.03125 39.671875 28.421875 
Q 36.28125 30.8125 30.421875 30.8125 
L 19.671875 30.8125 
L 19.671875 0 
L 9.8125 0 
L 9.8125 72.90625 
L 32.078125 72.90625 
Q 44.578125 72.90625 50.734375 67.671875 
Q 56.890625 62.453125 56.890625 51.90625 
Q 56.890625 45.015625 53.6875 40.46875 
Q 50.484375 35.9375 44.390625 34.1875 
z
M 19.671875 64.796875 
L 19.671875 38.921875 
L 32.078125 38.921875 
Q 39.203125 38.921875 42.84375 42.21875 
Q 46.484375 45.515625 46.484375 51.90625 
Q 46.484375 58.296875 42.84375 61.546875 
Q 39.203125 64.796875 32.078125 64.796875 
z
" id="DejaVuSans-82"/>
        <path d="M 54.890625 33.015625 
L 54.890625 0 
L 45.90625 0 
L 45.90625 32.71875 
Q 45.90625 40.484375 42.875 44.328125 
Q 39.84375 48.1875 33.796875 48.1875 
Q 26.515625 48.1875 22.3125 43.546875 
Q 18.109375 38.921875 18.109375 30.90625 
L 18.109375 0 
L 9.078125 0 
L 9.078125 54.6875 
L 18.109375 54.6875 
L 18.109375 46.1875 
Q 21.34375 51.125 25.703125 53.5625 
Q 30.078125 56 35.796875 56 
Q 45.21875 56 50.046875 50.171875 
Q 54.890625 44.34375 54.890625 33.015625 
z
" id="DejaVuSans-110"/>
        <path d="M 4.890625 31.390625 
L 31.203125 31.390625 
L 31.203125 23.390625 
L 4.890625 23.390625 
z
" id="DejaVuSans-45"/>
        <path d="M 37.109375 75.984375 
L 37.109375 68.5 
L 28.515625 68.5 
Q 23.6875 68.5 21.796875 66.546875 
Q 19.921875 64.59375 19.921875 59.515625 
L 19.921875 54.6875 
L 34.71875 54.6875 
L 34.71875 47.703125 
L 19.921875 47.703125 
L 19.921875 0 
L 10.890625 0 
L 10.890625 47.703125 
L 2.296875 47.703125 
L 2.296875 54.6875 
L 10.890625 54.6875 
L 10.890625 58.5 
Q 10.890625 67.625 15.140625 71.796875 
Q 19.390625 75.984375 28.609375 75.984375 
z
" id="DejaVuSans-102"/>
        <path d="M 14.796875 27.296875 
Q 14.796875 17.390625 18.875 11.75 
Q 22.953125 6.109375 30.078125 6.109375 
Q 37.203125 6.109375 41.296875 11.75 
Q 45.40625 17.390625 45.40625 27.296875 
Q 45.40625 37.203125 41.296875 42.84375 
Q 37.203125 48.484375 30.078125 48.484375 
Q 22.953125 48.484375 18.875 42.84375 
Q 14.796875 37.203125 14.796875 27.296875 
z
M 45.40625 8.203125 
Q 42.578125 3.328125 38.25 0.953125 
Q 33.9375 -1.421875 27.875 -1.421875 
Q 17.96875 -1.421875 11.734375 6.484375 
Q 5.515625 14.40625 5.515625 27.296875 
Q 5.515625 40.1875 11.734375 48.09375 
Q 17.96875 56 27.875 56 
Q 33.9375 56 38.25 53.625 
Q 42.578125 51.265625 45.40625 46.390625 
L 45.40625 54.6875 
L 54.390625 54.6875 
L 54.390625 -20.796875 
L 45.40625 -20.796875 
z
" id="DejaVuSans-113"/>
       </defs>
       <use xlink:href="#DejaVuSans-66"/>
       <use x="68.603516" xlink:href="#DejaVuSans-66"/>
       <use x="137.207031" xlink:href="#DejaVuSans-82"/>
       <use x="206.689453" xlink:href="#DejaVuSans-110"/>
       <use x="270.068359" xlink:href="#DejaVuSans-45"/>
       <use x="306.152344" xlink:href="#DejaVuSans-102"/>
       <use x="341.357422" xlink:href="#DejaVuSans-113"/>
      </g>
     </g>
    </g>
    <g id="xtick_2">
     <g id="line2d_2"/>
     <g id="text_2">
      <!-- BBRn-pie -->
      <g transform="translate(105.745 361.299312)rotate(-90)scale(0.1 -0.1)">
       <defs>
        <path d="M 18.109375 8.203125 
L 18.109375 -20.796875 
L 9.078125 -20.796875 
L 9.078125 54.6875 
L 18.109375 54.6875 
L 18.109375 46.390625 
Q 20.953125 51.265625 25.265625 53.625 
Q 29.59375 56 35.59375 56 
Q 45.5625 56 51.78125 48.09375 
Q 58.015625 40.1875 58.015625 27.296875 
Q 58.015625 14.40625 51.78125 6.484375 
Q 45.5625 -1.421875 35.59375 -1.421875 
Q 29.59375 -1.421875 25.265625 0.953125 
Q 20.953125 3.328125 18.109375 8.203125 
z
M 48.6875 27.296875 
Q 48.6875 37.203125 44.609375 42.84375 
Q 40.53125 48.484375 33.40625 48.484375 
Q 26.265625 48.484375 22.1875 42.84375 
Q 18.109375 37.203125 18.109375 27.296875 
Q 18.109375 17.390625 22.1875 11.75 
Q 26.265625 6.109375 33.40625 6.109375 
Q 40.53125 6.109375 44.609375 11.75 
Q 48.6875 17.390625 48.6875 27.296875 
z
" id="DejaVuSans-112"/>
        <path d="M 9.421875 54.6875 
L 18.40625 54.6875 
L 18.40625 0 
L 9.421875 0 
z
M 9.421875 75.984375 
L 18.40625 75.984375 
L 18.40625 64.59375 
L 9.421875 64.59375 
z
" id="DejaVuSans-105"/>
        <path d="M 56.203125 29.59375 
L 56.203125 25.203125 
L 14.890625 25.203125 
Q 15.484375 15.921875 20.484375 11.0625 
Q 25.484375 6.203125 34.421875 6.203125 
Q 39.59375 6.203125 44.453125 7.46875 
Q 49.3125 8.734375 54.109375 11.28125 
L 54.109375 2.78125 
Q 49.265625 0.734375 44.1875 -0.34375 
Q 39.109375 -1.421875 33.890625 -1.421875 
Q 20.796875 -1.421875 13.15625 6.1875 
Q 5.515625 13.8125 5.515625 26.8125 
Q 5.515625 40.234375 12.765625 48.109375 
Q 20.015625 56 32.328125 56 
Q 43.359375 56 49.78125 48.890625 
Q 56.203125 41.796875 56.203125 29.59375 
z
M 47.21875 32.234375 
Q 47.125 39.59375 43.09375 43.984375 
Q 39.0625 48.390625 32.421875 48.390625 
Q 24.90625 48.390625 20.390625 44.140625 
Q 15.875 39.890625 15.1875 32.171875 
z
" id="DejaVuSans-101"/>
       </defs>
       <use xlink:href="#DejaVuSans-66"/>
       <use x="68.603516" xlink:href="#DejaVuSans-66"/>
       <use x="137.207031" xlink:href="#DejaVuSans-82"/>
       <use x="206.689453" xlink:href="#DejaVuSans-110"/>
       <use x="270.068359" xlink:href="#DejaVuSans-45"/>
       <use x="306.152344" xlink:href="#DejaVuSans-112"/>
       <use x="369.628906" xlink:href="#DejaVuSans-105"/>
       <use x="397.412109" xlink:href="#DejaVuSans-101"/>
      </g>
     </g>
    </g>
    <g id="xtick_3">
     <g id="line2d_3"/>
     <g id="text_3">
      <!-- BBRn-codel -->
      <g transform="translate(135.505 372.9165)rotate(-90)scale(0.1 -0.1)">
       <defs>
        <path d="M 48.78125 52.59375 
L 48.78125 44.1875 
Q 44.96875 46.296875 41.140625 47.34375 
Q 37.3125 48.390625 33.40625 48.390625 
Q 24.65625 48.390625 19.8125 42.84375 
Q 14.984375 37.3125 14.984375 27.296875 
Q 14.984375 17.28125 19.8125 11.734375 
Q 24.65625 6.203125 33.40625 6.203125 
Q 37.3125 6.203125 41.140625 7.25 
Q 44.96875 8.296875 48.78125 10.40625 
L 48.78125 2.09375 
Q 45.015625 0.34375 40.984375 -0.53125 
Q 36.96875 -1.421875 32.421875 -1.421875 
Q 20.0625 -1.421875 12.78125 6.34375 
Q 5.515625 14.109375 5.515625 27.296875 
Q 5.515625 40.671875 12.859375 48.328125 
Q 20.21875 56 33.015625 56 
Q 37.15625 56 41.109375 55.140625 
Q 45.0625 54.296875 48.78125 52.59375 
z
" id="DejaVuSans-99"/>
        <path d="M 30.609375 48.390625 
Q 23.390625 48.390625 19.1875 42.75 
Q 14.984375 37.109375 14.984375 27.296875 
Q 14.984375 17.484375 19.15625 11.84375 
Q 23.34375 6.203125 30.609375 6.203125 
Q 37.796875 6.203125 41.984375 11.859375 
Q 46.1875 17.53125 46.1875 27.296875 
Q 46.1875 37.015625 41.984375 42.703125 
Q 37.796875 48.390625 30.609375 48.390625 
z
M 30.609375 56 
Q 42.328125 56 49.015625 48.375 
Q 55.71875 40.765625 55.71875 27.296875 
Q 55.71875 13.875 49.015625 6.21875 
Q 42.328125 -1.421875 30.609375 -1.421875 
Q 18.84375 -1.421875 12.171875 6.21875 
Q 5.515625 13.875 5.515625 27.296875 
Q 5.515625 40.765625 12.171875 48.375 
Q 18.84375 56 30.609375 56 
z
" id="DejaVuSans-111"/>
        <path d="M 45.40625 46.390625 
L 45.40625 75.984375 
L 54.390625 75.984375 
L 54.390625 0 
L 45.40625 0 
L 45.40625 8.203125 
Q 42.578125 3.328125 38.25 0.953125 
Q 33.9375 -1.421875 27.875 -1.421875 
Q 17.96875 -1.421875 11.734375 6.484375 
Q 5.515625 14.40625 5.515625 27.296875 
Q 5.515625 40.1875 11.734375 48.09375 
Q 17.96875 56 27.875 56 
Q 33.9375 56 38.25 53.625 
Q 42.578125 51.265625 45.40625 46.390625 
z
M 14.796875 27.296875 
Q 14.796875 17.390625 18.875 11.75 
Q 22.953125 6.109375 30.078125 6.109375 
Q 37.203125 6.109375 41.296875 11.75 
Q 45.40625 17.390625 45.40625 27.296875 
Q 45.40625 37.203125 41.296875 42.84375 
Q 37.203125 48.484375 30.078125 48.484375 
Q 22.953125 48.484375 18.875 42.84375 
Q 14.796875 37.203125 14.796875 27.296875 
z
" id="DejaVuSans-100"/>
        <path d="M 9.421875 75.984375 
L 18.40625 75.984375 
L 18.40625 0 
L 9.421875 0 
z
" id="DejaVuSans-108"/>
       </defs>
       <use xlink:href="#DejaVuSans-66"/>
       <use x="68.603516" xlink:href="#DejaVuSans-66"/>
       <use x="137.207031" xlink:href="#DejaVuSans-82"/>
       <use x="206.689453" xlink:href="#DejaVuSans-110"/>
       <use x="270.068359" xlink:href="#DejaVuSans-45"/>
       <use x="306.152344" xlink:href="#DejaVuSans-99"/>
       <use x="361.132812" xlink:href="#DejaVuSans-111"/>
       <use x="422.314453" xlink:href="#DejaVuSans-100"/>
       <use x="485.791016" xlink:href="#DejaVuSans-101"/>
       <use x="547.314453" xlink:href="#DejaVuSans-108"/>
      </g>
     </g>
    </g>
    <g id="xtick_4">
     <g id="line2d_4"/>
     <g id="text_4">
      <!-- BBRn-cake -->
      <g transform="translate(165.265 369.227437)rotate(-90)scale(0.1 -0.1)">
       <defs>
        <path d="M 34.28125 27.484375 
Q 23.390625 27.484375 19.1875 25 
Q 14.984375 22.515625 14.984375 16.5 
Q 14.984375 11.71875 18.140625 8.90625 
Q 21.296875 6.109375 26.703125 6.109375 
Q 34.1875 6.109375 38.703125 11.40625 
Q 43.21875 16.703125 43.21875 25.484375 
L 43.21875 27.484375 
z
M 52.203125 31.203125 
L 52.203125 0 
L 43.21875 0 
L 43.21875 8.296875 
Q 40.140625 3.328125 35.546875 0.953125 
Q 30.953125 -1.421875 24.3125 -1.421875 
Q 15.921875 -1.421875 10.953125 3.296875 
Q 6 8.015625 6 15.921875 
Q 6 25.140625 12.171875 29.828125 
Q 18.359375 34.515625 30.609375 34.515625 
L 43.21875 34.515625 
L 43.21875 35.40625 
Q 43.21875 41.609375 39.140625 45 
Q 35.0625 48.390625 27.6875 48.390625 
Q 23 48.390625 18.546875 47.265625 
Q 14.109375 46.140625 10.015625 43.890625 
L 10.015625 52.203125 
Q 14.9375 54.109375 19.578125 55.046875 
Q 24.21875 56 28.609375 56 
Q 40.484375 56 46.34375 49.84375 
Q 52.203125 43.703125 52.203125 31.203125 
z
" id="DejaVuSans-97"/>
        <path d="M 9.078125 75.984375 
L 18.109375 75.984375 
L 18.109375 31.109375 
L 44.921875 54.6875 
L 56.390625 54.6875 
L 27.390625 29.109375 
L 57.625 0 
L 45.90625 0 
L 18.109375 26.703125 
L 18.109375 0 
L 9.078125 0 
z
" id="DejaVuSans-107"/>
       </defs>
       <use xlink:href="#DejaVuSans-66"/>
       <use x="68.603516" xlink:href="#DejaVuSans-66"/>
       <use x="137.207031" xlink:href="#DejaVuSans-82"/>
       <use x="206.689453" xlink:href="#DejaVuSans-110"/>
       <use x="270.068359" xlink:href="#DejaVuSans-45"/>
       <use x="306.152344" xlink:href="#DejaVuSans-99"/>
       <use x="361.132812" xlink:href="#DejaVuSans-97"/>
       <use x="422.412109" xlink:href="#DejaVuSans-107"/>
       <use x="476.697266" xlink:href="#DejaVuSans-101"/>
      </g>
     </g>
    </g>
    <g id="xtick_5">
     <g id="line2d_5"/>
     <g id="text_5">
      <!-- BBRn-fq_codel -->
      <g transform="translate(194.885938 387.78525)rotate(-90)scale(0.1 -0.1)">
       <defs>
        <path d="M 50.984375 -16.609375 
L 50.984375 -23.578125 
L -0.984375 -23.578125 
L -0.984375 -16.609375 
z
" id="DejaVuSans-95"/>
       </defs>
       <use xlink:href="#DejaVuSans-66"/>
       <use x="68.603516" xlink:href="#DejaVuSans-66"/>
       <use x="137.207031" xlink:href="#DejaVuSans-82"/>
       <use x="206.689453" xlink:href="#DejaVuSans-110"/>
       <use x="270.068359" xlink:href="#DejaVuSans-45"/>
       <use x="306.152344" xlink:href="#DejaVuSans-102"/>
       <use x="341.357422" xlink:href="#DejaVuSans-113"/>
       <use x="404.833984" xlink:href="#DejaVuSans-95"/>
       <use x="454.833984" xlink:href="#DejaVuSans-99"/>
       <use x="509.814453" xlink:href="#DejaVuSans-111"/>
       <use x="570.996094" xlink:href="#DejaVuSans-100"/>
       <use x="634.472656" xlink:href="#DejaVuSans-101"/>
       <use x="695.996094" xlink:href="#DejaVuSans-108"/>
      </g>
     </g>
    </g>
    <g id="xtick_6">
     <g id="line2d_6"/>
     <g id="text_6">
      <!-- BBRn-fq -->
      <g transform="translate(254.545 355.888375)rotate(-90)scale(0.1 -0.1)">
       <use xlink:href="#DejaVuSans-66"/>
       <use x="68.603516" xlink:href="#DejaVuSans-66"/>
       <use x="137.207031" xlink:href="#DejaVuSans-82"/>
       <use x="206.689453" xlink:href="#DejaVuSans-110"/>
       <use x="270.068359" xlink:href="#DejaVuSans-45"/>
       <use x="306.152344" xlink:href="#DejaVuSans-102"/>
       <use x="341.357422" xlink:href="#DejaVuSans-113"/>
      </g>
     </g>
    </g>
    <g id="xtick_7">
     <g id="line2d_7"/>
     <g id="text_7">
      <!-- BBRn-pie -->
      <g transform="translate(284.305 361.299312)rotate(-90)scale(0.1 -0.1)">
       <use xlink:href="#DejaVuSans-66"/>
       <use x="68.603516" xlink:href="#DejaVuSans-66"/>
       <use x="137.207031" xlink:href="#DejaVuSans-82"/>
       <use x="206.689453" xlink:href="#DejaVuSans-110"/>
       <use x="270.068359" xlink:href="#DejaVuSans-45"/>
       <use x="306.152344" xlink:href="#DejaVuSans-112"/>
       <use x="369.628906" xlink:href="#DejaVuSans-105"/>
       <use x="397.412109" xlink:href="#DejaVuSans-101"/>
      </g>
     </g>
    </g>
    <g id="xtick_8">
     <g id="line2d_8"/>
     <g id="text_8">
      <!-- BBRn-codel -->
      <g transform="translate(314.065 372.9165)rotate(-90)scale(0.1 -0.1)">
       <use xlink:href="#DejaVuSans-66"/>
       <use x="68.603516" xlink:href="#DejaVuSans-66"/>
       <use x="137.207031" xlink:href="#DejaVuSans-82"/>
       <use x="206.689453" xlink:href="#DejaVuSans-110"/>
       <use x="270.068359" xlink:href="#DejaVuSans-45"/>
       <use x="306.152344" xlink:href="#DejaVuSans-99"/>
       <use x="361.132812" xlink:href="#DejaVuSans-111"/>
       <use x="422.314453" xlink:href="#DejaVuSans-100"/>
       <use x="485.791016" xlink:href="#DejaVuSans-101"/>
       <use x="547.314453" xlink:href="#DejaVuSans-108"/>
      </g>
     </g>
    </g>
    <g id="xtick_9">
     <g id="line2d_9"/>
     <g id="text_9">
      <!-- BBRn-cake -->
      <g transform="translate(343.825 369.227437)rotate(-90)scale(0.1 -0.1)">
       <use xlink:href="#DejaVuSans-66"/>
       <use x="68.603516" xlink:href="#DejaVuSans-66"/>
       <use x="137.207031" xlink:href="#DejaVuSans-82"/>
       <use x="206.689453" xlink:href="#DejaVuSans-110"/>
       <use x="270.068359" xlink:href="#DejaVuSans-45"/>
       <use x="306.152344" xlink:href="#DejaVuSans-99"/>
       <use x="361.132812" xlink:href="#DejaVuSans-97"/>
       <use x="422.412109" xlink:href="#DejaVuSans-107"/>
       <use x="476.697266" xlink:href="#DejaVuSans-101"/>
      </g>
     </g>
    </g>
    <g id="xtick_10">
     <g id="line2d_10"/>
     <g id="text_10">
      <!-- BBRn-fq_codel -->
      <g transform="translate(373.445938 387.78525)rotate(-90)scale(0.1 -0.1)">
       <use xlink:href="#DejaVuSans-66"/>
       <use x="68.603516" xlink:href="#DejaVuSans-66"/>
       <use x="137.207031" xlink:href="#DejaVuSans-82"/>
       <use x="206.689453" xlink:href="#DejaVuSans-110"/>
       <use x="270.068359" xlink:href="#DejaVuSans-45"/>
       <use x="306.152344" xlink:href="#DejaVuSans-102"/>
       <use x="341.357422" xlink:href="#DejaVuSans-113"/>
       <use x="404.833984" xlink:href="#DejaVuSans-95"/>
       <use x="454.833984" xlink:href="#DejaVuSans-99"/>
       <use x="509.814453" xlink:href="#DejaVuSans-111"/>
       <use x="570.996094" xlink:href="#DejaVuSans-100"/>
       <use x="634.472656" xlink:href="#DejaVuSans-101"/>
       <use x="695.996094" xlink:href="#DejaVuSans-108"/>
      </g>
     </g>
    </g>
   </g>
   <g id="matplotlib.axis_2">
    <g id="ytick_1">
     <g id="line2d_11"/>
     <g id="text_11">
      <!-- 100 -->
      <g transform="translate(20.878125 306.925946)scale(0.1 -0.1)">
       <defs>
        <path d="M 12.40625 8.296875 
L 28.515625 8.296875 
L 28.515625 63.921875 
L 10.984375 60.40625 
L 10.984375 69.390625 
L 28.421875 72.90625 
L 38.28125 72.90625 
L 38.28125 8.296875 
L 54.390625 8.296875 
L 54.390625 0 
L 12.40625 0 
z
" id="DejaVuSans-49"/>
        <path d="M 31.78125 66.40625 
Q 24.171875 66.40625 20.328125 58.90625 
Q 16.5 51.421875 16.5 36.375 
Q 16.5 21.390625 20.328125 13.890625 
Q 24.171875 6.390625 31.78125 6.390625 
Q 39.453125 6.390625 43.28125 13.890625 
Q 47.125 21.390625 47.125 36.375 
Q 47.125 51.421875 43.28125 58.90625 
Q 39.453125 66.40625 31.78125 66.40625 
z
M 31.78125 74.21875 
Q 44.046875 74.21875 50.515625 64.515625 
Q 56.984375 54.828125 56.984375 36.375 
Q 56.984375 17.96875 50.515625 8.265625 
Q 44.046875 -1.421875 31.78125 -1.421875 
Q 19.53125 -1.421875 13.0625 8.265625 
Q 6.59375 17.96875 6.59375 36.375 
Q 6.59375 54.828125 13.0625 64.515625 
Q 19.53125 74.21875 31.78125 74.21875 
z
" id="DejaVuSans-48"/>
       </defs>
       <use xlink:href="#DejaVuSans-49"/>
       <use x="63.623047" xlink:href="#DejaVuSans-48"/>
       <use x="127.246094" xlink:href="#DejaVuSans-48"/>
      </g>
     </g>
    </g>
    <g id="ytick_2">
     <g id="line2d_12"/>
     <g id="text_12">
      <!-- 150 -->
      <g transform="translate(20.878125 273.743015)scale(0.1 -0.1)">
       <defs>
        <path d="M 10.796875 72.90625 
L 49.515625 72.90625 
L 49.515625 64.59375 
L 19.828125 64.59375 
L 19.828125 46.734375 
Q 21.96875 47.46875 24.109375 47.828125 
Q 26.265625 48.1875 28.421875 48.1875 
Q 40.625 48.1875 47.75 41.5 
Q 54.890625 34.8125 54.890625 23.390625 
Q 54.890625 11.625 47.5625 5.09375 
Q 40.234375 -1.421875 26.90625 -1.421875 
Q 22.3125 -1.421875 17.546875 -0.640625 
Q 12.796875 0.140625 7.71875 1.703125 
L 7.71875 11.625 
Q 12.109375 9.234375 16.796875 8.0625 
Q 21.484375 6.890625 26.703125 6.890625 
Q 35.15625 6.890625 40.078125 11.328125 
Q 45.015625 15.765625 45.015625 23.390625 
Q 45.015625 31 40.078125 35.4375 
Q 35.15625 39.890625 26.703125 39.890625 
Q 22.75 39.890625 18.8125 39.015625 
Q 14.890625 38.140625 10.796875 36.28125 
z
" id="DejaVuSans-53"/>
       </defs>
       <use xlink:href="#DejaVuSans-49"/>
       <use x="63.623047" xlink:href="#DejaVuSans-53"/>
       <use x="127.246094" xlink:href="#DejaVuSans-48"/>
      </g>
     </g>
    </g>
    <g id="ytick_3">
     <g id="line2d_13"/>
     <g id="text_13">
      <!-- 200 -->
      <g transform="translate(20.878125 240.560083)scale(0.1 -0.1)">
       <defs>
        <path d="M 19.1875 8.296875 
L 53.609375 8.296875 
L 53.609375 0 
L 7.328125 0 
L 7.328125 8.296875 
Q 12.9375 14.109375 22.625 23.890625 
Q 32.328125 33.6875 34.8125 36.53125 
Q 39.546875 41.84375 41.421875 45.53125 
Q 43.3125 49.21875 43.3125 52.78125 
Q 43.3125 58.59375 39.234375 62.25 
Q 35.15625 65.921875 28.609375 65.921875 
Q 23.96875 65.921875 18.8125 64.3125 
Q 13.671875 62.703125 7.8125 59.421875 
L 7.8125 69.390625 
Q 13.765625 71.78125 18.9375 73 
Q 24.125 74.21875 28.421875 74.21875 
Q 39.75 74.21875 46.484375 68.546875 
Q 53.21875 62.890625 53.21875 53.421875 
Q 53.21875 48.921875 51.53125 44.890625 
Q 49.859375 40.875 45.40625 35.40625 
Q 44.1875 33.984375 37.640625 27.21875 
Q 31.109375 20.453125 19.1875 8.296875 
z
" id="DejaVuSans-50"/>
       </defs>
       <use xlink:href="#DejaVuSans-50"/>
       <use x="63.623047" xlink:href="#DejaVuSans-48"/>
       <use x="127.246094" xlink:href="#DejaVuSans-48"/>
      </g>
     </g>
    </g>
    <g id="ytick_4">
     <g id="line2d_14"/>
     <g id="text_14">
      <!-- 250 -->
      <g transform="translate(20.878125 207.377152)scale(0.1 -0.1)">
       <use xlink:href="#DejaVuSans-50"/>
       <use x="63.623047" xlink:href="#DejaVuSans-53"/>
       <use x="127.246094" xlink:href="#DejaVuSans-48"/>
      </g>
     </g>
    </g>
    <g id="ytick_5">
     <g id="line2d_15"/>
     <g id="text_15">
      <!-- 300 -->
      <g transform="translate(20.878125 174.19422)scale(0.1 -0.1)">
       <defs>
        <path d="M 40.578125 39.3125 
Q 47.65625 37.796875 51.625 33 
Q 55.609375 28.21875 55.609375 21.1875 
Q 55.609375 10.40625 48.1875 4.484375 
Q 40.765625 -1.421875 27.09375 -1.421875 
Q 22.515625 -1.421875 17.65625 -0.515625 
Q 12.796875 0.390625 7.625 2.203125 
L 7.625 11.71875 
Q 11.71875 9.328125 16.59375 8.109375 
Q 21.484375 6.890625 26.8125 6.890625 
Q 36.078125 6.890625 40.9375 10.546875 
Q 45.796875 14.203125 45.796875 21.1875 
Q 45.796875 27.640625 41.28125 31.265625 
Q 36.765625 34.90625 28.71875 34.90625 
L 20.21875 34.90625 
L 20.21875 43.015625 
L 29.109375 43.015625 
Q 36.375 43.015625 40.234375 45.921875 
Q 44.09375 48.828125 44.09375 54.296875 
Q 44.09375 59.90625 40.109375 62.90625 
Q 36.140625 65.921875 28.71875 65.921875 
Q 24.65625 65.921875 20.015625 65.03125 
Q 15.375 64.15625 9.8125 62.3125 
L 9.8125 71.09375 
Q 15.4375 72.65625 20.34375 73.4375 
Q 25.25 74.21875 29.59375 74.21875 
Q 40.828125 74.21875 47.359375 69.109375 
Q 53.90625 64.015625 53.90625 55.328125 
Q 53.90625 49.265625 50.4375 45.09375 
Q 46.96875 40.921875 40.578125 39.3125 
z
" id="DejaVuSans-51"/>
       </defs>
       <use xlink:href="#DejaVuSans-51"/>
       <use x="63.623047" xlink:href="#DejaVuSans-48"/>
       <use x="127.246094" xlink:href="#DejaVuSans-48"/>
      </g>
     </g>
    </g>
    <g id="ytick_6">
     <g id="line2d_16"/>
     <g id="text_16">
      <!-- 350 -->
      <g transform="translate(20.878125 141.011288)scale(0.1 -0.1)">
       <use xlink:href="#DejaVuSans-51"/>
       <use x="63.623047" xlink:href="#DejaVuSans-53"/>
       <use x="127.246094" xlink:href="#DejaVuSans-48"/>
      </g>
     </g>
    </g>
    <g id="ytick_7">
     <g id="line2d_17"/>
     <g id="text_17">
      <!-- 400 -->
      <g transform="translate(20.878125 107.828357)scale(0.1 -0.1)">
       <defs>
        <path d="M 37.796875 64.3125 
L 12.890625 25.390625 
L 37.796875 25.390625 
z
M 35.203125 72.90625 
L 47.609375 72.90625 
L 47.609375 25.390625 
L 58.015625 25.390625 
L 58.015625 17.1875 
L 47.609375 17.1875 
L 47.609375 0 
L 37.796875 0 
L 37.796875 17.1875 
L 4.890625 17.1875 
L 4.890625 26.703125 
z
" id="DejaVuSans-52"/>
       </defs>
       <use xlink:href="#DejaVuSans-52"/>
       <use x="63.623047" xlink:href="#DejaVuSans-48"/>
       <use x="127.246094" xlink:href="#DejaVuSans-48"/>
      </g>
     </g>
    </g>
    <g id="ytick_8">
     <g id="line2d_18"/>
     <g id="text_18">
      <!-- 450 -->
      <g transform="translate(20.878125 74.645425)scale(0.1 -0.1)">
       <use xlink:href="#DejaVuSans-52"/>
       <use x="63.623047" xlink:href="#DejaVuSans-53"/>
       <use x="127.246094" xlink:href="#DejaVuSans-48"/>
      </g>
     </g>
    </g>
    <g id="ytick_9">
     <g id="line2d_19"/>
    </g>
    <g id="ytick_10">
     <g id="line2d_20"/>
    </g>
    <g id="ytick_11">
     <g id="line2d_21"/>
    </g>
    <g id="ytick_12">
     <g id="line2d_22"/>
    </g>
    <g id="ytick_13">
     <g id="line2d_23"/>
    </g>
    <g id="ytick_14">
     <g id="line2d_24"/>
    </g>
    <g id="ytick_15">
     <g id="line2d_25"/>
    </g>
    <g id="ytick_16">
     <g id="line2d_26"/>
    </g>
    <g id="ytick_17">
     <g id="line2d_27"/>
    </g>
    <g id="ytick_18">
     <g id="line2d_28"/>
    </g>
    <g id="ytick_19">
     <g id="line2d_29"/>
    </g>
    <g id="ytick_20">
     <g id="line2d_30"/>
    </g>
    <g id="ytick_21">
     <g id="line2d_31"/>
    </g>
    <g id="ytick_22">
     <g id="line2d_32"/>
    </g>
    <g id="ytick_23">
     <g id="line2d_33"/>
    </g>
    <g id="ytick_24">
     <g id="line2d_34"/>
    </g>
    <g id="ytick_25">
     <g id="line2d_35"/>
    </g>
    <g id="ytick_26">
     <g id="line2d_36"/>
    </g>
    <g id="ytick_27">
     <g id="line2d_37"/>
    </g>
    <g id="ytick_28">
     <g id="line2d_38"/>
    </g>
    <g id="ytick_29">
     <g id="line2d_39"/>
    </g>
    <g id="ytick_30">
     <g id="line2d_40"/>
    </g>
    <g id="ytick_31">
     <g id="line2d_41"/>
    </g>
    <g id="ytick_32">
     <g id="line2d_42"/>
    </g>
    <g id="ytick_33">
     <g id="line2d_43"/>
    </g>
    <g id="ytick_34">
     <g id="line2d_44"/>
    </g>
    <g id="ytick_35">
     <g id="line2d_45"/>
    </g>
    <g id="ytick_36">
     <g id="line2d_46"/>
    </g>
    <g id="ytick_37">
     <g id="line2d_47"/>
    </g>
    <g id="ytick_38">
     <g id="line2d_48"/>
    </g>
    <g id="ytick_39">
     <g id="line2d_49"/>
    </g>
    <g id="ytick_40">
     <g id="line2d_50"/>
    </g>
    <g id="text_19">
     <!-- Mbits/s -->
     <g transform="translate(14.798437 196.57925)rotate(-90)scale(0.1 -0.1)">
      <defs>
       <path d="M 9.8125 72.90625 
L 24.515625 72.90625 
L 43.109375 23.296875 
L 61.8125 72.90625 
L 76.515625 72.90625 
L 76.515625 0 
L 66.890625 0 
L 66.890625 64.015625 
L 48.09375 14.015625 
L 38.1875 14.015625 
L 19.390625 64.015625 
L 19.390625 0 
L 9.8125 0 
z
" id="DejaVuSans-77"/>
       <path d="M 48.6875 27.296875 
Q 48.6875 37.203125 44.609375 42.84375 
Q 40.53125 48.484375 33.40625 48.484375 
Q 26.265625 48.484375 22.1875 42.84375 
Q 18.109375 37.203125 18.109375 27.296875 
Q 18.109375 17.390625 22.1875 11.75 
Q 26.265625 6.109375 33.40625 6.109375 
Q 40.53125 6.109375 44.609375 11.75 
Q 48.6875 17.390625 48.6875 27.296875 
z
M 18.109375 46.390625 
Q 20.953125 51.265625 25.265625 53.625 
Q 29.59375 56 35.59375 56 
Q 45.5625 56 51.78125 48.09375 
Q 58.015625 40.1875 58.015625 27.296875 
Q 58.015625 14.40625 51.78125 6.484375 
Q 45.5625 -1.421875 35.59375 -1.421875 
Q 29.59375 -1.421875 25.265625 0.953125 
Q 20.953125 3.328125 18.109375 8.203125 
L 18.109375 0 
L 9.078125 0 
L 9.078125 75.984375 
L 18.109375 75.984375 
z
" id="DejaVuSans-98"/>
       <path d="M 18.3125 70.21875 
L 18.3125 54.6875 
L 36.8125 54.6875 
L 36.8125 47.703125 
L 18.3125 47.703125 
L 18.3125 18.015625 
Q 18.3125 11.328125 20.140625 9.421875 
Q 21.96875 7.515625 27.59375 7.515625 
L 36.8125 7.515625 
L 36.8125 0 
L 27.59375 0 
Q 17.1875 0 13.234375 3.875 
Q 9.28125 7.765625 9.28125 18.015625 
L 9.28125 47.703125 
L 2.6875 47.703125 
L 2.6875 54.6875 
L 9.28125 54.6875 
L 9.28125 70.21875 
z
" id="DejaVuSans-116"/>
       <path d="M 44.28125 53.078125 
L 44.28125 44.578125 
Q 40.484375 46.53125 36.375 47.5 
Q 32.28125 48.484375 27.875 48.484375 
Q 21.1875 48.484375 17.84375 46.4375 
Q 14.5 44.390625 14.5 40.28125 
Q 14.5 37.15625 16.890625 35.375 
Q 19.28125 33.59375 26.515625 31.984375 
L 29.59375 31.296875 
Q 39.15625 29.25 43.1875 25.515625 
Q 47.21875 21.78125 47.21875 15.09375 
Q 47.21875 7.46875 41.1875 3.015625 
Q 35.15625 -1.421875 24.609375 -1.421875 
Q 20.21875 -1.421875 15.453125 -0.5625 
Q 10.6875 0.296875 5.421875 2 
L 5.421875 11.28125 
Q 10.40625 8.6875 15.234375 7.390625 
Q 20.0625 6.109375 24.8125 6.109375 
Q 31.15625 6.109375 34.5625 8.28125 
Q 37.984375 10.453125 37.984375 14.40625 
Q 37.984375 18.0625 35.515625 20.015625 
Q 33.0625 21.96875 24.703125 23.78125 
L 21.578125 24.515625 
Q 13.234375 26.265625 9.515625 29.90625 
Q 5.8125 33.546875 5.8125 39.890625 
Q 5.8125 47.609375 11.28125 51.796875 
Q 16.75 56 26.8125 56 
Q 31.78125 56 36.171875 55.265625 
Q 40.578125 54.546875 44.28125 53.078125 
z
" id="DejaVuSans-115"/>
       <path d="M 25.390625 72.90625 
L 33.6875 72.90625 
L 8.296875 -9.28125 
L 0 -9.28125 
z
" id="DejaVuSans-47"/>
      </defs>
      <use xlink:href="#DejaVuSans-77"/>
      <use x="86.279297" xlink:href="#DejaVuSans-98"/>
      <use x="149.755859" xlink:href="#DejaVuSans-105"/>
      <use x="177.539062" xlink:href="#DejaVuSans-116"/>
      <use x="216.748047" xlink:href="#DejaVuSans-115"/>
      <use x="268.847656" xlink:href="#DejaVuSans-47"/>
      <use x="302.539062" xlink:href="#DejaVuSans-115"/>
     </g>
    </g>
   </g>
   <g id="line2d_51">
    <path clip-path="url(#p1e465baa2d)" d="M 65.785625 205.915804 
L 80.665625 205.915804 
L 80.665625 187.652601 
L 65.785625 187.652601 
L 65.785625 205.915804 
" style="fill:none;stroke:#1b9e77;stroke-linecap:round;"/>
   </g>
   <g id="line2d_52">
    <path clip-path="url(#p1e465baa2d)" d="M 73.225625 205.915804 
L 73.225625 232.984299 
" style="fill:none;stroke:#1b9e77;stroke-linecap:round;"/>
   </g>
   <g id="line2d_53">
    <path clip-path="url(#p1e465baa2d)" d="M 73.225625 187.652601 
L 73.225625 165.984563 
" style="fill:none;stroke:#1b9e77;stroke-linecap:round;"/>
   </g>
   <g id="line2d_54">
    <path clip-path="url(#p1e465baa2d)" d="M 69.505625 232.984299 
L 76.945625 232.984299 
" style="fill:none;stroke:#1b9e77;stroke-linecap:round;"/>
   </g>
   <g id="line2d_55">
    <path clip-path="url(#p1e465baa2d)" d="M 69.505625 165.984563 
L 76.945625 165.984563 
" style="fill:none;stroke:#1b9e77;stroke-linecap:round;"/>
   </g>
   <g id="line2d_56">
    <defs>
     <path d="M -3 0 
L 3 0 
M 0 3 
L 0 -3 
" id="mbb1058ff51" style="stroke:#1b9e77;"/>
    </defs>
    <g clip-path="url(#p1e465baa2d)">
     <use style="fill:#0000ff;stroke:#1b9e77;" x="73.225625" xlink:href="#mbb1058ff51" y="242.534694"/>
     <use style="fill:#0000ff;stroke:#1b9e77;" x="73.225625" xlink:href="#mbb1058ff51" y="241.70612"/>
     <use style="fill:#0000ff;stroke:#1b9e77;" x="73.225625" xlink:href="#mbb1058ff51" y="234.954281"/>
     <use style="fill:#0000ff;stroke:#1b9e77;" x="73.225625" xlink:href="#mbb1058ff51" y="242.679952"/>
     <use style="fill:#0000ff;stroke:#1b9e77;" x="73.225625" xlink:href="#mbb1058ff51" y="240.837382"/>
     <use style="fill:#0000ff;stroke:#1b9e77;" x="73.225625" xlink:href="#mbb1058ff51" y="236.840304"/>
     <use style="fill:#0000ff;stroke:#1b9e77;" x="73.225625" xlink:href="#mbb1058ff51" y="238.494337"/>
     <use style="fill:#0000ff;stroke:#1b9e77;" x="73.225625" xlink:href="#mbb1058ff51" y="241.291"/>
     <use style="fill:#0000ff;stroke:#1b9e77;" x="73.225625" xlink:href="#mbb1058ff51" y="260.007294"/>
     <use style="fill:#0000ff;stroke:#1b9e77;" x="73.225625" xlink:href="#mbb1058ff51" y="253.507617"/>
     <use style="fill:#0000ff;stroke:#1b9e77;" x="73.225625" xlink:href="#mbb1058ff51" y="234.689378"/>
     <use style="fill:#0000ff;stroke:#1b9e77;" x="73.225625" xlink:href="#mbb1058ff51" y="254.293684"/>
     <use style="fill:#0000ff;stroke:#1b9e77;" x="73.225625" xlink:href="#mbb1058ff51" y="233.742705"/>
     <use style="fill:#0000ff;stroke:#1b9e77;" x="73.225625" xlink:href="#mbb1058ff51" y="237.865283"/>
     <use style="fill:#0000ff;stroke:#1b9e77;" x="73.225625" xlink:href="#mbb1058ff51" y="268.785217"/>
     <use style="fill:#0000ff;stroke:#1b9e77;" x="73.225625" xlink:href="#mbb1058ff51" y="287.81133"/>
     <use style="fill:#0000ff;stroke:#1b9e77;" x="73.225625" xlink:href="#mbb1058ff51" y="284.936478"/>
     <use style="fill:#0000ff;stroke:#1b9e77;" x="73.225625" xlink:href="#mbb1058ff51" y="291.300491"/>
     <use style="fill:#0000ff;stroke:#1b9e77;" x="73.225625" xlink:href="#mbb1058ff51" y="296.09418"/>
     <use style="fill:#0000ff;stroke:#1b9e77;" x="73.225625" xlink:href="#mbb1058ff51" y="286.361662"/>
     <use style="fill:#0000ff;stroke:#1b9e77;" x="73.225625" xlink:href="#mbb1058ff51" y="284.502819"/>
     <use style="fill:#0000ff;stroke:#1b9e77;" x="73.225625" xlink:href="#mbb1058ff51" y="294.165307"/>
     <use style="fill:#0000ff;stroke:#1b9e77;" x="73.225625" xlink:href="#mbb1058ff51" y="272.768681"/>
     <use style="fill:#0000ff;stroke:#1b9e77;" x="73.225625" xlink:href="#mbb1058ff51" y="268.938151"/>
     <use style="fill:#0000ff;stroke:#1b9e77;" x="73.225625" xlink:href="#mbb1058ff51" y="275.252491"/>
     <use style="fill:#0000ff;stroke:#1b9e77;" x="73.225625" xlink:href="#mbb1058ff51" y="255.012271"/>
     <use style="fill:#0000ff;stroke:#1b9e77;" x="73.225625" xlink:href="#mbb1058ff51" y="257.138292"/>
     <use style="fill:#0000ff;stroke:#1b9e77;" x="73.225625" xlink:href="#mbb1058ff51" y="261.214341"/>
     <use style="fill:#0000ff;stroke:#1b9e77;" x="73.225625" xlink:href="#mbb1058ff51" y="240.576501"/>
     <use style="fill:#0000ff;stroke:#1b9e77;" x="73.225625" xlink:href="#mbb1058ff51" y="134.873972"/>
     <use style="fill:#0000ff;stroke:#1b9e77;" x="73.225625" xlink:href="#mbb1058ff51" y="147.689165"/>
    </g>
   </g>
   <g id="line2d_57">
    <path clip-path="url(#p1e465baa2d)" d="M 95.545625 208.414014 
L 110.425625 208.414014 
L 110.425625 185.0851 
L 95.545625 185.0851 
L 95.545625 208.414014 
" style="fill:none;stroke:#d95f02;stroke-linecap:round;"/>
   </g>
   <g id="line2d_58">
    <path clip-path="url(#p1e465baa2d)" d="M 102.985625 208.414014 
L 102.985625 240.893828 
" style="fill:none;stroke:#d95f02;stroke-linecap:round;"/>
   </g>
   <g id="line2d_59">
    <path clip-path="url(#p1e465baa2d)" d="M 102.985625 185.0851 
L 102.985625 162.172271 
" style="fill:none;stroke:#d95f02;stroke-linecap:round;"/>
   </g>
   <g id="line2d_60">
    <path clip-path="url(#p1e465baa2d)" d="M 99.265625 240.893828 
L 106.705625 240.893828 
" style="fill:none;stroke:#d95f02;stroke-linecap:round;"/>
   </g>
   <g id="line2d_61">
    <path clip-path="url(#p1e465baa2d)" d="M 99.265625 162.172271 
L 106.705625 162.172271 
" style="fill:none;stroke:#d95f02;stroke-linecap:round;"/>
   </g>
   <g id="line2d_62">
    <defs>
     <path d="M -3 0 
L 3 0 
M 0 3 
L 0 -3 
" id="m23283ee156" style="stroke:#d95f02;"/>
    </defs>
    <g clip-path="url(#p1e465baa2d)">
     <use style="fill:#0000ff;stroke:#d95f02;" x="102.985625" xlink:href="#m23283ee156" y="248.639985"/>
     <use style="fill:#0000ff;stroke:#d95f02;" x="102.985625" xlink:href="#m23283ee156" y="244.847311"/>
     <use style="fill:#0000ff;stroke:#d95f02;" x="102.985625" xlink:href="#m23283ee156" y="285.85708"/>
     <use style="fill:#0000ff;stroke:#d95f02;" x="102.985625" xlink:href="#m23283ee156" y="301.937275"/>
     <use style="fill:#0000ff;stroke:#d95f02;" x="102.985625" xlink:href="#m23283ee156" y="291.592171"/>
     <use style="fill:#0000ff;stroke:#d95f02;" x="102.985625" xlink:href="#m23283ee156" y="246.648893"/>
     <use style="fill:#0000ff;stroke:#d95f02;" x="102.985625" xlink:href="#m23283ee156" y="253.531785"/>
     <use style="fill:#0000ff;stroke:#d95f02;" x="102.985625" xlink:href="#m23283ee156" y="250.934148"/>
     <use style="fill:#0000ff;stroke:#d95f02;" x="102.985625" xlink:href="#m23283ee156" y="255.978516"/>
     <use style="fill:#0000ff;stroke:#d95f02;" x="102.985625" xlink:href="#m23283ee156" y="279.184301"/>
     <use style="fill:#0000ff;stroke:#d95f02;" x="102.985625" xlink:href="#m23283ee156" y="299.381177"/>
     <use style="fill:#0000ff;stroke:#d95f02;" x="102.985625" xlink:href="#m23283ee156" y="303.985296"/>
     <use style="fill:#0000ff;stroke:#d95f02;" x="102.985625" xlink:href="#m23283ee156" y="294.231934"/>
     <use style="fill:#0000ff;stroke:#d95f02;" x="102.985625" xlink:href="#m23283ee156" y="274.382514"/>
     <use style="fill:#0000ff;stroke:#d95f02;" x="102.985625" xlink:href="#m23283ee156" y="269.671936"/>
     <use style="fill:#0000ff;stroke:#d95f02;" x="102.985625" xlink:href="#m23283ee156" y="272.382002"/>
     <use style="fill:#0000ff;stroke:#d95f02;" x="102.985625" xlink:href="#m23283ee156" y="270.206672"/>
     <use style="fill:#0000ff;stroke:#d95f02;" x="102.985625" xlink:href="#m23283ee156" y="265.811008"/>
     <use style="fill:#0000ff;stroke:#d95f02;" x="102.985625" xlink:href="#m23283ee156" y="272.86484"/>
     <use style="fill:#0000ff;stroke:#d95f02;" x="102.985625" xlink:href="#m23283ee156" y="287.69382"/>
     <use style="fill:#0000ff;stroke:#d95f02;" x="102.985625" xlink:href="#m23283ee156" y="297.933415"/>
     <use style="fill:#0000ff;stroke:#d95f02;" x="102.985625" xlink:href="#m23283ee156" y="279.464333"/>
     <use style="fill:#0000ff;stroke:#d95f02;" x="102.985625" xlink:href="#m23283ee156" y="267.372779"/>
     <use style="fill:#0000ff;stroke:#d95f02;" x="102.985625" xlink:href="#m23283ee156" y="282.203153"/>
     <use style="fill:#0000ff;stroke:#d95f02;" x="102.985625" xlink:href="#m23283ee156" y="301.050299"/>
     <use style="fill:#0000ff;stroke:#d95f02;" x="102.985625" xlink:href="#m23283ee156" y="309.295059"/>
     <use style="fill:#0000ff;stroke:#d95f02;" x="102.985625" xlink:href="#m23283ee156" y="285.809736"/>
     <use style="fill:#0000ff;stroke:#d95f02;" x="102.985625" xlink:href="#m23283ee156" y="252.960868"/>
     <use style="fill:#0000ff;stroke:#d95f02;" x="102.985625" xlink:href="#m23283ee156" y="243.878896"/>
     <use style="fill:#0000ff;stroke:#d95f02;" x="102.985625" xlink:href="#m23283ee156" y="249.211333"/>
     <use style="fill:#0000ff;stroke:#d95f02;" x="102.985625" xlink:href="#m23283ee156" y="248.419838"/>
     <use style="fill:#0000ff;stroke:#d95f02;" x="102.985625" xlink:href="#m23283ee156" y="256.498197"/>
     <use style="fill:#0000ff;stroke:#d95f02;" x="102.985625" xlink:href="#m23283ee156" y="264.499774"/>
     <use style="fill:#0000ff;stroke:#d95f02;" x="102.985625" xlink:href="#m23283ee156" y="275.612936"/>
     <use style="fill:#0000ff;stroke:#d95f02;" x="102.985625" xlink:href="#m23283ee156" y="279.107448"/>
     <use style="fill:#0000ff;stroke:#d95f02;" x="102.985625" xlink:href="#m23283ee156" y="252.05476"/>
     <use style="fill:#0000ff;stroke:#d95f02;" x="102.985625" xlink:href="#m23283ee156" y="145.456099"/>
     <use style="fill:#0000ff;stroke:#d95f02;" x="102.985625" xlink:href="#m23283ee156" y="136.670084"/>
    </g>
   </g>
   <g id="line2d_63">
    <path clip-path="url(#p1e465baa2d)" d="M 125.305625 197.518752 
L 140.185625 197.518752 
L 140.185625 181.414997 
L 125.305625 181.414997 
L 125.305625 197.518752 
" style="fill:none;stroke:#7570b3;stroke-linecap:round;"/>
   </g>
   <g id="line2d_64">
    <path clip-path="url(#p1e465baa2d)" d="M 132.745625 197.518752 
L 132.745625 219.540967 
" style="fill:none;stroke:#7570b3;stroke-linecap:round;"/>
   </g>
   <g id="line2d_65">
    <path clip-path="url(#p1e465baa2d)" d="M 132.745625 181.414997 
L 132.745625 160.749478 
" style="fill:none;stroke:#7570b3;stroke-linecap:round;"/>
   </g>
   <g id="line2d_66">
    <path clip-path="url(#p1e465baa2d)" d="M 129.025625 219.540967 
L 136.465625 219.540967 
" style="fill:none;stroke:#7570b3;stroke-linecap:round;"/>
   </g>
   <g id="line2d_67">
    <path clip-path="url(#p1e465baa2d)" d="M 129.025625 160.749478 
L 136.465625 160.749478 
" style="fill:none;stroke:#7570b3;stroke-linecap:round;"/>
   </g>
   <g id="line2d_68">
    <defs>
     <path d="M -3 0 
L 3 0 
M 0 3 
L 0 -3 
" id="m6002cd1621" style="stroke:#7570b3;"/>
    </defs>
    <g clip-path="url(#p1e465baa2d)">
     <use style="fill:#0000ff;stroke:#7570b3;" x="132.745625" xlink:href="#m6002cd1621" y="222.976675"/>
     <use style="fill:#0000ff;stroke:#7570b3;" x="132.745625" xlink:href="#m6002cd1621" y="225.733287"/>
     <use style="fill:#0000ff;stroke:#7570b3;" x="132.745625" xlink:href="#m6002cd1621" y="232.114135"/>
     <use style="fill:#0000ff;stroke:#7570b3;" x="132.745625" xlink:href="#m6002cd1621" y="235.21721"/>
     <use style="fill:#0000ff;stroke:#7570b3;" x="132.745625" xlink:href="#m6002cd1621" y="227.128143"/>
     <use style="fill:#0000ff;stroke:#7570b3;" x="132.745625" xlink:href="#m6002cd1621" y="230.73817"/>
     <use style="fill:#0000ff;stroke:#7570b3;" x="132.745625" xlink:href="#m6002cd1621" y="238.31242"/>
     <use style="fill:#0000ff;stroke:#7570b3;" x="132.745625" xlink:href="#m6002cd1621" y="238.541827"/>
     <use style="fill:#0000ff;stroke:#7570b3;" x="132.745625" xlink:href="#m6002cd1621" y="228.789957"/>
     <use style="fill:#0000ff;stroke:#7570b3;" x="132.745625" xlink:href="#m6002cd1621" y="224.02133"/>
     <use style="fill:#0000ff;stroke:#7570b3;" x="132.745625" xlink:href="#m6002cd1621" y="226.968137"/>
     <use style="fill:#0000ff;stroke:#7570b3;" x="132.745625" xlink:href="#m6002cd1621" y="249.062399"/>
     <use style="fill:#0000ff;stroke:#7570b3;" x="132.745625" xlink:href="#m6002cd1621" y="242.011333"/>
     <use style="fill:#0000ff;stroke:#7570b3;" x="132.745625" xlink:href="#m6002cd1621" y="232.061577"/>
     <use style="fill:#0000ff;stroke:#7570b3;" x="132.745625" xlink:href="#m6002cd1621" y="259.770533"/>
     <use style="fill:#0000ff;stroke:#7570b3;" x="132.745625" xlink:href="#m6002cd1621" y="292.372117"/>
     <use style="fill:#0000ff;stroke:#7570b3;" x="132.745625" xlink:href="#m6002cd1621" y="254.150925"/>
     <use style="fill:#0000ff;stroke:#7570b3;" x="132.745625" xlink:href="#m6002cd1621" y="235.847527"/>
     <use style="fill:#0000ff;stroke:#7570b3;" x="132.745625" xlink:href="#m6002cd1621" y="254.162552"/>
     <use style="fill:#0000ff;stroke:#7570b3;" x="132.745625" xlink:href="#m6002cd1621" y="263.085255"/>
     <use style="fill:#0000ff;stroke:#7570b3;" x="132.745625" xlink:href="#m6002cd1621" y="251.065568"/>
     <use style="fill:#0000ff;stroke:#7570b3;" x="132.745625" xlink:href="#m6002cd1621" y="223.067226"/>
     <use style="fill:#0000ff;stroke:#7570b3;" x="132.745625" xlink:href="#m6002cd1621" y="234.629771"/>
     <use style="fill:#0000ff;stroke:#7570b3;" x="132.745625" xlink:href="#m6002cd1621" y="269.232646"/>
     <use style="fill:#0000ff;stroke:#7570b3;" x="132.745625" xlink:href="#m6002cd1621" y="287.047576"/>
     <use style="fill:#0000ff;stroke:#7570b3;" x="132.745625" xlink:href="#m6002cd1621" y="250.461451"/>
     <use style="fill:#0000ff;stroke:#7570b3;" x="132.745625" xlink:href="#m6002cd1621" y="238.624812"/>
     <use style="fill:#0000ff;stroke:#7570b3;" x="132.745625" xlink:href="#m6002cd1621" y="242.092262"/>
     <use style="fill:#0000ff;stroke:#7570b3;" x="132.745625" xlink:href="#m6002cd1621" y="241.813612"/>
     <use style="fill:#0000ff;stroke:#7570b3;" x="132.745625" xlink:href="#m6002cd1621" y="227.495662"/>
     <use style="fill:#0000ff;stroke:#7570b3;" x="132.745625" xlink:href="#m6002cd1621" y="225.498784"/>
     <use style="fill:#0000ff;stroke:#7570b3;" x="132.745625" xlink:href="#m6002cd1621" y="232.820236"/>
     <use style="fill:#0000ff;stroke:#7570b3;" x="132.745625" xlink:href="#m6002cd1621" y="256.670685"/>
     <use style="fill:#0000ff;stroke:#7570b3;" x="132.745625" xlink:href="#m6002cd1621" y="238.043729"/>
     <use style="fill:#0000ff;stroke:#7570b3;" x="132.745625" xlink:href="#m6002cd1621" y="224.235753"/>
     <use style="fill:#0000ff;stroke:#7570b3;" x="132.745625" xlink:href="#m6002cd1621" y="224.27439"/>
     <use style="fill:#0000ff;stroke:#7570b3;" x="132.745625" xlink:href="#m6002cd1621" y="221.95906"/>
     <use style="fill:#0000ff;stroke:#7570b3;" x="132.745625" xlink:href="#m6002cd1621" y="234.851646"/>
     <use style="fill:#0000ff;stroke:#7570b3;" x="132.745625" xlink:href="#m6002cd1621" y="222.205151"/>
     <use style="fill:#0000ff;stroke:#7570b3;" x="132.745625" xlink:href="#m6002cd1621" y="235.881794"/>
     <use style="fill:#0000ff;stroke:#7570b3;" x="132.745625" xlink:href="#m6002cd1621" y="233.928194"/>
     <use style="fill:#0000ff;stroke:#7570b3;" x="132.745625" xlink:href="#m6002cd1621" y="239.394982"/>
     <use style="fill:#0000ff;stroke:#7570b3;" x="132.745625" xlink:href="#m6002cd1621" y="146.095934"/>
     <use style="fill:#0000ff;stroke:#7570b3;" x="132.745625" xlink:href="#m6002cd1621" y="149.257682"/>
     <use style="fill:#0000ff;stroke:#7570b3;" x="132.745625" xlink:href="#m6002cd1621" y="154.0261"/>
    </g>
   </g>
   <g id="line2d_69">
    <path clip-path="url(#p1e465baa2d)" d="M 155.065625 192.855723 
L 169.945625 192.855723 
L 169.945625 182.945343 
L 155.065625 182.945343 
L 155.065625 192.855723 
" style="fill:none;stroke:#e7298a;stroke-linecap:round;"/>
   </g>
   <g id="line2d_70">
    <path clip-path="url(#p1e465baa2d)" d="M 162.505625 192.855723 
L 162.505625 206.761126 
" style="fill:none;stroke:#e7298a;stroke-linecap:round;"/>
   </g>
   <g id="line2d_71">
    <path clip-path="url(#p1e465baa2d)" d="M 162.505625 182.945343 
L 162.505625 172.30193 
" style="fill:none;stroke:#e7298a;stroke-linecap:round;"/>
   </g>
   <g id="line2d_72">
    <path clip-path="url(#p1e465baa2d)" d="M 158.785625 206.761126 
L 166.225625 206.761126 
" style="fill:none;stroke:#e7298a;stroke-linecap:round;"/>
   </g>
   <g id="line2d_73">
    <path clip-path="url(#p1e465baa2d)" d="M 158.785625 172.30193 
L 166.225625 172.30193 
" style="fill:none;stroke:#e7298a;stroke-linecap:round;"/>
   </g>
   <g id="line2d_74">
    <defs>
     <path d="M -3 0 
L 3 0 
M 0 3 
L 0 -3 
" id="m4aa0def327" style="stroke:#e7298a;"/>
    </defs>
    <g clip-path="url(#p1e465baa2d)">
     <use style="fill:#0000ff;stroke:#e7298a;" x="162.505625" xlink:href="#m4aa0def327" y="210.336522"/>
     <use style="fill:#0000ff;stroke:#e7298a;" x="162.505625" xlink:href="#m4aa0def327" y="242.909193"/>
     <use style="fill:#0000ff;stroke:#e7298a;" x="162.505625" xlink:href="#m4aa0def327" y="256.414155"/>
     <use style="fill:#0000ff;stroke:#e7298a;" x="162.505625" xlink:href="#m4aa0def327" y="258.273682"/>
     <use style="fill:#0000ff;stroke:#e7298a;" x="162.505625" xlink:href="#m4aa0def327" y="254.744595"/>
     <use style="fill:#0000ff;stroke:#e7298a;" x="162.505625" xlink:href="#m4aa0def327" y="239.535761"/>
     <use style="fill:#0000ff;stroke:#e7298a;" x="162.505625" xlink:href="#m4aa0def327" y="255.899938"/>
     <use style="fill:#0000ff;stroke:#e7298a;" x="162.505625" xlink:href="#m4aa0def327" y="269.168456"/>
     <use style="fill:#0000ff;stroke:#e7298a;" x="162.505625" xlink:href="#m4aa0def327" y="249.622976"/>
     <use style="fill:#0000ff;stroke:#e7298a;" x="162.505625" xlink:href="#m4aa0def327" y="217.144185"/>
     <use style="fill:#0000ff;stroke:#e7298a;" x="162.505625" xlink:href="#m4aa0def327" y="212.549166"/>
     <use style="fill:#0000ff;stroke:#e7298a;" x="162.505625" xlink:href="#m4aa0def327" y="219.318472"/>
     <use style="fill:#0000ff;stroke:#e7298a;" x="162.505625" xlink:href="#m4aa0def327" y="245.261436"/>
     <use style="fill:#0000ff;stroke:#e7298a;" x="162.505625" xlink:href="#m4aa0def327" y="210.253095"/>
     <use style="fill:#0000ff;stroke:#e7298a;" x="162.505625" xlink:href="#m4aa0def327" y="225.678308"/>
     <use style="fill:#0000ff;stroke:#e7298a;" x="162.505625" xlink:href="#m4aa0def327" y="208.05681"/>
     <use style="fill:#0000ff;stroke:#e7298a;" x="162.505625" xlink:href="#m4aa0def327" y="228.145282"/>
     <use style="fill:#0000ff;stroke:#e7298a;" x="162.505625" xlink:href="#m4aa0def327" y="267.343118"/>
     <use style="fill:#0000ff;stroke:#e7298a;" x="162.505625" xlink:href="#m4aa0def327" y="214.425905"/>
     <use style="fill:#0000ff;stroke:#e7298a;" x="162.505625" xlink:href="#m4aa0def327" y="233.913013"/>
     <use style="fill:#0000ff;stroke:#e7298a;" x="162.505625" xlink:href="#m4aa0def327" y="234.077306"/>
     <use style="fill:#0000ff;stroke:#e7298a;" x="162.505625" xlink:href="#m4aa0def327" y="234.103623"/>
     <use style="fill:#0000ff;stroke:#e7298a;" x="162.505625" xlink:href="#m4aa0def327" y="247.346916"/>
     <use style="fill:#0000ff;stroke:#e7298a;" x="162.505625" xlink:href="#m4aa0def327" y="213.193098"/>
     <use style="fill:#0000ff;stroke:#e7298a;" x="162.505625" xlink:href="#m4aa0def327" y="208.925"/>
     <use style="fill:#0000ff;stroke:#e7298a;" x="162.505625" xlink:href="#m4aa0def327" y="223.17616"/>
     <use style="fill:#0000ff;stroke:#e7298a;" x="162.505625" xlink:href="#m4aa0def327" y="220.900767"/>
     <use style="fill:#0000ff;stroke:#e7298a;" x="162.505625" xlink:href="#m4aa0def327" y="262.602272"/>
     <use style="fill:#0000ff;stroke:#e7298a;" x="162.505625" xlink:href="#m4aa0def327" y="224.075217"/>
     <use style="fill:#0000ff;stroke:#e7298a;" x="162.505625" xlink:href="#m4aa0def327" y="131.259052"/>
     <use style="fill:#0000ff;stroke:#e7298a;" x="162.505625" xlink:href="#m4aa0def327" y="127.979264"/>
     <use style="fill:#0000ff;stroke:#e7298a;" x="162.505625" xlink:href="#m4aa0def327" y="164.722721"/>
     <use style="fill:#0000ff;stroke:#e7298a;" x="162.505625" xlink:href="#m4aa0def327" y="61.204199"/>
    </g>
   </g>
   <g id="line2d_75">
    <path clip-path="url(#p1e465baa2d)" d="M 184.825625 181.786144 
L 199.705625 181.786144 
L 199.705625 174.195419 
L 184.825625 174.195419 
L 184.825625 181.786144 
" style="fill:none;stroke:#66a61e;stroke-linecap:round;"/>
   </g>
   <g id="line2d_76">
    <path clip-path="url(#p1e465baa2d)" d="M 192.265625 181.786144 
L 192.265625 192.985561 
" style="fill:none;stroke:#66a61e;stroke-linecap:round;"/>
   </g>
   <g id="line2d_77">
    <path clip-path="url(#p1e465baa2d)" d="M 192.265625 174.195419 
L 192.265625 163.17487 
" style="fill:none;stroke:#66a61e;stroke-linecap:round;"/>
   </g>
   <g id="line2d_78">
    <path clip-path="url(#p1e465baa2d)" d="M 188.545625 192.985561 
L 195.985625 192.985561 
" style="fill:none;stroke:#66a61e;stroke-linecap:round;"/>
   </g>
   <g id="line2d_79">
    <path clip-path="url(#p1e465baa2d)" d="M 188.545625 163.17487 
L 195.985625 163.17487 
" style="fill:none;stroke:#66a61e;stroke-linecap:round;"/>
   </g>
   <g id="line2d_80">
    <defs>
     <path d="M -3 0 
L 3 0 
M 0 3 
L 0 -3 
" id="m7ee320c801" style="stroke:#66a61e;"/>
    </defs>
    <g clip-path="url(#p1e465baa2d)">
     <use style="fill:#0000ff;stroke:#66a61e;" x="192.265625" xlink:href="#m7ee320c801" y="281.9892"/>
     <use style="fill:#0000ff;stroke:#66a61e;" x="192.265625" xlink:href="#m7ee320c801" y="195.206927"/>
     <use style="fill:#0000ff;stroke:#66a61e;" x="192.265625" xlink:href="#m7ee320c801" y="195.267072"/>
     <use style="fill:#0000ff;stroke:#66a61e;" x="192.265625" xlink:href="#m7ee320c801" y="210.254736"/>
     <use style="fill:#0000ff;stroke:#66a61e;" x="192.265625" xlink:href="#m7ee320c801" y="240.838425"/>
     <use style="fill:#0000ff;stroke:#66a61e;" x="192.265625" xlink:href="#m7ee320c801" y="264.15057"/>
     <use style="fill:#0000ff;stroke:#66a61e;" x="192.265625" xlink:href="#m7ee320c801" y="231.565993"/>
     <use style="fill:#0000ff;stroke:#66a61e;" x="192.265625" xlink:href="#m7ee320c801" y="206.705202"/>
     <use style="fill:#0000ff;stroke:#66a61e;" x="192.265625" xlink:href="#m7ee320c801" y="200.269682"/>
     <use style="fill:#0000ff;stroke:#66a61e;" x="192.265625" xlink:href="#m7ee320c801" y="48.400941"/>
     <use style="fill:#0000ff;stroke:#66a61e;" x="192.265625" xlink:href="#m7ee320c801" y="148.262608"/>
     <use style="fill:#0000ff;stroke:#66a61e;" x="192.265625" xlink:href="#m7ee320c801" y="160.782679"/>
     <use style="fill:#0000ff;stroke:#66a61e;" x="192.265625" xlink:href="#m7ee320c801" y="159.437927"/>
     <use style="fill:#0000ff;stroke:#66a61e;" x="192.265625" xlink:href="#m7ee320c801" y="156.766452"/>
     <use style="fill:#0000ff;stroke:#66a61e;" x="192.265625" xlink:href="#m7ee320c801" y="154.469878"/>
     <use style="fill:#0000ff;stroke:#66a61e;" x="192.265625" xlink:href="#m7ee320c801" y="132.350002"/>
    </g>
   </g>
   <g id="line2d_81">
    <path clip-path="url(#p1e465baa2d)" d="M 222.025625 311.904 
L 222.025625 45.792 
" style="fill:none;stroke:#000000;stroke-dasharray:0.5,0.825;stroke-dashoffset:0;stroke-width:0.5;"/>
   </g>
   <g id="line2d_82">
    <path clip-path="url(#p1e465baa2d)" d="M 65.785625 196.361302 
L 80.665625 196.361302 
" style="fill:none;stroke:#ff7f0e;stroke-linecap:round;"/>
   </g>
   <g id="line2d_83">
    <path clip-path="url(#p1e465baa2d)" d="M 95.545625 193.600243 
L 110.425625 193.600243 
" style="fill:none;stroke:#ff7f0e;stroke-linecap:round;"/>
   </g>
   <g id="line2d_84">
    <path clip-path="url(#p1e465baa2d)" d="M 125.305625 186.31212 
L 140.185625 186.31212 
" style="fill:none;stroke:#ff7f0e;stroke-linecap:round;"/>
   </g>
   <g id="line2d_85">
    <path clip-path="url(#p1e465baa2d)" d="M 155.065625 187.700892 
L 169.945625 187.700892 
" style="fill:none;stroke:#ff7f0e;stroke-linecap:round;"/>
   </g>
   <g id="line2d_86">
    <path clip-path="url(#p1e465baa2d)" d="M 184.825625 177.500528 
L 199.705625 177.500528 
" style="fill:none;stroke:#ff7f0e;stroke-linecap:round;"/>
   </g>
   <g id="patch_3">
    <path d="M 43.465625 311.904 
L 43.465625 45.792 
" style="fill:none;"/>
   </g>
   <g id="patch_4">
    <path d="M 400.585625 311.904 
L 400.585625 45.792 
" style="fill:none;"/>
   </g>
   <g id="patch_5">
    <path d="M 43.465625 311.904 
L 400.585625 311.904 
" style="fill:none;"/>
   </g>
   <g id="patch_6">
    <path d="M 43.465625 45.792 
L 400.585625 45.792 
" style="fill:none;"/>
   </g>
   <g id="text_20">
    <!-- Upload -->
    <g transform="translate(115.225313 43.13088)scale(0.1 -0.1)">
     <defs>
      <path d="M 8.6875 72.90625 
L 18.609375 72.90625 
L 18.609375 28.609375 
Q 18.609375 16.890625 22.84375 11.734375 
Q 27.09375 6.59375 36.625 6.59375 
Q 46.09375 6.59375 50.34375 11.734375 
Q 54.59375 16.890625 54.59375 28.609375 
L 54.59375 72.90625 
L 64.5 72.90625 
L 64.5 27.390625 
Q 64.5 13.140625 57.4375 5.859375 
Q 50.390625 -1.421875 36.625 -1.421875 
Q 22.796875 -1.421875 15.734375 5.859375 
Q 8.6875 13.140625 8.6875 27.390625 
z
" id="DejaVuSans-85"/>
     </defs>
     <use xlink:href="#DejaVuSans-85"/>
     <use x="73.193359" xlink:href="#DejaVuSans-112"/>
     <use x="136.669922" xlink:href="#DejaVuSans-108"/>
     <use x="164.453125" xlink:href="#DejaVuSans-111"/>
     <use x="225.634766" xlink:href="#DejaVuSans-97"/>
     <use x="286.914062" xlink:href="#DejaVuSans-100"/>
    </g>
   </g>
   <g id="text_21">
    <!-- Ping (ms) -->
    <g transform="translate(287.705625 43.13088)scale(0.1 -0.1)">
     <defs>
      <path d="M 19.671875 64.796875 
L 19.671875 37.40625 
L 32.078125 37.40625 
Q 38.96875 37.40625 42.71875 40.96875 
Q 46.484375 44.53125 46.484375 51.125 
Q 46.484375 57.671875 42.71875 61.234375 
Q 38.96875 64.796875 32.078125 64.796875 
z
M 9.8125 72.90625 
L 32.078125 72.90625 
Q 44.34375 72.90625 50.609375 67.359375 
Q 56.890625 61.8125 56.890625 51.125 
Q 56.890625 40.328125 50.609375 34.8125 
Q 44.34375 29.296875 32.078125 29.296875 
L 19.671875 29.296875 
L 19.671875 0 
L 9.8125 0 
z
" id="DejaVuSans-80"/>
      <path d="M 45.40625 27.984375 
Q 45.40625 37.75 41.375 43.109375 
Q 37.359375 48.484375 30.078125 48.484375 
Q 22.859375 48.484375 18.828125 43.109375 
Q 14.796875 37.75 14.796875 27.984375 
Q 14.796875 18.265625 18.828125 12.890625 
Q 22.859375 7.515625 30.078125 7.515625 
Q 37.359375 7.515625 41.375 12.890625 
Q 45.40625 18.265625 45.40625 27.984375 
z
M 54.390625 6.78125 
Q 54.390625 -7.171875 48.1875 -13.984375 
Q 42 -20.796875 29.203125 -20.796875 
Q 24.46875 -20.796875 20.265625 -20.09375 
Q 16.0625 -19.390625 12.109375 -17.921875 
L 12.109375 -9.1875 
Q 16.0625 -11.328125 19.921875 -12.34375 
Q 23.78125 -13.375 27.78125 -13.375 
Q 36.625 -13.375 41.015625 -8.765625 
Q 45.40625 -4.15625 45.40625 5.171875 
L 45.40625 9.625 
Q 42.625 4.78125 38.28125 2.390625 
Q 33.9375 0 27.875 0 
Q 17.828125 0 11.671875 7.65625 
Q 5.515625 15.328125 5.515625 27.984375 
Q 5.515625 40.671875 11.671875 48.328125 
Q 17.828125 56 27.875 56 
Q 33.9375 56 38.28125 53.609375 
Q 42.625 51.21875 45.40625 46.390625 
L 45.40625 54.6875 
L 54.390625 54.6875 
z
" id="DejaVuSans-103"/>
      <path id="DejaVuSans-32"/>
      <path d="M 31 75.875 
Q 24.46875 64.65625 21.28125 53.65625 
Q 18.109375 42.671875 18.109375 31.390625 
Q 18.109375 20.125 21.3125 9.0625 
Q 24.515625 -2 31 -13.1875 
L 23.1875 -13.1875 
Q 15.875 -1.703125 12.234375 9.375 
Q 8.59375 20.453125 8.59375 31.390625 
Q 8.59375 42.28125 12.203125 53.3125 
Q 15.828125 64.359375 23.1875 75.875 
z
" id="DejaVuSans-40"/>
      <path d="M 52 44.1875 
Q 55.375 50.25 60.0625 53.125 
Q 64.75 56 71.09375 56 
Q 79.640625 56 84.28125 50.015625 
Q 88.921875 44.046875 88.921875 33.015625 
L 88.921875 0 
L 79.890625 0 
L 79.890625 32.71875 
Q 79.890625 40.578125 77.09375 44.375 
Q 74.3125 48.1875 68.609375 48.1875 
Q 61.625 48.1875 57.5625 43.546875 
Q 53.515625 38.921875 53.515625 30.90625 
L 53.515625 0 
L 44.484375 0 
L 44.484375 32.71875 
Q 44.484375 40.625 41.703125 44.40625 
Q 38.921875 48.1875 33.109375 48.1875 
Q 26.21875 48.1875 22.15625 43.53125 
Q 18.109375 38.875 18.109375 30.90625 
L 18.109375 0 
L 9.078125 0 
L 9.078125 54.6875 
L 18.109375 54.6875 
L 18.109375 46.1875 
Q 21.1875 51.21875 25.484375 53.609375 
Q 29.78125 56 35.6875 56 
Q 41.65625 56 45.828125 52.96875 
Q 50 49.953125 52 44.1875 
z
" id="DejaVuSans-109"/>
      <path d="M 8.015625 75.875 
L 15.828125 75.875 
Q 23.140625 64.359375 26.78125 53.3125 
Q 30.421875 42.28125 30.421875 31.390625 
Q 30.421875 20.453125 26.78125 9.375 
Q 23.140625 -1.703125 15.828125 -13.1875 
L 8.015625 -13.1875 
Q 14.5 -2 17.703125 9.0625 
Q 20.90625 20.125 20.90625 31.390625 
Q 20.90625 42.671875 17.703125 53.65625 
Q 14.5 64.65625 8.015625 75.875 
z
" id="DejaVuSans-41"/>
     </defs>
     <use xlink:href="#DejaVuSans-80"/>
     <use x="58.052734" xlink:href="#DejaVuSans-105"/>
     <use x="85.835938" xlink:href="#DejaVuSans-110"/>
     <use x="149.214844" xlink:href="#DejaVuSans-103"/>
     <use x="212.691406" xlink:href="#DejaVuSans-32"/>
     <use x="244.478516" xlink:href="#DejaVuSans-40"/>
     <use x="283.492188" xlink:href="#DejaVuSans-109"/>
     <use x="380.904297" xlink:href="#DejaVuSans-115"/>
     <use x="433.003906" xlink:href="#DejaVuSans-41"/>
    </g>
   </g>
   <g id="legend_1">
    <g id="line2d_87">
     <path d="M 443.200825 52.537998 
L 459.860825 52.537998 
" style="fill:none;stroke:#1b9e77;stroke-linecap:round;"/>
    </g>
    <g id="line2d_88"/>
    <g id="text_22">
     <!-- BBRn-fq -->
     <g transform="translate(466.524825 55.453498)scale(0.0833 -0.0833)">
      <use xlink:href="#DejaVuSans-66"/>
      <use x="68.603516" xlink:href="#DejaVuSans-66"/>
      <use x="137.207031" xlink:href="#DejaVuSans-82"/>
      <use x="206.689453" xlink:href="#DejaVuSans-110"/>
      <use x="270.068359" xlink:href="#DejaVuSans-45"/>
      <use x="306.152344" xlink:href="#DejaVuSans-102"/>
      <use x="341.357422" xlink:href="#DejaVuSans-113"/>
     </g>
    </g>
    <g id="line2d_89">
     <path d="M 443.200825 64.764877 
L 459.860825 64.764877 
" style="fill:none;stroke:#d95f02;stroke-linecap:round;"/>
    </g>
    <g id="line2d_90"/>
    <g id="text_23">
     <!-- BBRn-pie -->
     <g transform="translate(466.524825 67.680377)scale(0.0833 -0.0833)">
      <use xlink:href="#DejaVuSans-66"/>
      <use x="68.603516" xlink:href="#DejaVuSans-66"/>
      <use x="137.207031" xlink:href="#DejaVuSans-82"/>
      <use x="206.689453" xlink:href="#DejaVuSans-110"/>
      <use x="270.068359" xlink:href="#DejaVuSans-45"/>
      <use x="306.152344" xlink:href="#DejaVuSans-112"/>
      <use x="369.628906" xlink:href="#DejaVuSans-105"/>
      <use x="397.412109" xlink:href="#DejaVuSans-101"/>
     </g>
    </g>
    <g id="line2d_91">
     <path d="M 443.200825 76.991755 
L 459.860825 76.991755 
" style="fill:none;stroke:#7570b3;stroke-linecap:round;"/>
    </g>
    <g id="line2d_92"/>
    <g id="text_24">
     <!-- BBRn-codel -->
     <g transform="translate(466.524825 79.907255)scale(0.0833 -0.0833)">
      <use xlink:href="#DejaVuSans-66"/>
      <use x="68.603516" xlink:href="#DejaVuSans-66"/>
      <use x="137.207031" xlink:href="#DejaVuSans-82"/>
      <use x="206.689453" xlink:href="#DejaVuSans-110"/>
      <use x="270.068359" xlink:href="#DejaVuSans-45"/>
      <use x="306.152344" xlink:href="#DejaVuSans-99"/>
      <use x="361.132812" xlink:href="#DejaVuSans-111"/>
      <use x="422.314453" xlink:href="#DejaVuSans-100"/>
      <use x="485.791016" xlink:href="#DejaVuSans-101"/>
      <use x="547.314453" xlink:href="#DejaVuSans-108"/>
     </g>
    </g>
    <g id="line2d_93">
     <path d="M 443.200825 89.218633 
L 459.860825 89.218633 
" style="fill:none;stroke:#e7298a;stroke-linecap:round;"/>
    </g>
    <g id="line2d_94"/>
    <g id="text_25">
     <!-- BBRn-cake -->
     <g transform="translate(466.524825 92.134133)scale(0.0833 -0.0833)">
      <use xlink:href="#DejaVuSans-66"/>
      <use x="68.603516" xlink:href="#DejaVuSans-66"/>
      <use x="137.207031" xlink:href="#DejaVuSans-82"/>
      <use x="206.689453" xlink:href="#DejaVuSans-110"/>
      <use x="270.068359" xlink:href="#DejaVuSans-45"/>
      <use x="306.152344" xlink:href="#DejaVuSans-99"/>
      <use x="361.132812" xlink:href="#DejaVuSans-97"/>
      <use x="422.412109" xlink:href="#DejaVuSans-107"/>
      <use x="476.697266" xlink:href="#DejaVuSans-101"/>
     </g>
    </g>
    <g id="line2d_95">
     <path d="M 443.200825 101.445511 
L 459.860825 101.445511 
" style="fill:none;stroke:#66a61e;stroke-linecap:round;"/>
    </g>
    <g id="line2d_96"/>
    <g id="text_26">
     <!-- BBRn-fq_codel -->
     <g transform="translate(466.524825 104.361011)scale(0.0833 -0.0833)">
      <use xlink:href="#DejaVuSans-66"/>
      <use x="68.603516" xlink:href="#DejaVuSans-66"/>
      <use x="137.207031" xlink:href="#DejaVuSans-82"/>
      <use x="206.689453" xlink:href="#DejaVuSans-110"/>
      <use x="270.068359" xlink:href="#DejaVuSans-45"/>
      <use x="306.152344" xlink:href="#DejaVuSans-102"/>
      <use x="341.357422" xlink:href="#DejaVuSans-113"/>
      <use x="404.833984" xlink:href="#DejaVuSans-95"/>
      <use x="454.833984" xlink:href="#DejaVuSans-99"/>
      <use x="509.814453" xlink:href="#DejaVuSans-111"/>
      <use x="570.996094" xlink:href="#DejaVuSans-100"/>
      <use x="634.472656" xlink:href="#DejaVuSans-101"/>
      <use x="695.996094" xlink:href="#DejaVuSans-108"/>
     </g>
    </g>
   </g>
  </g>
  <g id="axes_2">
   <g id="matplotlib.axis_3">
    <g id="ytick_41">
     <g id="line2d_97"/>
     <g id="text_27">
      <!-- 10 -->
      <g transform="translate(404.085625 284.097323)scale(0.1 -0.1)">
       <use xlink:href="#DejaVuSans-49"/>
       <use x="63.623047" xlink:href="#DejaVuSans-48"/>
      </g>
     </g>
    </g>
    <g id="ytick_42">
     <g id="line2d_98"/>
     <g id="text_28">
      <!-- 20 -->
      <g transform="translate(404.085625 244.859224)scale(0.1 -0.1)">
       <use xlink:href="#DejaVuSans-50"/>
       <use x="63.623047" xlink:href="#DejaVuSans-48"/>
      </g>
     </g>
    </g>
    <g id="ytick_43">
     <g id="line2d_99"/>
     <g id="text_29">
      <!-- 30 -->
      <g transform="translate(404.085625 205.621125)scale(0.1 -0.1)">
       <use xlink:href="#DejaVuSans-51"/>
       <use x="63.623047" xlink:href="#DejaVuSans-48"/>
      </g>
     </g>
    </g>
    <g id="ytick_44">
     <g id="line2d_100"/>
     <g id="text_30">
      <!-- 40 -->
      <g transform="translate(404.085625 166.383027)scale(0.1 -0.1)">
       <use xlink:href="#DejaVuSans-52"/>
       <use x="63.623047" xlink:href="#DejaVuSans-48"/>
      </g>
     </g>
    </g>
    <g id="ytick_45">
     <g id="line2d_101"/>
     <g id="text_31">
      <!-- 50 -->
      <g transform="translate(404.085625 127.144928)scale(0.1 -0.1)">
       <use xlink:href="#DejaVuSans-53"/>
       <use x="63.623047" xlink:href="#DejaVuSans-48"/>
      </g>
     </g>
    </g>
    <g id="ytick_46">
     <g id="line2d_102"/>
     <g id="text_32">
      <!-- 60 -->
      <g transform="translate(404.085625 87.90683)scale(0.1 -0.1)">
       <defs>
        <path d="M 33.015625 40.375 
Q 26.375 40.375 22.484375 35.828125 
Q 18.609375 31.296875 18.609375 23.390625 
Q 18.609375 15.53125 22.484375 10.953125 
Q 26.375 6.390625 33.015625 6.390625 
Q 39.65625 6.390625 43.53125 10.953125 
Q 47.40625 15.53125 47.40625 23.390625 
Q 47.40625 31.296875 43.53125 35.828125 
Q 39.65625 40.375 33.015625 40.375 
z
M 52.59375 71.296875 
L 52.59375 62.3125 
Q 48.875 64.0625 45.09375 64.984375 
Q 41.3125 65.921875 37.59375 65.921875 
Q 27.828125 65.921875 22.671875 59.328125 
Q 17.53125 52.734375 16.796875 39.40625 
Q 19.671875 43.65625 24.015625 45.921875 
Q 28.375 48.1875 33.59375 48.1875 
Q 44.578125 48.1875 50.953125 41.515625 
Q 57.328125 34.859375 57.328125 23.390625 
Q 57.328125 12.15625 50.6875 5.359375 
Q 44.046875 -1.421875 33.015625 -1.421875 
Q 20.359375 -1.421875 13.671875 8.265625 
Q 6.984375 17.96875 6.984375 36.375 
Q 6.984375 53.65625 15.1875 63.9375 
Q 23.390625 74.21875 37.203125 74.21875 
Q 40.921875 74.21875 44.703125 73.484375 
Q 48.484375 72.75 52.59375 71.296875 
z
" id="DejaVuSans-54"/>
       </defs>
       <use xlink:href="#DejaVuSans-54"/>
       <use x="63.623047" xlink:href="#DejaVuSans-48"/>
      </g>
     </g>
    </g>
    <g id="ytick_47">
     <g id="line2d_103"/>
    </g>
    <g id="ytick_48">
     <g id="line2d_104"/>
    </g>
    <g id="ytick_49">
     <g id="line2d_105"/>
    </g>
    <g id="ytick_50">
     <g id="line2d_106"/>
    </g>
    <g id="ytick_51">
     <g id="line2d_107"/>
    </g>
    <g id="ytick_52">
     <g id="line2d_108"/>
    </g>
    <g id="ytick_53">
     <g id="line2d_109"/>
    </g>
    <g id="ytick_54">
     <g id="line2d_110"/>
    </g>
    <g id="ytick_55">
     <g id="line2d_111"/>
    </g>
    <g id="ytick_56">
     <g id="line2d_112"/>
    </g>
    <g id="ytick_57">
     <g id="line2d_113"/>
    </g>
    <g id="ytick_58">
     <g id="line2d_114"/>
    </g>
    <g id="ytick_59">
     <g id="line2d_115"/>
    </g>
    <g id="ytick_60">
     <g id="line2d_116"/>
    </g>
    <g id="ytick_61">
     <g id="line2d_117"/>
    </g>
    <g id="ytick_62">
     <g id="line2d_118"/>
    </g>
    <g id="ytick_63">
     <g id="line2d_119"/>
    </g>
    <g id="ytick_64">
     <g id="line2d_120"/>
    </g>
    <g id="ytick_65">
     <g id="line2d_121"/>
    </g>
    <g id="ytick_66">
     <g id="line2d_122"/>
    </g>
    <g id="ytick_67">
     <g id="line2d_123"/>
    </g>
    <g id="ytick_68">
     <g id="line2d_124"/>
    </g>
    <g id="ytick_69">
     <g id="line2d_125"/>
    </g>
    <g id="ytick_70">
     <g id="line2d_126"/>
    </g>
    <g id="ytick_71">
     <g id="line2d_127"/>
    </g>
    <g id="ytick_72">
     <g id="line2d_128"/>
    </g>
    <g id="ytick_73">
     <g id="line2d_129"/>
    </g>
    <g id="ytick_74">
     <g id="line2d_130"/>
    </g>
    <g id="text_33">
     <!-- ms -->
     <g transform="translate(428.409063 186.323)rotate(-90)scale(0.1 -0.1)">
      <use xlink:href="#DejaVuSans-109"/>
      <use x="97.412109" xlink:href="#DejaVuSans-115"/>
     </g>
    </g>
   </g>
   <g id="line2d_131">
    <path clip-path="url(#p1e465baa2d)" d="M 244.345625 280.965152 
L 259.225625 280.965152 
L 259.225625 242.237148 
L 244.345625 242.237148 
L 244.345625 280.965152 
" style="fill:none;stroke:#1b9e77;stroke-linecap:round;"/>
   </g>
   <g id="line2d_132">
    <path clip-path="url(#p1e465baa2d)" d="M 251.785625 280.965152 
L 251.785625 307.136963 
" style="fill:none;stroke:#1b9e77;stroke-linecap:round;"/>
   </g>
   <g id="line2d_133">
    <path clip-path="url(#p1e465baa2d)" d="M 251.785625 242.237148 
L 251.785625 185.734286 
" style="fill:none;stroke:#1b9e77;stroke-linecap:round;"/>
   </g>
   <g id="line2d_134">
    <path clip-path="url(#p1e465baa2d)" d="M 248.065625 307.136963 
L 255.505625 307.136963 
" style="fill:none;stroke:#1b9e77;stroke-linecap:round;"/>
   </g>
   <g id="line2d_135">
    <path clip-path="url(#p1e465baa2d)" d="M 248.065625 185.734286 
L 255.505625 185.734286 
" style="fill:none;stroke:#1b9e77;stroke-linecap:round;"/>
   </g>
   <g id="line2d_136">
    <g clip-path="url(#p1e465baa2d)">
     <use style="fill:#0000ff;stroke:#1b9e77;" x="251.785625" xlink:href="#mbb1058ff51" y="179.848572"/>
     <use style="fill:#0000ff;stroke:#1b9e77;" x="251.785625" xlink:href="#mbb1058ff51" y="181.418095"/>
     <use style="fill:#0000ff;stroke:#1b9e77;" x="251.785625" xlink:href="#mbb1058ff51" y="179.456191"/>
     <use style="fill:#0000ff;stroke:#1b9e77;" x="251.785625" xlink:href="#mbb1058ff51" y="108.827613"/>
     <use style="fill:#0000ff;stroke:#1b9e77;" x="251.785625" xlink:href="#mbb1058ff51" y="154.343807"/>
    </g>
   </g>
   <g id="line2d_137">
    <path clip-path="url(#p1e465baa2d)" d="M 274.105625 290.794295 
L 288.985625 290.794295 
L 288.985625 263.621912 
L 274.105625 263.621912 
L 274.105625 290.794295 
" style="fill:none;stroke:#d95f02;stroke-linecap:round;"/>
   </g>
   <g id="line2d_138">
    <path clip-path="url(#p1e465baa2d)" d="M 281.545625 290.794295 
L 281.545625 306.901535 
" style="fill:none;stroke:#d95f02;stroke-linecap:round;"/>
   </g>
   <g id="line2d_139">
    <path clip-path="url(#p1e465baa2d)" d="M 281.545625 263.621912 
L 281.545625 224.972385 
" style="fill:none;stroke:#d95f02;stroke-linecap:round;"/>
   </g>
   <g id="line2d_140">
    <path clip-path="url(#p1e465baa2d)" d="M 277.825625 306.901535 
L 285.265625 306.901535 
" style="fill:none;stroke:#d95f02;stroke-linecap:round;"/>
   </g>
   <g id="line2d_141">
    <path clip-path="url(#p1e465baa2d)" d="M 277.825625 224.972385 
L 285.265625 224.972385 
" style="fill:none;stroke:#d95f02;stroke-linecap:round;"/>
   </g>
   <g id="line2d_142">
    <g clip-path="url(#p1e465baa2d)">
     <use style="fill:#0000ff;stroke:#d95f02;" x="281.545625" xlink:href="#m23283ee156" y="189.658096"/>
     <use style="fill:#0000ff;stroke:#d95f02;" x="281.545625" xlink:href="#m23283ee156" y="219.479051"/>
     <use style="fill:#0000ff;stroke:#d95f02;" x="281.545625" xlink:href="#m23283ee156" y="162.976189"/>
     <use style="fill:#0000ff;stroke:#d95f02;" x="281.545625" xlink:href="#m23283ee156" y="221.048575"/>
     <use style="fill:#0000ff;stroke:#d95f02;" x="281.545625" xlink:href="#m23283ee156" y="216.340003"/>
     <use style="fill:#0000ff;stroke:#d95f02;" x="281.545625" xlink:href="#m23283ee156" y="216.732384"/>
     <use style="fill:#0000ff;stroke:#d95f02;" x="281.545625" xlink:href="#m23283ee156" y="218.301908"/>
     <use style="fill:#0000ff;stroke:#d95f02;" x="281.545625" xlink:href="#m23283ee156" y="167.684761"/>
     <use style="fill:#0000ff;stroke:#d95f02;" x="281.545625" xlink:href="#m23283ee156" y="148.850474"/>
     <use style="fill:#0000ff;stroke:#d95f02;" x="281.545625" xlink:href="#m23283ee156" y="205.745717"/>
     <use style="fill:#0000ff;stroke:#d95f02;" x="281.545625" xlink:href="#m23283ee156" y="216.340003"/>
    </g>
   </g>
   <g id="line2d_143">
    <path clip-path="url(#p1e465baa2d)" d="M 303.865625 284.898771 
L 318.745625 284.898771 
L 318.745625 247.730482 
L 303.865625 247.730482 
L 303.865625 284.898771 
" style="fill:none;stroke:#7570b3;stroke-linecap:round;"/>
   </g>
   <g id="line2d_144">
    <path clip-path="url(#p1e465baa2d)" d="M 311.305625 284.898771 
L 311.305625 304.625725 
" style="fill:none;stroke:#7570b3;stroke-linecap:round;"/>
   </g>
   <g id="line2d_145">
    <path clip-path="url(#p1e465baa2d)" d="M 311.305625 247.730482 
L 311.305625 193.189525 
" style="fill:none;stroke:#7570b3;stroke-linecap:round;"/>
   </g>
   <g id="line2d_146">
    <path clip-path="url(#p1e465baa2d)" d="M 307.585625 304.625725 
L 315.025625 304.625725 
" style="fill:none;stroke:#7570b3;stroke-linecap:round;"/>
   </g>
   <g id="line2d_147">
    <path clip-path="url(#p1e465baa2d)" d="M 307.585625 193.189525 
L 315.025625 193.189525 
" style="fill:none;stroke:#7570b3;stroke-linecap:round;"/>
   </g>
   <g id="line2d_148">
    <g clip-path="url(#p1e465baa2d)">
     <use style="fill:#0000ff;stroke:#7570b3;" x="311.305625" xlink:href="#m6002cd1621" y="96.663802"/>
     <use style="fill:#0000ff;stroke:#7570b3;" x="311.305625" xlink:href="#m6002cd1621" y="182.595238"/>
     <use style="fill:#0000ff;stroke:#7570b3;" x="311.305625" xlink:href="#m6002cd1621" y="182.595238"/>
     <use style="fill:#0000ff;stroke:#7570b3;" x="311.305625" xlink:href="#m6002cd1621" y="180.633333"/>
     <use style="fill:#0000ff;stroke:#7570b3;" x="311.305625" xlink:href="#m6002cd1621" y="179.848572"/>
     <use style="fill:#0000ff;stroke:#7570b3;" x="311.305625" xlink:href="#m6002cd1621" y="191.22762"/>
     <use style="fill:#0000ff;stroke:#7570b3;" x="311.305625" xlink:href="#m6002cd1621" y="178.671429"/>
     <use style="fill:#0000ff;stroke:#7570b3;" x="311.305625" xlink:href="#m6002cd1621" y="48.400941"/>
    </g>
   </g>
   <g id="line2d_149">
    <path clip-path="url(#p1e465baa2d)" d="M 333.625625 290.892391 
L 348.505625 290.892391 
L 348.505625 265.780007 
L 333.625625 265.780007 
L 333.625625 290.892391 
" style="fill:none;stroke:#e7298a;stroke-linecap:round;"/>
   </g>
   <g id="line2d_150">
    <path clip-path="url(#p1e465baa2d)" d="M 341.065625 290.892391 
L 341.065625 308.941916 
" style="fill:none;stroke:#e7298a;stroke-linecap:round;"/>
   </g>
   <g id="line2d_151">
    <path clip-path="url(#p1e465baa2d)" d="M 341.065625 265.780007 
L 341.065625 230.8581 
" style="fill:none;stroke:#e7298a;stroke-linecap:round;"/>
   </g>
   <g id="line2d_152">
    <path clip-path="url(#p1e465baa2d)" d="M 337.345625 308.941916 
L 344.785625 308.941916 
" style="fill:none;stroke:#e7298a;stroke-linecap:round;"/>
   </g>
   <g id="line2d_153">
    <path clip-path="url(#p1e465baa2d)" d="M 337.345625 230.8581 
L 344.785625 230.8581 
" style="fill:none;stroke:#e7298a;stroke-linecap:round;"/>
   </g>
   <g id="line2d_154">
    <g clip-path="url(#p1e465baa2d)">
     <use style="fill:#0000ff;stroke:#e7298a;" x="341.065625" xlink:href="#m4aa0def327" y="61.349514"/>
     <use style="fill:#0000ff;stroke:#e7298a;" x="341.065625" xlink:href="#m4aa0def327" y="206.530479"/>
     <use style="fill:#0000ff;stroke:#e7298a;" x="341.065625" xlink:href="#m4aa0def327" y="223.795242"/>
     <use style="fill:#0000ff;stroke:#e7298a;" x="341.065625" xlink:href="#m4aa0def327" y="204.960955"/>
     <use style="fill:#0000ff;stroke:#e7298a;" x="341.065625" xlink:href="#m4aa0def327" y="182.987619"/>
    </g>
   </g>
   <g id="line2d_155">
    <path clip-path="url(#p1e465baa2d)" d="M 363.385625 285.605057 
L 378.265625 285.605057 
L 378.265625 253.518102 
L 363.385625 253.518102 
L 363.385625 285.605057 
" style="fill:none;stroke:#66a61e;stroke-linecap:round;"/>
   </g>
   <g id="line2d_156">
    <path clip-path="url(#p1e465baa2d)" d="M 370.825625 285.605057 
L 370.825625 309.295059 
" style="fill:none;stroke:#66a61e;stroke-linecap:round;"/>
   </g>
   <g id="line2d_157">
    <path clip-path="url(#p1e465baa2d)" d="M 370.825625 253.518102 
L 370.825625 209.277145 
" style="fill:none;stroke:#66a61e;stroke-linecap:round;"/>
   </g>
   <g id="line2d_158">
    <path clip-path="url(#p1e465baa2d)" d="M 367.105625 309.295059 
L 374.545625 309.295059 
" style="fill:none;stroke:#66a61e;stroke-linecap:round;"/>
   </g>
   <g id="line2d_159">
    <path clip-path="url(#p1e465baa2d)" d="M 367.105625 209.277145 
L 374.545625 209.277145 
" style="fill:none;stroke:#66a61e;stroke-linecap:round;"/>
   </g>
   <g id="line2d_160">
    <g clip-path="url(#p1e465baa2d)">
     <use style="fill:#0000ff;stroke:#66a61e;" x="370.825625" xlink:href="#m7ee320c801" y="182.595238"/>
     <use style="fill:#0000ff;stroke:#66a61e;" x="370.825625" xlink:href="#m7ee320c801" y="204.960955"/>
     <use style="fill:#0000ff;stroke:#66a61e;" x="370.825625" xlink:href="#m7ee320c801" y="205.353336"/>
    </g>
   </g>
   <g id="line2d_161">
    <path clip-path="url(#p1e465baa2d)" d="M 400.585625 311.904 
L 400.585625 45.792 
" style="fill:none;stroke:#000000;stroke-dasharray:0.5,0.825;stroke-dashoffset:0;stroke-width:0.5;"/>
   </g>
   <g id="line2d_162">
    <path clip-path="url(#p1e465baa2d)" d="M 244.345625 264.602865 
L 259.225625 264.602865 
" style="fill:none;stroke:#ff7f0e;stroke-linecap:round;"/>
   </g>
   <g id="line2d_163">
    <path clip-path="url(#p1e465baa2d)" d="M 274.105625 280.298104 
L 288.985625 280.298104 
" style="fill:none;stroke:#ff7f0e;stroke-linecap:round;"/>
   </g>
   <g id="line2d_164">
    <path clip-path="url(#p1e465baa2d)" d="M 303.865625 269.507627 
L 318.745625 269.507627 
" style="fill:none;stroke:#ff7f0e;stroke-linecap:round;"/>
   </g>
   <g id="line2d_165">
    <path clip-path="url(#p1e465baa2d)" d="M 333.625625 279.905723 
L 348.505625 279.905723 
" style="fill:none;stroke:#ff7f0e;stroke-linecap:round;"/>
   </g>
   <g id="line2d_166">
    <path clip-path="url(#p1e465baa2d)" d="M 363.385625 269.115246 
L 378.265625 269.115246 
" style="fill:none;stroke:#ff7f0e;stroke-linecap:round;"/>
   </g>
  </g>
  <g id="text_34">
   <!-- TCP upload - 8 streams w/ping -->
   <g transform="translate(109.824062 17.837812)scale(0.14 -0.14)">
    <defs>
     <path d="M -0.296875 72.90625 
L 61.375 72.90625 
L 61.375 64.59375 
L 35.5 64.59375 
L 35.5 0 
L 25.59375 0 
L 25.59375 64.59375 
L -0.296875 64.59375 
z
" id="DejaVuSans-84"/>
     <path d="M 64.40625 67.28125 
L 64.40625 56.890625 
Q 59.421875 61.53125 53.78125 63.8125 
Q 48.140625 66.109375 41.796875 66.109375 
Q 29.296875 66.109375 22.65625 58.46875 
Q 16.015625 50.828125 16.015625 36.375 
Q 16.015625 21.96875 22.65625 14.328125 
Q 29.296875 6.6875 41.796875 6.6875 
Q 48.140625 6.6875 53.78125 8.984375 
Q 59.421875 11.28125 64.40625 15.921875 
L 64.40625 5.609375 
Q 59.234375 2.09375 53.4375 0.328125 
Q 47.65625 -1.421875 41.21875 -1.421875 
Q 24.65625 -1.421875 15.125 8.703125 
Q 5.609375 18.84375 5.609375 36.375 
Q 5.609375 53.953125 15.125 64.078125 
Q 24.65625 74.21875 41.21875 74.21875 
Q 47.75 74.21875 53.53125 72.484375 
Q 59.328125 70.75 64.40625 67.28125 
z
" id="DejaVuSans-67"/>
     <path d="M 8.5 21.578125 
L 8.5 54.6875 
L 17.484375 54.6875 
L 17.484375 21.921875 
Q 17.484375 14.15625 20.5 10.265625 
Q 23.53125 6.390625 29.59375 6.390625 
Q 36.859375 6.390625 41.078125 11.03125 
Q 45.3125 15.671875 45.3125 23.6875 
L 45.3125 54.6875 
L 54.296875 54.6875 
L 54.296875 0 
L 45.3125 0 
L 45.3125 8.40625 
Q 42.046875 3.421875 37.71875 1 
Q 33.40625 -1.421875 27.6875 -1.421875 
Q 18.265625 -1.421875 13.375 4.4375 
Q 8.5 10.296875 8.5 21.578125 
z
M 31.109375 56 
z
" id="DejaVuSans-117"/>
     <path d="M 31.78125 34.625 
Q 24.75 34.625 20.71875 30.859375 
Q 16.703125 27.09375 16.703125 20.515625 
Q 16.703125 13.921875 20.71875 10.15625 
Q 24.75 6.390625 31.78125 6.390625 
Q 38.8125 6.390625 42.859375 10.171875 
Q 46.921875 13.96875 46.921875 20.515625 
Q 46.921875 27.09375 42.890625 30.859375 
Q 38.875 34.625 31.78125 34.625 
z
M 21.921875 38.8125 
Q 15.578125 40.375 12.03125 44.71875 
Q 8.5 49.078125 8.5 55.328125 
Q 8.5 64.0625 14.71875 69.140625 
Q 20.953125 74.21875 31.78125 74.21875 
Q 42.671875 74.21875 48.875 69.140625 
Q 55.078125 64.0625 55.078125 55.328125 
Q 55.078125 49.078125 51.53125 44.71875 
Q 48 40.375 41.703125 38.8125 
Q 48.828125 37.15625 52.796875 32.3125 
Q 56.78125 27.484375 56.78125 20.515625 
Q 56.78125 9.90625 50.3125 4.234375 
Q 43.84375 -1.421875 31.78125 -1.421875 
Q 19.734375 -1.421875 13.25 4.234375 
Q 6.78125 9.90625 6.78125 20.515625 
Q 6.78125 27.484375 10.78125 32.3125 
Q 14.796875 37.15625 21.921875 38.8125 
z
M 18.3125 54.390625 
Q 18.3125 48.734375 21.84375 45.5625 
Q 25.390625 42.390625 31.78125 42.390625 
Q 38.140625 42.390625 41.71875 45.5625 
Q 45.3125 48.734375 45.3125 54.390625 
Q 45.3125 60.0625 41.71875 63.234375 
Q 38.140625 66.40625 31.78125 66.40625 
Q 25.390625 66.40625 21.84375 63.234375 
Q 18.3125 60.0625 18.3125 54.390625 
z
" id="DejaVuSans-56"/>
     <path d="M 41.109375 46.296875 
Q 39.59375 47.171875 37.8125 47.578125 
Q 36.03125 48 33.890625 48 
Q 26.265625 48 22.1875 43.046875 
Q 18.109375 38.09375 18.109375 28.8125 
L 18.109375 0 
L 9.078125 0 
L 9.078125 54.6875 
L 18.109375 54.6875 
L 18.109375 46.1875 
Q 20.953125 51.171875 25.484375 53.578125 
Q 30.03125 56 36.53125 56 
Q 37.453125 56 38.578125 55.875 
Q 39.703125 55.765625 41.0625 55.515625 
z
" id="DejaVuSans-114"/>
     <path d="M 4.203125 54.6875 
L 13.1875 54.6875 
L 24.421875 12.015625 
L 35.59375 54.6875 
L 46.1875 54.6875 
L 57.421875 12.015625 
L 68.609375 54.6875 
L 77.59375 54.6875 
L 63.28125 0 
L 52.6875 0 
L 40.921875 44.828125 
L 29.109375 0 
L 18.5 0 
z
" id="DejaVuSans-119"/>
    </defs>
    <use xlink:href="#DejaVuSans-84"/>
    <use x="55.208984" xlink:href="#DejaVuSans-67"/>
    <use x="125.033203" xlink:href="#DejaVuSans-80"/>
    <use x="185.335938" xlink:href="#DejaVuSans-32"/>
    <use x="217.123047" xlink:href="#DejaVuSans-117"/>
    <use x="280.501953" xlink:href="#DejaVuSans-112"/>
    <use x="343.978516" xlink:href="#DejaVuSans-108"/>
    <use x="371.761719" xlink:href="#DejaVuSans-111"/>
    <use x="432.943359" xlink:href="#DejaVuSans-97"/>
    <use x="494.222656" xlink:href="#DejaVuSans-100"/>
    <use x="557.699219" xlink:href="#DejaVuSans-32"/>
    <use x="589.486328" xlink:href="#DejaVuSans-45"/>
    <use x="625.570312" xlink:href="#DejaVuSans-32"/>
    <use x="657.357422" xlink:href="#DejaVuSans-56"/>
    <use x="720.980469" xlink:href="#DejaVuSans-32"/>
    <use x="752.767578" xlink:href="#DejaVuSans-115"/>
    <use x="804.867188" xlink:href="#DejaVuSans-116"/>
    <use x="844.076172" xlink:href="#DejaVuSans-114"/>
    <use x="882.939453" xlink:href="#DejaVuSans-101"/>
    <use x="944.462891" xlink:href="#DejaVuSans-97"/>
    <use x="1005.742188" xlink:href="#DejaVuSans-109"/>
    <use x="1103.154297" xlink:href="#DejaVuSans-115"/>
    <use x="1155.253906" xlink:href="#DejaVuSans-32"/>
    <use x="1187.041016" xlink:href="#DejaVuSans-119"/>
    <use x="1268.828125" xlink:href="#DejaVuSans-47"/>
    <use x="1302.519531" xlink:href="#DejaVuSans-112"/>
    <use x="1365.996094" xlink:href="#DejaVuSans-105"/>
    <use x="1393.779297" xlink:href="#DejaVuSans-110"/>
    <use x="1457.158203" xlink:href="#DejaVuSans-103"/>
   </g>
   <!-- Box plot of totals -->
   <g transform="translate(156.765625 33.51475)scale(0.14 -0.14)">
    <defs>
     <path d="M 54.890625 54.6875 
L 35.109375 28.078125 
L 55.90625 0 
L 45.3125 0 
L 29.390625 21.484375 
L 13.484375 0 
L 2.875 0 
L 24.125 28.609375 
L 4.6875 54.6875 
L 15.28125 54.6875 
L 29.78125 35.203125 
L 44.28125 54.6875 
z
" id="DejaVuSans-120"/>
    </defs>
    <use xlink:href="#DejaVuSans-66"/>
    <use x="68.603516" xlink:href="#DejaVuSans-111"/>
    <use x="126.660156" xlink:href="#DejaVuSans-120"/>
    <use x="185.839844" xlink:href="#DejaVuSans-32"/>
    <use x="217.626953" xlink:href="#DejaVuSans-112"/>
    <use x="281.103516" xlink:href="#DejaVuSans-108"/>
    <use x="308.886719" xlink:href="#DejaVuSans-111"/>
    <use x="370.068359" xlink:href="#DejaVuSans-116"/>
    <use x="409.277344" xlink:href="#DejaVuSans-32"/>
    <use x="441.064453" xlink:href="#DejaVuSans-111"/>
    <use x="502.246094" xlink:href="#DejaVuSans-102"/>
    <use x="537.451172" xlink:href="#DejaVuSans-32"/>
    <use x="569.238281" xlink:href="#DejaVuSans-116"/>
    <use x="608.447266" xlink:href="#DejaVuSans-111"/>
    <use x="669.628906" xlink:href="#DejaVuSans-116"/>
    <use x="708.837891" xlink:href="#DejaVuSans-97"/>
    <use x="770.117188" xlink:href="#DejaVuSans-108"/>
    <use x="797.900391" xlink:href="#DejaVuSans-115"/>
   </g>
  </g>
 </g>
 <defs>
  <clipPath id="p1e465baa2d">
   <rect height="266.112" width="357.12" x="43.465625" y="45.792"/>
  </clipPath>
 </defs>
</svg>
